<svg width="275" height="60" viewBox="0 0 275 60" fill="none" xmlns="http://www.w3.org/2000/svg">
<path d="M156.136 57.6282C156.019 57.9133 156.31 58.354 155.874 58.6651L154.87 58.1466C153.954 58.1725 153.706 58.9891 153.095 59.3521H149.124C148.382 58.7299 148.92 58.3151 149.4 57.9003C148.925 57.6152 148.382 57.6973 147.771 58.1466H145.807L145.181 58.7169H143.261L142.49 59.3261L141.122 58.1596C140.424 57.9263 140.191 58.5744 139.624 58.7947C139.405 58.704 139.129 58.5873 138.853 58.4836C138.576 58.367 138.3 58.1855 138.009 58.1725C136.845 58.1207 135.914 57.0449 134.692 57.6541L133.819 56.9801H130.72L128.334 55.7487H127.17L126.559 56.306C126.181 56.332 125.657 56.3579 125.134 56.3838L124.581 56.8764H121.758L120.478 55.7098H116.347C116.536 54.7118 117.321 55.3469 117.874 55.0747L118.951 54.1414L117.801 53.3637L117.249 53.8692L116.608 53.4156C115.881 53.8822 114.892 53.9859 114.324 54.7118C114.063 55.0488 114.383 55.658 113.524 55.7617C112.739 55.8654 112.099 56.6301 111.066 56.2283L110.833 55.5154C111.618 55.0228 112.695 54.9191 112.884 53.8692C112.84 53.2989 112.215 53.1434 111.909 52.7156L111.197 53.2989H109.902L109.174 52.6768H106.556L105.363 51.6009C104.359 51.7824 104.417 52.7027 103.966 53.2471L101.871 52.1453L101.217 52.6768C99.9363 53.1045 99.0779 51.6009 97.8122 52.2101L97.594 52.7027C97.0412 52.8193 96.983 52.2101 96.5174 52.1712L95.921 53.273C95.1063 52.8712 96.1392 51.8861 95.1936 51.5361C94.5534 52.2749 95.2954 53.1693 94.6116 53.9081L93.957 52.7027L92.8804 52.8323L93.4914 53.5582C93.4332 54.1285 92.8659 53.8044 92.4294 54.0766C92.3421 54.284 92.2112 54.634 92.0803 54.984C91.2947 55.5413 90.9892 54.6599 90.3199 54.4914L87.9195 55.6191C87.4539 55.0488 86.4501 55.1395 85.8536 54.5562C85.65 54.3618 85.0099 54.5303 84.748 54.5303L83.5696 53.8044L82.6676 54.4396C82.5221 54.4655 82.3184 54.5303 82.1148 54.5303C81.3583 54.5044 80.6018 54.4655 79.8307 54.4266C79.2924 53.5063 77.8231 54.3618 77.2848 53.26H75.0153L75.5245 52.3138C75.0153 51.925 74.4479 52.249 73.8951 52.0935L73.415 53.2989H70.0107L69.3706 53.8822H65.268L64.7006 53.3637H60.7872L60.0016 52.7416H58.7359L57.9939 52.1194H55.9281L55.5353 51.0825C55.0552 50.7066 54.4878 51.0436 53.935 50.8621L53.4694 52.0416H49.4542L46.8791 50.8232L46.0353 51.4843L45.2352 50.8362L43.6785 51.5361C42.9511 51.3935 42.6602 50.7973 42.151 50.4344C41.1472 50.888 40.0269 51.1991 39.3432 52.262L38.8776 51.0177L37.9611 50.901C37.8156 51.2769 37.6701 51.6269 37.5392 51.9768C36.3463 52.7027 35.5898 51.562 34.615 51.3676C34.164 51.2769 33.8876 50.5251 33.4075 50.3955C32.8693 50.2399 32.4037 50.1233 32.0691 49.7085H30.1778C29.3777 49.2678 28.6939 48.8271 27.9374 48.529C27.5737 48.3864 27.0791 48.5031 26.7299 48.5031L26.1626 47.9846C25.6097 48.0753 25.406 48.5808 25.0132 48.853C24.5914 49.1382 24.344 49.6437 23.9658 49.7215C23.0783 49.7085 22.8747 49.1512 22.4673 48.8401C22.06 48.529 21.8272 48.1531 21.6672 47.6346C21.478 47.0254 20.7215 46.6107 19.7177 46.5458L20.4015 45.7033C20.3724 45.4311 20.3724 44.9515 20.2705 44.4979C20.256 44.3942 19.9214 44.3553 19.7323 44.2775C19.8632 43.772 19.1794 43.7202 19.1358 43.2147C19.6886 43.1239 20.4597 43.1758 20.8525 42.8647C21.3035 42.5018 21.8708 42.5925 22.2927 42.2685C22.0018 41.75 21.6381 41.413 20.9689 41.2186C20.3869 41.0501 19.9359 40.5445 19.354 40.1427L18.7866 40.5705C17.9574 39.8057 17.1281 39.041 16.4444 38.4188C15.9643 38.3281 15.7461 38.3151 15.5569 38.2374C15.3678 38.1725 15.2078 38.0429 15.0332 37.9263V36.332C14.364 35.1265 13.8403 34.0377 12.3563 33.4026C12.4582 33.4026 12.24 33.4026 11.9345 33.3897L11.658 32.6379C11.8472 32.4694 12.0072 32.2101 12.1236 32.2361C13.2729 32.3786 14.073 31.6398 15.0187 31.3028V30.1233L14.3931 29.4752L14.9023 29.0086C14.8441 28.879 14.8004 28.7105 14.6986 28.6068C14.4804 28.3864 14.1312 27.9716 14.0003 28.0235C13.0401 28.3864 12.9528 26.7532 12.0363 27.4661L10.7851 25.0552C9.5631 25.3015 8.69021 24.0701 7.43907 24.3683C6.53708 23.7202 5.44597 23.3832 4.44215 22.9166C4.67492 21.8666 3.74384 21.1667 3.49652 20.2594L2.59453 20.052L0.441406 18.1077V16.5912L2.08535 16.5134C2.60908 16.0079 1.80893 15.9561 1.7071 15.5543V14.4525L2.33267 13.8304C2.55089 13.2082 2.01261 12.923 1.72164 12.6249V11.3806C2.44905 10.7195 3.16191 10.0714 3.91842 9.38447L5.43142 9.22893L6.0279 8.6975H9.35943L10.0577 8.06237H14.0439L14.6404 7.51798L15.3387 8.08829L15.9643 7.51798C16.7644 7.45317 17.7246 7.49205 18.6848 7.51798L19.2376 8.02349L20.2705 7.42725L21.6817 8.16607L22.7437 7.50502H23.9658L24.6495 8.08829L25.1151 7.66056C25.2024 7.60871 25.2897 7.49205 25.3624 7.49205C26.9045 7.49205 28.4466 7.49205 29.9596 7.49205L30.4688 7.02543C31.2641 6.96494 32.1661 7.1248 33.1748 7.50502L33.9604 6.92174H35.8371L36.6227 6.29957H41.2199L41.9473 5.67741H43.9113L44.6096 6.26069H45.9189L46.7627 5.59964L48.043 6.18292L48.5522 5.71629H51.8546C52.0146 5.84591 53.0039 6.26069 53.2221 6.28661L53.935 5.67741H56.5682L57.3102 5.05524H60.598L61.1654 4.54973L62.1983 5.14598L63.6095 4.40715L64.5988 5.02932L65.2534 4.48493H66.6501L67.0429 5.53483C67.7557 5.85887 68.5268 5.66445 69.1524 5.66445C70.418 4.82193 72.1202 5.02932 73.1386 3.96645H76.0627C76.1791 4.58862 76.281 5.14598 76.4555 6.13107C76.7029 5.45706 76.8192 5.22375 76.8629 4.96451C76.9211 4.67935 76.9065 4.38123 76.9211 4.14792C77.7503 3.27948 78.0558 4.2905 78.5796 4.459L79.1179 3.96645H81.3001L81.8238 5.19782L82.4494 3.96645C83.1186 3.66833 83.4532 4.122 83.846 4.48493H85.1844L85.8827 3.88868H89.8544L90.4654 3.33133C91.7311 3.17579 93.1568 3.37021 94.5243 3.2406L95.2227 2.70916L96.4738 3.8498H97.8268C98.2196 3.72018 98.4087 2.99432 99.3398 3.44798L99.849 3.87572H101.828L102.54 3.27948H103.69L104.504 3.81091H105.93L106.41 2.70916L107.909 2.64435L109.102 4.16088L109.596 2.8647C110.295 2.46289 111.08 2.73509 111.808 2.68324L112.637 3.37021L114.033 2.73509H123.853L124.392 3.22763L125.119 2.6962H127.68L128.451 2.07404H131.055L131.782 1.46483L132.379 2.00923L134.779 2.11292L135.667 3.31837L136.627 3.1369L136.816 2.29439C137.427 1.76295 138.242 2.17773 139.013 2.06108L139.755 2.65732H141.049L141.559 2.24254C142.213 1.86665 142.999 2.15181 143.726 2.06108L144.439 1.46483C145.385 1.28337 145.836 2.61843 147.32 1.8148C147.218 1.87961 147.567 1.67222 148.018 1.40003L149.444 2.13885L150.491 1.4778H160.995L161.708 0.881555L162.392 1.43891L163.221 0.790822L165.039 1.60741L166.058 0.052002L166.858 0.687128C167.542 1.07598 168.313 0.803784 169.055 0.855631L169.52 0.427893C169.593 0.389008 169.724 0.298275 169.753 0.311237C169.927 0.440855 170.073 0.583434 170.306 0.790822H174.714C175.005 0.959325 175.179 1.05006 175.368 1.15375C175.543 1.25745 175.718 1.36114 176.023 1.5426L177.158 0.894517H178.933L179.689 0.285314L180.373 0.855631H181.668L182.381 0.285314L182.948 0.803784H185.756L186.25 0.363084C186.862 0.713052 187.502 0.985249 188.302 0.868593L189.029 0.285314H190.324L191.022 0.868593H192.346L192.943 0.324199L194.165 0.246428L195.023 0.816746H196.405C196.58 0.661205 196.74 0.518625 196.9 0.376046L198.151 0.985249L199.009 0.285314H200.304L201.002 0.855631L201.672 0.311237C202.399 0.103849 202.661 0.687128 203.243 0.972287L204.363 0.389008L205.003 0.855631H207.636L208.335 0.285314H221.602L222.315 0.881555H223.625L224.105 1.30929C225.036 1.40435 226.171 1.08894 227.509 0.363084C228.222 0.70009 228.92 1.0371 229.662 1.38706L230.957 0.285314L231.524 0.803784H234.725L235.685 1.49076H238.275C238.551 1.73703 238.711 1.87961 238.857 2.02219L239.89 1.3741C240.646 1.80184 241.519 2.07404 241.17 3.08505C240.486 3.42206 239.817 3.21467 239.351 3.26652C238.624 3.53872 238.056 3.73314 237.504 3.99238C237.358 4.05719 237.344 4.31642 237.358 4.459C236.936 4.5627 236.427 4.51085 236.878 5.04228C237.038 4.87378 237.184 4.71824 237.358 4.459C238.26 4.49789 239.264 4.49789 240.268 4.49789L240.835 5.02932H244.836L245.505 5.63852L246.494 5.05524L249.142 6.28661H250.859L252.299 7.53094H252.939L254.874 9.29374L255.631 8.72342C256.111 9.65667 257.231 9.85109 258.089 10.3566C258.598 10.6547 259.268 10.7195 259.69 11.225C260.213 11.8602 261.115 11.9898 261.843 12.3138C262.279 12.5083 262.876 12.249 263.341 12.7027C263.589 12.949 264.141 12.936 264.432 13.1693C264.84 13.4804 265.145 13.9211 265.378 14.1933H267.022L267.327 15.2173C267.633 15.7357 268.433 15.1654 268.971 15.4635C269.48 15.7487 269.99 16.0339 270.528 16.319L269.219 16.8893C269.728 17.3948 270.31 17.0708 270.833 17.1875C270.993 17.3171 271.154 17.4467 271.314 17.5893C272.056 18.1077 273.045 17.4597 273.772 18.017C273.704 18.259 272.938 18.4015 271.474 18.4447C271.11 18.7558 271.081 19.1058 271.43 19.5595L273.569 19.6502C274.092 20.0909 273.743 20.6223 273.859 21.0889C274.078 21.3093 274.296 21.5167 274.5 21.737L272.637 22.6055H269.626C268.884 23.0073 268.564 23.8239 267.502 23.9146C266.862 23.9794 266.149 24.472 265.683 24.9515C265.087 25.5737 264.098 25.5478 263.559 26.2218L262.847 25.6385C262.192 25.4182 261.915 25.9755 261.479 26.2607H254.874L254.394 26.7014C253.536 27.1421 252.837 26.7273 252.125 26.3385L251.601 26.818L250.902 26.2996L250.233 26.831C250.015 26.6495 249.768 26.4551 249.535 26.2736L248.968 26.7792L247.949 26.17L246.858 26.7532L246.218 26.2736H243.585C243.177 26.4551 242.945 27.0773 242.261 26.844L241.548 26.2477H237.562L237.067 26.7014C236.66 26.9606 236.631 26.4551 236.107 26.3255C235.423 26.3255 234.463 26.3255 233.488 26.3255C233.416 26.3255 233.328 26.4551 233.139 26.6366C233.823 26.7532 234.609 26.6755 234.987 26.9995C235.569 27.505 236.238 27.2717 236.776 27.4921C237.329 27.7124 237.824 28.0753 238.435 28.2309C238.056 28.9827 237.896 30.0196 237.038 30.2788C235.903 30.6158 235.307 31.3676 234.579 32.0416C234.318 32.6897 235.089 32.8582 235.234 33.3248C235.22 33.7137 235.234 34.1414 234.609 34.1803C234.492 33.7915 234.55 33.3248 233.968 33.7396C234.143 33.8822 234.332 34.0248 234.609 34.1803C234.754 34.971 235.743 35.2302 236.209 35.8913H237.024L237.242 36.8375C236.514 37.2911 235.845 37.0578 235.205 37.0967C234.652 37.1356 234.099 37.0967 233.547 37.0967C233.212 37.4856 232.688 37.7189 232.499 38.2374C232.717 39.1058 233.648 39.4169 234.274 40.2205L235.307 38.9114H238.202L238.973 38.2762L239.264 39.1188L238.566 39.8316V41.6463L237.518 42.5018L235.467 42.5925C235.06 43.1239 235.278 43.6165 235.278 44.0961C235.598 44.3812 235.903 44.6664 236.223 44.9515H238.871L239.686 44.2646L241.286 44.9127L242.974 45.0034C243.832 46.144 245.36 46.4162 246.698 47.2069C246.407 47.6346 245.971 48.0105 245.912 48.4123C245.825 49.1252 245.316 49.553 244.778 49.7215C244.298 49.877 243.832 49.9937 243.57 50.4085L242.916 49.8252H239.468C239.162 49.4363 238.784 48.9438 238.406 48.4512L237.533 49.1771C236.994 49.1771 236.442 49.1771 235.918 49.2549C235.802 48.866 235.86 48.3994 235.278 48.8142C235.452 48.9567 235.641 49.0993 235.918 49.2549C235.874 49.4752 235.874 49.7733 235.874 50.0714C235.205 50.7195 234.725 50.3048 234.23 49.7474C233.503 50.6547 234.143 51.6787 233.765 52.6508L232.936 52.8323C232.194 52.2361 233.328 52.1194 233.226 51.6787C233.139 51.3158 233.212 50.914 233.212 50.6288C232.557 50.214 232.004 50.4733 231.583 50.3955L230.666 51.0954C230.23 50.8621 229.793 50.6158 229.357 50.3825C228.6 50.3566 228.309 50.888 227.989 51.3676L228.513 51.8472L227.945 52.4823L228.527 53.0915C227.727 53.3378 227.131 53.8304 226.491 54.3359C225.967 54.7506 225.24 54.9451 224.512 55.2821L223.756 54.8284C223.072 54.4007 222.286 54.7766 221.632 54.5692C221.35 54.8198 221.282 55.3901 221.428 56.2801C222.039 56.6431 222.374 56.2542 222.81 55.9431C223.174 55.6839 223.596 55.7617 224.061 56.3579L222.781 57.5115L223.159 57.8615C222.839 58.691 222.024 57.9781 221.646 58.2114L220.89 58.8077H218.751L218.518 57.8615L217.616 57.0838L216.918 57.6282H215.609C214.779 58.5355 213.688 59.0799 212.204 59.5335L211.201 58.0948L210.269 58.8336H209.004L208.276 59.4428H205.629L204.436 58.354C203.781 58.4836 203.519 59.0669 202.995 59.4169H201.73L200.915 60.0779C200.784 59.715 200.653 59.365 200.522 59.028C200.435 58.9632 200.362 58.8466 200.275 58.8466C199.169 58.8466 198.064 58.8466 196.987 58.8466C196.812 59.0151 196.652 59.1576 196.492 59.3002C196.289 59.3521 196.1 59.4428 195.896 59.4428C195.125 59.4558 194.368 59.4428 193.656 59.4428L193.044 58.8854L192.317 59.4039H190.411C189.888 58.8336 188.782 58.9891 188.345 58.2503C187.909 57.5115 187.531 56.7467 187.051 55.8913L186.396 56.332C185.639 56.4746 184.81 56.7208 184.126 55.3987C184.039 56.4357 183.996 56.9023 183.937 57.4597L183.021 57.693L182.352 56.4227H181.522L180.271 58.1596L179.5 58.2114L179.238 57.2263L178.118 56.8764L177.9 55.9302L176.765 55.7876L176.605 57.3819C176.256 57.7059 175.878 57.7318 175.383 57.3819L176.052 56.6042L175.048 55.8394C174.379 55.6969 174.132 56.0598 173.783 56.2801C173.463 56.4875 173.041 56.5394 172.677 56.669V57.7059L171.717 59.4039H170.422L169.695 60.0002L168.967 59.391H167.047L166.334 58.8466L165.781 59.3521H163.599C163.492 58.8163 163.618 58.3108 163.977 57.8355C163.526 57.356 162.915 57.7707 162.464 57.5633L161.708 58.1855L161.024 57.6282L160.384 58.2114C160.006 58.1855 159.482 58.1725 158.973 58.0948C158.856 58.0818 158.813 57.7707 158.74 57.6022C159.38 57.5115 159.7 57.0838 159.991 56.6171C159.526 56.2672 159.089 56.2412 158.74 56.7597C158.74 57.0449 158.74 57.33 158.74 57.6022H157.707L157.169 57.0319C156.761 57.2393 156.412 57.4208 156.107 57.693C155.99 57.3041 156.049 56.8375 155.467 57.2523C155.641 57.3948 155.83 57.5374 156.107 57.693L156.136 57.6282ZM235.001 40.6482C236.674 40.2205 235.452 41.6074 236.296 41.8278L237.271 40.9464L237.096 39.9224C236.456 40.2724 235.787 39.728 235.263 40.6482C234.807 40.8902 234.676 41.2747 234.87 41.8018C235.583 41.5815 235.132 41.0371 235.001 40.6482ZM233.561 32.1972C232.281 32.1972 231.306 32.1972 230.317 32.1972C230.23 32.1972 230.157 32.3009 230.055 32.3786C230.128 32.8841 230.651 33.0656 230.899 33.3508L231.786 33.5193L232.194 34.6599L233.226 33.7267L232.615 33.1045C232.819 32.9101 233.037 32.7027 233.066 32.262C233.576 32.1324 234.099 32.1712 233.648 31.6398C233.488 31.8083 233.343 31.9639 233.561 32.1842V32.1972ZM29.6978 43.0591H30.687L31.4435 43.7072L32.3019 43.5128V41.4648L30.6143 40.739C30.4397 41.5296 29.465 42.1 29.7123 43.0332L28.3739 43.1239L28.5194 44.3553L29.7123 44.0572V43.0462L29.6978 43.0591ZM248.909 8.06237L248.197 7.45317H243.585L242.843 6.84397H239.569C238.609 6.13107 238.435 6.09218 237.94 6.54585V7.2069C238.275 7.31059 238.697 7.3754 239.017 7.56982C239.366 7.77721 239.599 8.16607 240.253 8.03645C240.617 7.94572 240.806 7.24578 241.563 7.49205L242.275 8.07533C243.759 8.07533 245.301 8.07533 246.844 8.07533C246.931 8.07533 247.018 8.17903 247.091 8.23087L247.571 8.67157C248.662 8.67157 249.753 8.67157 250.859 8.65861C250.961 8.65861 251.048 8.41234 251.15 8.28272C250.422 7.86795 249.651 8.1531 248.924 8.07533L248.909 8.06237ZM43.0093 38.5355C42.471 37.9911 41.8455 38.2503 41.2199 38.341C41.1035 38.8336 41.2538 39.3348 41.6709 39.8446L41.0453 40.0131C40.3616 40.039 40.3616 39.3261 39.6778 39.6632C39.6778 40.0002 39.5178 40.4797 39.7069 40.7519C40.2452 41.5167 40.3616 42.5536 41.5109 43.0721C41.9037 42.3333 41.4381 41.5037 41.8309 40.8038C42.5729 40.3242 43.5621 41.0112 44.3914 40.2983L42.9948 39.3261V38.5355H43.0093ZM229.444 40.6482L231.51 38.9762C231.015 37.7707 230.724 36.5912 229.502 35.7746L228.586 36.0339L229.226 36.6819L228.033 38.5873L228.615 39.1836C228.731 39.6891 228.396 40.2205 228.906 40.6094L229.459 40.6482H229.444ZM228.309 4.44604C229.415 4.44604 230.506 4.44604 231.612 4.44604C231.684 4.44604 231.757 4.30346 231.859 4.21273C231.539 3.39614 230.753 4.10903 230.317 3.86276L229.546 3.22763H227.625L226.956 2.70916L225.938 3.53872L226.927 4.43308L227.611 3.87572L228.309 4.459V4.44604ZM8.32651 12.8712C7.13356 12.2749 6.55163 11.912 5.91151 11.6917C5.54781 11.562 5.08227 11.6657 4.83495 11.6657L3.71474 12.586L3.93296 13.5193L4.8204 12.8582H8.32651V12.8712ZM12.5891 12.8841L13.7675 11.9898C13.0692 11.3158 12.6182 11.7694 12.1527 12.1972C11.3816 12.4694 10.4505 11.925 9.70858 12.6119L9.86861 13.3248C11.0034 13.9211 11.5126 12.2361 12.5746 12.8841H12.5891ZM217.791 54.6599C217.704 54.6469 217.587 54.5951 217.558 54.621C217.005 55.0747 216.482 55.5413 215.929 56.0209C216.671 56.5394 217.325 56.5523 218.038 56.0209C217.82 55.6061 218.227 55.0876 217.805 54.6729L217.791 54.6599ZM34.455 45.2756C35.1533 45.6774 35.9098 45.4052 36.6227 45.4571C36.7245 45.4571 36.8409 45.2367 36.9573 45.1071C36.5208 44.8479 36.3463 44.2905 35.4297 44.2516C35.2115 44.5108 34.6587 44.7053 34.4405 45.2756H34.455ZM228.6 34.3099C228.018 33.9081 227.669 32.8841 226.622 33.6618C226.622 33.8822 226.622 34.0637 226.622 33.7526C227.058 34.4784 227.305 34.8673 227.553 35.2691C228.004 34.8543 228.309 34.5821 228.6 34.3099ZM213.717 4.47196L214.503 3.42206C213.936 3.03321 213.281 3.00728 212.597 3.55168L212.757 4.30346L213.717 4.459V4.47196ZM230.23 43.6554C229.837 44.0572 229.764 44.459 230.273 44.8608C230.782 44.7701 231.335 45.0423 231.815 44.6664C231.728 44.1738 231.219 43.9924 230.913 43.6554H230.23ZM120.886 54.4655C120.449 53.7526 120.129 53.2471 119.78 52.6897C119.387 53.3508 119.373 53.8822 119.751 54.4655H120.886ZM181.697 46.0663C182.162 45.6644 182.192 45.2497 181.639 44.8219L180.649 45.0034L180.897 46.0663H181.711H181.697ZM174.045 6.53288C174.481 6.96062 174.932 6.96062 175.398 6.51992C175.296 6.24773 175.601 5.7811 174.961 5.71629C174.656 5.98849 174.35 6.26069 174.059 6.54585L174.045 6.53288ZM63.1003 52.6379C63.7113 52.5342 63.9296 52.0805 64.2933 51.8083C63.8423 51.3935 63.4058 51.3806 62.9403 51.8602L63.1003 52.6379ZM31.7927 37.7448C31.9091 38.3022 32.4037 38.4966 32.7092 38.8206C33.1748 38.4188 33.1748 38.017 32.651 37.5893L31.7927 37.7318V37.7448ZM51.3309 36.9801C50.8944 37.5245 50.7053 37.9133 51.4327 38.1596C51.7964 37.8096 51.7673 37.4726 51.3309 36.9801ZM32.04 46.1311C32.4765 45.5867 32.6656 45.1978 31.9382 44.9515C31.5745 45.3015 31.6036 45.6385 32.04 46.1311ZM146.796 56.6431C147.247 57.0708 147.683 57.0708 148.134 56.6431C147.683 56.2153 147.247 56.2153 146.796 56.6431ZM205.658 5.08117C206.094 4.53677 206.283 4.14792 205.556 3.90165C205.192 4.25161 205.221 4.58862 205.658 5.08117ZM140.773 7.15505C141.355 7.53094 141.777 7.7124 142.082 6.98655C141.66 6.81804 141.297 6.70139 140.773 7.15505ZM146.214 6.94766V7.32355C146.534 7.36244 146.825 7.41428 147.116 7.41428C147.189 7.41428 147.349 7.2717 147.334 7.21986C147.291 7.07728 147.189 6.84397 147.101 6.84397C146.81 6.831 146.519 6.89581 146.214 6.9347V6.94766ZM119.489 7.75129C120.071 8.12718 120.493 8.30865 120.798 7.58279C120.376 7.41428 120.013 7.29763 119.489 7.75129ZM124.144 7.75129C124.726 8.12718 125.148 8.30865 125.454 7.58279C125.032 7.41428 124.668 7.29763 124.144 7.75129ZM80.1653 6.01441L79.9325 5.62556C79.8598 5.69037 79.7143 5.76814 79.7289 5.81999C79.758 5.96257 79.8598 6.09218 79.9325 6.2218L80.1653 6.00145V6.01441ZM188.36 5.62556C188.287 5.69037 188.142 5.76814 188.156 5.81999C188.185 5.96257 188.287 6.09218 188.36 6.2218C188.433 6.15699 188.578 6.07922 188.564 6.02737C188.535 5.8848 188.433 5.75518 188.36 5.62556ZM222.519 6.01441L222.286 5.62556C222.214 5.69037 222.068 5.76814 222.083 5.81999C222.112 5.96257 222.214 6.09218 222.286 6.2218L222.519 6.00145V6.01441ZM159.511 6.62362L159.744 6.84397C159.816 6.71435 159.918 6.58473 159.947 6.44215C159.947 6.3903 159.816 6.31253 159.744 6.24773L159.511 6.63658V6.62362ZM138.562 7.34947L138.794 7.12912C138.649 7.06432 138.503 6.97358 138.343 6.9347C138.285 6.9347 138.198 7.05135 138.125 7.12912L138.547 7.34947H138.562ZM70.2726 8.94377C70.1998 8.87896 70.1125 8.74934 70.0544 8.74934C69.8943 8.77527 69.7488 8.866 69.6034 8.94377C69.6761 9.00858 69.7634 9.1382 69.8216 9.1382C69.9816 9.11228 70.1271 9.02154 70.2726 8.94377ZM71.6983 9.0345L71.9311 9.25485C72.0038 9.12524 72.1056 8.99562 72.1347 8.85304C72.1347 8.80119 72.0038 8.72342 71.9311 8.65861L71.6983 9.04747V9.0345ZM15.0623 11.9768C14.9896 11.912 14.9023 11.7824 14.8441 11.7824C14.6841 11.8083 14.5386 11.8991 14.3931 11.9768C14.4658 12.0416 14.5531 12.1713 14.6113 12.1713C14.7713 12.1453 14.9168 12.0546 15.0623 11.9768ZM237.024 28.6586L236.602 28.879C236.674 28.9438 236.762 29.0734 236.82 29.0734C236.98 29.0475 237.125 28.9567 237.271 28.879L237.038 28.6586H237.024ZM227.844 36.2024L227.611 35.8135C227.538 35.8783 227.393 35.9561 227.407 36.0079C227.436 36.1505 227.538 36.2801 227.611 36.4097L227.844 36.1894V36.2024ZM25.6097 37.4078L25.377 37.0189C25.3042 37.0838 25.1587 37.1615 25.1733 37.2134C25.2024 37.356 25.3042 37.4856 25.377 37.6152L25.6097 37.3948V37.4078ZM36.259 39.2225L36.0262 38.8336C35.9535 38.8984 35.808 38.9762 35.8225 39.028C35.8516 39.1706 35.9535 39.3002 36.0262 39.4298L36.259 39.2095V39.2225ZM225.196 39.2225L224.963 38.8336C224.89 38.8984 224.745 38.9762 224.759 39.028C224.789 39.1706 224.89 39.3002 224.963 39.4298L225.196 39.2095V39.2225ZM226.956 38.8336C226.883 38.8984 226.738 38.9762 226.753 39.028C226.782 39.1706 226.883 39.3002 226.956 39.4298C227.029 39.365 227.174 39.2873 227.16 39.2354C227.131 39.0928 227.029 38.9632 226.956 38.8336ZM95.47 39.6502L95.2372 39.4298C95.1645 39.5595 95.0626 39.6891 95.0335 39.8316C95.0335 39.8835 95.1645 39.9613 95.2372 40.0261L95.47 39.6372V39.6502ZM179.296 39.8187L179.064 39.4298C178.991 39.4946 178.845 39.5724 178.86 39.6243C178.889 39.7668 178.991 39.8965 179.064 40.0261L179.296 39.8057V39.8187ZM165.083 40.6353C165.01 40.7001 164.865 40.7779 164.879 40.8297C164.908 40.9723 165.01 41.1019 165.083 41.2315C165.156 41.1667 165.301 41.0889 165.287 41.0371C165.257 40.8945 165.156 40.7649 165.083 40.6353ZM179.151 41.1538L179.384 40.9334C179.238 40.8686 179.093 40.7779 178.933 40.739C178.875 40.739 178.787 40.8556 178.715 40.9334L179.136 41.1538H179.151ZM26.9482 42.6573L26.7154 42.437C26.6426 42.5666 26.5408 42.6962 26.5117 42.8388C26.5117 42.8906 26.6426 42.9684 26.7154 43.0332L26.9482 42.6444V42.6573ZM43.0093 46.3644C42.9366 46.2996 42.8493 46.17 42.7911 46.17C42.6311 46.1959 42.4856 46.2866 42.3401 46.3644C42.4128 46.4292 42.5001 46.5588 42.5583 46.5588C42.7184 46.5329 42.8638 46.4422 43.0093 46.3644ZM127.069 55.0228L127.49 54.8025C127.418 54.7377 127.33 54.6081 127.272 54.6081C127.112 54.634 126.967 54.7247 126.821 54.8025L127.054 55.0228H127.069ZM145.036 57.4337L145.457 57.2134C145.385 57.1486 145.297 57.019 145.239 57.019C145.079 57.0449 144.934 57.1356 144.788 57.2134L145.021 57.4337H145.036ZM167.847 58.2114L167.425 58.4318C167.498 58.4966 167.585 58.6262 167.643 58.6262C167.803 58.6003 167.949 58.5096 168.094 58.4318L167.862 58.2114H167.847ZM210.415 2.09996L209.993 2.32031C210.066 2.38512 210.153 2.51474 210.211 2.51474C210.371 2.48881 210.517 2.39808 210.662 2.32031L210.43 2.09996H210.415ZM218.067 3.00728L218.3 3.22763C218.373 3.09802 218.475 2.9684 218.504 2.82582C218.504 2.77397 218.373 2.6962 218.3 2.63139L218.067 3.02025V3.00728ZM195.692 3.22763C195.619 3.29244 195.474 3.37021 195.489 3.42206C195.518 3.56464 195.619 3.69426 195.692 3.82388C195.765 3.75907 195.91 3.6813 195.896 3.62945C195.867 3.48687 195.765 3.35725 195.692 3.22763ZM207.898 3.61649L207.665 3.22763C207.593 3.29244 207.447 3.37021 207.462 3.42206C207.491 3.56464 207.593 3.69426 207.665 3.82388L207.898 3.60353V3.61649ZM216.743 3.44798L216.976 3.83684C217.049 3.77203 217.194 3.69426 217.18 3.64241C217.151 3.49983 217.049 3.37021 216.976 3.2406L216.743 3.46095V3.44798ZM224.396 3.7461L224.629 3.52575C224.483 3.46095 224.338 3.37021 224.178 3.33133C224.119 3.33133 224.032 3.44798 223.959 3.52575L224.381 3.7461H224.396ZM163.337 4.04422L163.104 3.82388C163.032 3.95349 162.93 4.08311 162.901 4.22569C162.901 4.27754 163.032 4.35531 163.104 4.42012L163.337 4.03126V4.04422ZM191.371 4.13496C191.299 4.07015 191.211 3.94053 191.153 3.94053C190.993 3.96645 190.848 4.05719 190.702 4.13496C190.775 4.19977 190.862 4.32938 190.92 4.32938C191.08 4.30346 191.226 4.21273 191.371 4.13496ZM233.372 4.22569L233.605 4.44604C233.677 4.31642 233.779 4.1868 233.808 4.04422C233.808 3.99238 233.677 3.91461 233.605 3.8498L233.372 4.23865V4.22569Z" fill="white"/>
</svg>
