<svg width="177" height="177" viewBox="0 0 177 177" fill="none" xmlns="http://www.w3.org/2000/svg">
<mask id="mask0_2220_5272" style="mask-type:luminance" maskUnits="userSpaceOnUse" x="0" y="0" width="177" height="177">
<path d="M88.5 177C137.377 177 177 137.377 177 88.5C177 39.6228 137.377 0 88.5 0C39.6228 0 0 39.6228 0 88.5C0 137.377 39.6228 177 88.5 177Z" fill="white"/>
</mask>
<g mask="url(#mask0_2220_5272)">
<path d="M90.0699 268.379C189.415 268.379 269.949 187.844 269.949 88.4996C269.949 -10.8451 189.415 -91.3799 90.0699 -91.3799C-9.27479 -91.3799 -89.8096 -10.8451 -89.8096 88.4996C-89.8096 187.844 -9.27479 268.379 90.0699 268.379Z" fill="white"/>
<path d="M146.709 129.569C146.847 129.74 146.983 129.914 147.128 130.08C147.021 129.932 146.878 129.758 146.709 129.569Z" fill="#F6A473"/>
<path d="M138.545 68.5629C138.502 69.0499 138.532 69.2586 138.577 69.2886C138.594 68.8344 138.604 68.4606 138.545 68.5629Z" fill="#F6A473"/>
<path d="M140.63 57.8076C140.576 58.0368 140.538 58.2305 140.493 58.4378C140.58 58.2032 140.645 57.9631 140.63 57.8076Z" fill="#F6A473"/>
<path d="M146.709 129.569C146.534 129.347 146.354 129.131 146.184 128.906L145.679 128.229C145.574 128.244 145.695 128.425 145.908 128.681C146.016 128.808 146.141 128.958 146.283 129.108C146.424 129.258 146.571 129.415 146.708 129.569H146.709Z" fill="#F6A473"/>
<path d="M171.369 141.801L171.871 141.921C172.033 141.895 172.189 141.855 172.338 141.804C172.014 141.806 171.692 141.806 171.369 141.801Z" fill="#F6A473"/>
<path d="M157.072 136.476C157.072 136.4 157.032 136.313 156.976 136.243C156.949 136.294 156.991 136.377 157.072 136.476Z" fill="#F6A473"/>
<path d="M145.343 38.4424C145.328 38.4778 145.324 38.4915 145.312 38.5256C145.226 39.0426 145.294 38.7547 145.343 38.4424Z" fill="#F6A473"/>
<path d="M111.473 4.03428C111.439 3.98244 111.417 3.93334 111.402 3.89106C111.387 3.8515 111.378 3.82831 111.378 3.80239C111.378 3.75329 111.408 3.72464 111.464 3.711C111.492 3.70145 111.526 3.70418 111.565 3.711C111.603 3.71782 111.648 3.72874 111.696 3.73965C111.745 3.74647 111.794 3.77784 111.847 3.80102C111.899 3.82694 111.955 3.85013 112.009 3.88014C112.113 3.9538 112.223 4.01245 112.311 4.06838C112.397 4.12703 112.47 4.1625 112.511 4.15158C112.554 4.14067 112.564 4.08338 112.529 3.9538C112.513 3.88559 112.479 3.81057 112.428 3.71646C112.402 3.66871 112.374 3.61552 112.341 3.55823C112.305 3.50367 112.263 3.45184 112.217 3.38909C112.222 3.42456 112.193 3.43547 112.143 3.43274C112.093 3.43138 112.023 3.40819 111.938 3.40273C111.854 3.39591 111.765 3.37272 111.676 3.37408C111.585 3.37817 111.501 3.38363 111.43 3.39591C111.28 3.44638 111.194 3.51049 111.196 3.61006C111.196 3.65917 111.218 3.71373 111.265 3.77102C111.286 3.80785 111.312 3.84741 111.348 3.88424C111.356 3.89379 111.366 3.90196 111.375 3.91288C111.385 3.92515 111.394 3.93879 111.404 3.9538C111.424 3.98108 111.447 4.007 111.472 4.03428H111.473Z" fill="#F6A473"/>
<path d="M112.217 3.39213L112.219 3.38941L112.142 3.28847C112.114 3.2571 112.084 3.23118 112.056 3.20117C112.091 3.23936 112.12 3.26392 112.143 3.29529C112.166 3.32666 112.189 3.35667 112.217 3.3935V3.39213Z" fill="#F6A473"/>
<path d="M163.819 18.1915C163.878 18.0864 163.901 17.9023 163.918 17.71C163.877 17.7345 163.841 17.8477 163.819 18.1915Z" fill="#F6A473"/>
<path d="M148.006 27.0469L148.362 26.2803C148.202 26.5763 148.095 26.8273 148.006 27.0469Z" fill="#F6A473"/>
<path d="M163.587 35.0635C163.499 35.2694 163.432 35.4045 163.362 35.56C163.291 35.7155 163.226 35.8928 163.149 36.1888C163.19 36.1438 163.226 36.0974 163.265 36.0347C163.283 35.8055 163.361 35.5245 163.587 35.0635Z" fill="#F6A473"/>
<path d="M153.399 49.4571C153.495 49.427 153.611 49.3711 153.716 49.3275C153.851 49.2129 154.01 49.0806 154.146 48.9551C153.904 49.1324 153.646 49.2893 153.399 49.4571Z" fill="#F6A473"/>
<path d="M34.3449 128.689C34.2085 129.097 34.0612 129.35 33.918 129.546C34.2467 129.264 34.3013 132.023 34.3449 128.689Z" fill="#F6A473"/>
<path d="M166.726 36.9658C166.352 37.9575 165.918 38.9232 165.455 39.8739C165.869 39.0896 166.349 38.0352 166.726 36.9658Z" fill="#F6A473"/>
<path d="M51.2046 97.6738L50.5703 97.9548C50.8254 97.8784 51.0532 97.783 51.2046 97.6738Z" fill="#F6A473"/>
<path d="M160.384 47.7969C159.893 48.1229 159.415 48.4966 158.944 48.899C158.877 49.0163 158.793 49.1432 158.768 49.2414L159.183 48.8936L159.586 48.5334C159.72 48.4121 159.858 48.2934 159.99 48.1706L160.384 47.7969Z" fill="#F6A473"/>
<path d="M33.9126 129.553L33.9181 129.546C33.9181 129.546 33.9153 129.546 33.9126 129.553Z" fill="#F6A473"/>
<path d="M34.1212 149.203C34.3067 146.37 33.6179 147.836 33.3124 147.215C33.3369 143.827 33.8402 145.677 34.2113 144.542C34.1676 142.419 33.6984 140.773 33.7925 139.199C33.8962 139.086 33.9466 138.782 34.053 139.146C33.9616 138.582 33.9275 137.885 33.9248 137.117C33.9221 136.35 33.9507 135.508 33.9671 134.655C34.0094 132.95 34.0203 131.198 33.7557 129.888C33.813 129.696 33.8648 129.599 33.9112 129.551C33.6015 129.966 33.296 130.023 33.0818 129.932C33.0982 128.662 32.7572 127.569 33.1541 127.099C33.1296 127.876 33.2823 127.944 33.3983 128.311L33.2551 126.977C33.5442 126.383 33.5865 126.838 33.607 127.442C33.6247 128.047 33.6193 128.802 33.828 128.806C33.7693 127.505 33.6234 126.096 33.5251 124.765C33.4147 123.433 33.3546 122.18 33.4283 121.184C33.9889 120.768 33.5865 125.842 34.0939 123.187L33.978 124.728L33.8498 126.268C34.7514 123.923 33.7625 128.142 34.7214 125.99C34.7787 124.975 34.7882 124.181 34.7746 123.5C34.7623 122.82 34.735 122.251 34.6996 121.683C34.6286 120.547 34.5632 119.412 34.6205 117.383C34.3067 116.473 34.1717 117.69 33.858 116.781C33.5374 113.908 33.8389 112.769 34.1362 111.813C34.2835 111.336 34.4186 110.905 34.4663 110.329C34.5127 109.754 34.4718 109.033 34.2303 107.98C33.8061 106.897 33.1037 106.518 33.2523 103.479C33.4842 103.806 33.7229 104.134 33.9494 104.464C33.8307 102.487 33.5661 101.942 33.3301 101.373C33.2141 101.088 33.1078 100.797 33.0327 100.317C32.9618 99.837 32.9072 99.17 32.8963 98.1279C33.0559 98.4798 33.1991 99.2491 33.2878 99.8548C33.3751 100.46 33.4256 100.901 33.4338 100.6C33.5579 99.2382 33.4024 98.7704 33.2141 98.3925C33.0177 98.0133 32.7872 97.72 32.6494 96.6956L33.1405 96.1992C32.8213 94.1026 32.3643 91.912 31.7669 89.6845C31.1708 87.4584 30.4602 85.1955 29.5831 82.9571C29.8245 83.1481 30.2651 83.8778 30.0441 82.7484C29.9759 82.5697 29.8954 82.3924 29.8136 82.2151C29.7331 82.0364 29.6526 81.8577 29.5722 81.6776C29.4917 81.4976 29.4126 81.3175 29.3321 81.1361C29.2475 80.9561 29.152 80.776 29.0634 80.596C28.9734 80.4159 28.882 80.2345 28.7919 80.0531L28.6569 79.7803C28.6119 79.6902 28.5628 79.607 28.515 79.5197C28.3268 79.1746 28.1358 78.8268 27.9462 78.4776C27.166 77.089 26.3189 75.6936 25.3341 74.3555C24.8321 73.6898 24.3193 73.0283 23.7341 72.4035C23.4545 72.0844 23.1407 71.7856 22.8325 71.4842C22.6797 71.3328 22.5065 71.1937 22.3455 71.0477L22.0986 70.8322C22.0154 70.7612 21.924 70.6958 21.8381 70.6276C21.1506 70.0751 20.3745 69.5882 19.5247 69.2008C18.6763 68.8148 17.7392 68.5392 16.7666 68.4451C15.7654 68.546 14.7969 68.8475 13.9649 69.2963C13.8121 69.3495 13.6593 69.3904 13.527 69.4163C13.392 69.4395 13.287 69.4654 13.2119 69.4613C13.066 69.4613 13.0619 69.3727 13.377 69.1844C13.2024 69.2444 13.0564 69.3086 12.9241 69.3618C12.7945 69.4177 12.6799 69.4613 12.5913 69.5132C12.4112 69.6114 12.2967 69.6837 12.2285 69.7355C12.0921 69.8419 12.1439 69.8678 12.2394 69.8828C12.4358 69.9115 12.7836 69.8951 12.2735 70.3098C12.118 70.4202 11.9734 70.5185 11.8411 70.6044C11.7074 70.689 11.5996 70.7735 11.4946 70.8376C11.2873 70.9686 11.129 71.0491 11.0322 71.0818C10.9326 71.1132 10.8849 71.0886 10.9013 71.0068C10.9176 70.9263 10.9954 70.7872 11.17 70.6044C11.1154 70.6576 11.0595 70.7108 11.0022 70.7653C10.9476 70.8199 10.8958 70.8786 10.8426 70.9358C10.7362 71.0518 10.6284 71.1705 10.5166 71.2919C10.4143 71.4173 10.3106 71.5456 10.2042 71.6752C10.1524 71.7406 10.0992 71.8061 10.046 71.8729C9.99689 71.9411 9.94778 72.0107 9.89732 72.0803C9.48947 72.6313 9.128 73.2465 8.79518 73.8944C8.13226 75.193 7.63575 76.6457 7.30019 78.1161C7.12423 78.8513 7.0083 79.5947 6.90463 80.3245C6.86234 80.6914 6.81323 81.0529 6.78732 81.413C6.75049 81.7718 6.73139 82.1278 6.71093 82.4756C6.62909 83.8724 6.66865 85.1736 6.69866 86.284C6.60318 86.0071 6.53497 85.7261 6.45312 85.4437C6.4654 85.6592 6.48177 85.8638 6.50087 86.0575C6.52679 86.2499 6.55816 86.4313 6.59089 86.6032C6.65228 86.9483 6.74639 87.2497 6.83778 87.5252C6.92645 87.8021 7.03966 88.0463 7.14742 88.2768C7.20335 88.3914 7.25655 88.5019 7.30974 88.6124C7.3684 88.7202 7.42705 88.8252 7.48434 88.9302C7.70805 89.3503 7.94948 89.75 8.165 90.2383C8.2823 90.4797 8.39278 90.743 8.49918 91.0431C8.62058 91.3364 8.72289 91.6719 8.84701 92.0484C8.72834 91.882 8.6274 91.7074 8.51828 91.5355C8.68605 91.9665 8.89339 92.3826 9.09663 92.8041C9.20711 93.01 9.31897 93.2174 9.43082 93.4233C9.53994 93.632 9.67089 93.8285 9.79229 94.0317L9.9778 94.3345C10.0419 94.4341 10.1101 94.5309 10.1769 94.6292C10.312 94.8242 10.4416 95.022 10.5834 95.2129L11.0172 95.779C11.1591 95.97 11.3214 96.1432 11.4741 96.326L11.706 96.5961C11.7838 96.6861 11.8684 96.7693 11.9488 96.8566L12.4399 97.3709C12.785 97.6941 13.1178 98.0311 13.4806 98.3284C13.6607 98.4798 13.8339 98.638 14.0181 98.7813C14.2022 98.9245 14.3864 99.0664 14.5705 99.2082C14.7465 99.3501 14.9593 99.4906 15.157 99.6311C15.3616 99.7647 15.5649 99.8957 15.7722 100.017C16.6016 100.504 17.4554 100.886 18.2998 101.197C19.1455 101.504 19.9816 101.741 20.7946 101.936C22.4205 102.329 23.9483 102.554 25.3273 102.782C25.596 102.617 26.173 102.566 26.8932 102.541C27.6134 102.516 28.4782 102.511 29.3225 102.475C31.0112 102.41 32.6099 102.2 32.7681 101.698C33.7789 101.683 34.465 101.673 35.0147 101.665C35.5671 101.662 35.9831 101.659 36.4496 101.646C36.9161 101.629 37.4317 101.595 38.1806 101.507C38.9295 101.415 39.9116 101.271 41.3029 101.005C42.7801 100.675 43.3271 99.8657 45.0744 99.2546L45.2586 99.7211C46.0156 99.3132 46.7658 98.9027 47.5092 98.4798C47.9948 98.5357 48.4791 98.5835 48.966 98.6326C49.5035 98.4075 50.0382 98.1825 50.5715 97.9506C49.9086 98.1525 49.1065 98.2138 49.1611 98.0447C50.4092 97.5073 51.9887 97.038 53.2764 96.712C54.564 96.3874 55.5611 96.2141 55.6402 96.3219C57.5813 95.4066 59.4964 94.4491 61.3869 93.4534C61.3392 93.6948 60.3857 94.1913 59.6546 94.6441C61.125 93.733 61.3146 93.7821 61.4811 93.8612C61.6447 93.9349 61.7839 94.0358 63.1152 93.1724C62.6855 93.2446 63.1984 92.8082 63.2202 92.6868C63.9909 92.4958 65.1844 92.0238 66.4639 91.4223C67.7447 90.8235 69.1115 90.0951 70.2477 89.4295L69.9585 89.9682C74.2307 87.854 78.687 85.0059 83.1583 82.08C81.4615 82.9912 81.5146 82.2478 82.7873 81.3503L83.5989 81.4457C84.2591 80.6178 82.1298 82.1796 83.633 80.7051C84.4746 80.1786 84.8334 80.1103 84.8784 80.2781C84.9234 80.4459 84.6533 80.8469 84.2236 81.237C84.8633 80.7378 85.4949 80.229 86.1237 79.7161C86.3311 79.7639 85.9109 80.1567 85.9028 80.4063C86.2192 79.9876 87.1577 79.4993 88.1139 78.9318C89.07 78.3657 90.0508 77.7274 90.4518 77.0617L90.6564 77.104C92.7925 75.4726 94.2752 74.1877 95.6324 72.9519C96.9869 71.712 98.2213 70.5239 99.7832 68.9648C99.5254 68.5829 100.817 67.4371 101.434 66.2231C102.008 65.657 102.599 65.0718 103.192 64.4567C103.788 63.8428 104.388 63.2004 104.982 62.517C106.168 61.1543 107.33 59.6334 108.325 57.8916C108.929 56.6135 108.918 56.3761 108.838 56.3216C108.752 56.2643 108.577 56.3734 108.742 55.7555C108.857 55.7555 109.053 55.5345 109.267 55.2262C109.372 55.0708 109.483 54.8948 109.592 54.7147C109.7 54.5347 109.801 54.3478 109.896 54.18C110.267 53.4994 110.506 53.0602 110.251 54.0982C110.706 52.9688 111.012 51.9635 111.244 51.1655C111.368 50.7536 111.478 50.3594 111.588 49.9706C111.697 49.5832 111.802 49.1986 111.903 48.8057C112.312 47.2316 112.721 45.4966 113.276 42.6348C112.956 43.205 112.706 43.8734 112.661 43.4819C112.863 42.4466 113.413 41.1985 113.572 41.3922L113.548 41.6732C114.025 38.4281 115.103 34.8175 115.974 31.2942C116.851 27.7791 117.514 24.3458 117.304 21.6873L117.321 21.9847C117.333 20.1623 117.296 18.3386 117.187 16.5149C117.248 15.26 117.314 15.6351 117.412 16.0975C117.502 16.5586 117.612 17.1069 117.764 16.1725C117.619 14.6844 117.517 13.3544 117.42 12.1118C117.323 10.8692 117.233 9.71247 117.087 8.57486C116.939 7.43726 116.741 6.31602 116.359 5.15387L116.287 4.93562L116.203 4.71601C116.146 4.56869 116.092 4.42274 116.029 4.27543C115.892 3.97943 115.76 3.68343 115.583 3.38198C115.24 2.78589 114.808 2.17208 114.168 1.61828C114.074 1.47778 113.968 1.3332 113.85 1.18588C113.72 1.04402 113.572 0.899439 113.413 0.754851C113.245 0.615719 113.051 0.48477 112.851 0.352459C112.638 0.23788 112.409 0.119205 112.163 0.0250868C112.039 -0.0171983 111.912 -0.0581214 111.781 -0.0963144C111.716 -0.115411 111.65 -0.13314 111.583 -0.152236C111.518 -0.167241 111.451 -0.176791 111.383 -0.189068C111.248 -0.212256 111.111 -0.23271 110.971 -0.250443C110.83 -0.270903 110.698 -0.26545 110.559 -0.270907C110.421 -0.270907 110.278 -0.276367 110.142 -0.266819C110.008 -0.254542 109.873 -0.239537 109.737 -0.223169C109.454 -0.197252 109.21 -0.127683 108.944 -0.0663012C107.914 0.209234 107.023 0.692106 106.223 1.24181C105.419 1.79698 104.707 2.42033 104.023 3.08735C103.315 3.78028 102.682 4.55232 102.109 5.34346C101.539 6.13733 101.059 6.96531 100.621 7.77145C99.7723 9.39738 99.1639 10.9592 98.6237 12.2346L98.9879 12.0068C98.9552 12.3628 98.9184 12.6411 98.8584 12.8729C98.8011 13.1048 98.7179 13.2917 98.6401 13.4663C98.561 13.6409 98.4751 13.8032 98.3905 13.986C98.3059 14.1674 98.2241 14.3693 98.1695 14.6203C98.3987 14.5098 98.7124 13.1839 98.6933 14.0597C98.2241 16.9514 98.1532 19.8854 98.3741 22.8058C98.5978 25.7262 99.1175 28.6357 99.9046 31.4866C100.693 34.336 101.749 37.1255 103.079 39.7895C104.406 42.4534 106.017 44.9851 107.903 47.2876C108.244 47.7118 108.563 48.0282 108.839 48.2847C109.113 48.5425 109.367 48.7239 109.592 48.8685C109.818 49.0117 110.019 49.1167 110.211 49.204C110.406 49.2886 110.59 49.3568 110.776 49.4345C110.961 49.5123 111.151 49.5982 111.354 49.7169C111.563 49.8315 111.789 49.9761 112.046 50.1766C112.3 50.3812 112.597 50.6253 112.942 50.95C113.114 51.1137 113.302 51.2924 113.507 51.4888C113.713 51.6852 113.932 51.9062 114.175 52.1462C113.917 52.0617 113.664 51.9703 113.404 51.8803C113.148 51.7889 112.885 51.7002 112.632 51.5979C112.852 51.763 113.083 51.9157 113.309 52.074C113.537 52.2295 113.758 52.3931 113.991 52.5432C114.453 52.846 114.909 53.1584 115.384 53.4462C116.318 54.0409 117.286 54.5892 118.27 55.1117L119.015 55.4922C119.262 55.6204 119.518 55.7323 119.77 55.8537C120.271 56.1006 120.789 56.3107 121.302 56.5344C122.339 56.9518 123.389 57.346 124.465 57.6542C124.999 57.8247 125.543 57.953 126.083 58.0921C126.353 58.1644 126.629 58.2121 126.9 58.2721C127.173 58.3267 127.444 58.3935 127.72 58.4344C128.27 58.5231 128.817 58.6241 129.369 58.68C129.645 58.7114 129.92 58.7455 130.193 58.7727C130.463 58.7932 130.734 58.8137 131.003 58.8341C133.162 58.991 135.327 58.9241 137.422 58.6281C137.175 58.7073 137.051 58.7864 136.885 58.8532C136.719 58.9187 136.51 58.9801 136.095 58.991C136.208 59.0101 136.334 59.0278 136.469 59.0401C136.604 59.0496 136.749 59.0551 136.903 59.0578C137.21 59.0606 137.548 59.0633 137.903 59.0319C138.257 59.0019 138.628 58.9692 138.999 58.9146C139.37 58.8559 139.741 58.7932 140.096 58.7209C140.451 58.6404 140.79 58.5572 141.098 58.4754C141.407 58.3894 141.684 58.294 141.915 58.2121C142.381 58.0498 142.66 57.8888 142.651 57.8125C143.297 57.6788 143.39 57.7306 143.424 57.8125C143.458 57.8929 143.434 58.0075 143.852 57.9775C144.766 57.867 145.829 57.3937 146.767 56.9517C147.704 56.4948 148.519 56.061 149.037 56.0351C149.124 56.0297 149.022 56.1115 148.858 56.2152C148.696 56.3188 148.47 56.4348 148.321 56.5139C148.841 56.2111 150.102 55.6395 151.06 55.1035C151.299 54.9684 151.521 54.8416 151.708 54.7256C151.893 54.6056 152.045 54.4978 152.148 54.4119C152.356 54.24 152.369 54.1514 152.069 54.1978C153.51 53.4789 154.754 52.5555 155.863 51.617C156.974 50.6772 157.954 49.7251 158.94 48.8999C159.044 48.7103 159.173 48.4988 159.334 48.2874C159.413 48.181 159.499 48.0732 159.591 47.9628C159.681 47.8523 159.772 47.7377 159.869 47.6231C160.259 47.1689 160.689 46.6847 161.083 46.2141C161.874 45.277 162.481 44.3699 162.334 43.9593C162.452 44.108 162.744 43.9184 163.104 43.4983C163.287 43.2909 163.49 43.0277 163.692 42.7208C163.795 42.568 163.9 42.4057 164.007 42.2365C164.11 42.0647 164.212 41.8846 164.316 41.7005C164.527 41.3349 164.717 40.9366 164.906 40.5424C165.089 40.1441 165.257 39.7417 165.407 39.3543C165.7 38.5768 165.909 37.8593 166.007 37.3587C165.993 37.7148 166.198 37.3246 166.41 36.9482C166.625 36.5744 166.821 36.2034 166.842 36.6331C167.224 35.5309 167.484 34.4424 167.599 33.6772C167.699 32.9065 167.67 32.4632 167.441 32.6187C167.88 31.6339 168.13 30.5863 168.259 29.5551C168.379 28.5212 168.386 27.5063 168.355 26.5556C168.292 24.6473 168.089 23.0214 168.539 21.776C168.282 20.0696 167.921 18.4205 167.458 16.8341C167.222 16.043 166.974 15.2627 166.696 14.503C166.424 13.75 166.123 12.9684 165.759 12.2141C165.393 11.4571 164.98 10.7096 164.451 9.99483C163.924 9.28416 163.279 8.58714 162.418 8.05108C161.99 7.78509 161.506 7.56821 160.992 7.43589C160.479 7.30358 159.94 7.25994 159.428 7.30086C158.915 7.34041 158.431 7.45908 157.989 7.6214C157.546 7.78372 157.144 7.98833 156.77 8.2134C156.749 8.11791 156.844 7.9856 157.032 7.8301C157.22 7.6746 157.509 7.5 157.89 7.34178C158.269 7.18218 158.75 7.04715 159.297 6.99395C159.843 6.93802 160.457 6.98303 161.03 7.13717C161.605 7.28858 162.131 7.53956 162.562 7.80964C162.994 8.07972 163.347 8.36207 163.624 8.60078C163.905 8.83812 164.121 9.03182 164.283 9.1423C164.448 9.25143 164.558 9.28007 164.61 9.18868C164.318 8.8463 164.005 8.5203 163.653 8.22158C163.298 7.92422 162.911 7.65278 162.488 7.42771C161.646 6.96939 160.644 6.74842 159.737 6.79207C159.282 6.81525 158.857 6.89573 158.463 7.00759C158.068 7.1208 157.715 7.27357 157.382 7.43453C156.729 7.77008 156.182 8.16429 155.692 8.57759C154.721 9.41238 153.948 10.3195 153.187 11.2934C152.431 12.2714 151.696 13.3231 150.906 14.5057C150.48 15.1072 150.52 14.889 150.689 14.4552C150.858 14.0228 151.175 13.3804 151.269 13.1362C150.516 14.3911 149.83 15.6242 149.19 16.8491C148.549 18.0726 147.954 19.2853 147.403 20.4924C146.302 22.9068 145.376 25.3007 144.728 27.7123C144.669 27.6768 144.777 27.1448 144.901 26.6483C144.582 27.5786 144.035 28.7667 144.386 28.7694L144.616 27.8378C145.107 27.1817 145.01 28.1829 144.84 29.3737C144.668 30.5658 144.429 31.9544 144.526 32.0745C144.324 31.1456 143.893 32.2859 143.487 33.3117C143.082 34.336 142.689 35.2445 142.487 33.8095C142.36 34.4452 142.291 35.2649 142.543 35.1845C142.218 36.082 142.012 36.3412 142.034 35.3386C141.64 37.0491 141.63 37.6302 141.599 38.1622C141.573 38.6955 141.528 39.1811 141.139 40.7129C140.985 40.6624 141.081 40.0282 140.98 39.664C140.887 41.2981 140.804 42.9281 140.092 45.502C140.032 45.3247 139.842 45.6003 140.018 44.8228C139.538 47.068 139.35 49.0253 139.132 51.025C138.913 53.0261 138.672 55.0721 138.119 57.5219C137.668 55.9478 137.62 59.171 136.99 59.3443C136.912 60.2445 136.841 61.1462 136.774 62.0478L137.219 61.0152C136.867 63.3573 137.035 65.4852 136.597 67.4766L136.564 65.702C136.417 67.1725 136.281 68.6443 136.161 70.1161C136.327 69.2935 136.498 68.4724 136.672 67.6512C136.709 70.0601 137.454 67.4848 136.939 70.5853C136.944 69.9456 136.683 72.9273 136.219 74.1195V74.1113C136.301 75.2926 136.397 76.5038 136.109 78.228C135.881 78.6645 135.472 77.8119 135.32 78.0957C135.526 78.6904 135.454 80.0722 135.398 81.4921C135.341 82.9121 135.3 84.3716 135.529 85.115C135.428 84.6226 135.114 84.5789 135.041 84.7358L135.4 85.7234C135.21 86.8078 135.143 86.9646 134.898 86.775C134.671 90.0596 135.704 85.767 135.207 89.6504C135.187 89.3435 135.117 89.4867 135.083 88.847C134.747 92.7604 135.099 96.4228 134.877 100.02C134.57 100.55 134.537 99.762 134.518 98.9941C134.498 98.2261 134.498 97.4759 134.232 98.0815C134.246 99.3855 134.293 100.702 134.372 102.044C134.417 102.722 134.458 103.4 134.533 104.078C134.569 104.416 134.596 104.756 134.64 105.094C134.682 105.432 134.726 105.769 134.768 106.106C134.806 106.443 134.863 106.779 134.914 107.114C134.967 107.448 135.009 107.784 135.069 108.115C135.188 108.78 135.293 109.441 135.428 110.093C135.545 110.748 135.691 111.393 135.818 112.034C135.882 112.355 135.961 112.671 136.028 112.988C136.097 113.304 136.161 113.619 136.237 113.93C136.174 113.618 136.127 113.303 136.079 112.989C136.33 113.113 136.47 113.412 136.59 113.821C136.708 114.232 136.766 114.765 136.864 115.352C137.031 116.53 137.304 117.96 137.983 119.085C137.677 118.526 137.235 118.482 137.381 118.61C137.961 120.285 138.773 121.925 139.886 123.635C140.167 124.061 140.455 124.499 140.778 124.933C140.939 125.149 141.092 125.377 141.266 125.595C141.438 125.815 141.613 126.039 141.79 126.265C142.517 127.16 143.319 128.093 144.247 129.044L143.652 128.686C144.238 129.55 145.155 130.574 146.145 131.551C147.137 132.526 148.204 133.452 149.063 134.178C149.389 134.303 149.809 134.553 150.087 134.689C150.367 134.826 150.508 134.842 150.295 134.482C151.483 135.753 152.846 136.772 154.268 137.609C155.692 138.445 157.178 139.099 158.658 139.671C160.139 140.242 161.618 140.731 163.065 141.245C164.512 141.758 165.927 142.302 167.308 142.976C166.961 142.874 166.534 142.796 166.261 142.765C165.989 142.732 165.873 142.743 166.149 142.831C167.819 143.276 169.499 143.659 171.186 143.988C171.031 143.758 170.881 143.663 170.648 143.558C170.413 143.453 170.094 143.342 169.611 143.062C170.293 143.018 171.732 143.187 172.965 143.458C170.672 143.194 172.848 144.056 173.79 144.459C173.65 144.311 174.01 144.258 173.95 144.127C175.198 144.712 175.348 144.549 175.617 144.378C175.888 144.205 176.274 144.044 178.032 144.558L177.811 144.721C179.177 144.835 180.452 144.759 181.901 144.992C182.453 145.497 180.437 145.013 180.297 145.347C180.811 145.414 181.328 145.419 181.842 145.415C182.356 145.405 182.867 145.373 183.369 145.358C183.871 145.334 184.364 145.328 184.846 145.36C185.327 145.389 185.798 145.467 186.253 145.613C185.812 145.636 185.277 145.615 184.741 145.598C184.206 145.573 183.67 145.55 183.227 145.562C184.213 145.922 184.772 146.075 185.271 146.16C185.771 146.248 186.208 146.276 186.963 146.374L186.814 146.351C187.975 146.523 189.138 146.673 190.305 146.814L189.419 146.625C190.748 146.142 192.06 146.149 193.488 146.192C194.914 146.236 196.456 146.312 198.196 145.946C196.506 146.289 196.361 146.379 196.612 146.46C196.862 146.54 197.504 146.592 197.373 146.836C198.264 146.979 199.622 147.125 199.236 147.265C200.884 146.858 202.005 147.555 204.322 146.903C204.431 147.059 206.087 146.855 205.731 147.265C207.873 147.052 205.211 147.011 205.385 146.806C207.026 146.475 208.97 146.542 211.098 146.536C213.225 146.532 215.538 146.46 217.866 145.86C219.889 145.508 221.07 145.163 222.212 144.826C223.354 144.485 224.456 144.153 226.314 143.771C226.963 143.812 226.724 143.988 226.321 144.156C225.918 144.324 225.351 144.478 225.351 144.478C227.428 144.442 228.964 144.182 230.86 143.714C230.491 143.909 230.909 143.964 231.523 144.05C233.062 143.767 232.467 143.325 234.536 143.223C234.217 143.455 233.815 143.807 233.097 144.1C234.896 143.665 236.641 143.07 238.491 142.591C239.038 142.773 237.432 143.207 236.799 143.498C237.845 143.253 239.203 142.946 240.366 142.623C241.531 142.301 242.502 141.967 242.785 141.688L241.407 141.799C242.168 141.63 241.872 142.091 241.321 142.278C239.579 142.957 238.69 142.616 238.56 142.478L239.875 142.133C239.106 141.806 237.777 142.088 236.297 142.492C234.819 142.896 233.184 143.422 231.831 143.603L232.85 142.762C231.96 143.092 231.068 143.419 230.171 143.74C229.556 143.654 229.101 143.342 230.415 143.044C228.438 143.001 228.739 143.533 227.027 143.398C226.836 143.366 226.915 143.322 227.08 143.272L225.217 143.722C225.569 143.534 224.842 143.292 226.014 143.237C222.58 143.298 220.601 144.404 219.264 144.033L219.544 143.962C217.199 144.32 217.094 144.444 217.145 144.61C217.194 144.774 217.397 144.969 215.644 145.419C214.811 145.085 213.98 144.745 213.155 144.403L212.728 144.929C212.238 144.95 211.27 144.98 211.435 144.77C209.641 145.231 211.76 144.963 210.726 145.354C209.533 145.205 207.916 145.351 206.52 145.423C205.125 145.494 203.955 145.499 203.679 145.113C202.844 145.514 205.941 145.333 203.434 145.671C202.697 144.849 200.527 145.891 198.367 145.498C199.029 145.06 201.061 145.283 198.912 144.902C198.265 145.274 197.218 145.231 196.11 145.098C195.556 145.036 194.987 144.942 194.445 144.879C193.902 144.811 193.385 144.764 192.932 144.785C192.88 145.074 191.892 145.105 190.539 145.047C189.186 144.988 187.47 144.835 185.949 144.8C186.054 144.708 184.636 144.511 182.854 144.223C181.072 143.939 178.93 143.546 177.563 143.207L177.661 143.123C177.503 143.247 177.206 143.305 176.817 143.314C176.428 143.32 175.947 143.28 175.42 143.213C174.369 143.072 173.136 142.827 172.091 142.643C172.171 142.48 172.312 142.384 172.575 142.342C172.838 142.302 173.226 142.309 173.8 142.347C173.153 142.216 172.512 142.069 171.87 141.923C171.621 141.964 171.34 141.968 170.964 141.935C170.586 141.905 170.116 141.826 169.485 141.695L170.08 141.391C168.806 141.076 167.501 140.837 166.124 140.491C164.748 140.144 163.297 139.69 161.788 138.921C161.705 138.998 161.792 139.168 161.918 139.363C162.043 139.555 162.21 139.766 162.278 139.94C162.346 140.112 162.317 140.241 162.053 140.262C161.785 140.286 161.288 140.189 160.415 139.904C160.376 139.642 160.404 139.245 161.313 139.517C161.165 139.472 160.892 139.41 160.588 139.318C160.286 139.219 159.955 139.093 159.688 138.923C160.181 138.999 160.667 139.083 161.159 139.143C160.817 138.96 160.595 138.861 160.432 138.813C160.27 138.765 160.169 138.769 160.075 138.78C159.888 138.799 159.723 138.861 159.168 138.581C159.322 138.3 158.431 137.989 158.701 137.835C159 137.935 159.618 138.415 160.105 138.482C158.853 137.873 157.437 136.955 157.071 136.479C157.082 136.587 157.032 136.682 156.865 136.697C156.782 136.704 156.669 136.692 156.519 136.65C156.37 136.605 156.186 136.53 155.96 136.415C155.38 136.107 155.063 135.887 154.883 135.74C154.703 135.591 154.664 135.505 154.657 135.432C154.643 135.284 154.755 135.19 154.159 134.72C153.498 134.589 152.264 133.462 151.958 133.822C151.33 133.384 151.359 133.107 151.199 132.833C151.05 132.753 150.855 132.641 150.643 132.491C150.428 132.342 150.188 132.169 149.936 131.983C149.44 131.601 148.895 131.169 148.434 130.779C147.961 130.4 147.576 130.056 147.335 129.915C147.097 129.772 147.018 129.814 147.205 130.169L147.433 130.434C147.38 130.396 147.324 130.342 147.258 130.295C147.036 130.124 146.818 129.948 146.609 129.759C146.399 129.572 146.188 129.382 145.983 129.186C145.583 128.783 145.182 128.374 144.815 127.932C144.436 127.501 144.092 127.036 143.745 126.576C143.416 126.102 143.079 125.631 142.78 125.136C142.467 124.652 142.184 124.147 141.896 123.65C141.756 123.401 141.625 123.144 141.487 122.895L141.283 122.518L141.09 122.136C140.562 121.13 140.096 120.109 139.603 119.123L139.754 119.066C139.147 117.901 138.627 116.53 138.185 115.233C138.078 114.907 137.96 114.59 137.864 114.277C137.766 113.964 137.668 113.66 137.568 113.371C137.469 113.082 137.387 112.801 137.293 112.54C137.203 112.278 137.105 112.037 137.019 111.812C136.944 111.426 136.927 110.957 136.961 110.624C137.001 110.29 137.094 110.09 137.214 110.238C137.106 109.747 137.004 109.366 136.927 109.024C136.852 108.681 136.788 108.379 136.731 108.046C136.668 107.714 136.639 107.35 136.609 106.888C136.598 106.656 136.578 106.401 136.581 106.11C136.581 105.82 136.583 105.496 136.592 105.131C136.802 106.132 136.851 105.951 136.867 105.87C136.875 105.829 136.874 105.812 136.882 105.978C136.885 106.144 136.908 106.492 136.968 107.18C136.953 106.854 136.942 106.559 136.935 106.288C136.937 106.016 136.938 105.768 136.939 105.533C136.942 105.068 136.944 104.662 136.946 104.25C136.945 104.044 136.938 103.838 136.924 103.621C136.908 103.404 136.892 103.178 136.874 102.933C136.834 102.442 136.751 101.89 136.649 101.172C137.055 102.142 137.167 99.1782 137.065 97.9178L136.755 99.7729C136.705 98.3543 136.758 97.1144 136.817 95.8554L137.343 96.5456C137.717 93.8435 137.512 91.3991 137.384 89.1075C137.256 86.8187 137.201 84.684 137.881 82.6597C137.739 81.9327 137.626 82.6625 137.503 83.4113C137.384 84.1602 137.257 84.9295 137.075 84.2761C137.289 81.7827 138.254 79.2483 138.32 78.4735C138.602 76.7848 138.481 75.9773 138.344 75.1453C138.212 74.3146 138.068 73.4579 138.353 71.6902C138.117 72.1253 137.555 72.5059 137.664 69.8201C138.016 67.3362 138.822 66.8615 138.786 68.4437C138.733 69.0398 138.64 69.3208 138.579 69.2881C138.559 70.0983 138.526 71.1582 138.841 70.1993L138.685 69.8569C138.851 69.2526 139.028 68.0973 139.197 67.2011C139.365 66.3036 139.523 65.6625 139.628 66.0812C139.688 64.192 139.415 65.241 139.142 66.6146C139.477 65.0446 139.648 63.8088 139.814 62.5593C139.98 61.3099 140.146 60.0481 140.496 58.4385C140.309 58.9378 140.01 59.3797 140.095 58.8655C140.591 56.4989 140.601 55.9628 140.526 55.6082C140.455 55.2535 140.306 55.083 140.556 53.4625C141.183 51.6852 141.113 54.2428 141.487 50.9623C142.072 49.0294 142.066 50.6445 142.071 51.4547C142.273 48.4429 143.436 46.0326 143.887 44.3944L143.689 45.959C143.803 45.0219 143.981 44.2744 144.162 43.5133L143.582 44.299C143.858 43.4151 144.043 42.6567 144.195 42.7112C144.177 41.7264 143.398 43.2691 143.518 41.3485C143.761 40.7729 143.945 39.8495 144.147 39.0351C144.35 38.2208 144.571 37.5156 144.875 37.3792C144.278 39.2261 144.438 39.1579 144.637 39.0229C144.84 38.8892 145.086 38.6914 144.712 40.2832C144.811 39.6571 145.009 38.9137 145.319 38.0394C145.412 37.9207 145.384 38.1935 145.349 38.4431C146.055 36.7231 146.042 36.2825 145.971 35.8024C145.904 35.3236 145.78 34.808 146.355 32.9788C146.484 33.5272 147.14 32.2968 147.276 31.6884C146.8 33.1493 146.587 32.2436 146.825 30.8264C147.321 29.697 147.504 29.0559 147.617 28.543C147.729 28.0301 147.773 27.6454 148.01 27.048C147.804 27.494 147.605 27.9428 147.406 28.3916C147.305 27.8255 147.755 26.6756 148.305 25.0456C148.436 25.0183 148.328 25.3948 148.228 25.7112C148.13 26.0291 148.039 26.2869 148.196 26.0182C148.303 25.0388 148.828 24.084 149.427 23.0732C150.026 22.0597 150.701 20.9958 151.131 19.745C151.854 18.7506 151.662 19.8786 152.266 19.0016C152.779 17.6321 153.268 17.006 153.77 16.3881C154.024 16.0798 154.283 15.7756 154.571 15.3882C154.859 15.0022 155.174 14.5357 155.556 13.9192C155.148 14.1278 154.941 14.2915 154.953 14.1538C154.958 14.0842 155.02 13.9437 155.143 13.7036C155.265 13.4636 155.451 13.1266 155.72 12.6765C154.729 13.9437 153.878 15.3719 153.109 16.8491C153.491 15.8343 153.914 14.8344 154.395 13.866C153.946 14.4689 153.551 15.1686 153.211 15.8111C152.871 16.4535 152.588 17.0414 152.333 17.422C152.577 16.6718 152.715 16.3471 152.697 16.2639C152.68 16.1821 152.52 16.3444 152.194 16.5804C152.976 15.8165 153.453 14.904 153.991 13.9683C154.261 13.5018 154.545 13.0298 154.887 12.5851C155.23 12.1405 155.631 11.7217 156.121 11.3861L156.736 12.12C158.045 11.1406 159.104 10.4122 159.952 10.4068C160.174 10.4013 160.409 10.449 160.672 10.5623C160.933 10.6823 161.215 10.8801 161.489 11.1543C162.042 11.7012 162.542 12.5456 162.912 13.5809C162.78 13.1253 162.63 12.6792 162.454 12.255C162.762 12.4078 163.091 13.0134 163.373 13.7718C163.512 14.1551 163.646 14.5603 163.771 14.9804C163.836 15.1877 163.902 15.3937 163.971 15.5901C164.039 15.7865 164.102 15.9788 164.172 16.1562C163.999 16.1316 163.95 16.3553 163.941 16.6663C163.926 16.9787 163.942 17.3797 163.924 17.7112C163.979 17.6784 164.048 17.868 164.136 18.1763C164.178 18.3304 164.228 18.5132 164.276 18.7137C164.323 18.9143 164.373 19.1325 164.423 19.3535C164.477 19.5744 164.53 19.7995 164.582 20.0164C164.635 20.2333 164.696 20.4392 164.756 20.6248C164.872 20.9958 165.013 21.2781 165.185 21.3654C165.155 21.7201 165.112 22.0734 165.077 22.4226L164.934 23.4688C164.925 23.9366 164.949 24.3513 164.957 24.7305C164.964 24.9201 164.976 25.1002 164.99 25.272C165.003 25.4439 165.011 25.6089 165.028 25.7672C165.059 26.0836 165.1 26.3755 165.134 26.6565C165.17 26.9361 165.221 27.2062 165.254 27.4736C165.29 27.7423 165.329 28.011 165.356 28.2906C165.38 28.5703 165.397 28.8635 165.403 29.1786C165.4 29.4937 165.385 29.832 165.347 30.2057C165.324 30.3912 165.296 30.5863 165.262 30.7896C165.245 30.8919 165.226 30.9955 165.208 31.1033C165.183 31.2097 165.159 31.3188 165.133 31.4306C165.075 30.855 164.9 30.9669 164.778 30.915C164.717 30.8891 164.665 30.8223 164.639 30.6122C164.613 30.4022 164.62 30.0475 164.639 29.4446C164.559 30.038 164.438 30.5931 164.376 31.0092C164.303 31.4238 164.288 31.7007 164.395 31.7335C164.226 32.0554 164.14 32.8874 163.992 33.7686C163.834 34.6443 163.616 35.5705 163.272 36.0356C163.25 36.2989 163.305 36.5008 163.29 36.7927C163.283 36.9386 163.263 37.1091 163.209 37.3219C163.156 37.5347 163.059 37.7843 162.916 38.098C162.798 38.2085 162.774 38.0285 162.774 38.0285C162.808 38.0448 162.788 38.184 162.74 38.3627C162.692 38.5414 162.623 38.7651 162.575 38.956C162.529 39.1484 162.499 39.3093 162.536 39.3625C162.571 39.4171 162.68 39.3693 162.888 39.132C162.246 39.8822 161.611 40.822 160.923 41.8246C160.239 42.8285 159.501 43.8952 158.704 44.9032C157.91 45.9112 157.059 46.8592 156.202 47.6313C155.35 48.4074 154.489 48.9981 153.72 49.3282C152.717 50.182 151.54 51.0455 150.321 51.7902C149.104 52.5377 147.846 53.1665 146.732 53.6262C146.838 53.4775 146.679 53.4762 147.111 53.3316C145.527 53.8254 145.118 54.1718 144.644 54.5729C144.404 54.7611 144.148 54.9616 143.712 55.1526C143.492 55.244 143.229 55.3354 142.902 55.424C142.573 55.5059 142.177 55.5809 141.7 55.6464C140.685 55.585 141.176 55.4186 141.752 55.2699C142.326 55.1048 142.996 54.9589 142.385 55.0012C142.003 54.5483 140.929 54.8552 139.575 55.1471C139.237 55.2194 138.881 55.2904 138.519 55.3613C138.156 55.424 137.784 55.4745 137.416 55.5181C137.046 55.5509 136.678 55.5659 136.324 55.5632C135.97 55.5509 135.627 55.5127 135.309 55.4499L135.918 55.3654C135.675 55.3299 135.421 55.3122 135.155 55.3081C134.889 55.2972 134.611 55.2972 134.321 55.3095C134.03 55.3231 133.729 55.3367 133.416 55.3517C133.104 55.3708 132.779 55.3954 132.444 55.4063C131.775 55.4431 131.059 55.4609 130.321 55.4418C129.956 55.4227 129.581 55.4049 129.201 55.3654C128.823 55.3149 128.44 55.2603 128.054 55.1812C128.054 55.1812 128.221 55.1212 128.102 55.0285C127.003 55.0926 125.426 54.903 123.787 54.4583C123.58 54.4092 123.377 54.3437 123.172 54.2796C122.966 54.2155 122.76 54.15 122.554 54.0859C122.145 53.944 121.737 53.7926 121.335 53.6399C120.939 53.4707 120.542 53.3152 120.166 53.1393C119.978 53.0506 119.792 52.9633 119.609 52.8774C119.518 52.8337 119.428 52.7914 119.338 52.7492C119.249 52.7041 119.162 52.6591 119.076 52.6141C119.334 52.6496 119.549 52.6878 119.72 52.7246C119.889 52.7628 120.015 52.7969 120.096 52.8092C120.26 52.8337 120.253 52.7655 120.096 52.4463C119.48 52.1544 119.488 52.344 119.341 52.4627C119.267 52.5214 119.155 52.5595 118.907 52.5023C118.659 52.445 118.27 52.2977 117.667 51.943C117.587 51.8584 117.491 51.7657 117.386 51.6661C117.282 51.5652 117.172 51.4547 117.055 51.3401C116.939 51.2269 116.819 51.1082 116.699 50.9909C116.639 50.9309 116.58 50.8722 116.52 50.8122C116.463 50.7495 116.407 50.6881 116.351 50.6267C116.131 50.3812 115.932 50.1438 115.793 49.9365C115.658 49.7224 115.583 49.5396 115.601 49.4114C116.274 49.9406 116.978 50.4262 117.69 50.8982C117.501 50.5912 117.233 50.3293 116.93 50.0811C116.633 49.8247 116.285 49.6037 115.942 49.3704C115.249 48.9121 114.524 48.4661 114.058 47.9737L114.352 47.9014C113.987 47.5795 113.651 47.3121 113.364 47.057C113.072 46.8074 112.802 46.596 112.564 46.3927C112.072 45.9972 111.671 45.6753 111.263 45.3479C111.056 45.1856 110.859 45.0069 110.648 44.8173C110.438 44.6263 110.215 44.4217 109.988 44.1748C109.758 43.9293 109.505 43.6606 109.245 43.3291C109.115 43.1654 108.977 42.9908 108.832 42.8026C108.69 42.613 108.547 42.4057 108.393 42.1861L108.494 42.6594C108.259 42.4657 108.07 42.2897 107.914 42.1288C107.757 41.9692 107.644 41.8164 107.549 41.68C107.362 41.4031 107.259 41.1726 107.175 40.9325C107.089 40.6938 107.008 40.4524 106.846 40.1632C106.685 39.8727 106.455 39.5262 106.055 39.0747C106.125 38.761 106.197 38.45 106.271 38.1431C105.834 37.5061 105.067 36.3821 104.327 35.0535C103.578 33.7304 102.86 32.2041 102.386 30.8809C102.855 31.567 103.401 32.6583 104.02 33.7631C104.631 34.8721 105.299 36.0002 105.87 36.824C105.535 36.1448 104.964 34.9908 104.469 33.8996C104.343 33.6267 104.22 33.3594 104.104 33.1057C103.986 32.852 103.873 32.6133 103.77 32.3964C103.667 32.1809 103.567 31.9885 103.477 31.8303C103.39 31.6707 103.312 31.5452 103.242 31.4634C103.365 31.7471 103.534 32.0554 103.686 32.3691C103.761 32.526 103.83 32.6842 103.89 32.8411C103.953 32.9966 104.004 33.1507 104.036 33.3007C103.459 32.5219 102.916 31.5534 102.44 30.3967C101.963 29.2414 101.554 27.8978 101.27 26.3796C101.936 26.5242 101.591 24.5695 101.461 22.2671C101.391 21.1172 101.371 19.8786 101.479 18.8051C101.5 18.5364 101.541 18.2786 101.577 18.0345C101.596 17.9131 101.614 17.793 101.638 17.6798C101.663 17.5652 101.689 17.4561 101.716 17.3497C101.771 17.1383 101.825 16.9446 101.889 16.7727C101.957 16.6022 102.028 16.4535 102.105 16.3294C102.152 15.0336 102.367 13.7555 102.735 12.5251C103.107 11.2961 103.643 10.1203 104.321 9.02909C104.994 7.9324 105.841 6.94621 106.809 6.07186C107.314 5.63128 107.853 5.17569 108.394 4.81013C108.933 4.43774 109.49 4.12265 109.988 3.93851C109.878 3.91668 109.783 3.89486 109.702 3.8744C109.622 3.85394 109.554 3.84848 109.503 3.83211C109.401 3.80483 109.361 3.77209 109.371 3.73253C109.381 3.69298 109.438 3.64797 109.524 3.59477C109.61 3.54976 109.724 3.50884 109.848 3.45701C109.911 3.427 109.973 3.41745 110.037 3.39562C110.099 3.37653 110.163 3.35606 110.225 3.33287C110.344 3.30559 110.457 3.26467 110.55 3.22239C110.64 3.18829 110.715 3.13645 110.764 3.0628C110.813 2.98641 110.832 2.90184 110.8 2.77226C111.346 2.7668 111.686 2.93594 111.904 3.06416C112.008 3.14328 112.084 3.20602 112.137 3.25376C112.188 3.30833 112.212 3.35333 112.22 3.38198C112.586 3.84166 112.851 4.42683 113.036 5.06383C113.223 5.70084 113.349 6.37741 113.424 7.07306C113.399 7.58867 113.278 7.27494 113.118 6.88346C113.044 6.68295 112.949 6.47015 112.87 6.31602C112.792 6.15915 112.716 6.07323 112.673 6.11824C112.777 6.4497 112.852 6.7225 112.893 6.95575C112.916 7.07033 112.934 7.17263 112.947 7.26266C112.96 7.35405 112.967 7.43725 112.971 7.50818C112.988 7.79463 112.961 7.92422 112.915 8.02925C112.87 8.13291 112.812 8.20658 112.774 8.37572C112.739 8.54213 112.71 8.81221 112.724 9.30326C112.795 9.19141 112.872 9.19277 112.95 9.28826C113.025 9.38374 113.1 9.57334 113.168 9.83251C113.299 10.3536 113.391 11.1611 113.373 12.0532C113.478 11.2115 113.55 10.3713 113.591 9.53242C113.624 9.66473 113.657 9.79158 113.687 9.91435C113.713 10.0385 113.736 10.1585 113.76 10.2758C113.805 10.5077 113.842 10.7246 113.864 10.9306C113.889 11.1352 113.908 11.3261 113.919 11.5062C113.927 11.6862 113.93 11.8554 113.928 12.0136C113.928 12.3301 113.9 12.6124 113.867 12.8716C113.835 13.1321 113.789 13.3735 113.743 13.615C113.553 14.5834 113.368 15.5328 113.541 17.7889C113.456 17.3102 113.37 16.8341 113.276 16.3608C113.346 17.5079 113.25 19.6331 113.125 21.7665C113.013 23.8998 112.881 26.04 113.114 27.2335C112.942 27.6291 112.597 28.1297 112.672 27.1012C112.229 29.8552 111.894 32.9556 111.448 35.8951C111.227 37.3642 110.978 38.7896 110.682 40.1059C110.389 41.4208 110.049 42.6253 109.649 43.6483L109.525 43.175C109.325 44.2021 109.495 45.0546 108.9 46.2509C108.823 46.1581 108.784 45.7803 108.637 46.2413C108.572 46.7965 108.265 49.0294 107.705 50.3089C107.738 49.9051 107.772 49.5014 107.8 49.0976C107.684 49.4182 107.57 49.7305 107.46 50.0334C107.407 50.1861 107.355 50.3362 107.304 50.4849C107.254 50.6322 107.205 50.7863 107.16 50.9145C107.068 51.1819 106.983 51.4438 106.891 51.6975C106.807 51.9539 106.712 52.2022 106.627 52.4477C106.277 53.4298 105.935 54.3396 105.579 55.2303C104.86 57.0063 104.084 58.7141 102.77 60.5651C102.488 60.3427 101.671 61.0398 100.696 61.9359C99.7259 62.8362 98.5965 63.9397 97.8217 64.6558L97.7999 64.5331C95.6038 66.7442 93.7241 68.6374 91.8458 70.4775C89.9621 72.3122 88.0716 74.0895 85.7595 75.9282C84.0504 76.688 81.4655 78.3807 78.5833 80.139C75.7093 81.904 72.5366 83.7278 69.8453 84.924C70.6978 84.6117 69.9817 85.4847 69.0869 86.0371C68.4417 86.2949 67.6506 86.846 67.0013 87.2402C66.3548 87.6371 65.8528 87.8785 65.8064 87.5375L66.2524 87.3288C65.6427 87.2756 64.7247 87.603 63.7031 88.0477C62.6814 88.4937 61.5547 89.0611 60.544 89.5086L60.5617 90.4375C57.659 91.0649 54.2121 92.6213 50.9957 93.9226C47.7902 95.2348 44.8194 96.2878 43.1552 96.1787C41.8785 96.7652 40.2116 97.199 38.9199 97.7146L38.8885 97.2522C37.0103 97.6273 35.5985 97.8551 34.083 98.0924C33.3246 98.207 32.5403 98.323 31.6564 98.4389C30.7725 98.5548 29.7904 98.6708 28.6392 98.7635C28.9461 98.638 29.2516 98.5044 29.5544 98.3734C28.2613 98.4566 27.4675 98.8072 26.6709 99.1523C25.8784 99.4919 25.0804 99.8288 23.8678 99.7416C23.6441 99.496 23.4286 99.2437 23.2212 98.99C21.0197 98.7444 18.8945 98.042 17.2877 96.9398C17.1867 96.8716 17.0858 96.8048 16.9917 96.7311C16.8948 96.6561 16.8034 96.5975 16.697 96.5061L16.0737 96.0027C15.8745 95.8268 15.6726 95.6535 15.4708 95.4817C15.2784 95.3003 15.0834 95.1202 14.8856 94.9442C14.1163 94.2172 13.3893 93.452 12.6731 92.6527C12.8 92.6527 13.0278 92.6526 13.4493 93.186C12.8409 92.3976 11.9516 90.6898 11.4196 89.2071C11.1454 88.4678 10.9149 87.8008 10.7253 87.367C10.522 86.9374 10.3434 86.7396 10.1469 86.9715C10.297 86.9264 10.312 86.6318 10.2642 86.1776C10.2547 86.0644 10.2397 85.9402 10.2206 85.8079C10.2001 85.6756 10.1783 85.5351 10.1606 85.3851C10.1401 85.2364 10.1169 85.0795 10.0896 84.9172C10.0678 84.7535 10.0446 84.5844 10.0214 84.4112C9.93142 83.7155 9.84003 82.9394 9.81275 82.1864C9.78137 81.4335 9.78547 80.701 9.83048 80.1049C9.95733 80.2536 10.0856 80.3995 10.2138 80.5414C10.0896 79.5279 10.0474 78.9755 10.0965 78.348C10.1183 78.0316 10.1783 77.6974 10.2847 77.2732C10.3147 77.1681 10.3475 77.0576 10.3816 76.9403C10.4157 76.8217 10.4552 76.6975 10.5043 76.5693C10.5521 76.4397 10.6039 76.302 10.6584 76.156C10.7212 76.0128 10.788 75.8614 10.859 75.7004C11.0431 75.4194 11.1986 75.3458 11.2327 75.4194C11.2695 75.4958 11.185 75.7154 10.9408 76.0796C11.0868 75.8505 11.2109 75.6554 11.3186 75.4863C11.3705 75.4017 11.4155 75.3226 11.4564 75.2462C11.5014 75.1739 11.541 75.1057 11.5765 75.0402C11.7129 74.7729 11.8042 74.5669 11.9024 74.3432C11.9488 74.2286 12.0102 74.1222 12.0798 74.0008C12.1493 73.8808 12.2298 73.7485 12.3458 73.6134C12.4017 73.5452 12.4644 73.473 12.5326 73.3952C12.6022 73.3202 12.6854 73.2492 12.7741 73.1688C12.8191 73.1292 12.8655 73.0897 12.9132 73.0474C12.9623 73.0064 13.0169 72.971 13.0728 72.9301C13.1287 72.8905 13.1874 72.8509 13.2474 72.8087C13.2774 72.7882 13.3088 72.7664 13.3401 72.7459C13.3729 72.7282 13.407 72.7091 13.4411 72.69C13.2447 72.9492 13.0687 73.2192 12.9146 73.5016C13.2951 73.1415 13.6007 72.9369 13.8271 72.7623C13.9417 72.675 14.044 72.615 14.1299 72.5468C14.1736 72.5154 14.2131 72.4799 14.2513 72.4527C14.2909 72.4254 14.3277 72.3995 14.3618 72.3722C14.4314 72.319 14.4955 72.2644 14.5569 72.2071C14.6196 72.1512 14.6865 72.1035 14.756 72.0434C14.8283 71.9889 14.902 71.9139 14.9974 71.8552C15.0916 71.7938 15.1993 71.7243 15.3303 71.6451C15.9536 71.4119 17.0135 71.4228 17.8333 71.8102C17.9356 71.8566 18.0352 71.9016 18.132 71.9466C18.2275 71.9971 18.3161 72.0557 18.4034 72.1076C18.4894 72.1621 18.5712 72.2112 18.6462 72.2658C18.7199 72.3244 18.7881 72.3817 18.8508 72.4363C19.1046 72.6463 19.2478 72.8591 19.2628 72.9846C19.3555 72.971 19.5029 72.9696 19.6815 73.0187C19.8589 73.0692 20.0798 73.1388 20.3145 73.2561C20.7782 73.4961 21.3252 73.8808 21.759 74.4223C21.7767 74.6638 21.3661 74.3691 21.1533 74.2395C21.3157 74.4114 21.4616 74.5956 21.613 74.7606C21.7658 74.9229 21.9036 75.0948 22.0427 75.2571C22.325 75.5736 22.5788 75.8887 22.8311 76.1778C22.9593 76.3197 23.0753 76.4697 23.1939 76.6102C23.3126 76.7507 23.4299 76.8885 23.5431 77.0222C23.7668 77.2977 23.981 77.5623 24.1897 77.8188C25.0054 78.8636 25.686 79.858 26.1225 81.1838C26.0134 81.3025 26.0216 81.4935 26.0761 81.7117C25.9943 81.5371 25.9125 81.3653 25.8333 81.1961C25.7433 81.0256 25.6533 80.8578 25.566 80.6928C25.39 80.3641 25.2264 80.0435 25.0545 79.7516C24.8853 79.4583 24.7312 79.1746 24.5771 78.9195C24.4216 78.6658 24.2783 78.4312 24.1474 78.2184C23.8841 77.7969 23.6632 77.4764 23.5295 77.2622C23.3931 77.0508 23.3276 76.9608 23.3699 77.0017C23.2076 77.119 23.4613 77.7069 23.5513 78.0943C23.6441 78.4844 23.5718 78.6672 22.7915 78.0275C23.479 78.7286 24.3984 79.7584 25.2345 80.941C25.3382 81.0884 25.4473 81.237 25.5455 81.3857L25.8224 81.8318C26.0011 82.1332 26.1921 82.4251 26.3339 82.7457C26.484 83.0594 26.6245 83.3718 26.7513 83.6773C26.8687 83.9897 26.9614 84.3007 27.0419 84.5994C27.0432 84.7249 27.0446 84.8476 27.0146 84.9527L26.8864 84.729C27.0446 85.2691 27.2151 85.7534 27.4265 86.1926C27.4675 86.3863 27.5057 86.5622 27.5411 86.7287C27.5725 86.8978 27.6011 87.0574 27.6298 87.2156C27.6912 87.5321 27.758 87.8403 27.8535 88.21C27.7294 88.3928 27.8412 89.1198 28.0308 89.9532C28.1208 90.3734 28.2163 90.8235 28.3063 91.2477C28.3527 91.4591 28.3964 91.6651 28.4373 91.8561C28.4755 92.0484 28.5055 92.2284 28.5314 92.388C28.9611 92.1998 29.1793 93.8871 29.2775 92.253C29.2789 92.358 29.2557 92.2994 29.2107 92.1098C29.1684 91.9202 29.0961 91.5996 29.0006 91.1781C28.9488 90.9899 28.897 90.7662 28.8465 90.6462C28.8642 90.668 28.8833 90.6953 28.9024 90.7253C28.8574 90.518 28.8097 90.2942 28.7592 90.0555C28.7074 89.8182 28.6433 89.5699 28.5805 89.308C28.4537 88.7843 28.3241 88.2073 28.1536 87.6084C28.2722 87.839 28.3977 88.0722 28.5041 88.3205C28.6092 88.5687 28.7074 88.8265 28.7947 89.1021C28.8806 89.3776 28.9584 89.6668 29.0129 89.9805C29.062 90.2956 29.0934 90.6325 29.1029 90.9967C29.3089 91.2954 29.5326 91.6092 29.7113 91.9024C29.8927 92.1944 30.0523 92.4603 30.1573 92.6554C30.0782 93.1246 30.0373 93.6907 29.9923 94.2881C29.9732 94.5855 29.9568 94.891 29.9446 95.1925C29.9323 95.4953 29.92 95.7954 29.9023 96.0873C29.8695 96.6697 29.8395 97.2072 29.7959 97.6327C29.7522 98.0583 29.6867 98.3721 29.6035 98.5016C29.9664 100.459 30.201 102.797 30.4711 104.951C30.5352 105.49 30.6034 106.017 30.677 106.525C30.7521 107.032 30.8203 107.521 30.9035 107.98C30.9853 108.44 31.0753 108.871 31.1749 109.264C31.2704 109.658 31.3768 110.015 31.4955 110.326C31.6496 111.464 31.3045 111.648 31.1804 112.078C31.0767 111.422 31.0535 110.64 30.9185 110.29C31.0781 111.423 31.149 113.11 31.2527 114.582C31.3004 115.317 31.3591 115.999 31.445 116.531C31.5296 117.063 31.6332 117.444 31.7846 117.579C31.5405 120.463 31.2254 115.967 31.3495 119.921L31.1667 119.388C30.7043 123.275 31.0412 126.433 31.3086 129.715C31.5746 132.993 31.771 136.393 30.9553 140.682C31.0576 140.087 31.1067 139.79 31.2117 139.672C30.718 144.583 30.5379 149.656 30.2665 154.714C29.9909 159.77 29.6254 164.809 28.7551 169.614C28.3295 172.352 28.6801 172.685 28.8069 174.394L28.2627 174.944L28.5396 177.872C28.5369 181.992 26.6177 184.796 26.81 190.03L27.2137 189.402C26.945 191.245 26.7241 195.283 26.3844 194.929C26.4212 195.126 26.6531 195.576 26.394 196.278L26.1334 196.304L26.0066 200.897C25.3723 204.389 25.0763 200.221 24.3588 205.338C24.2088 207.255 24.3561 210.856 24.6248 210.166C24.7462 209.402 25.0558 208.226 25.3177 208.203L25.2086 209.964C25.5592 210.174 25.877 210.644 26.2494 210.534C26.6218 210.422 27.0514 209.729 27.6025 207.616L27.5425 204.564L28.0308 203.647L27.7239 206.169C28.2545 204.786 28.0704 203.839 27.9926 202.799C28.2163 202.583 28.4046 202.181 28.5519 201.595L28.2054 198.567C28.5423 198.247 28.6228 199.957 29.0279 198.004C28.8656 196.587 28.2109 199.244 28.2709 196.939C28.7838 195.547 29.0115 195.999 28.9202 194.283C29.1411 194.069 29.2216 194.44 29.2271 195.116C29.1766 193.591 29.594 191.141 29.2844 190.323C29.8777 188.877 29.7413 185.253 30.4329 185.478C30.3142 184.988 30.1614 182.777 30.2746 181.398C30.5652 182.701 30.718 181.413 30.8926 179.894C31.0712 178.375 31.2704 176.624 31.6932 177.002C31.1176 175.062 32.0083 170.232 31.8692 166.889C31.9142 167.079 32.0042 167.452 31.9401 167.741C32.1693 165.886 32.4435 165.365 32.689 164.181C32.0793 163.889 32.1747 160.979 31.9033 159.387C32.6904 157.152 32.5389 160.83 33.18 160.16C32.9195 160.197 32.869 159.196 32.8213 158.278C32.7736 157.36 32.7258 156.525 32.4844 156.899C32.9904 155.18 32.7804 155.408 33.3669 154.546C32.5949 154.183 33.3505 152.909 32.9563 151.428C33.5101 148.925 33.7448 150.825 33.6738 148.028C33.9971 146.719 34.1267 149.211 34.1267 149.211L34.1212 149.203ZM29.4412 83.0007C29.4412 83.0007 29.448 82.998 29.4494 82.998C29.654 83.5505 29.8341 84.021 29.9405 84.3225C29.8422 84.0456 29.6936 83.665 29.4399 83.0021L29.4412 83.0007ZM26.9178 77.8215C27.0842 78.1284 27.2765 78.4694 27.4838 78.8336C27.6803 79.2019 27.8917 79.5934 28.1072 79.9971C28.0826 80.1254 28.0103 80.1567 27.9121 80.0926C27.8126 80.0312 27.6857 79.8757 27.5548 79.6234C27.6748 79.7352 27.5957 79.4856 27.4525 79.1064C27.3106 78.7259 27.0733 78.2266 26.9191 77.8215H26.9178ZM28.1017 89.7882C27.848 88.9752 27.8712 88.6779 27.9353 88.5415C28.0335 88.9316 28.1536 89.3858 28.3227 89.9805C28.3445 90.001 28.3759 90.046 28.3991 90.0678C28.2982 90.0064 28.1959 89.9328 28.1017 89.7882Z" fill="#F6A473"/>
<path d="M28.9967 91.1755C29.0308 91.2955 29.0636 91.3597 29.099 91.5179C29.1045 91.3378 29.1045 91.1673 29.099 90.9941C29.0308 90.9 28.9626 90.8045 28.8999 90.7227C28.9326 90.8754 28.9667 91.0336 28.9981 91.1755H28.9967Z" fill="#F6A473"/>
<path d="M147.204 130.165L147.127 130.078C147.183 130.157 147.235 130.231 147.257 130.292C147.217 130.223 147.227 130.213 147.204 130.165Z" fill="#F6A473"/>
<path d="M45.298 99.8324L45.2571 99.7246L44.811 99.9592L45.298 99.8324Z" fill="#F6A473"/>
<path d="M173.791 144.461C173.84 144.513 173.946 144.577 174.164 144.655C174.153 144.621 173.988 144.55 173.791 144.461Z" fill="#F6A473"/>
<path d="M144.908 26.6474C144.953 26.5164 144.994 26.3855 145.026 26.2668C145.272 25.3597 145.077 25.9667 144.908 26.6474Z" fill="#F6A473"/>
<path d="M136.224 74.1126C136.188 73.5956 136.157 73.0868 136.159 72.5508C136.038 73.4006 135.968 74.0649 136.224 74.1126Z" fill="#F6A473"/>
<path d="M166.852 36.642C166.852 36.642 166.847 36.642 166.846 36.6338C166.809 36.7511 166.767 36.852 166.726 36.9666C166.768 36.8589 166.813 36.7511 166.852 36.642Z" fill="#F6A473"/>
<path d="M136.399 70.3242C136.218 71.1672 136.162 71.8833 136.159 72.5517C136.257 71.8547 136.392 71.0362 136.399 70.3242Z" fill="#F6A473"/>
<path d="M137.25 109.463L137.688 109.576C137.414 108.229 137.526 109.587 137.25 109.463Z" fill="#F6A473"/>
<path d="M134.615 94.9688L134.332 96.3492L134.698 97.0134L134.615 94.9688Z" fill="#F6A473"/>
<path d="M137.874 86.4347L137.903 87.0526C137.889 86.2682 137.882 85.4839 137.875 84.6982L137.873 86.4347H137.874Z" fill="#F6A473"/>
<path d="M155.538 47.101C155.752 47.131 155.973 47.1624 156.187 47.1856C156.481 46.8255 156.557 46.5145 156.44 46.4395C156.381 46.4013 156.276 46.4231 156.126 46.5268C155.975 46.6277 155.788 46.82 155.538 47.1024V47.101Z" fill="#F6A473"/>
<path d="M108.901 42.4158C108.757 41.7897 108.052 40.4639 107.358 39.7969C107.954 40.8472 108.486 41.9507 108.901 42.4158Z" fill="#F6A473"/>
<path d="M57.7722 90.9605L58.7175 90.3672C58.1023 90.6864 57.4844 91.0028 56.8638 91.3138L57.7736 90.9605H57.7722Z" fill="#F6A473"/>
<path d="M87.6448 115.113C110.927 115.113 129.8 96.2391 129.8 72.9573C129.8 49.6754 110.927 30.8018 87.6448 30.8018C64.3629 30.8018 45.4893 49.6754 45.4893 72.9573C45.4893 96.2391 64.3629 115.113 87.6448 115.113Z" fill="url(#paint0_radial_2220_5272)"/>
<path d="M89.9202 92.6161C88.3365 92.6161 87.3162 92.3938 87.2276 92.3747C86.8675 92.2929 86.6424 91.9355 86.7229 91.5754C86.8047 91.2153 87.1621 90.9902 87.5208 91.0707C87.5631 91.0802 91.8298 91.9928 96.5753 89.843C101.113 87.7888 100.902 85.0457 100.899 85.0171C100.864 84.6502 101.133 84.3228 101.499 84.2873C101.866 84.2519 102.192 84.5206 102.229 84.8875C102.244 85.0389 102.525 88.614 97.1264 91.0598C94.3505 92.316 91.7562 92.6148 89.9202 92.6148V92.6161Z" fill="#191919"/>
<path d="M80.9897 85.2107L85.0723 66.0405L84.8541 58.3965C84.8431 58.0282 85.1337 57.7199 85.5033 57.709C85.5102 57.709 85.5156 57.709 85.5224 57.709C85.8825 57.709 86.1799 57.9954 86.1894 58.3583L86.4118 66.1619L82.6471 83.8453L87.9381 83.7512C87.9381 83.7512 87.9463 83.7512 87.9504 83.7512C88.3132 83.7512 88.612 84.0431 88.6174 84.4073C88.6242 84.7755 88.3296 85.0811 87.9613 85.0865L80.9897 85.2107Z" fill="#191919"/>
<path d="M99.1628 73.8636C98.4548 73.8636 97.7483 73.7913 97.0608 73.6467C96.9721 73.6276 96.8889 73.6099 96.8071 73.5895C95.2766 73.2294 93.8348 72.5091 92.524 71.4493C90.984 70.2012 90.1929 68.9313 90.1601 68.8781L89.9814 68.5875L90.1124 68.2724C90.1847 68.0992 91.9211 64.018 96.5902 62.8327C97.3363 62.6403 98.1261 62.5353 98.9336 62.5217H98.9568C99.0509 62.5189 99.1437 62.5176 99.2351 62.5176C106.039 62.5176 108.111 67.394 108.197 67.6041L108.298 67.851L108.201 68.0992C108.152 68.2247 106.961 71.1942 103.712 72.827C102.408 73.4844 100.946 73.8323 99.3647 73.8609C99.2978 73.8609 99.231 73.8623 99.1641 73.8623L99.1628 73.8636ZM91.501 68.4702C91.8011 68.8781 92.4272 69.6528 93.3643 70.4113C94.5169 71.3429 95.78 71.9758 97.1181 72.2909C97.1931 72.3086 97.264 72.325 97.3377 72.34C97.9883 72.4764 98.6635 72.5391 99.3374 72.5255C100.716 72.501 101.985 72.2022 103.109 71.6348C105.376 70.4958 106.499 68.5534 106.84 67.8632C106.358 66.948 104.349 63.853 99.2296 63.853C99.1505 63.853 99.07 63.853 98.9895 63.8557H98.965C98.2584 63.868 97.5696 63.9594 96.9189 64.1271C93.6166 64.966 91.9798 67.5631 91.4996 68.4689L91.501 68.4702Z" fill="#191919"/>
<path d="M71.9499 74.676C71.156 74.676 70.384 74.5901 69.6488 74.4169C69.1945 74.3105 68.7499 74.1713 68.3243 74.0022C64.9456 72.6641 63.4956 69.8119 63.4356 69.6905L63.3169 69.4518L63.396 69.1967C63.4642 68.9757 65.1433 63.7938 72.1654 63.315H72.1804C72.9824 63.2577 73.775 63.2918 74.5375 63.4186C79.2898 64.1852 81.3808 68.0973 81.4681 68.2637L81.6263 68.5665L81.4736 68.8721C81.4449 68.928 80.7711 70.2634 79.347 71.6424C78.0717 72.8769 76.6163 73.7485 75.0231 74.2327C74.2878 74.4564 73.5212 74.5969 72.7478 74.6501C72.4805 74.6692 72.2145 74.6788 71.9526 74.6788L71.9499 74.676ZM64.7682 69.3345C65.1693 69.9906 66.4583 71.8266 68.8167 72.7596C69.1809 72.9041 69.5628 73.0242 69.9516 73.1156C70.8 73.3147 71.7084 73.3816 72.651 73.3147C73.3262 73.2684 73.9918 73.1456 74.6316 72.9519C76.0202 72.5304 77.2928 71.7652 78.4154 70.6794C79.287 69.8351 79.8408 69.0126 80.1 68.5829C79.5435 67.7249 77.6843 65.2806 74.3192 64.7363C73.6563 64.6272 72.9647 64.5972 72.2623 64.6476H72.2404C66.9521 65.0105 65.1733 68.3619 64.7669 69.3358L64.7682 69.3345Z" fill="#191919"/>
<path d="M90.73 68.5283C90.73 68.5283 91.4761 69.7409 92.9452 70.9304C93.9505 71.7433 95.2927 72.5467 96.9664 72.9409C99.112 71.8306 100.533 69.5445 100.42 66.9719C100.356 65.5315 99.8213 64.2234 98.9701 63.1895H98.9551C98.1531 63.2045 97.4219 63.3095 96.7549 63.4813C92.3573 64.5985 90.73 68.5283 90.73 68.5283Z" fill="#191919"/>
<path d="M97.0387 73.5379L96.8355 73.4901C95.316 73.1327 93.8864 72.418 92.5892 71.369C91.0629 70.1332 90.2813 68.8769 90.2486 68.8237L90.0972 68.5782L90.2076 68.3122C90.2786 68.1417 91.9959 64.1069 96.6145 62.9338C97.3538 62.7429 98.1354 62.6392 98.9361 62.6256L99.2253 62.6133L99.404 62.8302C100.368 64.0019 100.914 65.4246 100.982 66.9455C101.102 69.6476 99.6277 72.197 97.2243 73.441L97.0387 73.5365V73.5379ZM91.378 68.48C91.6644 68.8769 92.311 69.694 93.2986 70.4933C94.4048 71.3868 95.612 72.0088 96.8887 72.3416C98.7929 71.2667 99.9523 69.192 99.8555 66.9959C99.8036 65.8133 99.4053 64.7003 98.7015 63.7618C98.0781 63.7891 97.4711 63.8791 96.8942 64.0278C93.48 64.8953 91.8268 67.6166 91.378 68.48Z" fill="#191919"/>
<path d="M64.0347 69.3953C64.0347 69.3953 65.3905 72.1234 68.5728 73.3837C68.9547 73.5365 69.3653 73.6661 69.8018 73.7684C72.1234 72.7249 73.692 70.3433 73.572 67.6452C73.5106 66.2594 73.0127 64.9963 72.2175 63.9814H72.2107C65.5651 64.4357 64.0347 69.3939 64.0347 69.3939V69.3953Z" fill="#191919"/>
<path d="M69.8593 74.3598L69.6737 74.3162C69.225 74.2112 68.7844 74.0734 68.3643 73.9056C65.021 72.5811 63.5902 69.7644 63.5301 69.6444L63.4292 69.4425L63.496 69.227C63.5629 69.0101 65.2202 63.8936 72.1727 63.4175H72.189L72.4768 63.4053L72.661 63.6317C73.5599 64.7802 74.07 66.1593 74.1341 67.6174C74.261 70.4873 72.6514 73.1022 70.0325 74.2794L69.8593 74.3571V74.3598ZM64.6527 69.3443C65.0278 69.9704 66.3373 71.8909 68.7789 72.858C69.0899 72.9822 69.4118 73.0872 69.7419 73.1718C71.8357 72.1501 73.1111 70.0099 73.0075 67.6693C72.957 66.5453 72.5928 65.48 71.9503 64.5674C66.7343 65.0408 65.021 68.4345 64.6527 69.3443Z" fill="#191919"/>
<path d="M150.25 205.841L134.956 131.978C133.243 127.068 128.62 123.768 123.419 123.745L62.3512 121.467C62.3321 121.467 62.3143 121.467 62.2966 121.467C56.7968 121.467 51.9654 125.126 50.4772 130.426L29.2897 205.905C28.2557 209.59 28.9991 213.546 31.3003 216.604C33.6014 219.662 37.1983 221.472 41.0258 221.498L138.575 222.16C138.603 222.16 138.631 222.16 138.658 222.16C142.618 222.16 146.336 220.249 148.643 217.026C150.964 213.779 151.565 209.608 150.25 205.839V205.841Z" fill="url(#paint1_linear_2220_5272)"/>
<path d="M108.312 37.0581H71.0634C70.6937 37.0581 70.395 36.7594 70.395 36.3897C70.395 36.0201 70.6937 35.7213 71.0634 35.7213H106.976V30.1001C106.976 22.437 100.741 16.202 93.0776 16.202H85.6299C77.9668 16.202 71.7318 22.437 71.7318 30.1001V31.1777C71.7318 31.5474 71.4331 31.8461 71.0634 31.8461C70.6937 31.8461 70.395 31.5474 70.395 31.1777V30.1001C70.395 21.7004 77.2288 14.8652 85.6299 14.8652H93.0776C101.477 14.8652 108.312 21.6991 108.312 30.1001V37.0581Z" fill="#191919"/>
<path d="M90.4316 32.1214C90.0619 32.1214 89.7632 31.8227 89.7632 31.4531V27.3691C89.7632 22.9387 93.367 19.335 97.7974 19.335H101.025C101.394 19.335 101.693 19.6337 101.693 20.0033C101.693 20.373 101.394 20.6717 101.025 20.6717H97.7974C94.1035 20.6717 91.0999 23.6767 91.0999 27.3691V31.4531C91.0999 31.8227 90.8012 32.1214 90.4316 32.1214Z" fill="#191919"/>
<path d="M98.4259 37.0585H61.9106L61.9625 36.3424C62.2394 32.4972 70.0662 29.5986 80.1683 29.5986C90.2703 29.5986 98.0971 32.4986 98.374 36.3424L98.4259 37.0585ZM63.5038 35.7232H96.8327C95.6037 33.2938 89.1422 30.9354 80.1683 30.9354C71.1943 30.9354 64.7328 33.2952 63.5038 35.7232Z" fill="#191919"/>
<path d="M79.8368 29.6096C77.4607 29.6096 75.5278 27.7136 75.5278 25.3824C75.5278 23.0513 77.4607 21.1553 79.8368 21.1553C82.213 21.1553 84.1458 23.0513 84.1458 25.3824C84.1458 27.7136 82.213 29.6096 79.8368 29.6096ZM79.8368 22.492C78.1972 22.492 76.8632 23.7892 76.8632 25.3824C76.8632 26.9756 78.1972 28.2728 79.8368 28.2728C81.4764 28.2728 82.8104 26.9756 82.8104 25.3824C82.8104 23.7892 81.4764 22.492 79.8368 22.492Z" fill="#191919"/>
<path d="M122.046 202.828H78.016C77.6464 202.828 77.3477 202.529 77.3477 202.159V129.66C77.3477 129.29 77.6464 128.991 78.016 128.991H122.046C122.415 128.991 122.714 129.29 122.714 129.66V202.159C122.714 202.529 122.415 202.828 122.046 202.828ZM78.6844 201.492H121.377V130.329H78.6844V201.492Z" fill="white"/>
<path d="M82.3196 202.828H78.016C77.6464 202.828 77.3477 202.529 77.3477 202.159V129.66C77.3477 129.29 77.6464 128.991 78.016 128.991H82.3196C82.6892 128.991 82.988 129.29 82.988 129.66V202.159C82.988 202.529 82.6892 202.828 82.3196 202.828ZM78.6844 201.492H81.6526V130.329H78.6844V201.492Z" fill="white"/>
<path d="M78.016 144.343C77.9014 144.343 77.7855 144.313 77.6832 144.255L76.0668 143.324C75.4039 142.944 74.9756 142.084 74.9756 141.138V137.053C74.9756 136.105 75.4039 135.247 76.0668 134.866L77.6832 133.936C77.8892 133.817 78.1443 133.817 78.3502 133.936C78.5562 134.056 78.6844 134.275 78.6844 134.514V143.674C78.6844 143.912 78.5576 144.132 78.3502 144.252C78.2466 144.312 78.1306 144.342 78.016 144.342V144.343ZM77.3476 135.671L76.7325 136.025C76.5238 136.145 76.3123 136.537 76.3123 137.054V141.139C76.3123 141.656 76.5238 142.048 76.7325 142.168L77.3476 142.522V135.673V135.671Z" fill="white"/>
<path d="M133.963 204.808L74.0439 178.324L83.644 147.206L134.625 167.068L133.963 204.808Z" fill="url(#paint2_linear_2220_5272)"/>
<path d="M83.6442 147.206C83.6442 147.206 73.9336 145.66 67.5335 149.192C63.7265 151.292 58.7055 161.771 58.9265 167.73C59.1475 173.69 62.6694 180.162 65.9894 180.531C71.9489 181.192 74.0454 178.324 74.0454 178.324L83.6455 147.206H83.6442Z" fill="url(#paint3_linear_2220_5272)"/>
<path d="M76.3615 171.875C76.2974 171.875 76.2319 171.866 76.1678 171.846C75.8145 171.739 75.6154 171.366 75.7231 171.013L83.2144 146.328L125.484 162.361C125.83 162.492 126.003 162.878 125.872 163.223C125.741 163.568 125.355 163.741 125.01 163.61L84.0765 148.084L77.0012 171.4C76.9139 171.688 76.6493 171.875 76.3628 171.875H76.3615Z" fill="#191919"/>
<path d="M54.7331 167.958C54.7331 167.958 54.7195 167.958 54.7127 167.958C54.3444 167.947 54.0538 167.64 54.0648 167.27L55.1683 129.31C55.1792 128.942 55.4915 128.649 55.8557 128.663C56.224 128.673 56.5146 128.98 56.5036 129.35L55.4001 167.31C55.3892 167.673 55.0932 167.958 54.7331 167.958Z" fill="#191919"/>
</g>
<defs>
<radialGradient id="paint0_radial_2220_5272" cx="0" cy="0" r="1" gradientUnits="userSpaceOnUse" gradientTransform="translate(82.6524 52.6372) scale(62.9516)">
<stop stop-color="#E5ED53"/>
<stop offset="1" stop-color="#FFC895"/>
</radialGradient>
<linearGradient id="paint1_linear_2220_5272" x1="87.7577" y1="123.068" x2="90.4053" y2="230.768" gradientUnits="userSpaceOnUse">
<stop stop-color="#FFC895"/>
<stop offset="1" stop-color="#B5EADD"/>
</linearGradient>
<linearGradient id="paint2_linear_2220_5272" x1="103.105" y1="122.69" x2="105.754" y2="230.392" gradientUnits="userSpaceOnUse">
<stop stop-color="#FFC895"/>
<stop offset="1" stop-color="#B5EADD"/>
</linearGradient>
<linearGradient id="paint3_linear_2220_5272" x1="62.1211" y1="184.053" x2="72.0526" y2="155.251" gradientUnits="userSpaceOnUse">
<stop stop-color="#FFC895"/>
<stop offset="1" stop-color="#E5ED53"/>
</linearGradient>
</defs>
</svg>
