<svg width="178" height="177" viewBox="0 0 178 177" fill="none" xmlns="http://www.w3.org/2000/svg">
<mask id="mask0_2284_1345" style="mask-type:luminance" maskUnits="userSpaceOnUse" x="0" y="0" width="178" height="177">
<path d="M89 177C137.877 177 177.5 137.377 177.5 88.5C177.5 39.6228 137.877 0 89 0C40.1228 0 0.5 39.6228 0.5 88.5C0.5 137.377 40.1228 177 89 177Z" fill="white"/>
</mask>
<g mask="url(#mask0_2284_1345)">
<path d="M216.121 -25.8224H-31.5015V225.773H216.121V-25.8224Z" fill="white"/>
<path d="M153.531 115.673C153.648 115.619 153.761 115.557 153.877 115.498C153.771 115.531 153.656 115.597 153.531 115.673Z" fill="#F6A473"/>
<path d="M134.475 94.1537C134.484 94.4401 134.536 94.5615 134.584 94.5752C134.552 94.3092 134.521 94.0896 134.475 94.1537Z" fill="#F6A473"/>
<path d="M135.459 87.7824C135.428 87.9174 135.409 88.032 135.384 88.1548C135.448 88.0156 135.489 87.8751 135.459 87.7824Z" fill="#F6A473"/>
<path d="M153.531 115.673C153.38 115.742 153.231 115.815 153.081 115.88L152.628 116.071C152.663 116.257 153.119 115.918 153.531 115.673Z" fill="#F6A473"/>
<path d="M163.622 102.741L163.777 102.476C163.772 102.369 163.75 102.257 163.718 102.146L163.622 102.741Z" fill="#F6A473"/>
<path d="M169.435 91.3043C169.295 91.5607 169.666 91.8431 169.799 92.0272C169.698 91.7995 169.706 91.5662 169.781 91.3193C169.705 91.2784 169.594 91.2702 169.433 91.3043H169.435Z" fill="#F6A473"/>
<path d="M158.409 110.183C158.344 110.157 158.269 110.154 158.211 110.169C158.255 110.205 158.326 110.205 158.409 110.183Z" fill="#F6A473"/>
<path d="M5.61303 72.7819C5.60075 72.7506 5.57621 72.7437 5.56121 72.7192C5.53529 72.7997 5.53801 72.8392 5.61303 72.7819Z" fill="#F6A473"/>
<path d="M138.037 76.3424C138.027 76.3629 138.025 76.3711 138.017 76.3915C137.996 76.7025 138.027 76.532 138.037 76.3424Z" fill="#F6A473"/>
<path d="M111.001 121.015C112.277 120.797 109.481 122.415 111.328 121.944C111.209 121.906 111.499 121.553 111.63 121.269C111.758 120.98 111.736 120.775 111.001 121.017V121.015Z" fill="#F6A473"/>
<path d="M111.329 121.943V121.946L111.52 121.894C111.441 121.914 111.395 121.925 111.329 121.943Z" fill="#F6A473"/>
<path d="M148.251 56.688C148.301 56.6171 148.321 56.5475 148.331 56.4711C148.301 56.5107 148.284 56.5748 148.251 56.688Z" fill="#F6A473"/>
<path d="M139.014 69.4539C139.084 69.3012 139.153 69.1484 139.227 68.997C139.123 69.1716 139.062 69.3203 139.014 69.4539Z" fill="#F6A473"/>
<path d="M148.834 65.472C148.754 65.7339 148.676 65.813 148.673 66.1881C148.702 66.1581 148.724 66.1281 148.747 66.0872C148.709 65.9439 148.712 65.7653 148.834 65.472Z" fill="#F6A473"/>
<path d="M146.357 76.1489C146.406 76.1025 146.452 76.0343 146.5 75.977C146.522 75.8693 146.548 75.7438 146.57 75.6333L146.357 76.1475V76.1489Z" fill="#F6A473"/>
<path d="M34.3967 65.1124C34.2999 64.9009 34.2604 64.7182 34.244 64.5449C34.2276 64.7182 33.9057 64.6732 33.7775 64.6786C33.712 64.6827 33.6929 64.695 33.7789 64.7536C33.8648 64.8123 34.0599 64.9105 34.3981 65.1124H34.3967Z" fill="#F6A473"/>
<path d="M152.295 66.5239C152.17 67.1199 152.035 67.7119 151.894 68.2998C152.037 67.8115 152.185 67.1663 152.295 66.5239Z" fill="#F6A473"/>
<path d="M39.1575 134.354C39.0198 134.311 38.882 134.271 38.7456 134.225C38.8902 134.307 39.0348 134.354 39.1575 134.354Z" fill="#F6A473"/>
<path d="M150.768 73.5325C150.533 73.8039 150.357 74.1081 150.211 74.4314C150.228 74.5119 150.235 74.6019 150.273 74.6619L150.768 73.5325Z" fill="#F6A473"/>
<path d="M34.2441 64.539V64.5445C34.2441 64.5445 34.2455 64.5418 34.2441 64.539Z" fill="#F6A473"/>
<path d="M24.0601 64.5871C24.8185 64.4684 24.978 64.3075 24.9821 64.1138C24.9862 63.9214 24.8307 63.7032 24.9753 63.5122C25.9029 63.3104 26.132 63.4167 26.2057 63.5777C26.2793 63.7427 26.2098 63.9746 26.529 64.1069C27.0882 63.9869 27.5806 63.8 28.0471 63.6473C28.5136 63.4918 28.9529 63.3854 29.3771 63.4263C29.433 63.53 29.5912 63.5804 29.3907 63.6868C29.9991 63.4972 30.8898 63.5982 31.7477 63.7987C32.618 63.9896 33.4364 64.2802 34.1607 64.332C34.2235 64.4248 34.2426 64.4916 34.2426 64.5434C34.2003 64.182 34.3026 63.8914 34.4472 63.7237C34.7609 63.8792 35.0856 63.9719 35.3393 64.0878C35.4688 64.141 35.5698 64.212 35.6448 64.2884C35.7199 64.3661 35.7594 64.4589 35.7485 64.5775C35.5862 64.4398 35.4648 64.407 35.3666 64.3989C35.267 64.3907 35.1783 64.4166 35.0637 64.4152C35.1797 64.4548 35.2915 64.5012 35.4034 64.5489L35.5739 64.6198L35.7403 64.6989C35.8126 65.1177 35.593 64.999 35.3297 64.834C35.0624 64.6689 34.7227 64.4725 34.6164 64.6498C35.2179 64.9199 35.8849 65.235 36.4387 65.6701C36.721 65.8802 36.9652 66.123 37.1739 66.3685C37.3744 66.6195 37.5327 66.8773 37.6227 67.1297C37.4331 67.352 37.1071 66.8487 36.8138 66.5131C36.7388 66.4299 36.6719 66.3535 36.6147 66.2962C36.5546 66.2417 36.5055 66.2062 36.4728 66.2021C36.4414 66.198 36.4264 66.2239 36.4332 66.2921C36.4414 66.359 36.4673 66.4708 36.5123 66.6359C36.2764 66.1967 35.9885 65.7779 35.6502 65.3864C35.728 65.7397 35.7007 65.8761 35.6598 65.9007C35.6134 65.9266 35.5425 65.8406 35.4552 65.7629C35.3706 65.6838 35.2847 65.6019 35.2274 65.6306C35.1701 65.6565 35.151 65.7929 35.1728 66.123C35.4729 66.4517 35.6871 66.7123 35.8821 66.9332C35.9749 67.0464 36.069 67.146 36.1509 67.2483C36.1945 67.2974 36.2354 67.3465 36.2777 67.3943C36.3173 67.4447 36.3569 67.4939 36.3951 67.5443C36.7033 67.944 37.0143 68.3859 37.2012 69.3367C37.403 69.5085 37.5026 69.4499 37.6036 69.3844C37.7045 69.3203 37.8041 69.2507 38.0087 69.4444C38.3156 70.1442 38.351 70.7007 38.2978 71.1099C38.2392 71.5246 38.0769 71.8097 37.9241 72.0593C37.845 72.1848 37.7631 72.3034 37.6963 72.4262C37.6294 72.549 37.5708 72.6772 37.5285 72.8245C37.448 73.1205 37.4481 73.4888 37.5695 74.0712C37.725 74.3822 37.9555 74.6223 38.0823 74.9892C38.2024 75.3548 38.2092 75.8554 37.8518 76.6506C37.6936 76.4174 37.5244 76.1896 37.358 75.9659C37.1179 77.0189 37.2421 77.3722 37.339 77.7378C37.4249 78.0992 37.4767 78.4771 36.9297 79.5369C36.8806 79.3023 36.9502 78.8672 37.0211 78.5303C37.0825 78.192 37.1384 77.9519 37.0593 78.1033C36.1781 79.4073 37.1071 79.2232 36.7429 80.3417L36.1427 80.3922C35.458 82.6524 34.7568 85.2522 33.6288 87.7075C33.551 87.5002 33.6042 87.0146 33.1705 87.4974C32.5321 89.0674 31.6454 90.6538 30.662 92.1611C30.4165 92.5389 30.1614 92.9099 29.9077 93.2768C29.6513 93.6438 29.3894 94.0025 29.1316 94.3585C28.8697 94.7118 28.6064 95.0583 28.3472 95.3993L28.2503 95.5275L28.148 95.6666C28.0798 95.7594 28.0116 95.8508 27.9434 95.9422C27.8098 96.1263 27.6693 96.305 27.5424 96.4892C27.4537 96.9638 27.3638 97.4303 27.2969 97.9037C27.1455 98.1765 26.8331 98.3183 26.9109 97.9746C26.5085 98.5475 26.5781 98.6034 26.7145 98.5911C26.855 98.5802 27.0746 98.5134 27.0118 98.8489C26.8536 99.2036 26.679 99.4055 26.5589 99.4587C26.4362 99.5105 26.3598 99.4068 26.3994 99.149C26.0488 100.338 25.5905 102.019 25.1854 103.71C24.7721 105.403 24.4338 107.11 24.0218 108.356L23.9509 107.839C23.8936 108.086 23.8554 108.307 23.8445 108.512C23.835 108.716 23.8445 108.902 23.865 109.072C23.9004 109.415 24.0014 109.703 24.0873 109.979C24.1705 110.258 24.2605 110.528 24.2946 110.842C24.3233 111.155 24.3151 111.513 24.206 111.974L24.1214 111.62C24.0682 112.701 24.1269 113.817 24.2769 114.92C24.4242 116.024 24.6698 117.112 24.9617 118.153C25.2549 119.194 25.5987 120.187 25.9356 121.12C26.2684 122.057 26.619 122.923 26.8904 123.745C27.3515 123.846 27.8384 124.813 28.4372 125.669C29.0238 126.529 29.6839 127.289 30.1286 127.071C30.2923 127.335 30.4287 127.563 30.5433 127.762C30.662 127.96 30.7615 128.127 30.8502 128.275C30.9375 128.427 31.0139 128.56 31.0876 128.687C31.1626 128.813 31.2376 128.93 31.3181 129.054C31.4804 129.301 31.6673 129.571 31.9824 129.924C32.1393 130.102 32.3193 130.312 32.5539 130.538C32.7872 130.766 33.0532 131.039 33.3914 131.329C33.5756 131.479 33.7624 131.576 33.9506 131.646C34.143 131.711 34.3394 131.748 34.5413 131.786C34.7445 131.822 34.9519 131.863 35.1769 131.919C35.402 131.973 35.638 132.054 35.8931 132.185L35.6557 132.625C35.9217 132.695 36.1959 132.742 36.4633 132.8C36.732 132.854 36.9966 132.912 37.2666 132.954C37.4126 133.258 37.5627 133.564 37.7168 133.872L38.7426 134.235C38.3688 134.018 38.0237 133.63 38.1478 133.532C38.5475 133.663 38.9594 133.871 39.3686 134.077C39.5719 134.183 39.771 134.296 39.9633 134.412C40.157 134.524 40.3439 134.634 40.5171 134.748C40.6904 134.859 40.8514 134.97 40.9959 135.074C41.1405 135.173 41.2688 135.269 41.3738 135.355C41.5839 135.526 41.7038 135.66 41.6916 135.724C42.986 136.048 44.2832 136.308 45.5791 136.506C45.444 136.675 44.7906 136.571 44.2519 136.548C45.3363 136.59 45.3908 136.738 45.4277 136.891C45.4631 137.043 45.4795 137.196 46.4739 137.2C46.2502 137.028 46.6785 136.945 46.7439 136.856C46.9581 136.99 47.2541 137.105 47.6006 137.225C47.7738 137.283 47.9607 137.341 48.1557 137.395C48.3522 137.446 48.5568 137.493 48.7682 137.54C48.9796 137.585 49.1965 137.628 49.4161 137.669C49.6357 137.709 49.858 137.738 50.0776 137.768C50.5182 137.826 50.952 137.874 51.3544 137.892L51.0011 138.19C52.4361 138.444 53.9652 138.557 55.5325 138.616C57.1011 138.679 58.7066 138.654 60.3175 138.66C59.7392 138.586 59.5195 138.387 59.5604 138.212C59.6027 138.038 59.9028 137.879 60.3707 137.845L60.7485 138.371C61.3514 138.042 59.7691 138.177 61.0063 137.772C61.601 137.802 61.8056 137.938 61.7742 138.105C61.7442 138.268 61.4769 138.456 61.1318 138.542C61.6174 138.481 62.1044 138.399 62.5886 138.33C62.68 138.485 62.339 138.576 62.2558 138.78C62.5532 138.612 63.186 138.717 63.8571 138.791C64.5255 138.856 65.2321 138.892 65.6427 138.572L65.7354 138.722C66.5388 138.669 67.2277 138.593 67.8538 138.522C68.4772 138.44 69.0378 138.365 69.5752 138.276C70.6501 138.1 71.6513 137.935 72.9376 137.725C72.9294 137.496 73.1817 137.373 73.5213 137.241C73.861 137.109 74.2921 136.974 74.6426 136.732C76.5373 136.57 78.6828 136.536 80.9185 136.007C82.4421 135.435 81.2936 135.528 81.9402 135.108C82.1462 135.488 84.3641 134.924 83.2783 135.486C84.6083 135.134 85.4539 134.894 86.3774 134.595C87.2995 134.295 88.2993 133.931 89.9157 133.281C89.5065 133.225 89.0796 133.269 89.2514 133.074C89.8353 132.839 90.6687 132.831 90.6414 133.049L90.4954 133.138C92.2686 132.281 94.488 131.878 96.609 131.41C98.726 130.945 100.746 130.425 102.021 129.431L101.876 129.536C102.348 129.267 102.814 128.987 103.279 128.71C103.746 128.435 104.208 128.153 104.669 127.867C106.055 127.338 103.979 128.51 105.088 128.304C105.453 128.052 105.803 127.824 106.142 127.618C106.482 127.412 106.813 127.233 107.135 127.067C107.775 126.727 108.392 126.468 108.985 126.202C109.58 125.939 110.162 125.695 110.736 125.394C111.024 125.246 111.312 125.089 111.601 124.914C111.888 124.736 112.175 124.539 112.465 124.321C113.734 124.341 115.468 123.363 117.21 122.222C118.957 121.085 120.701 119.784 122.17 119.247L121.863 119.109C122.343 118.431 122.73 118.702 123.242 118.424C123.044 118.289 122.399 118.701 122.704 118.295C124.002 117.269 125.336 116.255 126.671 115.209C128.006 114.164 129.361 113.11 130.684 111.997C132.009 110.887 133.322 109.742 134.576 108.53C135.828 107.317 137.03 106.047 138.144 104.717C138.938 103.724 138.857 103.218 138.864 102.685C138.875 102.15 139.001 101.622 140.149 100.489L140.099 101.535C141.248 99.2336 142.542 96.9857 143.652 94.6354C144.195 93.4569 144.719 92.2688 145.129 91.0507C145.233 90.7479 145.335 90.4424 145.432 90.1396C145.521 89.8449 145.607 89.5503 145.688 89.2557C145.853 88.6664 145.998 88.0758 146.125 87.4838C146.151 87.7948 146.299 87.8534 146.149 88.2981C146.848 87.4606 147.347 84.7284 147.048 84.6166C147.312 83.9141 147.374 84.5388 147.669 84.1474C148.2 83.2416 147.965 81.5516 148.49 81.1451C148.577 81.0756 148.527 81.4575 148.501 81.6444C148.52 80.9542 149.441 78.6789 148.828 79.1645C149.544 77.4827 149.588 75.7749 150.212 74.4409C150.089 73.9198 150.34 73.1819 150.542 72.5121C150.739 71.841 150.892 71.2395 150.578 71.0131C150.921 71.1604 151.247 70.4143 151.464 69.4717C151.682 68.5305 151.773 67.3943 151.708 66.7914C151.858 67.217 152.108 65.8297 152.331 66.3331C152.554 65.0099 152.566 63.7537 152.163 63.9419C152.76 62.7675 152.693 61.4648 152.573 60.3108C152.513 59.7311 152.436 59.1842 152.434 58.6795C152.424 58.1707 152.489 57.7083 152.701 57.2568C152.63 56.969 152.551 56.6798 152.451 56.3838C152.353 56.0864 152.247 55.8041 152.08 55.4412C152.06 55.3976 152.043 55.358 152.02 55.3116L151.948 55.1725C151.9 55.0798 151.85 54.9884 151.799 54.8983C151.692 54.7224 151.582 54.5478 151.461 54.3868C151.22 54.0608 150.937 53.7757 150.63 53.5316C150.318 53.2942 149.977 53.1019 149.617 52.9641C149.254 52.8318 148.876 52.7595 148.498 52.735C148.119 52.7145 147.741 52.7473 147.372 52.8196C147.187 52.8591 147.005 52.9041 146.827 52.9601L146.563 53.0501C146.52 53.0651 146.473 53.0815 146.435 53.0978L146.323 53.1456L146.1 53.2424C146.025 53.2751 145.969 53.3079 145.903 53.3406L145.712 53.4388L145.531 53.5411C145.41 53.6093 145.294 53.6789 145.182 53.7512C145.069 53.8221 144.957 53.8944 144.852 53.9694C144.425 54.2654 144.032 54.5737 143.668 54.8902C143.574 54.9679 143.488 55.0498 143.398 55.1289L143.265 55.2489C143.218 55.2912 143.165 55.3444 143.116 55.3921L142.818 55.6881L142.561 55.9855L142.434 56.1342C142.393 56.1833 142.357 56.2337 142.319 56.2828L142.094 56.5802C141.947 56.7794 141.82 56.9785 141.684 57.1777C141.443 56.9144 141.986 56.0223 142.902 55.1821C142.958 55.1302 143.014 55.0798 143.069 55.0279C143.117 54.987 143.166 54.9461 143.214 54.9065C143.31 54.8261 143.402 54.7469 143.492 54.6706C143.674 54.5178 143.839 54.3718 143.978 54.2409C144.251 53.9776 144.405 53.7635 144.262 53.6243C143.863 53.9231 143.531 54.2245 143.222 54.5178C143.147 54.5914 143.074 54.6651 143.001 54.7388L142.892 54.8492L142.764 54.9856C142.681 55.077 142.599 55.1684 142.517 55.2584C142.434 55.3485 142.377 55.4358 142.307 55.5244C142.241 55.6117 142.176 55.699 142.11 55.7863C142.045 55.8736 141.996 55.9582 141.94 56.0428C141.834 56.2119 141.718 56.3797 141.629 56.5434C141.536 56.7071 141.445 56.8707 141.355 57.0317C141.273 57.1927 141.191 57.3522 141.109 57.5118C140.793 58.1488 140.502 58.7736 140.195 59.427C139.88 60.0776 139.556 60.7582 139.156 61.5003C138.931 61.8754 138.909 61.7308 138.946 61.4498C138.984 61.1702 139.092 60.7555 139.099 60.5932C138.486 62.2041 137.844 63.7018 137.283 65.1818C136.723 66.6591 136.24 68.1131 135.989 69.5917C135.925 69.5631 135.949 69.2344 135.99 68.9288C135.829 69.4935 135.485 70.2028 135.82 70.2342L135.9 69.6627C136.267 69.2876 136.337 69.9191 136.345 70.657C136.358 71.3977 136.316 72.2489 136.428 72.3335C136.101 71.7319 135.851 72.4139 135.588 73.0236C135.333 73.632 135.065 74.1708 134.685 73.2555C134.648 73.6457 134.677 74.1517 134.914 74.1203C134.713 74.6564 134.544 74.8024 134.439 74.1776C134.356 74.6973 134.327 75.0479 134.323 75.3084C134.322 75.5703 134.344 75.7422 134.361 75.9072C134.398 76.2373 134.412 76.5347 134.207 77.4581C134.052 77.4172 134.074 77.0312 133.932 76.7979C133.982 77.3026 134.026 77.8032 134.014 78.372C134.007 78.6571 133.981 78.9572 133.93 79.2832C133.883 79.6092 133.809 79.9611 133.7 80.3472C133.624 80.2353 133.464 80.3935 133.557 79.9257C133.322 81.2802 133.332 82.471 133.318 83.6822C133.299 84.8935 133.262 86.1266 132.952 87.6025C132.351 86.6463 132.614 88.5955 132.007 88.7032C132.021 89.2516 132.032 89.7972 132.059 90.3442L132.396 89.714C132.28 91.1367 132.659 92.4093 132.43 93.622L132.214 92.5566C132.221 93.0027 132.221 93.4474 132.234 93.8934C132.25 94.3394 132.257 94.7841 132.28 95.2302C132.352 94.7255 132.442 94.2235 132.521 93.7229C132.669 94.4445 132.86 94.4063 132.991 94.4254C133.056 94.4349 133.107 94.4581 133.128 94.5972C133.15 94.735 133.142 94.9874 133.107 95.4552C133.074 95.2656 133.075 95.6175 133.041 96.1086C133.011 96.601 132.959 97.2339 132.794 97.6118C132.794 97.6118 132.794 97.6063 132.793 97.6077C132.907 97.9541 133.026 98.302 133.104 98.6962C133.187 99.089 133.236 99.5255 133.205 100.053C133.04 100.344 132.519 99.8965 132.407 100.085C132.699 100.411 132.806 101.239 132.97 102.086C133.126 102.933 133.323 103.8 133.678 104.178C133.497 103.915 133.183 103.957 133.138 104.066L133.655 104.562C133.663 105.235 133.633 105.346 133.359 105.297C133.55 106.29 133.709 106.082 133.831 105.936C133.96 105.789 134.06 105.694 134.214 106.878C134.134 106.707 134.097 106.811 133.936 106.452C134.042 107.041 134.224 107.605 134.412 108.156C134.517 108.427 134.626 108.696 134.737 108.962C134.79 109.096 134.85 109.227 134.913 109.355C134.974 109.484 135.037 109.613 135.098 109.742C135.601 110.767 136.14 111.735 136.66 112.725C136.577 113.171 136.289 112.773 136.013 112.371C135.979 112.32 135.945 112.271 135.912 112.222C135.881 112.173 135.851 112.125 135.822 112.08C135.764 111.991 135.71 111.915 135.663 111.867C135.567 111.77 135.496 111.783 135.476 112.015C135.675 112.376 135.925 112.718 136.165 113.065C136.282 113.24 136.42 113.403 136.553 113.57C136.688 113.733 136.824 113.898 136.96 114.063L137.4 114.533C137.549 114.687 137.691 114.846 137.853 114.988C138.17 115.279 138.478 115.575 138.819 115.835C138.987 115.968 139.148 116.105 139.318 116.234C139.492 116.356 139.665 116.479 139.837 116.602L140.093 116.786L140.359 116.954C140.535 117.066 140.711 117.177 140.886 117.289C141.059 117.403 141.246 117.494 141.422 117.598C141.602 117.697 141.774 117.806 141.954 117.899C142.135 117.99 142.314 118.082 142.491 118.176C142.58 118.224 142.667 118.271 142.756 118.318C142.843 118.367 142.934 118.404 143.023 118.447C142.937 118.397 142.85 118.355 142.767 118.299L142.518 118.135C142.9 117.861 143.365 118.179 143.983 118.593C144.14 118.689 144.307 118.791 144.48 118.892C144.654 118.992 144.832 119.095 145.035 119.17C145.429 119.335 145.867 119.416 146.289 119.375C145.885 119.378 145.677 119.762 145.807 119.686C146.941 119.955 148.183 119.903 149.446 119.541C150.712 119.179 151.989 118.51 153.301 117.561C153.225 117.692 153.148 117.827 153.065 117.956C153.671 117.727 154.396 117.291 155.081 116.793C155.769 116.295 156.415 115.74 156.946 115.316C157.018 115.097 157.197 114.863 157.29 114.694C157.38 114.523 157.381 114.419 157.105 114.467C158.057 113.976 158.834 113.308 159.486 112.568C160.139 111.829 160.67 111.017 161.161 110.207C162.144 108.581 162.965 106.968 164.365 105.725C164.14 106.091 163.975 106.695 164.162 106.407C164.658 105.507 165.134 104.6 165.594 103.686C165.148 103.704 165.197 103.918 164.616 104.315C164.628 103.87 164.916 103.047 165.291 102.398C164.819 103.701 165.819 102.693 166.292 102.275C166.143 102.305 166.134 102.067 166.007 102.053C166.686 101.522 166.555 101.371 166.434 101.146C166.311 100.918 166.205 100.621 166.915 99.7765L167.034 99.9702C167.33 99.2077 167.447 98.4274 167.895 97.6772C168.446 97.5517 167.681 98.5366 167.969 98.7494C168.518 97.6431 168.342 96.2232 169.215 95.417C169.095 95.9381 168.764 96.6105 168.636 97.1302C169.633 96.2736 169.579 96.0881 170.046 95.312L169.997 95.387C170.371 94.795 170.738 94.1989 171.103 93.6015L170.753 94.0244C170.573 93.0873 170.853 92.3575 171.203 91.5841C171.552 90.8107 171.968 89.9923 172.042 88.8983C171.872 91.0194 172.279 89.3662 172.666 89.7031C173.005 89.2734 173.464 88.5928 173.5 88.8587C173.524 87.8016 174.435 87.4729 174.434 85.9697C174.605 85.9724 174.849 85.0053 175.131 85.3614C175.501 84.1324 174.763 85.5373 174.621 85.3614C174.745 84.3506 175.329 83.3439 175.921 82.2213C176.513 81.0987 177.112 79.8588 177.263 78.4061C177.829 76.0191 177.481 75.4148 177.987 73.2078C178.48 72.5762 178.32 73.9867 178.32 73.9867C178.952 72.9091 179.216 72.0211 179.422 70.8685C179.476 71.1345 179.665 70.9449 179.947 70.668C180.209 69.7745 179.605 69.8959 180.218 68.8101C180.317 69.0652 180.499 69.4103 180.522 69.8918C180.737 68.8061 180.799 67.6875 181.016 66.5663C181.37 66.3658 181.2 67.3465 181.243 67.783C181.528 66.5336 182.029 64.5639 181.73 64.0565L181.335 64.7876C181.456 64.3402 181.764 64.6744 181.736 65.0249C181.728 66.1694 181.107 66.4763 180.938 66.4858L181.091 65.6879C179.958 66.1885 180.226 68.8088 179.646 70.3297L179.227 69.4731L179.218 71.2272C178.935 71.5041 178.502 71.6091 178.668 70.8207C177.974 71.8083 178.558 71.871 177.877 72.6881C177.786 72.7727 177.772 72.7154 177.78 72.6103L177.59 73.7452C177.532 73.4888 177.08 73.763 177.405 73.1396C176.359 74.921 176.765 76.3956 176.02 76.9371L176.041 76.7638C175.265 79.4851 176.412 77.1921 176.205 79.3814L174.555 80.2735L174.916 80.7114C174.794 80.976 174.549 81.4984 174.404 81.3279C174.322 82.46 174.671 81.2351 174.738 81.9376C174.272 82.5078 173.961 83.4231 173.658 84.1965C173.354 84.9699 173.058 85.6001 172.634 85.5932C172.786 86.203 173.415 84.4665 173.081 85.9492C172.137 86.0147 172.545 87.6011 171.676 88.6228C171.432 88.0881 172.123 87.0705 171.259 88.0881C171.63 89.092 170.111 90.2992 169.792 91.3317C170.307 91.6236 169.041 93.5633 168.417 95.2684C168.353 95.1729 167.909 95.9026 167.349 96.822C166.791 97.7413 166.113 98.8489 165.62 99.5323L165.557 99.4423C165.929 100.011 164.996 101.476 164.464 102.623C164.181 102.4 164.177 102.136 164.374 101.468C164.182 101.81 163.984 102.149 163.788 102.488C163.811 102.824 163.711 103.192 163.372 103.882L163.145 103.398C162.751 104.072 162.448 104.81 162.064 105.565C161.68 106.321 161.218 107.1 160.515 107.831C160.652 107.998 161.118 107.838 161.427 107.871C161.734 107.902 161.889 108.135 161.365 109.098C161.136 109.031 160.781 108.869 161.036 108.362C160.952 108.527 160.805 109.006 160.503 109.244C160.575 108.941 160.64 108.635 160.705 108.332C160.031 108.978 160.676 108.906 160.207 109.479C159.962 109.276 159.694 109.774 159.558 109.535C159.648 109.37 160.05 109.106 160.117 108.806C159.581 109.438 158.816 110.101 158.42 110.196C158.604 110.255 158.757 110.471 158.403 110.959C157.91 111.562 157.745 111.592 157.624 111.554C157.501 111.514 157.412 111.398 157.054 111.674C157.014 111.888 156.781 112.129 156.602 112.365C156.421 112.596 156.291 112.818 156.451 112.995C156.129 113.31 155.915 113.212 155.702 113.237C155.494 113.587 154.829 114.219 154.312 114.699C153.799 115.179 153.44 115.537 153.95 115.481C154.012 115.449 154.073 115.419 154.133 115.385C154.11 115.417 154.073 115.444 154.042 115.481C153.144 116.456 151.91 117.126 150.633 117.497C149.995 117.684 149.347 117.799 148.714 117.864C148.08 117.93 147.459 117.945 146.845 117.943L146.861 117.783C146.5 117.801 146.118 117.768 145.733 117.707C145.638 117.692 145.542 117.669 145.446 117.649C145.35 117.63 145.255 117.611 145.156 117.581C144.961 117.528 144.768 117.475 144.578 117.422C144.483 117.394 144.386 117.373 144.294 117.344C144.203 117.313 144.112 117.283 144.023 117.253C143.843 117.194 143.667 117.139 143.495 117.092C143.158 116.984 142.848 116.881 142.559 116.835C142.357 116.727 142.168 116.515 142.06 116.34C141.952 116.161 141.932 116.007 142.063 115.977C141.93 115.92 141.823 115.854 141.719 115.801C141.615 115.747 141.521 115.699 141.431 115.652C141.341 115.606 141.258 115.562 141.175 115.519C141.092 115.475 141.018 115.419 140.939 115.363C140.783 115.25 140.621 115.118 140.43 114.935C140.253 114.737 140.043 114.492 139.8 114.152C140.306 114.46 140.28 114.339 140.262 114.294C140.254 114.271 140.247 114.264 140.311 114.331C140.343 114.365 140.393 114.417 140.468 114.496C140.543 114.575 140.641 114.683 140.79 114.807C140.29 114.271 140.051 113.883 139.77 113.522C139.699 113.432 139.621 113.347 139.539 113.259C139.462 113.166 139.376 113.073 139.276 112.976C139.178 112.879 139.066 112.78 138.938 112.673C138.812 112.564 138.679 112.44 138.519 112.308C138.841 112.413 138.786 112.109 138.598 111.727C138.514 111.528 138.395 111.305 138.268 111.101C138.136 110.9 138.023 110.694 137.911 110.558C137.95 110.731 137.984 110.91 138.029 111.082L138.174 111.599C138.058 111.438 137.95 111.278 137.848 111.12C137.755 110.956 137.668 110.794 137.585 110.631C137.411 110.314 137.282 109.982 137.145 109.653C137.364 109.694 137.579 109.731 137.793 109.765C137.751 109.578 137.701 109.4 137.645 109.227C137.585 109.056 137.538 108.879 137.475 108.712C137.415 108.545 137.349 108.382 137.279 108.224C137.214 108.063 137.147 107.902 137.076 107.747C137.005 107.59 136.929 107.437 136.851 107.286C136.78 107.131 136.706 106.979 136.631 106.829C136.555 106.679 136.478 106.528 136.403 106.381C136.332 106.23 136.262 106.081 136.192 105.932C135.637 104.746 135.217 103.552 135.582 102.296C135.329 101.919 135.333 102.344 135.33 102.787C135.322 103.23 135.331 103.684 135.043 103.36C135.001 102.998 135.004 102.626 135.027 102.266C135.057 101.904 135.118 101.555 135.177 101.24C135.3 100.607 135.451 100.105 135.425 99.8829C135.457 99.3864 135.42 99.0304 135.338 98.7384C135.26 98.4465 135.15 98.2201 135.033 97.9882C134.795 97.5272 134.556 97.0443 134.636 95.9954C134.447 96.2641 133.936 96.5383 133.741 94.9492C133.828 93.461 134.574 93.1527 134.711 94.0775C134.723 94.4281 134.66 94.5972 134.595 94.5809C134.653 95.0556 134.752 95.6707 134.951 95.0951L134.758 94.9055C134.809 94.7241 134.848 94.4636 134.882 94.1826C134.899 94.0421 134.914 93.8961 134.93 93.7515C134.949 93.607 134.968 93.4651 134.986 93.3328C135.061 92.8022 135.147 92.423 135.297 92.663C135.228 92.112 135.159 91.9892 135.083 92.1079C135.008 92.2265 134.932 92.5853 134.872 92.9918C134.952 92.5266 135.011 92.112 135.048 91.7205C135.082 91.3304 135.103 90.9635 135.125 90.5952C135.146 90.2269 135.162 89.8558 135.204 89.4575C135.244 89.0592 135.296 88.635 135.394 88.1603C135.258 88.455 135.004 88.7155 135.037 88.4113C135.294 87.0091 135.255 86.6913 135.144 86.4771C135.038 86.2643 134.873 86.1593 134.962 85.1922C135.401 84.1433 135.592 85.6764 135.633 83.7204C136.016 82.5801 136.17 83.5526 136.259 84.0382C136.155 82.2391 137.046 80.8396 137.304 79.8766L137.282 80.8123C137.295 80.2544 137.383 79.8097 137.478 79.361L136.995 79.8015C137.171 79.2819 137.265 78.8317 137.42 78.8754C137.29 78.2738 136.701 79.1659 136.603 77.9996C136.945 77.3285 136.893 75.7804 137.454 75.6576C136.753 77.8442 138.006 75.5321 137.643 77.4295C137.668 77.0544 137.773 76.6124 137.965 76.0982C138.04 76.0327 138.048 76.1978 138.043 76.3492C138.524 75.348 138.443 75.0724 138.317 74.771C138.253 74.6196 138.177 74.4627 138.153 74.2076C138.129 73.9512 138.159 73.5952 138.314 73.0509C138.516 73.4042 138.976 72.6922 139.022 72.3239C138.765 73.1942 138.439 72.6131 138.463 71.7442C139.092 70.4142 138.763 70.1824 139.021 69.4622L138.655 70.2601C138.473 69.8932 138.724 69.2043 138.968 68.2113C139.207 68.2018 138.818 69.1375 139.028 68.8238C138.999 68.5169 139.065 68.2195 139.187 67.9276C139.312 67.6357 139.489 67.3438 139.676 67.0437C139.867 66.745 140.067 66.4367 140.235 66.1039C140.408 65.7738 140.542 65.4178 140.61 65.0249C141.063 64.4302 141.137 65.1627 141.497 64.6307C141.579 64.197 141.69 63.8832 141.816 63.6282C141.947 63.3758 142.09 63.1835 142.236 62.9898C142.535 62.6065 142.839 62.2219 143.109 61.3707C142.82 61.5044 142.687 61.6094 142.656 61.5125C142.641 61.4648 142.649 61.3666 142.679 61.2016C142.713 61.0379 142.764 60.8033 142.831 60.4813C142.432 61.3802 142.08 62.3119 141.754 63.2544C141.799 62.9257 141.847 62.5942 141.903 62.2682L141.985 61.7745L142.076 61.2834C141.865 61.6831 141.716 62.1427 141.577 62.556C141.448 62.9748 141.325 63.3431 141.188 63.5818C141.274 62.612 141.329 62.7347 140.854 63.0034C141.375 62.5492 141.558 61.9572 141.753 61.3352C141.802 61.1797 141.85 61.0229 141.903 60.8646C141.959 60.7091 142.021 60.5536 142.091 60.3995C142.229 60.0899 142.423 59.8021 142.685 59.5415L143.483 60.0694C143.663 59.8812 143.818 59.6875 143.962 59.4979C144.034 59.4051 144.103 59.311 144.169 59.2155L144.264 59.0709L144.358 58.9345C144.42 58.8431 144.48 58.749 144.537 58.6535C144.596 58.5635 144.654 58.4762 144.71 58.3848L144.795 58.2471L144.88 58.1229L144.964 57.9961C144.993 57.9524 145.02 57.9074 145.049 57.8733C145.105 57.7983 145.162 57.7219 145.221 57.6441C145.306 57.5528 145.392 57.4614 145.481 57.3686C145.571 57.2799 145.664 57.1913 145.758 57.0999C145.853 57.0153 145.952 56.9267 146.054 56.8435C146.259 56.6811 146.479 56.5202 146.714 56.3933C146.773 56.3579 146.833 56.3306 146.893 56.3019C146.953 56.2747 147.016 56.2419 147.076 56.2215C147.136 56.1996 147.201 56.1737 147.26 56.156C147.313 56.1424 147.366 56.1301 147.421 56.1164C147.242 56.1205 146.977 56.1764 146.73 56.2419C146.756 56.126 146.855 56.0114 146.991 55.9268C147.025 55.905 147.062 55.8832 147.102 55.8627C147.141 55.8423 147.175 55.83 147.213 55.8136C147.25 55.7986 147.294 55.7809 147.329 55.77C147.363 55.7604 147.397 55.7522 147.433 55.7427C147.575 55.7113 147.728 55.6922 147.878 55.6922C148.028 55.6895 148.172 55.7004 148.314 55.7018C148.234 55.8545 148.262 55.98 148.291 56.1055C148.325 56.2242 148.355 56.3579 148.34 56.4834C148.408 56.3783 148.551 56.5161 148.68 56.6989C148.696 56.7221 148.712 56.7453 148.732 56.7671C148.749 56.793 148.771 56.8325 148.793 56.8626C148.839 56.9158 148.893 57.0194 148.951 57.0931C149.066 57.2513 149.201 57.3768 149.369 57.4C149.309 57.7887 149.213 58.1816 149.107 58.569C149.107 59.0846 149.145 59.502 149.221 59.8662C149.295 60.2317 149.4 60.5454 149.505 60.8633C149.707 61.4975 149.906 62.1482 149.725 63.234C149.59 62.8848 149.438 62.953 149.31 62.9216C149.18 62.8902 149.081 62.7593 149.025 62.0336C148.957 62.7443 148.817 63.3799 149.036 63.4195C148.91 63.6159 148.951 64.1274 148.965 64.6717C148.977 65.2159 148.963 65.7929 148.755 66.0971C148.841 66.4258 149.15 66.5854 148.969 67.3956C148.887 67.472 148.815 67.3629 148.815 67.3629C148.97 67.3956 148.77 68.6792 149.259 68.0381C148.546 69.0598 148.217 70.6107 147.874 72.1343C147.534 73.6566 147.185 75.1447 146.505 75.9877C146.177 77.5754 145.718 79.4783 145.306 80.8928C145.242 80.7741 145.155 80.8409 145.268 80.5845C144.383 82.4355 145.778 82.0536 144.755 84.161C143.9 85.1281 144.867 82.9047 144.455 83.5472C143.904 83.539 143.727 84.2128 143.547 85.0504C143.368 85.8879 143.185 86.8891 142.647 87.5288L142.708 87.1523C142.351 87.6557 142.21 88.3827 142.071 89.1902C141.999 89.5858 141.925 90.0086 141.825 90.4438C141.716 90.8748 141.57 91.3126 141.375 91.7464C141.375 91.7464 141.323 91.625 141.233 91.6755C141.233 91.7628 141.232 91.8555 141.225 91.9496C141.217 92.0438 141.206 92.1406 141.192 92.2415C141.165 92.4421 141.126 92.6549 141.079 92.8772C141.03 93.0982 140.978 93.3314 140.91 93.566C140.839 93.7993 140.763 94.0393 140.68 94.2821C140.596 94.5236 140.513 94.7718 140.419 95.0146C140.32 95.2561 140.22 95.4975 140.122 95.7362C140.021 95.9735 139.923 96.2109 139.82 96.4387C139.714 96.6638 139.61 96.8834 139.511 97.0948C139.441 96.3896 139.738 96.26 139.2 96.3582C139.021 96.7292 139.197 96.7606 139.328 96.8834C139.456 97.0061 139.55 97.2271 139.175 97.9746C138.936 98.1478 138.617 98.4629 138.302 98.7207C138.147 98.8503 137.987 98.9635 137.836 99.0345C137.686 99.1067 137.549 99.1408 137.433 99.1136C137.717 98.6825 137.973 98.2351 138.238 97.7932C138.01 97.8859 137.834 98.0387 137.687 98.2256C137.613 98.3183 137.548 98.4206 137.488 98.5284C137.424 98.6334 137.365 98.7453 137.31 98.8585C137.2 99.0849 137.1 99.3209 136.995 99.5391C136.892 99.7587 136.781 99.9593 136.641 100.109L136.493 99.8815C136.17 100.374 135.961 100.77 135.799 101.116C135.63 101.457 135.515 101.753 135.394 102.053C135.333 102.203 135.27 102.353 135.198 102.51C135.121 102.664 135.035 102.825 134.932 103C134.722 103.345 134.456 103.753 134.027 104.231L134.346 104.151C134.134 104.892 133.872 105.063 133.6 105.218C133.321 105.368 133.03 105.5 132.735 106.182C132.483 106.145 132.234 106.108 131.978 106.065C131.85 106.261 131.674 106.531 131.467 106.848C131.363 107.006 131.254 107.179 131.133 107.355C131.01 107.53 130.882 107.712 130.751 107.901C130.617 108.088 130.479 108.279 130.342 108.472C130.202 108.665 130.052 108.85 129.907 109.036C129.611 109.404 129.321 109.767 129.029 110.068C129.126 109.823 129.271 109.54 129.447 109.239C129.623 108.939 129.831 108.624 130.048 108.306C130.467 107.658 130.932 107.018 131.232 106.481C130.924 106.816 130.385 107.371 129.916 107.921C129.44 108.465 129.018 108.988 128.956 109.27C129.181 108.969 129.406 108.534 129.737 108.352C129.283 109.493 128.361 110.708 126.953 111.903C126.814 111.615 126.505 111.652 126.09 111.863C125.677 112.075 125.164 112.472 124.6 112.886C123.489 113.733 122.186 114.68 121.37 114.679C120.199 115.804 118.85 116.681 117.39 117.493C115.932 118.308 114.377 119.082 112.759 120.038C113.575 120.125 113.342 120.267 112.987 120.483C112.63 120.691 112.152 120.971 112.492 121.347C111.75 121.834 111.44 121.972 111.341 121.954C110.899 122.076 110.461 122.203 110.019 122.319L108.696 122.664C108.004 122.692 109.342 122.089 109.169 121.927C108.299 122.332 108.07 122.323 107.905 122.261C107.74 122.2 107.637 122.081 107.014 122.241C107.208 122.343 107.115 122.53 106.842 122.737C106.568 122.941 106.112 123.16 105.591 123.332C106.118 123.25 106.65 123.171 107.179 123.082C106.08 123.899 105.463 123.961 104.845 124.01C104.537 124.036 104.229 124.062 103.856 124.18C103.482 124.294 103.046 124.5 102.478 124.891L103.136 124.262C102.54 124.626 101.367 125.13 100.211 125.677C99.9222 125.813 99.6372 125.955 99.3603 126.1C99.0834 126.24 98.8174 126.385 98.5732 126.532C98.0849 126.829 97.6743 127.129 97.4233 127.434C97.1519 127.413 96.7536 127.273 97.3019 126.992C95.7292 127.522 94.0583 128.335 92.4351 129.036C90.8132 129.739 89.2459 130.343 87.9324 130.459L88.1083 130.156C87.5327 130.398 87.1917 130.891 86.376 130.861C86.3883 130.754 86.5533 130.563 86.2723 130.624C86.125 130.709 85.7554 130.92 85.3162 131.114C84.877 131.309 84.3709 131.496 83.9535 131.524C84.1595 131.38 84.3641 131.237 84.5673 131.088C82.9577 131.333 81.7915 131.784 80.688 132.258C79.5858 132.738 78.5478 133.242 77.2206 133.585C77.1565 133.236 76.4854 133.119 75.6752 133.104C74.8636 133.082 73.9101 133.154 73.2758 133.193L73.3045 133.086C71.4439 133.332 69.8862 133.678 68.3557 134.036C66.8266 134.39 65.3221 134.756 63.5885 134.98C63.3143 134.894 62.9951 134.829 62.6391 134.782C62.2844 134.731 61.893 134.69 61.4742 134.666C61.0554 134.634 60.608 134.608 60.1429 134.593C59.6777 134.574 59.1935 134.555 58.6997 134.536C56.7259 134.458 54.5927 134.311 52.9285 133.888C53.4319 134.071 52.7784 134.438 52.1633 134.42C51.9682 134.358 51.7281 134.338 51.4812 134.334C51.2343 134.332 50.982 134.329 50.7597 134.326C50.315 134.315 49.9944 134.259 50.1145 133.947C50.2072 133.969 50.3014 133.987 50.3941 134.006C50.1473 133.645 49.6234 133.418 49.0001 133.262C48.6918 133.175 48.359 133.103 48.0248 133.033C47.6906 132.966 47.3633 132.884 47.055 132.807L46.6389 133.584C45.1576 132.575 43.0856 132.014 41.2114 131.339C40.7476 131.164 40.2907 131.001 39.8706 130.812C39.4437 130.635 39.0549 130.436 38.703 130.238C38.3511 130.04 38.0523 129.819 37.8027 129.607C37.5599 129.384 37.3771 129.154 37.2639 128.919C36.4919 128.672 35.6939 128.113 34.9587 127.784L35.2779 127.451C34.4799 126.733 33.9152 126.168 33.33 125.543C32.7462 124.918 32.1174 124.253 31.3058 123.231C31.4995 123.309 31.6836 123.391 31.8814 123.459C31.6659 123.168 31.4381 122.972 31.1803 122.831C30.9348 122.683 30.6688 122.585 30.4014 122.486C29.8763 122.283 29.3389 122.068 28.987 121.446C29.1193 121.214 29.2625 120.982 29.403 120.755C29.3307 120.609 29.2557 120.465 29.1902 120.316L29.0033 119.865L28.9133 119.638L28.8342 119.406L28.6801 118.943C28.4959 118.316 28.3349 117.688 28.204 117.053C28.0594 116.423 27.9503 115.789 27.8016 115.163C27.6707 114.533 27.5029 113.908 27.3051 113.274C27.4115 113.308 27.6052 113.37 27.6761 113.782C27.6584 113.632 27.6557 113.444 27.6516 113.233C27.6475 113.023 27.6434 112.788 27.6516 112.542C27.657 112.297 27.6584 112.042 27.672 111.785C27.6802 111.53 27.6884 111.275 27.6952 111.034C27.7143 110.069 27.6856 109.296 27.1932 109.472C27.346 109.479 27.4442 109.314 27.5028 109.041C27.5301 108.905 27.5574 108.741 27.5752 108.558C27.5956 108.375 27.5997 108.172 27.6147 107.958C27.6488 107.1 27.6856 106.043 27.747 105.304L28.1221 105.636C28.0607 105.304 28.013 105.051 27.9735 104.832C27.9339 104.609 27.9148 104.421 27.908 104.219C27.9025 104.019 27.9107 103.804 27.9585 103.537C28.0049 103.27 28.069 102.944 28.1945 102.524C28.3977 102.158 28.6596 102.319 28.3568 102.786C28.7087 102.188 28.7182 101.907 28.7373 101.585C28.7469 101.424 28.7605 101.254 28.8355 101.037C28.8723 100.928 28.9215 100.806 28.991 100.669C29.0592 100.529 29.1492 100.375 29.2706 100.201C29.2625 100.428 29.2612 100.656 29.2652 100.885C29.8995 99.6292 29.7263 99.6728 29.7972 98.8176C29.9363 98.3811 30.2992 97.8027 30.7002 97.3553C30.8939 97.133 31.1094 96.9229 31.2949 96.7811C31.4818 96.6365 31.6468 96.5519 31.7614 96.5601C31.6591 96.26 31.7968 95.3952 32.3479 94.7104C32.5402 94.6886 32.4598 95.0105 32.4161 95.1715C32.8021 94.6804 33.0818 94.2153 33.3055 93.7802C33.5251 93.341 33.6928 92.9331 33.8456 92.5457C33.997 92.157 34.143 91.7941 34.3217 91.445C34.499 91.0944 34.7159 90.7629 35.0146 90.4383C35.1633 90.4765 35.2806 90.4137 35.387 90.3087C34.4527 92.056 33.6246 93.4146 33.6724 93.2714C34.0339 93.4828 34.8919 92.1201 34.7582 93.5156C34.9424 92.8758 35.1551 91.9906 35.4211 91.1026C35.5575 90.6606 35.7008 90.2119 35.8726 89.7986C36.0418 89.3825 36.2286 88.9951 36.4509 88.6678C36.5205 88.6173 36.5887 88.5682 36.6705 88.545L36.6406 88.7114C36.837 88.4045 36.9461 88.0949 37.017 87.7893C37.2939 87.3651 37.4767 87.0978 37.6854 86.6613C37.8791 86.6476 38.1164 86.2439 38.3401 85.7474C38.4506 85.4978 38.5597 85.2263 38.662 84.9712C38.7616 84.7148 38.853 84.4734 38.9335 84.2865C38.4888 84.176 38.9526 83.2253 38.231 84.0014C38.3102 83.895 38.2242 84.1624 38.0373 84.6643C38.0018 84.7803 37.9514 84.914 37.9446 84.9972C37.9391 84.9781 37.9337 84.9549 37.9296 84.9317C37.7359 85.4227 37.4672 86.0556 37.1453 86.7663C37.2026 86.0925 37.2939 85.4186 37.8737 84.7025C37.7645 84.2087 37.6541 83.6795 37.62 83.3944C37.8655 83.2007 38.1178 82.9388 38.3661 82.6524C38.6075 82.3618 38.8489 82.0495 39.0658 81.7507C39.5036 81.1547 39.8624 80.6254 40.0957 80.5395C40.3548 79.3078 40.6945 77.8592 40.8322 76.4828C40.9796 75.1106 40.8977 73.8107 40.4994 73.0073C40.4626 72.6499 40.5185 72.4467 40.6112 72.2966C40.704 72.1466 40.8281 72.0497 40.8895 71.912C40.985 72.3334 40.9618 72.8368 41.0723 73.07C40.9973 72.3348 40.9604 71.2436 40.7708 70.2983C40.5921 69.3517 40.2539 68.5769 39.9197 68.4951C39.8597 68.0354 39.8597 67.8553 39.9115 67.8076C39.9606 67.7585 40.0507 67.8444 40.1243 67.9153C40.1966 67.9849 40.2511 68.0395 40.2279 67.9208C40.202 67.8035 40.1175 67.5075 39.8324 66.906C39.9401 66.9892 40.0356 67.0792 40.1393 67.1692C40.0043 66.5104 39.7656 65.8966 39.4505 65.3496C39.1368 64.8012 38.7425 64.3238 38.3101 63.9146C37.8763 63.5054 37.4017 63.1671 36.9092 62.8861C36.4141 62.6092 35.9026 62.3896 35.3856 62.2069C34.8686 62.0227 34.3435 61.8822 33.8142 61.7581C33.2836 61.634 32.7476 61.5207 32.1952 61.4143C31.0903 61.1988 29.9309 60.9629 28.5873 60.6205C28.9597 60.7064 29.1438 60.7528 29.2148 60.8578C27.6911 60.6328 26.1238 60.6778 24.5866 60.8892C23.0466 61.1006 21.5339 61.4771 20.058 61.9272C18.5807 62.3801 17.1403 62.9093 15.7163 63.4427C14.2949 63.9801 12.8886 64.5175 11.4727 65.0127C10.6829 65.325 10.2983 65.6019 10.016 65.8857C9.73632 66.1721 9.55623 66.4667 9.1934 66.8528C9.00516 66.7736 8.81831 66.6973 8.63007 66.6222C8.22495 67.0874 7.83345 67.5593 7.45152 68.0354C6.53762 68.8865 5.50645 69.263 4.42887 69.7732C3.8928 70.0282 3.34855 70.3188 2.82339 70.7184C2.29688 71.1154 1.79354 71.6255 1.34886 72.3103C1.52346 72.2966 1.69534 72.283 1.8713 72.2734C1.43481 72.6335 0.825038 73.2883 0.324437 73.8189C-0.1748 74.3495 -0.573085 74.7519 -0.650835 74.5541C-0.687664 74.6796 -0.64129 75.0588 -1.06278 75.277L-1.27831 75.1365C-1.77618 75.94 -2.2399 76.7597 -2.66139 77.5945C-3.01195 78.0037 -3.22064 78.162 -3.37478 78.2029C-3.52891 78.2424 -3.62445 78.1661 -3.73357 78.117C-3.84269 78.0692 -3.96955 78.0447 -4.17688 78.207C-4.38558 78.3679 -4.68701 78.709 -5.10713 79.4101C-5.2408 79.6829 -5.36496 80.0362 -5.47545 80.4004C-5.57911 80.7687 -5.66638 81.1465 -5.71548 81.482C-5.81779 82.1531 -5.79731 82.6319 -5.6309 82.4628C-5.43038 82.029 -4.97478 81.4288 -4.73062 81.5148C-4.8452 81.8517 -4.95847 82.1872 -5.05804 82.5283C-4.75386 82.7683 -4.50152 83.1434 -4.14005 83.1966C-3.77176 83.2512 -3.32843 82.9879 -2.55229 82.0563C-2.42953 81.4984 -2.29178 80.9351 -2.12264 80.3744C-1.92621 80.2817 -1.72432 80.1958 -1.5238 80.1112C-1.77479 80.5081 -2.00806 80.9146 -2.23313 81.3225C-1.54429 80.8082 -1.53336 80.2367 -1.39013 79.642C-1.15143 79.6392 -0.912706 79.5192 -0.660359 79.2928C-0.543053 78.709 -0.39712 78.1238 -0.236163 77.5345C0.118486 77.5645 -0.242954 78.4743 0.578196 77.7173C0.694139 77.3135 0.44996 77.349 0.254903 77.349C0.0639381 77.349 -0.0902004 77.3067 0.252172 76.7352C1.0515 76.3342 1.0924 76.7052 1.52616 75.7981C1.76077 75.8322 1.7103 76.0641 1.5207 76.3996C1.71848 76.0082 2.08678 75.5812 2.41551 75.187C2.74425 74.7914 3.03209 74.4245 3.05664 74.1272C3.51086 73.9839 4.02917 73.4806 4.49567 73.0919C4.96217 72.7017 5.37412 72.4317 5.56372 72.7331C5.61282 72.5817 5.81741 72.238 6.09295 71.8697C6.36848 71.5014 6.715 71.1099 7.02873 70.8658C6.69727 71.6378 7.29744 71.204 8.02038 70.7253C8.74469 70.2437 9.60539 69.7322 9.69133 70.2206C9.9273 69.6122 10.7034 69.0311 11.6118 68.4746C12.5216 67.9167 13.5597 67.3861 14.3263 66.7914C14.2568 66.8923 14.1217 67.0942 13.9553 67.1297C14.9442 66.7286 15.3221 66.8187 16 66.685C15.9372 66.3658 16.2728 66.0125 16.7188 65.6579C17.1649 65.3046 17.72 64.954 18.0842 64.6212C18.8085 64.6948 18.6748 64.939 18.4429 65.2104C18.211 65.4873 17.881 65.7956 18.1715 66.0043C18.0529 65.7752 18.5357 65.4614 18.9885 65.19C19.44 64.9172 19.8602 64.6771 19.5846 64.538C20.118 64.5735 20.3349 64.5584 20.4999 64.5803C20.665 64.6021 20.7768 64.6526 21.0891 64.8422C21.0687 64.4384 21.2829 64.3416 21.5857 64.2747C21.8885 64.2038 22.2759 64.1561 22.6251 63.8328C22.9961 63.8532 23.2103 63.9092 23.3494 63.9692C23.4872 64.0292 23.5499 64.092 23.6126 64.1342C23.6754 64.1765 23.7382 64.1997 23.8773 64.1806C24.0164 64.1629 24.2319 64.0988 24.6029 63.9855C24.9808 64.0524 24.8403 64.2052 24.6111 64.3416C24.382 64.4752 24.0614 64.6021 24.0614 64.6021L24.0601 64.5871ZM33.7624 87.7743C33.7624 87.7743 33.7556 87.7716 33.7542 87.7702C33.8975 87.4688 34.0134 87.211 34.0871 87.0446C34.0189 87.196 33.9261 87.4074 33.7624 87.7743ZM32.2456 90.6524C32.4557 90.3155 32.6903 89.8804 32.9372 89.4207C33.1282 89.3935 33.2155 89.579 33.0504 89.864C33.0423 89.6567 32.5989 90.2923 32.2456 90.6524ZM38.2037 85.7801C38.0428 86.2984 37.8859 86.4253 37.7713 86.454C37.8668 86.218 37.9787 85.9438 38.1042 85.5741C38.0946 85.5523 38.0892 85.5155 38.0783 85.4937C38.1383 85.5755 38.1887 85.6614 38.2037 85.7801Z" fill="#F6A473"/>
<path d="M38.0363 84.656C38.0567 84.581 38.0554 84.5332 38.0895 84.4391C38.0104 84.5251 37.9408 84.6083 37.8726 84.6928C37.8917 84.7706 37.9094 84.851 37.9285 84.922C37.9653 84.8319 38.0022 84.7392 38.0363 84.6546V84.656Z" fill="#F6A473"/>
<path d="M153.938 115.467L153.878 115.499C153.934 115.48 153.986 115.463 154.031 115.467C153.982 115.477 153.973 115.465 153.939 115.467H153.938Z" fill="#F6A473"/>
<path d="M35.6011 132.717L35.657 132.616L35.3433 132.537L35.6011 132.717Z" fill="#F6A473"/>
<path d="M166.29 102.265C166.341 102.254 166.412 102.214 166.509 102.113C166.478 102.108 166.392 102.179 166.29 102.265Z" fill="#F6A473"/>
<path d="M170.043 95.301L170.674 94.3626C170.382 94.7595 170.191 95.0582 170.043 95.301Z" fill="#F6A473"/>
<path d="M172.793 89.878C172.751 89.7757 172.704 89.7307 172.662 89.6911C172.659 89.6952 172.658 89.698 172.654 89.7007L172.792 89.878H172.793Z" fill="#F6A473"/>
<path d="M135.99 68.9193C136.013 68.8402 136.032 68.7598 136.043 68.6861C136.131 68.1268 136.048 68.4992 135.99 68.9193Z" fill="#F6A473"/>
<path d="M132.791 97.5966C132.696 97.2938 132.608 96.9937 132.545 96.6732C132.528 97.1901 132.529 97.5939 132.791 97.5966Z" fill="#F6A473"/>
<path d="M152.338 66.3278C152.338 66.3278 152.334 66.3278 152.331 66.3237C152.319 66.3933 152.308 66.4546 152.296 66.5242L152.338 66.3278Z" fill="#F6A473"/>
<path d="M132.534 95.3258C132.45 95.8428 132.467 96.2752 132.548 96.6748C132.56 96.2506 132.609 95.7528 132.534 95.3258Z" fill="#F6A473"/>
<path d="M173.144 83.9304L174.022 82.0972C173.727 82.3618 173.336 82.7069 173.637 81.8353C172.203 84.0095 174.202 81.4929 173.142 83.9304H173.144Z" fill="#F6A473"/>
<path d="M170.45 89.6106C170.816 88.5835 170.211 89.5192 170.145 89.4251C170.011 90.118 169.978 90.2885 170.45 89.6106Z" fill="#F6A473"/>
<path d="M141.79 115.593L142.105 115.31C141.462 114.92 142.006 115.436 141.79 115.593Z" fill="#F6A473"/>
<path d="M134.904 110.094C134.918 110.244 134.94 110.393 134.963 110.542L135.032 110.99L135.549 111.195L135.222 110.648C135.116 110.464 134.998 110.284 134.903 110.094H134.904Z" fill="#F6A473"/>
<path d="M136.172 104.358L136.308 104.683C136.153 104.267 136.023 103.84 135.887 103.413C135.982 103.729 136.07 104.047 136.172 104.358Z" fill="#F6A473"/>
<path d="M146.484 74.1557L147.042 74.0424C147.096 73.4723 146.574 73.2145 146.484 74.1557Z" fill="#F6A473"/>
<path d="M133.988 103.817C133.777 103.87 133.493 104.043 133.242 104.277C133.117 104.393 132.999 104.525 132.901 104.664C132.8 104.8 132.721 104.945 132.675 105.091C132.802 104.961 132.938 104.839 133.07 104.721C133.203 104.603 133.331 104.488 133.451 104.382C133.691 104.168 133.894 103.979 133.988 103.817Z" fill="#F6A473"/>
<path d="M45.2717 132.53C45.4886 132.539 45.7068 132.541 45.9251 132.541C45.5281 132.486 45.1394 132.407 44.7466 132.337L45.2717 132.53Z" fill="#F6A473"/>
<path d="M86.49 100.991C109.772 100.991 128.645 82.1172 128.645 58.8353C128.645 35.5535 109.772 16.6798 86.49 16.6798C63.2081 16.6798 44.3345 35.5535 44.3345 58.8353C44.3345 82.1172 63.2081 100.991 86.49 100.991Z" fill="url(#paint0_radial_2284_1345)"/>
<path d="M72.6953 68.0588C71.9737 68.0588 71.2671 67.9797 70.5783 67.8201C67.0345 67.0098 65.1699 64.4114 65.0921 64.3009L64.938 64.0826L64.9776 63.818C65.0117 63.5902 65.8819 58.2214 72.7376 56.6759L72.7607 56.6718C73.5478 56.4931 74.3389 56.4086 75.1137 56.4154C79.9288 56.4522 82.5886 60.0014 82.6991 60.1528L82.901 60.4284L82.7973 60.753C82.7782 60.813 82.3131 62.2344 81.1155 63.8139C80.0952 65.1561 78.8662 66.1996 77.4612 66.9171C77.3916 66.9539 77.3152 66.9908 77.2375 67.029C76.5405 67.3631 75.8039 67.6182 75.0468 67.7887C74.2516 67.9701 73.466 68.0602 72.6953 68.0602V68.0588ZM66.3552 63.7471C66.8504 64.3336 68.4026 65.9527 70.877 66.5188C72.1046 66.8012 73.4073 66.7902 74.7509 66.4847C75.411 66.336 76.0508 66.1137 76.6537 65.8245C76.7165 65.7931 76.7819 65.7618 76.8474 65.7277C78.0764 65.1002 79.1526 64.1849 80.0487 63.0037C80.7771 62.0434 81.2014 61.1418 81.3951 60.6753C80.713 59.91 78.5047 57.7781 75.0987 57.7521C74.4276 57.7453 73.7346 57.8203 73.0458 57.9772L73.0212 57.9827C67.857 59.1503 66.609 62.724 66.3552 63.7471Z" fill="#191919"/>
<path d="M88.8386 82.7073C87.5578 82.7073 86.1337 82.5245 84.6319 82.0239C80.3734 80.604 78.6275 77.3671 78.5565 77.2294C78.3847 76.9034 78.5101 76.4982 78.8361 76.3264C79.1621 76.1545 79.5659 76.28 79.7391 76.606C79.7541 76.6333 81.3269 79.5114 85.0561 80.7554C89.9339 82.3827 94.0274 80.2193 94.0683 80.1961C94.3929 80.0215 94.7981 80.1402 94.974 80.4649C95.15 80.7881 95.0314 81.1933 94.7081 81.3692C94.573 81.4429 92.2064 82.706 88.8413 82.706L88.8386 82.7073Z" fill="#191919"/>
<path d="M99.3226 62.3527C99.1398 62.3527 98.957 62.3472 98.7743 62.3377C97.1115 62.2476 95.4911 61.7484 93.9565 60.8536C92.2447 59.8537 91.2707 58.7189 91.2298 58.6711L91.0088 58.4106L91.0893 58.0791C91.1343 57.8977 92.231 53.5996 96.6655 51.72C97.3734 51.4172 98.1359 51.1935 98.9298 51.0571L98.942 51.0544C105.877 49.8458 108.743 54.4767 108.861 54.6745L108.999 54.9037L108.94 55.1642C108.91 55.2951 108.183 58.4106 105.221 60.518C104.85 60.7827 104.45 61.0255 104.034 61.2369C103.139 61.6925 102.145 62.0171 101.081 62.1999C100.498 62.3008 99.9091 62.3513 99.3212 62.3513L99.3226 62.3527ZM92.4942 58.0641C92.8516 58.4215 93.5896 59.0913 94.6303 59.6996C95.978 60.4867 97.3979 60.9245 98.8465 61.0036C99.5135 61.0405 100.19 60.9995 100.856 60.8836C101.789 60.724 102.655 60.4416 103.431 60.0474C103.788 59.866 104.129 59.6587 104.449 59.4323C106.532 57.9523 107.336 55.8708 107.565 55.1396C106.939 54.2926 104.415 51.4622 99.1835 52.3707L99.1671 52.3734C98.4742 52.492 97.8099 52.6857 97.1934 52.949C94.0561 54.2789 92.8339 57.0957 92.4956 58.0628L92.4942 58.0641Z" fill="#191919"/>
<path d="M82.1598 60.5482C82.1598 60.5482 81.7247 61.9027 80.5817 63.4085C79.7987 64.4384 78.687 65.5378 77.1565 66.3208C74.8077 65.7533 72.8817 63.8737 72.3783 61.3475C72.0974 59.933 72.3033 58.5362 72.8844 57.3291L72.8994 57.3263C73.6823 57.1476 74.4176 57.0767 75.1064 57.0849C79.6432 57.1203 82.1612 60.5495 82.1612 60.5495L82.1598 60.5482Z" fill="#191919"/>
<path d="M77.2275 66.9186L77.0242 66.8695C74.3944 66.2352 72.3538 64.1114 71.8259 61.4584C71.5286 59.9661 71.7195 58.4534 72.3756 57.0853L72.497 56.8316L72.7808 56.7756C73.561 56.5983 74.3452 56.5137 75.1105 56.5219C79.8737 56.5587 82.5035 60.067 82.6127 60.2157L82.7832 60.4476L82.6959 60.7218C82.6768 60.7804 82.2171 62.1868 81.0304 63.7513C80.0197 65.0799 78.8029 66.1138 77.4116 66.8245L77.2261 66.92L77.2275 66.9186ZM73.2799 57.8218C72.8203 58.9008 72.7002 60.0766 72.9307 61.2387C73.3604 63.3939 74.9809 65.1331 77.087 65.721C78.2478 65.0922 79.2722 64.2014 80.1329 63.0679C80.9008 62.0558 81.3332 61.1092 81.5174 60.6549C80.8763 59.9225 78.6215 57.6745 75.1009 57.6472C74.5049 57.6404 73.8924 57.6991 73.2799 57.8205V57.8218Z" fill="#191919"/>
<path d="M108.291 55.0193C108.291 55.0193 107.624 57.9915 104.836 59.9748C104.502 60.2135 104.135 60.4386 103.734 60.6418C101.231 60.1821 99.1399 58.2438 98.612 55.5949C98.3406 54.2349 98.5233 52.8886 99.0526 51.7142H99.0594C105.622 50.5684 108.291 55.0193 108.291 55.0193Z" fill="#191919"/>
<path d="M103.819 61.2315L103.632 61.1974C100.807 60.6791 98.6207 58.5239 98.0587 55.7072C97.7737 54.2749 97.9387 52.8154 98.5389 51.4855L98.6576 51.2209L98.9618 51.1595C105.827 49.9619 108.656 54.5355 108.773 54.7305L108.889 54.9242L108.84 55.1438C108.811 55.2734 108.093 58.352 105.161 60.4349C104.794 60.6968 104.399 60.9369 103.988 61.1456L103.819 61.2315ZM99.4514 52.2221C99.0449 53.2615 98.9454 54.3841 99.165 55.4862C99.6233 57.7846 101.373 59.5578 103.65 60.0516C103.95 59.8907 104.238 59.7106 104.509 59.5169C106.663 57.9851 107.468 55.8149 107.681 55.1206C107.108 54.3268 104.633 51.4405 99.4528 52.2221H99.4514Z" fill="#191919"/>
<path d="M72.4655 76.2574C69.8097 76.2574 67.2112 75.4758 64.9524 73.9672C61.9365 71.9525 59.885 68.8848 59.1757 65.3274C58.4677 61.7699 59.1866 58.1498 61.1999 55.1339C63.2145 52.118 66.2823 50.0665 69.8397 49.3572C73.3971 48.6493 77.0173 49.3681 80.0332 51.3815C83.049 53.3961 85.1005 56.4638 85.8098 60.0213C86.5177 63.5787 85.7989 67.1988 83.7856 70.2147C81.7709 73.2306 78.7032 75.2821 75.1458 75.9914C74.2524 76.1687 73.3548 76.2574 72.4655 76.2574ZM72.5186 50.428C71.7152 50.428 70.9064 50.5071 70.1016 50.668C66.8948 51.3064 64.1285 53.1561 62.3116 55.8759C60.4961 58.5958 59.8467 61.86 60.4865 65.0668C61.1248 68.2737 62.9745 71.0399 65.6944 72.8568C68.4143 74.6724 71.6784 75.3203 74.8853 74.6819C78.0921 74.0435 80.8583 72.1939 82.6752 69.474C84.4908 66.7541 85.1401 63.49 84.5004 60.2831C83.862 57.0763 82.0123 54.31 79.2925 52.4931C77.256 51.1332 74.9139 50.428 72.5186 50.428Z" fill="white"/>
<path d="M101.36 70.5014C98.7042 70.5014 96.1057 69.7198 93.8469 68.2112C90.831 66.1965 88.7795 63.1288 88.0702 59.5714C87.3623 56.014 88.0811 52.3938 90.0944 49.3779C92.1091 46.362 95.1768 44.3105 98.7342 43.6012C102.292 42.8919 105.912 43.6121 108.928 45.6255C111.944 47.6401 113.995 50.7079 114.704 54.2653C115.412 57.8227 114.693 61.4428 112.68 64.4587C110.665 67.4746 107.598 69.5261 104.04 70.2354C103.147 70.4127 102.249 70.5014 101.36 70.5014ZM101.413 44.672C100.61 44.672 99.8009 44.7511 98.9961 44.9121C95.7893 45.5504 93.023 47.4001 91.2061 50.12C89.3905 52.8399 88.7413 56.104 89.381 59.3108C90.0194 62.5177 91.869 65.284 94.5889 67.1008C97.3088 68.9164 100.573 69.5657 103.78 68.9259C106.987 68.2876 109.753 66.4379 111.57 63.718C113.385 60.9981 114.035 57.734 113.395 54.5272C112.757 51.3203 110.907 48.554 108.187 46.7372C106.15 45.3772 103.808 44.672 101.413 44.672Z" fill="white"/>
<path fill-rule="evenodd" clip-rule="evenodd" d="M61.6602 21.3345C60.9185 20.801 59.9217 20.8729 59.2653 21.4585L59.2614 21.462L59.2574 21.4655C59.1596 21.55 59.0658 21.6526 58.9788 21.7727C58.9787 21.7729 58.9786 21.773 58.9784 21.7732L42.5689 44.569C42.5685 44.5696 42.5681 44.5702 42.5676 44.5708C42.5079 44.6552 42.4574 44.7377 42.4154 44.8198L42.4152 44.8202C41.9895 45.6504 42.224 46.6909 43.0034 47.2519L43.0036 47.2521L45.2511 48.8708C45.2512 48.8709 45.2514 48.8711 45.2515 48.8712M47.5326 48.8443C46.8774 49.3401 45.9531 49.3753 45.2515 48.8712L47.5326 48.8443ZM47.5326 48.8443C47.6795 48.7325 47.8155 48.5947 47.9304 48.4352L64.3441 25.6336C64.4882 25.4337 64.5879 25.2157 64.6452 24.9913L64.6457 24.9896C64.8382 24.2449 64.5688 23.4283 63.9093 22.9535L61.8361 21.4603H61.835L61.6602 21.3345M62.2526 20.1236C61.0174 19.3577 59.4389 19.5153 58.3794 20.4575C58.198 20.6148 58.0367 20.7945 57.8957 20.9892L57.8946 20.9907L41.4798 43.7939L41.4784 43.7959C41.3858 43.9264 41.3005 44.0642 41.2255 44.2107C40.503 45.6202 40.8986 47.3838 42.2223 48.3367C42.2224 48.3368 42.2224 48.3368 42.2225 48.3368L44.4707 49.9562C45.6621 50.8128 47.2306 50.7499 48.3403 49.9095L48.3413 49.9087C48.5925 49.7177 48.822 49.4847 49.0153 49.2161C49.0153 49.2161 49.0153 49.2161 49.0153 49.2161L65.4285 26.4152C65.4286 26.4151 65.4287 26.415 65.4287 26.4149" fill="#191919"/>
<path fill-rule="evenodd" clip-rule="evenodd" d="M57.663 21.3161C52.0256 19.872 45.8251 21.9198 42.2274 26.9171C38.6229 31.9239 38.6559 38.4458 41.8146 43.3323L57.663 21.3161ZM58.9808 21.7734L42.5685 44.5731L42.568 44.5737C42.511 44.6528 42.4616 44.7341 42.4177 44.82L41.9281 45.7764L41.2866 44.9146C37.2602 39.5057 36.9913 31.9023 41.1426 26.1361C45.2939 20.3698 52.6153 18.2024 59.0327 20.3254L60.144 20.693L59.2625 21.4632C59.161 21.5519 59.0669 21.6547 58.9813 21.7727C58.9812 21.7729 58.981 21.7732 58.9808 21.7734Z" fill="#191919"/>
<path fill-rule="evenodd" clip-rule="evenodd" d="M42.874 43.5614C43.0896 43.2618 43.5073 43.1938 43.8069 43.4094L49.3599 47.406C49.6595 47.6217 49.7276 48.0393 49.5119 48.3389C49.2963 48.6385 48.8786 48.7066 48.579 48.491L43.026 44.4944C42.7264 44.2787 42.6584 43.861 42.874 43.5614Z" fill="#191919"/>
<path fill-rule="evenodd" clip-rule="evenodd" d="M44.8726 40.7862C45.0882 40.4866 45.5059 40.4185 45.8055 40.6342L51.2684 44.5667C51.568 44.7824 51.6361 45.2001 51.4204 45.4997C51.2047 45.7992 50.787 45.8673 50.4875 45.6516L45.0245 41.7191C44.7249 41.5034 44.6569 41.0858 44.8726 40.7862Z" fill="#191919"/>
<path d="M58.6738 25.0232L63.3321 28.3747" stroke="#191919" stroke-width="9.8" stroke-miterlimit="10" stroke-linecap="round"/>
<path d="M136.671 192.007L113.829 118.515L68.5855 123.591L43.3154 193.332L136.671 192.007Z" fill="#191919"/>
<path d="M146.608 199.216C144.334 202.349 140.717 204.227 136.846 204.282L43.4895 205.606H43.315C39.347 205.606 35.6204 203.689 33.3152 200.45C30.9759 197.164 30.4002 192.94 31.7738 189.148L57.044 119.408C58.6345 115.018 62.5765 111.911 67.217 111.39L112.461 106.314C118.312 105.657 123.804 109.248 125.551 114.871L148.395 188.362C149.543 192.06 148.882 196.081 146.608 199.216Z" fill="url(#paint1_linear_2284_1345)"/>
<path d="M99.5149 127.815L96.4883 129.156L115.936 173.042L118.962 171.701L99.5149 127.815Z" fill="url(#paint2_linear_2284_1345)"/>
<path d="M96.2243 122.827L95.0335 123.272L94.1455 119.683L96.2243 122.827Z" fill="url(#paint3_linear_2284_1345)"/>
<path d="M99.5141 127.805L96.4873 129.146L95.0332 123.272L96.224 122.828L99.5141 127.805Z" fill="url(#paint4_linear_2284_1345)"/>
<path fill-rule="evenodd" clip-rule="evenodd" d="M98.8316 127.988C98.9091 128.16 98.8328 128.362 98.6612 128.439L96.9697 129.203C96.7981 129.28 96.5961 129.204 96.5186 129.033C96.4411 128.861 96.5174 128.659 96.689 128.581L98.3805 127.817C98.5521 127.74 98.7541 127.816 98.8316 127.988Z" fill="#191919"/>
<path fill-rule="evenodd" clip-rule="evenodd" d="M96.1757 122.929C96.2472 123.103 96.1639 123.302 95.9896 123.373L95.4876 123.579C95.3134 123.651 95.1142 123.568 95.0427 123.393C94.9712 123.219 95.0545 123.02 95.2287 122.948L95.7307 122.742C95.905 122.671 96.1042 122.754 96.1757 122.929Z" fill="#191919"/>
<path d="M91.5376 155.591L105.773 184.062C105.773 184.062 121.332 177.441 123.65 172.475C125.967 167.51 129.609 160.226 124.974 150.958C120.339 141.688 112.064 139.04 107.097 141.358C102.132 143.675 91.5376 155.593 91.5376 155.593V155.591Z" fill="url(#paint5_linear_2284_1345)"/>
<path d="M89.9411 74.4942C89.7937 74.4942 89.6465 74.4465 89.5237 74.3469C89.2359 74.1164 89.1895 73.6963 89.42 73.4085L93.4521 68.3793L88.1542 68.2006L83.4851 47.841C83.4033 47.4809 83.627 47.1235 83.9871 47.0403C84.3458 46.9584 84.7046 47.1821 84.7878 47.5422L89.2263 66.9006L96.1625 67.1353L90.4622 74.246C90.3299 74.411 90.1361 74.4956 89.9411 74.4956V74.4942Z" fill="#191919"/>
<path fill-rule="evenodd" clip-rule="evenodd" d="M89.3248 151.632C89.5113 151.678 89.669 151.802 89.7577 151.972L100.186 172C100.356 172.328 100.229 172.732 99.9017 172.902C99.5742 173.072 99.1706 172.945 99.0002 172.618L88.9229 153.263L54.9519 176.886C54.6488 177.097 54.2323 177.022 54.0215 176.719C53.8108 176.416 53.8856 175.999 54.1887 175.788L88.7833 151.732C88.941 151.623 89.1383 151.586 89.3248 151.632Z" fill="#191919"/>
<path fill-rule="evenodd" clip-rule="evenodd" d="M105.62 104.229C105.953 104.388 106.094 104.787 105.935 105.12L105.332 104.832C105.935 105.12 105.935 105.121 105.934 105.121L105.934 105.122L105.933 105.124L105.929 105.131C105.926 105.137 105.922 105.146 105.917 105.157C105.906 105.178 105.891 105.209 105.871 105.249C105.83 105.328 105.771 105.443 105.692 105.588C105.536 105.877 105.303 106.286 104.994 106.777C104.378 107.758 103.457 109.069 102.236 110.389C99.8029 113.021 96.113 115.756 91.223 115.872C86.4247 115.987 82.6546 114.386 80.09 112.762C78.8079 111.95 77.8238 111.131 77.1578 110.511C76.8246 110.201 76.5704 109.941 76.3976 109.756C76.3113 109.663 76.2452 109.589 76.1998 109.538C76.1771 109.512 76.1595 109.491 76.1471 109.477C76.141 109.47 76.1361 109.464 76.1325 109.459L76.1281 109.454L76.1266 109.452L76.1261 109.452C76.1259 109.452 76.1256 109.451 76.6406 109.025L76.1256 109.451C75.8903 109.167 75.93 108.746 76.2144 108.51C76.4986 108.275 76.9196 108.315 77.155 108.598L77.1552 108.599C77.1553 108.599 77.1554 108.599 77.1555 108.599L77.1564 108.6C77.158 108.602 77.1608 108.605 77.1649 108.61C77.1732 108.62 77.1865 108.635 77.2048 108.656C77.2415 108.698 77.2983 108.762 77.3749 108.844C77.528 109.008 77.76 109.246 78.0682 109.532C78.685 110.106 79.6044 110.872 80.8052 111.633C83.2063 113.154 86.7195 114.643 91.1912 114.536C95.5712 114.432 98.9436 111.981 101.255 109.482C102.406 108.236 103.278 106.996 103.862 106.066C104.154 105.602 104.373 105.217 104.517 104.95C104.59 104.817 104.644 104.713 104.679 104.643C104.697 104.609 104.71 104.583 104.718 104.566C104.722 104.557 104.725 104.551 104.727 104.548L104.729 104.544L104.729 104.544" fill="#191919"/>
</g>
<defs>
<radialGradient id="paint0_radial_2284_1345" cx="0" cy="0" r="1" gradientUnits="userSpaceOnUse" gradientTransform="translate(90.3229 39.2846) scale(66.3125 66.3126)">
<stop stop-color="#E5ED53"/>
<stop offset="1" stop-color="#FFC895"/>
</radialGradient>
<linearGradient id="paint1_linear_2284_1345" x1="49.8801" y1="196.424" x2="118.297" y2="146.325" gradientUnits="userSpaceOnUse">
<stop stop-color="#EE783C"/>
<stop offset="1" stop-color="#FFC895"/>
</linearGradient>
<linearGradient id="paint2_linear_2284_1345" x1="92.9498" y1="115.879" x2="111.93" y2="160.24" gradientUnits="userSpaceOnUse">
<stop stop-color="#EE783C"/>
<stop offset="1" stop-color="#FFC895"/>
</linearGradient>
<linearGradient id="paint3_linear_2284_1345" x1="92.6205" y1="116.018" x2="111.6" y2="160.377" gradientUnits="userSpaceOnUse">
<stop stop-color="#EE783C"/>
<stop offset="1" stop-color="#FFC895"/>
</linearGradient>
<linearGradient id="paint4_linear_2284_1345" x1="95.0332" y1="125.987" x2="99.5141" y2="125.987" gradientUnits="userSpaceOnUse">
<stop stop-color="#FFC895"/>
<stop offset="1" stop-color="#E5ED53"/>
</linearGradient>
<linearGradient id="paint5_linear_2284_1345" x1="91.5376" y1="162.313" x2="127.21" y2="162.313" gradientUnits="userSpaceOnUse">
<stop stop-color="#FFC895"/>
<stop offset="1" stop-color="#E5ED53"/>
</linearGradient>
</defs>
</svg>
