<svg width="630" height="59" viewBox="0 0 630 59" fill="none" xmlns="http://www.w3.org/2000/svg">
<path d="M275.984 33.3647C274.019 37.6471 275.093 38.3059 276.272 39.0353C276.01 39.6471 275.774 40.6118 275.25 41.3647C274.726 42.1176 273.888 42.6824 273.102 43.3647L274.176 44.4941C274.176 44.4941 273.993 44.8235 273.862 44.8471C272.709 44.9647 271.531 45.0588 270.483 45.1294C266.711 43.0588 265.27 39.5765 263.436 36.3765C263.567 35.1059 264.982 34.7529 265.506 33.8353C266.03 32.9176 266.265 31.9294 267.208 31.1765C268.073 30.4941 269.094 29.8824 269.461 28.7765L269.068 27.5765L267.732 28.4941C266.056 29.0824 263.856 27.8824 262.258 29.2471C261.053 30.2588 258.905 28.9412 258.145 30.8H255.788L254.452 31.9294H252.121L250.811 33.0353C249.318 32.8 248.27 33.4824 247.039 34.0471C246.096 34.4706 244.891 34.0706 243.843 34.9882C242.979 35.7412 241.067 34.7529 240.228 36.2588H237.137C234.78 37.3647 232.789 38.2824 230.17 39.5059H226.031C225.245 40.0706 224.643 40.7294 224.328 40.6353C221.84 39.9059 219.98 42.0235 217.623 41.8353C217.203 41.8118 216.706 42.4235 216.13 42.8235H212.75L211.388 43.9529H209.083L207.747 45.0824H205.416L204.971 45.4823C204.84 45.6 204.709 45.7882 204.552 45.8588C203.189 46.3765 201.408 45.8588 200.387 47.2471H192.607C190.695 48.3059 188.809 49.5059 186.242 49.5529L185.089 50.5176H180.296L179.353 51.4824H173.302L172.044 52.6353H167.251L165.994 53.7882H162.405L161.148 54.9412H156.354L155.254 55.9529H145.745L144.409 57.0824H137.232L136.42 57.8353C136.027 57.9529 135.687 58.1647 135.346 58.1647C132.36 58.1882 129.374 58.1647 126.754 58.1647C125.34 57.3882 124.109 56.8941 123.113 56.1412C122.223 55.4588 121.411 54.7529 120.18 54.6353C119.577 53.4353 119.97 52.1412 119.891 50.9176C119.839 49.8353 119.891 48.7529 119.891 47.7647L122.118 45.7412C121.751 45.2 121.411 44.6353 121.07 44.1412C121.149 42.5882 122.799 42.1882 123.506 41.1059V38.8235C125.497 38.1412 125.471 35.9765 126.912 34.7765C128.221 33.6706 129.505 32.5176 130.71 31.4824C130.448 29.9294 131.705 29.4353 132.439 28.6118H133.617C136.001 26.4 138.359 24.1882 140.69 22.0235H142L152.241 12.5882L152.032 11.2941C150.513 10.9882 149.151 10.6353 148.077 12.2118H139.616L138.516 13.2235H133.801L132.465 14.3529H128.876L127.881 15.3176H123.061L121.856 16.4235H118.529L116.774 17.6471H112.138L110.881 18.8H106.087L104.987 19.8118H100.272L98.9622 20.9412C98.1764 20.9412 97.3906 20.9412 96.5785 20.9412C96.2904 21.2 96.0023 21.4588 95.4784 21.9529C94.7973 22 93.8543 22.0471 92.9113 22.0941C92.6232 22.3529 92.3351 22.6118 91.8636 23.0588H87.07L85.8127 24.2118H82.224L81.0977 25.2471H76.6446L72.5321 27.3882L71.1438 26.2118L66.2455 28.4941H63.4689C62.1854 29.2235 61.2424 30.4 59.5135 29.3647C58.7015 30.3765 57.9943 31.2706 57.4966 31.8824H54.6414L53.6198 32.8235C52.2577 33.2471 50.6599 32.8235 49.1144 32.9882C47.988 33.5294 46.6521 33.8824 45.7353 34.6588C44.6875 35.5529 43.4302 34.7765 42.4348 35.3647C41.3347 36.0235 40.1821 36.5882 38.82 37.3176H35.8339C33.162 38.6588 30.6474 39.7412 28.1589 40.8706C26.6658 41.5294 25.0156 42.0471 23.7059 42.8941C22.4486 43.7176 20.7197 43.7176 19.8291 44.9882C18.6504 44.6824 18.1265 46 17.3407 46C15.8738 46 14.826 46.6118 13.5949 47.0824C12.5733 47.4824 11.2374 47.1529 10.0324 47.1529H7.91069L6.57478 48.3765L4.84595 46.0471H1.72883L0 44.4235L1.70263 42.7529H7.413C9.37757 41.7882 11.1064 40.2823 13.6211 40.5647L16.1357 38.4L17.1049 39.2941L20.3268 37.8353V36.7059C21.3484 36.2353 22.3438 35.7647 23.7059 35.1294H26.7968C27.6874 34.3765 28.5256 33.1059 29.4424 33.0353C30.7783 32.9412 31.2498 31.7882 32.5334 31.7412C33.5811 31.6941 34.2884 30.3529 35.6505 30.6824C35.9648 30.7529 36.5935 30.6824 36.6983 30.4706C37.3531 29.3882 38.9248 29.8824 39.632 28.9412C40.4441 27.8824 42.0943 29.1529 42.8277 28.1412C43.5612 27.1294 45.1852 27.7412 45.7615 26.6118C48.0142 26.2824 50.1098 25.6471 51.891 24.2824C54.0913 24.6118 55.6892 22.5882 57.9157 23.0118C58.8849 21.9294 60.1946 21.7412 61.6091 21.9059C62.4997 20.6118 64.2023 21.2 65.2239 20.6588C66.2979 20.0706 67.2409 19.8588 68.3934 19.6471C69.6246 19.4353 70.5937 18.2353 72.113 18.6118C73.4489 17.1529 75.2825 17.5529 77.1161 17.5059L78.4521 16.4471H80.7048L82.0669 15.3176H85.6555L86.3627 14.5882C87.7248 13.9059 89.1393 14.3765 90.4753 14.1647C90.7634 13.9059 91.0515 13.6471 91.3135 13.3882C92.4398 12.8706 93.6186 13.2235 94.9807 13.0824C95.4522 12.7765 96.0023 12.2588 96.6833 12.0471C97.3906 11.8118 98.3074 12.0706 98.9622 11.7882C99.6171 11.4824 100.036 10.8235 100.979 10.8941C101.765 10.9647 102.577 10.8941 103.468 10.8941L104.804 9.83529H108.261L109.597 8.70588H114.338L115.648 7.57647H117.979L119.079 6.58823H123.768L125.576 5.22353L127.828 6.47059L129.452 4.32941C131.941 4.32941 133.932 4.32941 135.922 4.32941C136.211 4.07059 136.499 3.81176 137.023 3.31765L139.537 3.17647L140.926 2.07059H146.793L147.815 1.12941H158.397L159.89 0H162.038C163.819 1.67059 165.627 3.36471 167.644 5.24706V6.51765C166.779 8 165.784 9.45882 164.841 10.9176C163.741 12.6353 162.379 14.0471 160.886 15.4353C159.497 16.7529 158.292 18.4235 156.59 19.2C154.782 20.0471 153.446 21.2 152.058 22.4C152.058 22.7765 152.058 23.1294 152.058 23.5059C151.351 24.1412 150.513 24.7059 149.963 25.4588C148.26 27.7647 145.431 28.8 143.178 30.4C138.28 33.8588 137.573 34.2118 133.984 38.9176C133.434 39.6471 132.465 40.1412 131.915 40.8941C131.391 41.5765 131.181 42.4235 130.474 43.9529C130.369 44.7294 130.579 46.3059 130.474 48.0706C132.491 47.3647 134.194 46.0471 135.818 48.0706H150.251L151.508 47.0588H157.402L158.712 45.9294H164.684L165.784 44.9412C166.884 44.8941 168.22 44.8235 169.556 44.7765C169.844 44.5176 170.132 44.2588 170.604 43.8118H175.397L176.655 42.6588H181.448L182.575 41.6235H187.263L188.652 40.4941H194.545L195.881 39.3647H198.239L199.313 38.3765C200.439 38.3294 201.775 38.2588 203.111 38.1882L204.211 37.1765C204.918 37.1765 205.888 37.0588 206.831 37.2C208.035 37.3882 208.402 36.1882 209.345 36.0941C210.341 36 211.336 36.0941 212.358 36.0941C213.458 35.4118 214.427 34.3059 215.894 35.1765L217.413 33.9294H220.923L222.259 32.8H225.769L227.079 31.7176H230.17C231.244 31.5294 231.768 30.1176 233.234 30.6118C234.387 30.9882 234.78 29.6 235.723 29.5529C236.902 29.4824 238.133 29.7176 238.892 28.4941H242.35C244.288 27.0118 246.803 26.5882 248.715 25.1529H251.911L253.352 24.1647L257.124 23.8824C258.067 22.1647 260.738 23.7647 261.629 21.9059H267.575L268.911 20.7765H276.062C277.896 22.5647 281.118 22.4 282.585 24.6588L281.589 25.5765L281.38 27.9529C280.122 29.3882 277.843 30.0706 277.817 32.3294C276.272 33.7412 274.7 35.1765 276.036 33.1294C278.944 28.8706 279.415 28.1176 278.682 27.5059C277.66 27.8824 276.927 28.4941 276.691 29.5294C274.805 29.9529 274.098 31.1059 274.307 32.8235C273.469 32.8 273.076 33.1529 273.102 33.9294C272.264 33.9059 271.871 34.2588 272.159 35.0824C270.483 34.8 269.959 33.4824 268.859 32.8706L267.235 34.3529L270.299 36.9882C270.823 36.5412 271.373 36.0471 272.159 35.0588C272.735 35.0353 273.128 34.6588 273.102 33.9059C273.94 33.9294 274.333 33.5765 274.307 32.8C276.193 32.3765 276.9 31.2235 276.691 29.5059C277.477 29.5059 278.289 29.5059 276.036 33.1059L275.984 33.3647ZM272.028 29.0588L272.447 29.7647C272.578 29.6471 272.84 29.5059 272.814 29.4118C272.762 29.1529 272.578 28.9176 272.447 28.6824L272.028 29.0824V29.0588Z" fill="#5956FE"/>
<path d="M437.026 34.0706C437.262 33.8118 437.419 33.5059 437.603 33.1294H441.086L442.475 32.0471C443.287 32.3059 443.627 33.6235 445.408 32.5882C445.304 32.6588 445.749 32.3059 446.194 31.9294H453.319L454.367 30.9647C456.698 30.6118 459.265 31.0353 461.806 30.7529L462.775 29.8588H474.537L475.951 28.8471L477.968 29.9059L479.854 28.6824H499.998L501.307 27.5765H540.782L542.275 28.8471L544.79 27.6941H551.548L552.805 28.5882C554.455 29.3412 555.765 27.7647 557.389 27.5294L558.778 28.6588H568.312L569.57 27.6L570.408 28.3765C570.565 28.4706 570.722 28.6588 570.879 28.6588C577.245 28.6588 583.636 28.6588 589.844 28.6588L591.468 29.9529L593.773 28.7765H598.41L599.431 29.7177H603.046L604.277 28.7294L605.508 29.7647H607.84L609.123 28.7294C609.857 29.4118 610.564 30.0471 611.271 30.7059C612.633 30.9412 613.995 31.2471 614.964 29.8353H620.989L622.22 30.8471C623.504 31.0588 624.918 30.5647 626.359 31.2941L625.285 32.5177L630 34.7059C626.49 35.4824 611.821 35.6471 599.222 35.0588L598.305 34.2353H594.69L593.433 35.2471H586.308C585.915 34.9177 585.47 34.5412 585.051 34.1882C584.762 34.4471 584.474 34.7059 583.924 35.2C582.483 35.3412 580.728 35.2706 579 35.2L578.004 34.2824H571.927L570.67 35.1765H566.06C565.117 34.4471 563.912 34 562.392 34.1882L561.083 35.2471H554.01L552.7 36.3765H544.344C544.056 36.6353 543.768 36.8941 543.48 37.1529C543.323 37.2471 543.166 37.4588 543.009 37.4588C530.252 37.4588 517.495 37.4588 504.87 37.4588L503.272 38.7294L500.914 37.5294C500.102 37.3647 498.714 37.0588 497.745 38.4706H466.704L465.29 39.6H460.549L459.344 38.5647C458.453 38.353 457.903 38.7529 457.275 39.2941C456.305 40.1412 455.52 39.5294 454.681 38.6353L453.372 39.5529H450.071L448.552 40.6824H439.174L437.76 41.8118H425.894L424.558 42.9412H413.792L412.77 43.9059H409.234L407.741 45.0824L406.719 44.1412H401.716L400.564 45.2H394.565L393.465 46.2118H386.34L385.004 47.3412H380.237L379.215 48.3059H374.396C373.898 48.7529 373.636 49.0353 373.348 49.2706C372.405 50 370.964 48.9647 370.1 50.0471C369.366 50.9647 368.319 50.5647 367.376 50.6353C366.616 50.6824 365.83 50.5412 365.228 51.2C364.18 52.3529 361.953 51.0118 361.168 52.8H355.117L353.781 51.6706C353.519 52.3529 353.283 52.9882 353.047 53.6471C351.764 54.2588 350.375 53.8824 348.909 53.8824L348.097 51.7882L346.734 52.7294L345.529 51.8588L344.272 52.8235H340.605L337.75 49.9529C337.671 49.3412 337.54 48.4706 337.933 47.5059H341.836L343.067 48.3765H347.939L348.961 47.4353H352.419L353.833 46.3059H357.317L358.627 45.1765C360.591 45.1765 362.608 45.1765 364.599 45.1765C364.887 44.9177 365.175 44.6588 365.647 44.2118H369.235L370.44 43.1059H373.793L375.391 41.9765H380.866L385.266 39.7177H393.229L394.539 38.5882C397.709 38.5882 400.904 38.5882 404.1 38.5882C404.388 38.3294 404.676 38.0706 405.148 37.6235H411.146L412.404 36.4706H418.402L419.659 35.3177H426.837L427.963 34.2824H433.831L435.193 33.2C435.743 33.5765 436.345 33.9765 436.922 34.1412C437.157 34.7529 437.079 35.6 438.126 34.8471C437.812 34.5882 437.472 34.3294 436.922 34.1412L437.026 34.0706Z" fill="#5956FE"/>
</svg>
