<svg width="41" height="32" viewBox="0 0 41 32" fill="none" xmlns="http://www.w3.org/2000/svg">
<path d="M38.5 21H34.5V5.5C34.5 2.5 32 0 29 0H5.5C2.6875 0 0.5 2.25 0.5 5V9C0.5 10.125 1.375 11 2.5 11H7.5V25.25C7.5 28.6875 10.0625 31.8125 13.625 32H33.125C37.1875 32 40.5 28.75 40.5 24.6875V23C40.5 21.9375 39.5625 21 38.5 21ZM3.5 8V5C3.5 3.9375 4.375 3 5.5 3C6.5625 3 7.5 3.9375 7.5 5V8H3.5ZM10.5 25.25V5C10.5 4.3125 10.3125 3.625 10.0625 3H29C30.375 3 31.5 4.125 31.5 5.5V21H19.5C18.375 21 17.5 21.9375 17.5 23V25.5C17.5 30 10.5 30.4375 10.5 25.25ZM37.5 24.6875C37.5 27.0625 35.5 29 33.125 29H19.4375C20.0625 28 20.5 26.8125 20.5 25.5V24H37.5V24.6875Z" fill="#5956FE"/>
</svg>
