<svg width="29" height="32" viewBox="0 0 29 32" fill="none" xmlns="http://www.w3.org/2000/svg">
<path d="M20.0625 19C18.25 19 17.4375 20 14.5 20C11.5 20 10.6875 19 8.875 19C4.25 19 0.5 22.8125 0.5 27.4375V29C0.5 30.6875 1.8125 32 3.5 32H25.5C27.125 32 28.5 30.6875 28.5 29V27.4375C28.5 22.8125 24.6875 19 20.0625 19ZM25.5 29H3.5V27.4375C3.5 24.4375 5.875 22 8.875 22C9.8125 22 11.25 23 14.5 23C17.6875 23 19.125 22 20.0625 22C23.0625 22 25.5 24.4375 25.5 27.4375V29ZM14.5 18C19.4375 18 23.5 14 23.5 9C23.5 4.0625 19.4375 0 14.5 0C9.5 0 5.5 4.0625 5.5 9C5.5 14 9.5 18 14.5 18ZM14.5 3C17.75 3 20.5 5.75 20.5 9C20.5 12.3125 17.75 15 14.5 15C11.1875 15 8.5 12.3125 8.5 9C8.5 5.75 11.1875 3 14.5 3Z" fill="#5956FE"/>
</svg>
