<svg width="120" height="33" viewBox="0 0 120 33" fill="none" xmlns="http://www.w3.org/2000/svg">
<g clip-path="url(#clip0_2284_395)">
<path d="M29.7147 16.4044C29.7147 20.4801 28.1906 24.1927 25.7037 26.9472C22.9956 29.9471 19.15 31.8188 14.8825 31.8188C10.6149 31.8188 6.69497 29.9104 3.98688 26.8622C1.83267 24.4419 0.418217 21.2991 0.111535 17.8261C0.070644 17.3567 0.0483398 16.8854 0.0483398 16.4063C0.0483398 16.3619 0.0483398 16.3155 0.0501985 16.2711C0.0780787 12.6261 1.32525 9.28246 3.3921 6.65738C6.11135 3.19589 10.2488 0.988037 14.8806 0.988037C19.5124 0.988037 23.5736 3.15533 26.2947 6.55886C28.4285 9.22838 29.7147 12.6609 29.7147 16.4044Z" fill="#F4E9D4"/>
<path d="M16.5775 24.4921C19.9138 24.7026 22.9063 25.4927 25.172 26.6594C25.4415 26.7984 25.4973 27.1751 25.2817 27.3953C22.6033 30.1324 18.9306 31.8188 14.8787 31.8188C10.8267 31.8188 7.08522 30.0977 4.40315 27.3161C4.1894 27.094 4.24888 26.7154 4.5221 26.5802C6.76739 25.456 9.69666 24.6988 12.9568 24.494C13.5497 24.4573 14.1538 24.438 14.7653 24.438C15.3768 24.438 15.9846 24.4573 16.5775 24.494V24.4921Z" fill="#EE783C"/>
<path d="M29.5344 16.8912C29.5344 21.0442 22.9231 24.4129 14.7672 24.4129C6.61132 24.4129 0 21.0442 0 16.8912C0 12.7382 6.3065 9.52778 14.2022 9.37712C13.7802 9.36939 13.3583 9.352 12.9457 9.32496C9.36402 9.09896 6.18011 8.22007 3.86605 6.93167C3.61699 6.79259 3.55937 6.44683 3.74524 6.22469C6.46077 3.01432 10.4439 0.988037 14.8806 0.988037C19.3172 0.988037 23.2279 2.97569 25.9434 6.1339C26.1312 6.35218 26.0773 6.69794 25.8319 6.83895C23.5067 8.1795 20.2559 9.09317 16.5943 9.32496C16.1798 9.35007 15.7579 9.36939 15.336 9.37712C23.2298 9.52971 29.5381 12.8347 29.5381 16.8912H29.5344Z" fill="#EE783C"/>
<path d="M48.1928 17.229C55.2049 17.229 58.6752 14.3878 58.6752 9.60255C58.6752 4.81731 55.2049 1.97607 48.1928 1.97607H36.5298V2.163C37.9966 2.79854 38.8195 3.47146 38.8195 6.05101V23.9209C38.8195 26.5378 37.9251 27.3603 36.5298 27.9584V28.1454H49.6954V27.9584C47.2626 27.5098 46.3324 26.3509 46.3324 23.9209V17.229H48.1928ZM46.8691 3.06023C48.9441 3.06023 50.6256 5.86408 50.6256 9.60255C50.6256 13.341 48.9441 16.1449 46.8691 16.1449H46.3324V3.06023H46.8691Z" fill="#191919"/>
<path d="M59.2309 31.024C64.3469 31.024 67.7456 28.4818 67.7456 22.7993V6.05101C67.7456 4.21916 68.5684 2.79854 70.0353 2.163V1.97607H57.9429V2.163C59.4097 2.79854 60.2326 3.47146 60.2326 6.05101V24.5564C60.2326 28.3697 58.4796 30.2015 56.1899 30.2015H55.9037V30.5006C56.7265 30.8371 57.6925 31.024 59.2309 31.024Z" fill="#191919"/>
<path d="M68.9519 28.1454H85.0154L85.552 18.7992H85.3732C83.8706 23.9209 80.6507 27.136 77.0373 27.136H76.8584L86.1245 8.66793V8.5184H70.9554L69.8821 17.2664H70.061C71.3489 12.6307 74.4972 9.52778 77.8602 9.52778H78.2179L68.9519 27.9958V28.1454Z" fill="#191919"/>
<path d="M97.1175 23.1358C93.9335 23.1358 91.7869 20.9675 91.2502 16.743H101.554C101.554 9.63994 97.2249 7.95763 94.1839 7.95763C89.3183 7.95763 85.7765 12.4438 85.7765 18.7244C85.7765 25.2667 89.8192 28.7061 93.9335 28.7061C96.7955 28.7061 100.516 26.9864 101.482 21.2292L101.196 21.1544C100.23 22.575 98.9063 23.1358 97.1175 23.1358ZM93.3968 9.19132C94.8279 9.19132 95.5792 10.6493 95.5792 15.5841H91.1429C91.1071 15.2476 91.1071 14.9112 91.1071 14.5373C91.1071 11.1727 91.93 9.19132 93.3968 9.19132Z" fill="#191919"/>
<path d="M119.95 25.1546V13.3784C119.95 9.90163 118.018 7.95763 114.763 7.95763C112.366 7.95763 110.541 9.15394 109.754 11.3596V7.95763L101.204 10.4998V10.6867C102.491 11.0979 102.957 11.883 102.957 13.6775V25.1546C102.957 26.6874 102.205 27.5098 101.204 27.9584V28.1454H110.792V27.9584C110.04 27.5846 109.754 26.8743 109.754 25.5284V12.0326C110.148 11.4718 110.684 11.0979 111.507 11.0979C112.545 11.0979 113.153 11.8456 113.153 13.3784V25.5284C113.153 26.8743 112.867 27.5846 112.115 27.9584V28.1454H121.703V27.9584C120.702 27.5098 119.95 26.6874 119.95 25.1546Z" fill="#191919"/>
</g>
<defs>
<clipPath id="clip0_2284_395">
<rect width="120" height="33" fill="white"/>
</clipPath>
</defs>
</svg>
