<svg width="178" height="177" viewBox="0 0 178 177" fill="none" xmlns="http://www.w3.org/2000/svg">
<mask id="mask0_2284_782" style="mask-type:luminance" maskUnits="userSpaceOnUse" x="0" y="0" width="178" height="177">
<path d="M88.9999 177C137.877 177 177.5 137.377 177.5 88.5C177.5 39.6228 137.877 0 88.9999 0C40.1227 0 0.5 39.6228 0.5 88.5C0.5 137.377 40.1227 177 88.9999 177Z" fill="white"/>
</mask>
<g mask="url(#mask0_2284_782)">
<path d="M225.392 -28.4698H-22.231V223.125H225.392V-28.4698Z" fill="white"/>
<path d="M178.111 66.3118C177.147 66.2682 175.971 66.3159 176.379 66.9897C176.906 66.9093 177.204 66.9297 177.517 66.9434C177.828 66.9557 178.151 66.9638 178.72 66.8261C179.497 67.0061 179.994 67.4085 179.808 67.5558C180.117 67.5094 180.966 68.021 181.471 67.8205C181.03 67.4726 180.498 67.2107 179.904 67.0129C179.31 66.8097 178.646 66.6951 177.944 66.631C177.702 66.425 178.017 66.3841 178.113 66.3118H178.111Z" fill="#C0EBE3"/>
<path d="M148.942 3.27132L148.882 3.78283C148.916 3.6437 148.935 3.46774 148.942 3.27132Z" fill="#C0EBE3"/>
<path d="M148.943 3.27196C148.973 3.05235 148.988 2.83137 149.005 2.61039L149.057 1.94475C148.967 1.90383 148.944 2.07569 148.941 2.33759C148.94 2.46853 148.944 2.62131 148.948 2.78226C148.949 2.86274 148.951 2.94459 148.953 3.0278C148.951 3.10964 148.947 3.19148 148.944 3.27196H148.943Z" fill="#C0EBE3"/>
<path d="M167.693 63.2249C167.948 63.3312 168.174 63.394 168.39 63.4349C168.18 63.349 167.978 63.2644 167.772 63.1703C167.747 63.1907 167.726 63.2071 167.693 63.2235V63.2249Z" fill="#C0EBE3"/>
<path d="M148.214 24.3252L148.23 24.7085C148.296 24.819 148.373 24.9213 148.461 25.0168L148.214 24.3252Z" fill="#C0EBE3"/>
<path d="M150.893 39.8944C150.795 39.5534 150.331 39.5739 150.098 39.5029C150.338 39.6393 150.501 39.8658 150.641 40.1495C150.724 40.1263 150.807 40.0485 150.893 39.8944Z" fill="#C0EBE3"/>
<path d="M165.487 59.7627L165.902 59.9524C165.793 59.906 165.616 59.8146 165.487 59.7627Z" fill="#C0EBE3"/>
<path d="M148.688 12.8844C148.758 12.8639 148.822 12.8121 148.863 12.7534C148.805 12.748 148.747 12.8012 148.688 12.8844Z" fill="#C0EBE3"/>
<path d="M31.9137 137.073C31.8796 137.081 31.8741 137.109 31.8481 137.122C31.9409 137.171 31.9832 137.175 31.9137 137.073Z" fill="#C0EBE3"/>
<path d="M41.9078 153.025L41.7114 152.85C41.6296 152.888 41.5477 152.924 41.4863 152.981L41.9078 153.025Z" fill="#C0EBE3"/>
<path d="M62.5686 113.434C62.2999 113.503 62.1402 113.509 62.0707 113.49C62.0011 113.471 62.0175 113.422 62.0871 113.355C62.2289 113.226 62.5563 113.005 62.8154 112.78C63.0787 112.556 63.2778 112.331 63.2601 112.245C63.2505 112.201 63.1906 112.194 63.0515 112.229C62.911 112.263 62.6967 112.345 62.3612 112.451C62.4376 112.46 62.3611 112.58 62.2152 112.733C62.0706 112.887 61.8524 113.074 61.675 113.224C61.5032 113.38 61.3751 113.504 61.4774 113.573C61.5278 113.608 61.6356 113.625 61.8142 113.609C61.9056 113.602 62.012 113.586 62.1375 113.557C62.2658 113.531 62.4063 113.489 62.5686 113.433V113.434Z" fill="#C0EBE3"/>
<path d="M167.345 62.9618C167.147 62.8554 166.945 62.7476 166.749 62.6303C167.012 62.7954 167.195 62.8977 167.345 62.9618Z" fill="#C0EBE3"/>
<path d="M62.3618 112.453V112.45C62.269 112.481 62.1776 112.511 62.0835 112.536C62.2008 112.506 62.2649 112.485 62.3618 112.454V112.453Z" fill="#C0EBE3"/>
<path d="M61.0557 14.4793C61.1593 14.4548 61.2876 14.3661 61.4131 14.2679C61.3667 14.2556 61.2725 14.2952 61.0557 14.4793Z" fill="#C0EBE3"/>
<path d="M55.9837 27.1544C55.8391 27.4763 55.741 27.569 55.6455 28.0437C55.6823 28.0083 55.7109 27.9728 55.745 27.9237C55.7423 27.7395 55.7873 27.5104 55.9837 27.1557V27.1544Z" fill="#C0EBE3"/>
<path d="M52.3584 40.7511C52.4061 40.6843 52.4498 40.5929 52.4961 40.5138C52.5111 40.3746 52.5412 40.215 52.5617 40.0732C52.4907 40.2982 52.4238 40.5247 52.3597 40.7511H52.3584Z" fill="#C0EBE3"/>
<path d="M11.3774 100.894C11.3692 101.22 11.3078 101.445 11.2314 101.632C11.4538 101.317 12.3049 103.142 11.3774 100.894Z" fill="#C0EBE3"/>
<path d="M167.81 62.9973C167.681 63.0574 167.549 63.0464 167.346 62.9605C167.492 63.0355 167.632 63.1064 167.771 63.1706C167.841 63.131 167.879 63.0792 167.81 62.996V62.9973Z" fill="#C0EBE3"/>
<path d="M59.1946 28.8637L58.8209 29.8703L58.634 30.3737L58.4595 30.8824C58.5659 30.6015 58.6873 30.2768 58.8169 29.9344C58.9451 29.5907 59.0732 29.2265 59.1946 28.8637Z" fill="#C0EBE3"/>
<path d="M39.7245 34.8857L39.2554 34.7466C39.4231 34.8284 39.5868 34.8843 39.7245 34.8857Z" fill="#C0EBE3"/>
<path d="M56.8234 37.0629C56.5806 37.4012 56.3978 37.7791 56.2437 38.1774C56.2587 38.2728 56.2641 38.3792 56.3009 38.4474L56.8234 37.0616V37.0629Z" fill="#C0EBE3"/>
<path d="M11.2285 101.639L11.2312 101.633C11.2312 101.633 11.2285 101.633 11.2285 101.639Z" fill="#C0EBE3"/>
<path d="M18.1985 114.205C17.2628 112.36 17.2327 113.608 16.7253 113.372C15.4581 111.229 16.6053 112.147 16.5016 111.259C16.0828 110.606 15.6395 110.063 15.2235 109.558C14.8075 109.053 14.4446 108.577 14.2141 108.047C14.2673 107.927 14.2073 107.708 14.4283 107.895C14.1514 107.573 13.8785 107.138 13.6207 106.638C13.3643 106.137 13.1093 105.576 12.8487 105.009C12.5896 104.44 12.3386 103.86 12.0603 103.331C11.7807 102.802 11.4984 102.314 11.1833 101.925C11.1792 101.773 11.1996 101.687 11.2282 101.638C11.0645 102.037 10.8 102.195 10.5749 102.217C10.3962 101.783 10.1479 101.413 9.97195 101.093C9.79599 100.772 9.70462 100.497 9.82329 100.263C10.0156 100.805 10.1779 100.794 10.3921 100.999C10.2161 100.716 10.0538 100.428 9.8833 100.143C9.98969 99.6305 10.1534 99.9265 10.3389 100.332C10.5203 100.738 10.7426 101.246 10.935 101.17C10.7099 100.746 10.4767 100.304 10.2407 99.861C10.002 99.4177 9.75783 98.9717 9.53003 98.5338C9.09354 97.6526 8.70207 96.8083 8.54384 96.0895C8.95032 95.6284 9.8601 99.2499 9.66504 97.2516L9.94331 98.3497L10.242 99.4436C10.4466 97.5285 10.669 100.744 10.9787 98.9403C10.8682 98.587 10.759 98.2787 10.6622 97.9964C10.5653 97.7154 10.4726 97.4644 10.3826 97.2339C10.2025 96.7742 10.0306 96.3977 9.86012 96.0199C9.69507 95.6407 9.53276 95.2615 9.36226 94.7991C9.19176 94.3367 9.00626 93.7924 8.83303 93.0763C8.34471 92.5334 8.46747 93.4214 7.97778 92.8771C7.75817 92.3943 7.59174 91.9769 7.48398 91.6086C7.37759 91.2389 7.31484 90.9211 7.28211 90.6415C7.218 90.0809 7.27258 89.673 7.33805 89.2993C7.40625 88.9255 7.47988 88.5873 7.44169 88.1699C7.42259 87.9612 7.3762 87.732 7.2889 87.4687C7.24525 87.3364 7.19069 87.1959 7.12386 87.0445C7.05975 86.8931 6.9861 86.7294 6.89607 86.5535C6.62736 86.2097 6.30547 86.0024 6.0313 85.6014C5.89626 85.4009 5.76799 85.1526 5.6725 84.813C5.58111 84.4733 5.51706 84.0437 5.49387 83.4871L6.25635 84.09C6.12404 83.3889 5.98354 82.9511 5.84168 82.6401C5.69982 82.3291 5.57021 82.1422 5.44199 81.9499C5.31513 81.7575 5.1992 81.5584 5.10644 81.2174C5.01778 80.8764 4.93323 80.3962 4.92641 79.6378C5.00689 79.7592 5.0819 79.957 5.14874 80.178C5.21967 80.3976 5.28652 80.6404 5.34109 80.8545C5.45021 81.2828 5.51705 81.5966 5.51432 81.377C5.57979 80.3812 5.43108 80.062 5.24285 79.8029C5.05052 79.5451 4.80771 79.35 4.69177 78.6121L5.1883 78.226C4.66042 75.247 3.94431 71.9515 3.76425 68.5782C3.93476 68.761 4.12844 69.3298 4.26757 68.5427C4.22529 68.0162 4.20212 67.4802 4.18166 66.9373C4.17347 66.6658 4.16666 66.393 4.15848 66.1175C4.16393 65.8433 4.16934 65.5678 4.1748 65.2909C4.19116 64.7385 4.20753 64.1806 4.243 63.624C4.29074 63.0675 4.34396 62.511 4.40125 61.9558C4.45035 61.4007 4.54176 60.8509 4.62497 60.304C4.66862 60.0312 4.71086 59.7597 4.75451 59.4883C4.77634 59.3532 4.79816 59.2182 4.81998 59.0845C4.84726 58.9509 4.87322 58.8172 4.90051 58.6849C5.01099 58.1543 5.12143 57.6305 5.22919 57.1149C5.25647 56.9867 5.28377 56.8584 5.31105 56.7316C5.34378 56.6047 5.37515 56.4792 5.40789 56.3537C5.472 56.1041 5.53616 55.8559 5.59891 55.6117L5.4966 54.8096C5.46114 54.5409 5.42699 54.2722 5.40789 54.0049C5.48837 53.6529 5.75713 53.3951 5.76668 53.7934C6.27001 52.2903 5.48839 53.6529 5.46384 52.87C5.61934 51.9793 5.9767 51.7678 5.99853 52.3557C6.0149 52.0025 6.06948 51.6205 6.11994 51.2072C6.17314 50.7953 6.23314 50.3547 6.3027 49.895C6.33408 49.6645 6.37908 49.4326 6.42819 49.198C6.47729 48.9634 6.52644 48.7247 6.57691 48.4832C6.63011 48.2418 6.68326 47.999 6.73782 47.7548C6.79648 47.5107 6.84426 47.2624 6.91792 47.0224C7.05569 46.5381 7.20163 46.0539 7.35304 45.5792C7.42806 45.3419 7.50577 45.1073 7.58488 44.8767C7.67082 44.6544 7.75951 44.4389 7.84817 44.2275C7.93683 44.016 8.02685 43.8087 8.11824 43.6082C8.21373 43.409 8.32015 43.2235 8.42109 43.0407C8.62706 42.6793 8.8221 42.3396 9.05262 42.0614C9.01034 42.2455 8.96125 42.4256 8.9326 42.6152C8.96534 42.5551 8.99807 42.4965 9.02944 42.4392C9.06218 42.3833 9.09355 42.3287 9.12355 42.2755C9.18221 42.1678 9.23403 42.0641 9.2804 41.9645C9.3718 41.764 9.43864 41.5744 9.49047 41.3943C9.53821 41.2116 9.59274 41.0506 9.62821 40.8869C9.6664 40.7246 9.6978 40.5664 9.72918 40.4095C9.76191 40.2527 9.79466 40.0958 9.83967 39.9389C9.89151 39.7875 9.95424 39.6334 10.0361 39.4765C10.1179 39.3197 10.2175 39.1573 10.3457 38.9909C10.3771 38.9486 10.4112 38.9077 10.4466 38.8641C10.4848 38.8231 10.5244 38.7836 10.5667 38.7427C10.6513 38.6608 10.7426 38.5776 10.8436 38.4944L10.669 38.8545C11.422 37.9229 12.2526 37.0308 13.1433 36.2069C13.3711 36.0064 13.5989 35.8073 13.8253 35.6081C14.0641 35.4226 14.3028 35.2385 14.5401 35.0543C14.6002 35.0093 14.6574 34.9602 14.7188 34.9179L14.9043 34.7924C15.0284 34.7092 15.1512 34.626 15.2754 34.5428C15.3995 34.461 15.5209 34.375 15.645 34.2959C15.7732 34.2223 15.9001 34.1486 16.0283 34.0749C16.5289 33.7667 17.0568 33.5252 17.5683 33.2824C18.0962 33.0751 18.6063 32.8623 19.1287 32.7245C19.6389 32.5595 20.1572 32.4722 20.6455 32.3822C20.8924 32.344 21.1394 32.3276 21.3767 32.3058C21.6154 32.288 21.8459 32.2676 22.0764 32.2785C22.2115 32.0848 22.5729 31.9416 23.0448 31.8543C23.5195 31.7793 24.0951 31.7247 24.6653 31.7179C25.2314 31.6851 25.7894 31.7015 26.2232 31.6347C26.6569 31.5774 26.9733 31.4778 27.0578 31.2377C28.4464 31.516 28.9184 31.7411 29.5336 31.9484C29.6864 32.0016 29.8487 32.0507 30.0342 32.108C30.2197 32.1707 30.4284 32.2362 30.6766 32.3071C30.9249 32.3794 31.214 32.4531 31.5537 32.5595C31.7242 32.61 31.9084 32.6632 32.1076 32.7218C32.2071 32.7505 32.3108 32.7805 32.4186 32.8105C32.5264 32.8446 32.6367 32.8814 32.7527 32.9182C33.2505 33.0574 33.6598 32.9905 34.1073 32.9455C34.5547 32.895 35.0456 32.8255 35.684 32.9796L35.5681 33.4652C36.1792 33.4625 36.7903 33.4952 37.4096 33.5252C37.6428 33.8103 37.8624 34.1199 38.082 34.4146L38.6726 34.5728C38.8691 34.6287 39.0628 34.6901 39.2578 34.7488C38.8254 34.5264 38.3849 34.1527 38.5049 34.0463C38.6222 34.0763 38.7408 34.1104 38.8609 34.1472C38.9809 34.1868 39.0997 34.2332 39.2211 34.2809C39.4625 34.3764 39.7053 34.4855 39.944 34.6001C40.4214 34.8306 40.8715 35.1157 41.2671 35.3735C42.0446 35.9191 42.5724 36.4129 42.5315 36.5425C43.9269 37.1099 45.2978 37.7578 46.6496 38.4589C46.5514 38.5176 46.3399 38.4494 46.0712 38.3553C45.8039 38.2598 45.4901 38.1234 45.2023 38.0211C45.7806 38.2284 46.0794 38.3757 46.2295 38.4903C46.3781 38.609 46.3822 38.6922 46.3794 38.7727C46.3767 38.935 46.3468 39.0823 47.3943 39.497C47.2143 39.2337 47.693 39.3428 47.7912 39.2896C47.9753 39.5106 48.2414 39.7671 48.5619 40.0412C48.8797 40.3195 49.2439 40.6278 49.6381 40.9333C50.0309 41.2429 50.4361 41.5717 50.8508 41.8786C51.2586 42.1923 51.6583 42.5033 52.0375 42.7775L51.5409 42.8116C52.7877 43.9233 54.1081 45.0895 55.4081 46.3567C56.7093 47.6212 57.9846 48.9948 59.1345 50.4816C58.4238 49.3262 59.0745 49.1871 59.8165 50.0328C59.7715 50.2565 59.7239 50.4802 59.6707 50.7066C60.0144 50.8949 59.8806 50.633 59.8111 50.4393C59.7374 50.2497 59.7333 50.1201 60.3348 50.5961C61.1396 51.7801 60.4194 51.7133 59.8001 51.1704L60.3853 51.8033L60.9501 52.4526C60.8778 52.6245 60.5805 52.3435 60.3581 52.3735C60.6882 52.5672 61.0141 53.2396 61.3401 53.9462C61.6852 54.6432 62.0277 55.3716 62.5351 55.6553L62.4491 55.8163C62.9115 56.6238 63.3194 57.3181 63.6618 57.9606C64.0233 58.5948 64.3151 59.1814 64.6125 59.7406C64.7653 60.0189 64.8908 60.304 65.03 60.5836C65.165 60.866 65.3054 61.147 65.4377 61.4402C65.5646 61.7362 65.6928 62.039 65.8279 62.3555C65.8933 62.5151 65.9656 62.6747 66.0283 62.8438C66.0911 63.013 66.1539 63.1862 66.2194 63.3635C66.4431 63.3144 66.6313 63.5804 66.8454 63.9514C67.0555 64.3252 67.2683 64.8094 67.5847 65.1941C67.657 65.4682 67.7088 65.7519 67.762 66.0384C67.8139 66.3248 67.8671 66.614 67.9216 66.9086C67.9748 67.2019 68.0075 67.5034 68.0526 67.8048C68.0935 68.1076 68.1427 68.4118 68.1795 68.7214C68.2136 69.0311 68.2491 69.3448 68.2873 69.6599C68.3077 69.8168 68.3281 69.975 68.3485 70.1346C68.3676 70.2942 68.38 70.4551 68.3977 70.6161C68.4318 70.938 68.4686 71.2626 68.5123 71.59C68.5559 71.916 68.5928 72.2625 68.6419 72.6021C68.8683 73.5515 68.9761 73.6838 69.0784 73.6811C69.1807 73.6783 69.2734 73.5406 69.4548 73.9634C69.257 74.0562 69.238 74.79 69.2025 75.3247C69.1712 75.8594 69.1303 76.195 68.9229 75.4953C69.0962 77.1416 69.1698 78.1974 69.2707 79.3609C69.3198 79.9434 69.3703 80.5544 69.4316 81.2801C69.4917 82.0071 69.5571 82.8515 69.6199 83.9032C69.7986 83.4517 69.8791 82.9361 70.0168 83.2048C70.0755 83.9727 69.8041 84.9425 69.6063 84.8252L69.5694 84.6234C69.8095 86.9927 69.2966 89.7085 68.6596 92.217C68.3431 93.4746 67.9995 94.6859 67.7239 95.8112C67.4484 96.9379 67.2411 97.9786 67.207 98.9226L67.2192 98.7125C67.0323 99.9783 66.7963 101.239 66.4935 102.481C66.1484 103.287 66.1689 103.011 66.1894 102.679C66.2099 102.346 66.2193 101.956 65.8756 102.509C65.4759 104.521 64.7258 105.958 63.906 107.138C63.494 107.729 63.0589 108.255 62.6156 108.745C62.1709 109.233 61.7167 109.683 61.2516 110.074C60.976 110.053 60.7128 110.034 60.4959 110C60.3881 109.979 60.2927 109.959 60.2054 109.933C60.1194 109.907 60.0416 109.876 59.9597 109.84C59.7988 109.768 59.5929 109.674 59.3255 109.46C59.1932 109.355 59.0514 109.229 58.9041 109.079C58.7581 108.926 58.608 108.755 58.4593 108.565C58.1633 108.182 57.877 107.731 57.6191 107.251C57.3627 106.768 57.1349 106.256 56.9453 105.74C56.5661 104.709 56.341 103.669 56.3205 102.786L56.0901 103.05C55.5963 102.244 55.9945 101.949 55.9181 101.289C55.7176 101.427 55.8744 102.305 55.6003 101.787C55.101 99.9197 54.7847 97.9459 54.5855 95.9353C54.5364 95.432 54.4941 94.9287 54.4572 94.4185C54.4231 93.9015 54.3905 93.3832 54.3564 92.8649C54.2964 91.8268 54.2445 90.7861 54.2036 89.744C54.0399 85.5741 54.0235 81.3838 53.9962 77.2876C53.9771 75.7899 53.5952 75.3779 53.2855 74.8623C53.13 74.6045 52.9937 74.3222 52.9309 73.8652C52.8709 73.4083 52.8927 72.7781 53.0468 71.8301L53.6007 72.894C53.2215 69.8781 53.2324 66.7804 53.336 63.7113C53.4397 60.6395 53.6361 57.5991 53.6143 54.6337C53.7098 54.9952 53.868 55.0183 53.8202 55.5912C54.284 54.38 54.2649 51.0135 53.9608 50.9549C54.0985 50.0451 54.269 50.7748 54.4913 50.2319C54.6727 49.6263 54.6578 48.8379 54.6428 48.1204C54.6346 47.7617 54.6347 47.422 54.6688 47.1342C54.7015 46.8464 54.7628 46.6118 54.8828 46.4617C54.9619 46.3594 54.9565 46.8259 54.9538 47.0551C54.9374 46.8478 54.9661 46.5108 55.0098 46.133C55.0534 45.7552 55.112 45.3364 55.1665 44.9681C55.2689 44.2302 55.3057 43.6805 55.022 44.0256C55.0943 43.7582 55.1557 43.4909 55.2089 43.2262C55.2676 42.963 55.3193 42.7011 55.3644 42.4419C55.4571 41.9236 55.5252 41.4134 55.6003 40.9197C55.6807 40.4272 55.7599 39.9471 55.8582 39.4861C55.9073 39.2555 55.9605 39.0305 56.0219 38.8109C56.0873 38.5926 56.1596 38.3798 56.2414 38.1725C56.1282 37.56 56.3874 36.6475 56.6383 35.84C56.8798 35.0298 57.0708 34.3082 56.7843 34.0408C57.1185 34.2127 57.5141 33.322 57.8483 32.2171C58.0242 31.6674 58.1825 31.0618 58.3012 30.5039C58.4226 29.946 58.5249 29.4427 58.5508 29.0853C58.6122 29.5954 59.1523 28.0159 59.2682 28.6324C59.7825 27.1456 60.1685 25.7489 59.7238 25.8703C60.2012 25.2742 60.5231 24.6208 60.7919 23.9647C61.0688 23.3141 61.2665 22.647 61.4656 22.0223C61.6784 21.4044 61.8817 20.8233 62.1382 20.335C62.2637 20.0895 62.4177 19.8753 62.5855 19.6884C62.7546 19.5029 62.9443 19.3474 63.1625 19.2315C64.0587 17.0763 65.0409 15.0412 66.1553 13.1493C66.2931 12.9119 66.4225 12.6691 66.5685 12.4386C66.7131 12.2081 66.8578 11.9776 67.0024 11.7484C67.1469 11.5192 67.2915 11.2901 67.4361 11.0623L67.6529 10.7213L67.8821 10.3898C68.189 9.94924 68.4946 9.51138 68.7988 9.07489C69.1125 8.64522 69.4412 8.23055 69.7617 7.81042C69.8763 7.95774 69.7509 8.25647 69.5094 8.62749C69.3894 8.813 69.2366 9.01351 69.0784 9.22902C68.9229 9.44727 68.7551 9.6737 68.59 9.89876C68.4236 10.1238 68.26 10.3462 68.1113 10.5562C67.9626 10.7663 67.8316 10.9627 67.743 11.1441C67.5588 11.5015 67.5002 11.762 67.6816 11.8371C67.8084 11.6243 67.9312 11.4156 68.0512 11.2137C68.1699 11.0091 68.2981 10.8195 68.4154 10.6272C68.6528 10.2452 68.8779 9.87558 69.0934 9.51411C69.148 9.42409 69.2011 9.33405 69.2543 9.24539C69.3103 9.15946 69.3661 9.07352 69.4221 8.98759C69.5339 8.81708 69.643 8.64795 69.7521 8.48017C69.9717 8.14462 70.1886 7.81452 70.4055 7.48578C70.6333 7.16523 70.8707 6.85151 71.1135 6.53505C71.359 6.21996 71.6045 5.89396 71.8828 5.58296C72.1638 5.27332 72.4584 4.95959 72.7749 4.63904C72.9331 4.47945 73.0969 4.31713 73.266 4.15345C73.4406 3.99522 73.6247 3.83836 73.8129 3.67876C74.2235 3.3664 74.1703 3.52463 73.9944 3.7988C73.8198 4.07433 73.5183 4.46035 73.446 4.63222C74.7732 3.15906 76.2177 1.88642 77.7059 0.767909C77.8901 0.626049 78.0728 0.48419 78.257 0.342331C78.4384 0.199107 78.6198 0.0572501 78.8094 -0.0723333C79.1831 -0.339684 79.5514 -0.607033 79.9142 -0.87984C80.0956 -1.01624 80.2758 -1.15265 80.4558 -1.28905C80.64 -1.41863 80.8227 -1.54958 81.0028 -1.68189C81.3642 -1.94788 81.7189 -2.21932 82.0654 -2.50031C82.0926 -2.43757 81.8103 -2.1675 81.5375 -1.92606C81.8253 -2.12248 82.1772 -2.32299 82.4337 -2.49213C82.6942 -2.65582 82.851 -2.80586 82.7323 -2.92862C82.5523 -2.78676 82.3668 -2.65446 82.1922 -2.50578C81.8948 -2.45804 81.8581 -2.58079 81.9726 -2.79767C82.0845 -3.01728 82.3654 -3.30646 82.6792 -3.62019C82.9943 -3.93119 83.3502 -4.25856 83.6257 -4.52591C83.7621 -4.66232 83.8849 -4.77416 83.9709 -4.86283C84.0568 -4.95285 84.1073 -5.01969 84.1059 -5.05515C83.7963 -4.35813 84.6161 -4.71823 85.3636 -5.00468C86.1124 -5.29795 86.7917 -5.4971 86.2202 -4.53273C86.3143 -4.59957 86.4125 -4.67732 86.5053 -4.75234C86.5994 -4.826 86.6867 -4.90239 86.7549 -4.97604C86.8927 -5.12336 86.9595 -5.2584 86.8627 -5.33615C87.5133 -5.5694 87.7616 -5.54211 87.2432 -5.02105C88.3358 -5.62941 88.644 -5.93087 88.9509 -6.16821C89.2538 -6.41237 89.5416 -6.62516 90.5987 -7.06029C90.6505 -6.90751 90.2482 -6.6729 90.1036 -6.40828C90.3396 -6.59106 90.5756 -6.77384 90.828 -6.95662C91.083 -7.12985 91.3557 -7.2949 91.6558 -7.45995C91.9559 -7.62363 92.2847 -7.78187 92.6557 -7.93464C92.8412 -8.00966 93.0349 -8.08741 93.245 -8.15288C93.4551 -8.21563 93.6774 -8.27701 93.9134 -8.3343C93.8329 -8.20744 94.0852 -8.15561 93.5368 -7.98237C94.3225 -8.24563 95.036 -8.53617 95.7221 -8.83353C96.4178 -9.10361 97.0875 -9.38461 97.7723 -9.65741C97.9441 -9.72425 98.1145 -9.79654 98.2891 -9.85929C98.4651 -9.91794 98.6425 -9.97659 98.8212 -10.0366C99.1799 -10.1526 99.5482 -10.2644 99.9288 -10.3694C100.311 -10.4704 100.704 -10.5809 101.121 -10.6532C101.538 -10.7255 101.973 -10.7882 102.432 -10.8373C101.503 -9.94659 103.699 -10.8509 103.992 -10.2849L105.901 -10.7595L105.077 -10.9301C106.774 -11.2056 108.247 -11.788 109.747 -11.7689L108.498 -11.3734L109.297 -11.4961L109.697 -11.5575C109.83 -11.5766 109.964 -11.5903 110.099 -11.6066L111.709 -11.7949L109.858 -11.874C111.58 -12.3268 109.598 -12.6201 111.927 -12.6406C111.694 -12.5901 112.129 -12.6242 112.738 -12.6351C113.348 -12.631 114.134 -12.5887 114.595 -12.4332C114.595 -12.4332 114.589 -12.4332 114.589 -12.4319C115.015 -12.5492 115.447 -12.6678 115.936 -12.747C116.424 -12.8192 116.97 -12.8342 117.615 -12.7715C117.952 -12.5833 117.358 -12.099 117.578 -11.9735C117.746 -12.0772 118.012 -12.1481 118.338 -12.1986C118.5 -12.2245 118.679 -12.245 118.867 -12.2614C118.961 -12.2695 119.058 -12.2764 119.156 -12.2845C119.29 -12.2914 119.425 -12.2995 119.563 -12.3064C119.733 -12.3473 119.906 -12.3882 120.082 -12.4305C120.231 -12.4632 120.38 -12.496 120.528 -12.5287C120.827 -12.5928 121.126 -12.6556 121.407 -12.7197C121.969 -12.8493 122.463 -12.9911 122.761 -13.1848C122.422 -13.0184 122.444 -12.7019 122.565 -12.6501C122.78 -12.8124 122.999 -12.9761 123.22 -13.1357C124.029 -13.0839 124.147 -13.0252 124.041 -12.7633C125.229 -12.8179 125.03 -12.9884 124.885 -13.1412C124.739 -13.2871 124.655 -13.4262 126.088 -13.3253C125.866 -13.2817 125.975 -13.2271 125.514 -13.1425C126.942 -13.1262 128.314 -13.1957 129.662 -13.1821C131.007 -13.1725 132.333 -13.0798 133.594 -12.7483C133.914 -12.3773 133.354 -12.451 132.81 -12.5096C132.263 -12.5655 131.734 -12.6215 132.13 -12.3091C133.956 -12.1222 135.849 -11.8808 137.657 -11.342C138.558 -11.0733 139.437 -10.7309 140.251 -10.2985C141.065 -9.86611 141.814 -9.34368 142.453 -8.73941C142.38 -8.82262 142.304 -8.90037 142.225 -8.97675L141.99 -9.21001C142.444 -9.39279 142.926 -8.88264 143.381 -8.17198C143.503 -8.00147 143.609 -7.80505 143.728 -7.61408C143.785 -7.51724 143.849 -7.42448 143.907 -7.32627C143.964 -7.2267 144.023 -7.12849 144.084 -7.03165C144.145 -6.9348 144.209 -6.84068 144.276 -6.74656C144.338 -6.64971 144.403 -6.55559 144.471 -6.4642C144.54 -6.37281 144.612 -6.28415 144.688 -6.19958C144.763 -6.11364 144.836 -6.02771 144.917 -5.94724C144.846 -6.03044 144.766 -6.08636 144.69 -6.12183C144.612 -6.15593 144.534 -6.16685 144.473 -6.16957C144.349 -6.1723 144.282 -6.13002 144.354 -6.11092C144.435 -5.98952 144.504 -5.85994 144.579 -5.73172C144.653 -5.60486 144.729 -5.47801 144.808 -5.35115C144.88 -5.22021 144.953 -5.08926 145.027 -4.95831C145.1 -4.826 145.182 -4.69778 145.249 -4.55865C145.389 -4.28448 145.548 -4.01166 145.681 -3.71703C145.752 -3.57108 145.824 -3.42377 145.898 -3.27509C145.965 -3.12231 146.033 -2.96682 146.101 -2.80995C146.657 -1.55095 147.134 -0.047778 147.423 1.81549L147.161 1.37354C147.153 1.55632 147.152 1.75138 147.153 1.95735C147.15 2.16332 147.149 2.38157 147.146 2.60663C147.156 3.0554 147.138 3.53691 147.134 4.02114C147.135 4.26257 147.114 4.50674 147.105 4.74817C147.092 4.98961 147.086 5.22694 147.066 5.46019C147.019 5.92533 146.985 6.36728 146.917 6.75739C147.086 7.24299 146.954 8.14598 147.33 7.63447C146.875 8.83482 146.607 10.0556 146.481 11.2573C146.347 12.4604 146.336 13.6526 146.351 14.8257C146.362 15.9987 146.41 17.1527 146.376 18.2903C146.351 19.4293 146.247 20.5505 145.987 21.6745C145.987 21.1371 145.801 20.3896 145.797 20.8179C145.852 22.0987 145.936 23.3782 146.048 24.6535C146.407 24.3384 146.26 24.1434 146.528 23.3345C146.646 23.5732 146.753 23.9592 146.835 24.4026C146.925 24.8459 146.984 25.3451 147.011 25.8143C146.687 24.1202 146.404 25.8539 146.247 26.615C146.355 26.4827 146.496 26.7296 146.607 26.66C146.344 27.6776 146.543 27.7513 146.768 27.9068C146.882 27.9845 147.006 28.0841 147.089 28.3351C147.175 28.5861 147.206 28.9871 147.175 29.6732L146.963 29.5518C147.017 29.8014 147.079 30.0456 147.143 30.287C147.213 30.5284 147.281 30.7671 147.351 31.0099C147.48 31.4942 147.614 31.9866 147.666 32.5308C147.307 33.0492 147.303 31.4928 146.943 31.4724C147.004 31.8543 147.118 32.2267 147.244 32.5922C147.377 32.9564 147.53 33.3124 147.665 33.6644C147.805 34.0163 147.936 34.3627 148.018 34.7133C148.104 35.0625 148.152 35.4144 148.119 35.7786C147.992 35.4717 147.872 35.0884 147.764 34.7038C147.659 34.3177 147.549 33.9317 147.433 33.618C147.374 34.0163 147.349 34.3246 147.337 34.5824C147.325 34.8402 147.33 35.0448 147.352 35.2344C147.396 35.6136 147.467 35.9355 147.566 36.5002L147.551 36.3883C147.618 36.8262 147.681 37.2654 147.761 37.7005L147.877 38.3566L148.008 39.0114L147.951 38.3239C148.156 38.5217 148.329 38.7263 148.479 38.9391C148.554 39.0455 148.623 39.1532 148.688 39.2637C148.754 39.3728 148.817 39.4847 148.874 39.5979C148.99 39.8243 149.091 40.059 149.184 40.3004C149.282 40.5391 149.372 40.786 149.461 41.0383C149.824 42.0409 150.203 43.1471 151.077 44.177C150.247 43.169 150.12 43.0967 150.121 43.3026C150.121 43.5072 150.277 43.9683 150.012 43.9778C150.15 44.6544 150.47 45.6515 150.217 45.4455C150.439 45.6897 150.597 45.9339 150.726 46.1876C150.855 46.4413 150.946 46.7086 151.068 46.9801C151.187 47.2529 151.315 47.5407 151.507 47.8353C151.705 48.1259 151.95 48.4328 152.308 48.7356C152.214 48.887 153.013 49.8855 152.53 49.8596C153.553 51.1649 152.538 49.3849 152.791 49.3931C153.698 50.3042 154.408 51.5932 155.335 52.9355C155.56 53.2751 155.813 53.6025 156.068 53.9408C156.328 54.2749 156.611 54.5982 156.905 54.9201C157.209 55.2325 157.525 55.5408 157.869 55.8272C158.043 55.9677 158.221 56.1055 158.405 56.2392C158.588 56.3728 158.777 56.5011 158.976 56.617C160.223 57.5636 161.08 57.9647 161.893 58.3561C162.719 58.7285 163.506 59.0886 164.749 59.7584C165.072 60.1294 164.834 60.1417 164.509 60.0571C164.186 59.9739 163.778 59.7952 163.778 59.7952C164.922 60.8673 165.954 61.4539 167.305 62.0254C166.979 61.9995 167.185 62.2491 167.491 62.6242C168.013 62.8997 168.26 62.8575 168.525 62.8766C168.793 62.8902 169.074 62.972 169.716 63.4153C169.399 63.4549 168.965 63.5545 168.379 63.4385C169.028 63.7086 169.702 63.9105 170.373 64.1219C171.051 64.3197 171.729 64.5202 172.414 64.7371C172.654 65.1395 171.451 64.7794 170.916 64.7153C171.107 64.7862 171.309 64.868 171.523 64.9458C171.737 65.0222 171.959 65.1013 172.184 65.1818C172.411 65.2609 172.639 65.3427 172.866 65.4164C173.096 65.4887 173.322 65.5569 173.54 65.6196C173.76 65.6824 173.971 65.7397 174.171 65.7888C174.371 65.8338 174.559 65.8693 174.728 65.8952C175.068 65.947 175.335 65.9538 175.49 65.8965L174.588 65.3809C175.139 65.5719 174.732 65.8379 174.299 65.756C173.595 65.6551 173.147 65.4259 172.877 65.2077C172.609 64.9813 172.517 64.763 172.513 64.6743L172.999 64.8326L173.487 64.9799C173.411 64.823 173.295 64.6839 173.148 64.5584C173 64.4302 172.821 64.3129 172.617 64.2065C172.412 64.1001 172.183 64.0032 171.935 63.9119C171.689 63.8177 171.427 63.725 171.153 63.6377C170.604 63.4672 170.024 63.283 169.462 63.0907C169.181 62.9952 168.911 62.8834 168.65 62.7743C168.392 62.661 168.144 62.5478 167.926 62.4141C168.282 62.3582 168.641 62.2887 168.994 62.2232C168.293 62.069 167.6 61.8849 166.899 61.6994C166.604 61.3161 166.54 60.8455 167.449 61.2643C166.908 60.7555 166.608 60.6395 166.326 60.5359C166.048 60.4281 165.793 60.3231 165.37 59.8347C165.286 59.7134 165.356 59.7188 165.477 59.7652C165.048 59.5674 164.625 59.3532 164.197 59.1473C164.506 59.1855 164.274 58.6262 164.932 59.1882C164.461 58.7626 164.019 58.4121 163.591 58.1324C163.17 57.8446 162.771 57.6141 162.414 57.4081C162.062 57.1953 161.748 57.0085 161.499 56.8134C161.254 56.6115 161.072 56.4028 160.976 56.1519L161.162 56.2569C159.781 55.1984 159.649 55.2066 159.548 55.3498C159.451 55.4848 159.403 55.7454 158.245 55.0129C158.18 54.6541 158.119 54.2995 158.06 53.9476C158.005 53.5916 157.959 53.2369 157.913 52.8863C157.715 52.9123 157.513 52.9395 157.315 52.9614C157.093 52.6749 156.655 52.1102 156.892 52.0843C155.785 51.2604 156.87 52.4021 156.131 51.997C155.745 51.1827 154.994 50.251 154.403 49.3999C154.257 49.1871 154.119 48.9797 153.998 48.7847C153.882 48.5869 153.782 48.3987 153.709 48.2282C153.634 48.0563 153.584 47.9008 153.568 47.7658C153.554 47.628 153.575 47.512 153.635 47.4193C153.318 47.2461 153.46 47.643 153.549 47.8967C153.594 48.0222 153.621 48.1149 153.561 48.0849C153.501 48.0549 153.353 47.9049 153.063 47.5339C153.178 47.3115 153.162 47.0906 153.063 46.8587C152.969 46.6241 152.799 46.3758 152.597 46.1044C152.394 45.8343 152.179 45.5301 151.98 45.2C151.783 44.8686 151.628 44.4975 151.544 44.0992C151.847 44.2288 152.106 44.653 152.248 44.8467C152.399 45.0377 152.413 45.0022 152.255 44.2097C151.986 44.076 151.777 43.8292 151.618 43.5127C151.536 43.3558 151.465 43.1826 151.399 42.9985C151.335 42.8157 151.285 42.6179 151.233 42.4187C151.184 42.2196 151.133 42.0163 151.09 41.8131C151.047 41.6085 151.006 41.4066 150.96 41.2102C150.865 40.8201 150.775 40.4504 150.63 40.1503C150.341 40.2186 150.045 39.5515 149.747 38.5981C149.442 37.646 149.166 36.4061 148.829 35.3298C148.885 35.3544 148.877 35.1034 148.829 34.6833C148.793 34.2604 148.708 33.6698 148.641 33.0055C148.491 31.6811 148.371 30.0742 148.371 29.0307L148.476 29.0812C148.317 28.9966 148.195 28.7988 148.094 28.5233C147.993 28.2491 147.913 27.8986 147.856 27.5085C147.796 27.1184 147.745 26.6914 147.707 26.2631C147.664 25.8348 147.625 25.4065 147.581 25.0136C147.941 25.06 148.085 25.3383 148.296 26.1717C148.263 25.6848 148.243 25.1951 148.222 24.7067C148.016 24.3685 147.903 23.9115 147.817 22.9553L148.267 23.3181C148.239 22.3429 148.102 21.358 148.032 20.2982C147.954 19.2397 147.948 18.1048 148.158 16.8499C147.954 16.768 147.64 17.2564 147.362 17.431C147.086 17.6056 146.826 17.4651 146.767 16.1038C146.996 16.0165 147.385 15.9414 147.435 16.6494C147.42 16.4175 147.292 15.816 147.423 15.3576C147.523 15.7246 147.629 16.0888 147.734 16.453C147.965 15.3085 147.456 15.8296 147.551 14.9061C147.868 14.9471 147.827 14.2391 148.071 14.3905C148.083 14.6279 147.883 15.1844 147.984 15.5459C148.108 14.5106 148.398 13.272 148.679 12.8806C148.49 12.9542 148.251 12.8424 148.278 12.0785C148.453 10.1143 148.724 11.4442 149.01 10.3216C148.838 9.82375 149.214 8.6043 148.746 8.51291C148.818 7.9441 149.049 7.85272 149.203 7.63856C149.161 7.10113 149.266 5.86804 149.237 4.9064C149.232 4.66633 149.224 4.44398 149.211 4.25575C149.194 4.06615 149.166 3.91065 149.136 3.80425C149.075 3.5901 148.989 3.57374 148.864 3.86973L148.832 4.13981C148.823 4.08934 148.821 4.02932 148.81 3.96794C148.58 2.25062 148.51 0.484197 148.228 -1.29587C148.082 -2.18249 147.881 -3.06775 147.598 -3.923C147.3 -4.7728 146.92 -5.58986 146.434 -6.32098L146.575 -6.39737C145.959 -7.25944 145.238 -8.18562 144.448 -8.93993C143.665 -9.6997 142.832 -10.2876 142.135 -10.57C142.073 -10.615 142.012 -10.6654 141.953 -10.7186C141.892 -10.7705 141.831 -10.825 141.773 -10.881C141.657 -10.9942 141.554 -11.1128 141.475 -11.2233C141.315 -11.4416 141.249 -11.6134 141.414 -11.6284C141.234 -11.7185 141.074 -11.7962 140.925 -11.8658C140.776 -11.934 140.638 -11.9858 140.509 -12.0404C140.381 -12.0936 140.259 -12.1427 140.141 -12.1918C140.02 -12.2382 139.902 -12.2845 139.78 -12.3364C139.658 -12.3868 139.533 -12.4469 139.397 -12.5082C139.261 -12.5683 139.113 -12.6378 138.951 -12.7183C138.79 -12.8029 138.607 -12.8874 138.404 -12.9884C138.302 -13.0402 138.195 -13.0948 138.081 -13.1534C137.965 -13.2094 137.843 -13.268 137.714 -13.3308C138.114 -13.2667 138.287 -13.2503 138.352 -13.2626C138.419 -13.2748 138.38 -13.313 138.352 -13.3348C138.326 -13.3567 138.314 -13.3621 138.435 -13.3089C138.557 -13.253 138.816 -13.1521 139.317 -12.9147C138.388 -13.3976 137.812 -13.699 137.19 -13.9255C136.571 -14.1533 135.897 -14.2979 134.77 -14.3211C134.975 -14.3811 134.991 -14.4629 134.882 -14.5543C134.773 -14.6457 134.538 -14.748 134.244 -14.8326C133.656 -15.0167 132.835 -15.1299 132.34 -15.1354L133.037 -14.8899L133.725 -14.6293C132.633 -14.7589 131.689 -14.9062 130.723 -15.0194C130.911 -15.1872 131.104 -15.3454 131.297 -15.5078C130.254 -15.7724 129.238 -15.8338 128.272 -15.7928C127.306 -15.7519 126.388 -15.6073 125.514 -15.4546C124.638 -15.3018 123.803 -15.1367 122.982 -15.0508C122.161 -14.9649 121.356 -14.9553 120.519 -15.0999C119.998 -14.823 120.576 -14.8558 121.161 -14.8653C121.749 -14.8762 122.347 -14.8626 121.887 -14.5843C121.427 -14.542 120.959 -14.5338 120.5 -14.5393C120.271 -14.542 120.044 -14.5475 119.822 -14.5557C119.71 -14.5598 119.6 -14.5625 119.492 -14.5666L119.41 -14.5693L119.37 -14.5802C119.346 -14.587 119.32 -14.5952 119.295 -14.602C119.269 -14.6143 119.242 -14.6266 119.22 -14.6402C119.203 -14.6539 119.205 -14.6662 119.14 -14.6771C119.04 -14.7016 118.943 -14.7248 118.849 -14.748C118.662 -14.793 118.489 -14.8353 118.332 -14.8735C118.019 -14.9471 117.773 -14.9949 117.62 -14.9922C116.97 -15.0563 116.494 -15.0372 116.104 -14.9744C115.713 -14.9062 115.411 -14.7848 115.106 -14.6675C114.495 -14.4274 113.876 -14.186 112.52 -14.2106C112.88 -14.0442 113.229 -13.5626 111.246 -13.2189C109.377 -13.1384 108.866 -13.83 110.042 -14.0837C110.492 -14.1369 110.715 -14.0946 110.702 -14.0278C111.303 -14.1465 112.099 -14.2938 111.335 -14.4411L111.106 -14.2297C110.868 -14.2597 110.527 -14.2665 110.158 -14.2679C109.789 -14.2679 109.392 -14.2651 109.045 -14.2488C108.349 -14.2269 107.843 -14.2419 108.131 -14.4343C106.723 -14.0851 107.559 -14.051 108.623 -14.0742C108.012 -14.0742 107.469 -14.0455 106.96 -14.0019C106.707 -13.9787 106.46 -13.9596 106.218 -13.9241C105.978 -13.8859 105.741 -13.8491 105.504 -13.8109C105.029 -13.7331 104.553 -13.6527 104.039 -13.579C103.781 -13.5449 103.515 -13.5094 103.234 -13.4713C102.954 -13.429 102.661 -13.3894 102.347 -13.3526C102.759 -13.3239 103.159 -13.1712 102.769 -13.0975C100.944 -12.8656 100.56 -12.7074 100.339 -12.5192C100.117 -12.3323 100.049 -12.1413 98.8526 -11.8194C98.1337 -11.8017 98.2128 -12.0008 98.1787 -12.1031C98.161 -12.1536 98.1146 -12.1809 97.9223 -12.1454C97.7299 -12.114 97.3958 -11.9995 96.8065 -11.7744C95.2747 -11.5589 96.355 -12.1795 96.9115 -12.4946C95.8476 -12.0049 94.7919 -11.8017 93.8507 -11.6025C92.9068 -11.4184 92.0515 -11.3434 91.4199 -11.1319L91.971 -11.4157C92.1551 -11.507 92.3434 -11.5903 92.5289 -11.6776C92.3611 -11.5998 92.2002 -11.5302 92.0433 -11.4661C91.8878 -11.3979 91.7377 -11.3324 91.5904 -11.2738C91.2944 -11.1538 91.0093 -11.0515 90.7229 -10.9464L91.5085 -10.825C90.8142 -10.6422 90.2427 -10.4335 90.1991 -10.589C89.8963 -10.3435 90.0872 -10.2439 90.195 -10.1007C90.3041 -9.95477 90.326 -9.78017 89.7149 -9.35596C89.2429 -9.26593 88.5977 -8.94129 88.0098 -8.68213C87.4178 -8.43387 86.9036 -8.20199 86.6471 -8.3684C86.995 -8.50617 87.2459 -8.61802 87.4273 -8.69986C87.6115 -8.77897 87.722 -8.83899 87.7821 -8.88537C87.9035 -8.98085 87.823 -9.0245 87.7261 -9.07087C87.5338 -9.16363 87.2718 -9.26321 88.434 -9.79109C88.2184 -9.66832 87.973 -9.55102 87.6933 -9.43644C87.4151 -9.32186 87.1013 -9.21546 86.763 -9.08861C86.6416 -9.09543 86.8122 -9.22774 86.98 -9.33823C85.5737 -8.93311 85.3295 -8.65894 85.1058 -8.3343C84.8766 -8.01511 84.6774 -7.61545 83.3584 -6.9348C83.458 -7.14895 83.2425 -7.18987 82.9479 -7.14077C82.8005 -7.11621 82.6342 -7.06983 82.48 -7.00982C82.3286 -6.94571 82.1881 -6.86932 82.0899 -6.7943C82.6123 -7.09984 82.8046 -7.04801 82.7446 -6.85568C82.6846 -6.66471 82.3982 -6.28961 81.9781 -5.92132C80.2117 -5.1711 80.2948 -4.71415 79.4423 -4.20809L80.4517 -4.73052C80.3658 -4.50545 80.1202 -4.27356 79.7642 -4.00075C79.4096 -3.72522 78.9348 -3.42241 78.4301 -2.99683C78.321 -3.05684 78.542 -3.26009 78.7371 -3.42514C78.9308 -3.59291 79.1082 -3.7034 78.8817 -3.62019C78.422 -2.99546 77.6813 -2.62717 76.8547 -2.23024C76.4537 -2.01609 76.035 -1.79375 75.6258 -1.52912C75.2193 -1.26314 74.8155 -0.964415 74.4854 -0.56066C73.6356 -0.0955242 74.0707 -0.916672 73.3423 -0.47336C73.1514 -0.249658 72.974 -0.0627837 72.8076 0.0995365C72.6399 0.260493 72.4939 0.407805 72.3479 0.530568C72.0574 0.778823 71.7901 0.957513 71.5173 1.13757C71.3809 1.22759 71.2431 1.31762 71.1013 1.41719C70.9594 1.51677 70.8107 1.62452 70.6647 1.75956C70.3687 2.02555 70.0428 2.36793 69.6677 2.85625C70.0537 2.74031 70.25 2.64619 70.2337 2.76486C70.2255 2.82351 70.1641 2.93673 70.0468 3.12633C69.9868 3.22045 69.9145 3.33502 69.8286 3.47143C69.7413 3.60647 69.6404 3.7647 69.5326 3.95567C70.3851 2.94082 71.2499 1.9287 72.1788 0.972514L71.434 2.04465C71.1926 2.40476 70.9648 2.7785 70.7329 3.1427C70.943 2.93264 71.149 2.70484 71.3468 2.47432C71.3959 2.41703 71.445 2.35838 71.4941 2.30109C71.5446 2.24517 71.5951 2.1906 71.6455 2.13467C71.7451 2.02419 71.8432 1.91506 71.9387 1.80867C72.3207 1.38309 72.6657 1.00117 72.9508 0.78292C72.2729 1.83868 72.3044 1.67909 72.9359 1.53177C72.1475 1.87005 71.5977 2.47296 71.0971 3.15225C70.8407 3.4878 70.5842 3.83154 70.2923 4.15618C70.0058 4.48764 69.6976 4.81364 69.3075 5.0919L68.6392 4.4058C68.3582 4.63495 68.099 4.87093 67.8562 5.1151C67.6189 5.36335 67.4061 5.62388 67.1974 5.8885C66.7854 6.41911 66.3994 6.96063 66.0447 7.55808C65.3082 8.73388 64.5675 10.0147 63.4476 11.4865C63.7122 11.1878 63.9673 10.8822 64.2483 10.5958C64.2551 10.9013 63.9564 11.3828 63.5853 11.9216C63.3998 12.1917 63.1966 12.4754 63.0056 12.7591C62.8174 13.0442 62.6579 13.3389 62.5351 13.6117C62.3196 13.3498 61.8353 13.9281 61.3974 14.2664C61.4574 14.2841 61.3948 14.4342 61.2843 14.6661C61.1766 14.8993 61.0142 15.2103 60.8559 15.5377C60.6991 15.8651 60.5463 16.2102 60.459 16.5089C60.3703 16.8076 60.3622 17.0681 60.4631 17.2155L59.3378 18.484C58.9709 19.1333 58.7594 19.6803 58.6107 20.1659C58.5384 20.4087 58.4798 20.6365 58.4402 20.8588C58.4007 21.0825 58.3707 21.2966 58.3421 21.5108C58.2834 21.9391 58.2302 22.362 58.1143 22.838C57.9997 23.3141 57.8455 23.8501 57.5549 24.4953C57.5495 23.5732 56.8579 24.6917 57.3394 22.823C56.982 23.7069 56.6083 24.483 56.8102 24.5772C56.6069 24.7968 56.4828 25.457 56.3314 26.1444C56.2551 26.4882 56.1733 26.8401 56.0737 27.1497C55.9823 27.4621 55.8717 27.7349 55.7312 27.9163C55.738 28.3419 56.0082 28.5697 55.6536 29.5668C55.5581 29.6582 55.5049 29.515 55.5049 29.515C55.6536 29.5682 55.2225 31.1627 55.8322 30.3852C55.6071 30.6935 55.4012 31.0481 55.2116 31.4342C55.022 31.8215 54.8651 32.2458 54.711 32.6891C54.5623 33.1337 54.4109 33.5962 54.2908 34.0722C54.1681 34.5483 54.0521 35.0338 53.9389 35.5167C53.8202 35.9982 53.7248 36.4811 53.6198 36.949C53.5161 37.4168 53.4056 37.871 53.291 38.3007C53.0755 39.1642 52.8177 39.9266 52.4835 40.5064C52.1957 42.551 51.8887 45.0118 51.6555 46.8628C51.5777 46.7305 51.4987 46.8341 51.5833 46.4904C51.4128 47.1165 51.38 47.538 51.4073 47.8585C51.4332 48.1791 51.5191 48.4014 51.6023 48.6333C51.6855 48.8652 51.7674 49.108 51.7838 49.4694C51.8042 49.8323 51.7647 50.3151 51.601 51.0313C50.9217 52.4594 51.496 49.4585 51.1986 50.3615C50.9258 50.4324 50.7744 50.6889 50.6871 51.064C50.6434 51.2509 50.6148 51.4677 50.597 51.7065C50.582 51.9452 50.5766 52.203 50.5739 52.4744C50.5684 53.0173 50.5671 53.6093 50.5275 54.1849C50.4907 54.7605 50.4047 55.3212 50.2123 55.8013L50.1892 55.3198C49.709 56.8011 50.3255 59.0204 50.1496 61.4689C50.1496 61.4689 50.061 61.3461 49.9915 61.4484C50.4457 63.1521 50.5561 66.3262 50.7061 68.6832C50.2969 67.9494 50.4907 67.6111 50.0719 68.0572C50.1306 69.1157 50.7402 67.7516 50.8589 69.8577C50.6393 70.5424 50.4538 72.0674 50.0173 72.2775C49.9941 71.6132 49.986 70.9475 49.971 70.2833C49.3967 71.3117 50.0214 72.8667 49.9437 73.9171L49.6886 73.7888C49.7704 75.3179 49.971 76.0872 50.1674 76.8838C50.3584 77.6804 50.5398 78.5029 50.5957 80.1411L50.7703 79.7933C51.4933 81.5475 50.4879 81.3115 51.0649 83.067L50.4593 83.6454C50.6857 84.8184 51.3527 87.7334 51.65 89.8299C51.0799 88.6746 50.6434 86.2206 50.2669 84.7052C50.3324 85.8769 50.6011 88.6786 50.9667 89.2611C50.8685 88.796 50.6653 88.2149 50.7266 87.7415C51.3391 89.137 51.736 90.9961 51.9379 93.3164C51.6201 93.2413 51.4768 93.5837 51.4277 94.1675C51.3772 94.7472 51.4277 95.5861 51.5082 96.485C51.5886 97.3853 51.7061 98.351 51.7702 99.2076C51.8357 100.064 51.8438 100.814 51.6924 101.288C52.0048 102.312 52.2788 103.339 52.5653 104.383C52.8504 105.426 53.1465 106.486 53.527 107.573C53.9144 108.659 54.3755 109.776 55.1079 110.899C55.483 111.457 55.9209 112.019 56.5074 112.537C56.8007 112.795 57.1267 113.043 57.4991 113.26C57.8715 113.475 58.2888 113.661 58.7417 113.788C58.5985 113.683 58.4893 113.591 58.4075 113.508C58.3256 113.426 58.2643 113.364 58.2275 113.308C58.1525 113.199 58.147 113.145 58.1906 113.13C58.2765 113.099 58.5521 113.224 58.915 113.32C59.2737 113.42 59.7198 113.475 60.0349 113.415C60.1931 113.388 60.3171 113.336 60.3853 113.26C60.4549 113.185 60.4672 113.091 60.414 112.969C60.7659 112.931 61.0538 112.867 61.2857 112.798C61.5189 112.729 61.7003 112.661 61.8449 112.607C62.1327 112.495 62.276 112.44 62.3428 112.443C62.9825 112.229 63.5705 111.915 64.1147 111.558C64.6617 111.202 65.1595 110.795 65.6329 110.37C66.0189 110.108 65.8893 110.375 65.667 110.715C65.4473 111.054 65.12 111.457 65.2414 111.489C65.7488 110.974 66.0352 110.663 66.2384 110.477C66.443 110.292 66.5535 110.23 66.6599 110.199C66.7649 110.166 66.8536 110.159 66.9996 110.075C67.1455 109.99 67.3461 109.828 67.6516 109.473C67.3979 109.536 67.432 109.265 67.6216 108.824C67.8126 108.382 68.1576 107.767 68.5586 107.12C68.103 107.688 67.6243 108.239 67.1196 108.767C67.4947 107.903 67.7825 107.324 68.058 106.875C68.3308 106.427 68.5942 106.116 68.8493 105.799C69.1071 105.481 69.3579 105.158 69.598 104.686C69.8367 104.215 70.0632 103.596 70.2337 102.695C70.2078 103.091 70.1764 103.488 70.1382 103.886C70.3851 102.974 70.9389 101.341 71.3004 99.6769C71.6701 98.0155 71.8583 96.3309 71.6292 95.3842C71.801 95.091 72.1434 94.7159 72.0683 95.5206C72.5348 93.3805 72.6453 90.9402 72.6671 88.6486C72.6957 86.353 72.6384 84.2005 72.8894 82.5241L73.1281 82.8529C73.0627 82.0426 72.6767 81.452 72.899 80.4399C73 80.489 73.1473 80.7604 73.1541 80.3853C73.0641 79.957 72.6657 78.2601 72.7353 77.1907C72.8431 77.4881 72.9536 77.7868 73.0586 78.0869C73.1077 75.9699 72.7899 74.3617 72.3971 72.8695C72.2962 72.4957 72.1938 72.1288 72.0861 71.7632C72.0315 71.5791 71.9784 71.3963 71.9238 71.2108C71.8665 71.0239 71.8091 70.8357 71.7518 70.6475C71.6359 70.2696 71.535 69.8822 71.4191 69.4853C71.3004 69.0897 71.1871 68.6792 71.0821 68.2481C71.4422 68.1799 71.4845 67.3151 71.3986 66.2457C71.3426 65.7151 71.2459 65.1368 71.1463 64.5857C71.0344 64.0387 70.9048 63.5217 70.8066 63.1071L70.9198 63.133C70.1778 60.7159 69.1983 58.7899 68.1153 57.0085C67.0241 55.2284 65.8251 53.5875 64.4597 51.7515C64.4038 51.5769 64.3342 51.39 64.2538 51.1949C64.1733 50.9999 64.0723 50.8007 63.9646 50.5907C63.8568 50.3806 63.7382 50.1637 63.6113 49.9373C63.4858 49.7109 63.3439 49.4817 63.1925 49.2485C62.8883 48.782 62.5637 48.2814 62.1872 47.7889C62.0003 47.5407 61.8108 47.2883 61.6171 47.0305C61.4207 46.7755 61.2106 46.5258 61.0033 46.2694C60.1753 45.2409 59.2464 44.2288 58.3489 43.2453C57.8919 42.7611 57.4418 42.2837 57.008 41.8227C56.7884 41.5949 56.5742 41.3684 56.3669 41.1461C56.2632 41.0342 56.1624 40.9224 56.0614 40.8133C55.9591 40.7055 55.8581 40.5991 55.7585 40.4941C56.1977 41.0574 55.3003 40.8283 54.6482 40.3468C54.2936 39.9376 53.6388 39.5638 53.1559 39.2351C52.6608 38.92 52.3266 38.6513 52.5939 38.4467L52.8873 38.6936C52.6622 37.6746 50.7676 36.4661 49.3272 35.4963L48.6178 36.0528C47.8581 35.1689 46.7995 34.3887 45.6306 33.6848C45.3359 33.5143 45.0318 33.3506 44.7262 33.1883C44.5734 33.1078 44.4193 33.0287 44.2652 32.9482L43.7932 32.7259C43.4781 32.58 43.1616 32.4354 42.8465 32.2949C42.526 32.1653 42.2082 32.0357 41.8945 31.9075C41.7376 31.8447 41.5807 31.782 41.4252 31.7206C41.2684 31.6633 41.1115 31.606 40.9574 31.5487C40.6491 31.4342 40.3463 31.3209 40.0503 31.2118C39.7515 31.1095 39.4611 31.0072 39.1815 30.9049C38.9019 30.8026 38.6331 30.6989 38.3712 30.6076C37.3345 30.2174 36.4793 29.8573 35.9555 29.4086C35.6731 29.3881 35.3799 29.3499 35.0798 29.3035C34.9311 29.279 34.7796 29.2544 34.6282 29.2285C34.4755 29.2067 34.3214 29.1849 34.1687 29.1617C33.8618 29.118 33.5548 29.0744 33.2561 29.0389C32.956 29.0089 32.6613 28.998 32.383 28.998L32.5264 28.5588C32.1499 28.4715 31.7952 28.3883 31.4528 28.3296C31.1105 28.2669 30.7858 28.2069 30.4694 28.1482C30.1502 28.1046 29.8392 28.0623 29.5309 28.02C29.3768 28.0009 29.2226 27.9777 29.0671 27.9613C28.9116 27.9491 28.7547 27.9354 28.5965 27.9231C28.28 27.8999 27.9595 27.8713 27.6226 27.8577C27.2857 27.8522 26.9351 27.8467 26.5627 27.8413C25.8179 27.8522 24.9873 27.8836 24.0134 27.9968L24.7909 27.6121C24.5127 27.6285 24.2603 27.6653 24.0311 27.7158C23.8006 27.7663 23.5932 27.8317 23.4009 27.9218C23.0176 28.0923 22.697 28.301 22.3901 28.5097C22.0846 28.7347 21.7914 28.9598 21.4558 29.1521C21.3726 29.2012 21.2853 29.2449 21.1953 29.2913C21.1052 29.339 21.0125 29.3854 20.9157 29.429C20.7206 29.515 20.5078 29.59 20.2691 29.6486C20.145 29.5613 20.0195 29.4713 19.8926 29.3881L19.5107 29.1439C17.6625 29.6677 15.7923 30.2966 14.0641 31.2555C13.9563 31.3155 13.8459 31.37 13.7408 31.4342L13.4285 31.6306C13.2198 31.7629 13.0138 31.8966 12.8078 32.0316C12.7028 32.0971 12.6046 32.1707 12.5077 32.2471L12.2158 32.4722C12.0221 32.6236 11.8298 32.7777 11.6416 32.9332C11.2828 33.2674 10.9268 33.6043 10.5994 33.9645C10.4412 34.15 10.2884 34.3396 10.1384 34.5305L9.9174 34.8183L9.80963 34.9643L9.71146 35.1171C9.69509 35.0598 9.67049 34.9752 9.69914 34.8456C9.73324 34.7188 9.82603 34.5469 10.0415 34.3123C9.95834 34.3928 9.86422 34.4814 9.76328 34.5783C9.71145 34.626 9.65826 34.6765 9.6037 34.7283C9.54914 34.7815 9.49731 34.8388 9.44138 34.8961C9.21905 35.128 8.97215 35.3844 8.71434 35.6545C8.46063 35.9287 8.21781 36.2328 7.96819 36.5316C7.71311 36.8276 7.49623 37.1467 7.2889 37.4482C6.86196 38.047 6.57004 38.6308 6.42545 39.04C6.2795 39.4479 6.32319 39.6975 6.60282 39.6688C6.46505 39.6034 6.27682 39.7861 6.06267 40.1299C5.95491 40.3018 5.84169 40.5132 5.72439 40.7532C5.61254 40.9947 5.51159 41.2702 5.40383 41.5594C5.35199 41.704 5.29877 41.854 5.24558 42.0041C5.19238 42.1555 5.13921 42.3096 5.09965 42.4678C5.01235 42.7843 4.92777 43.1049 4.84729 43.4186C4.8091 43.5754 4.76407 43.7323 4.73406 43.8823C4.70405 44.0324 4.67539 44.1811 4.64675 44.3243C4.59082 44.6107 4.53904 44.8808 4.49129 45.125L4.16394 44.6885C4.17076 45.5724 4.19802 46.028 4.17346 46.5531C4.15437 47.0796 4.06296 47.6662 3.81334 48.7874C3.70967 49.0411 3.59919 49.1353 3.54053 49.078C3.48461 49.022 3.48464 48.8161 3.64696 48.4846C3.45464 48.9034 3.3878 49.213 3.34552 49.4626C3.30732 49.7136 3.31278 49.9114 3.31415 50.1187C3.31688 50.3261 3.31413 50.5457 3.26639 50.8417C3.24184 50.9903 3.20363 51.1568 3.15044 51.3532C3.1027 51.551 3.03856 51.776 2.95262 52.0379C2.91716 51.7501 2.87627 51.4609 2.84626 51.1718C2.62665 52.0829 2.57206 52.5126 2.57752 52.8454C2.58706 53.1796 2.65391 53.4183 2.72211 53.953C2.7112 54.5464 2.53253 55.4071 2.30065 56.1519C2.08922 56.898 1.83277 57.5309 1.61044 57.6414C1.71683 57.7832 1.81778 58.1174 1.86006 58.5498C1.90644 58.9822 1.916 59.5142 1.80279 60.0544C1.63501 60.1867 1.57904 59.7802 1.55176 59.5742C1.47537 59.9589 1.41944 60.3217 1.37852 60.6641C1.35806 60.8359 1.34038 61.0024 1.3281 61.1647C1.31992 61.327 1.31442 61.4852 1.31305 61.6394C1.30214 62.2559 1.32946 62.8097 1.35401 63.3294C1.3622 63.5899 1.38673 63.8423 1.40037 64.0919C1.41537 64.3415 1.42358 64.5857 1.42221 64.8326C1.42085 65.0781 1.40853 65.325 1.38125 65.5773C1.35397 65.8297 1.30897 66.0861 1.2585 66.3548C1.10982 66.3985 1.03481 66.5376 0.991158 66.7163C0.982974 66.0957 1.01029 65.5037 1.02939 64.9703C1.05121 64.437 1.0689 63.9596 1.08527 63.5654C1.14529 62.7797 1.18758 62.3268 1.19849 62.4223C0.783827 62.3923 0.584648 64.4152 0.111328 62.7729C0.139973 62.9789 0.170038 63.2025 0.202774 63.4413C0.236875 63.68 0.285938 63.9323 0.329587 64.1942C0.419613 64.7194 0.512355 65.2827 0.588741 65.8542C0.670583 66.4258 0.760617 67.0069 0.801538 67.5661C0.823363 67.8457 0.83704 68.1213 0.839768 68.3872C0.841132 68.6532 0.846578 68.911 0.828845 69.1566C0.792017 69.2534 0.756554 69.3462 0.695173 69.4198L0.640625 69.218C0.616072 69.6722 0.670644 70.0773 0.75385 70.4565C0.702017 71.0867 0.692439 71.4863 0.723812 72.0879C0.560128 72.2147 0.553281 72.7972 0.594202 73.4724C0.65422 74.1462 0.766079 74.9114 0.807 75.4134C1.25168 75.2838 1.3076 76.5933 1.55995 75.3329C1.54358 75.4939 1.48767 75.1515 1.4031 74.4927C1.37445 74.344 1.35128 74.1694 1.31445 74.0726C1.32945 74.0903 1.3458 74.1121 1.36081 74.1367C1.27214 73.486 1.21351 72.6321 1.13848 71.6623C1.42902 72.4371 1.6568 73.2391 1.52585 74.3576C1.86686 74.8391 2.22152 75.3643 2.39202 75.6617C2.15741 76.3682 2.04419 77.3858 1.94325 78.2833C1.86687 79.1768 1.80143 79.9488 1.63774 80.1616C2.0074 81.6525 2.38655 83.4121 2.85305 85.0039C3.32365 86.5944 3.86657 88.0171 4.52813 88.826C4.85277 89.6294 4.54037 89.8463 4.49536 90.1927C4.28393 89.7344 4.1489 89.1561 3.96067 88.9269C4.12571 89.3307 4.28533 89.8422 4.46539 90.381C4.64817 90.9184 4.83365 91.4872 5.02052 92.0124C5.20194 92.5389 5.40654 93.0149 5.59478 93.3778C5.78574 93.7392 5.96992 93.9834 6.14179 94.0366C6.23727 94.574 6.23176 94.78 6.18402 94.8318C6.13628 94.8836 6.03948 94.7813 5.96582 94.6981C5.82124 94.5304 5.73525 94.4513 6.25495 95.8508L5.9549 95.5261C6.01492 95.893 6.08449 96.249 6.16224 96.5941C6.23999 96.9392 6.32725 97.2734 6.43092 97.5953C6.63279 98.2419 6.86468 98.8516 7.11566 99.4395C7.64082 100.604 8.23145 101.679 8.85754 102.754C10.0988 104.913 11.366 107.103 12.1885 110.296C12.0644 109.858 12.0058 109.637 12.0562 109.513C13.3602 112.983 15.2194 116.324 17.1291 119.597C19.0387 122.876 21.0275 126.076 22.6234 129.383C23.1144 130.299 23.4691 130.755 23.8197 131.092C24.173 131.426 24.518 131.644 24.9873 132.09L24.829 132.736C25.3896 133.228 25.9449 133.722 26.5082 134.207C27.5449 135.349 28.0536 136.605 28.6824 137.912C29.3058 139.22 30.0479 140.584 31.5278 141.899L31.4896 141.302C31.6874 141.588 31.9616 141.944 32.2549 142.318C32.5509 142.689 32.8632 143.079 33.1442 143.431C33.7021 144.135 34.1072 144.701 33.8863 144.727C34.0199 144.803 34.4387 144.873 34.6406 145.406L34.4673 145.598C35.2912 146.402 36.122 147.196 36.9595 147.98C37.7315 149.059 37.4764 149.14 37.3237 149.33C37.175 149.519 37.1272 149.82 38.378 151.314C38.8881 151.831 39.7079 152.483 40.3777 152.934C40.7119 153.161 41.0092 153.335 41.207 153.424C41.4048 153.511 41.5084 153.514 41.4416 153.38C41.0474 152.94 40.5563 152.17 40.72 151.967C41.0447 152.265 41.3708 152.559 41.6995 152.851C42.0569 152.685 42.5438 152.645 42.7197 152.316C42.9011 151.992 42.7688 151.386 41.919 150.026C41.3175 149.577 40.7187 149.119 40.1226 148.657L39.9398 147.876C40.3463 148.346 40.7555 148.814 41.1675 149.276C40.7392 148.253 40.0749 147.942 39.4325 147.5C39.4679 147.238 39.3711 146.915 39.1474 146.529C38.5008 146.125 37.8556 145.714 37.2118 145.298C37.2759 144.908 38.2784 145.691 37.49 144.451C36.5898 143.865 37.5883 145.63 36.3579 144.446C35.9651 143.398 36.3742 143.473 35.3771 142.67C35.4221 142.412 35.6826 142.544 36.0537 142.881C35.1848 142.153 34.1809 140.622 33.5179 140.404C33.3502 139.837 32.7704 139.1 32.3094 138.465C31.8524 137.826 31.5169 137.287 31.8374 137.122C31.6642 137.032 31.266 136.719 30.8336 136.324C30.3984 135.932 29.9333 135.456 29.6291 135.046C30.5144 135.562 29.9728 134.775 29.3467 133.843C29.0357 133.375 28.7029 132.871 28.5119 132.476C28.3237 132.08 28.2787 131.794 28.5366 131.769C28.186 131.591 27.8176 131.258 27.4384 130.827C27.0633 130.395 26.6745 129.867 26.279 129.304C25.8889 128.738 25.4852 128.139 25.0814 127.565C24.6804 126.988 24.2698 126.442 23.8565 125.98C23.9792 126.064 24.2276 126.225 24.308 126.428C23.6342 125.231 23.626 124.767 23.2905 123.942C22.6576 124.12 21.4298 122.364 20.5159 121.556C20.1954 119.795 21.6768 122.066 21.9155 121.312C21.7164 121.477 21.2334 120.915 20.7996 120.392C20.3672 119.869 19.9744 119.391 19.9294 119.746C19.6225 118.442 19.5461 118.687 19.6852 117.855C18.8832 118.04 18.9855 116.877 18.0593 116.164C17.5314 114.338 18.4836 115.399 17.3337 113.698C17.1059 112.727 18.1848 114.205 18.1848 114.205H18.1985ZM3.61559 68.5728C3.61559 68.5728 3.62239 68.5728 3.62512 68.5728C3.65104 68.9888 3.67422 69.3434 3.68786 69.5685C3.67285 69.3612 3.65242 69.0734 3.61559 68.5728ZM3.63604 64.5134C3.6074 65.0072 3.57873 65.6223 3.57463 66.273C3.42186 66.4149 3.24727 66.258 3.27046 65.8488C3.37003 66.0725 3.48736 65.1136 3.63604 64.5134ZM0.707428 73.3578C0.596941 72.6949 0.670615 72.4644 0.757913 72.3661C0.787922 72.6799 0.826115 73.0482 0.894317 73.5283C0.913413 73.546 0.936596 73.5842 0.957057 73.602C0.864302 73.546 0.774265 73.4806 0.707428 73.3578Z" fill="#C0EBE3"/>
<path d="M1.41388 74.4987C1.43297 74.5928 1.45752 74.6446 1.47388 74.7674C1.50117 74.6283 1.52169 74.4973 1.53669 74.3636C1.48077 74.2873 1.42478 74.2109 1.37158 74.1427C1.38522 74.2627 1.40023 74.3868 1.41388 74.4973V74.4987Z" fill="#C0EBE3"/>
<path d="M148.871 3.87261L148.881 3.78395C148.863 3.85761 148.847 3.92581 148.817 3.97082C148.839 3.91217 148.852 3.91217 148.87 3.87397L148.871 3.87261Z" fill="#C0EBE3"/>
<path d="M35.5379 33.5735L35.5665 33.463L35.2104 33.4576L35.5379 33.5735Z" fill="#C0EBE3"/>
<path d="M146.251 26.61C146.214 26.6563 146.176 26.745 146.153 26.9196C146.181 26.9046 146.214 26.7709 146.251 26.61Z" fill="#C0EBE3"/>
<path d="M147.576 36.4928L147.664 37.2021L147.768 37.91C147.694 37.2921 147.633 36.8474 147.576 36.4928Z" fill="#C0EBE3"/>
<path d="M149.783 43.9099C149.896 43.9686 149.961 43.9699 150.023 43.9713C150.023 43.9645 150.02 43.9617 150.02 43.9563L149.784 43.9099H149.783Z" fill="#C0EBE3"/>
<path d="M59.277 28.6437C59.277 28.6437 59.2729 28.6437 59.2702 28.6369C59.2443 28.716 59.2198 28.7856 59.1938 28.8633L59.277 28.6424V28.6437Z" fill="#C0EBE3"/>
<path d="M173.917 66.193C174.029 66.2475 174.143 66.2953 174.257 66.3471C174.262 66.3171 174.291 66.3021 174.325 66.2953C174.19 66.2612 174.052 66.2312 173.918 66.1943L173.917 66.193Z" fill="#C0EBE3"/>
<path d="M174.323 66.2947L174.727 66.3929C174.55 66.3247 174.396 66.2688 174.323 66.2947Z" fill="#C0EBE3"/>
<path d="M175.576 66.5964C175.293 66.5337 175.01 66.4614 174.727 66.3932C175.006 66.5009 175.346 66.6523 175.576 66.5964Z" fill="#C0EBE3"/>
<path d="M164.895 61.3709L164.707 61.4472C164.779 61.4527 164.843 61.4309 164.895 61.3709Z" fill="#C0EBE3"/>
<path d="M162.295 59.6437C162.585 59.877 162.914 60.2221 163.288 60.5726C163.478 60.7431 163.678 60.9164 163.888 61.0773C164.098 61.2396 164.321 61.3883 164.555 61.5043L164.708 61.4456C164.573 61.4306 164.393 61.3283 164.198 61.1714C164.001 61.0132 163.784 60.8086 163.562 60.5999C163.337 60.3953 163.116 60.1743 162.901 59.9997C162.686 59.8238 162.479 59.6928 162.295 59.6423V59.6437Z" fill="#C0EBE3"/>
<path d="M154.909 49.1302C155.119 49.4889 155.352 49.834 155.572 50.1873C155.804 50.5338 156.037 50.8788 156.276 51.2212C156.208 50.9962 156.141 50.7302 156.173 50.6347C156.21 50.5365 156.343 50.6115 156.71 51.0357C155.965 49.6485 155.999 49.8299 155.955 50.04C155.923 50.2446 155.812 50.4915 154.908 49.1302H154.909Z" fill="#C0EBE3"/>
<path d="M151.516 42.2268C152.095 43.4271 151.745 42.1136 151.865 42.1436C151.749 41.9649 151.654 41.8189 151.582 41.718C151.511 41.6157 151.463 41.5557 151.433 41.5489C151.376 41.5366 151.396 41.7385 151.516 42.2268Z" fill="#C0EBE3"/>
<path d="M52.4673 38.2156L53.0347 38.0096C53.1084 37.288 52.5805 37.0097 52.4673 38.2156Z" fill="#C0EBE3"/>
<path d="M50.3022 79.7914C50.069 80.2551 49.968 81.4337 50.2572 82.1389C50.2422 81.2031 50.3895 80.2633 50.3022 79.7914Z" fill="#C0EBE3"/>
<path d="M47.1559 34.3725L47.9824 34.6808C47.4941 34.4353 47.0085 34.187 46.5093 33.9606C46.7248 34.0984 46.9444 34.2293 47.1559 34.3712V34.3725Z" fill="#C0EBE3"/>
<path d="M112.366 189.141L102.126 123.626C101.689 120.821 100.097 118.329 97.737 116.753C95.3772 115.176 92.4636 114.657 89.7069 115.326L56.228 123.43C53.1152 124.182 50.54 126.361 49.281 129.306L23.135 190.453C21.756 193.679 22.1394 197.386 24.1486 200.262C26.1578 203.137 29.5092 204.771 33.012 204.583L102.877 200.847C103.035 200.839 103.192 200.826 103.35 200.81C106.037 200.54 108.514 199.209 110.222 197.101C112.031 194.87 112.81 191.978 112.366 189.139V189.141Z" fill="url(#paint0_linear_2284_782)"/>
<path d="M48.1414 123.642C66.4022 123.642 81.2056 108.839 81.2056 90.5777C81.2056 72.3168 66.4022 57.5135 48.1414 57.5135C29.8805 57.5135 15.0771 72.3168 15.0771 90.5777C15.0771 108.839 29.8805 123.642 48.1414 123.642Z" fill="url(#paint1_radial_2284_782)"/>
<path d="M50.5028 94.7587C49.9258 94.7587 49.3406 94.7001 48.7473 94.5841C47.1977 94.2786 46.1638 93.6743 46.1215 93.6484C45.8037 93.4602 45.6986 93.051 45.8855 92.7331C46.0723 92.4153 46.4816 92.3103 46.7994 92.4971C46.813 92.5053 47.6982 93.0141 49.0064 93.2733C50.1262 93.4929 51.212 93.4697 52.2337 93.2037C52.2923 93.1887 52.347 93.1737 52.4015 93.1587C52.8912 93.0182 53.3713 92.8191 53.8255 92.5681C54.7544 92.0566 55.5088 91.3991 56.0667 90.6121C57.4607 88.6574 57.2383 86.5363 57.2356 86.5145C57.1947 86.1476 57.458 85.8175 57.8236 85.7752C58.1905 85.7343 58.5206 85.9975 58.5629 86.3631C58.5751 86.4708 58.8411 89.0189 57.1538 91.3855C56.4786 92.3362 55.5742 93.1287 54.4693 93.7371C53.9278 94.0358 53.3535 94.2745 52.7642 94.4436C52.6933 94.4627 52.6279 94.4818 52.5638 94.4982C51.8968 94.6714 51.2065 94.7587 50.5013 94.7587H50.5028Z" fill="#191919"/>
<path d="M56.2911 111.378L63.8206 106.112C63.8206 106.112 59.7053 102.845 56.5639 104.585C52.3763 106.906 56.2897 111.377 56.2897 111.377L56.2911 111.378Z" fill="#191919"/>
<path d="M56.1826 112.269L55.7884 111.817C55.6984 111.715 53.5936 109.277 54.0192 106.844C54.2265 105.66 54.974 104.702 56.2412 104C59.7317 102.066 64.0544 105.442 64.2372 105.586L64.9397 106.143L56.1839 112.266L56.1826 112.269ZM58.6324 104.743C58.0336 104.743 57.4388 104.865 56.8878 105.17C55.9793 105.674 55.4719 106.296 55.3342 107.072C55.1091 108.35 55.9289 109.751 56.4309 110.464L62.6467 106.117C61.7491 105.556 60.1778 104.743 58.631 104.743H58.6324Z" fill="#191919"/>
<path d="M32.1303 105.263C29.6682 105.263 27.9509 104.05 27.8718 103.993C27.5717 103.777 27.5035 103.36 27.719 103.06C27.9346 102.761 28.3506 102.693 28.6494 102.907C28.6725 102.924 30.4375 104.148 32.7959 103.891C33.0947 103.859 33.3961 103.803 33.6935 103.726C34.3414 103.556 34.9825 103.276 35.599 102.892C36.041 102.618 36.4502 102.296 36.8144 101.935C37.6069 101.15 38.1975 100.172 38.5712 99.0306C38.9859 97.7593 38.9737 96.7363 38.9737 96.7268C38.9668 96.3585 39.2601 96.0529 39.6284 96.0461C40.0021 96.042 40.3008 96.3298 40.3104 96.6981C40.3104 96.7486 40.3323 97.9449 39.8426 99.4453C39.402 100.792 38.7009 101.948 37.7556 102.884C37.3191 103.316 36.8321 103.701 36.3042 104.027C35.5744 104.481 34.8093 104.815 34.0318 105.019C33.6717 105.113 33.3034 105.181 32.9406 105.219C32.6637 105.249 32.3922 105.263 32.1303 105.263Z" fill="#191919"/>
<path d="M42.5451 105.551L42.863 95.8059L39.0751 89.1208C38.8937 88.8003 39.0055 88.3924 39.3274 88.2096C39.6479 88.0269 40.0559 88.1401 40.2387 88.462L44.2121 95.4731L43.9338 104.007L47.6112 103.491C47.9768 103.439 48.315 103.694 48.3655 104.06C48.4173 104.425 48.1622 104.762 47.7967 104.814L42.5466 105.549L42.5451 105.551Z" fill="#191919"/>
<path d="M52.3359 135.176L67.7932 153.254C67.7932 153.254 75.7647 152.01 79.0793 149.68C82.3939 147.35 84.2353 139.181 81.0926 134.395C77.9498 129.608 72.064 126.208 69.6032 126.011C67.1439 125.815 57.8562 130.518 52.3359 135.176Z" fill="url(#paint2_radial_2284_782)"/>
<path d="M101.361 104.221C124.643 104.221 143.517 85.3475 143.517 62.0656C143.517 38.7838 124.643 19.9101 101.361 19.9101C78.0792 19.9101 59.2056 38.7838 59.2056 62.0656C59.2056 85.3475 78.0792 104.221 101.361 104.221Z" fill="url(#paint3_radial_2284_782)"/>
<path d="M88.7864 63.4076C85.6669 63.4076 83.5007 61.8526 83.4025 61.7789C83.1051 61.5607 83.0397 61.1433 83.258 60.8459C83.4762 60.5485 83.8936 60.4831 84.1909 60.7013C84.2128 60.7163 86.5002 62.3422 89.5925 62.0312C90.846 61.9071 92.0764 61.4802 93.2522 60.76C93.8305 60.4081 94.3666 59.9934 94.844 59.5269C94.8931 59.4778 94.945 59.4259 94.9955 59.3741C95.9598 58.3865 96.6869 57.1753 97.1589 55.769C97.7127 54.1198 97.7045 52.7885 97.7045 52.7749C97.7004 52.4066 97.995 52.1038 98.3646 52.0997C98.7302 52.0956 99.0357 52.3889 99.0412 52.7572C99.0412 52.8199 99.0562 54.3163 98.4261 56.1946C97.8886 57.7918 97.0579 59.1736 95.9557 60.303C95.9012 60.3589 95.8412 60.419 95.7798 60.4803C95.226 61.0205 94.6108 61.4979 93.9479 61.9017C92.6002 62.7255 91.1789 63.218 89.7249 63.3612C89.403 63.3939 89.0891 63.4089 88.785 63.4089L88.7864 63.4076Z" fill="#191919"/>
<path d="M98.8389 68.932C98.8389 68.932 102.445 69.9755 105.69 70.1992C111.194 70.5784 113.03 69.8091 113.03 69.8091C113.03 69.8091 112.715 76.1041 108.511 77.9183C102.906 80.3367 98.8389 68.9334 98.8389 68.9334V68.932Z" fill="#191919"/>
<path d="M106.944 78.9236C106.318 78.9236 105.692 78.7872 105.067 78.5158C100.949 76.7234 98.3194 69.4654 98.2103 69.1571L97.7725 67.9281L99.0259 68.2896C99.0614 68.3005 102.605 69.3167 105.737 69.5322C110.934 69.8896 112.762 69.1967 112.78 69.1899L113.758 68.7807L113.698 69.8419C113.684 70.1161 113.31 76.5748 108.776 78.5308C108.17 78.7927 107.558 78.9236 106.944 78.9236ZM99.9562 69.9155C100.858 71.993 102.934 76.1314 105.601 77.2909C106.498 77.681 107.363 77.6851 108.245 77.3045C111.102 76.0728 111.991 72.4145 112.256 70.6917C111.154 70.8949 109.086 71.1036 105.643 70.8663C103.538 70.7217 101.316 70.2484 99.9562 69.9169V69.9155Z" fill="#191919"/>
<path d="M111.937 49.5239C111.186 49.5239 110.422 49.4448 109.648 49.2852C107.707 48.8856 106.421 48.1203 106.368 48.089C106.051 47.8994 105.949 47.4888 106.14 47.1723C106.33 46.8559 106.74 46.7536 107.057 46.9445C107.068 46.95 108.213 47.6266 109.919 47.9771C111.448 48.2922 112.932 48.254 114.33 47.8653C114.974 47.6866 115.601 47.4329 116.196 47.1096C117.028 46.6595 117.759 46.1166 118.369 45.4932C118.648 45.2068 118.906 44.9026 119.135 44.5848C120.96 42.0681 120.705 39.2718 120.703 39.2446C120.666 38.8776 120.933 38.5503 121.299 38.5121C121.667 38.4752 121.993 38.7399 122.031 39.1054C122.045 39.2391 122.352 42.4241 120.217 45.3677C119.95 45.7374 119.648 46.0948 119.322 46.4276C118.618 47.1464 117.781 47.7711 116.831 48.284C116.149 48.6537 115.428 48.9456 114.687 49.1516C113.795 49.3998 112.876 49.5239 111.936 49.5239H111.937Z" fill="#191919"/>
<path d="M109.86 61.8141C109.716 61.8141 109.573 61.7691 109.452 61.675C109.16 61.4499 109.107 61.0298 109.332 60.7379L112.36 56.819L102.588 51.6548L97.3624 42.8677C97.1741 42.5512 97.2778 42.1406 97.5956 41.9524C97.9135 41.7642 98.3227 41.8678 98.5109 42.1857L103.544 50.6509L114.388 56.3812L110.389 61.5563C110.258 61.7268 110.06 61.8155 109.86 61.8155V61.8141Z" fill="#191919"/>
<path d="M134.542 107.497L90.0063 105.759C85.3617 105.578 81.1892 108.572 79.8729 113.028L59.4669 182.11C58.4807 185.449 59.2733 189.061 61.5689 191.679C63.7391 194.154 66.965 195.416 70.2168 195.089C70.4037 195.07 70.592 195.046 70.7788 195.016L138.775 184.335C143.918 183.527 147.618 178.958 147.338 173.758L144.284 117.096C144.002 111.861 139.78 107.702 134.541 107.497H134.542Z" fill="url(#paint4_linear_2284_782)"/>
<path d="M144.623 96.6697L172.01 95.0983C172.01 95.0983 189.205 80.2112 186.361 77.3536C183.517 74.4959 180.36 74.4209 176.076 76.8148C171.791 79.2087 161.256 85.9634 159.717 86.3153C158.178 86.6672 156.138 80.0844 154.008 80.4063C150.132 80.9915 144.624 96.6697 144.624 96.6697H144.623Z" fill="url(#paint5_linear_2284_782)"/>
<path d="M172.008 95.0983L158.005 180.237L125.988 182.787L144.622 96.6697L172.008 95.0983Z" fill="url(#paint6_linear_2284_782)"/>
<path fill-rule="evenodd" clip-rule="evenodd" d="M166.931 95.0719C166.957 95.4401 166.68 95.76 166.312 95.7863L145.195 97.2983L137.716 142.303C137.655 142.668 137.311 142.914 136.947 142.853C136.582 142.793 136.336 142.448 136.397 142.084L144.049 96.0401L166.217 94.453C166.585 94.4266 166.905 94.7037 166.931 95.0719Z" fill="#191919"/>
<path fill-rule="evenodd" clip-rule="evenodd" d="M121.83 104.596C122.192 104.667 122.428 105.018 122.357 105.381L118.602 124.584L100.745 107.123C100.481 106.865 100.476 106.442 100.734 106.178C100.993 105.914 101.416 105.909 101.68 106.167L117.765 121.896L121.046 105.124C121.116 104.762 121.468 104.525 121.83 104.596Z" fill="#191919"/>
<path fill-rule="evenodd" clip-rule="evenodd" d="M78.8527 115.086C79.2076 115.188 79.4128 115.558 79.3112 115.913L66.7471 159.763C66.6454 160.118 66.2753 160.323 65.9205 160.221C65.5656 160.12 65.3604 159.749 65.4621 159.395L78.0261 115.545C78.1278 115.19 78.4979 114.985 78.8527 115.086Z" fill="#191919"/>
<path fill-rule="evenodd" clip-rule="evenodd" d="M51.3881 133.371L68.2961 152.815C68.5384 153.094 68.5089 153.516 68.2303 153.758C67.9518 154 67.5296 153.971 67.2874 153.692L51.7341 135.806L34.6711 172.671C34.516 173.006 34.1188 173.152 33.7838 172.997C33.4488 172.841 33.3029 172.444 33.458 172.109L51.3881 133.371Z" fill="#191919"/>
</g>
<defs>
<linearGradient id="paint0_linear_2284_782" x1="19.3974" y1="165.67" x2="109.139" y2="156.649" gradientUnits="userSpaceOnUse">
<stop stop-color="#2B66BD"/>
<stop offset="1" stop-color="#D0D4F9"/>
</linearGradient>
<radialGradient id="paint1_radial_2284_782" cx="0" cy="0" r="1" gradientUnits="userSpaceOnUse" gradientTransform="translate(34.9298 82.2602) rotate(133.29) scale(52.0121 52.0121)">
<stop stop-color="#B5EADD"/>
<stop offset="1" stop-color="#D0D4F9"/>
</radialGradient>
<radialGradient id="paint2_radial_2284_782" cx="0" cy="0" r="1" gradientUnits="userSpaceOnUse" gradientTransform="translate(67.7588 139.608) rotate(-5.73999) scale(14.1996 14.1996)">
<stop stop-color="#B5EADD"/>
<stop offset="1" stop-color="#D0D4F9"/>
</radialGradient>
<radialGradient id="paint3_radial_2284_782" cx="0" cy="0" r="1" gradientUnits="userSpaceOnUse" gradientTransform="translate(95.6796 34.8982) rotate(-5.74) scale(65.3195 65.3196)">
<stop stop-color="#FFC895"/>
<stop offset="1" stop-color="#B5EADD"/>
</radialGradient>
<linearGradient id="paint4_linear_2284_782" x1="161.718" y1="249.318" x2="91.6497" y2="134.809" gradientUnits="userSpaceOnUse">
<stop stop-color="#EE783C"/>
<stop offset="1" stop-color="#FFC895"/>
</linearGradient>
<linearGradient id="paint5_linear_2284_782" x1="205.79" y1="135.611" x2="152.262" y2="70.8999" gradientUnits="userSpaceOnUse">
<stop stop-color="#FFC895"/>
<stop offset="1" stop-color="#B5EADD"/>
</linearGradient>
<linearGradient id="paint6_linear_2284_782" x1="201.658" y1="224.878" x2="131.59" y2="110.369" gradientUnits="userSpaceOnUse">
<stop stop-color="#EE783C"/>
<stop offset="1" stop-color="#FFC895"/>
</linearGradient>
</defs>
</svg>
