<svg width="177" height="177" viewBox="0 0 177 177" fill="none" xmlns="http://www.w3.org/2000/svg">
<mask id="mask0_2220_5108" style="mask-type:luminance" maskUnits="userSpaceOnUse" x="0" y="0" width="177" height="177">
<path d="M88.5 177C137.377 177 177 137.377 177 88.5C177 39.6228 137.377 0 88.5 0C39.6227 0 0 39.6228 0 88.5C0 137.377 39.6227 177 88.5 177Z" fill="white"/>
</mask>
<g mask="url(#mask0_2220_5108)">
<path d="M90.0724 268.379C189.417 268.379 269.952 187.844 269.952 88.4996C269.952 -10.8451 189.417 -91.3799 90.0724 -91.3799C-9.27232 -91.3799 -89.8071 -10.8451 -89.8071 88.4996C-89.8071 187.844 -9.27232 268.379 90.0724 268.379Z" fill="white"/>
<path d="M165.358 7.64624C165.437 7.42526 165.168 7.21388 164.778 7.55626V8.2137L165.358 7.6449V7.64624Z" fill="#C0EBE3"/>
<path d="M161.924 8.77683C161.579 9.34836 161.283 10.13 161.896 10.3086C162.077 9.53523 162.321 9.62935 162.489 8.74273C162.874 8.38945 163.333 8.37718 163.374 8.58861C163.447 8.37036 164.104 8.23805 164.144 7.79883C163.354 7.8302 162.621 8.28582 162.104 9.09606C161.879 9.1097 161.947 8.88459 161.926 8.77683H161.924Z" fill="#C0EBE3"/>
<path d="M132.693 48.9225L132.798 48.6006C132.752 48.6865 132.717 48.797 132.693 48.9225Z" fill="#C0EBE3"/>
<path d="M146.094 75.6395C145.827 75.6272 145.709 75.6572 145.689 75.7077C145.816 75.7077 145.93 75.7049 146.007 75.6967C146.083 75.6845 146.121 75.6654 146.094 75.6395Z" fill="#C0EBE3"/>
<path d="M152.115 74.9619C151.993 75.0015 151.894 75.0397 151.785 75.0779C151.927 75.067 152.059 75.0342 152.115 74.9619Z" fill="#C0EBE3"/>
<path d="M132.694 48.9229L132.419 49.7563C132.589 49.834 132.604 49.3334 132.694 48.9229Z" fill="#C0EBE3"/>
<path d="M157.18 14.0155C157.299 13.8872 157.381 13.7577 157.442 13.624C157.345 13.7304 157.25 13.8313 157.147 13.9323C157.16 13.9595 157.171 13.9841 157.18 14.0155Z" fill="#C0EBE3"/>
<path d="M136.352 35.287L136.464 35.0511C136.441 34.9542 136.405 34.856 136.359 34.7578L136.353 35.2884L136.352 35.287Z" fill="#C0EBE3"/>
<path d="M141.901 25.9561C141.737 26.1416 142.061 26.4826 142.168 26.6763C142.096 26.454 142.131 26.2562 142.23 26.0625C142.161 26.0066 142.058 25.9697 141.9 25.9561H141.901Z" fill="#C0EBE3"/>
<path d="M154.159 14.0998L154.347 13.8584C154.301 13.9239 154.211 14.0221 154.159 14.0998Z" fill="#C0EBE3"/>
<path d="M133.463 42.5449C133.392 42.5449 133.324 42.5654 133.278 42.5954C133.334 42.6118 133.397 42.5886 133.463 42.5449Z" fill="#C0EBE3"/>
<path d="M160.476 68.2803C160.46 68.2939 160.456 68.3007 160.441 68.3144C160.319 68.5763 160.405 68.4399 160.476 68.2803Z" fill="#C0EBE3"/>
<path d="M99.2756 53.9158C100.33 53.5775 98.3303 55.3918 99.813 54.7575C99.5852 54.7111 100.434 53.3034 99.2756 53.9158Z" fill="#C0EBE3"/>
<path d="M156.933 14.1426C156.828 14.2381 156.72 14.3335 156.607 14.4222C156.767 14.3076 156.866 14.2217 156.933 14.1426Z" fill="#C0EBE3"/>
<path d="M99.8125 54.7579L99.8152 54.7606L99.9653 54.6924C99.9025 54.7197 99.8671 54.7347 99.8125 54.7579Z" fill="#C0EBE3"/>
<path d="M161.62 44.5869C161.581 44.6742 161.585 44.7915 161.59 44.9115C161.627 44.8788 161.644 44.7997 161.62 44.5869Z" fill="#C0EBE3"/>
<path d="M162.49 62.3286C162.563 62.199 162.628 62.0653 162.694 61.9316C162.599 62.0844 162.54 62.2154 162.49 62.3286Z" fill="#C0EBE3"/>
<path d="M154.143 38.6993C153.949 38.5479 153.9 38.4633 153.578 38.3691C153.594 38.4046 153.615 38.4319 153.642 38.4646C153.776 38.4646 153.937 38.4988 154.143 38.6993Z" fill="#C0EBE3"/>
<path d="M145.067 35.834C145.111 35.8776 145.172 35.9131 145.225 35.954C145.319 35.9608 145.428 35.9704 145.524 35.9772L145.067 35.834Z" fill="#C0EBE3"/>
<path d="M157.012 13.8162C157.045 13.9404 157.023 14.0345 156.933 14.1423C157.009 14.0727 157.078 14.0004 157.147 13.9322C157.124 13.8626 157.087 13.8081 157.012 13.8162Z" fill="#C0EBE3"/>
<path d="M152.13 41.7678L151.565 41.4499C151.375 41.3463 151.178 41.2548 150.984 41.1553C151.142 41.2494 151.328 41.3462 151.524 41.4485C151.716 41.5577 151.922 41.6655 152.13 41.7678Z" fill="#C0EBE3"/>
<path d="M52.65 94.2002L52.3608 94.3911C52.485 94.3461 52.5914 94.2848 52.65 94.2002Z" fill="#C0EBE3"/>
<path d="M147.247 39.9854C147.055 39.7713 146.829 39.6171 146.584 39.4971C146.522 39.5216 146.452 39.538 146.404 39.5831C146.549 39.6431 146.689 39.7112 146.829 39.7808L147.247 39.9854Z" fill="#C0EBE3"/>
<path d="M-10.0044 64.6125C-9.35371 65.8537 -9.16824 64.9084 -8.72084 65.0039C-7.77283 66.3816 -8.74538 65.896 -8.74402 66.5439C-8.09746 67.3814 -7.21492 67.7988 -6.85208 68.4836C-6.90937 68.5832 -6.8657 68.7318 -7.06348 68.6418C-6.57516 68.9964 -6.1646 69.7017 -5.7131 70.4096C-5.26706 71.1216 -4.78011 71.8363 -4.18675 72.2224C-4.1813 72.3315 -4.19903 72.3997 -4.22631 72.4434C-4.07763 72.1064 -3.83072 71.9169 -3.62202 71.8364C-3.28238 72.3588 -2.68355 72.6084 -2.89498 73.019C-3.08867 72.6903 -3.24008 72.7489 -3.44059 72.6643L-2.94686 73.124C-3.02734 73.5251 -3.19238 73.3654 -3.37652 73.1308C-3.56067 72.8962 -3.76802 72.588 -3.94671 72.7012C-3.11329 73.6901 -1.89926 74.6694 -1.49278 75.5697C-1.84334 76.0526 -2.91546 73.7665 -2.60719 75.1305C-2.83089 74.6709 -3.04099 74.2043 -3.2565 73.7419C-3.36835 75.196 -3.70658 72.9317 -3.92074 74.3408C-2.96045 76.1181 -2.45445 76.0663 -1.44915 77.8095C-0.934914 78.0005 -1.1572 77.4248 -0.64432 77.613C-0.124622 78.1136 0.152264 78.5215 0.296852 78.8802C0.441439 79.2376 0.453678 79.5486 0.463226 79.831C0.471411 80.1161 0.471397 80.3793 0.585978 80.648C0.699192 80.9181 0.928413 81.1937 1.40173 81.4937C1.71683 81.5947 2.04418 81.5769 2.37155 81.7079C2.70164 81.8375 3.0331 82.113 3.35501 82.8114L2.54478 82.8155C2.83805 83.2083 3.07944 83.417 3.28541 83.5439C3.49002 83.6707 3.66058 83.7144 3.8229 83.7663C4.14618 83.8726 4.44621 84.009 4.95908 84.9175C4.5335 84.8097 3.78873 83.8972 3.92786 84.17C4.17476 84.8343 4.39982 84.9543 4.64398 85.0007C4.88678 85.0484 5.1501 85.0253 5.49384 85.4004L5.22237 85.9337C6.70507 87.4259 8.62153 88.7804 10.4603 90.1977C10.2556 90.2427 9.83282 90.1145 10.1411 90.6001C11.3605 91.4526 12.5991 92.4333 13.8731 93.3882C15.1471 94.343 16.4579 95.2733 17.7524 96.0453C17.9584 96.0494 18.1643 96.0644 18.3662 96.0576L18.9705 96.0412C19.2037 96.1421 19.3278 96.4218 19.0346 96.404C20.0112 96.996 19.2038 96.1421 19.7739 96.1667C20.3727 96.3713 20.4546 96.741 20.0276 96.7246C20.1517 96.7478 20.2827 96.7709 20.4177 96.7969C20.5555 96.8173 20.6987 96.8392 20.8474 96.861C21.1434 96.9074 21.4558 96.9606 21.7804 97.0206C21.9414 97.052 22.1064 97.0833 22.2728 97.116C22.4392 97.1501 22.607 97.1856 22.7803 97.2102C23.1254 97.2648 23.4745 97.3261 23.8223 97.3943C23.9956 97.4284 24.1688 97.4639 24.342 97.5021C24.5139 97.5389 24.6844 97.5825 24.8563 97.6098C25.1987 97.6726 25.5342 97.7435 25.8561 97.8226C26.1781 97.9004 26.4849 97.9931 26.7755 98.0845C27.0674 98.165 27.3402 98.2564 27.5885 98.3587L27.1629 98.4392C27.954 98.6547 28.4451 98.4883 28.9061 98.3246C29.3712 98.1514 29.8023 98.0054 30.5252 98.2973L30.2347 98.3573C30.4516 98.3887 30.6685 98.4241 30.8881 98.446C31.1077 98.4596 31.33 98.4746 31.5523 98.4883C31.997 98.5114 32.4444 98.532 32.8919 98.5429C33.3393 98.5306 33.7853 98.5196 34.2286 98.5074C34.4496 98.5005 34.6705 98.4951 34.8902 98.4883C35.1084 98.4719 35.3266 98.4555 35.5421 98.4392C35.9732 98.4078 36.3988 98.3805 36.8162 98.3628C37.2322 98.3328 37.6373 98.2946 38.0329 98.2782C38.2307 98.2686 38.4257 98.2632 38.6194 98.2605C38.7163 98.2605 38.8117 98.2605 38.9059 98.2605C39 98.2577 39.0941 98.2564 39.1869 98.2537C39.5579 98.2469 39.9166 98.255 40.2631 98.2864C40.3559 98.0927 40.6177 97.9768 40.9601 97.895C41.297 97.7981 41.7144 97.734 42.1223 97.663C42.9421 97.5335 43.7045 97.3165 43.6827 96.82C44.1888 96.805 44.5393 96.8119 44.823 96.8255C45.1068 96.8364 45.3196 96.8419 45.5583 96.8419C45.797 96.8419 46.0575 96.8269 46.434 96.7777C46.6222 96.7532 46.8391 96.7205 47.0942 96.6741C47.3466 96.6209 47.6398 96.554 47.9822 96.4708C48.7024 96.2512 48.8197 95.5283 49.6217 95.0809L49.8331 95.5433L50.7798 94.579L51.6255 94.864L52.358 94.3907C52.032 94.5053 51.6009 94.4821 51.5887 94.3279C51.8697 94.1383 52.2052 93.9801 52.5517 93.8519C52.8995 93.7264 53.2487 93.6105 53.5761 93.5368C54.2268 93.3854 54.7628 93.3568 54.8364 93.4659C55.2784 93.1644 55.7094 92.848 56.1432 92.5411L56.7925 92.0773L57.4281 91.5971C57.4649 91.8072 57.0421 92.1346 56.7324 92.4456C57.9614 91.1743 57.2617 92.7648 58.3829 91.5931C58.1456 91.5944 58.3311 91.2753 58.3107 91.1689C58.7253 91.1184 59.3023 90.8578 59.9134 90.5223C60.2176 90.3531 60.5313 90.1676 60.83 89.9685C61.126 89.7666 61.4111 89.5593 61.6675 89.3601L61.643 89.7885C61.8967 89.6425 62.1518 89.4898 62.4068 89.3302C62.6633 89.1733 62.9183 89.0068 63.1693 88.8322C63.6754 88.4858 64.1842 88.123 64.6984 87.7533C65.2058 87.3755 65.7201 86.9908 66.2384 86.6048C66.7595 86.2229 67.2751 85.826 67.8098 85.4509C66.9518 85.8614 66.7786 85.2408 67.3637 84.7524L67.9257 85.0116C68.1331 84.4564 67.1591 85.309 67.7443 84.3937C68.5627 83.874 68.6309 84.5028 68.2817 84.9748L69.1247 84.125C69.2761 84.2123 69.1029 84.4455 69.1643 84.6529C69.2611 84.3746 69.7522 84.1809 70.2487 83.9449C70.7439 83.7076 71.2349 83.4211 71.34 82.9805L71.4899 83.0678C73.566 81.4938 74.3694 80.6112 76.0022 79.2704C75.743 78.8844 76.4482 78.4437 76.6979 77.7576C77.9896 76.8969 79.5433 76.0772 80.9427 74.8455C81.7939 73.8252 80.9809 74.2998 81.251 73.7092C81.5961 73.9684 82.9861 72.7339 82.4487 73.5891C84.1019 72.0873 84.5601 71.6699 86.4657 69.5652C86.1206 69.6348 85.8123 69.804 85.8519 69.5775C86.1929 69.1915 86.8449 68.9487 86.9227 69.1492L86.8504 69.2706C88.8201 66.7185 93.1481 65.4008 94.4644 63.0942L94.3867 63.2197L96.0522 61.171C97.0056 60.4453 95.7166 61.8789 96.5568 61.4997C98.221 59.1358 99.9806 58.6994 101.446 56.8688C102.527 56.7761 103.726 55.7585 104.963 54.6618C106.201 53.5678 107.48 52.3961 108.67 51.991L108.382 51.8409C108.699 51.2408 109.077 51.5245 109.48 51.3049C109.292 51.1617 108.788 51.4986 108.998 51.1399C110.979 49.4253 113.238 47.9426 115.592 46.6358C117.948 45.3291 120.393 44.2024 122.768 43.178C122.984 43.0811 123.15 42.9802 123.282 42.8751C123.415 42.7715 123.513 42.6733 123.588 42.5669C123.739 42.3582 123.805 42.1413 123.894 41.9354C124.071 41.5275 124.345 41.1347 125.594 41.0119L125.176 41.7717C126.798 40.7159 128.658 40.0885 130.512 39.6424C130.744 39.5878 130.974 39.521 131.207 39.476C131.441 39.431 131.673 39.386 131.904 39.341C132.136 39.2932 132.367 39.2454 132.599 39.1977C132.831 39.1595 133.061 39.1213 133.292 39.0845C133.753 39.0081 134.208 38.9072 134.665 38.8472C134.893 38.8103 135.121 38.7708 135.347 38.7257L135.687 38.6562C135.804 38.6358 135.923 38.6153 136.04 38.5935C135.822 38.7285 135.814 38.884 135.466 38.914C135.566 38.9576 135.676 38.9795 135.814 39.0027C135.95 39.0245 136.1 39.0354 136.256 39.0381C136.569 39.0422 136.912 39.0095 137.23 38.9563C137.863 38.8635 138.403 38.6876 138.411 38.5253C139 38.5594 138.547 38.8117 138.906 38.9808C139.3 39.1077 139.797 38.9918 140.254 38.8977C140.707 38.8172 141.119 38.753 141.315 38.9617C141.382 39.0299 141.086 39.0777 140.94 39.0995C141.071 39.0586 141.286 39.0504 141.528 39.0518C141.769 39.0559 142.034 39.0818 142.27 39.0913C142.74 39.1118 143.092 39.0886 142.871 38.8403C143.553 39.0313 144.222 39.0531 144.849 39.1186C145.481 39.165 146.069 39.2591 146.582 39.4964C146.783 39.4105 147.025 39.4228 147.281 39.4705C147.536 39.5196 147.805 39.6056 148.052 39.6997C148.302 39.7897 148.536 39.8674 148.737 39.8852C148.937 39.9029 149.098 39.8702 149.209 39.7147C149.128 39.8838 149.22 40.0529 149.413 40.2071C149.51 40.2848 149.633 40.3585 149.773 40.4281C149.91 40.5044 150.065 40.5768 150.229 40.6423C150.393 40.7091 150.569 40.7677 150.743 40.8264C150.915 40.8891 151.091 40.9437 151.26 40.9901C151.604 41.076 151.912 41.151 152.143 41.1674C151.789 41.2451 152.698 41.7007 152.256 41.8317C153.093 42.2613 153.883 42.6187 153.957 42.2082C154.089 42.4141 154.219 42.6092 154.374 42.766C154.451 42.8452 154.531 42.9188 154.614 42.987C154.696 43.0552 154.777 43.1262 154.861 43.1889C155.029 43.3171 155.21 43.4222 155.386 43.5299C155.56 43.6404 155.736 43.7413 155.907 43.8409C155.995 43.8886 156.077 43.9418 156.154 43.9964C156.233 44.0496 156.31 44.1042 156.382 44.1587C156.527 44.2692 156.666 44.3783 156.767 44.5106C156.971 44.7712 157.097 45.0563 157.025 45.4286C159.107 47.2333 160.401 49.6681 160.969 52.2229C160.593 52.2297 160.467 51.5368 160.282 50.8861C160.238 50.7224 160.181 50.5656 160.131 50.4196C160.076 50.275 160.027 50.14 159.957 50.0377C159.825 49.829 159.68 49.7254 159.504 49.8127C160.02 50.863 160.439 51.7414 160.736 52.6717C161.027 53.6006 161.192 54.5895 161.035 55.8212C161.003 55.9795 160.963 56.034 160.927 56.0244C160.892 56.0149 160.858 55.9399 160.818 55.8403C160.743 55.6398 160.671 55.3383 160.612 55.2306C160.727 56.45 160.552 57.6436 160.298 58.7703C160.045 59.9038 159.712 60.9746 159.481 62.0808C159.45 62.0644 159.44 61.9949 159.443 61.8994C159.443 61.8039 159.451 61.6825 159.465 61.5679C159.432 61.6716 159.388 61.7807 159.343 61.8857C159.296 61.9894 159.249 62.0903 159.218 62.1817C159.155 62.3631 159.151 62.5064 159.315 62.55L159.395 62.1204C159.757 61.8885 159.83 62.3836 159.821 62.9837C159.809 63.2784 159.781 63.6003 159.759 63.8568C159.735 64.1119 159.728 64.3069 159.776 64.3546C159.649 64.0696 159.506 64.0518 159.357 64.1528C159.282 64.2032 159.207 64.2851 159.129 64.3778C159.049 64.4692 158.966 64.5742 158.884 64.6738C158.72 64.8743 158.556 65.0558 158.4 65.079C158.244 65.1035 158.11 64.9739 157.994 64.5688C157.906 64.8457 157.853 65.2371 158.08 65.2999C157.943 65.469 157.823 65.5618 157.742 65.5495C157.66 65.5372 157.626 65.4254 157.627 65.1731C157.461 65.5264 157.362 65.7692 157.308 65.9628C157.251 66.1538 157.228 66.2861 157.206 66.4157C157.183 66.5439 157.158 66.6653 157.085 66.829C157.007 66.9873 156.88 67.1864 156.659 67.4701C156.535 67.3637 156.662 67.095 156.598 66.8631C156.55 67.0514 156.508 67.2478 156.442 67.4374C156.378 67.627 156.302 67.8207 156.203 68.0171C156 68.4031 155.704 68.8014 155.224 69.182C155.205 69.0606 155.017 69.0687 155.27 68.8137C154.567 69.5666 154.04 70.3019 153.404 70.9921C152.772 71.6754 152.017 72.3165 150.911 72.6971C150.983 72.4625 150.964 72.352 150.899 72.3151C150.832 72.2797 150.713 72.3097 150.571 72.3492C150.431 72.3902 150.27 72.4434 150.123 72.4557C150.048 72.4639 149.979 72.4556 149.919 72.4256C149.859 72.3984 149.806 72.3547 149.764 72.2892C149.608 72.3806 149.454 72.4829 149.293 72.5702L148.802 72.813C148.967 72.8662 149.136 72.9194 149.312 72.9699C149.194 73.004 149.078 73.0449 148.966 73.0899C148.91 73.1118 148.854 73.139 148.798 73.1595C148.742 73.1799 148.686 73.2004 148.63 73.2195C148.408 73.3013 148.192 73.4091 147.97 73.4678C147.749 73.536 147.528 73.6083 147.304 73.6192C147.082 73.6396 146.86 73.6451 146.644 73.5728C146.898 73.5128 147.145 73.4036 147.382 73.3163L146.924 73.3613C146.77 73.3695 146.616 73.3641 146.462 73.3682C146.384 73.3682 146.306 73.3709 146.228 73.3695L145.996 73.3504C145.841 73.3354 145.684 73.3328 145.53 73.3109C145.696 73.3846 145.868 73.4378 146.04 73.5046C146.212 73.5755 146.389 73.6164 146.569 73.6655C146.306 73.731 146.171 73.8142 146.101 73.8865C146.03 73.9629 146.025 74.0448 146.01 74.1102C145.995 74.1757 145.972 74.2248 145.861 74.233C145.805 74.2371 145.729 74.233 145.62 74.2139C145.565 74.2043 145.504 74.1934 145.433 74.177C145.363 74.1552 145.286 74.1293 145.197 74.0979C145.35 74.0979 145.078 74.0393 144.715 73.9124C144.537 73.836 144.336 73.7433 144.155 73.6383C143.975 73.5292 143.822 73.39 143.725 73.2563C143.725 73.2563 143.728 73.2563 143.729 73.2563C143.167 73.2454 142.551 73.1649 141.932 72.6057C141.896 72.4638 142.024 72.3451 142.152 72.236C142.281 72.1283 142.41 72.0287 142.391 71.9373C142.218 71.9755 141.997 71.9155 141.749 71.805C141.626 71.7491 141.503 71.6672 141.374 71.5868C141.245 71.5022 141.109 71.419 140.981 71.3208C140.853 71.2225 140.723 71.1229 140.595 71.0288C140.531 70.9825 140.465 70.9361 140.401 70.8938C140.34 70.8475 140.278 70.8024 140.218 70.7602C139.978 70.591 139.735 70.4764 139.521 70.4423C139.77 70.5214 140.012 70.295 140.007 70.2009C139.804 70.1954 139.606 70.1777 139.401 70.1613C139.278 69.9281 139.218 69.7876 139.22 69.6935C139.224 69.5953 139.287 69.5448 139.409 69.493C138.967 68.8901 138.888 69.1015 138.816 69.2706C138.779 69.3552 138.745 69.4275 138.662 69.377C138.621 69.3511 138.568 69.2951 138.497 69.1956C138.429 69.0933 138.35 68.9405 138.247 68.7318C138.359 68.8273 138.37 68.7359 138.595 68.9364C138.112 68.163 137.594 67.4564 137.103 66.7348C136.988 66.5493 136.874 66.3652 136.76 66.1824L136.594 65.9042C136.544 65.8101 136.494 65.7132 136.447 65.6177C136.351 65.4254 136.26 65.2317 136.177 65.0367C136.098 64.8389 136.033 64.6342 135.973 64.4296C136.163 64.0818 136.34 64.4065 136.501 64.7243C136.669 65.0394 136.833 65.3409 136.949 64.9794C136.402 63.9291 135.8 62.8297 135.308 61.6716C135.19 61.3811 135.066 61.0905 134.961 60.7959C134.86 60.4999 134.764 60.2025 134.675 59.9065C134.518 59.3077 134.384 58.7102 134.342 58.1155L134.339 58.5643C133.886 58.4715 133.919 58.005 134.013 57.4335C134.066 57.147 134.131 56.8333 134.147 56.521C134.163 56.2086 134.157 55.8935 134.03 55.6002C134.114 55.8921 134.54 55.9494 134.436 55.8785C134.444 55.4734 134.414 55.0683 134.391 54.6454C134.376 54.434 134.356 54.2199 134.33 53.9989C134.304 53.7779 134.289 53.5515 134.263 53.3182C134.237 53.0836 134.21 52.8435 134.181 52.5953C134.161 52.3457 134.139 52.0878 134.117 51.8205C134.062 51.2844 134.05 50.7088 134.031 50.0827L134.229 50.4101C134.358 49.9395 134.48 49.3175 134.57 48.6832C134.624 48.3668 134.684 48.049 134.742 47.7475C134.77 47.5961 134.8 47.4487 134.83 47.3083C134.862 47.1678 134.901 47.0355 134.938 46.91C134.777 46.5676 134.93 45.9865 134.54 46.2784C134.658 46.0957 134.759 45.9129 134.858 45.7301C134.959 45.5487 135.047 45.3659 135.128 45.1831C135.289 44.8175 135.4 44.4479 135.514 44.081C135.621 43.7127 135.702 43.3403 135.772 42.9679C135.852 42.5983 135.919 42.2273 135.983 41.8562C136.042 41.4839 136.123 41.1196 136.207 40.7582C136.249 40.5781 136.294 40.3981 136.342 40.2207L136.417 39.9561C136.445 39.8688 136.477 39.7829 136.508 39.697C136.635 39.3546 136.782 39.0218 136.962 38.7053C137.05 38.5457 137.152 38.3929 137.265 38.2456C137.377 38.0983 137.5 37.955 137.632 37.8173C137.498 38.1324 137.489 38.6399 137.598 38.3916L137.985 37.2376C138.119 36.8543 138.269 36.4765 138.41 36.0932C137.984 36.1027 138.064 36.2814 137.575 36.6224C137.505 36.2487 137.64 35.5366 137.916 34.9856C137.653 36.0973 138.461 35.242 138.875 34.9242C138.734 34.9419 138.695 34.7387 138.571 34.7196C139.167 34.3063 139.019 34.1712 138.879 33.968C138.809 33.8671 138.736 33.747 138.764 33.5711C138.793 33.3965 138.918 33.1632 139.233 32.8332L139.362 33.0118C139.479 32.7008 139.553 32.3775 139.651 32.0611C139.757 31.7474 139.884 31.4377 140.093 31.1472C140.622 31.124 139.905 31.8551 140.194 32.0775C140.439 31.6464 140.514 31.1199 140.637 30.6288C140.768 30.1446 140.952 29.6985 141.38 29.4394C141.252 29.8636 140.917 30.3724 140.797 30.7952C141.762 30.2469 141.715 30.0887 142.177 29.5254L142.128 29.5785C142.499 29.157 142.892 28.7506 143.27 28.3386L142.912 28.606C142.855 28.1886 142.904 27.8394 143.023 27.527C143.147 27.2187 143.334 26.9446 143.538 26.6677C143.746 26.3921 143.963 26.1071 144.167 25.7893C144.374 25.4714 144.556 25.1113 144.672 24.6625C144.209 26.3867 144.826 25.129 145.138 25.5396C145.512 25.2927 146.033 24.8863 146.028 25.1182C146.118 24.6858 146.397 24.4893 146.676 24.2438C146.958 24.001 147.238 23.7077 147.385 23.098C147.539 23.1676 147.959 22.4828 148.142 22.8838C148.729 22.0422 147.774 22.8756 147.68 22.6792C147.84 22.2946 148.109 21.9563 148.434 21.6317C148.764 21.3125 149.16 21.0165 149.559 20.6973C149.76 20.5377 149.963 20.374 150.162 20.2008C150.365 20.0303 150.569 19.8543 150.761 19.6633C151.148 19.2828 151.493 18.8381 151.776 18.3088C152.387 17.5259 152.667 16.9694 152.943 16.4292C153.23 15.8986 153.508 15.3816 154.111 14.6669C154.429 14.5578 154.429 14.7528 154.35 14.9751C154.271 15.1975 154.115 15.4458 154.115 15.4458C154.342 15.3244 154.543 15.2002 154.73 15.0706C154.917 14.9411 155.093 14.8142 155.255 14.6737C155.583 14.3941 155.869 14.079 156.172 13.7052C156.115 13.9357 156.341 13.9003 156.675 13.8567C157.229 13.3465 156.699 13.0859 157.626 12.6481C157.604 12.895 157.611 13.2551 157.441 13.6193C157.741 13.2865 158.015 12.9264 158.295 12.5608C158.434 12.3781 158.575 12.1953 158.72 12.0152C158.869 11.8393 159.023 11.666 159.185 11.4982C159.551 11.576 158.996 12.1652 158.858 12.5117C159.223 12.1434 159.723 11.6988 160.122 11.265C160.523 10.8353 160.829 10.4207 160.832 10.1533C160.619 10.2379 160.413 10.3306 160.203 10.422C160.493 10.1778 160.583 10.6116 160.41 10.8435C159.911 11.6537 159.298 11.4887 159.159 11.3918L159.622 10.9144C159.345 10.8271 159.08 10.8926 158.821 11.0481C158.562 11.2049 158.307 11.4505 158.064 11.7437C157.573 12.3248 157.091 13.0355 156.559 13.4283C156.555 13.1337 156.559 12.8445 156.559 12.5512C156.319 12.9782 156.094 13.4202 155.869 13.8567C155.535 13.9044 155.135 13.7407 155.575 13.2387C154.624 13.5934 155.084 13.9671 154.209 14.2072C154.101 14.2208 154.111 14.169 154.159 14.0954C153.966 14.3504 153.78 14.6109 153.59 14.8674C153.632 14.6382 153.153 14.6069 153.651 14.3C152.892 14.7106 152.463 15.2561 152.133 15.7049C151.808 16.1632 151.574 16.5165 151.165 16.5438L151.238 16.417C150.462 17.2995 150.513 17.4291 150.644 17.5423C150.775 17.6528 150.985 17.7483 150.575 18.5681C150.009 18.5462 149.439 18.5284 148.865 18.5162L149.06 19.0304C148.881 19.1914 148.525 19.5092 148.442 19.306C148.072 20.1926 148.704 19.3482 148.581 19.9484C148.3 20.078 148.03 20.2963 147.774 20.5445C147.514 20.7914 147.287 21.0847 147.059 21.3397C146.61 21.8567 146.201 22.2578 145.815 22.0954C145.83 22.6574 146.768 21.4598 146.155 22.5619C145.715 22.4132 145.511 22.712 145.297 23.113C145.081 23.5154 144.853 24.0147 144.376 24.3079C144.229 23.7719 145.051 23.1389 144.073 23.7159C144.164 24.2042 143.812 24.5807 143.377 24.9395C143.158 25.1168 142.926 25.2968 142.723 25.4823C142.518 25.6665 142.338 25.8561 142.233 26.0579C142.346 26.1548 142.343 26.3117 142.263 26.5108C142.181 26.71 142.024 26.9514 141.84 27.2324C141.47 27.7903 140.937 28.46 140.621 29.1516C140.592 29.1038 140.464 29.217 140.273 29.4312C140.085 29.6467 139.82 29.9536 139.557 30.3192C139.288 30.682 138.992 31.0831 138.711 31.465C138.437 31.851 138.178 32.2207 137.955 32.5017L137.889 32.4171C138.275 32.945 137.496 34.1644 137.145 35.167C136.84 34.9719 136.784 34.7332 136.908 34.1494L136.68 34.5955L136.466 35.0483C136.539 35.3457 136.497 35.6703 136.283 36.2814L135.98 35.8667C135.838 36.1682 135.747 36.4955 135.65 36.8256C135.56 37.1571 135.467 37.4954 135.372 37.846C135.283 38.1979 135.181 38.5553 135.044 38.9181C134.978 39.0995 134.896 39.2809 134.814 39.4678C134.732 39.6546 134.639 39.8415 134.532 40.0311C134.714 40.1471 135.105 39.9261 135.405 39.9043C135.705 39.8811 135.919 40.0557 135.759 40.9287C135.522 40.915 135.13 40.8537 135.199 40.3817C135.177 40.5372 135.193 40.956 135.005 41.2165C134.957 40.9505 134.919 40.6873 134.877 40.4185C134.462 41.0951 135.038 40.9 134.819 41.4743C134.514 41.3624 134.462 41.8399 134.242 41.6775C134.26 41.5166 134.532 41.2015 134.482 40.9355C134.349 41.2602 134.174 41.6107 133.991 41.9053C133.809 42.2 133.618 42.4401 133.465 42.5437C133.659 42.5355 133.885 42.6665 133.79 43.1725C133.464 44.4602 133.282 43.508 132.936 44.2282C133.082 44.5979 132.653 45.3781 133.128 45.5036C133.05 45.8856 132.814 45.9101 132.655 46.0329C132.692 46.749 132.195 49.2438 132.814 48.5413L132.87 48.3708C132.876 48.4049 132.872 48.4432 132.877 48.4855C132.975 49.6299 132.779 50.7675 132.634 51.9269C132.546 52.5053 132.49 53.0863 132.449 53.6647C132.424 53.9539 132.432 54.2416 132.438 54.5267C132.449 54.8118 132.46 55.0942 132.506 55.3725L132.344 55.3779C132.413 55.7107 132.466 56.0613 132.516 56.4159C132.572 56.7692 132.633 57.1253 132.693 57.469C132.747 57.8127 132.838 58.1401 132.923 58.4388C133.012 58.7375 133.113 59.0049 133.247 59.2204C133.319 59.6037 133.128 60.1902 132.907 60.0634C133.252 61.0469 133.435 61.1069 133.588 62.61C133.028 61.6893 133.439 63.0288 133.099 61.6388C133.155 61.973 133.187 62.2472 133.214 62.4913C133.245 62.7341 133.285 62.9442 133.335 63.1543C133.39 63.3629 133.455 63.5716 133.575 63.7994C133.698 64.0272 133.862 64.281 134.091 64.5811C133.814 64.4229 133.768 64.712 133.869 65.1076C133.916 65.3054 133.996 65.5318 134.084 65.7419C134.17 65.9533 134.287 66.1429 134.383 66.2793L134.315 65.7814L134.267 65.2822C134.352 65.4431 134.427 65.6027 134.499 65.7582C134.577 65.9124 134.648 66.0638 134.716 66.2152C134.784 66.3666 134.848 66.5166 134.911 66.6653C134.975 66.814 135.046 66.9599 135.113 67.1072C134.896 67.0881 134.679 67.0677 134.459 67.0432C134.552 67.3978 134.675 67.7306 134.825 68.0403C134.984 68.3458 135.167 68.6309 135.36 68.8983C135.563 69.1615 135.781 69.4043 135.998 69.6376C136.22 69.8681 136.458 70.0795 136.68 70.2895C136.79 70.3959 136.905 70.4969 137.021 70.5951C137.134 70.6947 137.246 70.7942 137.354 70.8952C137.564 71.0998 137.781 71.2921 137.973 71.5022C138.07 71.6072 138.16 71.715 138.246 71.8268C138.337 71.9346 138.423 72.0478 138.502 72.1678C138.662 72.4065 138.793 72.6725 138.918 72.9576C139.341 73.0694 139.075 72.7585 138.832 72.4311C138.595 72.0928 138.366 71.7505 138.764 71.8282C138.873 71.9482 138.976 72.0778 139.072 72.2115C139.171 72.3452 139.272 72.4761 139.364 72.6139C139.457 72.7503 139.546 72.8908 139.63 73.0299C139.72 73.1663 139.806 73.2986 139.888 73.4255C140.207 73.9479 140.51 74.3612 140.689 74.4881C140.734 74.529 140.778 74.5685 140.821 74.6054C140.866 74.6408 140.911 74.6722 140.955 74.7022C141.042 74.7636 141.127 74.8154 141.207 74.8618C141.37 74.9532 141.518 75.0214 141.66 75.0651C141.952 75.1442 142.203 75.151 142.453 75.1537C142.577 75.1578 142.705 75.1496 142.839 75.1496C142.972 75.1496 143.11 75.1565 143.26 75.1783C143.335 75.1892 143.411 75.2028 143.493 75.2219C143.575 75.2383 143.664 75.2546 143.754 75.2792C143.938 75.3256 144.137 75.3965 144.369 75.4893C144.271 75.3624 144.208 75.1524 144.342 75.0078C144.375 74.971 144.421 74.9396 144.48 74.9123C144.54 74.8823 144.616 74.8564 144.707 74.8373C144.799 74.8182 144.908 74.8059 145.036 74.8004C145.164 74.7936 145.31 74.8059 145.482 74.8004C145.638 74.8318 145.777 74.87 145.901 74.915C145.962 74.9382 146.021 74.9613 146.075 74.9873C146.13 75.0091 146.182 75.0309 146.228 75.0541C146.418 75.1469 146.547 75.2601 146.611 75.3706C146.742 75.5929 146.605 75.8139 146.153 75.8658C145.984 75.8685 145.863 75.833 145.785 75.803C145.707 75.7702 145.676 75.7334 145.687 75.7021C145.462 75.7034 145.196 75.7143 145.054 75.7375C144.912 75.762 144.883 75.8357 145.141 75.9953L145.357 75.8289C145.522 75.9012 145.767 75.9776 146.04 76.0363C146.313 76.0826 146.61 76.1263 146.873 76.1672C147.399 76.2136 147.793 76.2709 147.564 76.44C147.633 76.4264 147.696 76.4113 147.75 76.3991C147.806 76.3827 147.854 76.365 147.896 76.35C147.981 76.3186 148.042 76.2899 148.081 76.2654C148.16 76.2149 148.153 76.1781 148.089 76.1508C148.025 76.1235 147.903 76.1058 147.746 76.0935C147.59 76.0717 147.4 76.0499 147.199 76.0308C147.314 76.0444 147.426 76.0567 147.536 76.0662C147.645 76.0758 147.753 76.0854 147.857 76.0799C148.066 76.0758 148.266 76.0649 148.458 76.0499C148.653 76.0403 148.835 75.9953 149.016 75.9626C149.196 75.9244 149.375 75.8889 149.551 75.8425C149.724 75.788 149.898 75.7348 150.073 75.6789C150.162 75.6516 150.251 75.6243 150.341 75.5957C150.431 75.5684 150.518 75.5288 150.609 75.496C150.791 75.4278 150.98 75.3597 151.181 75.2901C151.379 75.2205 151.564 75.1428 151.779 75.0705C151.476 75.0951 151.152 74.9941 151.402 74.8782C152.009 74.6681 152.351 74.4785 152.563 74.3393C152.774 74.2016 152.841 74.087 152.885 73.9861C152.927 73.8838 152.942 73.7856 153.033 73.6533C153.08 73.5878 153.144 73.5141 153.241 73.4282C153.335 73.3382 153.46 73.2318 153.629 73.1077C154.112 72.9699 154.142 73.1581 154.209 73.2454C154.275 73.33 154.389 73.3082 155.007 72.6917C155.482 72.4448 155.61 72.5075 155.585 72.6862C155.561 72.8635 155.385 73.1595 155.26 73.3532C155.79 72.7093 156.4 72.2797 156.966 71.9046C157.108 71.8118 157.248 71.7245 157.386 71.6413C157.522 71.5567 157.649 71.4708 157.773 71.3904C158.02 71.228 158.244 71.0766 158.41 70.9129C158.26 71.1639 158.091 71.4012 157.926 71.6468C158.074 71.4272 158.226 71.2471 158.368 71.0739C158.511 70.9006 158.655 70.7424 158.799 70.5829L158.181 70.6838C158.374 70.5214 158.541 70.3632 158.675 70.2568C158.805 70.1477 158.901 70.0945 158.961 70.1518C159.03 69.8708 158.84 69.8435 158.685 69.7576C158.528 69.673 158.406 69.5284 158.585 69.0401C158.723 68.9446 158.855 68.7905 158.986 68.6173C159.052 68.53 159.117 68.4399 159.18 68.3458C159.241 68.2517 159.303 68.1576 159.361 68.0662C159.481 67.8848 159.605 67.7211 159.728 67.6065C159.849 67.4905 159.976 67.4264 160.115 67.451C159.803 67.8547 159.663 68.0498 159.641 68.159C159.616 68.2654 159.698 68.2776 159.792 68.2858C159.978 68.3008 160.229 68.3049 159.734 69.0429C159.815 68.8901 159.912 68.7264 160.035 68.5572C160.156 68.3867 160.309 68.2149 160.474 68.0239C160.563 67.9925 160.526 68.1439 160.472 68.2735C160.848 67.9216 161.036 67.6693 161.125 67.4715C161.208 67.271 161.194 67.1236 161.17 66.9695C161.144 66.814 161.109 66.653 161.143 66.4184C161.17 66.1811 161.275 65.8797 161.512 65.4309C161.651 65.8005 162.224 65.2617 162.317 64.9262C162.13 65.3013 161.973 65.3326 161.886 65.1771C161.842 65.0994 161.814 64.9752 161.806 64.8225C161.796 64.6697 161.799 64.4856 161.826 64.2932C162.568 63.2034 162.223 62.936 162.485 62.3208L162.114 63.0001C161.934 62.6509 162.202 62.0767 162.384 61.2092C162.625 61.2051 162.279 62.0194 162.474 61.7507C162.429 61.4752 162.486 61.2215 162.579 60.9609C162.674 60.7018 162.831 60.4453 162.976 60.1684C163.125 59.8929 163.285 59.6037 163.389 59.2886C163.444 59.1317 163.489 58.9694 163.517 58.8017C163.543 58.6339 163.549 58.4592 163.536 58.2806C163.688 57.9791 163.827 57.9819 163.955 57.9969C164.083 58.0105 164.206 58.0337 164.31 57.7527C164.268 57.3408 164.288 57.0338 164.321 56.7706C164.358 56.5073 164.434 56.2932 164.499 56.0722C164.564 55.8512 164.63 55.6261 164.666 55.3479C164.695 55.0696 164.686 54.7368 164.605 54.3099C164.412 54.5608 164.334 54.7014 164.262 54.6359C164.225 54.6031 164.19 54.5172 164.139 54.3685C164.085 54.2199 164.007 54.0084 163.901 53.7179C164.047 54.6222 164.109 55.5389 164.133 56.4596C164.068 56.1595 163.981 55.8608 163.901 55.5661C163.824 55.2729 163.725 54.9809 163.631 54.6945C163.639 55.5006 163.813 56.4187 163.702 56.9015C163.455 56.0504 163.543 56.154 163.186 56.5046C163.271 56.375 163.333 56.2441 163.377 56.109C163.415 55.974 163.434 55.8376 163.442 55.7012C163.451 55.5648 163.444 55.4256 163.431 55.2851C163.416 55.146 163.389 55.0055 163.362 54.8637C163.336 54.7232 163.309 54.5813 163.283 54.4381C163.255 54.2948 163.227 54.1503 163.211 54.0044C163.194 53.8584 163.186 53.7097 163.194 53.5569C163.195 53.4041 163.212 53.2486 163.247 53.0877L164.22 53.0454C164.351 52.0292 164.09 51.1398 163.719 50.2382C163.347 49.3298 162.893 48.4063 162.485 47.176C162.553 47.4502 162.597 47.7298 162.646 48.0053C162.524 47.9603 162.425 47.8484 162.337 47.6943C162.252 47.5401 162.159 47.3505 162.074 47.1405C162.032 47.0354 161.988 46.9277 161.943 46.8172C161.897 46.7081 161.844 46.6017 161.792 46.4953C161.684 46.2852 161.576 46.0806 161.439 45.921C161.762 45.8297 161.602 45.3222 161.587 44.9007C161.497 44.9826 161.239 44.5788 160.916 44.1792C160.575 43.7918 160.171 43.4139 159.84 43.5367L159.639 42.9611C159.573 42.7661 159.489 42.5832 159.412 42.3923C158.76 41.5616 158.139 41.3365 157.554 41.1483C157.265 41.0474 156.959 40.9791 156.649 40.8427C156.343 40.7009 156.002 40.5358 155.628 40.2371C155.963 40.2548 155.988 40.0939 156.075 39.9929C156.163 39.8947 156.321 39.8456 156.936 40.1389C156.671 39.9356 156.416 39.7488 156.218 39.6233C156.119 39.5619 156.032 39.5183 155.962 39.5005C155.891 39.4855 155.836 39.4978 155.804 39.5428C155.695 39.3587 155.251 39.1964 154.786 39.0408C154.318 38.8894 153.844 38.7162 153.642 38.4543C153.486 38.4571 153.353 38.5253 153.178 38.5512C153.003 38.5757 152.792 38.5553 152.469 38.4039C152.424 38.3125 152.537 38.2579 152.537 38.2579C152.466 38.4011 151.428 38.0124 151.856 38.5921C151.163 37.7518 149.847 37.2922 148.557 36.9921C148.233 36.9157 147.91 36.8529 147.598 36.7793C147.285 36.7029 146.981 36.6401 146.693 36.5637C146.406 36.4887 146.135 36.396 145.889 36.2978C145.64 36.2009 145.417 36.0863 145.224 35.9445C143.84 35.8367 142.185 35.7699 140.945 35.7453C141.03 35.6526 140.958 35.583 141.191 35.6308C140.767 35.5325 140.484 35.5339 140.271 35.5967C140.06 35.6594 139.917 35.7713 139.768 35.8831C139.619 35.9936 139.464 36.1041 139.227 36.1614C139.108 36.19 138.969 36.2064 138.8 36.2037C138.631 36.205 138.43 36.19 138.19 36.1491C137.198 35.6307 139.217 35.8586 138.601 35.6635C138.47 35.1302 137.874 35.1684 137.155 35.2693C136.796 35.328 136.406 35.4016 136.023 35.4248C135.83 35.4385 135.643 35.4302 135.454 35.418C135.265 35.4043 135.081 35.3702 134.907 35.3047L135.23 35.2161C134.965 35.1465 134.675 35.1492 134.365 35.1942C134.21 35.2174 134.05 35.2502 133.885 35.2898C133.72 35.3279 133.554 35.3921 133.382 35.448C133.038 35.5667 132.679 35.6962 132.301 35.8067C132.112 35.8572 131.922 35.9213 131.727 35.9731C131.532 36.0249 131.332 36.07 131.126 36.1014C131.126 36.1014 131.186 35.9922 131.102 35.9417C130.976 36.0372 130.834 36.13 130.678 36.22C130.523 36.31 130.355 36.396 130.18 36.4928C129.83 36.6824 129.442 36.8625 129.04 37.0344C128.939 37.0766 128.838 37.1189 128.736 37.1626C128.635 37.2089 128.534 37.2553 128.433 37.3017C128.23 37.3917 128.027 37.4804 127.826 37.5704C127.626 37.6564 127.426 37.7409 127.233 37.8241C127.038 37.9033 126.856 37.9987 126.678 38.0806C126.997 37.5172 127.28 37.6359 126.859 37.3276C126.214 37.625 127.269 37.906 126 38.4912C125.489 38.4162 124.487 38.6235 124.185 38.2538L124.799 37.9892L125.106 37.8568C125.208 37.8132 125.315 37.7764 125.419 37.7355C125.312 37.6959 125.206 37.6754 125.101 37.6714C124.997 37.6686 124.896 37.685 124.795 37.7109C124.595 37.7641 124.398 37.8623 124.209 37.9755C124.019 38.0887 123.835 38.2156 123.655 38.3261C123.565 38.3806 123.476 38.4311 123.389 38.4734C123.301 38.5184 123.217 38.5553 123.131 38.5798L123.111 38.307C122.651 38.5389 122.322 38.7503 122.056 38.9508C121.79 39.15 121.587 39.3382 121.385 39.536C121.182 39.7297 120.973 39.922 120.693 40.1239C120.414 40.3258 120.059 40.5331 119.579 40.7855L119.867 40.8509C119.496 41.4143 119.238 41.4511 118.967 41.4715C118.697 41.492 118.41 41.492 118.02 41.9967L117.387 41.6121C117.087 41.8781 116.566 42.35 116.001 42.8847C115.716 43.1493 115.416 43.4221 115.116 43.6813C114.819 43.9446 114.528 44.1983 114.251 44.4124C114.645 43.5708 115.914 42.4973 116.652 41.7308C116.308 41.919 115.754 42.2846 115.255 42.6488C115.007 42.8329 114.772 43.017 114.593 43.1902C114.415 43.3648 114.288 43.523 114.247 43.6458C114.475 43.4235 114.72 43.0729 115.04 42.9993C114.764 43.4603 114.413 43.9296 113.956 44.3688C113.73 44.5911 113.476 44.8053 113.206 45.0249C112.936 45.2445 112.642 45.4614 112.322 45.6741C112.082 45.0767 111.2 45.5691 110.215 46.2212C109.968 46.3821 109.712 46.5485 109.458 46.7136C109.206 46.8786 108.955 47.0382 108.71 47.1746C108.222 47.4474 107.762 47.6302 107.39 47.6002C106.915 48.1062 106.401 48.5523 105.858 48.9697C105.318 49.3898 104.753 49.7867 104.167 50.1809C103.001 50.9748 101.766 51.7755 100.563 52.8108C102.055 52.8586 99.8633 53.4165 100.657 54.0726C100.133 54.5923 99.907 54.7573 99.8142 54.7491C99.1131 55.0683 98.4174 55.3929 97.719 55.7189C97.1256 55.8362 98.1105 55.0983 97.9141 54.9687C96.6305 55.9494 97.1202 55.0778 96.1313 55.5648C96.531 55.6971 96.0385 56.3218 95.2501 56.8142L96.5351 56.3273C95.171 58.1946 94.504 56.9479 93.1318 58.8316L93.4687 58.1237C92.7062 59.024 90.2223 60.9296 89.8976 62.2881C89.6657 62.3359 89.2811 62.3059 89.618 61.9158C87.4492 63.6481 85.5409 66.623 83.589 67.6542L83.5862 67.3309C83.2439 67.7224 83.2111 68.2694 82.5605 68.504C82.5196 68.4058 82.5564 68.1821 82.3668 68.3281C82.2168 68.5709 81.6111 69.5475 81 69.8845L81.2619 69.2938C79.0113 70.8024 78.5598 72.4897 76.9311 74.0652C76.4714 73.5046 74.6968 74.6736 73.8033 75.2396L73.7665 75.1373C73.15 75.6147 72.603 76.0826 72.101 76.5546C71.85 76.7906 71.61 77.0279 71.3768 77.2666C71.1435 77.5026 70.9144 77.7385 70.6893 77.9759C69.7931 78.9307 68.9324 79.8883 67.863 80.869C67.3842 80.9768 66.8291 81.2373 66.2248 81.5906C65.6192 81.9398 64.9563 82.3681 64.2756 82.8305C63.5895 83.2833 62.8788 83.7581 62.1777 84.1986C61.4684 84.6242 60.7741 85.0253 60.1153 85.3144C60.5545 85.1944 60.3608 85.8273 59.968 86.1601C59.6447 86.2761 59.3187 86.6293 59.039 86.8762C58.7608 87.1245 58.5234 87.2527 58.3979 86.9431L58.6094 86.8312C58.2234 86.6812 57.7596 86.8189 57.2767 87.059C57.0353 87.1777 56.7897 87.3291 56.5442 87.4723C56.2973 87.6155 56.0532 87.7615 55.8186 87.8883L56.0914 88.7327C55.7067 88.7654 55.3261 88.8582 54.9415 88.9782C54.5555 89.0955 54.1722 89.251 53.793 89.4325C53.6034 89.5225 53.4138 89.6193 53.2269 89.7216C53.0387 89.8225 52.8477 89.918 52.6608 90.0217C52.2857 90.2277 51.9161 90.4432 51.556 90.6574C51.1959 90.8729 50.8358 91.0597 50.4934 91.2439C50.1496 91.4239 49.8195 91.5904 49.5045 91.72C48.8688 91.9614 48.3041 92.08 47.8512 91.96C47.5852 92.1932 47.2511 92.3638 46.921 92.5452C46.5895 92.7239 46.258 92.9026 45.9825 93.1208L45.8624 92.6679C44.081 93.1317 43.2067 93.3717 41.0433 93.9869L41.4116 93.56C40.7964 93.6841 40.4841 94.107 40.169 94.523C39.8539 94.9281 39.5388 95.3414 38.9509 95.4615L38.4885 94.8381C37.9401 94.92 37.3822 94.9486 36.8257 94.9773C36.5488 94.9977 36.2692 94.9827 35.9909 94.9827C35.7126 94.98 35.4358 94.9772 35.1602 94.9813L34.747 94.9909L34.335 94.9882C34.0608 94.9882 33.7867 94.9991 33.5139 95.0209C33.3775 95.0318 33.2411 95.0454 33.1046 95.0632C32.9682 95.0823 32.8318 95.1028 32.6954 95.1164C32.4226 95.1505 32.1484 95.2009 31.8729 95.2705C31.9124 95.1696 31.9848 94.9704 32.338 94.9554C32.0816 94.9418 31.7051 94.8968 31.2918 94.8531C31.0845 94.8367 30.8703 94.7999 30.6562 94.7685C30.442 94.7385 30.2292 94.7113 30.026 94.6935C29.8227 94.6758 29.6305 94.6676 29.4559 94.6717C29.3686 94.6744 29.2867 94.6799 29.2117 94.6881C29.1367 94.6922 29.0671 94.7017 29.0043 94.7154C28.7561 94.7699 28.621 94.9022 28.6811 95.1532C28.7083 94.8422 28.1546 94.7426 27.433 94.7331C27.0729 94.7208 26.6759 94.7031 26.2858 94.7072C26.0907 94.7085 25.8984 94.7113 25.717 94.7126C25.5356 94.714 25.361 94.7236 25.2082 94.7126L25.4974 94.3144C24.9423 94.4699 24.6408 94.5776 24.3012 94.624C24.132 94.6472 23.9519 94.6526 23.7255 94.6403C23.6123 94.6335 23.4868 94.6226 23.3449 94.6049C23.2058 94.5803 23.0503 94.5476 22.873 94.5094C22.5674 94.343 22.7052 94.0647 23.094 94.3211C22.5961 94.0252 22.3546 94.0579 22.0805 94.0797C21.809 94.0961 21.4953 94.1288 20.902 93.7455L21.4817 93.6637C20.4164 93.1945 20.4477 93.3772 19.7153 93.4495C19.6198 93.4359 19.5174 93.4113 19.4097 93.3772C19.306 93.3377 19.1983 93.2899 19.0892 93.234C18.8709 93.1221 18.6513 92.983 18.4562 92.8357C18.073 92.5206 17.796 92.1728 17.8206 91.9518C17.7565 91.9886 17.6624 92.0187 17.5505 92.0323C17.44 92.0432 17.3091 92.0405 17.1699 92.0187C16.893 91.9723 16.5725 91.8604 16.3106 91.6272C16.3147 91.443 16.5753 91.4976 16.7076 91.5154C16.3338 91.2003 15.9874 90.9629 15.6477 90.7856C15.3176 90.5932 15.0011 90.4514 14.6997 90.315C14.3996 90.1786 14.1255 90.0326 13.869 89.8594C13.7422 89.7707 13.618 89.6766 13.5048 89.5634C13.393 89.4488 13.2879 89.3192 13.1911 89.1705C13.2633 89.0341 13.2429 88.9196 13.1843 88.8159C13.779 89.3083 14.3396 89.7176 14.7229 90.0204C15.1171 90.3055 15.3394 90.4759 15.2821 90.4568C15.4008 90.2822 15.218 90.0053 15.1485 89.783C15.0789 89.5607 15.128 89.3943 15.6886 89.4243C15.5658 89.3902 15.4308 89.3519 15.2876 89.3124C15.1444 89.2715 14.9944 89.2224 14.8375 89.1732C14.5251 89.0709 14.18 88.966 13.8512 88.8214C13.5211 88.6782 13.191 88.5199 12.8964 88.3344C12.6059 88.1434 12.3453 87.932 12.1462 87.6988C12.1284 87.6292 12.1107 87.5623 12.1203 87.4846L12.2472 87.5296C12.0616 87.3195 11.8543 87.1763 11.6293 87.074C11.3878 86.763 11.2378 86.5653 10.9745 86.3034C11.0413 86.126 10.8163 85.8477 10.5203 85.5585C10.2284 85.2639 9.86831 84.9516 9.65415 84.7279C9.35952 85.0934 8.83978 84.4496 9.10441 85.2694C9.05667 85.1753 9.22853 85.3144 9.5368 85.5954C9.61318 85.6527 9.69641 85.7263 9.76052 85.7509C9.74278 85.7509 9.7223 85.7509 9.70184 85.7509C9.9992 86.0373 10.4016 86.3907 10.8477 86.8067C10.5885 86.7235 10.3293 86.6266 10.0947 86.4684C9.97743 86.3893 9.86415 86.2951 9.76458 86.1778C9.66501 86.0592 9.57365 85.9173 9.4959 85.7496C9.05805 85.7318 8.58333 85.695 8.34053 85.6486C8.30507 85.3772 8.22322 85.0852 8.12228 84.7906C8.01997 84.4987 7.90132 84.2027 7.79765 83.9231C7.58486 83.3666 7.40483 82.896 7.48122 82.675C6.75146 82.0435 5.98215 81.2141 5.23602 80.4734C5.04915 80.2893 4.86093 80.112 4.67269 79.9455C4.48854 79.7764 4.30436 79.6196 4.12021 79.4805C3.75056 79.2008 3.38503 78.9853 3.03039 78.8707C2.60753 78.4942 2.84758 78.2119 2.83257 77.9664C3.09447 78.1682 3.31138 78.4792 3.51326 78.5406C2.65801 77.8068 1.51902 75.9558 0.871105 76.0854C0.300938 74.78 1.77001 76.4154 0.606491 74.8904L0.905207 74.9982C0.246376 73.1745 -0.902155 72.1146 -2.04112 70.9511C-3.176 69.7917 -4.30409 68.534 -4.80197 66.3993C-4.72422 66.6898 -4.68324 66.8331 -4.74189 66.9367C-5.69126 64.7229 -6.9803 62.6223 -8.18202 60.4712C-9.38646 58.3242 -10.5077 56.1309 -11.1106 53.8038C-11.5158 52.5121 -11.9277 52.5421 -12.536 51.9146L-12.2032 51.4441L-13.2999 50.3965C-13.8946 49.5685 -13.9601 48.6546 -14.0869 47.6997C-14.2152 46.7449 -14.402 45.7505 -15.2491 44.737L-15.436 45.1654C-15.7252 44.3047 -16.6963 42.5778 -16.2803 42.5751C-16.3717 42.5123 -16.7141 42.4277 -16.6813 42.0335L-16.4494 41.9121C-16.86 41.2778 -17.2651 40.6395 -17.6689 39.9984C-17.8871 39.1582 -17.6198 39.1309 -17.4056 39.0163C-17.1901 38.9017 -17.0305 38.7026 -17.437 37.52C-17.8544 36.6838 -19.0357 35.2843 -19.0848 35.6676C-18.977 36.0236 -18.9225 36.6279 -19.1584 36.7411L-19.569 35.9772C-19.9564 36.0291 -20.3915 35.9568 -20.7052 36.1477C-21.0176 36.3414 -21.2126 36.8025 -21.1049 37.9005C-20.7898 38.3152 -20.4733 38.7271 -20.1555 39.1364L-20.3383 39.7133L-20.7926 38.5485C-20.8771 39.3355 -20.4297 39.652 -20.0546 40.0462C-20.1978 40.2276 -20.2537 40.4718 -20.2182 40.7732L-19.0138 41.8699C-19.2294 42.1427 -19.805 41.4757 -19.6058 42.4469C-19.0411 42.9584 -19.2157 41.5943 -18.5992 42.5628C-18.6647 43.3485 -19.0043 43.2625 -18.4205 43.9241C-18.561 44.1055 -18.7424 43.9895 -18.9456 43.714C-18.4532 44.3155 -18.1204 45.4954 -17.5979 45.6946C-17.718 46.543 -16.5354 47.9562 -17.2324 48.1704C-16.9814 48.3177 -16.1985 49.1483 -15.8997 49.7581C-16.5436 49.3611 -16.3062 49.9504 -16.0225 50.6474C-15.7415 51.3444 -15.4128 52.1465 -15.9052 52.1861C-14.8194 52.7099 -14.2179 55.0778 -13.1226 56.3641C-13.2181 56.3082 -13.4076 56.2005 -13.4336 56.0531C-13.098 56.9098 -13.1976 57.2534 -13.0721 57.8482C-12.4419 57.6749 -11.6821 58.8944 -10.9824 59.4032C-11.0356 60.6853 -11.9658 59.1317 -12.3437 59.7115C-11.9031 59.4305 -10.9988 61.2283 -10.7819 60.6895C-10.7341 61.6306 -10.6113 61.4342 -10.8855 62.0739C-10.1012 61.8393 -10.3931 62.7246 -9.62378 63.127C-9.39189 64.4133 -10.1421 63.7653 -9.28004 64.8593C-9.2323 65.2044 -9.41783 65.143 -9.61426 64.9957C-9.81068 64.847 -10.0167 64.6111 -10.0167 64.6111L-10.0044 64.6125ZM10.5667 90.0831C10.5667 90.0831 10.5626 90.0885 10.5612 90.0899C10.3375 89.9126 10.1411 89.7653 10.0238 89.6643C10.1316 89.7557 10.2925 89.8744 10.5667 90.0817V90.0831ZM12.7587 91.8127C12.4954 91.5958 12.1544 91.3435 11.8052 91.0638C11.827 90.8783 12.0125 90.8142 12.2253 90.9929C12.1339 90.9875 12.1994 91.1061 12.3235 91.2684C12.449 91.428 12.6318 91.634 12.7587 91.8127ZM10.5067 85.6896C10.8504 85.9255 10.8872 86.0851 10.864 86.1942C10.7167 86.066 10.5408 85.9214 10.3021 85.7372C10.2816 85.7413 10.2502 85.7373 10.227 85.7441C10.317 85.7086 10.4071 85.68 10.5067 85.6896Z" fill="#C0EBE3"/>
<path d="M9.5512 85.5982C9.50073 85.5627 9.46393 85.5532 9.40527 85.5C9.43665 85.5887 9.46935 85.6705 9.50891 85.7496C9.57984 85.7496 9.65077 85.7523 9.71624 85.751C9.66032 85.6991 9.60307 85.6459 9.5526 85.5968L9.5512 85.5982Z" fill="#C0EBE3"/>
<path d="M132.816 48.5433L132.798 48.5991C132.822 48.5541 132.846 48.5119 132.878 48.4873C132.851 48.5228 132.837 48.5214 132.816 48.5433Z" fill="#C0EBE3"/>
<path d="M49.8829 95.6503L49.8352 95.5439L49.647 95.7308L49.8829 95.6503Z" fill="#C0EBE3"/>
<path d="M138.88 34.929C138.929 34.9222 138.992 34.8936 139.074 34.8131C139.042 34.8063 138.967 34.8608 138.88 34.929Z" fill="#C0EBE3"/>
<path d="M142.183 29.5305C142.39 29.3109 142.614 29.1009 142.827 28.8867C142.531 29.1513 142.325 29.3545 142.183 29.5305Z" fill="#C0EBE3"/>
<path d="M145.24 25.7418C145.214 25.6435 145.178 25.5917 145.145 25.5439C145.141 25.5467 145.139 25.548 145.137 25.5494L145.242 25.7418H145.24Z" fill="#C0EBE3"/>
<path d="M159.467 61.5691C159.486 61.5105 159.501 61.4518 159.509 61.3972C159.57 60.9812 159.505 61.254 159.467 61.5691Z" fill="#C0EBE3"/>
<path d="M143.731 73.2591C143.98 73.266 144.214 73.2796 144.457 73.2919C144.37 73.2551 144.287 73.2237 144.21 73.1964C144.135 73.165 144.067 73.1418 144.006 73.1309C143.883 73.1105 143.787 73.1405 143.731 73.2605V73.2591Z" fill="#C0EBE3"/>
<path d="M152.252 41.8381C152.252 41.8381 152.253 41.834 152.257 41.8326C152.212 41.8122 152.172 41.7917 152.127 41.7686L152.25 41.8381H152.252Z" fill="#C0EBE3"/>
<path d="M145.406 73.5498C145.232 73.4625 145.069 73.4079 144.911 73.3752C144.756 73.3302 144.606 73.3043 144.456 73.292C144.599 73.3506 144.754 73.4256 144.917 73.4748C145.08 73.5184 145.247 73.5498 145.406 73.5498Z" fill="#C0EBE3"/>
<path d="M160.646 11.379L160.845 11.2521C160.823 11.2303 160.821 11.2017 160.823 11.1758L160.646 11.379Z" fill="#C0EBE3"/>
<path d="M160.823 11.1765L160.999 10.9746C160.904 11.0469 160.822 11.1124 160.823 11.1765Z" fill="#C0EBE3"/>
<path d="M161.377 10.5586C161.251 10.6977 161.122 10.8328 160.999 10.976C161.15 10.8601 161.354 10.74 161.377 10.5586Z" fill="#C0EBE3"/>
<path d="M155.453 15.2383L155.505 15.4128C155.513 15.361 155.498 15.3024 155.453 15.2383Z" fill="#C0EBE3"/>
<path d="M154.01 16.5698C154.389 16.2888 155.121 16.0569 155.547 15.5536L155.506 15.4131C155.468 15.6041 155.132 15.7664 154.786 15.9451C154.439 16.1224 154.081 16.3174 154.008 16.5698H154.01Z" fill="#C0EBE3"/>
<path d="M146.66 20.9319L147.273 20.3508L147.904 19.7874C147.571 19.8775 147.126 19.9947 147.627 19.4082C146.695 19.9988 146.842 19.988 147.028 20.0234C147.215 20.0616 147.422 20.1339 146.658 20.9332L146.66 20.9319Z" fill="#C0EBE3"/>
<path d="M143.082 24.7789C143.584 24.0137 142.871 24.6275 142.821 24.528C142.702 24.8035 142.635 24.9794 142.662 25.0286C142.69 25.0777 142.807 24.9958 143.082 24.7789Z" fill="#C0EBE3"/>
<path d="M132.828 60.4793L132.396 60.4766C132.618 61.1722 132.557 60.4479 132.828 60.4793Z" fill="#C0EBE3"/>
<path d="M137.294 66.409L137.228 65.7255C137.064 65.6969 136.906 65.6628 136.748 65.626C136.919 65.8947 137.114 66.1484 137.294 66.4076V66.409Z" fill="#C0EBE3"/>
<path d="M137.311 71.6552C137.221 71.5843 137.127 71.5174 137.043 71.4424C137.199 71.5911 137.368 71.7288 137.53 71.872C137.696 72.0112 137.851 72.1571 138.027 72.2867C137.9 72.1885 137.784 72.0821 137.665 71.9757L137.312 71.6565L137.311 71.6552Z" fill="#C0EBE3"/>
<path d="M146.808 35.7285L146.918 36.2796C147.412 36.2837 147.642 35.7353 146.808 35.7285Z" fill="#C0EBE3"/>
<path d="M119.664 40.4198C119.279 40.3325 118.509 40.559 118.21 41.0105C118.776 40.7458 119.417 40.6299 119.664 40.4198Z" fill="#C0EBE3"/>
<path d="M54.6168 88.8104C54.7464 88.6767 54.8759 88.5458 55.0014 88.4053C54.7341 88.6126 54.4599 88.8022 54.1885 89.0027L54.6168 88.809V88.8104Z" fill="#C0EBE3"/>
<path d="M127.959 169.828H16.7271V205.581H127.959V169.828Z" fill="url(#paint0_linear_2220_5108)"/>
<path d="M133.954 175.307C133.688 176.277 133.321 177.221 132.853 178.125H39.3769L19.2328 183.868C17.7637 184.287 16.2715 184.49 14.7956 184.49C9.43628 184.491 4.30069 181.819 1.25752 177.172C-2.62316 171.245 -2.19762 163.485 2.30506 158.018L41.4502 110.495L41.6125 110.629C44.4947 107.199 48.8869 105.19 53.5846 105.455L102.285 108.205C108.032 108.529 113.046 112.205 115.085 117.588L133.532 166.288C134.638 169.213 134.764 172.369 133.956 175.307H133.954Z" fill="url(#paint1_linear_2220_5108)"/>
<path d="M77.8254 100.325C101.107 100.325 119.981 81.4511 119.981 58.1692C119.981 34.8874 101.107 16.0137 77.8254 16.0137C54.5436 16.0137 35.6699 34.8874 35.6699 58.1692C35.6699 81.4511 54.5436 100.325 77.8254 100.325Z" fill="url(#paint2_radial_2220_5108)"/>
<path d="M65.7207 72.5C65.7207 72.5 67.363 73.894 72.6364 75.5159C76.4612 76.693 80.7469 76.7081 80.7469 76.7081C80.7469 76.7081 78.8933 82.8257 73.5926 82.7261C65.7944 82.5788 65.7207 72.5 65.7207 72.5Z" fill="#191919"/>
<path d="M73.7189 83.2906C73.6739 83.2906 73.6275 83.2906 73.5825 83.2906C70.1479 83.2251 67.5971 81.3141 66.2085 77.7649C65.1896 75.1596 65.1596 72.6129 65.1582 72.5065C65.1568 72.2855 65.2837 72.085 65.4828 71.9922C65.682 71.8995 65.9166 71.9309 66.0844 72.0714C66.1117 72.0932 67.7717 73.4327 72.8023 74.9809C76.4988 76.1185 80.7083 76.1471 80.7492 76.1471C80.9279 76.1471 81.0942 76.233 81.2006 76.3763C81.307 76.5195 81.3384 76.705 81.2866 76.8755C81.2661 76.9424 80.7805 78.5165 79.6102 80.0947C78.0538 82.1912 76.0201 83.2947 73.7189 83.2947V83.2906ZM66.3641 73.5868C66.4677 74.5293 66.7092 75.9603 67.2684 77.3789C68.4974 80.497 70.628 82.1066 73.6043 82.1625C73.6439 82.1625 73.6834 82.1625 73.723 82.1625C75.6681 82.1625 77.3377 81.2486 78.6881 79.4426C79.2937 78.6324 79.7016 77.8099 79.9416 77.2479C78.5026 77.1852 75.3817 76.9492 72.4722 76.053C69.2844 75.0722 67.3884 74.1665 66.3654 73.5855L66.3641 73.5868Z" fill="#191919"/>
<path d="M64.9848 60.8099C63.9099 60.8099 62.8774 60.6449 61.9007 60.3148C58.4552 59.1581 56.8551 56.3878 56.7896 56.2704L56.6587 56.0385L56.7242 55.7794C56.7801 55.5557 58.1783 50.2987 65.1512 49.4393L65.1744 49.4366C65.9764 49.337 66.7731 49.3289 67.541 49.4134C72.3288 49.9263 74.6244 53.7197 74.7199 53.882L74.8931 54.1753L74.7567 54.4877C74.7322 54.545 74.1293 55.9144 72.7816 57.3671C71.6345 58.6016 70.3073 59.5182 68.8396 60.0938C68.7659 60.1238 68.6868 60.1538 68.6049 60.1839C67.8793 60.4471 67.1222 60.6285 66.3515 60.724C65.8905 60.7813 65.4336 60.8099 64.9862 60.8099H64.9848ZM58.1019 55.8435C58.5356 56.4764 59.9215 58.2415 62.3276 59.049C63.5212 59.4514 64.8184 59.5687 66.1865 59.3982C66.859 59.315 67.5178 59.1581 68.1452 58.9289C68.2121 58.9044 68.2803 58.8785 68.3471 58.8512C69.632 58.3479 70.7928 57.5431 71.8022 56.4573C72.6275 55.568 73.1363 54.7168 73.3723 54.2735C72.7694 53.4455 70.7819 51.1035 67.395 50.7406C66.7239 50.667 66.031 50.6738 65.3299 50.7625L65.3053 50.7652C60.0497 51.4159 58.4565 54.8491 58.1019 55.8435Z" fill="#191919"/>
<path d="M92.0617 57.7638C91.5379 57.7638 91.0155 57.7243 90.5026 57.6452C88.8562 57.3914 87.293 56.734 85.8553 55.6932C84.2512 54.5297 83.3946 53.3034 83.3577 53.2516L83.1641 52.9706L83.2773 52.6486C83.34 52.4713 84.8568 48.3042 89.455 46.872C90.1889 46.6401 90.9691 46.4942 91.7739 46.4369H91.7875C98.8082 45.9185 101.202 50.81 101.3 51.0187L101.415 51.2601L101.33 51.5138C101.288 51.642 100.257 54.6701 97.0991 56.4734C96.7035 56.7012 96.282 56.9018 95.8469 57.0709C94.9111 57.4365 93.8895 57.6601 92.8133 57.7365C92.5637 57.7543 92.3126 57.7638 92.0617 57.7638ZM84.6754 52.7715C84.996 53.1629 85.6643 53.9022 86.6396 54.6102C87.9041 55.5268 89.2722 56.1024 90.7058 56.3234C91.366 56.4257 92.0426 56.4516 92.7164 56.4025C93.6604 56.3356 94.5497 56.1406 95.3613 55.8241C95.735 55.6796 96.0952 55.5063 96.4334 55.3126C98.6377 54.0536 99.6539 52.0539 99.9581 51.3487C99.4179 50.443 97.1823 47.3822 91.8912 47.7668H91.8748C91.1723 47.8173 90.493 47.9455 89.8533 48.146C86.6001 49.1595 85.1051 51.8412 84.6727 52.7715H84.6754Z" fill="#191919"/>
<path d="M74.1452 54.2214C74.1452 54.2214 73.5778 55.5268 72.2929 56.9126C71.4131 57.8593 70.1977 58.8441 68.5963 59.4715C66.3143 58.6749 64.5847 56.6139 64.3337 54.0509C64.1932 52.6159 64.537 51.2464 65.234 50.102H65.249C66.0456 50.001 66.7835 50.0024 67.4683 50.0775C71.9791 50.5603 74.1452 54.2214 74.1452 54.2214Z" fill="#191919"/>
<path d="M68.6065 60.0732L68.4101 60.005C65.8566 59.1143 64.0356 56.7982 63.7724 54.107C63.6237 52.5915 63.9633 51.1061 64.7517 49.8103L64.8977 49.5702L65.1855 49.5415C65.9794 49.442 66.7677 49.4351 67.5289 49.5184C72.2648 50.0258 74.5359 53.7769 74.63 53.9365L74.776 54.1847L74.6614 54.4493C74.6369 54.5066 74.0408 55.8598 72.7054 57.2988C71.5692 58.521 70.2556 59.4294 68.8015 59.9996L68.6078 60.076L68.6065 60.0732ZM65.577 50.6314C65.0136 51.6599 64.7777 52.818 64.8922 53.9965C65.1064 56.183 66.5468 58.0736 68.5847 58.8675C69.8028 58.3573 70.909 57.5702 71.8775 56.5295C72.7409 55.5992 73.266 54.6989 73.4938 54.2652C72.9277 53.474 70.9062 51.0133 67.4061 50.6382C66.8114 50.5727 66.1976 50.57 65.577 50.6314Z" fill="#191919"/>
<path d="M100.695 51.3036C100.695 51.3036 99.7371 54.1954 96.7662 55.8936C96.4089 56.0982 96.0215 56.2865 95.6041 56.4488C93.1584 55.7436 91.2692 53.6088 91.0059 50.9203C90.8709 49.5399 91.1859 48.2196 91.8284 47.1024H91.8353C98.4781 46.6114 100.695 51.3036 100.695 51.3036Z" fill="#191919"/>
<path d="M95.6304 57.0423L95.4476 56.9891C92.6882 56.1939 90.7239 53.8328 90.4443 50.9751C90.3024 49.5211 90.6107 48.0847 91.3391 46.8202L91.4837 46.5692L91.7933 46.5393C98.7377 46.025 101.107 50.8564 101.204 51.0624L101.301 51.2656L101.23 51.4798C101.187 51.6066 100.169 54.5979 97.0463 56.3821C96.6548 56.6072 96.2387 56.8063 95.8091 56.9727L95.6318 57.0423H95.6304ZM92.1739 47.6441C91.6665 48.6385 91.4564 49.7447 91.5656 50.8646C91.7934 53.1971 93.3607 55.134 95.5772 55.8501C95.8909 55.7192 96.1965 55.5692 96.4843 55.4028C98.7663 54.0988 99.7907 52.0131 100.074 51.3393C99.5806 50.4909 97.405 47.3795 92.1739 47.6428V47.6441Z" fill="#191919"/>
<path d="M56.9904 65.3508C56.1706 65.3508 55.3767 65.0876 54.7097 64.587C53.8953 63.9759 53.3661 63.0838 53.2229 62.0758L52.5764 57.5472C52.4318 56.5392 52.6896 55.5352 53.3007 54.7195C53.9118 53.9052 54.8038 53.376 55.8118 53.2328L73.041 50.7707C74.049 50.6261 75.0529 50.8839 75.8686 51.4949C76.6829 52.106 77.2122 52.9981 77.3554 54.0062L78.002 58.5348C78.2993 60.6163 76.848 62.5519 74.7665 62.8492L57.5373 65.3113C57.3545 65.3372 57.1718 65.3508 56.9904 65.3508ZM73.5866 52.0679C73.4679 52.0679 73.3493 52.076 73.2306 52.0938L56.0014 54.5559C55.3467 54.65 54.767 54.9923 54.3701 55.5216C53.9731 56.0508 53.8053 56.7029 53.8994 57.359L54.546 61.8876C54.6401 62.5423 54.9825 63.122 55.5118 63.519C56.041 63.9159 56.693 64.0837 57.3491 63.9895L74.5782 61.5275C75.93 61.3338 76.8739 60.0761 76.6802 58.7243L76.0337 54.1958C75.9395 53.541 75.5972 52.9613 75.0679 52.5644C74.6341 52.2398 74.1186 52.0679 73.5866 52.0679Z" fill="white"/>
<path d="M85.7628 61.2406C84.943 61.2406 84.1491 60.9773 83.4821 60.4767C82.6677 59.8656 82.1385 58.9736 81.9953 57.9655L81.3487 53.4369C81.0513 51.3554 82.5027 49.4198 84.5842 49.1225L101.813 46.6603C102.821 46.5158 103.825 46.7736 104.641 47.3847C105.455 47.9957 105.985 48.8878 106.128 49.8959L106.774 54.4244C106.919 55.4325 106.661 56.4364 106.05 57.2521C105.439 58.0664 104.547 58.5957 103.539 58.7389L86.3097 61.201C86.1269 61.2269 85.9442 61.2406 85.7628 61.2406ZM102.355 47.9576C102.239 47.9576 102.122 47.9657 102.003 47.9821L84.7738 50.4442C83.4221 50.6379 82.4781 51.8955 82.6718 53.2473L83.3184 57.7759C83.5121 59.129 84.7684 60.0715 86.1215 59.8778L103.351 57.4158C104.005 57.3217 104.585 56.9793 104.982 56.45C105.379 55.9208 105.547 55.2688 105.453 54.6127L104.806 50.0841C104.63 48.8496 103.567 47.9562 102.355 47.9562V47.9576Z" fill="white"/>
<path d="M80.3352 70.3335C80.0146 70.3335 79.7323 70.1016 79.6763 69.7756C79.615 69.4114 79.8618 69.0677 80.2247 69.0063L86.1787 68.0119L78.8265 55.5965L76.6059 43.8603C76.5377 43.4975 76.775 43.1482 77.1379 43.08C77.4994 43.0118 77.8499 43.2492 77.9181 43.612L80.0951 55.1177L88.3202 69.009L80.4443 70.3253C80.4075 70.3308 80.3707 70.3349 80.3338 70.3349L80.3352 70.3335Z" fill="#191919"/>
<path d="M122.913 102.014L97.7725 188.972L130.796 197.971L154.132 111.694L122.913 102.014Z" fill="url(#paint3_linear_2220_5108)"/>
<path d="M122.913 102.014C122.913 102.014 129.943 91.0401 136.895 88.061C143.848 85.082 142.192 88.7226 141.53 93.0261C140.869 97.3297 160.069 92.6947 165.697 93.0261C171.325 93.3576 176.621 96.6681 169.669 101.965C162.717 107.261 154.131 111.696 154.131 111.696L122.913 102.015V102.014Z" fill="url(#paint4_linear_2220_5108)"/>
<path fill-rule="evenodd" clip-rule="evenodd" d="M122.17 101.214C122.329 101.126 122.518 101.106 122.692 101.159L145.369 108.112C145.722 108.22 145.92 108.594 145.812 108.947C145.704 109.3 145.33 109.498 144.977 109.39L122.965 102.641L110.397 150.466C110.303 150.823 109.937 151.037 109.58 150.943C109.223 150.849 109.01 150.484 109.104 150.127L121.849 101.628C121.895 101.452 122.011 101.303 122.17 101.214Z" fill="#191919"/>
<path fill-rule="evenodd" clip-rule="evenodd" d="M61.9943 105.273C62.3604 105.226 62.6955 105.484 62.7429 105.85L64.3947 118.612L77.3437 106.28C77.4741 106.156 77.649 106.09 77.8289 106.096C78.0088 106.103 78.1784 106.181 78.2995 106.315L90.3612 119.597L91.5395 107.361C91.5749 106.994 91.9015 106.725 92.2689 106.76C92.6363 106.796 92.9055 107.122 92.8701 107.49L91.547 121.228C91.5216 121.492 91.3434 121.715 91.0923 121.798C90.8413 121.882 90.5647 121.809 90.3869 121.613L77.77 107.72L64.362 120.489C64.1797 120.662 63.9152 120.719 63.6778 120.635C63.4405 120.551 63.2706 120.34 63.2382 120.091L61.4172 106.022C61.3698 105.656 61.6282 105.321 61.9943 105.273Z" fill="#191919"/>
<path fill-rule="evenodd" clip-rule="evenodd" d="M78.867 129.897L86.2509 131.412L84.9918 136.03L77.7779 139.635L74.7325 137.837L74.463 140.797L69.919 143.069C69.8303 147.994 65.8106 151.959 60.866 151.959C55.8659 151.959 51.8115 147.904 51.8115 142.903C51.8115 137.902 55.8646 133.849 60.866 133.849C63.1399 133.849 65.2166 134.687 66.8065 136.071L78.867 129.897ZM79.0583 131.301L66.576 137.691L66.2323 137.358C64.8418 136.012 62.9525 135.185 60.866 135.185C56.6029 135.185 53.1483 138.64 53.1483 142.903C53.1483 147.166 56.6043 150.622 60.866 150.622C65.1277 150.622 68.5837 147.166 68.5837 142.903C68.5837 142.829 68.5824 142.754 68.5799 142.68L68.5657 142.251L73.1992 139.935L73.5928 135.611L77.8312 138.114L83.8594 135.102L84.5864 132.435L79.0583 131.301Z" fill="#191919"/>
<path d="M42.5499 174.591L33.9087 142.786C33.9087 142.786 45.1675 133.888 51.4516 135.023C57.7357 136.159 65.8531 147.517 66.6374 156.605C67.4231 165.692 65.328 170.121 62.7104 170.235C59.3098 170.384 54.8548 164.178 53.8086 164.178C52.7624 164.178 51.7135 172.129 42.5499 174.591Z" fill="url(#paint5_linear_2220_5108)"/>
<path fill-rule="evenodd" clip-rule="evenodd" d="M33.5586 142.407C33.7338 142.488 33.8653 142.641 33.9191 142.827L40.5728 165.763C40.6757 166.118 40.4717 166.488 40.1171 166.591C39.7626 166.694 39.3919 166.49 39.289 166.136L32.8489 143.936L10.8777 153.73C10.5405 153.88 10.1454 153.729 9.99508 153.391C9.84479 153.054 9.99628 152.659 10.3334 152.509L33.0051 142.403C33.1815 142.324 33.3834 142.326 33.5586 142.407Z" fill="#191919"/>
</g>
<defs>
<linearGradient id="paint0_linear_2220_5108" x1="72.9772" y1="208.801" x2="70.3282" y2="120.742" gradientUnits="userSpaceOnUse">
<stop stop-color="#FFC895"/>
<stop offset="1" stop-color="#B5EADD"/>
</linearGradient>
<linearGradient id="paint1_linear_2220_5108" x1="67.7188" y1="208.959" x2="65.0698" y2="120.9" gradientUnits="userSpaceOnUse">
<stop stop-color="#FFC895"/>
<stop offset="1" stop-color="#B5EADD"/>
</linearGradient>
<radialGradient id="paint2_radial_2220_5108" cx="0" cy="0" r="1" gradientUnits="userSpaceOnUse" gradientTransform="translate(77.6075 38.5843) rotate(-8.13) scale(57.6223)">
<stop stop-color="#E5ED53"/>
<stop offset="1" stop-color="#FFC895"/>
</radialGradient>
<linearGradient id="paint3_linear_2220_5108" x1="127.661" y1="207.156" x2="125.012" y2="119.098" gradientUnits="userSpaceOnUse">
<stop stop-color="#FFC895"/>
<stop offset="1" stop-color="#B5EADD"/>
</linearGradient>
<linearGradient id="paint4_linear_2220_5108" x1="125.898" y1="67.6332" x2="145.76" y2="96.102" gradientUnits="userSpaceOnUse">
<stop stop-color="#FFC895"/>
<stop offset="1" stop-color="#E5ED53"/>
</linearGradient>
<linearGradient id="paint5_linear_2220_5108" x1="33.3385" y1="132.209" x2="53.2016" y2="160.679" gradientUnits="userSpaceOnUse">
<stop stop-color="#FFC895"/>
<stop offset="1" stop-color="#E5ED53"/>
</linearGradient>
</defs>
</svg>
