<svg width="1341" height="180" viewBox="0 0 1341 180" fill="none" xmlns="http://www.w3.org/2000/svg">
<path d="M123.184 77.0488C129.575 74.7678 125.772 74.7608 126.903 73.603C134.578 70.8089 130.796 73.3673 133.628 73.1662C134.807 72.7086 135.911 72.2163 136.952 71.7241C137.992 71.2388 138.999 70.8228 139.956 70.386C141.879 69.5332 143.669 68.7636 145.515 68.2991C145.841 68.4308 146.57 68.313 145.799 68.7913C146.417 68.4932 147.125 68.2089 147.895 67.9247C148.672 67.6682 149.526 67.4394 150.414 67.2036C152.205 66.7391 154.182 66.2884 156.181 65.8309C157.18 65.5951 158.186 65.3594 159.186 65.1237C160.185 64.9226 161.177 64.7215 162.135 64.5066C164.05 64.0698 165.834 63.5845 167.333 63.009C167.812 63.0437 168.061 63.1061 168.193 63.1824C167.09 62.7178 166.826 62.1008 166.958 61.6085C168.478 61.3451 169.859 60.8805 171.031 60.6171C172.204 60.3744 173.155 60.2704 173.786 60.6171C171.899 60.8251 171.795 61.1787 170.955 61.5461L174.113 60.7904C175.639 61.2064 174.557 61.4491 173.113 61.6917C172.392 61.8165 171.58 61.9344 170.955 62.0869C170.331 62.2603 169.9 62.4544 169.935 62.6762C170.698 62.4821 171.483 62.3227 172.281 62.1632C173.079 61.9968 173.884 61.8304 174.689 61.6571C176.306 61.3173 177.936 60.9707 179.519 60.6379C180.31 60.4784 181.094 60.3259 181.864 60.1803C182.246 60.111 182.627 60.0416 183.002 59.9723C183.377 59.9168 183.745 59.8822 184.112 59.8406C185.57 59.6811 186.937 59.5771 188.144 59.5702C188.693 60.1179 185.889 60.4299 183.765 60.6726C181.642 60.9637 180.212 61.2341 183.446 61.3728L176.007 61.8235C181.871 62.9744 171.517 62.2464 176.937 63.5776C179.359 63.3626 181.246 63.1408 182.856 62.905C184.473 62.704 185.827 62.5376 187.173 62.3712C188.526 62.1979 189.872 62.0176 191.496 61.8581C192.308 61.7819 193.182 61.7056 194.161 61.6363C194.654 61.6085 195.167 61.5739 195.708 61.5461C196.25 61.5253 196.826 61.5392 197.436 61.5461C199.601 60.832 196.666 60.5963 198.838 59.8822C202.301 59.4939 204.73 59.4662 206.569 59.6118C207.492 59.688 208.262 59.799 208.949 59.9446C209.636 60.1179 210.233 60.3051 210.795 60.4854C213.064 61.2203 214.848 61.8997 219.955 61.2133C222.613 60.4646 223.723 59.0294 230.94 60.2982C230.08 60.6656 229.226 61.0469 228.38 61.4491C237.776 62.3365 233.938 59.903 243.73 61.8859C241.912 62.2048 236.277 61.5045 237.679 61.8165C243.945 63.5776 242.279 61.5253 247.2 62.1979L248.053 63.5013C253.057 64.0768 258.331 64.7077 263.75 65.4149C269.156 66.1775 274.701 67.0234 280.211 68.1743C279.524 68.3753 277.567 68.3129 280.051 69.2489C294.013 71.7588 309.405 76.7091 322.556 80.9106L327.913 81.2642C329.1 81.5831 330.002 82.2764 328.669 82.1378C333.791 83.8572 329.1 81.5831 331.709 81.8466C334.693 82.5399 335.498 83.4065 333.527 83.2332C338.246 83.982 344.949 85.1606 351.722 86.367C358.495 87.5803 365.338 88.7867 370.341 89.903L368.329 89.9446C372.236 90.7003 374.56 90.319 376.746 90.0902C377.85 89.9307 378.925 89.7782 380.181 89.7574C380.813 89.7435 381.479 89.7782 382.229 89.8198C382.978 89.8544 383.797 89.9307 384.72 90.0624L383.297 90.2219C384.38 90.2566 385.469 90.2982 386.566 90.3328C387.662 90.3467 388.772 90.2982 389.876 90.2774L391.541 90.2288C392.096 90.208 392.652 90.1456 393.214 90.104L396.559 89.8059C397.669 89.6395 398.779 89.4731 399.89 89.3067C400.445 89.2166 401 89.1472 401.548 89.0363L403.193 88.6758C404.282 88.4193 405.379 88.2251 406.447 87.9201C407.516 87.6081 408.578 87.2961 409.626 86.991C417.918 84.3911 425.295 80.7719 431.284 77.3539C431.61 76.6883 432.658 75.7037 434.025 74.5459C434.691 73.9427 435.475 73.3326 436.232 72.6323C436.62 72.2857 437.016 71.939 437.411 71.5854L438.563 70.4761C441.652 67.5226 444.066 64.1253 443.518 63.0714C445.184 61.144 446.197 59.7158 447.05 58.5926C447.862 57.4417 448.487 56.575 449.105 55.5489C449.424 55.0428 449.743 54.4951 450.076 53.8433C450.243 53.5175 450.423 53.1708 450.61 52.7964C450.784 52.4151 450.964 51.9991 451.166 51.5554C451.936 49.7527 452.873 47.3261 453.692 43.6931C454.087 41.7449 453.921 40.2196 453.705 38.6249C453.442 37.0234 453.15 35.3386 452.956 32.9605L454.025 32.801C453.56 30.6102 452.956 28.4747 452.22 26.4017C452.338 25.7985 452.442 25.1884 452.519 24.5713C452.609 23.9543 452.692 23.3303 452.741 22.7063C452.29 21.2295 451.721 19.7805 451.124 18.3592C451.7 20.1271 451.839 22.221 451.471 22.0338C450.312 18.692 448.855 14.6291 447.161 11.4329C446.329 9.83825 445.496 8.44468 444.844 7.43243C444.184 6.42018 443.775 5.76152 443.831 5.62979C441.457 3.55676 438.563 1.72639 435.142 0.970674C433.449 0.589348 431.666 0.478416 429.938 0.672546C428.203 0.85281 426.551 1.37973 425.066 2.05919C425.129 1.92052 425.358 1.71946 425.725 1.4976C426.107 1.29654 426.614 1.06081 427.21 0.83201C428.425 0.416017 430.007 0.0832233 431.457 0.00695801C430.729 0.0762901 430.09 0.124823 429.542 0.242687C428.987 0.339752 428.508 0.429884 428.099 0.547748C427.689 0.651747 427.342 0.741878 427.037 0.818144C426.745 0.908275 426.496 0.977607 426.287 1.03307C425.441 1.24107 425.205 1.21334 424.969 1.144C424.74 1.08161 424.525 1.00534 423.803 1.25494C423.463 1.40053 422.998 1.63626 422.36 2.01066C422.054 2.20479 421.721 2.45438 421.34 2.73864C420.93 3.02984 420.59 3.34877 420.195 3.71623C421.263 3.23783 420.063 4.59674 420.049 4.881C418.196 5.87939 415.302 8.02175 412.866 11.3774C411.673 13.0691 410.639 15.052 409.952 17.1459C409.237 19.2327 408.987 21.4306 408.98 23.3857L408.633 22.6092L408.349 21.805C407.884 25.4865 408.536 29.2166 409.688 32.6069C410.903 35.9834 412.651 39.0617 414.664 41.8766C418.723 47.4995 423.782 52.1308 429.063 56.3601C427.28 54.6961 426.829 53.7879 427.203 53.6007C427.578 53.4204 428.765 53.9681 430.326 55.1329L430.868 56.9841C433.289 57.9755 427.897 54.1553 432.519 56.6236C434.462 58.1489 434.976 58.8699 434.656 59.0779C434.337 59.2859 433.192 58.9531 431.922 58.239C432.776 58.7936 433.636 59.3414 434.511 59.8614C435.378 60.3952 436.253 60.9083 437.134 61.4075C437.245 61.8859 435.961 61.248 435.406 61.3936C436.024 61.5947 436.842 62.1147 437.786 62.801C438.744 63.4528 439.799 64.3125 440.937 65.1029C443.185 66.7391 445.669 68.2644 447.536 68.5833L447.682 69.0409C453.594 72.1539 458.063 74.0328 462.276 75.6691C466.502 77.2845 470.478 78.6573 475.627 80.2797C475.877 79.8498 476.988 79.9954 478.445 80.2797C479.909 80.5362 481.72 80.9453 483.365 80.973C490.846 83.3649 499.298 85.9649 508.798 87.0534C515.516 87.3099 510.831 86.471 513.878 86.1868C514.079 86.6444 516.543 87.0881 518.354 87.3585C520.158 87.6497 521.303 87.8507 518.812 88.0171C524.544 88.2875 528.215 88.2459 532.261 88.0518C534.273 87.9547 536.417 87.7745 538.874 87.5041C541.324 87.2059 544.162 86.8662 547.694 86.4433C546.133 86.1937 544.391 86.159 545.265 85.7916C547.819 85.4588 551.129 85.743 550.796 86.1937L550.123 86.3324C554.072 85.75 558.339 85.3201 562.725 85.0705C567.111 84.814 571.622 84.7308 576.014 84.4951C580.414 84.2801 584.723 84.1207 588.693 83.6977C592.662 83.2679 596.305 82.6924 599.387 81.8188L598.693 81.9991C603.002 81.1463 607.291 80.1341 611.579 79.1912C617.589 78.4632 608.089 80.3767 612.599 80.2727C626.402 76.7091 634.771 76.9656 646.103 73.9843C648.442 74.2478 651.579 73.9705 655.159 73.4505C658.74 72.9235 662.772 72.1401 666.88 71.2526C675.11 69.5263 683.674 67.5503 689.808 67.1967L688.996 66.7252C691.967 65.5258 692.799 66.337 695.096 66.025C694.68 65.6159 691.64 66.1429 693.493 65.4357C706.484 62.489 719.995 60.0416 733.624 57.8299C747.254 55.6668 760.987 53.67 774.443 51.7703C779.356 51.0493 780.633 49.9954 782.229 49.1426C783.034 48.7058 783.922 48.2968 785.393 47.9778C786.129 47.8184 787.01 47.6797 788.1 47.5757C789.189 47.4717 790.48 47.3747 792.048 47.4024L790.369 48.172L788.703 48.9901C798.446 47.0211 808.592 46.1197 818.689 45.7661C828.793 45.468 838.82 45.676 848.563 45.6899C847.391 45.884 847.342 46.1891 845.448 46.0989C847.474 46.612 851.242 46.9171 854.538 46.9587C857.821 47.0765 860.631 47.0141 860.701 46.6744C863.706 47.0557 861.332 47.3538 863.15 47.8808C867.154 48.8722 873.532 48.1304 875.565 49.3506C875.912 49.5447 874.385 49.4338 873.629 49.3783C874.982 49.3922 878.056 49.9122 880.499 50.2658C882.928 50.6887 884.725 50.9175 883.552 50.2034C885.322 50.661 887.071 51.0215 888.778 51.3474C890.478 51.7148 892.144 52.0407 893.767 52.3527C897.022 52.9351 900.048 53.7116 902.796 54.6753C903.288 54.6615 903.851 54.7031 904.447 54.8001C905.044 54.9041 905.683 55.0567 906.342 55.23C907.66 55.5836 909.069 56.0412 910.408 56.4572C911.748 56.8593 912.99 57.2961 914.01 57.5387C915.03 57.7814 915.814 57.8369 916.224 57.5665C915.731 58.2529 918.694 59.4523 922.275 60.7973C925.89 62.0453 930.124 63.4805 932.414 63.9658C931.602 63.9104 932.497 64.3749 933.336 64.881C934.169 65.3941 934.96 65.9141 934.01 65.8655C936.411 66.8916 938.763 67.7583 940.408 68.3407C942.053 68.9092 943.052 69.0756 942.809 68.514C943.808 69.2351 944.835 69.8799 945.883 70.4692C946.917 71.0862 947.965 71.6548 949.02 72.1747C950.075 72.7017 951.129 73.1801 952.17 73.6376C953.204 74.116 954.211 74.5875 955.196 75.0382C956.181 75.4888 957.132 75.9256 958.041 76.3693C958.936 76.8339 959.769 77.3123 960.546 77.7976C962.08 78.789 963.385 79.7805 964.19 81.0423C970.969 84.7724 977.222 88.8699 982.926 93.3418C988.631 97.8068 993.8 102.646 998.283 107.915C997.492 108.227 995.126 105.274 992.531 102.66C991.302 101.301 989.935 100.102 988.936 99.2628C987.916 98.4378 987.187 98.0287 987.014 98.4308C991.962 102.674 995.716 106.203 999.144 110.016C999.97 110.987 1000.84 111.964 1001.62 112.963C1002.38 113.954 1003.11 114.994 1003.77 116.124C1005.09 118.378 1006.23 120.943 1006.96 123.952C1007.13 124.735 1007.11 125.034 1007.03 125.013C1006.95 124.992 1006.79 124.666 1006.57 124.222C1006.15 123.321 1005.51 121.962 1005.2 121.518C1007.6 127.12 1008.07 133.242 1007.26 138.969C1006.46 144.724 1004.49 150.111 1001.98 155.103C1001.87 154.999 1002.36 153.89 1002.77 152.836C1001.82 154.812 999.97 157.044 1000.68 157.238C1001.04 156.621 1001.35 155.97 1001.68 155.339C1003 154.077 1002.45 156.275 1001.23 158.805C1000.62 160.067 999.845 161.391 999.206 162.431C998.561 163.464 998.075 164.227 998.096 164.393C998.693 162.265 996.673 164.338 994.626 165.829C994.127 166.217 993.599 166.543 993.162 166.82C992.704 167.077 992.315 167.25 992.045 167.298C991.497 167.395 991.448 166.952 992.197 165.579C991.184 166.55 989.893 167.798 990.421 168.019C989.491 168.539 988.839 168.789 988.617 168.734C988.395 168.671 988.63 168.338 989.366 167.555C987.819 168.63 986.75 169.26 985.966 169.753C985.182 170.224 984.682 170.564 984.189 170.855C983.697 171.16 983.211 171.41 982.427 171.708C981.642 171.971 980.553 172.297 978.853 172.45C978.853 172.11 980.185 171.826 980.775 171.285C979.2 171.916 977.52 172.401 975.501 172.484C973.502 172.533 971.129 172.179 968.548 170.82C968.957 170.758 968.45 170.287 970.012 170.924C967.736 170.092 965.716 168.955 963.836 167.687C961.962 166.362 960.248 164.934 958.749 163.249C957.257 161.572 955.973 159.63 955.106 157.342C954.231 155.068 953.766 152.454 953.912 149.591C954.28 150.43 954.551 150.576 954.662 150.368C954.773 150.153 954.828 149.563 954.891 148.856C954.988 147.442 955.314 145.535 956.008 145.348C956.063 144.37 956.237 143.386 956.376 142.394C956.584 141.41 956.743 140.418 957.035 139.434C956.556 140.141 956.161 140.869 955.737 141.611C956.417 139.011 957.104 136.522 958 134.165C958.888 131.814 959.922 129.582 961.386 127.654C960.796 128.923 960.296 130.22 959.79 131.502C961.33 128.417 963.149 125.429 965.154 122.565C964.523 123.328 963.863 124.077 963.239 124.853C962.635 125.637 961.99 126.406 961.414 127.218C962.656 124.645 962.267 124.548 962.066 124.326C961.879 124.111 961.879 123.744 964.287 120.777C963.877 121.435 964.731 120.284 966.029 118.766C967.333 117.254 969.13 115.417 970.407 114.571L970.393 114.585C971.969 112.221 973.69 109.794 976.986 107.111C978.076 106.667 977.326 108.754 978.034 108.47C978.672 107.132 981.053 104.802 983.641 102.556C984.911 101.405 986.264 100.31 987.381 99.2628C988.533 98.2506 989.477 97.3076 990.011 96.5381C989.234 97.4671 989.602 98.0495 989.991 97.9247C990.428 97.2106 990.886 96.5242 991.344 95.8239C993.641 94.4789 994.05 94.3888 994.016 95.0751C997.312 92.8635 996.562 92.8912 996 92.8634C995.438 92.8427 995.057 92.7387 999.192 90.4022C998.616 90.8736 998.984 90.7904 997.77 91.7611C1001.82 89.272 1005.65 86.7553 1009.48 84.4049C1013.33 82.0684 1017.18 79.9122 1021.2 78.1789C1022.65 78.2136 1020.95 79.0802 1019.33 79.9815C1017.7 80.869 1016.1 81.7148 1017.67 81.5346C1023.18 78.5602 1028.91 75.4888 1034.76 72.7363C1040.61 69.9839 1046.6 67.5642 1052.46 65.8725L1050.25 66.441C1050.51 65.8725 1051.2 65.4634 1052.18 65.1306C1053.15 64.8117 1054.42 64.5759 1055.83 64.3263C1058.65 63.841 1062.04 63.3904 1064.92 62.2048C1063.49 62.7178 1063.27 63.6954 1063.6 63.3904C1067.66 62.4544 1071.78 61.3867 1076.44 60.1942C1081.09 59.0016 1086.3 57.7537 1092.54 56.6305L1091.05 57.3099C1095.98 57.0118 1103.94 56.0204 1109.26 55.951C1110.81 55.4172 1113.87 55.3686 1111.97 54.7585C1120.27 55.8124 1128.05 54.9319 1135.68 54.7031C1139.48 54.5159 1143.24 54.294 1146.96 54.3009C1150.67 54.4465 1154.33 54.7793 1157.95 55.5142C1156.21 55.438 1153.78 55.7292 1155.16 55.7985L1161.38 55.8748L1164.48 55.9094L1167.59 56.0689C1167.13 55.6252 1166.73 55.4726 1166.13 55.3201C1165.53 55.1745 1164.72 55.0012 1163.44 54.6407C1164.24 54.4257 1165.53 54.3148 1167 54.3009C1168.47 54.2801 1170.12 54.3287 1171.66 54.4673C1166.03 54.5089 1171.61 55.7569 1173.97 56.4086C1173.59 56.1313 1174.44 55.9302 1174.26 55.6668C1177.43 56.6582 1177.74 56.2838 1178.35 55.8748C1178.66 55.6668 1179.04 55.4588 1179.89 55.4033C1180.74 55.3478 1182.08 55.438 1184.26 55.9718L1183.74 56.3324C1187.07 56.5334 1190.18 56.3601 1193.73 56.9217C1195.09 58.0241 1190.16 56.9147 1189.84 57.6427C1192.34 57.927 1194.87 57.8022 1197.32 57.7883C1199.77 57.7675 1202.13 58.0033 1204.32 58.8006C1203.25 58.759 1201.95 58.6273 1200.65 58.4886C1199.99 58.4193 1199.35 58.3569 1198.72 58.2945C1198.1 58.2459 1197.5 58.2321 1196.97 58.2251C1198.16 58.6342 1199.09 58.96 1199.88 59.2235C1200.66 59.48 1201.29 59.6534 1201.89 59.792C1203.08 60.0694 1204.14 60.208 1205.95 60.5824L1205.59 60.4992L1213.93 62.3088L1211.83 61.6848C1215.15 60.9429 1218.32 61.4907 1221.75 62.0939C1223.46 62.4058 1225.24 62.7594 1227.13 63.0298C1229.02 63.2933 1231.02 63.4874 1233.18 63.5429C1228.99 63.432 1228.6 63.6469 1229.17 63.8965C1229.75 64.153 1231.26 64.5621 1230.85 65.0197C1232.92 65.7407 1236.08 66.7252 1235.1 66.8223C1239.2 66.8084 1241.52 68.7983 1247.32 68.7705C1247.5 69.1519 1251.51 69.7204 1250.44 70.3582C1255.6 71.218 1249.36 69.5193 1249.88 69.2004C1253.93 69.5055 1258.49 70.8366 1263.47 72.2718C1268.46 73.7001 1273.88 75.1768 1279.72 75.676C1284.67 76.4525 1287.66 76.6605 1290.55 76.8616C1293.46 77.0419 1296.27 77.2013 1300.87 77.9016C1303.82 79.0872 1298.1 78.5672 1298.1 78.5672C1300.53 79.3437 1302.67 79.9053 1304.81 80.3559C1306.95 80.7927 1309.08 81.0701 1311.46 81.3474C1310.45 81.4514 1311.38 81.8882 1312.73 82.5399C1316.51 83.1916 1315.48 81.8258 1320.34 83.2887C1319.42 83.4897 1318.22 83.8711 1316.33 83.8849C1320.82 84.502 1325.35 84.5505 1330 85.0636C1331.12 85.854 1327.07 85.4657 1325.37 85.5697C1327.99 85.8817 1331.37 86.3254 1334.32 86.6097C1337.26 86.8801 1339.79 86.8732 1340.66 86.5404L1337.37 85.743C1339.27 85.9649 1338.22 86.6721 1336.8 86.6444C1332.23 86.686 1330.44 85.2508 1330.25 84.8903L1333.57 85.2369C1330.53 82.6786 1320.34 83.3857 1313.8 81.8812L1316.81 81.0007L1309.85 80.8482C1308.49 80.1965 1307.67 79.2189 1310.95 79.6418C1306.4 78.0125 1306.68 79.3437 1302.82 77.7005C1302.41 77.4856 1302.62 77.4578 1303.05 77.4925L1298.38 76.9309C1299.34 76.8269 1297.83 75.7731 1300.6 76.5773C1296.59 75.2878 1293.23 74.851 1290.51 74.4974C1287.79 74.1299 1285.72 73.8803 1284.3 72.9998L1285 73.0691C1273.53 70.9961 1283.67 73.8595 1274.86 73.1523L1269.7 69.3113L1268.35 70.0878C1267.18 69.7828 1264.88 69.1865 1265.4 68.8676C1260.87 68.5903 1266.04 69.4847 1263.36 69.5817C1257.92 67.377 1247.68 66.5935 1246.75 64.6591C1244.55 64.9989 1252.03 66.4479 1245.88 65.6783C1244.52 63.5498 1238.81 64.5413 1233.8 62.6624C1235.57 62.0731 1240.39 63.5637 1235.36 61.6848C1231.94 62.5445 1225.3 59.3899 1220.84 58.8699C1220.63 59.4731 1218.21 59.1542 1214.92 58.5857C1211.62 58.0934 1207.43 57.3515 1203.69 56.9771C1203.82 56.8939 1203.02 56.6652 1201.64 56.3601C1200.94 56.2145 1200.11 56.0342 1199.18 55.8332C1198.24 55.6529 1197.19 55.4934 1196.09 55.3062C1191.68 54.5783 1186.34 53.7324 1182.9 53.0738L1183.12 52.8866C1181.65 53.9681 1174.49 53.15 1169.25 52.942C1169.51 52.2002 1170.47 51.9852 1173.34 51.8882L1168.41 51.4652C1167.82 51.6178 1167.13 51.7148 1166.19 51.7564C1165.25 51.7772 1164.07 51.805 1162.47 51.8119L1163.77 50.9245C1160.48 50.7927 1157.15 50.9245 1153.6 50.9453C1151.83 50.9591 1149.99 50.9453 1148.08 50.869C1147.12 50.8135 1146.14 50.7927 1145.14 50.765C1144.13 50.7303 1143.1 50.6749 1142.05 50.5847C1141.57 51.4722 1148.7 53.0876 1139.8 53.6423C1139.47 53.1639 1139.16 52.3388 1141.49 52.1516C1140.72 52.214 1138.76 52.5399 1137.22 52.325L1140.79 51.5346C1136.95 51.1671 1138.77 52.2002 1135.71 52.11C1135.77 51.4236 1133.43 51.6108 1133.87 51.0701C1134.65 51.0077 1136.55 51.3612 1137.73 51.0978C1134.26 50.9591 1130.06 50.5362 1128.66 50.0162C1128.98 50.4183 1128.68 50.8898 1126.14 51.0978C1119.57 51.4167 1123.87 50.3629 1120.02 50.1687C1118.44 50.7095 1114.22 50.3837 1114.16 51.4098C1112.24 51.4791 1111.86 51.0215 1111.1 50.7719C1109.41 51.0285 1105.43 51.3266 1102.36 51.7148C1099.3 52.117 1097.16 52.5122 1099.13 52.8727L1100 52.8588C1099.84 52.8866 1099.65 52.9212 1099.45 52.9559C1093.96 54.0305 1088.22 54.6684 1082.48 55.4449C1076.75 56.2214 1071.02 57.1366 1065.69 58.7035L1065.63 58.3638C1059.3 60.3051 1051.48 62.5307 1047.26 64.7562C1045.42 65.3941 1042.7 65.6783 1043.35 65.0197C1038.68 67.0164 1038.28 67.5087 1031.3 69.7759C1035.78 67.2868 1029.46 69.9284 1035.98 67.4047C1034.41 67.9316 1033.15 68.3615 1032.03 68.7428C1030.91 69.1172 1029.93 69.45 1028.97 69.8452C1028.01 70.2404 1027.03 70.6633 1025.93 71.2388C1024.83 71.8281 1023.6 72.5422 1022.09 73.5059C1023.9 71.6617 1017.12 74.6499 1014.45 76.3555L1018.87 74.8302C1017.31 75.6691 1015.85 76.4317 1014.42 77.1597C1012.99 77.8946 1011.61 78.6018 1010.21 79.316C1010.52 78.6989 1010.83 78.0888 1011.15 77.4925C1004.82 80.0994 999.859 83.8433 995.369 87.407C990.872 90.9915 986.854 94.3957 982.08 96.753C980.928 98.1951 982.461 97.1412 984.037 96.0805C985.619 95.0266 987.27 94.0074 986.285 95.3525C983.766 97.1759 981.039 98.8607 978.728 100.261C977.583 100.982 976.549 101.627 975.702 102.161C974.869 102.722 974.224 103.173 973.863 103.513C970.498 106.258 969.394 108.047 968.305 109.857C967.777 110.779 967.215 111.68 966.445 112.803C966.056 113.365 965.605 113.961 965.057 114.634C964.523 115.313 963.898 116.069 963.142 116.908C963.669 116.589 964.315 116.388 964.342 116.956C964.37 117.518 963.766 118.828 961.983 121.629C960.123 124.104 958.77 125.512 958.048 125.838C957.333 126.164 957.222 125.359 958.173 123.578C958.985 122.281 959.498 121.74 959.582 121.879C960.63 120.125 962.087 117.837 960.241 119.612L960.095 120.527C958.978 121.664 957.278 124.132 955.966 126.094C955.328 127.086 954.78 127.945 954.405 128.417C954.037 128.895 953.864 128.992 953.947 128.438C953.01 130.74 952.934 131.273 953.308 130.851C953.697 130.435 954.481 129.02 955.474 127.516C953.211 130.982 951.893 134.012 950.852 137.174C950.727 137.569 950.595 137.971 950.463 138.366C950.352 138.775 950.241 139.184 950.13 139.6C950.019 140.016 949.894 140.432 949.797 140.862C949.7 141.292 949.61 141.736 949.513 142.179C949.117 143.961 948.826 145.916 948.624 148.17C948.909 146.734 949.54 145.514 949.408 146.901C949.29 147.698 949.27 148.44 949.242 149.099C949.228 149.432 949.221 149.744 949.207 150.042C949.221 150.34 949.228 150.624 949.242 150.894C949.27 151.428 949.29 151.907 949.325 152.323C949.388 152.746 949.443 153.106 949.499 153.432C949.7 154.722 949.998 155.269 950.22 155.685C950.463 156.101 950.657 156.386 951.025 157.065C951.199 157.405 951.4 157.855 951.643 158.465C951.941 159.055 952.247 159.838 952.732 160.809C953.531 163.159 953.072 162.937 952.864 163.083C952.774 163.152 952.774 163.312 953.121 163.922C953.461 164.532 954.169 165.607 955.689 167.25C956.091 167.805 956.39 168.248 956.612 168.588C956.848 168.914 956.993 169.15 957.063 169.309C957.201 169.635 957.042 169.663 956.716 169.51C956.029 169.24 954.766 168.117 953.919 167.333C955.404 168.879 956.834 170.328 958.27 171.597C959.665 172.893 961.122 174.072 962.545 175.126C963.974 176.18 965.432 177.053 966.827 177.781C968.242 178.468 969.589 179.036 970.838 179.334C969.269 179.099 967.729 178.683 966.223 178.184C968.915 179.113 971.205 179.653 973.558 179.965C973.121 179.785 972.704 179.563 972.288 179.355C971.872 179.147 971.462 178.932 971.067 178.69C973.69 179.459 976.028 179.48 975.959 179.834C977.382 179.605 976.833 179.23 976.653 178.877C976.563 178.697 976.556 178.502 976.903 178.315C977.25 178.121 977.944 177.948 979.221 177.657C980.928 177.733 983.474 177.164 985.605 176.402C987.749 175.66 989.54 174.842 990.303 175.057C989.102 175.611 988.2 175.979 987.534 176.242C986.882 176.52 986.458 176.679 986.223 176.811C985.751 177.067 985.987 177.15 986.278 177.227C986.569 177.303 986.93 177.379 986.667 177.636C986.396 177.885 985.529 178.392 983.211 178.967C984.98 178.44 987.097 177.802 989.553 176.845C989.963 176.783 989.318 177.22 988.665 177.553C991.226 176.741 992.648 175.916 993.578 175.299C994.487 174.648 994.904 174.162 995.285 173.628C995.681 173.108 996.035 172.54 996.812 171.715C997.569 170.862 998.755 169.774 1000.59 167.957C1000.34 168.643 1000.97 168.429 1001.8 167.86C1002.63 167.291 1003.63 166.335 1004.13 165.627C1002.75 167.243 1002.18 167.402 1002.3 166.827C1002.41 166.238 1003.15 164.9 1004.11 163.263C1006.3 160.83 1007.12 159.221 1007.71 157.973C1008.28 156.711 1008.57 155.748 1009.35 154.25C1008.71 155.373 1008.06 156.476 1007.34 157.543C1007.44 156.108 1009.13 153.39 1010.46 149.154C1010.75 149.057 1010.48 150.028 1010.21 150.853C1009.93 151.664 1009.67 152.33 1010.07 151.636C1010.52 149.147 1011.69 146.644 1012.67 143.719C1013.18 142.27 1013.6 140.71 1013.9 139.073C1014.18 137.437 1014.29 135.711 1014.13 133.95C1014.32 132.32 1014.61 132.223 1014.88 132.189C1015.15 132.147 1015.41 132.168 1015.47 130.684C1015.13 128.68 1014.86 127.134 1014.64 125.81C1014.54 125.144 1014.45 124.541 1014.36 123.959C1014.27 123.377 1014.2 122.815 1014.1 122.253C1013.71 120.028 1013.26 117.643 1011.06 113.92C1011.23 115.216 1011.39 115.923 1011.11 115.688C1010.82 115.466 1010.15 114.225 1008.32 111.902C1010.81 115.715 1012.75 119.958 1013.91 124.451C1012.88 121.636 1011.57 118.967 1010.02 116.499C1010.86 118.35 1011.7 120.34 1012.34 122.191C1013 124.035 1013.42 125.762 1013.55 126.982C1012.87 124.985 1012.52 124.132 1012.36 123.994C1012.2 123.862 1012.24 124.465 1012.1 125.47C1012.18 122.655 1011.15 120.014 1009.83 117.511C1008.5 114.987 1006.87 112.595 1005.42 109.774L1007.21 108.761C1004.76 104.622 1001.92 101.419 998.568 98.3338C995.272 95.1722 991.497 92.0939 987.055 87.9409C987.999 88.8422 988.866 89.8336 989.762 90.7766C988.88 90.5408 987.499 89.2859 985.834 87.9201C985.015 87.2198 984.141 86.478 983.28 85.75C982.42 85.0289 981.511 84.4049 980.685 83.878C981.393 83.5591 979.588 81.8743 978.492 80.5223C978.423 80.7858 976.611 79.5032 974.606 78.2205C974.106 77.9016 973.593 77.5757 973.086 77.2845C972.573 77.0072 972.073 76.7507 971.615 76.5427C970.692 76.1267 969.922 75.8909 969.512 76.0365L967.486 74.1992L965.404 72.4313C961.324 69.7343 958.589 68.8953 955.973 68.0148C954.662 67.578 953.322 67.2314 951.83 66.6628C950.331 66.1151 948.673 65.3455 946.577 64.3402C948.007 64.5967 947.819 64.1669 948.007 63.945C948.194 63.7301 948.77 63.6746 951.685 64.8671C948.909 63.4112 946.383 62.184 946.147 62.5722C945.779 62.2811 945.078 61.9621 944.204 61.6155C943.329 61.2619 942.275 60.8944 941.171 60.5478C938.978 59.8336 936.695 59.0432 935.495 58.1905C934.155 57.9894 933.489 58.5025 930.269 57.1851C929.964 56.9147 930.401 56.8731 930.401 56.8731C930.332 57.0326 929.027 56.6374 928.049 56.4502C927.063 56.2769 926.432 56.2838 927.729 57.1505C925.668 55.8678 923.066 54.6268 920.179 53.5452C918.729 53.0183 917.216 52.5122 915.675 52.0199C914.905 51.7772 914.128 51.5207 913.344 51.2919L910.984 50.6402C909.409 50.2034 907.848 49.7735 906.328 49.3506C904.801 48.9416 903.309 48.5741 901.901 48.172C900.492 47.7768 899.159 47.3608 897.945 46.9379C896.717 46.5427 895.606 46.1267 894.635 45.676C887.973 44.331 879.888 43.187 873.802 42.2857C874.219 42.147 873.872 41.9529 875.01 42.2094C872.942 41.6964 871.554 41.5924 870.506 41.5924C869.458 41.5993 868.744 41.7518 867.994 41.8974C866.495 42.1955 864.871 42.4035 860.125 41.6062C855.336 40.0116 865.281 41.523 862.269 40.802C861.728 39.6233 858.806 39.3876 855.239 39.2489C853.449 39.2212 851.506 39.2143 849.604 39.0964C848.654 39.0409 847.717 38.9577 846.815 38.8329C845.913 38.7289 845.045 38.5972 844.24 38.3961L845.822 38.3268C843.352 37.8554 840.298 37.9178 836.863 38.1119C835.142 38.2367 833.331 38.3823 831.437 38.4863C830.493 38.5348 829.528 38.5764 828.543 38.5903C827.558 38.618 826.558 38.6596 825.545 38.6527C825.545 38.6527 825.934 38.4447 825.587 38.3129C822.818 38.9577 818.814 39.3529 814.553 39.9007C812.423 40.1641 810.216 40.3374 808.064 40.6217C805.92 40.8852 803.818 41.1486 801.888 41.3913C804.22 40.3166 805.372 40.6356 803.824 39.866C802.083 40.074 802.374 40.4068 802.228 40.795C802.159 40.9892 801.979 41.1972 801.382 41.4052C800.792 41.6201 799.779 41.8073 798.065 42.0777C795.775 41.8489 790.73 41.9945 789.945 41.1209L796.489 40.3305C794.748 39.9076 792.617 40.1572 790.501 40.5316C788.384 40.9198 786.288 41.53 784.553 41.6617L784.914 41.0654C782.416 41.4745 780.542 41.8489 778.988 42.251C777.44 42.6601 776.191 43.0553 774.914 43.4435C772.368 44.22 769.724 44.9827 764.401 45.8147L765.567 46.0365C759.995 48.3661 760.57 46.1405 754.956 48.1512L752.965 47.1112C749.183 48.0888 739.807 50.8759 733.007 52.4012C736.699 50.6749 744.617 48.6642 749.481 47.1597C745.685 47.8392 736.615 49.6557 734.769 50.6818C736.268 50.2658 738.135 49.5794 739.683 49.5031C735.227 51.4098 729.225 53.1153 721.688 54.5436C722.514 51.6594 701.932 57.7398 696.082 56.7969C682.959 60.3883 669.607 61.6085 654.125 64.6245C660.003 65.6437 649.608 65.5189 650.94 67.4255C647.346 68.2228 645.958 68.4447 645.611 68.3615L634.417 69.0271C631.718 68.8745 637.783 67.9663 637.367 67.5572C629.421 68.7636 633.897 67.2799 628.56 67.578C629.761 68.1535 625.979 69.0964 621.419 69.5401L627.943 69.4777C617.034 72.3827 618.089 69.3113 607.076 72.043L610.518 70.8644C604.841 72.1609 589.352 73.811 583.898 76.1544C582.85 76.0227 581.434 75.5998 583.953 75.163C577.055 75.8077 569.45 77.1667 562.177 78.1304C560.359 78.38 558.568 78.6226 556.813 78.8653C555.938 78.9762 555.071 79.0872 554.217 79.1912C553.364 79.2744 552.517 79.3506 551.691 79.4269C548.374 79.7111 545.293 79.8637 542.594 79.7943L543.607 79.205C542.323 79.3714 541.22 79.6973 540.026 79.9399C538.839 80.1826 537.535 80.3767 535.953 80.1757C536.105 79.9538 536.938 79.6071 535.772 79.6349C534.461 79.9261 529.089 80.7789 525.724 80.3906C526.681 80.2242 527.639 80.0439 528.597 79.8359C522.004 79.4962 516.952 79.4408 512.094 79.42C507.251 79.3714 502.608 79.3021 497.064 78.3869C497.147 78.0194 496.571 77.5757 495.585 77.0973C494.6 76.6259 493.212 76.1059 491.672 75.5582C488.576 74.4766 484.857 73.2979 482.407 72.4174L482.643 72.2579C475.294 69.9908 469.083 68.001 463.039 65.8517C457.023 63.6677 451.145 61.3451 444.878 57.8923C441.534 54.8903 435.35 50.6749 429.611 45.1907C428.876 44.5182 428.203 43.7971 427.488 43.0899C426.822 42.355 426.107 41.6409 425.482 40.8782C424.171 39.3807 422.977 37.8138 421.943 36.2191C419.827 33.0506 418.536 29.7088 418.203 26.8731C418.265 27.7537 417.967 27.7675 417.558 27.2753C417.162 26.783 416.725 25.7569 416.607 24.6961C416.69 23.3025 416.628 21.4028 416.989 19.8914C417.113 19.1288 417.412 18.5186 417.627 18.1234C417.891 17.749 418.161 17.6312 418.418 17.8877L418.182 18.3106L417.988 18.7544C419.008 18.0749 420.042 16.6189 421.596 15.0104C421.978 14.6083 422.367 14.1854 422.825 13.7832C423.04 13.5753 423.262 13.3673 423.484 13.1593L424.199 12.563C424.657 12.147 425.17 11.7726 425.684 11.4052C425.927 11.2318 426.197 11.01 426.419 10.8782C426.634 10.7465 426.85 10.6078 427.058 10.483C426.933 9.84518 426.843 9.22119 426.78 8.55561C429.695 7.80682 432.366 8.00095 435.115 9.59559C437.863 11.1833 440.465 14.2062 442.297 17.5341C444.15 20.8759 445.343 24.5159 445.822 27.7121C446.336 30.9152 446.162 33.6677 445.545 35.4287C445.982 38.5972 445.447 42.5353 445.052 45.7176L444.143 45.3086C443.539 47.4024 442.88 49.1912 442.144 50.8274C441.423 52.4706 440.666 53.982 439.778 55.4934C438.917 57.0187 437.925 58.5441 436.704 60.2011C435.489 61.8581 434.039 63.6469 432.137 65.5813C432.484 64.881 432.852 64.2154 433.165 63.5221C431.09 65.6922 430.097 67.4394 429.091 69.2351C428.036 70.9614 426.974 72.7571 424.448 74.3587C423.692 74.2824 422.915 74.1438 422.165 74.0259C419.792 75.4264 417.28 76.6259 414.678 77.6242C412.096 78.6226 409.397 79.5517 406.746 80.2173C401.472 81.6663 396.066 82.5052 390.577 83.462C390.743 83.2332 391.063 82.845 392.839 82.6023C391.548 82.7548 389.619 82.7132 387.503 82.7271C386.448 82.7479 385.33 82.6508 384.22 82.63C383.11 82.5954 382.013 82.5746 380.959 82.4983C378.856 82.3874 376.968 82.3527 375.712 82.3943C374.456 82.4636 373.825 82.7271 374.262 83.2748C374.262 82.942 373.533 82.7063 372.34 82.5191C371.146 82.2972 369.501 82.1239 367.649 81.9922C365.796 81.805 363.749 81.6524 361.771 81.486C359.786 81.2989 357.885 81.1186 356.323 80.973L357.461 80.2103C352.062 80.3698 351.806 80.6887 344.512 79.3506C342.833 78.8168 343.194 78.2413 345.407 79.0248C339.835 77.1736 340.751 78.8653 333.978 76.6259L336.698 76.6744C330.869 75.1214 331.251 75.5443 327.851 75.4056C324.075 74.8163 316.817 72.2302 316.178 71.1556C315.248 71.4606 311.869 71.2942 308.475 70.1433C308.094 69.6996 309.405 69.8313 310.065 69.9007C300.419 66.6836 295.186 67.1967 288.621 64.6522C288.552 64.3055 288.15 64.0421 287.608 63.8202C295.471 65.7061 301.737 67.4047 301.133 67.3146C301.355 66.4479 295.075 64.6799 300.405 64.777C295.152 64.1253 286.109 63.3973 279.982 61.6293C279.697 61.4768 279.427 61.3243 279.225 61.144L279.892 61.1925C278.476 60.7765 277.164 60.6032 275.915 60.4854C273.951 59.9238 272.716 59.5286 270.787 59.1472C270.489 58.7104 268.663 58.2529 266.505 57.823C264.347 57.3931 261.856 57.0534 260.246 56.7414C260.343 57.7467 256.158 56.8524 259.968 58.343C259.469 58.1835 260.593 58.3361 262.737 58.6758C263.223 58.7312 263.799 58.8214 264.125 58.8214C264.056 58.8352 263.979 58.856 263.889 58.8699C266.006 59.2027 268.747 59.7574 271.87 60.3398C269.232 60.3398 266.54 60.1872 263.077 59.0363C261.315 59.3622 259.399 59.6742 258.331 59.792C256.249 58.7798 253.105 57.7259 250.336 56.8731C247.56 56.0342 245.173 55.3201 244.625 54.8209C242.12 54.6823 239.4 54.4535 236.624 54.2663C235.236 54.19 233.834 54.1207 232.439 54.0444C231.044 53.9681 229.656 53.9057 228.296 53.9057C222.856 53.7601 217.88 54.1623 214.737 55.0081C211.905 55.1884 211.489 54.4188 210.427 54.1137C212.065 53.9612 214.015 54.0305 214.903 53.7809C213.48 53.8711 211.718 53.9057 209.858 53.9265C208.928 53.9196 207.971 53.9959 207.013 54.0444C206.062 54.0999 205.111 54.1623 204.195 54.2177C200.538 54.4673 197.422 54.8001 196.784 55.4588C195.889 55.4033 195.278 55.3617 194.883 55.327C194.48 55.2854 194.293 55.23 194.23 55.1676C194.112 55.0428 194.522 54.8903 194.848 54.7655C195.507 54.5228 195.833 54.398 190.941 54.8694L192.239 54.3772C189.81 54.3009 187.492 54.3356 185.264 54.4535C184.154 54.5228 183.058 54.5575 181.982 54.7031C180.913 54.8487 179.859 55.0012 178.825 55.1745C176.75 55.5142 174.73 55.9025 172.732 56.3185C171.732 56.5334 170.74 56.7206 169.755 56.9702C168.769 57.2337 167.791 57.4971 166.805 57.7537C164.835 58.2806 162.85 58.8006 160.817 59.2998C159.803 59.5632 158.762 59.7643 157.728 60.0486C156.688 60.3259 155.633 60.6032 154.557 60.8597C152.399 61.3797 150.15 61.8581 147.77 62.2672C146.57 62.4474 145.369 62.7317 144.12 62.9466C142.871 63.1685 141.58 63.3765 140.241 63.5637C141.719 63.3349 142.455 63.217 142.802 63.3488C141.31 63.6677 139.818 64.0074 138.319 64.361C136.82 64.7077 135.314 65.0543 133.843 65.5189C130.879 66.3924 127.909 67.3146 124.932 68.2575C121.997 69.3183 119.068 70.4206 116.14 71.53C114.662 72.0569 113.232 72.7017 111.789 73.3118L107.466 75.163C95.9876 80.2103 84.9469 85.9718 74.1421 91.3867C68.0492 94.576 67.9243 95.7893 64.7598 98.5556L62.9348 98.4932C61.1652 100.136 59.4719 101.877 57.7509 103.548C55.794 105.149 53.8995 106.543 51.9426 107.784C50.9641 108.408 49.9787 108.997 48.9725 109.586C47.9871 110.196 46.9947 110.807 45.9815 111.431C43.9691 112.692 41.8733 113.996 39.8123 115.681C38.7714 116.513 37.7166 117.407 36.6548 118.398C35.5792 119.376 34.5591 120.513 33.4904 121.733L35.1906 121.158C31.6098 124.056 24.8022 131.336 24.816 130.254C24.5732 130.677 24.2609 131.835 22.7272 132.84L22.2415 132.549C19.8057 135.447 17.4324 138.387 15.1354 141.375C12.0612 144.488 11.9016 143.899 11.4089 143.677C10.9301 143.476 10.0835 143.608 5.91975 148.544C4.48327 150.471 2.66512 153.397 1.46459 155.734C0.264052 158.056 -0.381322 159.838 0.284871 159.166C1.40907 157.543 3.45623 155.373 3.98363 155.588C3.18559 156.795 2.40836 158.015 1.65889 159.249C2.08914 160.032 2.21405 161.315 3.06067 161.412C3.89342 161.544 5.39929 160.469 9.01477 156.732C9.61851 155.678 10.2431 154.638 10.8815 153.598C11.5061 152.551 12.1584 151.518 12.8176 150.492L14.9203 149.217C13.6295 150.783 12.3041 152.33 11.055 153.924C12.4151 152.808 13.352 151.754 14.0806 150.686C14.8023 149.619 15.3644 148.565 16.0098 147.497C16.7107 147.338 17.592 146.755 18.6676 145.792C19.8959 143.712 21.1034 141.583 22.4011 139.524C23.4559 139.337 21.0895 142.692 24.6564 139.489C26.4676 136.584 21.4018 140.814 24.9271 136.494C27.9388 134.553 27.6127 135.69 30.097 132.383C30.8118 132.293 30.3399 133.062 29.3337 134.338C31.5821 131.433 36.1691 127.578 37.0226 125.713C37.8484 125.276 38.8269 124.534 39.8401 123.688C40.8741 122.863 41.9497 121.955 42.9351 121.13C43.9274 120.305 44.8296 119.577 45.5305 119.147C46.2383 118.717 46.7518 118.6 46.9184 118.946C47.2515 118.447 48.3132 117.22 49.6178 115.847C50.2702 115.161 50.9849 114.433 51.6997 113.746C52.4283 113.081 53.157 112.457 53.8162 111.944C51.9218 114.502 54.4477 112.651 57.4178 110.481C58.889 109.371 60.5545 108.29 61.7967 107.59C63.0458 106.889 63.8924 106.612 63.8438 107.25C64.5378 106.279 65.662 105.121 67.147 103.991C68.6182 102.84 70.3809 101.613 72.2476 100.344C74.1143 99.0756 76.1545 97.8831 78.0768 96.6213C79.0414 95.9973 79.9921 95.3733 80.9011 94.7493C81.8241 94.16 82.7124 93.5706 83.5312 92.9882C83.2051 93.321 82.5666 93.9728 81.9074 94.2432C85.9184 92.184 87.2855 91.9691 89.9641 90.8667C89.9017 90.1387 91.4006 88.9115 93.2951 87.5595C95.1965 86.2214 97.4588 84.6823 99.0271 83.5521C104.613 82.4359 96.6538 86.3948 98.7843 86.8038C98.0487 85.9302 107.015 81.8258 104.933 81.7703C107.015 81.2434 107.896 81.0077 108.555 80.8829C109.214 80.765 109.652 80.7719 110.873 80.8829C110.915 79.0456 114.377 79.101 117.257 76.8616C123.302 75.5651 119.291 77.8184 125.411 75.052C128.569 74.4627 123.191 77.0488 123.191 77.0488H123.184ZM280.294 67.8554C280.294 67.8554 280.294 67.8692 280.294 67.8762C278.934 67.5919 277.775 67.3423 277.039 67.2036C277.72 67.3423 278.656 67.5295 280.301 67.8623L280.294 67.8554ZM293.486 70.9753C291.89 70.5385 289.898 70.0324 287.782 69.5401C287.4 69.1033 287.976 68.8884 289.302 69.2212C288.531 69.2628 291.592 70.1988 293.486 70.9753ZM266.79 58.1281C268.955 58.4123 269.628 58.7382 269.885 58.9878C268.872 58.8075 267.692 58.6065 266.131 58.3707C266.061 58.3915 265.929 58.4123 265.86 58.4401C266.096 58.2945 266.36 58.1697 266.797 58.1211L266.79 58.1281Z" fill="#D9EDF8"/>
</svg>
