<svg width="39" height="39" viewBox="0 0 39 39" fill="none" xmlns="http://www.w3.org/2000/svg">
<path d="M36.0781 2.45703L29.1016 0.898438C27.4688 0.527344 25.8359 1.34375 25.2422 2.82812L21.9766 10.3984C21.3828 11.7344 21.7539 13.3672 22.9414 14.332L25.9102 16.7812C23.832 20.6406 20.5664 23.832 16.707 25.9844L14.2578 23.0156C13.293 21.8281 11.6602 21.457 10.3242 22.0508L2.75391 25.2422C1.26953 25.9102 0.453125 27.543 0.824219 29.1758L2.38281 36.1523C2.75391 37.7109 4.16406 38.75 5.72266 38.75C23.9062 38.75 38.75 24.0547 38.75 5.79688C38.75 4.23828 37.6367 2.82812 36.0781 2.45703ZM5.87109 35.1875L4.3125 28.5078L11.5859 25.3906L15.7422 30.4375C23.0898 26.9492 26.875 23.1641 30.3633 15.8164L25.3164 11.6602L28.4336 4.38672L35.1875 5.94531C35.1133 22.0508 21.9766 35.1133 5.87109 35.1875Z" fill="#5956FE"/>
</svg>
