<svg width="48" height="39" viewBox="0 0 48 39" fill="none" xmlns="http://www.w3.org/2000/svg">
<path d="M8.5625 4.3125V22.125H26.375V29.25H4.92578C2.32812 29.25 0.25 27.1719 0.25 24.5V23.3125C0.25 22.7188 0.769531 22.125 1.4375 22.125H5V3.125C5 1.86328 6.03906 0.824219 7.375 0.75H35.875C37.1367 0.824219 38.1758 1.86328 38.25 3.125V7.875H34.6875V4.3125H8.5625ZM45.0781 10.25C46.4883 10.25 47.75 11.5117 47.75 12.9219V36.0781C47.75 37.5625 46.4883 38.75 45.0781 38.75H31.4219C29.9375 38.75 28.75 37.5625 28.75 36.0781V12.9219C28.75 11.5117 29.9375 10.25 31.4219 10.25H45.0781ZM44.1875 35.1875V13.8125H32.3125V35.1875H44.1875Z" fill="#5956FE"/>
</svg>
