<svg width="29" height="32" viewBox="0 0 29 32" fill="none" xmlns="http://www.w3.org/2000/svg">
<path d="M8.5 9.25C8.5 9.6875 8.8125 10 9.25 10H11.75C12.125 10 12.5 9.6875 12.5 9.25V6.75C12.5 6.375 12.125 6 11.75 6H9.25C8.8125 6 8.5 6.375 8.5 6.75V9.25ZM17.25 10H19.75C20.125 10 20.5 9.6875 20.5 9.25V6.75C20.5 6.375 20.125 6 19.75 6H17.25C16.8125 6 16.5 6.375 16.5 6.75V9.25C16.5 9.6875 16.8125 10 17.25 10ZM9.25 16H11.75C12.125 16 12.5 15.6875 12.5 15.25V12.75C12.5 12.375 12.125 12 11.75 12H9.25C8.8125 12 8.5 12.375 8.5 12.75V15.25C8.5 15.6875 8.8125 16 9.25 16ZM17.25 16H19.75C20.125 16 20.5 15.6875 20.5 15.25V12.75C20.5 12.375 20.125 12 19.75 12H17.25C16.8125 12 16.5 12.375 16.5 12.75V15.25C16.5 15.6875 16.8125 16 17.25 16ZM12.5 21.25V18.75C12.5 18.375 12.125 18 11.75 18H9.25C8.8125 18 8.5 18.375 8.5 18.75V21.25C8.5 21.6875 8.8125 22 9.25 22H11.75C12.125 22 12.5 21.6875 12.5 21.25ZM17.25 22H19.75C20.125 22 20.5 21.6875 20.5 21.25V18.75C20.5 18.375 20.125 18 19.75 18H17.25C16.8125 18 16.5 18.375 16.5 18.75V21.25C16.5 21.6875 16.8125 22 17.25 22ZM28.5 29.75C28.5 29.375 28.125 29 27.75 29H26.5V1.5C26.5 0.6875 25.8125 0 25 0H3.9375C3.125 0 2.4375 0.6875 2.4375 1.5V29H1.25C0.8125 29 0.5 29.375 0.5 29.75V32H28.5V29.75ZM5.4375 28.9375L5.5 3L23.5 3.0625V28.9375H16.5V24.75C16.5 24.375 16.125 24 15.75 24H13.25C12.8125 24 12.5 24.375 12.5 24.75V28.9375H5.4375Z" fill="#5956FE"/>
</svg>
