<svg width="25" height="29" viewBox="0 0 25 29" fill="none" xmlns="http://www.w3.org/2000/svg">
<path d="M10.9375 22.8125C10.6641 22.8125 10.5 22.6484 10.5 22.375V20.625C10.5 20.4062 10.6641 20.1875 10.9375 20.1875H18.8125C19.0312 20.1875 19.25 20.4062 19.25 20.625V22.375C19.25 22.6484 19.0312 22.8125 18.8125 22.8125H10.9375ZM6.125 23.25C5.63281 23.25 5.25 22.8672 5.25 22.375V20.625C5.25 20.1875 5.63281 19.75 6.125 19.75H7.875C8.3125 19.75 8.75 20.1875 8.75 20.625V22.375C8.75 22.8672 8.3125 23.25 7.875 23.25H6.125ZM6.125 16.25C5.63281 16.25 5.25 15.8672 5.25 15.375V13.625C5.25 13.1875 5.63281 12.75 6.125 12.75H7.875C8.3125 12.75 8.75 13.1875 8.75 13.625V15.375C8.75 15.8672 8.3125 16.25 7.875 16.25H6.125ZM10.9375 15.8125C10.6641 15.8125 10.5 15.6484 10.5 15.375V13.625C10.5 13.4062 10.6641 13.1875 10.9375 13.1875H18.8125C19.0312 13.1875 19.25 13.4062 19.25 13.625V15.375C19.25 15.6484 19.0312 15.8125 18.8125 15.8125H10.9375ZM6.125 9.25C5.63281 9.25 5.25 8.86719 5.25 8.375V6.625C5.25 6.1875 5.63281 5.75 6.125 5.75H7.875C8.3125 5.75 8.75 6.1875 8.75 6.625V8.375C8.75 8.86719 8.3125 9.25 7.875 9.25H6.125ZM10.9375 8.8125C10.6641 8.8125 10.5 8.64844 10.5 8.375V6.625C10.5 6.40625 10.6641 6.1875 10.9375 6.1875H18.8125C19.0312 6.1875 19.25 6.40625 19.25 6.625V8.375C19.25 8.64844 19.0312 8.8125 18.8125 8.8125H10.9375ZM22.75 0.5C23.6797 0.5 24.5 1.32031 24.5 2.25V26.75C24.5 27.7344 23.6797 28.5 22.75 28.5H1.75C0.765625 28.5 0 27.7344 0 26.75V2.25C0 1.32031 0.765625 0.5 1.75 0.5H22.75ZM21.875 25.875V3.125H2.625V25.875H21.875Z" fill="#5956FE"/>
</svg>
