<svg width="37" height="24" viewBox="0 0 37 24" fill="none" xmlns="http://www.w3.org/2000/svg">
<path d="M18.6526 5C17.9651 5.0625 17.2776 5.125 16.6526 5.3125C16.9651 5.8125 17.0901 6.4375 17.1526 7C17.1526 8.9375 15.5276 10.5 13.6526 10.5C13.0276 10.5 12.4026 10.375 11.9651 10.0625C11.7776 10.6875 11.6526 11.3125 11.6526 12C11.6526 15.875 14.7776 19 18.6526 19C22.5276 19 25.6526 15.875 25.6526 12C25.6526 8.1875 22.5276 5.0625 18.6526 5.0625V5ZM36.4026 11.125C33.0276 4.5 26.2776 0 18.6526 0C10.9651 0 4.2151 4.5 0.840097 11.125C0.715097 11.375 0.652597 11.6875 0.652597 12C0.652597 12.375 0.715097 12.6875 0.840097 12.9375C4.2151 19.5625 10.9651 24 18.6526 24C26.2776 24 33.0276 19.5625 36.4026 12.9375C36.5276 12.6875 36.5901 12.375 36.5901 12.0625C36.5901 11.6875 36.5276 11.375 36.4026 11.125ZM18.6526 21C12.4651 21 6.7776 17.5625 3.7776 12C6.7776 6.4375 12.4651 3 18.6526 3C24.7776 3 30.4651 6.4375 33.4651 12C30.4651 17.5625 24.7776 21 18.6526 21Z" fill="#5956FE"/>
</svg>
