<svg width="21" height="32" viewBox="0 0 21 32" fill="none" xmlns="http://www.w3.org/2000/svg">
<path d="M14.8401 15.1875L7.5901 13.0625C6.5901 12.8125 5.8401 12 5.6526 11C5.4026 9.375 6.6526 8 8.2151 8H12.7776C13.7776 8 14.7776 8.3125 15.5901 8.9375C15.9651 9.1875 16.5276 9.125 16.8401 8.8125L18.2776 7.375C18.7151 6.9375 18.6526 6.25 18.2151 5.875C16.6526 4.6875 14.7776 4 12.7776 4H12.6526V1C12.6526 0.5 12.1526 0 11.6526 0H9.6526C9.0901 0 8.6526 0.5 8.6526 1V4H8.4651C5.4026 4 2.5276 6 1.8401 9C0.965097 12.5 3.0901 15.9375 6.4026 16.875L13.6526 19C14.6526 19.25 15.4651 20.0625 15.5901 21.0625C15.8401 22.625 14.5901 24 13.0901 24H8.4651C7.4651 24 6.4651 23.6875 5.6526 23.125C5.2776 22.875 4.7151 22.9375 4.4026 23.25L2.9651 24.6875C2.5276 25.125 2.5901 25.8125 3.0276 26.1875C4.5901 27.375 6.4651 28 8.4651 28H8.6526V31C8.6526 31.5625 9.0901 32 9.6526 32H11.6526C12.1526 32 12.6526 31.5625 12.6526 31V28H12.7776C15.8401 28 18.7151 26.0625 19.4026 23.0625C20.2776 19.5625 18.1526 16.125 14.8401 15.1875Z" fill="#5956FE"/>
</svg>
