<svg width="29" height="32" viewBox="0 0 29 32" fill="none" xmlns="http://www.w3.org/2000/svg">
<path d="M8 20H21C21.8125 20 22.5 19.375 22.5 18.5C22.5 17.6875 21.8125 17 21 17H8C7.125 17 6.5 17.6875 6.5 18.5C6.5 19.375 7.125 20 8 20ZM8 26H15C15.8125 26 16.5 25.375 16.5 24.5C16.5 23.6875 15.8125 23 15 23H8C7.125 23 6.5 23.6875 6.5 24.5C6.5 25.375 7.125 26 8 26ZM8 14H21C21.8125 14 22.5 13.375 22.5 12.5C22.5 11.6875 21.8125 11 21 11H8C7.125 11 6.5 11.6875 6.5 12.5C6.5 13.375 7.125 14 8 14ZM24.5 0H4.5C2.25 0 0.5 1.8125 0.5 4V28C0.5 30.25 2.25 32 4.5 32H24.5C26.6875 32 28.5 30.25 28.5 28V4C28.5 1.8125 26.6875 0 24.5 0ZM25.5 28C25.5 28.5625 25 29 24.5 29H4.5C3.9375 29 3.5 28.5625 3.5 28V8H25.5V28Z" fill="#5956FE"/>
</svg>
