<svg width="18" height="29" viewBox="0 0 18 29" fill="none" xmlns="http://www.w3.org/2000/svg">
<path d="M12.5391 13.7891C15.4375 14.6094 17.2969 17.6172 16.5312 20.6797C15.9297 23.3047 13.4141 25 10.7344 25H10.625V27.625C10.625 28.1172 10.1875 28.5 9.75 28.5H8C7.50781 28.5 7.125 28.1172 7.125 27.625V25H6.96094C5.21094 25 3.57031 24.4531 2.20312 23.4141C1.82031 23.0859 1.76562 22.4844 2.14844 22.1016L3.40625 20.8438C3.67969 20.5703 4.17188 20.5156 4.5 20.7344C5.21094 21.2266 6.08594 21.5 6.96094 21.5H11.0078C12.3203 21.5 13.4141 20.2969 13.1953 18.9297C13.0859 18.0547 12.375 17.3438 11.5 17.125L5.15625 15.2656C2.25781 14.4453 0.398438 11.4375 1.16406 8.375C1.76562 5.75 4.28125 4 6.96094 4H7.125V1.375C7.125 0.9375 7.50781 0.5 8 0.5H9.75C10.1875 0.5 10.625 0.9375 10.625 1.375V4H10.7344C12.4844 4 14.125 4.60156 15.4922 5.64062C15.875 5.96875 15.9297 6.57031 15.5469 6.95312L14.2891 8.21094C14.0156 8.48438 13.5234 8.53906 13.1953 8.32031C12.4844 7.77344 11.6094 7.5 10.7344 7.5H6.74219C5.375 7.5 4.28125 8.70312 4.5 10.125C4.66406 11 5.32031 11.7109 6.19531 11.9297L12.5391 13.7891Z" fill="#4B4B4B"/>
</svg>
