<svg width="178" height="177" viewBox="0 0 178 177" fill="none" xmlns="http://www.w3.org/2000/svg">
<mask id="mask0_2284_523" style="mask-type:luminance" maskUnits="userSpaceOnUse" x="0" y="0" width="178" height="177">
<path d="M89 177C137.877 177 177.5 137.377 177.5 88.5C177.5 39.6228 137.877 0 89 0C40.1228 0 0.5 39.6228 0.5 88.5C0.5 137.377 40.1228 177 89 177Z" fill="white"/>
</mask>
<g mask="url(#mask0_2284_523)">
<path d="M90.5699 268.379C189.915 268.379 270.449 187.844 270.449 88.4996C270.449 -10.8451 189.915 -91.3799 90.5699 -91.3799C-8.77479 -91.3799 -89.3096 -10.8451 -89.3096 88.4996C-89.3096 187.844 -8.77479 268.379 90.5699 268.379Z" fill="white"/>
<path d="M145.935 88.6687L145.956 89.1229C145.967 88.9961 145.956 88.8406 145.935 88.6687Z" fill="#F6A473"/>
<path d="M151.815 59.0324C151.732 58.7132 151.653 58.5905 151.603 58.5836C151.702 58.8742 151.787 59.1129 151.815 59.0324Z" fill="#F6A473"/>
<path d="M152.407 66.3696C152.407 66.2128 152.4 66.0804 152.396 65.9372C152.366 66.1064 152.357 66.2728 152.407 66.3696Z" fill="#F6A473"/>
<path d="M145.935 88.6686C145.92 88.2799 145.908 87.8911 145.9 87.5037C145.72 87.4519 145.871 88.108 145.935 88.6686Z" fill="#F6A473"/>
<path d="M153.535 105.482L153.77 105.723C153.88 105.753 153.993 105.768 154.115 105.768C153.916 105.681 153.73 105.579 153.535 105.482Z" fill="#F6A473"/>
<path d="M165.822 112.289C165.515 112.183 165.28 112.565 165.102 112.712C165.333 112.595 165.589 112.587 165.875 112.629C165.904 112.55 165.89 112.442 165.822 112.289Z" fill="#F6A473"/>
<path d="M148.599 96.7907C148.652 96.7456 148.691 96.6788 148.704 96.6147C148.652 96.6324 148.62 96.6993 148.599 96.7907Z" fill="#F6A473"/>
<path d="M9.23691 109.247C9.26692 109.23 9.26694 109.204 9.2874 109.187C9.19192 109.163 9.15098 109.169 9.23691 109.247Z" fill="#F6A473"/>
<path d="M151.741 79.5555C151.75 79.5309 151.751 79.5227 151.758 79.4995C151.755 79.1517 151.737 79.3468 151.741 79.5555Z" fill="#F6A473"/>
<path d="M70.4671 71.7957C70.4126 72.5023 70.1766 71.9894 69.9501 71.5515C69.7333 71.115 69.5205 70.7536 69.5068 71.823C69.5723 71.7111 69.8356 72.1422 70.0743 72.3754C70.1957 72.4927 70.3075 72.5609 70.3812 72.4941C70.4548 72.4272 70.4889 72.224 70.4671 71.7957Z" fill="#F6A473"/>
<path d="M69.5066 71.823H69.5039L69.508 72.044C69.508 71.9526 69.508 71.9008 69.508 71.823H69.5066Z" fill="#F6A473"/>
<path d="M138.147 105.553C138.243 105.573 138.371 105.542 138.502 105.504C138.465 105.475 138.377 105.478 138.147 105.553Z" fill="#F6A473"/>
<path d="M150.921 87.2955L150.685 87.8111C150.794 87.6119 150.865 87.4442 150.921 87.2955Z" fill="#F6A473"/>
<path d="M128.37 111.886C128.07 111.957 127.953 111.935 127.581 112.13C127.624 112.139 127.667 112.14 127.718 112.139C127.84 112.031 128.018 111.937 128.37 111.886Z" fill="#F6A473"/>
<path d="M116.399 114.232C116.465 114.264 116.551 114.284 116.627 114.31C116.748 114.298 116.89 114.283 117.014 114.269L116.398 114.232H116.399Z" fill="#F6A473"/>
<path d="M40.8568 102.86C40.6754 103.118 40.4899 103.261 40.3262 103.366C40.6795 103.238 40.3152 105.178 40.8568 102.86Z" fill="#F6A473"/>
<path d="M129.092 115.328L128.077 115.656C127.736 115.759 127.391 115.846 127.049 115.942C127.339 115.875 127.674 115.792 128.024 115.693C128.371 115.581 128.733 115.457 129.092 115.329V115.328Z" fill="#F6A473"/>
<path d="M64.5686 119.756C64.4376 119.879 64.2944 119.989 64.1553 120.105C64.334 119.997 64.4895 119.882 64.5686 119.756Z" fill="#F6A473"/>
<path d="M120.883 117.362C120.684 117.311 120.483 117.287 120.277 117.255C120.072 117.225 119.865 117.208 119.655 117.199C119.572 117.242 119.474 117.279 119.42 117.337C119.906 117.349 120.396 117.382 120.883 117.362Z" fill="#F6A473"/>
<path d="M40.3203 103.369L40.3258 103.366C40.3258 103.366 40.323 103.366 40.3203 103.369Z" fill="#F6A473"/>
<path d="M33.8156 116.29C34.0502 116.118 34.2425 115.978 34.3776 115.844C34.5112 115.711 34.6054 115.6 34.6695 115.507C34.7963 115.322 34.8004 115.21 34.7554 115.127C34.664 114.962 34.3803 114.904 34.4444 114.629C34.5631 114.518 34.6599 114.409 34.7486 114.314C34.8386 114.218 34.9205 114.134 34.9941 114.06C35.1428 113.913 35.2642 113.806 35.3638 113.731C35.5506 113.573 35.6639 113.546 35.7539 113.569C35.9339 113.613 36.0144 113.86 36.4236 113.614C36.4836 113.529 36.5423 113.445 36.5982 113.36C36.6528 113.276 36.6992 113.187 36.7469 113.101C36.841 112.929 36.9283 112.759 37.0088 112.592C37.1793 112.262 37.2898 111.927 37.4098 111.616C37.4685 111.46 37.5271 111.309 37.5844 111.159C37.6349 111.007 37.6867 110.86 37.7399 110.718C37.7945 110.576 37.8518 110.437 37.9145 110.305C37.9772 110.171 38.0468 110.043 38.1109 109.915C38.2337 109.883 38.3688 109.698 38.3537 109.99C38.4356 109.567 38.6306 109.092 38.8189 108.566C38.9157 108.304 39.0344 108.035 39.1367 107.756C39.2404 107.476 39.3467 107.189 39.4531 106.902C39.8542 105.744 40.1897 104.53 40.1215 103.568C40.2047 103.448 40.2688 103.393 40.3207 103.37C39.9647 103.59 39.6687 103.557 39.4791 103.448C39.5309 103.234 39.5582 103.024 39.5786 102.825C39.5991 102.625 39.6005 102.434 39.6155 102.265C39.6441 101.926 39.7055 101.665 39.9251 101.541C39.8023 102.065 39.9428 102.14 40.0056 102.413L40.0369 101.476C40.3752 101.118 40.3766 101.437 40.3125 101.856C40.2538 102.275 40.1556 102.793 40.352 102.838C40.4025 102.381 40.4462 101.905 40.4748 101.426C40.4925 100.949 40.5103 100.469 40.528 100.001C40.5348 99.5359 40.5539 99.0871 40.5853 98.6697C40.6085 98.2523 40.6521 97.8676 40.7272 97.5294C41.0081 97.4121 40.9659 98.2196 40.9318 98.8361C40.8827 99.4499 40.8513 99.8755 41.2182 98.9848L40.9645 100.039C40.8799 100.39 40.7749 100.738 40.6821 101.087C41.8006 99.5986 40.3943 102.381 41.5469 101.032C41.7188 100.326 41.7911 99.7677 41.8457 99.2876C41.9043 98.8074 41.903 98.4037 41.9166 98.0013C41.922 97.8008 41.9289 97.5989 41.9343 97.3889C41.9371 97.1788 41.9425 96.9592 41.9534 96.7205C41.9643 96.4818 41.9821 96.224 42.008 95.9375C42.0271 95.6511 42.053 95.336 42.0912 94.9813C41.8279 94.3293 41.6424 95.1696 41.3792 94.523C41.2755 93.5218 41.3137 92.8316 41.3969 92.3065C41.4828 91.7813 41.6506 91.4198 41.7979 91.0884C42.0885 90.4309 42.3831 89.8839 41.9411 88.4299C41.7461 88.0589 41.4665 87.8133 41.2659 87.4C41.165 87.1927 41.0845 86.9444 41.0395 86.6157C40.9959 86.287 40.9741 85.8819 41.0123 85.3567L41.6847 86.0033C41.6301 85.3226 41.5428 84.8902 41.4337 84.5833C41.3232 84.2764 41.2018 84.0909 41.09 83.9013C40.9795 83.7117 40.8786 83.518 40.8076 83.192C40.7354 82.866 40.6835 82.4117 40.6808 81.6943C40.8349 81.9248 40.9618 82.4458 41.0531 82.8564C41.1418 83.267 41.1827 83.5698 41.195 83.3611C41.311 82.4145 41.1677 82.1021 40.9877 81.8539C40.8022 81.6056 40.5771 81.4255 40.4489 80.7081C40.6071 80.5771 40.764 80.4448 40.9181 80.3111C40.8376 79.9415 40.7394 79.5664 40.6317 79.1872C40.5771 78.9976 40.5171 78.8066 40.4543 78.6143C40.4243 78.5188 40.3889 78.4219 40.3561 78.3251C40.318 78.2201 40.2811 78.115 40.2429 78.0086L40.1815 77.8409L40.097 77.6226C40.041 77.4767 39.9838 77.3307 39.9197 77.1888C39.8583 77.0456 39.7969 76.9038 39.7273 76.7674L39.6264 76.5614L39.5186 76.3623C39.2294 75.833 38.898 75.3542 38.5202 74.971C38.145 74.5836 37.729 74.2835 37.2625 74.083C37.0279 73.9834 36.7783 73.9138 36.5164 73.8811C36.2545 73.851 35.9831 73.8647 35.7239 73.9206C35.2042 74.0393 34.754 74.3094 34.3666 74.6572C33.9779 75.0064 33.6437 75.4402 33.3559 75.9285C33.3655 75.758 33.4596 75.4729 33.4691 75.3269C33.4732 75.2533 33.4527 75.211 33.3818 75.2342C33.3109 75.2574 33.1908 75.3474 33.004 75.5588C32.5989 76.249 32.2906 77.0538 32.0491 77.8736C31.9482 78.2269 31.8855 78.4806 31.82 78.7657C31.7559 79.0453 31.6959 79.325 31.6427 79.6046C31.4271 80.7231 31.2826 81.8443 31.1871 82.9601C30.9975 85.1903 31.0016 87.4 31.1503 89.4256C31.3794 89.9126 31.6181 90.3914 31.8664 90.8606C31.9278 91.2084 31.7927 91.5494 31.6277 91.188C31.7804 92.7566 31.9291 91.2084 32.2633 91.9013C32.4897 92.7498 32.2783 93.0976 32.0069 92.5847C32.262 93.2326 32.573 94.0115 32.9194 94.849C33.2672 95.6866 33.6519 96.5841 34.0447 97.4789C34.825 99.2712 35.6489 101.042 36.0963 102.424L35.7184 101.99C36.144 103.031 36.6651 103.468 37.1438 103.891C37.6267 104.314 38.0659 104.722 38.4342 105.7L38.1559 105.411C39.344 107.5 40.9058 109.515 42.4377 111.318C43.2029 112.223 43.9518 113.098 44.6638 113.925C45.013 114.344 45.3649 114.742 45.6841 115.143C45.8478 115.341 46.0087 115.535 46.1615 115.73C46.3143 115.926 46.4629 116.118 46.6075 116.304C47.0945 116.297 47.9375 117.155 48.8459 117.903C49.7475 118.653 50.7242 119.273 51.0993 118.96C51.6394 119.428 52.0227 119.744 52.3351 119.999C52.4129 120.063 52.4851 120.125 52.5561 120.183C52.6284 120.239 52.6979 120.292 52.7648 120.344C52.8998 120.449 53.0308 120.549 53.1712 120.651C53.4618 120.843 53.7851 121.059 54.3089 121.303C54.8327 121.545 55.5406 121.851 56.6605 122.085C57.2647 122.182 57.738 122.068 58.2236 121.903C58.3437 121.862 58.4664 121.82 58.5933 121.776C58.7188 121.733 58.8497 121.681 58.9862 121.636C59.2603 121.55 59.559 121.448 59.9123 121.37L60.0324 121.841C60.6816 121.557 61.2791 121.199 61.8233 120.809C62.2175 120.867 62.6158 120.894 63.0264 120.908C63.422 120.657 63.8026 120.392 64.1572 120.104C63.928 120.247 63.6429 120.343 63.4315 120.392C63.216 120.437 63.0592 120.422 63.0632 120.343C63.9389 119.762 64.9688 119.084 65.7913 118.515C66.6125 117.95 67.2399 117.518 67.3545 117.583C68.3134 116.289 69.0746 114.933 69.7279 113.562C69.8466 113.748 69.511 114.439 69.2723 115.02C69.7361 113.85 69.8793 113.82 70.0416 113.813C70.1944 113.808 70.3622 113.824 70.7046 112.734C70.4659 112.944 70.5286 112.455 70.4645 112.365C70.8532 111.949 71.332 111.177 71.7658 110.287C72.2023 109.398 72.591 108.391 72.8679 107.521L73.0493 107.971C73.3767 107.21 73.6768 106.417 73.9564 105.604C74.0969 105.198 74.2306 104.786 74.3629 104.37C74.5075 103.913 74.633 103.455 74.7435 103.005C75.184 101.2 75.4719 99.4008 75.787 97.5962C75.4064 98.8647 74.8908 98.4583 75.019 97.4025L75.5946 97.067C75.3941 96.3372 75.2223 98.1323 75.0708 96.6782C75.3409 95.3524 75.7883 95.8666 75.832 96.6659C75.862 96.1121 75.8865 95.5583 75.907 95.0059C76.072 94.9322 76.0952 95.3264 76.2739 95.456C76.1675 95.0973 76.3967 94.4098 76.5958 93.6801C76.795 92.9503 76.9628 92.1755 76.7473 91.6585L76.9096 91.5849C77.1278 89.783 77.2178 88.4681 77.2888 87.2377C77.3583 86.0074 77.4061 84.8602 77.5043 83.3898C77.0678 83.2997 77.2506 82.1594 76.9478 81.2619C77.2247 79.119 77.6871 76.736 77.7062 74.1211C77.5193 72.2824 77.342 73.5783 77.0924 72.7517C77.5029 72.6234 77.4675 70.0113 77.7553 71.3658C77.7225 69.7944 77.683 68.7878 77.5957 67.6774C77.5016 66.5671 77.3774 65.3531 77.0364 63.363C76.9137 63.8131 76.8782 64.3042 76.7227 64.0641C76.6013 63.3493 76.7336 62.4027 76.9355 62.4832L76.9982 62.6714C76.7254 61.5584 76.5631 60.3512 76.353 59.0704C76.2453 58.4293 76.1266 57.7691 75.9384 57.0761C75.8442 56.7297 75.731 56.375 75.5769 56.004C75.42 55.6344 75.225 55.2456 74.9167 54.8405C74.7544 54.6373 74.5757 54.4313 74.3288 54.2349C74.086 54.0398 73.7982 53.853 73.4517 53.7234C73.1094 53.5924 72.7302 53.5201 72.3673 53.5133C72.0086 53.5106 71.6703 53.5638 71.377 53.6442C71.0879 53.7261 70.8273 53.8311 70.6064 53.9443L70.44 54.0303L70.3049 54.1094C70.2176 54.1626 70.1303 54.2158 70.043 54.2676C69.8698 54.374 69.7157 54.4967 69.5561 54.6141C69.4006 54.7341 69.2614 54.8637 69.1182 54.9905C68.5671 55.5102 68.1565 56.0804 67.8564 56.6383C67.5577 57.1975 67.3613 57.7486 67.2672 58.2656L67.3177 58.0351C67.0967 58.7253 66.9521 59.4087 66.8539 60.0825C66.757 60.7563 66.697 61.422 66.6807 62.0795C66.532 62.9661 66.4938 62.6933 66.4338 62.3523C66.4024 62.1818 66.3778 61.9935 66.3287 61.9308C66.281 61.8666 66.2046 61.928 66.0996 62.2595C66.131 63.3262 66.1596 64.2796 66.1855 65.1662C66.206 66.0351 66.2223 66.8317 66.2537 67.6024C66.2823 68.3745 66.3328 69.1206 66.4392 69.8776C66.5415 70.636 66.7161 71.3999 66.9862 72.2033C66.8239 72.8976 66.8798 73.8197 67.0871 74.8495C67.2958 75.8794 67.6587 77.0129 68.0829 78.1478C68.5057 79.284 68.9927 80.4216 69.4265 81.4883C69.8575 82.5563 70.2476 83.5493 70.4508 84.4223L70.6159 84.1195C71.2543 84.8111 70.9446 85.1712 71.1915 85.7946C71.3416 85.6104 70.9733 84.8097 71.362 85.2394C73.2171 88.5635 75.1936 91.9341 77.4224 95.1941C78.5369 96.8228 79.7099 98.4228 80.9485 99.9655C82.1884 101.508 83.4951 102.991 84.8646 104.389C86.908 106.405 86.9952 104.44 89.2936 107.277C89.1027 107.241 88.9185 107.196 88.7344 107.151L88.1778 107.015C90.6031 108.644 93.0011 110.383 95.56 111.891C98.1067 113.404 100.836 114.656 103.636 115.303C103.278 115.303 103.218 115.447 102.688 115.259C102.944 115.449 103.338 115.64 103.787 115.811C104.242 115.964 104.755 116.091 105.236 116.189C105.477 116.238 105.71 116.279 105.923 116.311C106.138 116.339 106.337 116.345 106.506 116.35C106.845 116.356 107.066 116.324 107.087 116.251C107.95 116.485 107.227 116.569 107.734 116.845C107.879 116.904 108.033 116.963 108.201 116.991C108.367 117.023 108.542 117.046 108.72 117.062C109.078 117.095 109.447 117.103 109.799 117.113C109.975 117.116 110.144 117.126 110.307 117.126C110.469 117.126 110.623 117.131 110.765 117.143C111.047 117.166 111.279 117.221 111.431 117.332C111.534 117.406 111.075 117.414 110.847 117.417C111.051 117.395 111.384 117.414 111.758 117.447C111.945 117.465 112.141 117.482 112.338 117.5C112.534 117.508 112.73 117.518 112.915 117.525C113.651 117.551 114.19 117.532 113.819 117.291C114.354 117.388 114.883 117.395 115.399 117.397C115.914 117.392 116.416 117.388 116.903 117.335C117.39 117.293 117.863 117.252 118.322 117.231C118.78 117.199 119.223 117.171 119.658 117.196C119.792 117.122 119.949 117.064 120.122 117.019C120.21 116.995 120.3 116.976 120.394 116.959C120.488 116.937 120.585 116.918 120.683 116.9C121.08 116.829 121.514 116.788 121.924 116.743C122.336 116.706 122.717 116.629 123.011 116.534C123.306 116.438 123.51 116.311 123.561 116.125C123.561 116.307 123.797 116.386 124.176 116.393C124.551 116.387 125.065 116.294 125.618 116.161C125.756 116.127 125.896 116.091 126.038 116.053C126.179 116.015 126.318 115.963 126.458 115.915C126.736 115.818 127.012 115.715 127.271 115.61C127.53 115.503 127.776 115.404 127.989 115.292C128.201 115.18 128.386 115.072 128.531 114.975C128.173 115.331 129.721 114.786 129.321 115.245C129.504 115.177 129.688 115.113 129.86 115.038C130.032 114.962 130.2 114.885 130.358 114.809C130.674 114.658 130.957 114.51 131.18 114.375C131.292 114.307 131.391 114.244 131.47 114.18C131.547 114.116 131.609 114.055 131.651 114.001C131.734 113.892 131.737 113.806 131.637 113.752C132.369 113.64 133.059 113.412 133.67 113.068C133.978 112.903 134.274 112.725 134.559 112.542C134.843 112.356 135.106 112.152 135.367 111.962C135.626 111.771 135.875 111.587 136.121 111.418C136.36 111.239 136.594 111.077 136.828 110.941C137.061 110.804 137.293 110.694 137.53 110.617C137.767 110.544 137.997 110.486 138.242 110.485C140.041 109.005 141.649 107.451 143.084 105.83C143.262 105.625 143.438 105.42 143.614 105.217L143.877 104.913C143.963 104.811 144.045 104.703 144.128 104.599C144.294 104.39 144.459 104.182 144.624 103.973L144.871 103.662C144.952 103.558 145.027 103.452 145.103 103.348C145.724 102.516 146.317 101.679 146.882 100.832C147.131 101.102 146.469 102.024 145.803 102.889C145.635 103.104 145.469 103.317 145.319 103.517C145.244 103.618 145.173 103.717 145.109 103.809C145.039 103.902 144.976 103.991 144.92 104.074C144.701 104.407 144.611 104.658 144.78 104.748C145.084 104.348 145.373 103.969 145.611 103.595C145.855 103.222 146.092 102.87 146.305 102.515C146.515 102.16 146.718 101.817 146.917 101.478C147.114 101.139 147.294 100.798 147.483 100.465C148.223 99.1171 148.962 97.7981 149.97 96.164C150.248 95.7507 150.248 95.9102 150.173 96.2212C150.09 96.5281 149.924 96.9824 149.891 97.1597C150.746 95.4001 151.596 93.7237 152.315 92.0405C152.488 91.6176 152.667 91.2002 152.826 90.7787C152.982 90.3559 153.132 89.9344 153.275 89.5129C153.405 89.0873 153.527 88.6631 153.641 88.2403C153.75 87.816 153.833 87.3864 153.913 86.9608C153.973 86.9881 153.937 87.3659 153.886 87.7192C153.973 87.3891 154.113 87.0167 154.189 86.7248C154.257 86.4302 154.263 86.2174 154.098 86.2133C154.068 86.4343 154.043 86.6566 154.005 86.8749C153.622 87.3277 153.596 86.6157 153.587 85.7714C153.587 85.5613 153.592 85.3431 153.596 85.1317C153.6 84.9216 153.594 84.717 153.59 84.5369C153.582 84.1782 153.563 83.9149 153.508 83.8726C153.669 84.1973 153.811 84.1618 153.945 83.9531C154.083 83.7458 154.197 83.3625 154.313 82.9996C154.55 82.2781 154.789 81.6261 155.193 82.6314C155.209 82.4063 155.198 82.1471 155.157 81.9548C155.117 81.7611 155.044 81.6342 154.93 81.6656C155.1 81.0272 155.26 80.8349 155.391 81.5401C155.418 81.236 155.44 80.9823 155.444 80.7667C155.447 80.5512 155.444 80.3739 155.436 80.2238C155.419 79.9237 155.387 79.7287 155.358 79.5432C155.303 79.1708 155.247 78.8312 155.368 77.7454C155.526 77.7672 155.537 78.2119 155.695 78.4574C155.61 77.8872 155.497 77.3198 155.449 76.6692C155.429 76.3432 155.41 75.9967 155.414 75.6161C155.414 75.2356 155.451 74.8222 155.489 74.3639C155.58 74.4771 155.709 74.2671 155.691 74.8182C155.696 74.4212 155.685 74.0393 155.669 73.6683C155.655 73.2973 155.621 72.9358 155.582 72.5825C155.542 72.2292 155.503 71.8814 155.453 71.5377C155.402 71.1939 155.348 70.8529 155.297 70.5092C155.245 70.1668 155.193 69.8217 155.14 69.4712C155.087 69.1206 155.046 68.7632 155.003 68.3963C154.911 67.6611 154.863 66.8822 154.836 66.0201C155.617 66.96 154.936 64.8293 155.481 64.5756L155.273 63.6603L155.047 62.7519L154.879 63.5321C154.759 62.7274 154.548 61.9853 154.332 61.2774C154.227 60.9227 154.134 60.5735 154.053 60.2284C153.971 59.882 153.912 59.5382 153.892 59.1863L154.364 60.3226L154.013 58.8412C153.892 58.3488 153.761 57.8591 153.635 57.3681C153.683 57.9451 153.743 58.5166 153.78 59.0936C153.147 57.5577 153.095 59.4155 152.798 57.2917C152.873 57.4976 152.795 57.1048 152.686 56.5428C152.656 56.3955 152.624 56.2387 152.593 56.0777C152.555 55.9004 152.517 55.7203 152.48 55.5443C152.405 55.1856 152.327 54.8323 152.279 54.5363C152.279 54.5363 152.282 54.5418 152.283 54.5404C152.002 54.1749 151.717 53.8611 151.376 53.5392C151.203 53.381 151.018 53.2118 150.78 53.07C150.547 52.9268 150.252 52.8081 149.925 52.8067C149.759 52.7344 149.821 52.5612 149.917 52.3962C150.011 52.2352 150.136 52.0879 150.01 52.0278C149.749 52.152 149.336 52.3034 148.928 52.6048C148.517 52.8981 148.097 53.325 147.732 53.8366C147.55 54.0944 147.382 54.3686 147.234 54.6455C147.089 54.9251 146.958 55.2033 146.859 55.4679C146.834 55.5334 146.811 55.5975 146.786 55.6603C146.771 55.7121 146.755 55.7639 146.74 55.8144C146.711 55.9154 146.688 56.0122 146.67 56.105C146.634 56.2905 146.623 56.4582 146.634 56.6001C146.65 56.2414 146.374 56.1009 146.274 56.1814C146.306 56.446 146.346 56.7051 146.389 56.963C146.002 57.6313 145.915 57.7213 145.722 57.5222C145.515 58.0637 145.482 58.3079 145.514 58.4033C145.548 58.5002 145.653 58.4511 145.746 58.4143C145.84 58.3761 145.92 58.3502 145.909 58.4866C145.898 58.6243 145.792 58.9231 145.531 59.5478C145.559 59.3364 145.47 59.4169 145.538 58.9749C145.07 60.2557 144.832 61.5475 144.637 62.8078C144.443 64.0696 144.298 65.3027 144.034 66.5126C143.693 66.8345 143.727 66.2943 143.78 65.7664C143.833 65.2399 143.904 64.727 143.592 65.1035C143.364 66.8904 143.33 68.7578 143.337 70.5951C143.344 72.4352 143.391 74.2466 143.315 75.9667L143.386 75.3256C143.799 75.5697 143.69 76.2027 143.539 77.002C143.387 77.7986 143.199 78.7657 143.435 79.6278C143.356 79.2049 142.949 79.0862 143.048 79.1981C143.027 80.3848 143.151 81.5947 143.374 82.9424C143.596 84.29 143.918 85.7768 144.328 87.5201L144.049 87.1149C144.058 87.8188 144.184 88.73 144.347 89.6507C144.51 90.5714 144.71 91.499 144.84 92.2451C145.151 92.6325 145.332 93.4741 145.504 92.8903C145.495 94.0865 145.705 95.2173 146.038 96.2867C146.372 97.3547 146.826 98.3614 147.314 99.3285C147.556 99.8127 147.808 100.285 148.074 100.762L148.268 101.118C148.33 101.237 148.392 101.357 148.464 101.47C148.601 101.701 148.734 101.932 148.862 102.166C148.985 102.402 149.127 102.627 149.255 102.859C149.388 103.089 149.505 103.327 149.63 103.561C149.76 103.793 149.883 104.029 149.999 104.27C150.115 104.516 150.229 104.76 150.344 105.004C150.266 104.905 150.171 104.801 150.076 104.708C149.981 104.616 149.896 104.524 149.823 104.461C149.677 104.332 149.596 104.296 149.711 104.464C149.892 104.71 150.096 104.937 150.295 105.167C150.497 105.394 150.686 105.632 150.903 105.846L151.536 106.498L152.2 107.114C152.23 106.884 152.188 106.762 152.098 106.604C152.009 106.446 151.866 106.259 151.731 105.881C151.846 105.929 151.975 106.008 152.125 106.1C152.277 106.19 152.44 106.3 152.607 106.423C152.776 106.544 152.94 106.687 153.115 106.823C153.29 106.959 153.461 107.102 153.617 107.249C152.964 106.806 152.86 106.908 152.975 107.207C153.032 107.356 153.143 107.554 153.264 107.754C153.326 107.854 153.387 107.956 153.448 108.049C153.511 108.14 153.571 108.228 153.622 108.301C153.605 108.142 153.867 108.202 153.896 108.077C154.147 108.496 154.316 108.693 154.46 108.761C154.604 108.83 154.713 108.789 154.84 108.755C154.968 108.721 155.115 108.694 155.338 108.791C155.451 108.837 155.576 108.922 155.737 109.039C155.898 109.156 156.088 109.319 156.313 109.54L156.097 109.623C156.507 109.856 156.943 110.008 157.363 110.194C157.572 110.29 157.79 110.373 158.003 110.474C158.217 110.575 158.428 110.69 158.64 110.823C158.805 111.398 157.682 110.508 157.45 110.773C157.766 110.943 158.1 111.074 158.438 111.185C158.782 111.284 159.128 111.366 159.462 111.458C160.139 111.624 160.765 111.826 161.274 112.26C160.975 112.195 160.625 112.085 160.282 111.951C159.94 111.819 159.589 111.702 159.297 111.61C159.552 111.884 159.771 112.066 159.952 112.22C160.136 112.37 160.29 112.481 160.442 112.572C160.747 112.745 161.031 112.853 161.502 113.094L161.41 113.044C161.772 113.232 162.139 113.407 162.504 113.59C162.871 113.767 163.245 113.929 163.616 114.1L163.073 113.77C163.331 113.715 163.578 113.688 163.816 113.685C164.055 113.682 164.291 113.69 164.522 113.722C164.753 113.752 164.981 113.8 165.21 113.855C165.441 113.907 165.673 113.969 165.907 114.034C166.845 114.299 167.866 114.592 169.098 114.488C167.903 114.576 167.782 114.641 167.934 114.753C168.086 114.862 168.505 115.007 168.367 115.218C168.936 115.484 169.828 115.805 169.54 115.887C170.136 115.813 170.59 115.96 171.107 116.11C171.366 116.18 171.642 116.243 171.957 116.271C172.272 116.303 172.627 116.289 173.043 116.203C173.067 116.283 173.369 116.329 173.625 116.395C173.882 116.461 174.096 116.545 173.944 116.723C175.43 116.773 173.628 116.417 173.777 116.241C174.935 116.118 176.235 116.412 177.679 116.649C179.119 116.886 180.706 117.061 182.336 116.727C183.738 116.596 184.563 116.384 185.36 116.174C186.155 115.96 186.922 115.753 188.2 115.567C188.639 115.671 188.469 115.818 188.186 115.94C187.904 116.061 187.511 116.155 187.511 116.155C188.926 116.327 189.985 116.223 191.295 115.956C191.037 116.109 191.319 116.202 191.737 116.344C192.267 116.286 192.434 116.128 192.644 116.005C192.855 115.881 193.109 115.788 193.818 115.836C193.595 116.027 193.311 116.331 192.812 116.543C194.056 116.296 195.263 115.889 196.537 115.604C196.911 115.832 195.803 116.097 195.364 116.316C196.81 116.049 199.105 115.629 199.49 115.142L198.543 115.117C199.067 115.029 198.863 115.442 198.483 115.569C197.282 116.058 196.672 115.644 196.586 115.499L197.492 115.292C196.966 114.906 196.057 115.048 195.038 115.297C194.02 115.546 192.891 115.893 191.962 115.94L192.679 115.225C192.064 115.46 191.446 115.685 190.824 115.91C190.408 115.765 190.111 115.42 191.015 115.262C189.674 115.027 189.859 115.57 188.702 115.271C188.574 115.222 188.63 115.188 188.744 115.155L187.461 115.406C187.709 115.259 187.229 114.955 188.024 115.015C186.86 114.879 185.936 115.019 185.184 115.14C184.434 115.256 183.858 115.356 183.424 115.104L183.618 115.064C182.816 115.116 182.395 115.169 182.176 115.228C181.958 115.288 181.943 115.359 181.953 115.439C181.972 115.599 182.094 115.817 180.871 116.061L180.077 115.442L179.295 114.812L178.956 115.275C178.626 115.239 177.974 115.161 178.107 114.977C176.854 115.224 178.304 115.2 177.566 115.461C177.174 115.319 176.704 115.243 176.213 115.185C175.723 115.121 175.21 115.095 174.74 115.042C173.797 114.949 173.015 114.802 172.893 114.403C172.272 114.686 174.367 114.887 172.64 114.909C172.459 114.464 171.971 114.426 171.35 114.417C171.04 114.408 170.698 114.408 170.347 114.37C169.997 114.332 169.639 114.243 169.301 114.081C169.825 113.756 171.121 114.24 169.777 113.587C169.529 113.718 169.232 113.744 168.911 113.695C168.59 113.643 168.244 113.525 167.893 113.389C167.544 113.244 167.191 113.077 166.851 112.938C166.512 112.794 166.187 112.667 165.886 112.62C165.832 112.751 165.641 112.793 165.356 112.757C165.073 112.722 164.689 112.624 164.256 112.487C164.04 112.414 163.811 112.335 163.572 112.253C163.454 112.212 163.331 112.17 163.208 112.126C163.087 112.079 162.962 112.033 162.838 111.985C162.59 111.893 162.338 111.8 162.085 111.714C161.837 111.62 161.588 111.531 161.343 111.453C161.44 111.391 160.584 110.95 159.552 110.327C158.517 109.71 157.318 108.894 156.631 108.266L156.73 108.218C156.576 108.285 156.359 108.266 156.112 108.174C155.868 108.08 155.586 107.922 155.287 107.732C154.992 107.536 154.691 107.295 154.383 107.06C154.084 106.816 153.795 106.559 153.514 106.342C153.796 106.132 154.074 106.207 154.724 106.596C154.563 106.453 154.407 106.304 154.249 106.158C154.094 106.01 153.927 105.872 153.781 105.714C153.611 105.67 153.436 105.592 153.225 105.453C153.121 105.382 153.001 105.303 152.878 105.195C152.757 105.088 152.622 104.959 152.469 104.811C152.65 104.8 152.829 104.787 153.006 104.772C152.865 104.613 152.717 104.459 152.564 104.306C152.409 104.156 152.27 103.989 152.116 103.833C151.966 103.672 151.805 103.516 151.655 103.347C151.507 103.175 151.359 103.001 151.209 102.823C151.134 102.733 151.057 102.643 150.984 102.55C150.915 102.454 150.846 102.355 150.776 102.257C150.638 102.058 150.502 101.852 150.368 101.638C150.247 101.417 150.131 101.185 150.019 100.945C149.965 100.825 149.907 100.703 149.858 100.577C149.813 100.448 149.77 100.316 149.727 100.182C149.521 100.208 149.445 100.738 149.293 101.006C149.216 101.14 149.108 101.211 148.932 101.115C148.759 101.019 148.534 100.748 148.21 100.204C148.37 100.032 148.677 99.8087 149.023 100.349C148.967 100.26 148.849 100.11 148.732 99.9273C148.616 99.7459 148.513 99.525 148.474 99.3122L148.831 99.6941C148.95 99.821 149.077 99.9396 149.198 100.06C149.053 99.5618 148.939 99.4581 148.808 99.3926C148.68 99.3258 148.546 99.289 148.405 98.8907C148.697 98.7911 148.384 98.2305 148.658 98.2537C148.76 98.4419 148.805 98.9807 149.041 99.2289C148.729 98.3382 148.511 97.2061 148.611 96.7764C148.474 96.9114 148.215 96.9169 147.954 96.2758C147.662 95.4328 147.711 95.2569 147.803 95.1655C147.897 95.0741 148.036 95.0645 147.964 94.5476C147.629 94.1997 147.542 93.0499 147.091 93.1399C146.958 92.6338 147.146 92.4865 147.219 92.2614C147.006 91.8413 146.744 90.7992 146.527 89.9944C146.309 89.191 146.121 88.6263 145.973 89.1856L145.987 89.4256C145.969 89.3834 145.958 89.3329 145.938 89.281C145.422 87.8283 145.242 86.242 145.155 84.661C145.066 83.0774 145.069 81.5006 144.894 79.9974L145.05 79.9947C144.916 79.0999 144.856 78.0973 144.8 77.1575C144.743 76.2177 144.687 75.342 144.534 74.6913C144.545 74.1539 144.855 73.4378 145.031 73.6724C144.997 72.9822 144.945 72.5962 144.944 72.1351C144.944 71.6741 144.995 71.138 145.205 70.1573C145.368 71.5568 145.476 69.7017 145.298 71.584C145.424 70.6988 145.566 70.1627 145.642 69.6062C145.721 69.0497 145.733 68.4727 145.639 67.4974C145.797 67.8452 145.961 67.526 146.088 67.02C146.215 66.5126 146.314 65.8155 146.323 65.3913C146.163 65.7841 146.01 66.1797 145.857 66.578C145.932 65.6287 146.1 64.8116 146.286 63.9905L146.72 64.5293C147.346 62.8174 147.438 61.2065 147.651 59.7087C147.758 58.9626 147.895 58.2479 148.142 57.5999C148.266 57.2767 148.418 56.9725 148.605 56.6956L148.677 56.5933L148.714 56.5442L148.74 56.521C148.775 56.491 148.811 56.4623 148.847 56.4405C148.921 56.3955 149 56.3655 149.083 56.3559C149.06 56.2072 149.022 56.15 148.958 56.165C148.894 56.1786 148.809 56.2618 148.721 56.3587C148.697 56.3832 148.676 56.4091 148.654 56.4337C148.643 56.446 148.631 56.4582 148.62 56.4705C148.609 56.4814 148.598 56.4924 148.58 56.5196C148.517 56.6083 148.456 56.6819 148.404 56.731C148.3 56.8292 148.224 56.8211 148.209 56.5878L148.28 56.4542C148.303 56.4119 148.332 56.3587 148.348 56.3368C148.386 56.2796 148.426 56.2223 148.467 56.1718C148.549 56.0681 148.637 55.9781 148.726 55.9045C148.903 55.7558 149.085 55.6794 149.239 55.6603C149.554 55.618 149.742 55.8308 149.823 55.8226C149.915 55.8622 149.985 55.9113 150.044 55.944C150.101 55.9781 150.15 55.9958 150.201 56.0027C150.3 56.0163 150.409 55.9876 150.535 55.9904C150.658 55.9931 150.795 56.0286 150.918 56.165C150.979 56.2332 151.037 56.3259 151.084 56.4446C151.095 56.4746 151.108 56.506 151.117 56.5387C151.123 56.5551 151.127 56.5715 151.132 56.5892C151.138 56.6124 151.144 56.6369 151.15 56.6615C151.162 56.7133 151.174 56.7665 151.187 56.8211C151.198 56.8716 151.211 56.9507 151.224 57.0189C151.277 56.8484 151.406 56.6847 151.597 56.7324C151.787 56.7924 152.054 57.1021 152.328 57.9764C152.403 58.3952 152.42 58.7417 152.398 59.0104C152.372 59.2791 152.307 59.47 152.223 59.5764C152.056 59.7879 151.811 59.6637 151.634 59.1604C151.532 58.7703 151.548 58.5684 151.614 58.5711C151.431 58.0542 151.2 57.379 151.146 58.0719L151.375 58.2438C151.374 58.4579 151.404 58.758 151.445 59.0813C151.484 59.4045 151.524 59.7524 151.556 60.0579C151.621 60.669 151.633 61.1123 151.432 60.8764C151.63 61.4793 151.728 61.5993 151.769 61.4506C151.809 61.3019 151.799 60.8818 151.751 60.4139C151.795 60.9527 151.833 61.4302 151.899 61.8748C151.929 62.0972 151.966 62.3113 151.998 62.5228C152.031 62.7342 152.065 62.9415 152.098 63.1502C152.24 63.9823 152.372 64.8252 152.41 65.9274C152.479 65.5686 152.65 65.2208 152.694 65.5686C152.721 66.3802 152.769 66.8713 152.824 67.1878C152.873 67.5042 152.94 67.6447 153.012 67.7511C153.084 67.8588 153.165 67.9325 153.242 68.1167C153.32 68.3008 153.402 68.5954 153.45 69.1465C153.343 69.7808 153.167 69.6757 153.064 69.6907C153.012 69.6976 152.978 69.7344 152.98 69.9049C152.986 70.0754 153.016 70.3823 153.092 70.9307C152.942 72.2797 152.607 71.2239 152.438 70.7042C152.656 71.6904 152.6 72.6261 152.48 73.4432C152.414 73.8524 152.337 74.233 152.27 74.5808C152.196 74.9287 152.128 75.2424 152.099 75.522C152.064 75.1742 152.038 74.8277 151.996 74.4826C152.061 75.1033 152.031 75.6107 152.002 76.1249C152.14 75.9367 152.271 75.7457 152.405 75.5547C152.318 76.1631 152.263 76.676 152.112 76.6542C152.307 77.3034 152.768 76.2136 153.002 77.5026C152.867 77.905 152.851 78.5338 152.8 79.0931C152.736 79.6496 152.645 80.1365 152.38 80.2402C152.638 78.9717 152.506 79.0276 152.335 79.1272C152.251 79.1776 152.155 79.2376 152.095 79.1517C152.065 79.1081 152.045 79.029 152.037 78.8926C152.026 78.7562 152.027 78.5624 152.046 78.2924C152.053 78.5024 152.046 78.7357 152.012 78.988C151.975 79.2404 151.921 79.5159 151.847 79.8133C151.78 79.8965 151.757 79.7137 151.751 79.5459C151.655 79.8392 151.59 80.0779 151.547 80.2743C151.499 80.4707 151.476 80.6262 151.469 80.7558C151.458 81.015 151.517 81.1691 151.588 81.3287C151.734 81.6493 151.919 81.993 151.656 83.2411C151.455 82.8701 151.007 83.6967 150.973 84.1086C151.204 83.1224 151.543 83.7362 151.524 84.7074C151.209 85.4713 151.136 85.9105 151.093 86.2597C151.053 86.6102 151.069 86.8776 150.929 87.2841C151.06 86.9826 151.184 86.6771 151.312 86.3729C151.398 86.5721 151.372 86.868 151.295 87.2554C151.207 87.6401 151.06 88.1134 150.917 88.6768C150.681 88.6972 151.109 87.636 150.888 87.9934C150.925 88.6809 150.542 89.3192 150.127 89.9958C149.91 90.3313 149.682 90.6764 149.487 91.0488C149.281 91.4157 149.103 91.8072 148.996 92.2465C148.472 92.9039 148.489 92.0964 148.062 92.6802C147.995 92.9189 147.924 93.1263 147.852 93.309C147.775 93.4905 147.692 93.6446 147.612 93.7837C147.447 94.062 147.277 94.2761 147.104 94.4903C146.925 94.7003 146.741 94.9104 146.556 95.1887C146.463 95.3278 146.37 95.4847 146.275 95.6647C146.174 95.8434 146.073 96.0467 145.969 96.284C146.598 95.9785 146.586 95.8339 146.115 97.2716C146.252 97.0206 146.38 96.7641 146.514 96.5104C146.643 96.2554 146.782 96.0071 146.902 95.7466C147.145 95.2296 147.403 94.7222 147.623 94.1957L147.485 94.744L147.329 95.2869L147.172 95.8325C147.122 96.0153 147.066 96.1981 147.006 96.3768C147.148 96.1585 147.265 95.9171 147.38 95.6784C147.493 95.4383 147.599 95.1996 147.702 94.9718C147.895 94.5121 148.06 94.0988 148.235 93.841C148.011 94.9104 147.977 94.7781 148.487 94.4807C147.912 94.9854 147.621 95.6279 147.343 96.3222C147.193 96.6632 147.044 97.0137 146.857 97.3548C146.673 97.6985 146.428 98.0163 146.122 98.3109L145.38 97.7503C145.274 97.8622 145.174 97.9768 145.077 98.09C144.98 98.2046 144.884 98.3151 144.794 98.4296C144.611 98.6574 144.444 98.8893 144.287 99.128C144.132 99.3667 143.971 99.6013 143.821 99.8469C143.671 100.094 143.521 100.342 143.367 100.594C143.207 100.844 143.043 101.1 142.876 101.362C142.79 101.492 142.704 101.628 142.611 101.758C142.517 101.885 142.42 102.014 142.321 102.144C142.117 102.402 141.909 102.672 141.664 102.934C141.415 103.19 141.145 103.451 140.85 103.713L141.674 103.099C141.66 103.377 141.325 103.738 140.92 104.134C140.707 104.322 140.476 104.519 140.258 104.719C140.149 104.819 140.043 104.92 139.943 105.022C139.894 105.072 139.845 105.124 139.8 105.175C139.752 105.224 139.706 105.273 139.663 105.321C139.53 105.026 138.968 105.358 138.515 105.49C138.561 105.525 138.475 105.636 138.321 105.791C138.162 105.941 137.931 106.131 137.699 106.338C137.466 106.543 137.238 106.773 137.065 106.979C136.89 107.184 136.784 107.383 136.814 107.551C136.345 107.713 135.889 107.884 135.413 108.016C134.304 108.65 133.776 109.178 133.263 109.748C133.001 110.021 132.734 110.287 132.393 110.557C132.221 110.691 132.034 110.831 131.813 110.958C131.59 111.082 131.339 111.205 131.048 111.325C131.32 111.013 131.171 110.928 131.135 110.804C131.116 110.743 131.126 110.672 131.225 110.559C131.324 110.444 131.52 110.299 131.856 110.05C131.496 110.246 131.13 110.383 130.875 110.519C130.618 110.651 130.466 110.767 130.504 110.868C130.374 110.872 130.194 110.966 129.976 111.085C129.756 111.202 129.504 111.359 129.241 111.518C128.976 111.673 128.706 111.841 128.443 111.949C128.18 112.056 127.933 112.127 127.729 112.122C127.589 112.245 127.518 112.392 127.371 112.546C127.297 112.622 127.204 112.701 127.075 112.779C126.944 112.853 126.772 112.918 126.547 112.981C126.43 112.951 126.505 112.834 126.505 112.834C126.55 112.98 125.16 113.463 126.043 113.551C125.87 113.54 125.693 113.54 125.512 113.547C125.33 113.554 125.14 113.557 124.95 113.572C124.566 113.6 124.168 113.658 123.76 113.735C123.351 113.804 122.927 113.87 122.501 113.958C122.288 114.001 122.074 114.046 121.859 114.091C121.642 114.127 121.425 114.164 121.209 114.199C119.488 114.529 117.76 114.663 116.641 114.292C114.843 114.437 112.651 114.428 111.016 114.213C111.133 114.132 111.042 114.06 111.346 114.128C111.069 114.059 110.839 114.023 110.644 113.997C110.448 113.967 110.286 113.961 110.144 113.969C109.861 113.985 109.661 114.063 109.449 114.136C109.237 114.21 109.014 114.282 108.686 114.287C108.36 114.278 107.932 114.19 107.313 113.965C106.137 113.179 108.72 114.012 107.956 113.64C107.925 113.371 107.72 113.201 107.407 113.083C107.25 113.023 107.066 112.98 106.862 112.938C106.662 112.887 106.441 112.842 106.208 112.797C105.974 112.752 105.732 112.706 105.485 112.658C105.361 112.633 105.236 112.606 105.112 112.579C104.988 112.551 104.864 112.521 104.745 112.478C104.265 112.318 103.81 112.115 103.455 111.833L103.868 111.914C103.728 111.819 103.574 111.737 103.407 111.665C103.242 111.59 103.061 111.535 102.877 111.463C102.506 111.328 102.091 111.217 101.646 111.103C101.424 111.046 101.194 110.99 100.96 110.924C100.73 110.851 100.495 110.771 100.256 110.686C99.7817 110.511 99.2879 110.321 98.8146 110.055C98.8146 110.055 98.9483 110.025 98.8964 109.924C98.5132 109.862 98.063 109.737 97.5747 109.572C97.3305 109.491 97.0755 109.398 96.8149 109.297C96.5599 109.185 96.3007 109.062 96.0388 108.937C95.7755 108.81 95.5095 108.678 95.2449 108.544L94.8466 108.341C94.7812 108.307 94.7143 108.274 94.6489 108.237L94.4579 108.124C93.9504 107.82 93.4553 107.524 92.9997 107.249C93.7731 107.303 93.9095 107.626 93.8154 107.067C93.413 106.821 93.3748 106.993 93.2357 107.104C93.1661 107.158 93.072 107.199 92.892 107.162C92.8019 107.144 92.6915 107.106 92.5523 107.042C92.4159 106.974 92.255 106.874 92.0572 106.739C91.8785 106.461 91.547 106.075 91.2797 105.703C91.011 105.33 90.8036 104.976 90.8773 104.745C90.9891 104.842 91.1078 104.929 91.2251 105.019L91.5784 105.287L92.2836 105.82C92.0967 105.319 91.6466 104.977 91.1542 104.673C90.6795 104.347 90.1625 104.062 89.8406 103.721L90.0916 103.613C89.5664 103.189 89.1436 102.901 88.7821 102.651C88.4179 102.408 88.0987 102.234 87.7864 102.042C87.1576 101.662 86.5124 101.252 85.4975 100.182L85.578 100.53C85.1865 100.349 84.9465 100.181 84.7841 100.02C84.6245 99.8564 84.5427 99.6995 84.4663 99.5399C84.3108 99.2208 84.1703 98.8948 83.4624 98.4487L83.5974 97.674C83.3928 97.5007 83.1118 97.2634 82.7831 96.9851C82.453 96.7055 82.0834 96.3754 81.6919 96.0262C80.9239 95.3183 80.0932 94.5121 79.4753 93.7769C79.9841 94.0729 80.6279 94.6212 81.2868 95.1982C81.9456 95.7752 82.6208 96.3795 83.1732 96.8064C83.0013 96.61 82.7695 96.344 82.5144 96.0494C82.2539 95.7588 81.9715 95.4369 81.6919 95.1327C81.4095 94.8299 81.1381 94.5394 80.898 94.3102C80.6579 94.0811 80.4492 93.9147 80.3074 93.8519C80.6115 94.152 81.0631 94.4725 81.2431 94.8613C80.0632 94.1602 78.8206 92.9462 77.6461 91.1934C77.9462 91.102 77.9203 90.761 77.7143 90.2782C77.5138 89.7912 77.1346 89.1569 76.7336 88.4681C75.9261 87.0945 75.049 85.4863 75.1213 84.6024C74.8567 84.2259 74.6221 83.8344 74.3916 83.4389C74.172 83.0392 73.9537 82.6355 73.7627 82.2181C73.3672 81.3887 73.0357 80.5239 72.7247 79.6346C72.4124 78.7452 72.1382 77.8259 71.8599 76.8806C71.583 75.9353 71.3115 74.96 71.0251 73.9506C70.77 74.7936 70.6841 74.5017 70.5518 74.0529C70.4236 73.6055 70.264 73.0054 69.8261 73.2441C69.5356 72.2851 69.4824 71.9059 69.5233 71.8064C69.5097 70.7806 69.5356 69.7617 69.6079 68.7591C69.7047 68.3949 69.7852 68.62 69.867 68.9187C69.9461 69.2174 70.043 69.5912 70.1412 69.5312C70.0307 68.4781 70.1208 68.2476 70.2299 68.1058C70.2858 68.0348 70.3486 67.9844 70.4059 67.867C70.4618 67.7484 70.5122 67.5615 70.5531 67.2191C70.3936 67.3705 70.2531 67.2014 70.1685 66.8427C70.0853 66.4853 70.0553 65.9369 70.1235 65.3545C69.9721 65.9015 69.8479 66.4634 69.7334 67.035C69.5642 66.3093 69.5356 65.7787 69.582 65.3599C69.6229 64.9384 69.7388 64.6288 69.8493 64.3206C69.9093 64.1678 69.968 64.0164 70.0212 63.8527C70.0744 63.689 70.1303 63.5158 70.1685 63.3152C70.2558 62.9183 70.294 62.4204 70.3049 61.7248L70.3745 62.179L70.459 62.6319C70.4659 62.2786 70.5218 61.7793 70.635 61.2337C70.7482 60.6895 70.9133 60.0975 71.1165 59.556C71.3198 59.0145 71.5544 58.5288 71.7644 58.1278C71.9759 57.7241 72.1641 57.4008 72.2841 57.1007C72.3442 57.0912 72.3878 57.113 72.4287 57.1348C72.4723 57.1553 72.501 57.1962 72.5242 57.233C72.5474 57.2712 72.5624 57.3108 72.5692 57.3476C72.5747 57.3626 72.5692 57.3872 72.5637 57.4063C72.5596 57.4172 72.5569 57.424 72.5488 57.4363C72.5351 57.454 72.5187 57.4717 72.4996 57.4895C72.5692 57.4444 72.5938 57.4363 72.6129 57.4267C72.6197 57.4267 72.6319 57.4158 72.6278 57.4212C72.6319 57.4335 72.6156 57.3899 72.6074 57.3681L72.5801 57.2889C72.5719 57.2589 72.5638 57.2385 72.5569 57.218L72.5365 57.1539C72.5242 57.1116 72.5133 57.0639 72.5037 57.023C72.4942 56.9902 72.4874 56.9575 72.4819 56.922L72.4696 56.832C72.4669 56.8088 72.4642 56.7843 72.4642 56.7583C72.4587 56.6942 72.4737 56.6424 72.4642 56.6888L72.4546 56.7201C72.4492 56.7379 72.4423 56.7529 72.4355 56.7679C72.4273 56.7883 72.4137 56.8197 72.4014 56.8415L72.355 56.9248C72.3359 56.9589 72.3155 56.9902 72.2923 57.0202C72.2705 57.0502 72.2391 57.1007 72.2105 57.1362L72.1654 57.1921C72.1504 57.2085 72.1341 57.2276 72.1136 57.2535L72.085 57.2876C72.0795 57.2944 72.085 57.2889 72.0822 57.2903H72.085C72.104 57.2876 72.1832 57.3544 72.2677 57.4635C72.4423 57.6832 72.6415 58.046 72.8161 58.4374C72.9921 58.833 73.1503 59.2695 73.2908 59.7156C73.5704 60.6104 73.7791 61.5434 73.9046 62.4259C74.0301 63.3098 74.0696 64.1459 74.0028 64.8825L73.7477 64.6165C73.8664 65.3054 74.2715 65.806 74.0765 66.7008C73.9769 66.6599 73.8296 66.428 73.8309 66.754C73.9319 67.1195 74.3124 68.6118 74.1856 69.5557L73.9073 68.7591C73.7927 70.6074 73.9428 72.026 74.1406 73.3818C74.337 74.7363 74.5771 76.0267 74.5907 77.5967C74.2456 77.5776 73.9851 78.2992 73.7805 79.2035C73.5759 80.1079 73.4244 81.1978 73.318 81.9234L73.2239 81.8661C73.033 84.0227 73.018 85.8655 73.0262 87.6756C73.033 89.4856 73.0657 91.263 72.9307 93.2722C72.3905 94.4548 72.0154 96.5268 71.5448 98.7393C71.3102 99.8428 71.0497 100.986 70.7264 102.025C70.6445 102.284 70.56 102.535 70.4713 102.775C70.4236 102.9 70.3758 103.022 70.3281 103.145C70.2763 103.273 70.2244 103.402 70.1739 103.527C69.968 104.03 69.7525 104.508 69.5329 104.948C69.8589 104.429 70.0075 105.228 69.8179 105.91C69.5861 106.316 69.4606 106.954 69.316 107.44C69.1741 107.929 69.0186 108.266 68.7595 108.071L68.9 107.776C68.4785 107.971 68.1156 108.506 67.7664 109.146C67.4172 109.785 67.0735 110.527 66.7148 111.141L67.319 111.759C66.5797 112.433 65.9018 113.273 65.2061 114.122C64.8583 114.544 64.5078 114.971 64.149 115.382C63.7875 115.788 63.4179 116.177 63.0387 116.528C62.2844 117.236 61.4714 117.768 60.7157 118.038C59.9628 118.315 59.2753 118.312 58.8361 118.085C58.4774 118.227 58.0477 118.274 57.6098 118.295C57.3902 118.293 57.1679 118.305 56.9483 118.293C56.8378 118.293 56.7273 118.29 56.6209 118.29C56.5131 118.285 56.4054 118.283 56.3003 118.286L56.4463 117.863C56.3808 117.844 56.3167 117.826 56.2526 117.808C56.1899 117.787 56.1271 117.765 56.0657 117.743C55.943 117.699 55.8229 117.662 55.707 117.616C55.4751 117.519 55.2541 117.44 55.0413 117.337C54.9349 117.289 54.8299 117.241 54.7249 117.193C54.6212 117.141 54.5189 117.088 54.4166 117.036C54.2107 116.938 54.0088 116.825 53.8015 116.712C53.3868 116.487 52.9598 116.23 52.4797 115.932C52.2396 115.78 51.9886 115.611 51.7158 115.432C51.5808 115.338 51.443 115.241 51.2984 115.14C51.2261 115.09 51.1525 115.04 51.0774 114.988C51.0038 114.933 50.9288 114.877 50.851 114.82L51.192 114.887L51.5344 114.941C51.4512 114.877 51.368 114.82 51.2861 114.769C51.2043 114.718 51.1252 114.668 51.0447 114.626C50.8838 114.542 50.7255 114.478 50.5673 114.428C50.2522 114.326 49.9439 114.272 49.6302 114.222C49.0109 114.116 48.3848 114.008 47.7738 113.438C47.8051 113.165 47.8406 112.89 47.8801 112.614C46.7698 111.523 45.8136 110.254 44.8534 109.004C43.8849 107.751 42.9478 106.537 41.8211 105.435C41.9289 105.422 42.1389 105.389 42.4513 105.785C42.0312 105.184 41.3355 103.953 40.7381 102.961C40.1352 101.973 39.6032 101.225 39.3277 101.676C39.58 101.515 39.2022 100.811 38.6743 99.9478C38.1423 99.0871 37.4671 98.0545 37.0292 97.3166L37.5353 97.3943C37.0074 96.8446 36.7101 96.5622 36.4373 96.1926C36.1658 95.8216 35.9135 95.3646 35.5384 94.4262C35.4511 93.9529 35.7484 93.9256 35.8303 94.5598C35.7007 93.7714 35.5233 93.5055 35.3269 93.1958C35.1373 92.8848 34.9245 92.5288 34.8209 91.5644C34.9641 91.7772 35.1128 91.9859 35.2587 92.1946C35.08 91.4035 34.9791 91.0447 34.8468 90.7828C34.7172 90.5209 34.5617 90.3572 34.3203 89.9426C34.1402 89.4515 34.0447 88.674 34.0611 87.9907C34.0747 87.3059 34.2002 86.718 34.3885 86.5843C34.1293 86.392 33.7392 85.5163 33.8456 84.5506C33.9943 84.421 34.0884 84.7661 34.1402 84.9393C34.2589 83.5916 34.1921 82.6054 34.1716 81.7079C34.1566 80.8186 34.1962 80.007 34.6286 79.1954C34.7036 79.1954 34.7663 79.1735 34.8195 79.1353C34.8727 79.0958 34.9177 79.0412 34.9559 78.9908L34.9327 79.0685L34.9082 79.1585C34.8918 79.2186 34.8754 79.2772 34.8591 79.3372C34.8277 79.4559 34.7977 79.5732 34.7704 79.6905C34.7145 79.9237 34.6667 80.1502 34.6258 80.3684C34.5426 80.8035 34.484 81.2005 34.4389 81.5278C34.3516 82.1853 34.3203 82.5713 34.308 82.4895C34.5085 82.5031 34.6586 82.0912 34.8222 81.858C34.9873 81.622 35.1455 81.5647 35.3638 82.2317C35.2683 81.5729 35.136 80.6617 35.166 79.7396C35.1687 79.6237 35.1755 79.5105 35.1837 79.3959L35.2151 79.0699L35.2219 78.9989C35.2233 78.9771 35.2287 78.9457 35.2274 78.9375V78.8612C35.2301 78.8093 35.2342 78.7575 35.2437 78.7057C35.2751 78.4983 35.361 78.2965 35.4811 78.1969C35.5234 78.2092 35.5629 78.2242 35.612 78.276C35.6093 78.3101 35.6079 78.3428 35.6079 78.3756C35.7007 78.3087 35.743 78.1832 35.8098 78.01C35.9817 77.9827 36.1058 78.0277 36.2572 78.0905C36.264 78.3537 36.3472 78.4751 36.4168 78.587C36.4891 78.6934 36.5764 78.8025 36.6064 78.9048C36.7892 78.7575 36.8997 78.7848 36.9938 78.8039C37.0402 78.8107 37.0825 78.8121 37.1234 78.7711C37.1629 78.7289 37.2052 78.6484 37.2325 78.4629C37.2284 78.5502 37.1629 78.4083 37.0252 78.1655C36.987 78.1178 36.9474 78.0577 36.9092 78.0482C36.9215 78.0427 36.9351 78.0373 36.9488 78.0346C36.8751 77.9173 36.7865 77.7836 36.6651 77.6595C36.545 77.5381 36.38 77.4112 36.1713 77.4016C36.3418 77.238 36.5559 77.1861 36.7333 77.2898C36.9106 77.3894 37.0606 77.6458 37.0947 77.9991C37.2502 77.9786 37.4262 78.0032 37.5858 78.0618C37.7467 78.1191 37.8941 78.2105 37.995 78.2896C37.9813 78.3619 37.9677 78.4383 37.9541 78.5188C37.9472 78.5583 37.9404 78.5911 37.935 78.6347C37.9309 78.6784 37.9254 78.722 37.92 78.767C37.9104 78.8543 37.9036 78.9444 37.8968 79.0439C37.8913 79.1408 37.8859 79.239 37.8804 79.3399C37.8599 79.7396 37.8422 80.1529 37.8149 80.5417C37.7631 81.3164 37.6799 81.9752 37.5162 82.1703C37.6744 82.8223 37.8286 83.5371 37.9527 84.2709C38.0918 85.0034 38.201 85.7523 38.3305 86.4711C38.396 86.8299 38.4492 87.1831 38.5174 87.5214C38.5815 87.8597 38.6607 88.1857 38.7302 88.4913C38.8721 89.1051 39.063 89.6425 39.2772 90.0599C39.4054 90.8265 39.0644 90.9493 38.9416 91.2371C38.8461 90.7979 38.8434 90.2741 38.7179 90.0395C38.7807 90.4187 38.8298 90.8906 38.8653 91.3912C38.8925 91.8918 38.9212 92.421 38.9484 92.9134C38.9703 93.4059 39.003 93.8628 39.0671 94.2229C39.1244 94.5817 39.209 94.8422 39.3495 94.9418C39.1694 95.9021 39.0494 95.6197 38.9703 95.4342C38.9307 95.3414 38.9007 95.2719 38.8789 95.3906C38.868 95.4492 38.8598 95.557 38.8502 95.7302C38.838 95.9034 38.8243 96.1449 38.8093 96.4736L38.6607 96.1053C38.5774 96.4231 38.5065 96.7327 38.4492 97.0369C38.3838 97.3397 38.3278 97.6357 38.2828 97.9276C38.261 98.0736 38.2405 98.2182 38.2228 98.3628C38.2037 98.506 38.1846 98.6479 38.1655 98.7897C38.13 99.0721 38.1027 99.3517 38.0836 99.6286C37.9786 100.732 37.9582 101.806 37.8518 102.891C37.7617 103.981 37.5844 105.085 37.2079 106.214C36.8342 107.339 36.2272 108.493 35.2506 109.53C35.5056 109.234 35.6339 109.083 35.758 109.061C35.5261 109.39 35.3119 109.732 35.0637 110.047C34.945 110.208 34.8263 110.37 34.709 110.531L34.3312 110.995L34.1443 111.228C34.0829 111.306 34.012 111.377 33.9465 111.451L33.5496 111.895C33.4173 112.043 33.2686 112.175 33.1309 112.317C32.989 112.455 32.8553 112.603 32.7012 112.726L32.2551 113.116C32.1064 113.246 31.9414 113.355 31.7873 113.476C31.4817 113.727 31.1366 113.917 30.8079 114.136C30.6374 114.235 30.4614 114.321 30.2882 114.415L30.0277 114.554C29.9376 114.595 29.8463 114.63 29.7562 114.67L29.2106 114.9L28.6459 115.082C28.5518 115.11 28.4577 115.146 28.3622 115.17L28.0716 115.236C27.8779 115.278 27.6829 115.326 27.4919 115.364C27.305 115.386 27.1209 115.424 26.9286 115.43L26.6435 115.447H26.3543C25.5823 115.439 24.7939 115.295 24.0259 115.067C22.4886 114.607 21.0387 113.821 19.7524 112.864C19.0035 112.348 18.5547 112.118 18.1414 111.988C17.7322 111.852 17.3653 111.811 16.817 111.61L16.7556 110.992C16.124 110.782 15.4979 110.549 14.8678 110.312C13.6429 109.643 12.8831 108.664 12.0592 107.653C11.234 106.638 10.3419 105.592 8.80189 104.689L8.91785 105.229C8.47318 104.783 7.71338 104.138 7.12139 103.582C6.52804 103.025 6.1011 102.561 6.30434 102.504C6.17203 102.456 5.77648 102.452 5.54459 101.987L5.69189 101.784C4.86255 101.158 4.04006 100.521 3.223 99.8741C2.45914 98.9439 2.70739 98.8402 2.84243 98.652C2.98156 98.461 3.00611 98.1882 1.84941 96.8924C1.37745 96.4477 0.629946 95.8857 0.0270426 95.4847C-0.577225 95.0836 -1.02733 94.8559 -0.937307 95.0905C-0.611302 95.4929 -0.176187 96.2008 -0.335779 96.3945C-0.631775 96.1258 -0.926402 95.8543 -1.21831 95.5815C-1.56613 95.7397 -2.03535 95.7575 -2.22495 96.063C-2.41046 96.3727 -2.31907 96.9756 -1.51702 98.2591C-0.944127 98.6765 -0.368517 99.0857 0.20847 99.4908L0.402153 100.221C-0.000237942 99.8005 -0.399873 99.3776 -0.796807 98.952C-0.376684 99.9096 0.271224 100.17 0.89868 100.542C0.875492 100.792 0.979165 101.095 1.21241 101.441C1.85078 101.773 2.48916 102.098 3.12889 102.417C3.09888 102.793 2.08265 102.163 2.93108 103.249C3.83271 103.696 2.74422 102.151 4.00459 103.116C4.47109 104.048 4.0769 104.041 5.10674 104.65C5.0931 104.898 4.83119 104.815 4.44381 104.55C5.33998 105.118 6.49394 106.385 7.15413 106.461C7.39556 106.962 8.06123 107.535 8.60685 108.027C9.1511 108.521 9.57393 108.941 9.30931 109.17C9.66533 109.263 11.0607 109.949 11.8273 110.52C10.8875 110.29 11.5709 110.871 12.4016 111.541C13.2296 112.212 14.2158 112.958 13.7656 113.18C14.5227 113.265 15.5348 113.886 16.6847 114.557C17.2576 114.894 17.8673 115.24 18.4797 115.547C19.0976 115.848 19.7156 116.112 20.3062 116.27C20.1616 116.266 19.867 116.262 19.6951 116.132C19.9925 116.294 20.2339 116.438 20.4412 116.569C20.6513 116.697 20.8245 116.815 20.9855 116.929C21.3115 117.15 21.5788 117.36 21.988 117.579C22.0821 117.451 22.284 117.392 22.5568 117.368C22.6932 117.356 22.8433 117.357 23.007 117.358C23.1734 117.358 23.3493 117.365 23.5321 117.375C24.266 117.409 25.1321 117.428 25.7391 117.285C26.1579 117.472 26.3188 117.582 26.3052 117.69C26.2943 117.792 26.1101 117.886 25.8864 117.954C25.4363 118.11 24.8129 118.188 25.0667 118.512C25.0544 118.257 25.8755 118.257 26.6421 118.128C27.0254 118.061 27.3869 117.986 27.6092 117.886C27.8302 117.794 27.9066 117.705 27.732 117.622C27.7784 117.627 27.8234 117.633 27.8657 117.638C27.9066 117.641 27.9448 117.643 27.9816 117.646C28.0566 117.65 28.1248 117.654 28.1889 117.657C28.3185 117.661 28.4276 117.665 28.5218 117.669C28.7114 117.673 28.8409 117.675 28.9528 117.683C29.1751 117.693 29.3143 117.731 29.7371 117.874C29.7453 117.467 30.0427 117.362 30.4437 117.199C30.6456 117.121 30.8802 117.046 31.1121 116.926C31.3385 116.794 31.569 116.626 31.7641 116.397C32.0096 116.335 32.1897 116.264 32.3452 116.228C32.4993 116.187 32.6193 116.165 32.7162 116.154C32.9099 116.131 33.0094 116.154 33.1049 116.155C33.1977 116.155 33.2836 116.132 33.4514 116.018C33.5346 115.96 33.6396 115.878 33.7733 115.765C33.8401 115.708 33.9138 115.642 33.9984 115.57C34.0816 115.496 34.1634 115.404 34.2603 115.304C34.7322 115.054 34.6477 115.296 34.4294 115.61C34.3749 115.687 34.3148 115.772 34.248 115.848C34.1798 115.923 34.1116 115.996 34.0502 116.058C33.9274 116.184 33.8347 116.273 33.8347 116.273L33.8156 116.29ZM33.4514 76.0595C33.4514 76.0595 33.4473 76.054 33.4459 76.0526C33.716 75.5848 33.9984 75.2437 34.188 75.0459C34.0161 75.2315 33.7774 75.4961 33.4514 76.0595ZM32.0505 80.453C32.1433 79.9742 32.2551 79.3768 32.4147 78.7425C32.5989 78.6429 32.708 78.8312 32.6098 79.2185C32.5852 79.1012 32.4952 79.2663 32.3888 79.5323C32.281 79.7983 32.1596 80.1679 32.0505 80.453ZM36.4373 78.456C36.3745 78.4356 36.3431 78.3974 36.3254 78.3401C36.3063 78.2828 36.3022 78.2078 36.3036 78.1355C36.3786 78.1682 36.4577 78.2146 36.5559 78.291C36.5682 78.276 36.5859 78.2637 36.5996 78.2473C36.5409 78.3292 36.4864 78.4069 36.4386 78.456H36.4373Z" fill="#F6A473"/>
<path d="M37.0017 78.1831C37.0262 78.2117 37.0522 78.2172 37.0767 78.2649C37.0822 78.179 37.0794 78.0958 37.0713 78.0139C37.0194 78.0221 36.9703 78.033 36.9253 78.0508C36.9512 78.0958 36.9771 78.1408 37.0017 78.1817V78.1831Z" fill="#F6A473"/>
<path d="M145.961 89.2006L145.955 89.1215C145.95 89.1897 145.946 89.251 145.925 89.2961C145.936 89.2401 145.95 89.2374 145.961 89.2019V89.2006Z" fill="#F6A473"/>
<path d="M60.057 121.951L60.0311 121.842C59.9056 121.902 59.7746 121.947 59.645 121.999C59.7828 121.983 59.9206 121.974 60.057 121.95V121.951Z" fill="#F6A473"/>
<path d="M153.609 108.307C153.616 108.362 153.651 108.446 153.753 108.575C153.763 108.545 153.695 108.436 153.609 108.307Z" fill="#F6A473"/>
<path d="M161.489 113.103L162.65 113.718C162.152 113.433 161.785 113.246 161.489 113.103Z" fill="#F6A473"/>
<path d="M168.18 115.381C168.283 115.325 168.322 115.274 168.356 115.227C168.35 115.224 168.347 115.223 168.343 115.221L168.181 115.381H168.18Z" fill="#F6A473"/>
<path d="M153.879 87.7254C153.853 87.8181 153.832 87.9109 153.819 87.9955C153.699 88.6393 153.812 88.211 153.879 87.7254Z" fill="#F6A473"/>
<path d="M152.273 54.5473C152.515 54.8706 152.743 55.2403 152.938 55.6822C152.89 55.4913 152.829 55.3181 152.777 55.1585C152.717 55.0043 152.661 54.8665 152.602 54.7615C152.483 54.5514 152.373 54.46 152.275 54.5487L152.273 54.5473Z" fill="#F6A473"/>
<path d="M129.316 115.257C129.316 115.257 129.316 115.253 129.316 115.249C129.238 115.276 129.17 115.301 129.092 115.329L129.315 115.257H129.316Z" fill="#F6A473"/>
<path d="M153.361 57.3094C153.351 57.1621 153.335 57.0202 153.31 56.8797C153.289 56.7406 153.259 56.6083 153.224 56.4815C153.193 56.3601 153.149 56.2223 153.102 56.0927C153.059 55.9713 152.997 55.8185 152.938 55.6821C152.958 55.7599 152.979 55.839 153.001 55.9195C153.024 56.0027 153.035 56.0641 153.053 56.1391C153.084 56.2755 153.115 56.4146 153.148 56.5538C153.209 56.817 153.278 57.083 153.362 57.3094H153.361Z" fill="#F6A473"/>
<path d="M174.84 114.519C175.218 114.587 175.599 114.64 175.978 114.7C176.357 114.762 176.739 114.812 177.12 114.864C176.731 114.662 176.226 114.392 177.268 114.434C176.914 114.341 176.657 114.28 176.473 114.24C176.289 114.198 176.178 114.18 176.116 114.179C175.989 114.178 176.054 114.246 176.114 114.328C176.234 114.487 176.335 114.714 174.84 114.52V114.519Z" fill="#F6A473"/>
<path d="M167.892 113.075C169.102 113.27 167.934 112.83 168.021 112.751C167.238 112.713 167.043 112.704 167.892 113.075Z" fill="#F6A473"/>
<path d="M145.197 73.1762L145.592 73.3167C145.576 72.3701 145.437 73.3003 145.197 73.1762Z" fill="#F6A473"/>
<path d="M144.27 63.0409C144.126 63.3382 143.986 63.6356 143.848 63.9357L144.133 64.4472C144.174 63.9793 144.218 63.5101 144.27 63.0409Z" fill="#F6A473"/>
<path d="M148.523 58.1824L148.446 58.5698C148.564 58.0842 148.693 57.6027 148.839 57.1403C148.725 57.4799 148.62 57.8291 148.523 58.1838V58.1824Z" fill="#F6A473"/>
<path d="M118.542 113.725L118.863 114.191C119.483 114.041 119.549 113.475 118.542 113.725Z" fill="#F6A473"/>
<path d="M85.915 100.247C85.8618 100.015 85.6817 99.6864 85.4376 99.3781C85.1989 99.0657 84.8947 98.7738 84.5864 98.6224C84.8606 98.9375 85.1034 99.2799 85.323 99.5759C85.5467 99.8678 85.7431 100.116 85.915 100.247Z" fill="#F6A473"/>
<path d="M65.8278 112.958C65.9124 112.734 65.9915 112.506 66.0706 112.281C65.8742 112.677 65.671 113.068 65.4541 113.448C65.5823 113.289 65.7037 113.122 65.8278 112.958Z" fill="#F6A473"/>
<path d="M88.9656 100.547C112.247 100.547 131.121 81.6731 131.121 58.3913C131.121 35.1094 112.247 16.2357 88.9656 16.2357C65.6837 16.2357 46.8101 35.1094 46.8101 58.3913C46.8101 81.6731 65.6837 100.547 88.9656 100.547Z" fill="url(#paint0_radial_2284_523)"/>
<path d="M86.6923 78.0499C84.8564 78.0499 82.2619 77.7512 79.4861 76.4949C74.0873 74.0505 74.3697 70.474 74.3833 70.3226C74.4188 69.9557 74.7461 69.687 75.1131 69.7224C75.48 69.7579 75.7487 70.0853 75.7132 70.4522C75.705 70.5586 75.5632 73.2526 80.0372 75.2782C84.7813 77.4265 89.0494 76.5154 89.0917 76.5058C89.4518 76.4267 89.8092 76.6518 89.8896 77.0119C89.9701 77.372 89.7451 77.728 89.385 77.8098C89.2963 77.8303 88.276 78.0512 86.6923 78.0512V78.0499Z" fill="#191919"/>
<path d="M89.827 70.7945C89.4683 70.7945 89.1723 70.5095 89.16 70.1494C89.1478 69.7811 89.4369 69.4714 89.8052 69.4591L93.8032 69.3255L90.3222 61.0008L89.7848 44.0431C89.7725 43.6748 90.063 43.3665 90.4313 43.3542C90.4381 43.3542 90.4463 43.3542 90.4531 43.3542C90.8119 43.3542 91.1092 43.6393 91.1201 44.0008L91.6494 60.713L95.7824 70.5968L89.8489 70.7945C89.8407 70.7945 89.8339 70.7945 89.8257 70.7945H89.827Z" fill="#191919"/>
<path d="M77.4485 59.2965C77.3817 59.2965 77.3148 59.2965 77.2466 59.2952C75.6671 59.2679 74.2035 58.9201 72.8995 58.2613C69.6517 56.6299 68.4609 53.6603 68.4118 53.5349L68.3149 53.2866L68.4159 53.0397C68.5032 52.8269 70.6297 47.8209 77.6559 47.956H77.679C78.4865 47.971 79.2763 48.076 80.0252 48.2683C84.6916 49.4537 86.4293 53.5335 86.5003 53.7067L86.6312 54.0218L86.4525 54.3123C86.4198 54.3655 85.6286 55.6368 84.09 56.8836C82.7792 57.9434 81.3374 58.6636 79.8015 59.0251C79.7251 59.0442 79.6419 59.0619 79.5573 59.081C78.8671 59.2256 78.1605 59.2993 77.4512 59.2993L77.4485 59.2965ZM69.7717 53.2975C70.1127 53.985 71.234 55.9288 73.501 57.0677C74.625 57.6352 75.8935 57.9352 77.2712 57.9584C77.9477 57.9693 78.623 57.908 79.2763 57.7716C79.3459 57.7566 79.4168 57.7415 79.4864 57.7238C80.83 57.4073 82.0931 56.7744 83.2457 55.8428C84.1828 55.0844 84.8088 54.3096 85.1089 53.9018C84.6288 52.9961 82.9933 50.3989 79.6924 49.5601C79.039 49.3923 78.3515 49.3009 77.6449 49.2886H77.6204C72.3197 49.1904 70.2628 52.3631 69.7704 53.2961L69.7717 53.2975Z" fill="#191919"/>
<path d="M104.661 60.1098C104.398 60.1098 104.132 60.1003 103.864 60.0812C103.091 60.028 102.326 59.8875 101.591 59.6638C99.9974 59.1795 98.542 58.3079 97.2666 57.0735C95.8425 55.6944 95.1687 54.3591 95.1401 54.3031L94.9873 53.9976L95.1455 53.6947C95.2328 53.5283 97.3239 49.6177 102.079 48.8497C102.837 48.7242 103.631 48.6901 104.433 48.746H104.448C111.47 49.2276 113.149 54.4095 113.218 54.6291L113.297 54.8842L113.178 55.1229C113.118 55.2429 111.668 58.0951 108.288 59.4346C107.865 59.6038 107.419 59.7429 106.965 59.8493C106.23 60.0212 105.459 60.1084 104.664 60.1084L104.661 60.1098ZM96.5096 54.0153C96.7715 54.4477 97.328 55.2743 98.1942 56.1132C99.3154 57.199 100.589 57.9628 101.978 58.3843C102.618 58.5794 103.283 58.7008 103.957 58.7471C104.901 58.814 105.81 58.7471 106.657 58.5494C107.047 58.458 107.429 58.3393 107.791 58.1947C110.151 57.2603 111.44 55.4244 111.841 54.7683C111.433 53.7943 109.656 50.447 104.364 50.0814H104.345C103.643 50.0296 102.952 50.0596 102.29 50.1687C98.9266 50.7116 97.0674 53.1546 96.5082 54.0139L96.5096 54.0153Z" fill="#191919"/>
<path d="M85.882 53.9606C85.882 53.9606 85.1358 55.1732 83.6668 56.3627C82.6615 57.1756 81.3193 57.9791 79.6456 58.3733C77.5 57.2629 76.0786 54.9768 76.1919 52.4042C76.256 50.9638 76.7906 49.6557 77.6418 48.6218H77.6568C78.4589 48.6368 79.19 48.7418 79.857 48.9137C84.2547 50.0308 85.882 53.9606 85.882 53.9606Z" fill="#191919"/>
<path d="M79.5722 58.971L79.3867 58.8756C76.9846 57.6316 75.5101 55.0822 75.6287 52.38C75.6956 50.8591 76.2412 49.4364 77.2069 48.2647L77.3856 48.0478L77.6748 48.0601C78.4741 48.0738 79.2557 48.1788 79.9977 48.3684C84.615 49.5401 86.3324 53.5749 86.4019 53.7454L86.5124 54.0114L86.361 54.2569C86.3283 54.3101 85.5466 55.565 84.0217 56.8008C82.7231 57.8511 81.295 58.5645 79.7741 58.9219L79.5708 58.9697L79.5722 58.971ZM77.9094 49.195C77.2056 50.1334 76.8086 51.2465 76.7554 52.4291C76.6586 54.6239 77.8166 56.6999 79.7222 57.7748C81.0003 57.4406 82.2075 56.8199 83.3137 55.9251C84.2999 55.1258 84.9478 54.3101 85.2343 53.9132C84.7869 53.0498 83.1337 50.3285 79.7208 49.461C79.1411 49.3123 78.5342 49.2223 77.9108 49.195H77.9094Z" fill="#191919"/>
<path d="M112.577 54.8282C112.577 54.8282 111.222 57.5563 108.039 58.8167C107.657 58.9695 107.247 59.0991 106.81 59.2014C104.489 58.1579 102.92 55.7763 103.04 53.0782C103.102 51.6924 103.599 50.4292 104.395 49.4144H104.401C111.047 49.8686 112.577 54.8269 112.577 54.8269V54.8282Z" fill="#191919"/>
<path d="M106.753 59.7938L106.579 59.716C103.961 58.5388 102.35 55.924 102.478 53.054C102.542 51.5945 103.052 50.2169 103.951 49.0683L104.128 48.8419L104.439 48.8542C111.39 49.3289 113.049 54.4454 113.116 54.6636L113.183 54.8791L113.082 55.081C113.022 55.2011 111.591 58.0178 108.246 59.3423C107.828 59.5087 107.387 59.6478 106.937 59.7528L106.751 59.7965L106.753 59.7938ZM104.66 50.0013C104.016 50.9139 103.652 51.9792 103.603 53.1032C103.499 55.4452 104.776 57.584 106.869 58.6057C107.199 58.5211 107.522 58.4147 107.83 58.292C110.273 57.3249 111.583 55.4029 111.958 54.7782C111.59 53.8684 109.876 50.4788 104.659 50.0013H104.66Z" fill="#191919"/>
<path d="M85.2775 62.5914H67.8724C65.7691 62.5914 64.0586 60.8809 64.0586 58.7775V54.2026C64.0586 52.0992 65.7691 50.3887 67.8724 50.3887H85.2775C87.3809 50.3887 89.0914 52.0992 89.0914 54.2026V58.7775C89.0914 60.8809 87.3809 62.5914 85.2775 62.5914ZM67.8724 51.7255C66.5057 51.7255 65.3954 52.8372 65.3954 54.2026V58.7775C65.3954 60.1443 66.507 61.2546 67.8724 61.2546H85.2775C86.6443 61.2546 87.7546 60.1429 87.7546 58.7775V54.2026C87.7546 52.8358 86.6429 51.7255 85.2775 51.7255H67.8724Z" fill="white"/>
<path d="M114.341 62.5914H96.9359C94.8326 62.5914 93.1221 60.8809 93.1221 58.7775V54.2026C93.1221 52.0992 94.8326 50.3887 96.9359 50.3887H114.341C116.444 50.3887 118.155 52.0992 118.155 54.2026V58.7775C118.155 60.8809 116.444 62.5914 114.341 62.5914ZM96.9359 51.7255C95.5692 51.7255 94.4588 52.8372 94.4588 54.2026V58.7775C94.4588 60.1443 95.5705 61.2546 96.9359 61.2546H114.341C115.708 61.2546 116.818 60.1429 116.818 58.7775V54.2026C116.818 52.8358 115.706 51.7255 114.341 51.7255H96.9359Z" fill="white"/>
<path d="M151.572 191.274L125.088 115.354C123.375 110.444 118.752 107.144 113.551 107.121L63.6739 106.9C63.6548 106.9 63.6371 106.9 63.6194 106.9C58.1196 106.9 53.2881 110.56 51.8 115.859L30.6124 191.338C29.5785 195.024 30.3219 198.979 32.623 202.037C34.9241 205.096 38.5211 206.906 42.3486 206.932L139.898 207.593C139.926 207.593 139.953 207.593 139.981 207.593C143.941 207.593 147.659 205.682 149.966 202.459C152.287 199.212 152.887 195.041 151.572 191.272V191.274Z" fill="url(#paint1_linear_2284_523)"/>
<path fill-rule="evenodd" clip-rule="evenodd" d="M74.6058 106.833C74.8391 106.895 75.0208 107.079 75.0811 107.312L89.8672 164.695C89.9402 164.978 89.8203 165.276 89.5711 165.43C89.322 165.584 89.0018 165.558 88.781 165.365L61.4143 141.53C61.1437 141.294 61.1075 140.887 61.3324 140.607L69.7824 130.096L57.0052 125.768C56.7878 125.695 56.6234 125.514 56.5698 125.291C56.5162 125.068 56.5808 124.833 56.7411 124.669L73.9552 107.013C74.1238 106.84 74.3725 106.771 74.6058 106.833ZM58.4386 124.842L71.1168 129.137C71.3235 129.207 71.483 129.374 71.544 129.583C71.6051 129.793 71.56 130.019 71.4232 130.189L62.7768 140.944L88.0355 162.943L74.083 108.796L58.4386 124.842Z" fill="white"/>
<path fill-rule="evenodd" clip-rule="evenodd" d="M103.835 106.833C104.068 106.771 104.317 106.84 104.485 107.013L121.699 124.669C121.86 124.833 121.924 125.068 121.871 125.291C121.817 125.514 121.653 125.695 121.435 125.768L108.658 130.097L117.107 140.607C117.332 140.887 117.295 141.295 117.025 141.53L89.6582 165.365C89.4374 165.558 89.1171 165.584 88.868 165.43C88.6189 165.276 88.4989 164.978 88.572 164.695L103.359 107.312C103.42 107.079 103.601 106.895 103.835 106.833ZM104.357 108.796L90.4037 162.943L115.662 140.944L107.017 130.189C106.881 130.019 106.835 129.793 106.897 129.583C106.958 129.374 107.117 129.207 107.324 129.137L120.002 124.842L104.357 108.796Z" fill="white"/>
<path fill-rule="evenodd" clip-rule="evenodd" d="M78.8014 105.088C78.8014 105.088 78.8014 105.088 78.8014 105.088L78.7996 105.093L78.793 105.108C78.7871 105.123 78.7782 105.145 78.7665 105.173C78.743 105.231 78.7082 105.318 78.6638 105.43C78.5748 105.655 78.4473 105.984 78.294 106.398C77.9872 107.226 77.5779 108.393 77.1689 109.742C76.3462 112.457 75.5423 115.857 75.5423 118.735C75.5423 119.104 75.2431 119.403 74.8739 119.403C74.5048 119.403 74.2056 119.104 74.2056 118.735C74.2056 115.655 75.0569 112.102 75.8895 109.355C76.3081 107.974 76.7265 106.781 77.0404 105.934C77.1975 105.51 77.3285 105.171 77.4207 104.938C77.4667 104.822 77.5031 104.732 77.5281 104.67C77.5406 104.639 77.5503 104.616 77.5569 104.6L77.5646 104.581L77.5674 104.574C77.5674 104.574 77.5675 104.574 78.1845 104.831L77.5675 104.574C77.7095 104.233 78.1008 104.072 78.4415 104.214C78.7822 104.356 78.9433 104.747 78.8014 105.088Z" fill="#191919"/>
<path fill-rule="evenodd" clip-rule="evenodd" d="M74.8211 119.401C70.7407 119.401 67.4334 122.709 67.4334 126.789V158.404C67.4334 160.626 69.2335 162.426 71.4546 162.426C71.8238 162.426 72.123 162.725 72.123 163.094C72.123 163.463 71.8238 163.762 71.4546 163.762C68.4952 163.762 66.0967 161.364 66.0967 158.404V126.789C66.0967 121.97 70.0024 118.065 74.8211 118.065C79.6397 118.065 83.5454 121.97 83.5454 126.789V158.404C83.5454 161.364 81.1469 163.762 78.1875 163.762C77.8184 163.762 77.5191 163.463 77.5191 163.094C77.5191 162.725 77.8184 162.426 78.1875 162.426C80.4087 162.426 82.2087 160.626 82.2087 158.404V126.789C82.2087 122.709 78.9014 119.401 74.8211 119.401Z" fill="#191919"/>
<path d="M71.9727 161.413H71.3398C70.6716 161.413 70.1299 161.954 70.1299 162.623V163.43C70.1299 164.098 70.6716 164.64 71.3398 164.64H71.9727C72.6409 164.64 73.1826 164.098 73.1826 163.43V162.623C73.1826 161.954 72.6409 161.413 71.9727 161.413Z" fill="#191919"/>
<path fill-rule="evenodd" clip-rule="evenodd" d="M71.3402 162.081C71.0411 162.081 70.7987 162.323 70.7987 162.622V163.43C70.7987 163.729 71.0411 163.971 71.3402 163.971H71.9731C72.2722 163.971 72.5146 163.729 72.5146 163.43V162.622C72.5146 162.323 72.2722 162.081 71.9731 162.081H71.3402ZM69.4619 162.622C69.4619 161.585 70.3028 160.744 71.3402 160.744H71.9731C73.0105 160.744 73.8514 161.585 73.8514 162.622V163.43C73.8514 164.467 73.0105 165.308 71.9731 165.308H71.3402C70.3028 165.308 69.4619 164.467 69.4619 163.43V162.622Z" fill="#191919"/>
<path d="M78.501 161.481H77.8681C77.1999 161.481 76.6582 162.023 76.6582 162.691V163.499C76.6582 164.167 77.1999 164.709 77.8681 164.709H78.501C79.1692 164.709 79.7109 164.167 79.7109 163.499V162.691C79.7109 162.023 79.1692 161.481 78.501 161.481Z" fill="#191919"/>
<path fill-rule="evenodd" clip-rule="evenodd" d="M77.868 162.15C77.569 162.15 77.3265 162.392 77.3265 162.691V163.499C77.3265 163.798 77.569 164.04 77.868 164.04H78.5009C78.8 164.04 79.0425 163.798 79.0425 163.499V162.691C79.0425 162.392 78.8 162.15 78.5009 162.15H77.868ZM75.9897 162.691C75.9897 161.654 76.8307 160.813 77.868 160.813H78.5009C79.5383 160.813 80.3792 161.654 80.3792 162.691V163.499C80.3792 164.536 79.5383 165.377 78.5009 165.377H77.868C76.8307 165.377 75.9897 164.536 75.9897 163.499V162.691Z" fill="#191919"/>
<path fill-rule="evenodd" clip-rule="evenodd" d="M99.964 103.902C100.233 103.649 100.656 103.663 100.909 103.932L100.421 104.389C100.909 103.932 100.909 103.932 100.909 103.932L100.91 103.933L100.911 103.934L100.915 103.939C100.918 103.942 100.923 103.947 100.928 103.953C100.939 103.965 100.955 103.983 100.975 104.005C101.016 104.05 101.073 104.116 101.145 104.201C101.29 104.371 101.495 104.621 101.742 104.947C102.237 105.599 102.901 106.556 103.59 107.787C104.968 110.246 106.455 113.811 106.88 118.229C107.296 122.559 107.545 129.492 107.689 135.325C107.762 138.245 107.808 140.896 107.837 142.816C107.851 143.777 107.861 144.555 107.867 145.093C107.87 145.362 107.872 145.571 107.874 145.712C107.874 145.746 107.874 145.775 107.874 145.801C107.875 145.83 107.875 145.854 107.875 145.874L107.876 145.929C107.876 145.929 107.876 145.929 107.207 145.935C106.539 145.941 106.539 145.941 106.539 145.941L106.538 145.886C106.538 145.85 106.538 145.796 106.537 145.726C106.535 145.585 106.533 145.376 106.53 145.108C106.524 144.571 106.514 143.795 106.5 142.836C106.472 140.919 106.425 138.273 106.353 135.358C106.208 129.521 105.96 122.633 105.549 118.357C105.146 114.167 103.735 110.78 102.424 108.44C101.769 107.271 101.14 106.365 100.677 105.755C100.446 105.45 100.257 105.219 100.127 105.066C100.062 104.99 100.012 104.933 99.9789 104.896C99.9624 104.878 99.9502 104.864 99.9425 104.856C99.9387 104.852 99.936 104.849 99.9345 104.847L99.9332 104.846C99.9332 104.846 99.9332 104.846 99.9331 104.846M107.207 145.935L106.539 145.941C106.542 146.31 106.844 146.607 107.213 146.603C107.582 146.6 107.879 146.298 107.876 145.929L107.207 145.935Z" fill="#191919"/>
<path d="M107.539 156.012C111.093 156.012 113.975 153.131 113.975 149.577C113.975 146.023 111.093 143.141 107.539 143.141C103.985 143.141 101.104 146.023 101.104 149.577C101.104 153.131 103.985 156.012 107.539 156.012Z" fill="url(#paint2_linear_2284_523)"/>
<path d="M107.538 143.824C110.711 143.824 113.292 146.404 113.292 149.577C113.292 152.75 110.711 155.331 107.538 155.331C104.366 155.331 101.785 152.75 101.785 149.577C101.785 146.404 104.366 143.824 107.538 143.824ZM107.538 142.46C103.607 142.46 100.421 145.646 100.421 149.577C100.421 153.508 103.607 156.695 107.538 156.695C111.47 156.695 114.656 153.508 114.656 149.577C114.656 145.646 111.47 142.46 107.538 142.46Z" fill="#191919"/>
<path d="M107.539 152.372C105.999 152.372 104.745 151.118 104.745 149.578C104.745 148.038 105.999 146.784 107.539 146.784C109.079 146.784 110.332 148.038 110.332 149.578C110.332 151.118 109.079 152.372 107.539 152.372Z" fill="url(#paint3_linear_2284_523)"/>
<path d="M107.539 147.466C108.704 147.466 109.651 148.414 109.651 149.578C109.651 150.741 108.703 151.689 107.539 151.689C106.376 151.689 105.428 150.741 105.428 149.578C105.428 148.414 106.376 147.466 107.539 147.466ZM107.539 146.102C105.62 146.102 104.063 147.658 104.063 149.578C104.063 151.497 105.62 153.053 107.539 153.053C109.458 153.053 111.015 151.497 111.015 149.578C111.015 147.658 109.458 146.102 107.539 146.102Z" fill="#191919"/>
</g>
<defs>
<radialGradient id="paint0_radial_2284_523" cx="0" cy="0" r="1" gradientUnits="userSpaceOnUse" gradientTransform="translate(96.9438 37.9594) scale(102.419 102.419)">
<stop stop-color="#B5EADD"/>
<stop offset="1" stop-color="#D0D4F9"/>
</radialGradient>
<linearGradient id="paint1_linear_2284_523" x1="93.1384" y1="260.055" x2="89.1664" y2="126.312" gradientUnits="userSpaceOnUse">
<stop stop-color="#FFC895"/>
<stop offset="1" stop-color="#B5EADD"/>
</linearGradient>
<linearGradient id="paint2_linear_2284_523" x1="101.104" y1="149.577" x2="113.973" y2="149.577" gradientUnits="userSpaceOnUse">
<stop stop-color="#FFC895"/>
<stop offset="1" stop-color="#B5EADD"/>
</linearGradient>
<linearGradient id="paint3_linear_2284_523" x1="104.744" y1="149.577" x2="110.332" y2="149.577" gradientUnits="userSpaceOnUse">
<stop stop-color="#FFC895"/>
<stop offset="1" stop-color="#B5EADD"/>
</linearGradient>
</defs>
</svg>
