<svg width="177" height="177" viewBox="0 0 177 177" fill="none" xmlns="http://www.w3.org/2000/svg">
<mask id="mask0_2220_5185" style="mask-type:luminance" maskUnits="userSpaceOnUse" x="0" y="0" width="177" height="177">
<path d="M88.5 177C137.377 177 177 137.377 177 88.5C177 39.6228 137.377 0 88.5 0C39.6228 0 0 39.6228 0 88.5C0 137.377 39.6228 177 88.5 177Z" fill="white"/>
</mask>
<g mask="url(#mask0_2220_5185)">
<path d="M-37.4989 221.961L210.124 221.961L210.124 -29.6341L-37.4989 -29.6341L-37.4989 221.961Z" fill="white"/>
<path d="M133.916 55.7471C133.814 55.6038 133.715 55.4565 133.617 55.3105C133.684 55.4415 133.786 55.5916 133.916 55.7471Z" fill="#C0EBE3"/>
<path d="M134.257 50.5971C134.621 50.428 134.76 50.3188 134.761 50.2656C134.422 50.4334 134.156 50.5903 134.257 50.5971Z" fill="#C0EBE3"/>
<path d="M126.552 55.0186C126.706 54.9068 126.831 54.8072 126.967 54.7021C126.786 54.7949 126.616 54.9068 126.552 55.0186Z" fill="#C0EBE3"/>
<path d="M133.917 55.7471C134.173 56.1208 134.437 56.4905 134.707 56.8574C134.9 56.8029 134.323 56.2668 133.917 55.7471Z" fill="#C0EBE3"/>
<path d="M176.374 30.8218C176.65 30.8 176.881 30.7522 177.092 30.6895C176.865 30.7099 176.645 30.7263 176.419 30.7372C176.406 30.7672 176.395 30.7918 176.374 30.8218Z" fill="#C0EBE3"/>
<path d="M129.473 35.1092C129.585 35.0055 129.695 34.9004 129.814 34.809C129.878 34.6781 129.929 34.5403 129.97 34.3984C129.798 34.6344 129.625 34.8595 129.473 35.1092Z" fill="#C0EBE3"/>
<path d="M145.89 29.6592C145.507 29.6974 145.443 30.1761 145.328 30.3985C145.514 30.1789 145.78 30.0411 146.108 29.9606C146.102 29.8733 146.037 29.7738 145.891 29.6592H145.89Z" fill="#C0EBE3"/>
<path d="M172.628 28.9196L173.102 28.8555C172.979 28.8759 172.772 28.8937 172.628 28.9196Z" fill="#C0EBE3"/>
<path d="M127.813 47.6113C127.763 47.6659 127.733 47.7491 127.729 47.8283C127.782 47.8051 127.805 47.7232 127.813 47.6113Z" fill="#C0EBE3"/>
<path d="M115.79 66.8028C115.812 66.7796 115.817 66.7714 115.836 66.7496C116.027 66.3731 115.902 66.575 115.79 66.8028Z" fill="#C0EBE3"/>
<path d="M83.0318 14.7451C83.4028 14.9729 83.4124 15.0656 83.2596 15.0957C83.1832 15.1107 83.0645 15.1107 82.9295 15.1038C82.7945 15.0984 82.639 15.0916 82.4916 15.0861C81.8997 15.0602 81.4222 15.0725 82.5503 15.6372C82.508 15.5785 82.6349 15.543 82.8204 15.5144C83.0045 15.4898 83.2487 15.4694 83.4383 15.4312C83.8188 15.3521 83.9921 15.1952 83.0318 14.7451Z" fill="#C0EBE3"/>
<path d="M175.942 30.7549C175.715 30.7576 175.486 30.7603 175.257 30.7549C175.569 30.7726 175.779 30.7726 175.942 30.7549Z" fill="#C0EBE3"/>
<path d="M82.5479 15.6367V15.6408C82.6242 15.679 82.7033 15.7144 82.7797 15.7553C82.6842 15.7035 82.6297 15.679 82.5479 15.6381V15.6367Z" fill="#C0EBE3"/>
<path d="M106.841 102.335C106.789 102.202 106.653 102.01 106.519 101.813C106.511 101.837 106.519 101.882 106.566 101.963C106.614 102.044 106.689 102.171 106.841 102.336V102.335Z" fill="#C0EBE3"/>
<path d="M111.804 75.249L111.438 75.811C111.597 75.5954 111.713 75.4127 111.804 75.249Z" fill="#C0EBE3"/>
<path d="M119.123 94.3519C119.274 94.0054 119.379 93.9018 119.466 93.3916C119.429 93.4312 119.401 93.4707 119.367 93.5253C119.375 93.7217 119.327 93.9686 119.123 94.3519Z" fill="#C0EBE3"/>
<path d="M121.093 79.7266C121.058 79.8043 121.032 79.9066 121 79.9966C121.01 80.1412 121.016 80.3118 121.022 80.4605L121.093 79.7266Z" fill="#C0EBE3"/>
<path d="M21.7309 71.3745C21.514 71.1276 21.4049 70.9134 21.3272 70.7266C21.3572 70.9189 20.8934 70.837 20.7079 70.8289C20.6151 70.8248 20.5906 70.8385 20.7297 70.9121C20.8675 70.9899 21.1785 71.1126 21.7295 71.3745H21.7309Z" fill="#C0EBE3"/>
<path d="M176.369 30.5615C176.283 30.6775 176.16 30.7334 175.94 30.7552C176.105 30.7525 176.262 30.7457 176.418 30.7375C176.46 30.6693 176.471 30.6038 176.369 30.5615Z" fill="#C0EBE3"/>
<path d="M115.83 92.6727C116.059 92.018 116.262 91.3427 116.443 90.6553C116.272 91.2186 116.048 91.9525 115.83 92.6727Z" fill="#C0EBE3"/>
<path d="M19.1548 70.6543L19.2066 71.1644C19.2189 70.968 19.2066 70.788 19.1548 70.6543Z" fill="#C0EBE3"/>
<path d="M117.289 84.2872C117.48 83.9093 117.601 83.4974 117.685 83.0705C117.653 82.9777 117.629 82.8713 117.578 82.8086C117.488 83.3051 117.391 83.7975 117.289 84.2872Z" fill="#C0EBE3"/>
<path d="M21.3247 70.7197L21.3274 70.7265C21.3274 70.7265 21.3274 70.7238 21.3247 70.7197Z" fill="#C0EBE3"/>
<path d="M7.14872 67.7792C7.40652 67.8187 7.61657 67.8405 7.78708 67.8514C7.95758 67.8651 8.08852 67.8624 8.19083 67.8501C8.39407 67.8242 8.48002 67.7519 8.51548 67.6591C8.58778 67.475 8.46228 67.2104 8.71326 67.0767C9.34481 67.1367 9.72403 67.2253 9.95318 67.3085C10.1823 67.3931 10.2601 67.4818 10.2846 67.5732C10.3324 67.7587 10.166 67.9633 10.5492 68.1979C11.324 68.2893 12.0388 68.2566 12.6962 68.2688C13.0263 68.2729 13.3455 68.2702 13.6497 68.3043C13.9539 68.3357 14.2472 68.3861 14.5268 68.4707C14.5841 68.5907 14.7914 68.6863 14.5009 68.7354C14.9333 68.7258 15.4407 68.8295 15.9959 68.9604C16.2741 69.0245 16.5565 69.1187 16.8497 69.2073C17.1403 69.3015 17.4431 69.3887 17.7404 69.4979C18.3365 69.7066 18.9435 69.9112 19.5178 70.098C19.8056 70.1908 20.0934 70.2617 20.3648 70.3327C20.6376 70.4022 20.9009 70.4527 21.1546 70.4813C21.2651 70.5891 21.3101 70.6641 21.3238 70.7214C21.1628 70.3176 21.2419 70.0135 21.392 69.8389C21.8366 70.0217 22.2759 70.1348 22.6333 70.2521C22.9893 70.3708 23.2553 70.5045 23.3248 70.7691C23.067 70.6259 22.9047 70.5945 22.7724 70.5904C22.6401 70.5877 22.5364 70.6163 22.3864 70.6136C22.7124 70.7064 23.0411 70.7951 23.3617 70.9015C23.6317 71.3625 23.3057 71.2493 22.891 71.0692C22.4696 70.9015 21.9553 70.6696 21.8653 70.8619C22.3195 71.0297 22.8079 71.1797 23.2853 71.3598C23.5267 71.4457 23.7695 71.533 24.0096 71.6189C24.251 71.7062 24.4829 71.8058 24.7161 71.8986C24.948 71.9941 25.1758 72.0895 25.3968 72.1877C25.6137 72.2914 25.8237 72.3978 26.0242 72.5042C26.2247 72.6106 26.4144 72.7197 26.5931 72.8302C26.7676 72.9447 26.9272 73.0635 27.0718 73.1835C27.0609 73.3431 26.8658 73.3131 26.6053 73.2039C26.3461 73.0907 26.0038 72.9202 25.7146 72.7647C25.4241 72.6119 25.1799 72.481 25.094 72.4878C25.0094 72.4919 25.0953 72.6133 25.4486 72.9775C25.1458 72.7456 24.8321 72.5329 24.517 72.316L24.045 71.99C23.8868 71.8822 23.7245 71.7826 23.5635 71.6776C23.85 72.0732 23.9114 72.2273 23.8677 72.2628C23.8241 72.2941 23.6699 72.2082 23.5117 72.1222C23.1925 71.949 22.861 71.7771 23.3425 72.5574C23.4217 72.6037 23.4994 72.6488 23.5744 72.6924C23.6481 72.7374 23.7204 72.7824 23.7913 72.8261C23.9318 72.912 24.0668 72.9911 24.1951 73.0648C24.4501 73.2148 24.6888 73.3349 24.9003 73.459C25.3258 73.7018 25.7023 73.8764 26.0638 74.0701C26.7867 74.4589 27.5247 74.8435 28.6323 75.7997C29.347 75.9565 28.7373 75.3005 29.4589 75.4628C29.9199 75.7356 30.2787 76.0097 30.5801 76.2539C30.8775 76.5035 31.093 76.7491 31.2717 76.9687C31.6304 77.4065 31.7723 77.8062 31.9032 78.1595C31.9673 78.3368 32.026 78.5073 32.0969 78.6737C32.1637 78.8456 32.2429 79.0147 32.3561 79.188C32.4693 79.3612 32.6166 79.5371 32.8171 79.724C33.0095 79.9177 33.2523 80.125 33.5701 80.3515C33.9738 80.5247 34.3421 80.5793 34.7636 80.8261C34.9723 80.9516 35.1974 81.1208 35.4129 81.4004C35.5234 81.5382 35.6366 81.7005 35.7512 81.8901C35.8085 81.9856 35.8671 82.0865 35.9271 82.1956C35.9831 82.3075 36.0363 82.4289 36.0922 82.5571L35.6271 82.4194L35.1524 82.298C35.9176 83.4737 36.3063 83.7056 36.6746 83.9811C36.8588 84.1189 37.0388 84.2663 37.2394 84.5582C37.3335 84.7069 37.4317 84.8924 37.5381 85.1297C37.5913 85.2484 37.6458 85.3793 37.7045 85.5253C37.7331 85.5989 37.7631 85.6753 37.7918 85.7558C37.8163 85.839 37.8436 85.925 37.8709 86.0163C37.6581 85.8227 37.3416 85.3561 37.1179 84.981C37.0047 84.7928 36.9092 84.6305 36.8424 84.5445C36.7797 84.4572 36.7565 84.4409 36.7933 84.5418C36.8642 84.7778 36.9106 84.9796 36.9692 85.1406C37.0265 85.3029 37.0838 85.4311 37.1438 85.5348C37.2612 85.7435 37.3921 85.8513 37.519 85.9481C37.774 86.1405 38.0632 86.2591 38.3756 86.9398L37.9841 87.454C38.6429 88.8795 39.355 90.3662 40.0315 91.9144C40.7054 93.4612 41.3355 95.0749 41.7898 96.7336C41.5811 96.5862 41.2714 96.0652 41.2974 96.8781C41.6111 97.9012 41.8607 98.976 42.0107 100.065C42.1608 101.153 42.2113 102.257 42.1308 103.308C42.1049 103.569 42.0899 103.833 42.0462 104.084L41.9903 104.464L41.9125 104.829L41.8743 105.011C41.8607 105.071 41.8416 105.128 41.8266 105.187C41.7939 105.302 41.7625 105.418 41.7298 105.534C41.6916 105.645 41.652 105.754 41.6138 105.863C41.5947 105.918 41.577 105.972 41.5552 106.025L41.4869 106.178C41.3164 106.593 41.1023 106.952 40.8718 107.256C40.6399 107.559 40.3944 107.811 40.1284 107.996C40.0002 108.336 39.8119 108.672 39.5459 108.985C39.4859 109.013 39.4232 109.028 39.3659 109.032C39.3072 109.032 39.254 109.019 39.2172 108.999C39.1435 108.958 39.1299 108.879 39.2377 108.789C39.0999 108.815 39.0044 108.846 38.9294 108.867C38.853 108.886 38.8052 108.905 38.7766 108.927C38.7207 108.969 38.7439 109.014 38.7902 109.064C38.8789 109.165 39.074 109.281 38.8148 109.464C38.7289 109.49 38.6456 109.506 38.572 109.519C38.4983 109.532 38.4315 109.536 38.3688 109.531C38.2474 109.523 38.1587 109.497 38.1082 109.46C38.0059 109.384 38.0509 109.261 38.2515 109.153C38.1873 109.176 38.1219 109.201 38.055 109.225C37.9841 109.244 37.9118 109.265 37.8382 109.285C37.6922 109.332 37.5272 109.355 37.358 109.39C37.0143 109.44 36.6337 109.48 36.2218 109.465C35.8112 109.457 35.372 109.416 34.9232 109.33C34.6981 109.295 34.4717 109.235 34.2439 109.182C34.0175 109.115 33.787 109.056 33.5619 108.974C32.6521 108.669 31.7709 108.219 31.0125 107.702C30.2514 107.188 29.6239 106.594 29.1806 106.028C29.347 106.119 29.523 106.196 29.6908 106.279C28.9215 105.502 28.3336 105.234 27.7607 104.926C27.4756 104.773 27.2068 104.604 26.9477 104.353C26.694 104.099 26.4498 103.762 26.2629 103.265C26.3584 103.36 26.4526 103.456 26.5549 103.546C26.4703 103.42 26.3966 103.289 26.3175 103.16C26.2384 103.03 26.1607 102.9 26.0897 102.768C26.0161 102.633 25.941 102.51 25.8674 102.364C25.7937 102.221 25.7187 102.078 25.6451 101.935C25.3381 101.369 25.0612 100.774 24.7693 100.189C24.4979 99.5912 24.2142 99.0006 23.9659 98.395C23.8404 98.0935 23.704 97.7975 23.5894 97.4947C23.4721 97.1919 23.3548 96.8918 23.2389 96.5931C22.3291 94.1965 21.7112 91.8381 21.5611 89.8438C21.347 89.7061 21.1806 89.3214 21.0346 88.8208C20.9978 88.6953 20.9623 88.563 20.9296 88.4252C20.8982 88.2874 20.8682 88.1429 20.8395 87.9969C20.7836 87.7037 20.725 87.3981 20.6677 87.0953C20.6104 86.7938 20.5531 86.4951 20.4985 86.2141C20.4412 85.9345 20.3785 85.674 20.3062 85.4489C20.1575 85.0001 19.9829 84.6905 19.7306 84.6523C19.721 83.898 19.7251 83.3864 19.7524 82.9745C19.7797 82.5626 19.8097 82.2529 19.8302 81.9065C19.8397 81.7332 19.8479 81.5519 19.8506 81.3445C19.8561 81.1372 19.8615 80.9025 19.8615 80.6243C19.8615 80.3474 19.8547 80.0268 19.8438 79.6463C19.8288 79.2657 19.8315 78.8238 19.8165 78.3068C19.7988 78.0313 19.7429 77.7953 19.6637 77.5743C19.5874 77.3533 19.4932 77.146 19.3909 76.9305C19.29 76.7149 19.1822 76.4913 19.0881 76.2362C18.9954 75.9797 18.9081 75.6933 18.8699 75.351L19.3746 75.2882L19.0622 74.3729C18.9585 74.0673 18.8494 73.7591 18.758 73.4508L19.3432 72.4469L19.2641 71.8085L19.204 71.1688C19.1877 71.4239 19.1263 71.6953 19.0568 71.8931C18.9899 72.0923 18.9067 72.2178 18.833 72.1796C18.8167 72.0541 18.8003 71.9245 18.7921 71.7935C18.7853 71.6612 18.7799 71.5275 18.7785 71.3911C18.7744 71.1197 18.7826 70.8414 18.7976 70.5632C18.8153 70.2863 18.8317 70.0094 18.8699 69.742C18.9081 69.4747 18.9503 69.2155 18.9981 68.9727C19.0949 68.4871 19.1904 68.0643 19.3037 67.7642C19.4128 67.4627 19.511 67.2813 19.5765 67.2731L19.5505 66.0918L19.5628 64.912C19.5587 64.1222 19.6119 63.3378 19.6447 62.5481C19.8329 62.6817 19.7947 63.4729 19.8383 64.1017C19.7524 62.8291 19.9011 62.7309 20.0498 62.6668C20.2025 62.5999 20.3362 62.5617 20.3048 61.3996C20.1384 61.6819 20.0361 61.1841 19.9434 61.1145C20.0061 60.9795 20.0675 60.8226 20.1275 60.6453C20.1848 60.4693 20.2489 60.2742 20.3171 60.0669C20.4494 59.6509 20.5763 59.1762 20.6963 58.6756C20.9664 57.6826 21.2078 56.5845 21.4411 55.6556L21.6702 56.1071C22.1831 54.4703 22.7833 52.7775 23.483 51.0684C23.6658 50.6442 23.85 50.2185 24.0355 49.7889C24.2428 49.3715 24.4515 48.95 24.6616 48.5285L24.8198 48.212C24.8744 48.1057 24.9371 47.9979 24.9944 47.8916C25.1131 47.6774 25.2317 47.4632 25.3518 47.2491C25.5877 46.8181 25.8469 46.3993 26.0979 45.9764C25.2304 47.1045 24.8716 46.5234 25.4254 45.4881C25.6573 45.4472 25.8906 45.4076 26.1265 45.3708C26.2425 44.5578 25.3095 46.2983 25.7828 44.772C26.6272 43.5416 26.8263 44.255 26.5262 45.0639C26.7867 44.5224 27.0623 43.9876 27.3392 43.4516C27.5301 43.4516 27.3706 43.8499 27.4824 44.0531C27.5124 43.854 27.6611 43.6112 27.8698 43.3411C28.0826 43.0737 28.354 42.7805 28.6241 42.475C29.1724 41.868 29.7194 41.2187 29.8026 40.6253L29.9909 40.6389C31.1571 39.0621 32.0165 37.9259 32.8362 36.8715C33.6642 35.8239 34.4445 34.8527 35.5357 33.6837C35.3884 33.501 35.5534 33.2036 35.8044 32.8312C36.0526 32.4561 36.3991 32.0196 36.6105 31.549C37.0538 31.1548 37.5394 30.7811 38.0277 30.3896C38.5283 30.0131 39.033 29.6189 39.5636 29.2356C40.0861 28.8428 40.6303 28.454 41.1732 28.0434C41.7243 27.6438 42.2713 27.2182 42.8319 26.7872C43.012 26.6139 43.1511 26.4734 43.2575 26.3588C43.3652 26.247 43.4402 26.1597 43.4907 26.0915C43.5916 25.9551 43.593 25.891 43.5657 25.8473C43.5112 25.7587 43.342 25.7464 43.6271 25.3699C43.9845 25.6045 46.302 23.9881 45.2585 25.063C45.9514 24.576 46.523 24.1818 47.0522 23.8381C47.576 23.4835 48.0589 23.1861 48.5581 22.856C49.5689 22.2204 50.6628 21.4988 52.5397 20.4362C52.0446 20.4758 51.5317 20.6326 51.7172 20.3857C52.0596 20.1893 52.4838 20.0393 52.8194 19.9697C53.1576 19.9056 53.4059 19.922 53.395 20.0366L53.2245 20.1579C55.306 18.888 58.0709 18.2169 60.6885 17.865C61.9993 17.6822 63.2761 17.554 64.4519 17.4217C64.7451 17.3835 65.0329 17.3467 65.3139 17.3112C65.5949 17.2744 65.8677 17.2253 66.1337 17.1789C66.6657 17.0971 67.1649 16.9661 67.6287 16.8324L67.42 16.8897C68.709 16.6305 70.0185 16.4518 71.3416 16.325C72.2514 16.385 71.9732 16.4573 71.6403 16.5514C71.3061 16.6456 70.9188 16.7615 71.5803 16.9102C73.6987 16.621 75.386 16.8461 76.9314 17.1612C78.4837 17.4831 79.9023 17.8923 81.6469 18.161C82.2089 18.6507 83.0477 19.0776 84.0353 19.5046C84.2849 19.6055 84.5373 19.7242 84.8005 19.832C85.0624 19.9438 85.3366 20.0448 85.6108 20.1621C86.1591 20.3953 86.7361 20.6163 87.309 20.87C87.8887 21.1087 88.463 21.3801 89.0331 21.6461C89.3182 21.7798 89.5938 21.9285 89.8693 22.069C90.1435 22.2122 90.4149 22.3513 90.6727 22.5082C91.1911 22.8123 91.6862 23.1138 92.124 23.4425C92.3436 23.6035 92.5537 23.7645 92.7488 23.9254C92.9411 24.0905 93.1198 24.2596 93.2821 24.426L93.2671 24.0646C93.7404 24.205 93.96 24.3987 94.1223 24.6102C94.2778 24.8257 94.3842 25.0535 94.6407 25.2785C94.698 25.0357 93.9696 24.4888 94.5343 24.6866C96.2025 25.7423 97.7711 27.0354 99.2102 28.4895C100.651 29.9435 101.966 31.5572 103.158 33.265C105.548 36.686 107.449 40.4616 109.097 44.2468C109.402 44.937 109.679 45.3435 109.942 45.6245C110.208 45.9041 110.459 46.0555 110.704 46.2411C110.949 46.4252 111.184 46.6421 111.41 47.054C111.637 47.466 111.852 48.0743 112.039 49.0373C111.739 48.7618 111.435 48.4903 111.132 48.2202C112.582 50.9483 113.59 53.9601 114.415 56.991C115.243 60.026 115.888 63.0828 116.674 66.025C116.49 65.6895 116.327 65.7085 116.224 65.1261C116.146 65.7904 116.34 66.9498 116.574 67.9497C116.809 68.9481 117.093 69.7856 117.254 69.7775C117.334 70.7186 116.993 70.0312 116.899 70.6259C116.859 71.2738 117.07 72.0554 117.244 72.7701C117.416 73.4849 117.554 74.1315 117.382 74.4834C117.327 74.6034 117.229 74.1356 117.179 73.9051C117.311 74.3116 117.364 75.28 117.426 76.0411C117.488 76.8036 117.558 77.3629 117.771 76.955C117.708 78.0913 117.777 79.1689 117.817 80.1933C117.857 81.2163 117.865 82.1848 117.685 83.0727C117.913 83.6702 117.787 84.6318 117.67 85.483C117.555 86.3369 117.446 87.083 117.78 87.3149C117.421 87.1881 117.151 88.1374 116.926 89.2709C116.708 90.4085 116.503 91.7303 116.471 92.4368C116.43 92.1859 116.287 92.4546 116.138 92.7069C115.985 92.9579 115.824 93.1898 115.757 92.8924C115.528 93.6181 115.302 94.2974 115.179 94.7789C115.056 95.2604 115.047 95.5605 115.276 95.5305C114.772 96.0502 114.385 96.5794 114.03 97.08C113.68 97.5834 113.355 98.0525 113.012 98.4454C112.838 98.6391 112.661 98.811 112.477 98.9556C112.291 99.0933 112.103 99.2107 111.911 99.2761C111.529 99.4166 111.141 99.3921 110.833 99.1452C110.738 99.1684 110.644 99.1929 110.544 99.2107C110.443 99.227 110.342 99.2461 110.249 99.2543C110.151 99.2693 110.068 99.2679 109.978 99.2761C109.897 99.2734 109.81 99.2802 109.739 99.272C109.588 99.2638 109.458 99.2447 109.346 99.2093C109.233 99.1752 109.131 99.1315 109.027 99.0674C108.828 98.9337 108.613 98.6977 108.441 98.3431C108.263 97.9966 108.132 97.556 108.044 97.0868C107.864 96.1402 107.855 95.0749 107.928 94.0191C108.003 92.9579 108.169 91.8899 108.383 90.8328C108.726 90.9992 108.457 92.149 108.304 93.2498C108.227 93.7995 108.176 94.3369 108.202 94.7229C108.227 95.1103 108.323 95.3449 108.518 95.3136C108.494 94.3887 108.521 93.5104 108.577 92.6742C108.633 91.8367 108.713 91.0387 108.836 90.2421C109.084 88.6503 109.475 87.0585 110.294 85.1666C110.772 84.209 110.375 85.8472 110.378 86.2237C110.942 84.239 111.744 82.3935 112.576 80.6311C113.408 78.8661 114.268 77.1787 114.989 75.4573C115.045 75.4996 114.916 75.8856 114.787 76.2457C115.112 75.591 115.705 74.8135 115.371 74.7194L115.103 75.3864C114.606 75.7792 114.729 75.0195 114.976 74.1274C115.22 73.2367 115.598 72.2218 115.521 72.0977C115.614 72.8861 116.139 72.1195 116.656 71.4621C117.175 70.8032 117.672 70.2535 117.664 71.413C117.863 70.9724 118.057 70.379 117.807 70.349C118.252 69.7829 118.485 69.6684 118.307 70.4131C118.941 69.2687 119.071 68.8458 119.199 68.4585C119.33 68.0738 119.457 67.7219 120.152 66.7561C120.28 66.8584 120.053 67.2854 120.069 67.5964C120.501 66.4383 120.956 65.2571 122.314 63.7689C122.317 63.9258 122.56 63.8208 122.189 64.2886C123.232 62.9246 124.017 61.6724 124.913 60.4447C125.809 59.2226 126.816 58.0099 128.327 56.8737C128.15 57.5066 128.428 57.3361 128.817 57.0551C129.012 56.9146 129.238 56.7509 129.447 56.6418C129.658 56.5354 129.853 56.485 129.988 56.5736C130.458 56.1126 130.94 55.6652 131.436 55.2355C131.163 55.3037 130.894 55.3855 130.62 55.4633C131.317 54.9436 131.925 54.3925 132.549 53.9056C133.171 53.42 133.809 52.9985 134.518 52.7748C134.172 53.0367 133.834 53.2999 133.506 53.5823C134.416 53.0271 135.365 52.5566 136.341 52.1937C135.757 52.3015 135.17 52.4515 134.585 52.637C134.947 52.382 135.106 52.2278 135.166 52.1077C135.228 51.9904 135.191 51.9155 135.177 51.85C135.163 51.7845 135.17 51.7258 135.324 51.6413C135.479 51.558 135.779 51.4394 136.356 51.3098C136.136 51.4121 136.557 51.2702 137.164 51.1693C137.769 51.0629 138.559 51.0356 139.007 51.2007C139.007 51.2007 139.002 51.2007 139.002 51.2021C139.412 51.0848 139.845 50.9797 140.335 50.9702C140.579 50.9674 140.836 50.9811 141.108 51.0329C141.382 51.0834 141.682 51.1679 141.996 51.2716C142.142 51.4066 142.035 51.5567 141.92 51.6945C141.802 51.835 141.675 51.9646 141.768 52.0519C142.239 51.8964 143.255 52.0927 144.271 52.3751C145.293 52.6506 146.31 53.0053 146.919 52.9766C146.531 52.9521 146.392 53.244 146.474 53.3504L146.885 53.2972L147.297 53.2562C147.642 53.4827 147.822 53.6382 147.897 53.746C147.969 53.8551 147.929 53.9247 147.814 54.0106C148.336 54.2998 148.572 54.3898 148.677 54.3775C148.782 54.3639 148.757 54.2466 148.738 54.1415C148.719 54.0365 148.708 53.9451 148.849 53.9901C148.988 54.0352 149.289 54.207 149.849 54.6722C149.643 54.574 149.697 54.6872 149.268 54.4935C150.446 55.3146 151.562 56.1153 152.476 57.0715C152.927 57.5489 153.335 58.0604 153.622 58.6183C153.913 59.1693 154.091 59.7682 154.074 60.3275C153.928 60.498 153.838 60.4529 153.781 60.3329C153.725 60.2115 153.676 59.996 153.612 59.7804C153.542 59.5649 153.457 59.3494 153.372 59.2471C153.285 59.1435 153.215 59.1557 153.165 59.3699C153.317 59.715 153.42 60.0601 153.466 60.3833L153.484 60.5047L153.491 60.622C153.502 60.7025 153.491 60.7749 153.493 60.8526C153.48 60.9999 153.467 61.1472 153.421 61.2823C153.347 61.5592 153.188 61.8142 152.949 62.0543C152.71 62.2943 152.372 62.4949 151.99 62.6504C151.607 62.8045 151.176 62.9096 150.727 62.9709C150.278 63.0323 149.812 63.0419 149.347 63.0242C148.412 62.9791 147.477 62.8005 146.597 62.5126C146.811 62.5999 147.029 62.6722 147.246 62.7541C146.896 63.1142 146.226 62.8427 145.454 62.4021C144.676 61.9657 143.802 61.3777 142.853 61.1704C143.305 61.3041 143.603 60.9754 143.45 61.0149C143.308 60.9413 143.165 60.869 143.02 60.7994C142.877 60.7298 142.722 60.6575 142.608 60.5975C142.361 60.4707 142.096 60.322 141.824 60.1597C141.278 59.8364 140.701 59.4681 140.094 59.0561C138.883 58.2295 137.54 57.2406 136.075 55.9148C136.24 55.9816 136.409 56.0444 136.575 56.1071C136.111 55.4933 135.45 54.7445 134.799 53.9642C134.147 53.1854 133.514 52.3737 133.071 51.6876C132.6 51.4339 132.094 50.6387 132.154 51.2934C131.918 50.681 131.666 50.1013 131.407 49.5406C131.144 48.9828 130.876 48.4426 130.606 47.9133C130.069 46.8562 129.534 45.8318 129.115 44.7774C128.705 43.7271 128.409 42.6332 128.425 41.5501C128.431 41.4151 128.425 41.28 128.443 41.1464L128.491 40.7481C128.542 40.4875 128.597 40.2284 128.69 39.9815C128.867 39.4891 129.119 39.028 129.474 38.6543C129.422 38.7607 129.377 38.8821 129.34 38.9994C129.312 39.1194 129.293 39.234 129.283 39.3226C129.264 39.5 129.286 39.5778 129.354 39.4086C129.658 38.3597 130.299 37.4103 131.131 36.5878C130.905 36.5373 130.779 36.5768 130.616 36.6628C130.575 36.686 130.531 36.7091 130.483 36.7364C130.438 36.7664 130.388 36.7992 130.332 36.8347C130.222 36.9083 130.073 36.982 129.896 37.0843C129.921 36.9534 129.996 36.8115 130.084 36.6451C130.17 36.4759 130.295 36.304 130.437 36.1253C130.719 35.7652 131.107 35.4188 131.505 35.1446C131.182 35.4488 131.05 35.6289 131.044 35.7325C131.037 35.8321 131.142 35.8403 131.307 35.8062C131.476 35.7775 131.703 35.7066 131.928 35.6288C132.158 35.5633 132.394 35.4952 132.573 35.4433C132.411 35.4038 132.557 35.1678 132.446 35.0969C132.704 35.0518 132.894 35.0082 133.034 34.9605C133.175 34.9113 133.276 34.8718 133.341 34.82C133.475 34.719 133.487 34.599 133.52 34.4626C133.551 34.3248 133.602 34.1693 133.821 34.0138C133.93 33.9347 134.08 33.8542 134.288 33.7724C134.498 33.6974 134.769 33.6292 135.113 33.5623L135.042 33.801C135.97 33.3618 136.839 32.8694 137.939 32.6252C138.222 32.7862 137.961 32.8926 137.643 33.029C137.323 33.1613 136.937 33.3018 136.952 33.4859C137.327 33.3768 137.686 33.2145 138.04 33.0467C138.398 32.8871 138.749 32.7098 139.101 32.5489C139.803 32.2161 140.519 31.9869 141.261 32.0551C140.944 32.1833 140.551 32.2965 140.157 32.4097C140.059 32.4384 139.961 32.467 139.864 32.4943C139.768 32.527 139.673 32.5584 139.58 32.5898C139.395 32.6539 139.22 32.7194 139.065 32.7876C139.471 32.8244 139.782 32.8367 140.041 32.8449C140.302 32.8544 140.508 32.8476 140.697 32.8285C141.079 32.793 141.401 32.7139 141.969 32.6375L141.855 32.6485C142.296 32.6021 142.739 32.568 143.181 32.527C143.623 32.4902 144.062 32.4425 144.506 32.4193C144.275 32.407 144.046 32.3947 143.817 32.3906C144.251 32.0196 144.72 31.7987 145.211 31.6336C145.703 31.4713 146.219 31.3744 146.76 31.3062C147.302 31.2339 147.865 31.1684 148.453 31.0566C149.043 30.9543 149.656 30.8016 150.3 30.5397C147.804 31.5381 149.921 30.9966 149.778 31.5149C150.121 31.5463 150.553 31.5695 150.864 31.6118C151.175 31.6554 151.365 31.7114 151.226 31.7959C151.829 31.5354 152.357 31.5654 152.946 31.564C153.536 31.5681 154.186 31.5517 155.046 31.1862C155.136 31.3349 156.385 31.1071 156.131 31.5286C157.748 31.294 155.729 31.2748 155.85 31.0648C156.468 30.8861 157.15 30.8111 157.88 30.7906C158.61 30.7756 159.387 30.8097 160.199 30.837C161.011 30.8738 161.855 30.897 162.721 30.8643C163.589 30.8384 164.477 30.7361 165.378 30.5287C166.158 30.4346 166.779 30.3255 167.316 30.2177C167.855 30.1113 168.309 29.9995 168.758 29.889C169.656 29.6667 170.527 29.462 171.986 29.3202C172.478 29.4497 172.276 29.5957 171.953 29.7089C171.63 29.8208 171.184 29.9081 171.184 29.9081C172.769 30.1399 173.957 30.1004 175.452 29.9312C175.147 30.069 175.458 30.1904 175.911 30.3745C177.108 30.3514 176.72 29.8003 178.296 30.0636C178.021 30.2368 177.668 30.5178 177.09 30.6896C178.5 30.5614 179.898 30.2941 181.363 30.1891C181.743 30.4796 180.471 30.5901 179.953 30.7592C181.594 30.672 184.206 30.6324 184.73 30.2122L183.682 30.0145C184.281 30.0159 183.975 30.406 183.532 30.4715C182.116 30.7729 181.511 30.2532 181.434 30.0909L182.478 30.02C181.436 29.0419 178.29 30.0527 176.2 29.9777L177.084 29.3052C176.364 29.4825 175.644 29.6625 174.926 29.848C174.471 29.6666 174.16 29.2806 175.198 29.1865C173.695 28.8346 173.864 29.4184 172.572 29.0392C172.429 28.9806 172.494 28.9478 172.627 28.9205L171.155 29.1265C171.443 28.9819 170.908 28.6436 171.814 28.7391C169.165 28.3531 167.557 29.2902 166.554 28.7923L166.774 28.7446C164.942 28.9028 164.857 29.031 164.887 29.2001C164.919 29.3706 165.062 29.5793 163.702 29.919C163.074 29.5261 162.443 29.1292 161.809 28.7459L161.469 29.2643C161.09 29.2629 160.341 29.2574 160.469 29.0501C159.079 29.4593 160.719 29.2547 159.918 29.6203C158.074 29.252 154.928 30.1331 154.459 29.3816C153.838 29.8153 156.217 29.5357 154.301 29.9572C153.991 29.5507 153.432 29.6298 152.742 29.7867C152.052 29.9504 151.233 30.1781 150.385 30.0676C150.846 29.5684 152.447 29.6571 150.743 29.4211C150.28 29.8453 149.471 29.8999 148.599 29.8794C147.729 29.8631 146.795 29.8017 146.104 29.9627C146.113 30.2587 145.365 30.4401 144.326 30.6119C143.806 30.6924 143.215 30.8002 142.611 30.9106C142.308 30.9666 142.003 31.0266 141.701 31.0921C141.401 31.1644 141.104 31.2435 140.82 31.3267C140.875 31.219 139.762 31.3376 138.368 31.6008C137.666 31.7127 136.903 31.8927 136.169 32.0482C135.986 32.0878 135.805 32.1233 135.627 32.1656C135.449 32.2106 135.273 32.2542 135.103 32.2965C134.762 32.3743 134.449 32.4684 134.169 32.542L134.198 32.4247C134.146 32.6075 133.964 32.778 133.709 32.9744C133.581 33.0699 133.433 33.1654 133.267 33.2623C133.104 33.3605 132.929 33.471 132.742 33.5774C131.999 34.007 131.12 34.5376 130.479 35.1269C130.395 34.9659 130.388 34.7968 130.5 34.5963C130.613 34.3985 130.826 34.1298 131.202 33.8119L130.844 34.0384L130.494 34.2853C130.258 34.4449 130.037 34.6317 129.812 34.8118C129.63 35.2278 129.276 35.6343 128.637 36.5414C128.608 36.3382 128.583 36.1281 128.564 35.9139C128.379 36.1486 128.192 36.3805 128.038 36.6437C127.96 36.7733 127.874 36.8974 127.807 37.0351C127.739 37.1715 127.671 37.308 127.603 37.4458C127.354 38.0077 127.152 38.6011 127.026 39.2245C126.897 39.8465 126.821 40.4889 126.783 41.1559C126.749 41.8215 126.753 42.5104 126.773 43.2374C126.884 43.2634 126.992 43.1243 127.105 42.9551C127.222 42.7846 127.35 42.5841 127.478 42.475C127.608 42.3645 127.74 42.3454 127.871 42.5186C128.004 42.6918 128.125 43.056 128.324 43.7067C128.121 43.8458 127.75 44.0395 127.534 43.3111C127.562 43.4325 127.652 43.6385 127.728 43.8772C127.803 44.1159 127.889 44.3805 127.897 44.6315C127.789 44.4637 127.686 44.2932 127.579 44.1186C127.476 43.944 127.382 43.764 127.282 43.5839C127.309 44.2236 127.439 44.3668 127.56 44.4719C127.623 44.5251 127.686 44.5687 127.749 44.6588C127.813 44.7488 127.875 44.8838 127.934 45.1239C127.608 45.1989 127.937 45.8932 127.646 45.8386C127.593 45.72 127.552 45.5004 127.507 45.2671C127.466 45.0311 127.399 44.7897 127.296 44.6137C127.503 45.7472 127.845 47.095 127.811 47.616C127.875 47.5328 127.976 47.4892 128.107 47.5587C128.238 47.6283 128.398 47.8111 128.597 48.1726C129.079 49.1206 129.098 49.3169 129.021 49.4411C128.952 49.5611 128.796 49.602 129.042 50.1872C129.268 50.3577 129.512 50.7615 129.758 51.0916C129.882 51.2553 130.003 51.4025 130.122 51.4939C130.242 51.5826 130.357 51.6153 130.463 51.5553C130.804 52.0696 130.689 52.2878 130.719 52.5634C131.123 52.9521 131.902 53.9683 132.573 54.6912C133.243 55.4169 133.774 55.867 133.565 55.2382L133.409 55.0063C133.45 55.0391 133.491 55.0841 133.542 55.1264C134.88 56.3049 136.095 57.6553 137.391 58.9593C138.037 59.6113 138.706 60.2469 139.417 60.8294C140.131 61.4077 140.879 61.9398 141.748 62.3217L141.67 62.4649C141.737 62.4922 141.805 62.5195 141.873 62.5467C141.936 62.5699 142 62.5931 142.064 62.6163C142.191 62.664 142.319 62.7118 142.45 62.7595C142.707 62.8605 142.974 62.9518 143.237 63.0514C143.768 63.2451 144.308 63.4292 144.837 63.5888C145.894 63.9094 146.92 64.1017 147.696 64.0758C147.85 64.1045 148.014 64.1522 148.171 64.2122C148.328 64.2695 148.479 64.3322 148.602 64.4004C148.846 64.5382 148.988 64.6664 148.838 64.751C149.685 64.781 150.161 64.7101 150.728 64.6555C150.87 64.646 151.019 64.6255 151.181 64.6105C151.344 64.5996 151.521 64.5723 151.72 64.5518C152.118 64.4959 152.609 64.4359 153.259 64.219C153.058 64.3554 152.911 64.4291 152.81 64.4973C152.709 64.5641 152.652 64.5983 152.626 64.6269C152.571 64.6801 152.634 64.6842 152.675 64.6842C152.714 64.6842 152.731 64.68 152.579 64.7196C152.504 64.736 152.386 64.7769 152.21 64.8069C152.121 64.8247 152.019 64.8437 151.899 64.8669C151.779 64.886 151.644 64.9024 151.488 64.9242C152.076 64.8833 152.569 64.7947 153.008 64.6719C153.227 64.6174 153.433 64.5341 153.632 64.4577C153.83 64.365 154.021 64.2777 154.205 64.1549C154.571 63.9203 154.931 63.6147 155.235 63.1564C155.539 62.7049 155.777 62.0843 155.805 61.3477C155.856 61.611 155.936 61.6369 156.04 61.4773C156.066 61.4377 156.092 61.3873 156.119 61.3259C156.145 61.2659 156.165 61.195 156.187 61.1158C156.208 61.0367 156.232 60.9495 156.247 60.8554C156.261 60.7626 156.273 60.663 156.284 60.558C156.317 60.1419 156.28 59.6563 156.175 59.2253C156.067 58.797 155.917 58.4082 155.767 58.1491C155.904 58.7301 155.979 59.3385 155.95 59.9551C155.837 59.2676 155.639 58.6797 155.408 58.1436C155.177 57.6075 154.908 57.1234 154.606 56.6637C154.872 56.7169 155.134 56.7919 155.403 56.8751C155.141 56.2885 154.804 55.7716 154.43 55.3228C154.055 54.874 153.65 54.4758 153.225 54.1402C152.378 53.4541 151.473 52.9766 150.603 52.5674C149.73 52.161 148.882 51.8322 148.084 51.468C147.284 51.1052 146.534 50.7028 145.823 50.164C145.205 50.1585 145.758 50.4109 146.306 50.6919C146.857 50.9797 147.403 51.2934 146.838 51.3084C145.924 50.9033 145.024 50.3741 144.253 49.9431C143.869 49.7262 143.521 49.5297 143.228 49.3797C142.936 49.2324 142.7 49.126 142.546 49.0878C142.214 48.9773 141.921 48.8995 141.659 48.845C141.362 48.7918 141.092 48.7604 140.85 48.7645C140.367 48.7604 139.989 48.8505 139.621 48.9487C139.437 48.9978 139.256 49.0605 139.062 49.1123C138.87 49.1737 138.665 49.2269 138.437 49.2842C137.982 49.3961 137.433 49.5052 136.683 49.6293C136.896 49.6798 137.113 49.8134 137.014 50.0194C136.919 50.2295 136.507 50.4764 135.541 50.9074C134.6 51.1993 133.974 51.2893 133.689 51.1802C133.409 51.0779 133.487 50.7806 134.054 50.4409C134.507 50.2295 134.757 50.2022 134.761 50.2732C135.356 49.9622 136.201 49.6225 135.331 49.6757L135.135 49.9512C134.607 50.0276 133.678 50.3645 132.971 50.6578C132.265 50.9483 131.756 51.1625 131.97 50.8556C131.328 51.3262 131.234 51.4871 131.416 51.4558C131.602 51.4271 132.07 51.2157 132.605 50.9906C131.367 51.4912 130.5 52.0573 129.666 52.6602C128.832 53.2645 128.034 53.9151 126.966 54.7103C127.358 54.5166 127.799 54.4416 127.48 54.7103C126.705 55.2928 126.269 55.6883 126.007 55.9666C125.745 56.2435 125.66 56.4058 125.61 56.5463C125.512 56.83 125.543 57.0265 124.671 57.9745C124.057 58.3987 124.018 58.1832 123.932 58.1136C123.849 58.0468 123.703 58.1245 122.916 59.1735C121.706 60.2292 122.298 59.0807 122.614 58.4983C121.943 59.5117 121.175 60.3179 120.456 61.0081C119.739 61.6983 119.069 62.2698 118.627 62.7936C118.841 62.4281 119.058 62.0625 119.279 61.6983C118.884 62.3503 118.506 62.84 118.127 63.342L118.873 63.005C118.371 63.5507 118 64.0526 117.877 63.9449C117.636 64.7074 118.738 63.8644 118.142 65.2789C117.777 65.6172 117.391 66.2514 117.03 66.8052C116.667 67.3577 116.323 67.8256 116.015 67.8242C116.939 66.5979 116.793 66.6006 116.574 66.6252C116.36 66.6525 116.078 66.7098 116.79 65.6104C116.55 66.0591 116.201 66.5638 115.731 67.1394C115.621 67.1995 115.7 66.9935 115.789 66.8094C114.771 67.9115 114.715 68.2852 114.696 68.6904C114.678 69.0982 114.696 69.5401 113.9 70.8373C113.85 70.3531 113.058 71.1565 112.859 71.6216C113.494 70.5631 113.572 71.3638 113.201 72.4455C112.616 73.2326 112.395 73.7182 112.254 74.1124C112.113 74.5066 112.054 74.8121 111.802 75.2541C112.016 74.9294 112.231 74.6048 112.45 74.2842C112.516 74.7698 112.014 75.5992 111.482 76.8432C111.225 76.8418 111.908 75.681 111.597 76.063C111.477 76.8473 110.975 77.5388 110.433 78.3027C109.892 79.0652 109.308 79.9027 109.041 80.9366C108.468 81.7523 108.498 80.8016 108.034 81.5409C107.742 82.7099 107.418 83.2705 107.077 83.8502C106.74 84.4299 106.385 85.0274 106.127 86.2782C106.429 85.9945 106.571 85.8199 106.606 85.9372C106.643 86.0545 106.573 86.4665 106.486 87.364C106.816 86.0286 107.193 84.7068 107.613 83.4001C107.467 84.2867 107.338 85.1747 107.231 86.0627C107.637 84.9005 107.902 83.5365 108.244 82.8777C108.075 84.1544 108.038 83.9962 108.555 83.5733C107.971 84.2417 107.755 85.056 107.572 85.9072C107.388 86.7611 107.236 87.6477 106.77 88.522L105.854 88.1892C105.224 89.5628 105.018 90.9091 104.911 92.3823C104.859 93.1202 104.83 93.8909 104.815 94.7366C104.804 95.585 104.788 96.5003 104.861 97.5833C104.859 97.1141 104.886 96.6599 104.938 96.2193C105.134 96.4921 105.16 97.1155 105.267 97.8643C105.316 98.2381 105.392 98.6446 105.515 99.0429C105.638 99.4398 105.805 99.8285 106.03 100.145C105.943 100.153 105.897 100.215 105.886 100.317C105.878 100.419 105.904 100.561 105.954 100.727C106.06 101.059 106.298 101.472 106.524 101.817C106.535 101.787 106.594 101.809 106.688 101.866C106.782 101.925 106.912 102.019 107.081 102.124C107.411 102.338 107.895 102.592 108.408 102.734C108.921 102.881 109.446 102.925 109.847 102.877C110.252 102.834 110.54 102.715 110.631 102.547C111.294 102.659 112.008 102.685 112.722 102.585C113.649 102.311 114.28 101.873 114.733 101.45C115.189 101.021 115.476 100.59 115.725 100.161C115.97 99.7303 116.171 99.2966 116.416 98.8164C116.66 98.3349 116.945 97.8043 117.327 97.1468C117.267 97.6365 117.442 97.6052 117.55 97.6911C117.601 97.7348 117.633 97.807 117.597 97.9953C117.581 98.0894 117.543 98.2108 117.48 98.3704C117.42 98.5313 117.327 98.7292 117.2 98.9747C117.824 98.0703 118.296 97.2328 118.101 97.1196C118.334 96.8904 118.548 96.1811 118.735 95.4432C118.926 94.7039 119.09 93.9332 119.371 93.5321C119.365 93.3071 119.29 93.138 119.255 92.8911C119.221 92.6442 119.229 92.3223 119.375 91.7849C119.467 91.6826 119.529 91.8271 119.529 91.8271C119.451 91.8053 119.503 91.3674 119.491 91.0455C119.481 90.7222 119.417 90.5176 119.139 90.9487C119.549 90.2666 119.841 89.3896 120.042 88.4293C120.242 87.4677 120.351 86.4228 120.424 85.3916C120.574 83.3265 120.564 81.3227 121.002 80.005C120.902 77.8553 120.676 75.2855 120.485 73.3567C120.591 73.4727 120.647 73.3499 120.642 73.7182C120.684 72.3691 120.405 71.9804 120.13 71.5507C119.852 71.1197 119.586 70.6504 119.558 69.1295C119.714 68.3275 119.839 68.7162 119.933 69.1841C120.024 69.652 120.08 70.2003 120.12 69.7065C120.624 69.431 120.473 68.5171 120.215 67.4177C119.957 66.3169 119.589 65.0375 119.706 63.9708L119.859 64.4495C119.896 63.6434 119.615 62.7158 119.255 61.6846C118.895 60.6534 118.457 59.5185 118.178 58.2691C118.178 58.2691 118.301 58.366 118.339 58.2446C117.861 57.4602 117.361 56.2858 116.854 55.0268C116.348 53.7678 115.832 52.4256 115.363 51.292C116.004 51.8786 115.929 52.2783 116.184 51.6999C115.978 51.1857 115.843 51.318 115.656 51.3221C115.47 51.3262 115.235 51.202 114.813 50.1926C114.803 49.8189 114.706 49.2447 114.652 48.7182C114.597 48.193 114.588 47.7128 114.759 47.5328C115.021 48.1766 115.273 48.8232 115.52 49.4724C115.614 48.8695 115.37 48.2366 115.063 47.6255C114.753 47.0158 114.381 46.4306 114.216 45.9041L114.508 45.9355C113.849 44.4705 113.344 43.8049 112.84 43.112C112.331 42.4218 111.83 41.7015 111.061 40.1711L111.051 40.5748C110.338 39.8942 110.23 39.5136 110.139 39.118C110.047 38.7238 109.974 38.3133 109.299 37.6285L109.571 36.8101C109.185 36.3163 108.484 35.4692 107.689 34.5485C106.895 33.6264 106.007 32.6334 105.288 31.7945C105.857 32.1465 106.58 32.8135 107.284 33.5583C107.991 34.3003 108.677 35.1187 109.224 35.7339C108.903 35.2046 108.322 34.3234 107.725 33.5459C107.13 32.7657 106.517 32.0906 106.197 31.9296C106.543 32.2911 107.041 32.7084 107.242 33.1708C105.951 32.2215 104.586 30.7933 102.979 28.9642C103.594 28.7145 102.605 27.4378 101.271 26.0847C100.607 25.4068 99.8595 24.7111 99.2184 24.0782C98.5759 23.4453 98.0399 22.8738 97.8203 22.4018C97.3428 22.1085 96.8654 21.8166 96.388 21.5247C95.9147 21.2355 95.4496 20.9505 94.9885 20.6463C94.5206 20.3544 94.0528 20.057 93.5849 19.7515C93.1102 19.4555 92.6315 19.1568 92.1486 18.8553C90.2048 17.6686 88.1056 16.5051 85.6653 15.6266C86.346 16.4178 85.9886 16.2841 85.4621 16.0931C84.9287 15.9131 84.2181 15.6744 84.2031 16.2036C83.0627 15.894 82.6399 15.7439 82.5553 15.6553C82.0097 15.3961 81.4641 15.1247 80.9048 14.8874C80.6252 14.7673 80.347 14.6377 80.0646 14.5231L79.2121 14.1821C78.4278 13.7101 80.3756 14.2108 80.321 13.968C79.6786 13.807 79.2939 13.6843 79.0525 13.5833C78.811 13.4865 78.7115 13.41 78.6419 13.3296C78.5014 13.1727 78.4796 13.0049 77.6243 12.7185C77.7744 12.9244 77.522 13.0159 77.0487 13.0104C76.8114 13.0104 76.5208 12.9777 76.1948 12.9354C75.8675 12.8959 75.506 12.8358 75.1322 12.7567L76.1662 13.1168C76.5086 13.2396 76.8468 13.376 77.1851 13.5042C75.3232 13.481 74.5621 13.2273 73.7737 12.9409C72.9907 12.6762 72.1736 12.3911 70.2926 12.6557L70.8874 12.4948L71.4862 12.3516C71.0006 12.3775 70.3118 12.4089 69.522 12.4361C69.1278 12.4607 68.709 12.4866 68.2766 12.5139C67.8456 12.5507 67.4036 12.5971 66.9617 12.6462C66.5211 12.7035 66.0819 12.7744 65.6577 12.8467C65.2348 12.9272 64.827 13.0227 64.4478 13.1195C64.0686 13.2177 63.7207 13.3419 63.4111 13.4619C63.257 13.5233 63.1137 13.5861 62.9814 13.6515C62.8505 13.7197 62.7318 13.7907 62.6268 13.8616C62.2762 13.8098 61.7824 13.6229 62.5981 13.3937C62.3144 13.4401 62.0293 13.4906 61.7402 13.5465C61.451 13.6038 61.1632 13.6761 60.8713 13.7456C60.2875 13.8807 59.705 14.0661 59.1198 14.2448C58.8279 14.3403 58.5387 14.444 58.2482 14.5449L57.8131 14.6991L57.3834 14.8655C57.0983 14.9774 56.8133 15.0892 56.5295 15.2011C56.2499 15.3197 55.9703 15.4384 55.6934 15.5557C53.4754 16.4955 51.4758 17.5308 49.7925 18.086L49.9917 17.7123C49.6289 17.9346 49.3479 18.1965 49.0342 18.4461C48.7218 18.6984 48.3658 18.9208 47.8434 19.0654C47.842 18.9494 48.0234 18.6834 47.6742 18.8621C47.501 19.0108 47.0577 19.3723 46.5434 19.7665C46.287 19.9643 46.0087 20.1675 45.7305 20.3476C45.4549 20.5317 45.1808 20.6995 44.9257 20.8154C45.1467 20.5699 45.3663 20.3202 45.5913 20.0761C45.1003 20.3312 44.6474 20.5903 44.2273 20.8536C43.8126 21.1237 43.4253 21.3897 43.0665 21.6638C42.7105 21.9407 42.3763 22.2163 42.0598 22.4932C41.7475 22.7755 41.4515 23.0579 41.1623 23.3389C40.0179 24.4792 39.029 25.6373 37.7086 26.8922C37.5913 26.7531 37.3321 26.779 36.987 26.914C36.6405 27.0477 36.2177 27.3014 35.7621 27.6029C35.3079 27.9057 34.8373 28.2726 34.3899 28.6273C33.952 28.9915 33.5374 29.342 33.2127 29.6298L33.1814 29.5139C31.3454 31.3144 30.0086 33.0536 28.8137 34.8173C27.6215 36.585 26.5685 38.3774 25.3613 40.3907C24.2073 41.3646 22.7792 43.4025 21.4084 45.7295C21.3224 45.8755 21.2351 46.0187 21.1492 46.1687C21.066 46.3229 20.9814 46.477 20.8968 46.6311C20.7277 46.9408 20.5586 47.2531 20.3894 47.5641C20.3062 47.721 20.2148 47.8738 20.1398 48.0347L19.9079 48.5122C19.7524 48.83 19.5983 49.1464 19.4441 49.4615C19.2832 49.7725 19.1509 50.0931 19.0104 50.4054C18.8685 50.7178 18.7294 51.0261 18.5916 51.3275C18.447 51.6276 18.3243 51.9291 18.1988 52.2224C18.0733 52.5156 17.9464 52.8007 17.8209 53.0762C18.0064 52.7488 18.1292 52.8252 18.1797 53.0844C18.2315 53.3436 18.2029 53.7815 18.1224 54.1975C18.0064 54.4526 17.9219 54.7758 17.8523 55.1073C17.7841 55.4401 17.7227 55.7811 17.6818 56.084C17.589 56.6869 17.4745 57.1165 17.1744 56.9515L17.2862 56.5695C17.0762 56.7318 16.892 56.9978 16.7283 57.3334C16.6874 57.4166 16.6465 57.5053 16.6097 57.5966C16.5742 57.6894 16.5415 57.7849 16.5087 57.8844C16.4432 58.0836 16.3819 58.295 16.3246 58.5146C16.2673 58.7343 16.2127 58.9634 16.1609 59.1967C16.135 59.3126 16.1104 59.4313 16.0845 59.5486C16.0613 59.6673 16.0422 59.7859 16.0218 59.9046C15.9413 60.3806 15.8663 60.8567 15.7844 61.3L16.5933 61.7269C16.356 62.2753 16.1609 62.8822 15.9959 63.5233C15.839 64.1658 15.7381 64.8465 15.648 65.5435C15.5689 66.2405 15.5362 66.9567 15.5048 67.6701C15.4898 68.3835 15.5007 69.0968 15.5062 69.7911C15.5321 70.4854 15.5566 71.1619 15.5812 71.8071C15.6153 72.451 15.6439 73.0634 15.648 73.6281C15.6535 74.1928 15.6589 74.7112 15.6153 75.1695C15.573 75.6292 15.4966 76.0275 15.3834 76.3535C15.5375 76.9045 15.6289 77.5252 15.7435 78.1418C15.8608 78.757 15.9754 79.3721 16.1432 79.9082L15.6726 79.9027C15.7435 80.6761 15.7994 81.354 15.8676 81.9938C15.9454 82.6308 16.0204 83.2323 16.1104 83.8543C16.2141 84.4736 16.3232 85.116 16.4678 85.8363C16.5469 86.195 16.6301 86.5742 16.7188 86.9807C16.7652 87.1839 16.8102 87.394 16.8647 87.6109C16.9207 87.8278 16.978 88.0514 17.0366 88.2833L16.5374 87.5891C16.7679 88.653 17.2344 89.2504 17.7363 89.8056C17.9832 90.0839 18.2315 90.3553 18.4484 90.6758C18.6639 90.9964 18.8671 91.3606 19.0035 91.8353L18.4934 92.6005C19.0267 94.4079 19.4796 96.2589 20.0961 98.0689C20.7127 99.8749 21.4929 101.645 22.6674 103.188C22.5514 103.18 22.3059 103.177 22.0044 102.626C22.1026 102.832 22.2186 103.087 22.3632 103.374C22.5064 103.662 22.6537 103.975 22.8297 104.318C23.1993 105.034 23.6699 105.772 24.1541 106.39C24.637 107.007 25.1267 107.508 25.5087 107.77C25.8865 108.037 26.1484 108.071 26.192 107.782C25.9888 108.011 26.7185 108.792 27.8193 109.523C28.369 109.887 29.0006 110.247 29.6335 110.539C30.2664 110.832 30.887 111.076 31.4054 111.247C31.2376 111.336 31.0685 111.421 30.8952 111.506C31.861 111.666 32.3711 111.662 32.944 111.735C33.0872 111.752 33.2345 111.773 33.3941 111.799C33.5551 111.821 33.7283 111.85 33.9206 111.887C34.1143 111.919 34.3299 111.955 34.5754 111.996C34.8236 112.028 35.0964 112.078 35.4156 112.106C35.7062 112.191 35.8289 112.293 35.7757 112.357C35.7212 112.424 35.492 112.434 35.0992 112.304C36.0881 112.611 36.5259 112.511 36.9843 112.423C37.1002 112.398 37.2189 112.374 37.3498 112.352C37.4821 112.324 37.6281 112.299 37.7986 112.279C37.9691 112.263 38.1655 112.229 38.3974 112.214C38.5147 112.2 38.6402 112.187 38.7766 112.172C38.8448 112.165 38.9171 112.158 38.9908 112.151C39.0644 112.14 39.1422 112.129 39.2226 112.119L39.003 112.245L38.778 112.357C38.6265 112.431 38.4711 112.509 38.3142 112.57C38.4533 112.56 38.5829 112.543 38.7043 112.522C38.8257 112.502 38.9376 112.483 39.0426 112.465C39.2527 112.416 39.4314 112.368 39.5855 112.323C39.8924 112.211 40.1066 112.124 40.2757 112.009C40.4462 111.899 40.5826 111.797 40.7285 111.651C40.8008 111.581 40.8786 111.506 40.9659 111.42C41.0491 111.331 41.1419 111.232 41.251 111.116C41.5238 110.9 41.8552 110.63 42.2031 110.336C42.5359 110.027 42.8919 109.697 43.1893 109.356C43.2643 109.272 43.3434 109.191 43.4143 109.109C43.4839 109.026 43.5521 108.946 43.6176 108.868C43.6831 108.79 43.754 108.717 43.8126 108.644C43.8713 108.572 43.9286 108.504 43.9845 108.44C44.2137 108.187 44.3842 108.005 44.5137 107.969C44.4824 107.875 44.4755 107.728 44.4728 107.544C44.4674 107.358 44.4783 107.137 44.5042 106.894C44.5151 106.649 44.556 106.383 44.597 106.104C44.6338 105.826 44.7034 105.536 44.7688 105.242C44.8575 105.174 44.9107 105.251 44.9434 105.376C44.9598 105.439 44.9707 105.512 44.9775 105.586C44.9816 105.66 44.9816 105.732 44.9816 105.789C45.0498 105.577 45.088 105.371 45.1303 105.169C45.1494 105.068 45.1685 104.968 45.1876 104.87C45.2026 104.772 45.2135 104.676 45.2244 104.581C45.2449 104.391 45.2653 104.206 45.2762 104.026C45.2817 103.847 45.2844 103.674 45.2858 103.505C45.2831 102.828 45.2026 102.235 45.1153 101.682C44.9325 100.576 44.7142 99.6417 44.7483 98.4877C44.8888 98.4154 44.938 98.2572 44.9475 98.0621C45.1835 99.3566 45.3144 100.552 45.3581 101.401C45.3772 101.827 45.3813 102.164 45.384 102.381C45.3786 102.599 45.3703 102.697 45.3622 102.647C45.4672 102.647 45.5545 102.506 45.6241 102.326C45.6923 102.146 45.7496 101.922 45.815 101.752C45.9446 101.414 46.1042 101.274 46.4357 102.168C46.257 101.25 45.886 100.071 45.5095 98.8956C45.1289 97.7184 44.7524 96.5303 44.5874 95.51C44.6024 95.4022 44.6188 95.2986 44.6638 95.2085L44.762 95.4049C44.6911 94.9289 44.5288 94.532 44.3569 94.1637C44.3051 93.8364 44.2505 93.5731 44.1973 93.3125C44.14 93.0534 44.0827 92.7956 43.9886 92.4968C44.1155 92.3291 43.9777 91.7371 43.7553 91.0673C43.6407 90.7345 43.5084 90.3813 43.3843 90.0484C43.2588 89.717 43.132 89.4114 43.046 89.1645C42.6423 89.4059 42.2344 88.1087 42.3245 89.436C42.2972 89.2709 42.4472 89.5983 42.7037 90.2394C42.7678 90.3826 42.836 90.5531 42.896 90.6404C42.8769 90.6254 42.8551 90.6077 42.8346 90.5872C43.0774 91.2242 43.3748 92.0631 43.6831 93.0302C43.2125 92.3114 42.7596 91.5693 42.6164 90.4058C42.1581 90.0047 41.6615 89.5724 41.416 89.3187C41.446 88.9313 41.4133 88.4811 41.3669 88.0051C41.3219 87.529 41.2414 87.0393 41.1664 86.581C41.1296 86.3505 41.0955 86.1282 41.0627 85.9222C41.0313 85.7149 40.9904 85.5157 40.9659 85.3398C40.9127 84.9865 40.895 84.7164 40.9441 84.5841C40.8936 84.4941 40.8431 84.4027 40.7926 84.3099C40.7381 84.2199 40.6835 84.1272 40.6276 84.0358C40.5185 83.8516 40.4066 83.6633 40.2934 83.4724C40.1788 83.2828 40.0738 83.085 39.9497 82.8968C39.8283 82.7072 39.7042 82.5149 39.5814 82.3225C39.4573 82.1302 39.3359 81.9365 39.2076 81.7455C39.074 81.5587 38.9417 81.3717 38.808 81.1849C38.6743 80.9994 38.5406 80.8153 38.4083 80.6311C38.2705 80.4511 38.126 80.2778 37.9868 80.106C36.8656 78.7242 35.6584 77.6207 34.6463 77.1965C33.952 76.6086 34.0993 76.2743 33.952 75.9333C34.1703 76.0888 34.3953 76.2743 34.5904 76.4476C34.7854 76.6208 34.9628 76.7695 35.106 76.8323C34.9273 76.6836 34.735 76.5103 34.5331 76.3221C34.323 76.142 34.1034 75.947 33.8784 75.7465C33.4364 75.3359 32.9372 74.9404 32.4789 74.568C32.0096 74.2079 31.5554 73.901 31.183 73.6868C30.7997 73.4863 30.4942 73.3867 30.3169 73.4413C30.1123 73.2408 29.9799 73.0962 29.8995 72.9911C29.8163 72.8902 29.7863 72.8289 29.7917 72.7934C29.7999 72.7211 29.9431 72.7511 30.0591 72.777C30.2841 72.8357 30.4083 72.8479 29.0892 71.979L29.5434 72.0731C28.4072 70.9765 27.2028 70.1976 25.982 69.6165C25.3763 69.3124 24.7543 69.0804 24.1419 68.8485C23.8336 68.7367 23.5212 68.6399 23.2116 68.5376C22.9006 68.438 22.5923 68.3357 22.2759 68.2498C21.9635 68.1584 21.6484 68.0683 21.332 67.9756C21.0155 67.8869 20.6977 67.7983 20.3744 67.7082C19.736 67.5159 19.0772 67.344 18.4129 67.1176C17.0707 66.6975 15.6671 66.1723 14.1039 65.4357C14.5391 65.6308 14.7546 65.7318 14.8214 65.8545C12.9977 65.2052 11.0826 64.7401 9.13476 64.4114C7.18692 64.0826 5.20633 63.8903 3.22848 63.7798C-0.732677 63.5575 -4.65564 63.6557 -8.49813 63.6025C-9.04238 63.6175 -9.46525 63.6489 -9.80898 63.7102C-10.1527 63.7716 -10.4201 63.848 -10.6588 63.9353C-11.1362 64.1058 -11.4963 64.3432 -12.1237 64.5873C-12.3038 64.4482 -12.4866 64.3063 -12.668 64.1713L-13.7333 64.6528C-14.0866 64.8138 -14.4344 64.9883 -14.7836 65.1561C-15.1642 65.283 -15.5352 65.3921 -15.9021 65.474C-16.2704 65.5558 -16.636 65.609 -16.9988 65.6649C-17.363 65.7167 -17.7286 65.7495 -18.0969 65.7863C-18.4665 65.8259 -18.8375 65.8641 -19.2154 65.9036C-19.9697 65.9991 -20.7526 66.115 -21.5656 66.3674C-21.7688 66.4301 -21.9762 66.4929 -22.1835 66.5734C-22.3908 66.6539 -22.5995 66.7425 -22.8109 66.8393C-23.0224 66.9389 -23.2379 67.0385 -23.4507 67.1626C-23.6649 67.2854 -23.8804 67.4177 -24.0973 67.5609L-23.4834 67.6701C-24.1723 67.9156 -25.2157 68.4161 -26.056 68.8458C-26.2674 68.9522 -26.4666 69.0491 -26.648 69.1337C-26.828 69.2196 -26.9863 69.2973 -27.1199 69.3505C-27.3859 69.4583 -27.5483 69.4801 -27.5401 69.3669C-27.5919 69.4297 -27.656 69.562 -27.7815 69.6943C-27.9056 69.8279 -28.0843 69.967 -28.3762 70.0339L-28.5454 69.8307C-29.0364 70.1894 -29.5016 70.5864 -29.9708 70.9669C-30.4264 71.372 -30.8861 71.7608 -31.3157 72.1877C-31.9063 72.5614 -32.2037 72.7074 -32.392 72.7211C-32.5788 72.7361 -32.647 72.6311 -32.7439 72.5547C-32.928 72.4128 -33.2799 72.3214 -34.8363 73.7864C-34.9673 73.9364 -35.1146 74.0974 -35.2482 74.2897C-35.3847 74.4793 -35.5238 74.6812 -35.6602 74.8858C-35.7993 75.0877 -35.9221 75.3073 -36.038 75.5201C-36.154 75.7329 -36.2631 75.9402 -36.3586 76.1339C-36.7146 76.9373 -36.8728 77.5089 -36.6314 77.3261C-36.4418 77.0806 -36.1731 76.7859 -35.9248 76.5717C-35.6656 76.3658 -35.4256 76.2403 -35.3124 76.3058C-35.4392 76.4981 -35.5756 76.6822 -35.6916 76.8814L-36.0448 77.472C-35.8088 77.7953 -35.6752 78.2727 -35.3096 78.3791C-35.1268 78.4282 -34.8868 78.3996 -34.5567 78.2222C-34.4735 78.1786 -34.3862 78.1254 -34.2907 78.0626C-34.1979 77.9999 -34.0956 77.929 -33.9797 77.8498C-33.7492 77.6944 -33.5009 77.4898 -33.1995 77.2524L-32.9267 76.7845C-32.8353 76.6277 -32.7466 76.4667 -32.6429 76.3166L-32.3415 75.8556C-32.2405 75.7001 -32.1396 75.5446 -32.0277 75.3973L-31.2612 75.2104L-31.9254 75.8202L-32.557 76.4572C-32.0687 76.2253 -31.7781 75.9402 -31.5285 75.6497C-31.4071 75.501 -31.3048 75.3455 -31.2066 75.1845C-31.107 75.0249 -31.0033 74.8708 -30.8956 74.7126C-30.766 74.7344 -30.6201 74.7234 -30.4618 74.6825C-30.3827 74.6621 -30.2995 74.6334 -30.2136 74.5966C-30.1249 74.5625 -30.0322 74.5216 -29.9353 74.4725C-29.5275 73.8518 -29.0801 73.2435 -28.604 72.6433C-28.4117 72.6993 -28.5372 72.9543 -28.5426 73.1139C-28.5481 73.2748 -28.4376 73.3403 -27.791 73.0307C-27.4596 72.6201 -27.7474 72.6038 -27.9643 72.5588C-28.072 72.5356 -28.1607 72.5056 -28.1416 72.4128C-28.1321 72.3664 -28.0939 72.3036 -28.0189 72.2191C-27.9807 72.1768 -27.9329 72.1291 -27.8743 72.0745C-27.8142 72.0227 -27.7419 71.9641 -27.6574 71.8986C-27.1063 71.7813 -26.869 71.8249 -26.648 71.7881C-26.4243 71.7567 -26.2224 71.6462 -25.7423 71.2206C-25.4981 71.3134 -25.6727 71.5507 -26.0615 71.8563C-25.6386 71.4866 -24.992 71.1442 -24.4137 70.8141C-23.8258 70.4991 -23.3088 70.1867 -23.1179 69.8948C-22.8178 69.8894 -22.4577 69.7815 -22.073 69.6588C-21.687 69.5374 -21.2873 69.3724 -20.9122 69.2469C-20.5371 69.1214 -20.1948 69.0177 -19.9397 68.9904C-19.6846 68.9645 -19.5127 69.0218 -19.4827 69.2019C-19.3422 69.0696 -18.9221 68.779 -18.4024 68.4967C-17.8827 68.2184 -17.2716 67.9292 -16.7724 67.7928C-17.1748 68.1215 -17.1393 68.2266 -16.8679 68.2197C-16.5951 68.2157 -16.0904 68.0806 -15.5338 67.9701C-15.2569 67.9115 -14.9691 67.8515 -14.6949 67.801C-14.4194 67.7574 -14.1589 67.7246 -13.9379 67.7137C-13.496 67.6932 -13.215 67.7614 -13.2927 68.0151C-12.9913 67.7614 -12.533 67.5595 -11.9805 67.3822C-11.7036 67.3017 -11.4022 67.2267 -11.0843 67.1572C-10.9261 67.1231 -10.7624 67.0876 -10.5974 67.0563C-10.431 67.029 -10.2605 67.0003 -10.0886 66.9717C-9.74488 66.9185 -9.39293 66.8571 -9.03692 66.8107C-8.68091 66.7629 -8.32355 66.7138 -7.97163 66.6606C-7.61971 66.6102 -7.2705 66.5625 -6.93495 66.5024C-6.76718 66.4724 -6.60214 66.4397 -6.44119 66.4069C-6.28023 66.3769 -6.12198 66.3428 -5.9692 66.3074C-6.10424 66.3783 -6.36751 66.516 -6.58712 66.4956C-5.89009 66.4806 -5.43586 66.5324 -5.04575 66.5938C-4.65564 66.6648 -4.32829 66.7479 -3.88089 66.8052C-3.80314 66.4751 -3.22205 66.2678 -2.50866 66.0905C-2.15265 65.9977 -1.76254 65.9309 -1.38879 65.8518C-1.01368 65.774 -0.653568 65.6922 -0.356209 65.6049C0.499043 65.9418 0.226234 66.1232 -0.184338 66.2978C-0.390308 66.3851 -0.631733 66.4683 -0.788597 66.572C-0.945461 66.677 -1.01775 66.797 -0.886803 66.9471C-0.924995 66.6797 -0.185703 66.5734 0.499043 66.4738C1.18243 66.3811 1.80853 66.3128 1.5289 66.0768C2.17409 66.3006 2.45098 66.3728 2.64877 66.4533C2.84519 66.5338 2.96251 66.6279 3.27487 66.9198C3.42218 66.5243 3.72907 66.516 4.13828 66.5638C4.54749 66.6102 5.0563 66.6988 5.6251 66.5242C6.5431 66.8352 6.63446 67.044 6.76132 67.1735C6.88818 67.3045 7.04913 67.3481 8.08852 67.3904C8.5523 67.595 8.31907 67.6905 7.9726 67.7341C7.79937 67.7546 7.59747 67.7696 7.43924 67.7778C7.28101 67.786 7.16507 67.786 7.16507 67.786L7.14872 67.7792ZM41.9466 96.7008C41.9466 96.7008 41.9398 96.7021 41.9371 96.7035C41.8225 96.2929 41.7325 95.9438 41.6616 95.7214C41.727 95.9247 41.8007 96.2084 41.9453 96.7008H41.9466ZM42.6737 100.745C42.6532 100.498 42.6246 100.22 42.5918 99.924C42.5495 99.6267 42.4991 99.3102 42.4486 98.9855C42.5809 98.8164 42.7719 98.9419 42.8264 99.3566C42.7569 99.2529 42.7364 99.4466 42.7282 99.7426C42.72 100.039 42.7037 100.437 42.675 100.745H42.6737ZM43.679 91.1997C43.9627 91.8408 43.9463 92.0944 43.8863 92.2131C43.7731 91.9035 43.6462 91.5393 43.4484 91.0741C43.4252 91.0605 43.3925 91.0278 43.368 91.0155C43.473 91.0496 43.5767 91.0933 43.679 91.1997Z" fill="#C0EBE3"/>
<path d="M42.6926 90.2258C42.6503 90.1344 42.6121 90.0907 42.563 89.9707C42.5753 90.1167 42.5875 90.2544 42.6053 90.3922C42.6789 90.4549 42.754 90.519 42.8235 90.5736C42.7799 90.4563 42.7335 90.3349 42.6926 90.2258Z" fill="#C0EBE3"/>
<path d="M133.567 55.2339L133.618 55.3103C133.583 55.2407 133.55 55.1766 133.542 55.1221C133.565 55.1821 133.554 55.1916 133.567 55.2339Z" fill="#C0EBE3"/>
<path d="M19.4913 75.2705L19.374 75.2842L19.4941 75.6402L19.4913 75.2705Z" fill="#C0EBE3"/>
<path d="M132.571 35.4421C132.627 35.4557 132.721 35.4543 132.882 35.4066C132.856 35.3861 132.727 35.4066 132.571 35.4421Z" fill="#C0EBE3"/>
<path d="M141.973 32.6361L143.4 32.5488C142.779 32.5652 142.331 32.5979 141.973 32.6361Z" fill="#C0EBE3"/>
<path d="M149.654 31.7288C149.742 31.6374 149.763 31.5733 149.782 31.5146C149.775 31.5146 149.771 31.5146 149.767 31.5146L149.654 31.7302V31.7288Z" fill="#C0EBE3"/>
<path d="M114.786 76.2432C114.74 76.3346 114.696 76.4273 114.664 76.5132C114.418 77.168 114.605 76.7342 114.786 76.2432Z" fill="#C0EBE3"/>
<path d="M138.999 51.2002C138.639 51.3011 138.294 51.4294 137.931 51.5385C138.534 51.4703 138.994 51.4662 138.999 51.2002Z" fill="#C0EBE3"/>
<path d="M115.751 92.8866C115.751 92.8866 115.756 92.8866 115.758 92.8934C115.783 92.817 115.805 92.7502 115.829 92.6738L115.751 92.888V92.8866Z" fill="#C0EBE3"/>
<path d="M136.38 51.9077C136.995 51.8123 137.478 51.6827 137.931 51.5381C137.437 51.5886 136.845 51.6854 136.38 51.9077Z" fill="#C0EBE3"/>
<path d="M173.01 30.626L172.892 30.7938C172.956 30.7596 172.998 30.7051 173.01 30.626Z" fill="#C0EBE3"/>
<path d="M169.877 30.6825C170.625 30.7166 171.752 31.0262 172.794 30.9266L172.891 30.7929C172.645 30.9184 172.069 30.8147 171.467 30.7206C170.864 30.6279 170.231 30.5392 169.877 30.6838V30.6825Z" fill="#C0EBE3"/>
<path d="M156.696 29.0698C157.579 29.0507 158.463 29.0521 159.345 29.048C158.875 28.8952 158.253 28.6879 159.454 28.5788C157.771 28.4028 157.948 28.4942 158.114 28.6429C158.195 28.7179 158.274 28.8065 158.116 28.8843C157.958 28.9607 157.562 29.0276 156.696 29.0698Z" fill="#C0EBE3"/>
<path d="M148.485 29.5556C149.894 29.3128 148.439 29.2992 148.5 29.1914C148.058 29.321 147.785 29.4165 147.758 29.4683C147.729 29.5243 147.946 29.5393 148.485 29.557V29.5556Z" fill="#C0EBE3"/>
<path d="M149.461 64.9658C149.4 65.1036 149.337 65.24 149.273 65.3764C150.507 65.3846 149.291 65.2141 149.461 64.9658Z" fill="#C0EBE3"/>
<path d="M152.414 57.5C152.54 57.8015 152.656 58.0975 152.736 58.3935C152.924 58.4412 153.101 58.4998 153.287 58.5653C153.034 58.1902 152.74 57.8328 152.414 57.5Z" fill="#C0EBE3"/>
<path d="M148.798 51.1451L149.289 51.3224C148.675 51.0687 148.057 50.8382 147.435 50.6377C147.891 50.7932 148.345 50.9623 148.796 51.1451H148.798Z" fill="#C0EBE3"/>
<path d="M121.459 82.3496L120.927 82.6674C120.958 83.0453 121.115 83.2813 121.253 83.2663C121.392 83.2513 121.512 82.9812 121.459 82.3496Z" fill="#C0EBE3"/>
<path d="M111.496 40.3726C111.514 39.8311 111.076 38.662 110.48 38.126C110.931 39.0017 111.211 39.9593 111.496 40.3726Z" fill="#C0EBE3"/>
<path d="M15.6414 63.8147C15.6141 63.5119 15.6045 63.2104 15.5854 62.9062C15.5718 63.1886 15.5541 63.4697 15.5459 63.7506L15.5322 64.595L15.6414 63.8134V63.8147Z" fill="#C0EBE3"/>
<path d="M150.242 219.534L127.176 128.453C125.72 122.708 122.523 117.693 117.929 113.948C113.335 110.204 107.777 108.086 101.855 107.82C101.76 107.816 101.664 107.813 101.569 107.81L76.5292 107.274C64.0278 107.009 52.2849 112.966 45.1182 123.214L-8.77345 200.285C-11.256 203.836 -11.6843 208.434 -9.89741 212.381C-8.11053 216.329 -4.37579 219.043 -0.0681648 219.521L136.985 234.749C137.439 234.799 137.89 234.824 138.342 234.824C141.868 234.824 145.252 233.303 147.597 230.612C150.242 227.577 151.229 223.437 150.242 219.533V219.534Z" fill="url(#paint0_linear_2220_5185)"/>
<g style="mix-blend-mode:multiply" opacity="0.3">
<path d="M150.242 219.534L127.176 128.453C125.72 122.708 122.523 117.693 117.929 113.948C113.335 110.204 107.777 108.086 101.855 107.82C101.76 107.816 101.664 107.813 101.569 107.81L76.5292 107.274C64.0278 107.009 52.2849 112.966 45.1182 123.214L-8.77345 200.285C-11.256 203.836 -11.6843 208.434 -9.89741 212.381C-8.11053 216.329 -4.37579 219.043 -0.0681648 219.521L136.985 234.749C137.439 234.799 137.89 234.824 138.342 234.824C141.868 234.824 145.252 233.303 147.597 230.612C150.242 227.577 151.229 223.437 150.242 219.533V219.534Z" fill="url(#paint1_linear_2220_5185)"/>
</g>
<path d="M131.389 100.062L122.119 190.106L156.217 193.085L163.831 104.034L131.389 100.062Z" fill="url(#paint2_linear_2220_5185)"/>
<g style="mix-blend-mode:multiply" opacity="0.3">
<path d="M131.389 100.061L122.119 190.105L156.217 193.084L163.831 104.033L131.389 100.061Z" fill="url(#paint3_linear_2220_5185)"/>
</g>
<path d="M57.2154 156.924L-21.7432 201.191L-4.54676 230.785L72.6467 185.736L57.2154 156.924Z" fill="url(#paint4_linear_2220_5185)"/>
<g style="mix-blend-mode:multiply" opacity="0.3">
<path d="M57.2154 156.924L-21.7432 201.191L-4.54676 230.785L72.6467 185.736L57.2154 156.924Z" fill="url(#paint5_linear_2220_5185)"/>
</g>
<path d="M83.8645 99.0347C107.146 99.0347 126.02 80.161 126.02 56.8791C126.02 33.5973 107.146 14.7236 83.8645 14.7236C60.5827 14.7236 41.709 33.5973 41.709 56.8791C41.709 80.161 60.5827 99.0347 83.8645 99.0347Z" fill="url(#paint6_radial_2220_5185)"/>
<path d="M72.6685 60.3831C71.3795 60.3831 70.1559 60.1553 69.0252 59.7011C65.6492 58.3547 64.206 55.4999 64.146 55.3798L64.0273 55.1411L64.1065 54.886C64.1747 54.6664 65.862 49.4954 72.8731 49.0234H72.8949C73.7011 48.9675 74.4977 49.0043 75.2602 49.1312C80.0111 49.9087 82.094 53.8248 82.1799 53.9912L82.3368 54.2941L82.184 54.5982C82.1554 54.6542 81.4774 55.9882 80.052 57.3631C78.838 58.5321 77.4617 59.3737 75.964 59.8675C75.889 59.8934 75.8085 59.918 75.7253 59.9439C74.9846 60.1676 74.2194 60.3067 73.4447 60.3586C73.1828 60.3763 72.925 60.3858 72.6685 60.3858V60.3831ZM65.4787 55.0266C65.877 55.6827 67.1633 57.5213 69.5203 58.4612C70.6893 58.929 71.9783 59.1186 73.3533 59.0232C74.0285 58.9782 74.6955 58.8568 75.3352 58.6644C75.402 58.644 75.473 58.6222 75.5412 58.599C76.852 58.1679 78.0551 57.4286 79.1231 56.4015C79.9906 55.5653 80.5485 54.7401 80.8118 54.3077C80.2553 53.447 78.4015 50.9999 75.0406 50.4502C74.3763 50.3397 73.682 50.3083 72.9768 50.3574H72.9536C67.6693 50.7175 65.8879 54.0567 65.4787 55.0292V55.0266Z" fill="#191919"/>
<path d="M82.0658 73.4166L69.8208 72.1221C69.8208 72.1221 69.7813 81.0129 75.2824 81.0606C81.216 81.1125 82.0658 73.4179 82.0658 73.4179V73.4166Z" fill="#191919"/>
<path d="M75.3409 81.7288C75.319 81.7288 75.2972 81.7288 75.2754 81.7288C72.7042 81.707 70.8273 79.991 69.8479 76.7678C69.1481 74.4694 69.1509 72.2147 69.1509 72.1192L69.1536 71.3799L82.8021 72.823L82.7285 73.4901C82.7189 73.5733 82.4911 75.5552 81.4954 77.5549C80.1368 80.2857 78.0089 81.7275 75.3395 81.7275L75.3409 81.7288ZM70.519 72.8681C70.6541 74.8923 71.3811 80.358 75.2877 80.3921C75.3054 80.3921 75.3231 80.3921 75.3409 80.3921C77.4892 80.3921 79.152 79.2476 80.2855 76.9901C80.8543 75.8566 81.1489 74.7054 81.2894 74.0071L70.519 72.8681Z" fill="#191919"/>
<path d="M99.8519 58.8442C99.1358 58.8442 98.4224 58.7705 97.7267 58.6232C96.0981 58.2781 94.5731 57.5361 93.1954 56.4163C91.6582 55.1654 90.8711 53.8941 90.8384 53.8396L90.6597 53.549L90.7906 53.2339C90.8629 53.0607 92.6089 48.9836 97.2793 47.8092C98.0241 47.6196 98.8098 47.5159 99.6132 47.5036H99.6309C106.668 47.3699 108.788 52.3937 108.875 52.6065L108.976 52.8534L108.878 53.1016C108.829 53.2271 107.631 56.1939 104.378 57.8184C103.97 58.0231 103.538 58.2004 103.094 58.3463C102.139 58.6587 101.107 58.8265 100.028 58.8429C99.9692 58.8429 99.9092 58.8442 99.8505 58.8442H99.8519ZM92.1778 53.4331C92.4752 53.8409 93.1013 54.6171 94.0384 55.3796C95.2497 56.3644 96.5837 57.0164 98.0036 57.3165C98.657 57.4556 99.3336 57.5184 100.007 57.5075C100.954 57.4925 101.853 57.3479 102.681 57.0764C103.061 56.9523 103.431 56.7995 103.78 56.6249C106.05 55.49 107.177 53.5504 107.519 52.8616C107.029 51.9272 104.971 48.749 99.6691 48.8377H99.6459C98.9421 48.8486 98.2573 48.9386 97.6067 49.1036C94.2825 49.9398 92.6539 52.5287 92.1765 53.4331H92.1778Z" fill="#191919"/>
<path d="M81.5865 54.2967C81.5865 54.2967 80.9481 55.5694 79.5868 56.8802C78.6552 57.7764 77.388 58.693 75.7539 59.2304C73.5196 58.3083 71.9073 56.1545 71.7982 53.5806C71.7381 52.1402 72.1569 50.7911 72.9167 49.6876H72.9317C73.7324 49.6317 74.4703 49.674 75.1496 49.7872C79.6277 50.5197 81.5865 54.2953 81.5865 54.2953V54.2967Z" fill="#191919"/>
<path d="M75.7327 59.8323L75.5403 59.7531C73.0401 58.7219 71.35 56.3089 71.2368 53.6068C71.1727 52.0859 71.5942 50.6209 72.4535 49.3701L72.6131 49.1396L72.9009 49.1273C73.7003 49.0728 74.4873 49.1082 75.243 49.235C79.9435 50.0043 82.0031 53.8755 82.0877 54.0392L82.22 54.2943L82.0904 54.552C82.0632 54.6079 81.3921 55.9256 79.9789 57.2883C78.7758 58.4464 77.4145 59.2798 75.9305 59.7681L75.7327 59.8336V59.8323ZM73.2324 50.2363C72.6131 51.232 72.3117 52.375 72.3622 53.559C72.4549 55.7551 73.7876 57.7221 75.779 58.6278C77.023 58.1859 78.1716 57.4615 79.1973 56.4753C80.1112 55.5942 80.6855 54.7253 80.9365 54.3052C80.4154 53.4827 78.5344 50.9142 75.0589 50.3454C74.4682 50.2471 73.8558 50.2117 73.2324 50.2363Z" fill="#191919"/>
<path d="M108.258 52.8561C108.258 52.8561 107.142 55.6905 104.082 57.221C103.713 57.4051 103.316 57.5715 102.889 57.7106C100.487 56.8718 98.7182 54.6348 98.6049 51.9353C98.5463 50.5495 98.9337 49.2482 99.6375 48.1693H99.6444C106.305 48.0479 108.257 52.8561 108.257 52.8561H108.258Z" fill="#191919"/>
<path d="M102.883 58.3055L102.703 58.2428C99.9915 57.2961 98.1624 54.8299 98.041 51.96C97.9796 50.5005 98.3683 49.0833 99.1649 47.8625L99.3204 47.6238L99.6341 47.606C106.603 47.4764 108.694 52.4333 108.78 52.6448L108.865 52.8535L108.781 53.0636C108.732 53.1877 107.55 56.1176 104.332 57.7258C103.928 57.929 103.501 58.1037 103.063 58.2469L102.882 58.3055H102.883ZM99.9533 48.73C99.3913 49.6944 99.1199 50.7883 99.1677 51.9123C99.2659 54.2544 100.723 56.2745 102.896 57.1134C103.216 57.0002 103.528 56.8679 103.827 56.7178C106.177 55.5434 107.316 53.5164 107.637 52.8603C107.192 51.9859 105.193 48.7559 99.9533 48.7313V48.73Z" fill="#191919"/>
<path d="M87.2307 69.2829C86.9211 69.2829 86.6442 69.0674 86.5774 68.7524C86.501 68.3909 86.7329 68.0376 87.093 67.9612L92.946 66.7281L85.8831 57.9765L84.8505 41.9409C84.8273 41.5726 85.1056 41.2547 85.4738 41.2315C85.8421 41.2111 86.1599 41.4867 86.1831 41.8549L87.1884 57.4677L95.3535 67.5861L87.3671 69.2693C87.3208 69.2789 87.2744 69.2843 87.228 69.2843L87.2307 69.2829Z" fill="#191919"/>
<path d="M131.389 100.061C131.389 100.061 133.707 81.0802 135.472 75.5627C137.237 70.0452 139.444 71.1487 140.547 71.1487C141.651 71.1487 142.975 72.6941 142.754 76.0047C142.533 79.3152 142.312 82.6257 142.312 82.6257C142.312 82.6257 156.658 83.5082 160.189 88.3642C163.721 93.2201 163.831 104.034 163.831 104.034L131.389 100.062V100.061Z" fill="url(#paint7_linear_2220_5185)"/>
<path fill-rule="evenodd" clip-rule="evenodd" d="M71.7508 106.807C71.9841 106.869 72.1657 107.052 72.226 107.286L87.0121 164.667C87.0852 164.95 86.9652 165.248 86.7161 165.402C86.4669 165.556 86.1467 165.53 85.9259 165.337L58.5592 141.502C58.2886 141.267 58.2524 140.859 58.4773 140.58L66.9273 130.069L54.1488 125.74C53.9314 125.667 53.7669 125.487 53.7133 125.263C53.6597 125.04 53.7244 124.805 53.8847 124.641L71.1002 106.986C71.2688 106.813 71.5175 106.745 71.7508 106.807ZM55.5822 124.815L68.2617 129.109C68.4684 129.179 68.6279 129.346 68.6889 129.555C68.75 129.765 68.7049 129.991 68.5681 130.161L59.9217 140.916L85.1804 162.916L71.2279 108.77L55.5822 124.815Z" fill="#191919"/>
<path fill-rule="evenodd" clip-rule="evenodd" d="M100.978 106.807C101.212 106.745 101.46 106.813 101.629 106.986L118.844 124.641C119.005 124.805 119.069 125.04 119.016 125.263C118.962 125.487 118.798 125.667 118.58 125.74L105.802 130.069L114.252 140.58C114.477 140.859 114.44 141.267 114.17 141.502L86.8032 165.337C86.5824 165.53 86.2622 165.556 86.013 165.402C85.7639 165.248 85.6439 164.95 85.717 164.667L100.503 107.286C100.563 107.052 100.745 106.869 100.978 106.807ZM101.501 108.77L87.5487 162.916L112.807 140.916L104.161 130.161C104.024 129.991 103.979 129.765 104.04 129.555C104.101 129.346 104.261 129.179 104.467 129.109L117.147 124.815L101.501 108.77Z" fill="#191919"/>
<path d="M89.5261 115.952H84.7506L81.6938 106.903L91.8464 106.829L89.5261 115.952Z" fill="#191919"/>
<path fill-rule="evenodd" clip-rule="evenodd" d="M92.3729 106.416C92.5007 106.579 92.5456 106.793 92.4945 106.993L90.1743 116.116C90.099 116.412 89.8322 116.62 89.5265 116.62H84.7511C84.4644 116.62 84.2096 116.437 84.1178 116.165L81.061 107.116C80.9924 106.913 81.0254 106.689 81.1499 106.514C81.2743 106.34 81.475 106.235 81.6894 106.234L91.8419 106.16C92.0491 106.159 92.2452 106.253 92.3729 106.416ZM82.6233 107.564L85.2308 115.283H89.0069L90.9855 107.503L82.6233 107.564Z" fill="#191919"/>
<path d="M84.7517 115.951L77.8701 132.283L86.3653 164.834L95.3052 130.518L89.5272 115.951H84.7517Z" fill="#191919"/>
<path fill-rule="evenodd" clip-rule="evenodd" d="M84.1352 115.692C84.2396 115.444 84.4822 115.283 84.7511 115.283H89.5266C89.8006 115.283 90.0468 115.45 90.1479 115.705L95.9259 130.272C95.9783 130.404 95.9873 130.549 95.9515 130.687L87.0116 165.003C86.9349 165.297 86.6691 165.503 86.3649 165.503C86.0607 165.503 85.7949 165.298 85.7181 165.003L77.2228 132.452C77.1857 132.31 77.1965 132.159 77.2536 132.024L84.1352 115.692ZM85.1948 116.62L78.5735 132.334L86.3642 162.185L94.6027 130.561L89.0727 116.62H85.1948Z" fill="#191919"/>
<path d="M90.4484 131.695L64.9219 135.078L74.2832 192.258L77.0973 190.437L107.443 173.995L90.4484 131.695Z" fill="url(#paint8_linear_2220_5185)"/>
<path d="M117.619 184.644L77.2326 191.997L68.5996 136.475L107.417 128.624L117.619 184.644Z" fill="white"/>
<path d="M57.2153 156.924C57.2153 156.924 66.8345 147.953 71.4695 147.29C76.1045 146.628 80.2975 146.848 80.9591 150.821C81.6206 154.795 83.3871 170.242 81.6206 174.435C79.8556 178.628 72.6467 185.735 72.6467 185.735L57.2153 156.923V156.924Z" fill="url(#paint9_linear_2220_5185)"/>
<path fill-rule="evenodd" clip-rule="evenodd" d="M57.0881 155.366C57.2638 155.417 57.4111 155.537 57.4957 155.699L69.4133 178.541C69.584 178.868 69.4571 179.272 69.1299 179.443C68.8026 179.614 68.3989 179.487 68.2281 179.16L56.635 156.939L18.1773 179.427C17.8586 179.614 17.4492 179.506 17.2629 179.188C17.0766 178.869 17.1838 178.46 17.5025 178.273L56.5658 155.431C56.7236 155.339 56.9124 155.315 57.0881 155.366Z" fill="#191919"/>
<path fill-rule="evenodd" clip-rule="evenodd" d="M130.724 99.9923C130.763 99.6273 131.088 99.3614 131.453 99.3967L151.978 101.383C152.345 101.418 152.614 101.745 152.579 102.112C152.543 102.48 152.217 102.749 151.849 102.713L131.985 100.791L124.771 169.651C124.733 170.018 124.404 170.285 124.037 170.246C123.67 170.208 123.403 169.879 123.442 169.512L130.724 99.9923Z" fill="#191919"/>
</g>
<defs>
<linearGradient id="paint0_linear_2220_5185" x1="41.8364" y1="101.945" x2="76.2646" y2="240.985" gradientUnits="userSpaceOnUse">
<stop stop-color="#B5EADD"/>
<stop offset="1" stop-color="#D0D4F9"/>
</linearGradient>
<linearGradient id="paint1_linear_2220_5185" x1="41.8364" y1="101.945" x2="76.2646" y2="240.985" gradientUnits="userSpaceOnUse">
<stop stop-color="#2B66BD"/>
<stop offset="1" stop-color="#3782EF"/>
</linearGradient>
<linearGradient id="paint2_linear_2220_5185" x1="126.604" y1="80.9555" x2="161.033" y2="219.996" gradientUnits="userSpaceOnUse">
<stop stop-color="#B5EADD"/>
<stop offset="1" stop-color="#D0D4F9"/>
</linearGradient>
<linearGradient id="paint3_linear_2220_5185" x1="126.604" y1="80.9545" x2="161.033" y2="219.995" gradientUnits="userSpaceOnUse">
<stop stop-color="#2B66BD"/>
<stop offset="1" stop-color="#3782EF"/>
</linearGradient>
<linearGradient id="paint4_linear_2220_5185" x1="5.04649" y1="111.055" x2="39.4747" y2="250.096" gradientUnits="userSpaceOnUse">
<stop stop-color="#B5EADD"/>
<stop offset="1" stop-color="#D0D4F9"/>
</linearGradient>
<linearGradient id="paint5_linear_2220_5185" x1="5.04649" y1="111.055" x2="39.4747" y2="250.096" gradientUnits="userSpaceOnUse">
<stop stop-color="#2B66BD"/>
<stop offset="1" stop-color="#3782EF"/>
</linearGradient>
<radialGradient id="paint6_radial_2220_5185" cx="0" cy="0" r="1" gradientUnits="userSpaceOnUse" gradientTransform="translate(79.9252 37.3513) rotate(-22.49) scale(66.3126)">
<stop stop-color="#B5EADD"/>
<stop offset="1" stop-color="#D0D4F9"/>
</radialGradient>
<linearGradient id="paint7_linear_2220_5185" x1="131.389" y1="87.5457" x2="163.831" y2="87.5457" gradientUnits="userSpaceOnUse">
<stop stop-color="#B5EADD"/>
<stop offset="1" stop-color="#D0D4F9"/>
</linearGradient>
<linearGradient id="paint8_linear_2220_5185" x1="64.9219" y1="161.977" x2="107.443" y2="161.977" gradientUnits="userSpaceOnUse">
<stop stop-color="#B5EADD"/>
<stop offset="1" stop-color="#D0D4F9"/>
</linearGradient>
<linearGradient id="paint9_linear_2220_5185" x1="67.7757" y1="168.873" x2="78.3702" y2="161.59" gradientUnits="userSpaceOnUse">
<stop stop-color="#B5EADD"/>
<stop offset="1" stop-color="#D0D4F9"/>
</linearGradient>
</defs>
</svg>
