<svg width="177" height="177" viewBox="0 0 177 177" fill="none" xmlns="http://www.w3.org/2000/svg">
<mask id="mask0_2220_5426" style="mask-type:luminance" maskUnits="userSpaceOnUse" x="0" y="0" width="177" height="177">
<path d="M88.5001 177C137.377 177 177 137.377 177 88.5C177 39.6228 137.377 0 88.5001 0C39.6229 0 0 39.6228 0 88.5C0 137.377 39.6229 177 88.5001 177Z" fill="white"/>
</mask>
<g mask="url(#mask0_2220_5426)">
<path d="M90.0703 268.378C189.415 268.378 269.95 187.843 269.95 88.4986C269.95 -10.8461 189.415 -91.3809 90.0703 -91.3809C-9.27437 -91.3809 -89.8091 -10.8461 -89.8091 88.4986C-89.8091 187.843 -9.27437 268.378 90.0703 268.378Z" fill="white"/>
<path d="M168.098 115.106C168.068 115.216 168.041 115.328 168.009 115.439L167.91 115.769C167.982 115.593 168.05 115.365 168.099 115.104L168.098 115.106Z" fill="#F6A473"/>
<path d="M129.651 96.0543C130.04 95.7624 130.168 95.5932 130.161 95.54C129.989 95.6887 129.835 95.8252 129.736 95.9193C129.635 96.012 129.594 96.0652 129.651 96.053V96.0543Z" fill="#F6A473"/>
<path d="M120.223 101.483C120.433 101.382 120.606 101.29 120.795 101.196C120.559 101.275 120.332 101.374 120.223 101.483Z" fill="#F6A473"/>
<path d="M168.097 115.105C168.171 114.819 168.254 114.534 168.321 114.246L168.519 113.378C168.44 113.308 168.378 113.528 168.318 113.872C168.291 114.044 168.258 114.247 168.224 114.46C168.184 114.673 168.144 114.895 168.099 115.105H168.097Z" fill="#F6A473"/>
<path d="M152.492 117.262C152.489 117.082 152.492 116.903 152.492 116.723C152.432 116.563 152.36 116.413 152.281 116.271C152.346 116.603 152.417 116.933 152.491 117.262H152.492Z" fill="#F6A473"/>
<path d="M158.397 95.8829C158.067 96.2621 158.326 96.6822 158.368 96.9537C158.379 96.7845 158.42 96.6113 158.492 96.4381C158.566 96.2648 158.667 96.0875 158.79 95.9061C158.727 95.8461 158.605 95.8338 158.397 95.8829Z" fill="#F6A473"/>
<path d="M162.118 126.967C162.19 126.998 162.296 126.994 162.394 126.967C162.36 126.92 162.257 126.93 162.118 126.967Z" fill="#F6A473"/>
<path d="M102.074 108.937C102.112 108.932 102.124 108.929 102.16 108.922C102.633 108.716 102.36 108.82 102.074 108.937Z" fill="#F6A473"/>
<path d="M62.9282 47.8451C63.006 47.3418 63.0878 47.2886 63.1696 47.4523C63.2105 47.5328 63.2528 47.6678 63.2951 47.8261C63.3346 47.9843 63.3701 48.1643 63.4083 48.3376C63.557 49.0291 63.7098 49.6102 63.9076 48.0634C63.8639 48.137 63.797 47.9979 63.7111 47.7933C63.6224 47.5873 63.5188 47.3146 63.4151 47.1127C63.2078 46.7089 63.0032 46.5943 62.9296 47.8465L62.9282 47.8451Z" fill="#F6A473"/>
<path d="M63.9077 48.0627H63.9118C63.9241 47.9564 63.9378 47.8499 63.9459 47.7422C63.935 47.8745 63.9214 47.9495 63.9077 48.0627Z" fill="#F6A473"/>
<path d="M59.4297 103.596C59.4611 103.713 59.5689 103.871 59.6944 104.019C59.7066 103.972 59.6507 103.87 59.4297 103.596Z" fill="#F6A473"/>
<path d="M91.0086 112.104C90.7304 112.114 90.4521 112.126 90.1738 112.132C90.5067 112.141 90.7754 112.124 91.0086 112.104Z" fill="#F6A473"/>
<path d="M46.3862 92.1172C46.1339 91.7353 46.0903 91.5743 45.6606 91.1201C45.677 91.1801 45.7001 91.2347 45.7315 91.3029C45.9184 91.4434 46.1243 91.6616 46.3862 92.1172Z" fill="#F6A473"/>
<path d="M36.9873 76.4141C36.9955 76.5177 37.0229 76.6459 37.0406 76.7619C37.1197 76.9255 37.2179 77.1152 37.3066 77.2816C37.192 76.9965 37.091 76.7046 36.9873 76.4141Z" fill="#F6A473"/>
<path d="M43.0854 93.7143L42.6299 93.0978C42.4771 92.8932 42.338 92.679 42.1907 92.4703L41.3218 91.21C41.5537 91.5701 41.8278 91.9779 42.1251 92.4076C42.2752 92.6217 42.4254 92.844 42.5863 93.0623C42.7514 93.2778 42.919 93.496 43.0854 93.7129V93.7143Z" fill="#F6A473"/>
<path d="M36.5127 83.5376C36.4527 83.2607 36.3721 82.9864 36.2821 82.7095C36.1976 82.4313 36.098 82.153 35.9903 81.8747C35.9016 81.7793 35.8102 81.6647 35.7256 81.6143C35.9793 82.2581 36.2303 82.9046 36.5127 83.5376Z" fill="#F6A473"/>
<path d="M-55.4511 77.2568C-55.1456 77.1395 -54.9014 77.0345 -54.7077 76.9417C-54.5113 76.8558 -54.3653 76.7795 -54.2576 76.7099C-54.0434 76.5708 -53.9862 76.4616 -53.993 76.3634C-54.0067 76.1656 -54.2848 76.0142 -54.0707 75.7578C-52.5662 75.1726 -52.1638 75.2053 -52.0192 75.3363C-51.8719 75.4713 -51.9606 75.7332 -51.404 75.7373C-50.9348 75.5818 -50.497 75.4086 -50.0782 75.2394C-49.6567 75.0812 -49.2584 74.908 -48.8683 74.758C-48.4768 74.6134 -48.099 74.4756 -47.7239 74.3624C-47.3475 74.2601 -46.975 74.1782 -46.5999 74.1332C-46.4758 74.2137 -46.1824 74.2178 -46.5071 74.3801C-45.48 74.02 -43.8909 73.8658 -42.2527 73.8017C-40.6132 73.7335 -38.9258 73.7581 -37.6437 73.5331C-37.4595 73.5985 -37.3682 73.6558 -37.3232 73.7049C-37.7119 73.3762 -37.7596 73.0679 -37.6614 72.8578C-37.0366 72.9001 -36.4501 72.836 -35.9631 72.8414C-35.4762 72.8442 -35.0915 72.8878 -34.8774 73.1047C-35.6412 73.0188 -35.719 73.1702 -36.0859 73.2561L-34.7669 73.2138C-33.658 73.8958 -36.562 73.2234 -36.5961 73.6558C-35.9605 73.6585 -35.2975 73.6612 -34.6319 73.6653C-34.2977 73.6721 -33.9621 73.679 -33.6279 73.6872C-33.2937 73.6926 -32.961 73.7022 -32.635 73.724C-32.3158 73.7445 -32.002 73.7636 -31.6937 73.7827C-31.6405 73.7854 -31.5887 73.7868 -31.5355 73.7895H-31.4974C-31.4851 73.7949 -31.4741 73.799 -31.4618 73.8031L-31.3909 73.829C-31.3391 73.8481 -31.2873 73.8672 -31.2368 73.8863C-31.1673 73.915 -31.099 73.9422 -31.0322 73.9695C-30.4866 74.1837 -30.0064 74.447 -29.593 74.6952C-29.5671 74.8616 -29.8113 74.8288 -30.155 74.7115C-30.3269 74.6529 -30.5247 74.5724 -30.728 74.4865C-30.9339 74.4074 -31.1454 74.3201 -31.3418 74.241C-31.3663 74.2314 -31.3896 74.2219 -31.4141 74.2109L-31.455 74.196C-31.4823 74.1864 -31.5083 74.1768 -31.5328 74.1687C-31.556 74.1605 -31.5792 74.1537 -31.5997 74.1469C-31.6229 74.1455 -31.6446 74.1468 -31.6651 74.1455C-31.7496 74.1455 -31.8083 74.1523 -31.8751 74.1633C-31.8997 74.1701 -31.9079 74.1823 -31.897 74.1987C-31.8915 74.2069 -31.8806 74.2164 -31.8656 74.2273C-31.8574 74.2328 -31.8479 74.2383 -31.8384 74.2437C-31.8275 74.2505 -31.8152 74.256 -31.8111 74.2614C-31.7865 74.2846 -31.747 74.3119 -31.7088 74.3419C-31.6651 74.3664 -31.631 74.4224 -31.5737 74.481L-31.6432 74.4347C-31.6651 74.4183 -31.6869 74.4047 -31.7114 74.3992L-31.7906 74.3747L-31.8329 74.3624L-31.9228 74.3419L-32.6581 74.1796C-33.1478 74.0664 -33.6415 73.9791 -34.1339 73.8809C-31.9719 75.0198 -35.9263 73.5999 -33.958 74.7757C-33.7165 74.8139 -33.4888 74.8493 -33.2733 74.8834C-33.0578 74.9189 -32.8532 74.953 -32.6581 74.9843C-32.4631 75.013 -32.2776 75.0403 -32.1016 75.0676C-32.0579 75.0731 -32.0129 75.0799 -31.9707 75.0853C-31.942 75.0894 -31.9447 75.088 -31.9392 75.0894H-31.9256C-31.9052 75.0921 -31.8955 75.0921 -31.8833 75.0908C-31.871 75.0935 -31.8642 75.0948 -31.8465 75.1003L-31.8233 75.1072C-31.792 75.1194 -31.762 75.1317 -31.7319 75.144C-31.5969 75.1986 -31.4659 75.2517 -31.3377 75.3036C-31.0785 75.4004 -30.8412 75.5136 -30.597 75.6145C-30.3542 75.7168 -30.1101 75.8192 -29.8632 75.9433C-29.6149 76.0661 -29.3516 76.1888 -29.0747 76.3416C-28.7992 76.4984 -28.5019 76.6676 -28.1787 76.8708C-28.0204 76.9772 -27.8526 77.0891 -27.6766 77.2078C-27.5006 77.3278 -27.3152 77.4519 -27.1283 77.5979C-26.2485 77.8338 -27.1105 77.0604 -26.2225 77.3032C-25.917 77.4669 -25.6511 77.6442 -25.4014 77.8052C-25.2773 77.887 -25.1601 77.9661 -25.0468 78.0439C-24.9364 78.1244 -24.8326 78.2049 -24.733 78.2826C-24.5339 78.4381 -24.3552 78.5882 -24.1956 78.73C-24.0361 78.8746 -23.8982 79.0178 -23.7727 79.1528C-23.2667 79.6875 -23.0157 80.1555 -22.7879 80.5688C-22.5683 80.9943 -22.3829 81.3789 -22.046 81.8045C-21.8795 82.02 -21.6749 82.2437 -21.4062 82.4865C-21.1429 82.7362 -20.8182 83.0049 -20.4077 83.3104C-20.1662 83.4427 -19.9358 83.5314 -19.6985 83.6296C-19.5798 83.6788 -19.4597 83.7292 -19.3369 83.7892C-19.2155 83.8506 -19.0914 83.9216 -18.9618 84.0075C-18.7054 84.1807 -18.4148 84.4058 -18.112 84.759C-17.9578 84.9336 -17.797 85.1382 -17.6251 85.3756C-17.4573 85.6157 -17.284 85.8939 -17.0985 86.2104C-17.4655 86.0726 -17.8284 85.9362 -18.1926 85.8066C-17.9116 86.1818 -17.6714 86.4845 -17.4586 86.7287C-17.2499 86.977 -17.074 87.1707 -16.9145 87.3262C-16.5925 87.6358 -16.3565 87.8076 -16.1232 87.9877C-15.8913 88.1691 -15.6567 88.3587 -15.3784 88.7352C-15.2379 88.9221 -15.0825 89.1526 -14.9065 89.45C-14.7374 89.7501 -14.5438 90.1143 -14.3282 90.5658C-14.4715 90.4457 -14.6555 90.2356 -14.8424 89.9942C-15.0293 89.7528 -15.223 89.4827 -15.3976 89.2481C-15.7427 88.7761 -15.9828 88.4269 -15.8573 88.6861C-15.354 89.8892 -15.0538 90.2274 -14.7237 90.4716C-14.5587 90.593 -14.395 90.694 -14.2068 90.8713C-14.0212 91.05 -13.8031 91.2982 -13.5603 91.732L-13.8384 92.3595C-13.3242 93.2229 -12.8169 94.1204 -12.3054 95.0425C-12.0585 95.5077 -11.7966 95.9714 -11.5551 96.4516C-11.4324 96.6903 -11.3082 96.9304 -11.184 97.1704C-11.064 97.4132 -10.944 97.6574 -10.824 97.9015C-10.7012 98.1457 -10.5853 98.3939 -10.4707 98.6436C-10.3561 98.8932 -10.2402 99.1428 -10.1242 99.3938C-9.90463 99.9012 -9.67547 100.407 -9.47086 100.927C-9.04528 101.958 -8.67016 103.019 -8.32915 104.093C-8.43964 103.995 -8.59517 103.775 -8.70293 103.711C-8.81205 103.647 -8.86797 103.738 -8.80523 104.263C-7.88996 106.93 -7.28708 109.901 -7.01973 112.864C-6.75101 115.828 -6.81917 118.778 -7.14108 121.43C-7.07424 121.773 -7.03063 122.117 -6.9747 122.464C-6.91741 122.81 -6.87649 123.157 -6.83284 123.506C-6.88467 123.982 -7.14381 124.36 -7.17518 123.839C-7.61713 125.878 -6.88876 123.982 -6.83284 125.005C-6.98152 126.194 -7.3484 126.514 -7.36887 125.75C-7.45071 127.59 -7.83128 130.213 -8.68108 132.727C-9.1012 133.983 -9.64137 135.204 -10.2497 136.281C-10.3943 136.556 -10.5607 136.809 -10.7162 137.062C-10.7953 137.187 -10.8731 137.311 -10.9523 137.431C-11.0355 137.549 -11.1173 137.663 -11.1978 137.776C-11.2796 137.888 -11.3615 137.999 -11.4406 138.108C-11.4801 138.161 -11.521 138.217 -11.5606 138.266C-11.6015 138.311 -11.6411 138.356 -11.6806 138.401C-11.8416 138.577 -11.9861 138.749 -12.1552 138.891C-12.0407 138.693 -11.9603 138.478 -11.8675 138.274C-11.9753 138.4 -12.0694 138.523 -12.158 138.641C-12.2549 138.754 -12.3436 138.864 -12.4241 138.971C-12.4636 139.026 -12.5017 139.079 -12.5399 139.131C-12.5809 139.18 -12.619 139.229 -12.6558 139.277C-12.7295 139.374 -12.7977 139.469 -12.8604 139.563C-12.9887 139.749 -13.1142 139.914 -13.222 140.087C-13.3338 140.256 -13.4498 140.408 -13.5616 140.569C-13.7935 140.877 -14.0459 141.173 -14.4074 141.432C-14.4524 141.465 -14.4974 141.499 -14.5451 141.53C-14.5956 141.559 -14.6461 141.587 -14.6979 141.617C-14.8029 141.675 -14.9147 141.732 -15.0348 141.788C-15.1562 141.84 -15.2885 141.881 -15.4276 141.924C-15.4972 141.945 -15.5695 141.965 -15.6431 141.987C-15.7195 142.001 -15.7972 142.016 -15.8777 142.029L-15.6622 141.908L-15.4536 141.772C-16.8381 142.306 -18.3753 142.519 -19.8498 142.306C-21.3229 142.102 -22.7115 141.463 -23.7659 140.496C-24.2952 140.016 -24.7425 139.458 -25.1027 138.861C-25.4696 138.266 -25.722 137.614 -25.9129 136.969C-25.9348 136.887 -25.9565 136.807 -25.9784 136.725C-25.9947 136.657 -26.0098 136.61 -26.0111 136.572L-26.0153 136.494L-26.0262 136.369C-26.0344 136.277 -26.0425 136.187 -26.0507 136.097C-26.0793 135.737 -26.1148 135.385 -26.1257 135.039C-26.138 134.343 -26.1516 133.682 -26.0902 133.051C-26.2717 132.826 -26.3904 132.305 -26.4163 131.641C-26.4313 131.31 -26.4476 130.944 -26.4367 130.563C-26.4217 130.183 -26.4067 129.787 -26.3917 129.394C-26.3017 127.828 -26.1475 126.338 -26.5976 126.072C-26.4831 125.604 -26.3821 125.212 -26.2907 124.877C-26.198 124.541 -26.1012 124.262 -26.0207 124.012C-25.9375 123.764 -25.8638 123.547 -25.7943 123.339C-25.7192 123.133 -25.647 122.938 -25.5706 122.73C-25.4219 122.315 -25.2773 121.853 -25.0563 121.177C-24.9472 120.839 -24.8367 120.446 -24.6799 119.983C-24.5271 119.519 -24.3662 118.977 -24.1438 118.347C-24.0388 118.007 -23.9897 117.701 -23.9611 117.403C-23.9283 117.107 -23.9242 116.819 -23.9215 116.521C-23.9215 115.919 -23.8942 115.275 -23.6623 114.412L-23.1768 114.533C-23.0704 113.722 -22.9721 112.902 -22.8371 112.088L-22.3282 111.595L-21.8099 111.111L-21.5535 110.316C-21.4676 110.051 -21.3734 109.789 -21.2834 109.524C-21.5807 110.119 -22.0377 110.741 -22.1332 110.593C-21.9436 109.964 -21.6504 109.297 -21.3421 108.643C-21.1825 108.319 -21.0107 108.001 -20.8415 107.693C-20.6724 107.386 -20.5005 107.091 -20.3259 106.82C-19.6466 105.728 -19.0191 104.975 -18.8936 105.003C-18.0861 103.105 -17.2076 101.228 -16.2705 99.3747C-16.1682 99.5956 -16.6402 100.525 -16.9294 101.302C-16.7807 100.912 -16.658 100.613 -16.5516 100.388C-16.4438 100.163 -16.3566 100.009 -16.2829 99.9012C-16.1356 99.6871 -16.0442 99.6639 -15.9555 99.6489C-15.7768 99.6189 -15.624 99.6202 -15.032 98.2057C-15.3402 98.4935 -15.1712 97.862 -15.2203 97.7501C-14.9571 97.4678 -14.6406 97.0749 -14.2996 96.6084C-13.9545 96.1447 -13.5793 95.61 -13.1947 95.0425C-12.4226 93.9117 -11.5933 92.65 -10.9195 91.5874V92.1835C-10.8335 92.0689 -10.7503 91.9529 -10.6657 91.8384L-10.5402 91.6651L-10.4298 91.5329C-10.2825 91.3569 -10.1474 91.1714 -9.97825 91.0022C-9.89913 90.9149 -9.81866 90.8276 -9.73954 90.739C-9.65361 90.6585 -9.56905 90.5767 -9.48312 90.4962C-9.31807 90.3243 -9.12848 90.1838 -8.94843 90.0297C-8.86113 89.9492 -8.75885 89.8865 -8.66337 89.8156C-8.56516 89.7474 -8.47245 89.6723 -8.37151 89.6055C-8.2692 89.5414 -8.1668 89.4786 -8.06313 89.4145C-8.0113 89.3831 -7.96085 89.349 -7.90902 89.3176L-7.74531 89.2317C-7.63754 89.1731 -7.52847 89.1144 -7.41935 89.0558C-7.30477 89.0039 -7.19025 88.9521 -7.07568 88.9002L-6.9037 88.8212C-6.84641 88.7953 -6.78373 88.7761 -6.72507 88.7516L-6.36356 88.6138C-5.38008 88.2701 -4.28214 88.06 -3.12543 87.9577C-1.966 87.8595 -0.747887 87.8799 0.48793 87.9768C0.047348 87.8977 -0.254112 87.82 -0.438255 87.7299C-0.622398 87.6413 -0.689217 87.5458 -0.655113 87.4599C-0.621017 87.3739 -0.484627 87.2962 -0.262291 87.2416C-0.151802 87.2143 -0.0195084 87.1911 0.130539 87.1789C0.281944 87.168 0.45118 87.1666 0.638054 87.1734C0.820831 87.363 1.00218 87.554 1.18087 87.7504C1.67192 87.6358 1.29411 87.5485 1.03767 87.4626C0.783958 87.3821 0.650291 87.2948 1.65695 87.1979C2.60496 87.3343 2.90369 87.5308 2.8273 87.6849C2.75092 87.8363 2.30354 87.9631 1.75792 87.9822C2.52315 88.0123 3.29239 88.0491 4.06852 88.1119C4.17901 88.2878 3.62794 88.2864 3.46017 88.4651C3.95258 88.3737 4.91965 88.6547 5.9454 88.948C6.97116 89.2372 8.05702 89.5236 8.80042 89.3845L8.89993 89.5645C11.4534 90.0856 13.3453 90.4457 15.1295 90.7485C16.9136 91.0527 18.5942 91.3132 20.7685 91.631C20.8449 91.4128 21.3046 91.3882 21.9115 91.3951C22.2157 91.3951 22.5581 91.4019 22.9073 91.3965C23.2565 91.3896 23.6152 91.3637 23.9493 91.3078C25.5453 91.5506 27.2476 91.7906 29.0658 91.8984C29.9743 91.9584 30.9127 91.9652 31.873 91.9379C32.1131 91.9243 32.3559 91.9107 32.5987 91.897C32.7201 91.8889 32.8415 91.8807 32.9642 91.8739C33.087 91.8616 33.2085 91.8493 33.3312 91.837C33.5767 91.8098 33.8236 91.7825 34.0718 91.7552C34.3187 91.717 34.5685 91.6774 34.8181 91.6392C36.2026 91.29 36.3785 91.1332 36.3703 91.0336C36.3594 90.9313 36.163 90.8672 36.7454 90.5944C36.8914 90.7786 37.9403 90.619 38.7028 90.458C39.0833 90.3775 39.3971 90.3175 39.4953 90.3311C39.5922 90.3448 39.4789 90.4443 38.9946 90.6735C39.5798 90.4893 40.0995 90.2725 40.5851 90.0897C40.8238 89.986 41.0544 89.8865 41.2767 89.7883C41.3886 89.7392 41.4977 89.6914 41.6055 89.6437C41.7119 89.5918 41.8155 89.5413 41.9192 89.4909C42.3311 89.2876 42.7239 89.098 43.0963 88.8798C43.2832 88.7748 43.4702 88.6697 43.6557 88.5647C43.8384 88.4542 44.0185 88.3369 44.2013 88.2209C44.3827 88.1036 44.5709 87.9904 44.755 87.8622C44.9364 87.7326 45.1232 87.6003 45.3142 87.4639C45.7016 87.1993 46.0795 86.8774 46.4996 86.5445C46.7083 86.3768 46.9115 86.1858 47.1311 85.9949C47.1857 85.9471 47.2403 85.898 47.2962 85.8489L47.3386 85.8121C47.3508 85.8012 47.3426 85.8066 47.3467 85.8025C47.3453 85.8011 47.3535 85.7903 47.3631 85.7807C47.3794 85.7603 47.4012 85.7452 47.4217 85.7289C47.434 85.7193 47.4298 85.7221 47.4339 85.7166L47.5336 85.6566C47.8036 85.4915 48.0874 85.321 48.3806 85.1369C48.6671 84.9418 48.9686 84.7386 49.2836 84.5245C48.6275 84.7223 47.9618 85.0346 48.2182 84.7168C48.667 84.403 49.2276 84.1343 49.6505 83.9311C50.0802 83.7374 50.4021 83.6555 50.3939 83.781L50.1757 83.9789C51.5029 82.8931 52.9161 81.7432 54.3019 80.4869C55.6905 79.2334 57.0436 77.8666 58.2576 76.4302C60.6924 73.5658 62.5461 70.3998 63.1518 67.7427L63.0753 68.0373C63.6509 66.2627 64.1134 64.465 64.4708 62.6576C64.6672 62.0547 64.7395 61.8432 64.779 61.8487C64.8145 61.8528 64.8077 62.0683 64.7954 62.3057C64.7654 62.7776 64.7314 63.3437 65.1174 62.4666C65.3452 60.9703 65.5592 59.6499 65.7638 58.425C65.9548 57.1973 66.1581 56.0707 66.3055 54.9658C66.4678 53.8636 66.5809 52.7847 66.6437 51.6744C66.6532 51.3961 66.6614 51.1165 66.6668 50.8341C66.6682 50.6923 66.6696 50.5504 66.6723 50.4072C66.6682 50.264 66.6655 50.1207 66.6614 49.9761C66.6518 49.687 66.6396 49.3937 66.6233 49.0964C66.6001 48.799 66.5687 48.4961 66.5346 48.1892C67.117 46.2728 66.8551 42.7999 65.9398 39.2889C65.4869 37.532 64.88 35.767 64.2266 34.1465C63.5773 32.522 62.8816 31.0433 62.336 29.7843L62.2474 30.2017C62.1288 30.0708 62.0291 29.948 61.9445 29.8334C61.8559 29.7202 61.7795 29.6152 61.7167 29.5143C61.5899 29.3124 61.5081 29.1296 61.4399 28.9481C61.3758 28.7654 61.313 28.5935 61.238 28.4067C61.163 28.2211 61.0702 28.0234 60.9311 27.8038C60.8411 28.0588 61.6063 29.1882 60.9748 28.5744C60.0936 27.3986 59.1101 26.2746 58.0175 25.2421C56.9249 24.2095 55.7218 23.2684 54.4192 22.4608C53.1192 21.652 51.7198 20.9808 50.263 20.4666C49.9001 20.3357 49.5291 20.2293 49.1608 20.1092C48.9767 20.0465 48.7898 20.0014 48.603 19.9537L48.0423 19.8091L47.7614 19.7368C47.6659 19.715 47.5622 19.6986 47.464 19.6782L46.8638 19.5663L46.5624 19.5118L46.2568 19.479L45.6443 19.4149C45.4397 19.3877 45.2338 19.3876 45.0278 19.3822L44.4085 19.3672C43.9952 19.3699 43.582 19.404 43.1673 19.4259C42.7581 19.4818 42.3434 19.5254 41.9356 19.5991L41.3272 19.7273L41.023 19.7928C40.9207 19.8132 40.8239 19.8474 40.7243 19.8746C39.127 20.3084 37.6212 21.0027 36.2558 21.862C34.889 22.7227 33.6586 23.7457 32.5592 24.8642C31.4597 25.9827 30.4899 27.1981 29.6387 28.4707C29.4791 28.7012 29.3564 28.925 29.2404 29.1255C29.1272 29.3287 29.0263 29.5143 28.9458 29.6902C28.7903 30.0435 28.6853 30.3422 28.6144 30.6041C28.4766 31.1306 28.4794 31.5194 28.4412 31.9231C28.4248 32.125 28.4098 32.3364 28.3634 32.571C28.3225 32.807 28.2433 33.0649 28.1451 33.3786C27.9432 34.0047 27.5654 34.8162 26.9966 36.063L26.9817 35.2405L26.9966 34.4152C26.3732 36.5486 25.904 38.7296 25.6244 40.9571C25.5671 41.5164 25.4975 42.0743 25.4675 42.6376L25.4334 43.1096C25.4007 43.3169 25.4484 43.6006 25.4566 43.7384L25.5302 44.5336L25.6708 46.1241C25.7281 46.6534 25.7868 47.1812 25.8441 47.7105C25.9477 48.769 26.1004 49.8207 26.2396 50.8696C26.305 51.3948 26.3965 51.9158 26.4824 52.4369C26.5711 52.9566 26.6583 53.4762 26.7469 53.9946C26.852 54.5102 26.9557 55.0231 27.0608 55.536C27.1685 56.0475 27.2722 56.559 27.4018 57.0623C27.6541 58.0717 27.9024 59.0729 28.2148 60.0495C27.9856 59.6021 27.8151 59.6267 27.646 58.8438C27.6378 59.2884 27.7414 59.8995 27.8819 60.5679C27.9528 60.902 28.0374 61.2499 28.1288 61.5977C28.2243 61.9442 28.3348 62.2893 28.4425 62.6208C28.6621 63.2823 28.8803 63.8879 29.0809 64.319C29.2827 64.75 29.4451 65.0119 29.5228 64.9982C29.8447 66.2327 29.3306 65.3625 29.396 66.1645C29.4588 66.601 29.6129 67.0675 29.7943 67.5408C29.9771 68.0141 30.1898 68.4929 30.3889 68.9485C30.8077 69.8528 31.1828 70.6604 31.1514 71.1624C31.1432 71.3329 30.8719 70.7422 30.7382 70.4503C30.8773 70.7027 31.0464 71.1446 31.2415 71.6398C31.4365 72.1349 31.6535 72.686 31.8458 73.1729C31.9427 73.4157 32.0354 73.6408 32.1213 73.8331C32.2113 74.0241 32.2931 74.1823 32.3613 74.2915C32.4977 74.5111 32.5838 74.5356 32.5851 74.2437C32.7065 74.6106 32.8347 74.9694 32.9684 75.3213C33.1034 75.6732 33.2358 76.021 33.3913 76.3552C33.6927 77.0263 34.0023 77.6742 34.3051 78.3031C34.6243 78.925 34.9339 79.5293 35.2149 80.1241C35.354 80.4228 35.4919 80.7161 35.6269 81.0039C35.7592 81.2944 35.8806 81.5835 35.9911 81.8727C36.5653 82.4797 37.1573 83.6556 37.6933 84.7127C38.2608 85.7521 38.786 86.6605 39.2184 86.6946C39.0329 86.7423 39.0875 87.0725 39.2975 87.5649C39.4026 87.8104 39.5458 88.0969 39.7177 88.4092C39.8036 88.5647 39.8949 88.727 39.9931 88.8934C40.0927 89.0585 40.2032 89.2249 40.3151 89.3954C41.2004 90.7663 42.4198 92.2421 43.1455 92.9173C42.5658 92.53 44.0075 94.4055 43.2941 93.984C44.6759 95.7627 46.1545 97.2154 46.1777 96.6712C46.4382 97.1281 46.7288 97.5619 47.0398 97.9752C47.1926 98.1839 47.3631 98.3776 47.5322 98.5686C47.7027 98.7595 47.8772 98.945 48.0532 99.1264C48.7475 99.863 49.5237 100.48 50.2371 101.073C50.5891 101.374 50.956 101.639 51.2888 101.913C51.6243 102.185 51.9381 102.453 52.2218 102.723C52.8056 103.247 53.2721 103.774 53.5462 104.368C56.2811 106.331 59.0787 107.975 61.8968 109.349C64.7177 110.721 67.5698 111.815 70.4411 112.65C70.3879 112.729 70.2475 112.757 70.0443 112.749C69.942 112.745 69.8246 112.731 69.6937 112.711C69.5641 112.688 69.4222 112.651 69.2694 112.61C68.9652 112.527 68.6189 112.418 68.2547 112.296C67.8905 112.173 67.5044 112.048 67.1348 111.891C66.7624 111.742 66.3927 111.594 66.0462 111.463C65.7011 111.332 65.3778 111.22 65.1104 111.119C64.5689 110.928 64.2035 110.869 64.1803 111.07C64.5145 111.205 64.8405 111.336 65.1583 111.464C65.4774 111.588 65.798 111.689 66.1063 111.796C66.4159 111.899 66.7201 112 67.0174 112.1C67.1661 112.148 67.3134 112.197 67.4607 112.243C67.6094 112.284 67.7568 112.325 67.9027 112.366C68.4852 112.524 69.0498 112.678 69.605 112.83C70.1642 112.956 70.7153 113.082 71.265 113.206C71.8092 113.342 72.3658 113.435 72.9223 113.55C73.4816 113.659 74.0422 113.793 74.6301 113.888C75.2166 113.99 75.8155 114.119 76.4443 114.236C77.0759 114.34 77.7319 114.458 78.4235 114.596C79.1396 114.742 78.9255 114.791 78.4644 114.817C78.0061 114.825 77.3022 114.794 77.0458 114.814C77.7592 114.891 78.4603 114.998 79.1628 115.047C79.512 115.08 79.8612 115.114 80.2077 115.147C80.3809 115.165 80.5541 115.182 80.726 115.2C80.8979 115.218 81.0711 115.223 81.2443 115.236C81.9345 115.277 82.6165 115.331 83.2958 115.368C83.9751 115.387 84.6489 115.405 85.3187 115.424C87.9936 115.44 90.5935 115.248 93.0679 114.736C93.0638 114.814 92.5317 114.941 92.0256 115.053C92.2725 115.02 92.5413 114.994 92.8018 114.97C93.0637 114.949 93.3147 114.904 93.5315 114.869C93.9653 114.791 94.2558 114.696 94.1753 114.54L93.2314 114.775C92.4171 114.653 93.3611 114.259 94.5027 113.858C94.7878 113.761 95.0866 113.659 95.3758 113.561C95.6609 113.452 95.9364 113.346 96.1778 113.254C96.6607 113.065 97.0085 112.915 97.0385 112.845C96.6811 113.157 96.8012 113.27 97.1545 113.288C97.3305 113.297 97.5637 113.282 97.8215 113.259C98.0793 113.233 98.3589 113.181 98.6344 113.142C99.7284 112.974 100.728 112.861 99.5729 113.756C100.195 113.544 100.951 113.198 100.747 113.015C101.69 112.817 102.023 112.858 101.143 113.367C102.829 112.797 103.343 112.525 103.81 112.247C104.044 112.113 104.271 111.988 104.628 111.837C104.807 111.76 105.018 111.677 105.28 111.583C105.54 111.486 105.856 111.388 106.229 111.247C106.251 111.325 106.115 111.434 105.943 111.56C105.768 111.68 105.556 111.813 105.427 111.954C105.607 111.854 105.789 111.755 105.972 111.655C106.152 111.55 106.334 111.444 106.52 111.336C106.892 111.123 107.282 110.912 107.708 110.703C108.566 110.301 109.536 109.83 110.808 109.389C110.697 109.54 111.035 109.538 110.289 109.84C111.364 109.406 112.308 108.893 113.221 108.403C113.449 108.279 113.674 108.156 113.898 108.034C114.12 107.909 114.336 107.773 114.554 107.645C114.988 107.384 115.419 107.125 115.853 106.863C116.728 106.357 117.584 105.794 118.527 105.261C118.999 104.996 119.485 104.723 119.991 104.439C120.497 104.157 121.028 103.876 121.592 103.595C121.123 104.267 121.523 104.104 122.111 103.819C122.257 103.746 122.416 103.669 122.573 103.592C122.73 103.513 122.887 103.437 123.034 103.377C123.33 103.255 123.587 103.195 123.723 103.289L124.836 102.498L125.391 102.103C125.577 101.972 125.756 101.83 125.937 101.694L125.402 101.869L124.859 102.032C125.371 101.729 125.832 101.378 126.285 101.042C126.735 100.702 127.167 100.36 127.593 100.029C128.023 99.7034 128.432 99.3692 128.85 99.0596C129.269 98.7513 129.695 98.4649 130.141 98.2125L128.838 99.4279L130.629 98.1061L131.077 97.7761L131.516 97.4336L132.392 96.7489C131.671 97.1854 130.959 97.6301 130.223 98.0407C131.116 97.2291 130.943 97.1008 130.893 96.9794C130.841 96.8553 130.898 96.7244 132.209 95.8582C131.971 96.0724 132.446 95.7232 133.131 95.2635C133.303 95.1489 133.487 95.0275 133.675 94.9034C133.861 94.7779 134.053 94.651 134.241 94.5323C134.619 94.295 134.987 94.0877 135.285 93.9677C135.285 93.9677 135.278 93.9731 135.279 93.9745C135.68 93.538 136.087 93.0961 136.574 92.6432C137.051 92.1781 137.61 91.6993 138.332 91.2028C138.805 91.0636 138.475 91.9503 138.786 91.8616C138.929 91.5806 139.262 91.2123 139.693 90.799C140.124 90.3844 140.637 89.9028 141.164 89.4254C141.689 88.9453 142.221 88.457 142.668 88.0055L142.71 87.9632C142.725 87.9482 142.725 87.9454 142.734 87.9359C142.751 87.9168 142.769 87.8949 142.788 87.8772C142.84 87.8308 142.892 87.7859 142.941 87.7422C143.047 87.6481 143.146 87.5553 143.237 87.4653C143.421 87.2866 143.57 87.1106 143.682 86.9592C143.36 87.3316 143.525 87.6085 143.686 87.5744C143.856 87.2771 144.05 87.0111 144.241 86.7274C144.484 86.6182 144.669 86.5241 144.825 86.475C144.979 86.4232 145.091 86.3945 145.17 86.3864C145.329 86.3714 145.364 86.4436 145.351 86.5937C145.523 86.505 145.668 86.4259 145.79 86.3563C145.912 86.2854 146.018 86.2391 146.1 86.1899C146.265 86.0958 146.352 86.0263 146.389 85.9744C146.463 85.8708 146.332 85.8353 146.219 85.7998C146.106 85.7643 146.01 85.7302 146.167 85.6225C146.245 85.5693 146.385 85.4942 146.617 85.3988C146.854 85.3183 147.182 85.2051 147.632 85.0837C147.369 85.2119 147.52 85.2269 146.981 85.5025C147.2 85.4261 147.416 85.3497 147.633 85.2733C147.853 85.2105 148.07 85.1478 148.287 85.0809C148.501 85.0086 148.72 84.9623 148.936 84.9104L149.259 84.8314L149.42 84.7918L149.582 84.7645C149.799 84.7249 150.015 84.6868 150.23 84.6472C150.446 84.6199 150.663 84.6008 150.878 84.5749C151.094 84.5421 151.309 84.5449 151.525 84.5353L151.848 84.5231C151.956 84.5149 152.062 84.5299 152.17 84.5313C153.028 84.5449 153.874 84.6936 154.681 84.9527C155.489 85.2105 156.262 85.5774 156.95 86.0726C157.083 86.329 156.984 86.3686 156.781 86.3058C156.678 86.2745 156.55 86.2172 156.408 86.1463C156.373 86.1285 156.337 86.1095 156.3 86.0904C156.262 86.074 156.224 86.0576 156.184 86.0399C156.107 86.0044 156.028 85.9689 155.948 85.9335C155.869 85.8966 155.792 85.8612 155.715 85.8258C155.64 85.7889 155.565 85.7575 155.493 85.7343C155.35 85.6852 155.224 85.6457 155.131 85.6279C154.946 85.5925 154.897 85.6443 155.093 85.8653C156.149 86.2704 157.188 86.8433 158.168 87.5649C159.143 88.2919 160.058 89.1608 160.882 90.1211C162.533 92.0444 163.815 94.325 164.616 96.6316L164.343 95.76C164.603 95.8364 164.797 96.0996 164.955 96.4843C165.1 96.8744 165.227 97.3791 165.319 97.9493C165.527 99.0883 165.674 100.445 166.135 101.612C165.935 101.032 165.491 100.947 165.621 101.084C165.93 102.718 166.284 104.378 166.558 106.281C166.704 107.23 166.814 108.241 166.895 109.332C166.975 110.423 167.001 111.598 166.939 112.868L166.779 112.223C166.602 113.192 166.413 114.465 166.127 115.73C165.845 116.994 165.453 118.246 165.021 119.18C165.011 119.834 164.449 120.894 165.053 120.377C164.555 121.037 164.09 121.681 163.59 122.269L163.41 122.494L163.22 122.708C163.096 122.851 162.972 122.994 162.849 123.136C162.586 123.402 162.346 123.689 162.074 123.934L161.878 124.126L161.781 124.223C161.747 124.255 161.713 124.283 161.679 124.313C161.541 124.432 161.405 124.552 161.27 124.673C161.204 124.736 161.13 124.789 161.06 124.844L160.847 125.01L160.635 125.178C160.566 125.235 160.488 125.28 160.414 125.332C159.825 125.765 159.229 126.102 158.633 126.294C158.338 126.381 158.042 126.443 157.764 126.43C157.486 126.421 157.217 126.357 156.961 126.233C156.704 126.11 156.46 125.924 156.246 125.687C156.032 125.452 155.834 125.182 155.676 124.878C155.344 124.282 155.134 123.592 155.002 122.893C154.872 122.191 154.831 121.467 154.871 120.742C154.915 121.082 155.025 121.473 155.115 121.711C155.209 121.947 155.275 122.033 155.226 121.772C154.874 120.223 154.717 118.575 154.654 116.924C154.464 117.119 154.411 117.284 154.366 117.53C154.343 117.653 154.325 117.796 154.298 117.975C154.269 118.153 154.228 118.369 154.17 118.635C154.043 118.324 153.93 117.811 153.857 117.216C153.786 116.623 153.754 115.948 153.784 115.319C153.864 116.466 154.025 116.458 154.178 116.053C154.331 115.646 154.509 114.843 154.646 114.367C154.52 114.522 154.417 114.181 154.295 114.255C154.722 112.97 154.56 112.851 154.365 112.599C154.268 112.474 154.173 112.317 154.151 111.969C154.13 111.621 154.189 111.081 154.432 110.204L154.598 110.421C154.695 109.076 154.662 107.796 155.045 106.382C155.326 106.136 155.288 106.498 155.235 106.941C155.178 107.384 155.105 107.912 155.272 107.991C155.455 106.994 155.481 105.974 155.592 104.986C155.703 104 155.905 103.043 156.427 102.25C156.333 102.676 156.195 103.184 156.067 103.696C155.942 104.207 155.826 104.722 155.774 105.156C156.279 104.255 156.535 103.763 156.726 103.313C156.921 102.867 157.042 102.461 157.348 101.807L157.285 101.935C157.767 100.934 158.308 99.964 158.962 99.211L158.683 99.4879L158.416 99.7853C158.432 99.6271 158.456 99.4688 158.49 99.3174C158.529 99.166 158.562 99.0241 158.631 98.8659C158.758 98.5576 158.907 98.2616 159.072 97.9725C159.24 97.6847 159.416 97.3969 159.619 97.1227C159.821 96.8471 160.034 96.5743 160.252 96.2961C160.684 95.7368 161.175 95.1885 161.643 94.5706C161.875 94.2596 162.121 93.9472 162.354 93.6089C162.59 93.272 162.814 92.9105 163.036 92.5286C162.178 94.0195 162.171 94.1873 162.389 94.0509C162.61 93.9145 163.065 93.4725 163.164 93.7317C163.333 93.5898 163.523 93.4289 163.71 93.272C163.901 93.1192 164.088 92.9706 164.247 92.8505C164.568 92.6105 164.782 92.4877 164.704 92.6718C165.101 91.9407 165.636 91.5165 166.201 91.0132C166.342 90.8877 166.484 90.7554 166.633 90.6176C166.782 90.4798 166.933 90.3325 167.085 90.1688C167.39 89.8428 167.691 89.4445 168.008 88.9494C168.191 88.9944 169.281 87.7776 169.283 88.3178C170.01 87.5621 169.881 87.6017 169.555 87.7845C169.23 87.9686 168.734 88.3232 168.729 88.1896C168.855 88.0259 168.987 87.8649 169.128 87.704C169.27 87.5457 169.421 87.3916 169.578 87.2375C169.892 86.9292 170.231 86.6237 170.59 86.3195C171.324 85.7275 172.122 85.1246 172.978 84.5258C174.681 83.3118 176.528 82.0283 178.227 80.3873C178.613 80.06 178.969 79.779 179.284 79.5062C179.602 79.2375 179.883 78.9823 180.148 78.7518C180.678 78.2908 181.116 77.8802 181.55 77.4778C181.989 77.0836 182.424 76.6949 182.94 76.2652C183.461 75.8437 184.069 75.3868 184.852 74.8521C185.472 74.6475 185.313 74.9011 185.005 75.2053C184.85 75.3554 184.661 75.5286 184.509 75.6568C184.357 75.7864 184.243 75.8778 184.243 75.8778C184.712 75.665 185.146 75.4563 185.563 75.2558C185.978 75.0512 186.371 74.8425 186.752 74.6243C187.138 74.4115 187.518 74.1946 187.9 73.96C188.28 73.7226 188.669 73.4785 189.08 73.2234C188.794 73.5221 189.206 73.443 189.808 73.3366C190.484 72.967 190.655 72.7296 190.895 72.4936C191.136 72.2604 191.446 72.0162 192.421 71.6957C192.175 71.9958 191.892 72.45 191.3 72.9274C192.862 72.0026 194.386 71.0178 196.077 70.1693C196.361 70.2062 196.134 70.4039 195.774 70.6522C195.416 70.9045 194.92 71.2032 194.652 71.4147C195.125 71.1841 195.665 70.9087 196.227 70.6481C196.79 70.389 197.365 70.108 197.901 69.8529C198.438 69.6005 198.929 69.355 199.317 69.1313C199.705 68.9131 199.993 68.7248 200.112 68.568C199.666 68.6648 199.218 68.7616 198.776 68.8735C199.495 68.5857 199.274 69.0877 198.77 69.3591C198.374 69.5964 198.022 69.7615 197.711 69.8761C197.403 69.9961 197.137 70.0657 196.915 70.0998C196.47 70.168 196.198 70.1011 196.121 70.0466L197.333 69.4559C196.93 69.3673 196.413 69.4573 195.829 69.6565C195.244 69.8543 194.603 70.1898 193.93 70.5499C193.263 70.9223 192.574 71.3465 191.899 71.7434C191.563 71.948 191.232 72.1445 190.906 72.3259C190.58 72.5073 190.261 72.6696 189.958 72.8197C190.191 72.4459 190.435 72.0844 190.68 71.7175L190.111 72.1444L189.55 72.5837L188.436 73.4621C187.835 73.5876 187.293 73.4403 188.441 72.7269C187.494 73.0283 187.144 73.2957 186.818 73.5303C186.491 73.7636 186.199 73.9859 185.375 74.2383C185.185 74.2792 185.241 74.2096 185.379 74.1018L184.595 74.6597L183.821 75.2326C184.072 74.9189 183.304 74.9857 184.37 74.4688C183.581 74.8275 182.895 75.2013 182.308 75.59C181.723 75.9815 181.217 76.3579 180.777 76.7085C179.898 77.4137 179.238 77.9539 178.563 78.1148L178.777 77.9184C178.3 78.2799 177.939 78.5609 177.671 78.7805C177.402 79.0014 177.23 79.1692 177.117 79.2892C176.892 79.5307 176.918 79.6016 176.981 79.6603C177.043 79.7189 177.142 79.7653 177.065 79.9549C177.027 80.0504 176.945 80.1813 176.792 80.3682C176.641 80.5551 176.417 80.7938 176.106 81.1212C175.228 81.2726 174.336 81.4226 173.456 81.6054L173.39 82.2833C173.193 82.4293 172.893 82.6407 172.651 82.7921C172.41 82.9422 172.219 83.0226 172.227 82.889C171.022 84.3116 172.603 82.8589 171.984 83.7783C171.452 84.0607 170.891 84.4876 170.328 84.9527C169.759 85.4124 169.212 85.9376 168.693 86.4068C168.434 86.6414 168.184 86.8679 167.953 87.0766C167.722 87.2839 167.502 87.468 167.3 87.6195C167.098 87.7709 166.913 87.8882 166.749 87.9632C166.587 88.0382 166.446 88.0709 166.33 88.0477C166.158 88.4828 166.61 88.1323 166.91 87.9318C167.06 87.8309 167.169 87.764 167.136 87.8404C167.105 87.9181 166.928 88.1364 166.525 88.6274C166.25 88.6015 165.986 88.7243 165.72 88.9398C165.587 89.0476 165.453 89.1799 165.315 89.3286C165.179 89.4786 165.044 89.6491 164.901 89.8291C164.617 90.1893 164.31 90.5889 163.968 90.9818C163.631 91.3814 163.256 91.7715 162.816 92.103C162.945 91.3214 164.519 89.9642 162.752 91.2969C162.569 92.0226 161.847 92.7878 161.016 93.5557C160.611 93.9486 160.181 94.3427 159.784 94.7342C159.389 95.1257 159.042 95.5267 158.782 95.9073C158.884 96.0151 158.79 96.2729 158.569 96.6411C158.355 97.0149 158.014 97.4978 157.607 98.0489C157.506 98.1812 157.398 98.3394 157.289 98.499C157.183 98.6586 157.079 98.825 156.977 98.9955C156.776 99.3379 156.583 99.6966 156.409 100.069C156.056 100.81 155.766 101.593 155.556 102.341C155.498 102.215 154.916 103.568 154.389 105.341C154.123 106.226 153.864 107.214 153.642 108.158C153.418 109.102 153.231 110.003 153.083 110.714L152.997 110.616C153.25 110.935 153.254 111.823 153.214 112.905C153.17 113.985 153.1 115.266 153.141 116.346C152.791 116.255 152.646 115.86 152.551 114.67C152.511 115.353 152.491 116.039 152.484 116.727C152.575 116.971 152.648 117.253 152.71 117.639C152.773 118.027 152.826 118.518 152.899 119.182C152.738 119.018 152.586 118.853 152.429 118.684C152.502 120.068 152.768 121.463 153.192 122.938C153.41 123.676 153.662 124.437 154.035 125.229C154.215 125.624 154.437 126.028 154.709 126.432C154.981 126.835 155.317 127.246 155.77 127.606C155.88 127.56 155.794 127.341 155.697 127.099C155.655 126.973 155.613 126.837 155.58 126.713C155.546 126.59 155.539 126.464 155.543 126.37C155.556 126.179 155.651 126.089 155.89 126.186C155.92 126.198 155.951 126.213 155.987 126.231C156.023 126.246 156.063 126.265 156.104 126.286C156.189 126.327 156.279 126.387 156.393 126.439C156.448 126.467 156.506 126.497 156.57 126.53C156.637 126.556 156.705 126.586 156.779 126.617C156.85 126.654 156.933 126.67 157.016 126.7C157.098 126.733 157.191 126.75 157.287 126.77C157.307 126.894 157.334 127.062 157.235 127.172C157.184 127.227 157.1 127.268 156.961 127.277C156.89 127.286 156.812 127.268 156.716 127.249C156.669 127.238 156.618 127.224 156.562 127.208C156.509 127.189 156.455 127.161 156.395 127.133C156.434 127.151 156.48 127.172 156.534 127.197C156.588 127.217 156.652 127.237 156.72 127.258C156.789 127.277 156.86 127.306 156.939 127.321C157.017 127.337 157.098 127.354 157.183 127.371C157.522 127.426 157.896 127.46 158.232 127.474C157.73 127.633 157.142 127.677 156.555 127.541C156.76 127.666 156.948 127.726 157.101 127.778C157.257 127.822 157.385 127.834 157.487 127.843C157.693 127.853 157.806 127.805 157.904 127.767C158.003 127.73 158.083 127.666 158.226 127.624C158.297 127.601 158.385 127.586 158.492 127.556C158.547 127.542 158.607 127.53 158.675 127.517C158.743 127.507 158.818 127.494 158.899 127.474C158.91 127.553 158.979 127.593 159.079 127.609C159.177 127.625 159.308 127.622 159.424 127.605C159.66 127.575 159.881 127.539 159.832 127.691C159.663 127.764 159.363 127.848 159.022 127.901C158.979 127.909 158.937 127.917 158.895 127.925L158.762 127.942C158.675 127.953 158.587 127.965 158.502 127.979C158.331 128.004 158.161 128.017 158.014 128.056C158.453 128.067 158.902 128.015 159.326 127.925C159.434 127.906 159.533 127.873 159.637 127.848C159.738 127.819 159.844 127.797 159.941 127.764C160.132 127.699 160.331 127.643 160.506 127.573C160.68 127.504 160.859 127.444 161.015 127.378C161.169 127.312 161.315 127.251 161.451 127.198C161.587 127.145 161.714 127.099 161.827 127.062C161.937 127.02 162.032 126.986 162.114 126.964C162.006 126.93 161.946 126.841 162.021 126.674C162.092 126.504 162.316 126.28 162.714 125.898C163.773 124.945 163.959 124.784 164.122 124.798C164.198 124.8 164.254 124.836 164.37 124.798C164.483 124.757 164.669 124.65 164.957 124.331C165.018 124.155 165.157 123.946 165.296 123.71C165.438 123.477 165.592 123.222 165.735 122.983C165.989 122.491 166.179 122.059 165.971 121.921C166.161 121.557 166.322 121.366 166.471 121.235C166.613 121.102 166.739 121.031 166.865 120.911C166.914 120.731 167.005 120.502 167.093 120.232C167.179 119.961 167.29 119.658 167.394 119.333C167.49 119.007 167.604 118.668 167.696 118.325C167.781 117.983 167.878 117.645 167.944 117.327C168.009 117.008 168.067 116.713 168.108 116.461C168.14 116.207 168.158 115.997 168.158 115.85C168.157 115.555 168.076 115.517 167.871 115.882L167.765 116.23C167.769 116.162 167.784 116.083 167.791 116C168.041 113.69 168.282 111.336 168.354 108.949C168.409 106.57 168.278 104.165 167.721 101.945L167.88 101.92C167.522 100.596 167.12 99.1292 166.638 97.791C166.158 96.4529 165.611 95.2403 165.051 94.4287C164.973 94.2432 164.895 94.0386 164.831 93.8367C164.768 93.6335 164.719 93.4329 164.691 93.2624C164.63 92.9214 164.644 92.6991 164.811 92.8096C164.676 92.5818 164.553 92.3813 164.44 92.1999C164.325 92.0185 164.21 91.8589 164.108 91.7061C164.006 91.5547 163.909 91.4114 163.813 91.2696C163.714 91.1304 163.616 90.9927 163.517 90.8467C163.418 90.7021 163.321 90.5466 163.212 90.3802C163.1 90.2152 162.981 90.0338 162.852 89.8291C162.726 89.6218 162.576 89.3995 162.41 89.1444C162.327 89.0162 162.239 88.8798 162.147 88.7366C162.048 88.5947 161.945 88.446 161.834 88.2878C162.031 88.4733 162.177 88.6002 162.279 88.6888C162.379 88.7789 162.441 88.8266 162.478 88.8457C162.553 88.8866 162.529 88.8184 162.511 88.7775C162.493 88.7366 162.484 88.7215 162.586 88.8661C162.685 89.0135 162.915 89.3094 163.314 89.9287C162.59 88.7406 162.113 88.0082 161.529 87.3262C160.945 86.651 160.255 85.9935 158.899 85.2433C159.165 85.3211 159.214 85.2542 159.114 85.0933C159.016 84.9323 158.749 84.6977 158.412 84.4262C158.241 84.2925 158.04 84.167 157.835 84.0347C157.731 83.9693 157.628 83.9025 157.52 83.8397C157.409 83.7824 157.297 83.7251 157.188 83.6678C157.078 83.6133 156.967 83.5587 156.86 83.5069C156.752 83.4537 156.647 83.4046 156.539 83.3678C156.328 83.2873 156.131 83.2191 155.962 83.1645L156.416 83.4332C156.491 83.4782 156.566 83.5205 156.64 83.5682L156.854 83.7169C157.139 83.916 157.424 84.107 157.685 84.3294C157.351 84.1357 157.003 83.987 156.675 83.8233C156.513 83.7374 156.341 83.676 156.176 83.6051C156.01 83.5355 155.846 83.4659 155.682 83.3977C155.515 83.3391 155.348 83.2818 155.183 83.2245C155.017 83.1699 154.856 83.1017 154.687 83.0595C154.519 83.0144 154.351 82.9681 154.183 82.9231L153.931 82.8549C153.846 82.8317 153.761 82.8208 153.675 82.803C153.957 82.6584 154.242 82.5589 154.542 82.4443C153.055 81.8987 151.487 81.81 150.079 82.0269C148.662 82.2411 147.401 82.7349 146.28 83.2996C146.14 83.3691 146.001 83.44 145.86 83.5096C145.721 83.5791 145.591 83.661 145.458 83.736C145.194 83.8902 144.927 84.0321 144.672 84.1862C144.17 84.5054 143.665 84.7959 143.191 85.1096C143.069 85.1847 142.948 85.2583 142.826 85.332C142.704 85.4043 142.582 85.4752 142.465 85.5516C142.228 85.7016 141.989 85.8448 141.745 85.9812L141.557 86.0849L141.443 86.149C141.398 86.1735 141.36 86.2063 141.319 86.235L141.247 86.2881L141.205 86.314L141.12 86.3659L140.951 86.4682C140.724 86.6019 140.491 86.7274 140.253 86.8433C139.837 87.4517 140.434 87.0233 141.052 86.5868C141.13 86.5323 141.207 86.4777 141.282 86.4245L141.341 86.3836C141.371 86.3604 141.401 86.3372 141.431 86.3154C141.482 86.2745 141.544 86.239 141.586 86.2159C141.61 86.2036 141.633 86.1899 141.655 86.1776C141.674 86.1681 141.693 86.1572 141.712 86.1477C141.749 86.1286 141.786 86.1108 141.82 86.0944C141.888 86.0617 141.949 86.0344 142.003 86.014C142.215 85.9349 142.285 85.9785 142.075 86.2595C141.937 86.355 141.814 86.4191 141.632 86.5541C141.528 86.6373 141.481 86.6701 141.416 86.7192L141.226 86.8569C140.973 87.0397 140.716 87.2143 140.46 87.3807C139.948 87.7149 139.441 88.0163 138.976 88.2837C138.743 88.416 138.522 88.5429 138.316 88.6602C138.107 88.7734 137.913 88.8784 137.737 88.9739C137.389 89.1649 137.121 89.3231 136.971 89.4458C136.268 89.9274 135.796 90.3311 135.437 90.7008C135.259 90.8863 135.106 91.0595 134.964 91.226C134.824 91.3937 134.697 91.5588 134.569 91.7238C134.314 92.0553 134.056 92.3936 133.678 92.7755C133.49 92.9664 133.27 93.1683 133.008 93.3866C132.876 93.4943 132.735 93.6089 132.578 93.7248C132.42 93.8381 132.248 93.9554 132.061 94.0782C132.542 93.9609 133.203 94.1095 131.159 95.8487C130.138 96.573 129.383 96.8362 129.051 96.813C128.718 96.7871 128.796 96.4625 129.392 95.951C129.632 95.7764 129.816 95.6522 129.943 95.584C130.071 95.5158 130.142 95.5022 130.15 95.5363C130.755 95.0016 131.551 94.3101 130.637 94.7261L130.493 95.0725C130.216 95.2144 129.841 95.4558 129.433 95.7096C129.024 95.9619 128.583 96.232 128.196 96.4693C127.42 96.9399 126.845 97.2522 127.084 96.8935C126.373 97.5073 126.242 97.6724 126.455 97.6178C126.669 97.5646 127.201 97.2536 127.799 96.899C125.033 98.4785 123.671 99.6584 120.784 101.192C121.286 101.024 121.805 100.956 121.365 101.228C119.234 102.333 118.818 102.665 118.593 102.95C118.367 103.232 118.322 103.441 116.903 104.248C116.018 104.555 116.084 104.321 116.023 104.232C115.993 104.187 115.93 104.179 115.704 104.291C115.476 104.401 115.075 104.615 114.371 105.033C112.497 105.734 113.774 104.759 114.407 104.273C113.785 104.679 113.16 105.031 112.539 105.315C111.915 105.589 111.304 105.816 110.725 106.013C110.435 106.11 110.155 106.207 109.881 106.286C109.605 106.363 109.341 106.435 109.088 106.506C108.582 106.646 108.125 106.777 107.733 106.921L109.102 106.194C108.693 106.41 108.312 106.589 107.947 106.751C107.58 106.912 107.228 107.061 106.865 107.187L107.347 107.214L107.825 107.225C107.394 107.372 106.992 107.493 106.697 107.571C106.403 107.649 106.212 107.675 106.193 107.597C105.397 108.156 107.093 107.948 105.449 108.916C105.296 108.943 105.131 108.995 104.951 109.043C104.771 109.092 104.58 109.152 104.385 109.216C103.994 109.346 103.579 109.497 103.186 109.631C102.793 109.766 102.421 109.886 102.109 109.928C101.798 109.977 101.552 109.973 101.416 109.879C101.882 109.77 102.225 109.684 102.469 109.609C102.713 109.527 102.862 109.466 102.946 109.417C103.115 109.319 103.025 109.272 102.916 109.223C102.698 109.126 102.405 109.018 103.92 108.485C103.635 108.609 103.312 108.729 102.949 108.845C102.767 108.904 102.576 108.96 102.376 109.016C102.175 109.073 101.961 109.113 101.739 109.16C101.592 109.143 101.833 109.024 102.062 108.93C101.158 109.065 100.62 109.196 100.259 109.331C99.8975 109.466 99.7175 109.61 99.5306 109.754C99.3451 109.901 99.1582 110.062 98.7872 110.241C98.6017 110.331 98.3698 110.423 98.0698 110.523C97.7697 110.62 97.4013 110.733 96.9375 110.815C97.3454 110.442 95.9733 110.448 95.3867 110.625C96.8667 110.339 96.1955 110.961 94.8547 111.437C93.6366 111.506 92.9954 111.652 92.4935 111.789C91.9915 111.91 91.6328 112.04 90.9985 112.096L92.4554 112.044C92.2289 112.213 91.8088 112.321 91.2359 112.42C90.9494 112.471 90.6248 112.519 90.2646 112.572C89.9045 112.61 89.5104 112.648 89.0862 112.699C88.9266 112.484 90.6179 112.446 90.0041 112.386C89.5444 112.542 89.0425 112.604 88.5119 112.619C88.3796 112.624 88.2445 112.624 88.1095 112.622C87.9731 112.622 87.8353 112.615 87.6962 112.602C87.4179 112.577 87.1328 112.546 86.8423 112.514C85.6801 112.407 84.4471 112.193 83.1349 112.314C81.9414 112.033 83.049 111.767 82.0082 111.56C81.644 111.577 81.3221 111.592 81.0329 111.575C80.7437 111.555 80.4872 111.527 80.2512 111.491C79.7793 111.42 79.392 111.324 79.0032 111.223C78.6158 111.104 78.2271 110.984 77.7456 110.88C77.5042 110.828 77.2409 110.782 76.9408 110.743C76.6448 110.689 76.3133 110.639 75.9355 110.598C76.7075 111.159 76.8944 111.101 74.6983 111.017L75.9464 111.215C76.3624 111.276 76.7744 111.358 77.1945 111.395L78.4467 111.534C78.6554 111.554 78.8627 111.586 79.0714 111.598L79.7003 111.637C79.4275 111.651 79.1532 111.67 78.8804 111.678L78.0607 111.684L77.2368 111.689L76.8234 111.692C76.6857 111.692 76.5493 111.682 76.4116 111.678C76.784 111.768 77.1781 111.804 77.5655 111.85C77.9529 111.892 78.3376 111.928 78.7018 111.961C78.8832 111.981 79.0618 111.988 79.2337 111.996C79.4042 112.007 79.5693 112.017 79.7248 112.026C80.0358 112.049 80.3113 112.078 80.5378 112.122C78.9637 112.253 79.1233 112.175 79.8203 112.58C79.5666 112.476 79.3115 112.397 79.0551 112.336L78.8614 112.292L78.669 112.246C78.5408 112.217 78.4113 112.191 78.2803 112.169C77.7593 112.081 77.2272 112.042 76.6802 112.006C76.1387 111.944 75.5836 111.887 75.0202 111.789C74.8797 111.764 74.7378 111.737 74.596 111.707C74.4541 111.676 74.315 111.631 74.1732 111.588C73.8908 111.5 73.6085 111.396 73.3261 111.27L73.6439 110.366C72.7982 110.052 72.0043 109.759 71.1968 109.533C70.7903 109.426 70.3948 109.295 69.9897 109.179C69.5845 109.062 69.174 108.95 68.7539 108.836C68.3406 108.702 67.9191 108.564 67.4839 108.424C67.267 108.35 67.0461 108.276 66.8224 108.2C66.6014 108.117 66.3791 108.024 66.1526 107.931C65.7012 107.74 65.2305 107.544 64.7517 107.308C64.2784 107.06 63.7901 106.79 63.2841 106.49L64.5458 107.341C64.1816 107.361 63.5255 107.036 62.7889 106.626C62.4288 106.406 62.0469 106.168 61.6691 105.944C61.4795 105.832 61.2912 105.723 61.1057 105.623C60.9216 105.521 60.7469 105.417 60.5737 105.33C60.8629 105.135 60.1208 104.523 59.6871 104.008C59.6475 104.138 58.9532 103.633 58.1703 103.142C57.7747 102.902 57.3805 102.632 57.0285 102.452C56.6766 102.271 56.3739 102.168 56.1897 102.228C56.0724 102.092 55.951 101.961 55.8365 101.822L55.4968 101.403L54.8216 100.568C54.4656 100.254 54.1559 99.9626 53.86 99.7143C53.5639 99.4661 53.2871 99.2546 53.0225 99.0678C52.7538 98.885 52.515 98.7063 52.2736 98.5495C52.0335 98.3912 51.8002 98.2453 51.5656 98.1007C51.3324 97.9547 51.095 97.8142 50.8591 97.6519C50.6258 97.4882 50.3884 97.3137 50.1388 97.1132C49.8892 96.914 49.63 96.6903 49.3545 96.4297C49.0803 96.1692 48.8062 95.8555 48.5061 95.5022C49.0081 95.8037 49.019 95.6004 49.135 95.5349C49.1936 95.5022 49.2768 95.5022 49.4609 95.6154C49.5537 95.6713 49.6669 95.7587 49.821 95.8773C49.9765 95.9946 50.1661 96.1488 50.4007 96.3493C50.1906 96.1269 49.9846 95.9114 49.7991 95.7082C49.6177 95.5008 49.45 95.3112 49.3027 95.1544C49.0067 94.842 48.7898 94.6592 48.6998 94.7247C48.6207 94.5555 48.4106 94.3387 48.1542 94.07C47.8977 93.8026 47.5786 93.497 47.254 93.1792C47.0916 93.0196 46.9265 92.8587 46.7683 92.6964C46.6114 92.5327 46.4669 92.3635 46.3304 92.2012C46.0604 91.8739 45.8408 91.5615 45.7276 91.2928C45.5148 91.1291 45.3089 91.0677 45.0661 90.8986C44.8233 90.7295 44.5313 90.458 44.1344 89.8851C44.0976 89.7241 44.2654 89.7978 44.2654 89.7978C44.2012 89.8401 43.8316 89.435 43.5479 89.154C43.2642 88.873 43.0446 88.7312 43.241 89.3382C42.5562 87.4762 41.113 85.2474 39.8063 82.9831C38.4845 80.7324 37.3456 78.434 37.036 76.7508C35.8056 74.3433 34.526 71.3328 33.709 69.0099C33.8508 69.1272 33.8619 68.9649 33.9833 69.415C33.5577 67.7687 33.1989 67.3417 32.8046 66.8561C32.6096 66.6133 32.4092 66.3555 32.2046 65.919C32.0068 65.4811 31.8157 64.8618 31.6234 63.907C31.5702 61.8664 32.465 65.8058 32.3095 64.5673C32.5237 64.3654 32.5428 63.9875 32.4459 63.4951C32.3464 63.0027 32.1622 62.3848 31.9344 61.711C31.8239 61.3727 31.6984 61.0221 31.5879 60.6606C31.4802 60.2992 31.3751 59.9295 31.2824 59.5612C31.1896 59.1929 31.1105 58.8246 31.0546 58.4673C31.0027 58.1085 30.981 57.7566 30.9878 57.4238L31.1774 58.0239C31.1501 57.0173 30.7872 55.8647 30.4176 54.5443C30.3221 54.2142 30.2239 53.8759 30.1229 53.5281C30.0247 53.1789 29.9388 52.8188 29.8501 52.4518C29.6783 51.7153 29.5078 50.9446 29.426 50.1371C29.426 50.1371 29.5392 50.2803 29.5856 50.133C29.3796 49.6024 29.1709 48.945 28.9827 48.207C28.8054 47.4677 28.6334 46.6479 28.4738 45.7967C28.4029 45.3711 28.3347 44.936 28.2692 44.5009C28.2365 44.2826 28.2038 44.0644 28.1724 43.8476L28.1247 43.5215L28.1029 43.3783C28.096 43.336 28.0879 43.2951 28.0906 43.2528C28.092 43.1546 28.0947 43.0564 28.0961 42.9595C28.0988 42.8531 28.1015 42.7467 28.1042 42.6417C28.1069 42.5353 28.1097 42.4303 28.1124 42.3266C28.1165 42.2216 28.126 42.1179 28.1328 42.0156C28.1628 41.6023 28.1861 41.1986 28.2366 40.8139C28.3566 41.32 28.3812 41.6719 28.4139 41.8329C28.4507 41.9952 28.5107 41.9638 28.7521 41.7033C28.7644 41.5341 28.763 41.4127 28.7521 41.3227C28.7439 41.234 28.7235 41.1768 28.6948 41.1372C28.6389 41.0595 28.553 41.054 28.4725 41.0063C28.392 40.9585 28.3156 40.8685 28.2802 40.6161C28.2638 40.4906 28.2516 40.3228 28.2652 40.1019C28.2816 39.8809 28.313 39.6054 28.3675 39.2603C28.4644 39.0488 28.5953 38.7761 28.7221 38.4801C28.8476 38.1827 28.9991 37.8689 29.1519 37.5784C29.2269 37.4324 29.3032 37.2933 29.3782 37.1651C29.4573 37.0383 29.5365 36.9224 29.6129 36.8228C29.7657 36.6236 29.9102 36.4913 30.0357 36.4654C29.9102 36.8719 29.7752 37.2756 29.6702 37.6889L29.5038 38.3041L29.3605 38.9247C29.5773 38.641 29.7274 38.3013 29.8652 37.9358C29.9307 37.753 29.9865 37.5607 30.037 37.3643C30.0929 37.1692 30.1462 36.9714 30.1939 36.7696C30.3808 35.9648 30.5704 35.1423 30.8746 34.5421L31.0423 34.7972C31.0846 34.684 31.1256 34.5748 31.1665 34.4684C31.2088 34.3634 31.2511 34.2611 31.2906 34.1629C31.3697 33.9651 31.4434 33.7769 31.5103 33.5982C31.6494 33.2435 31.7762 32.9325 31.8813 32.6406C31.989 32.3501 32.0954 32.0909 32.1868 31.8359C32.2755 31.5808 32.3724 31.3434 32.4706 31.1034C32.6588 30.6178 32.8839 30.1403 33.2099 29.5634C33.5509 28.9986 33.9886 28.3275 34.6979 27.5487L34.2655 27.7533C34.3965 27.4832 34.5207 27.2595 34.638 27.0726C34.7594 26.8884 34.8807 26.7466 34.9926 26.6252C35.1058 26.5052 35.2136 26.4083 35.3187 26.3265C35.4251 26.2447 35.5342 26.1832 35.642 26.1178C36.0757 25.8613 36.4903 25.624 37.2651 24.7429C37.5788 24.7729 37.883 24.8056 38.1913 24.8629C38.3331 24.7442 38.5009 24.6051 38.6905 24.4455C38.8897 24.2982 39.1107 24.1345 39.3493 23.9586C39.5935 23.788 39.8663 23.6243 40.1501 23.4402C40.296 23.357 40.4474 23.2779 40.6015 23.1933C40.6792 23.151 40.757 23.1088 40.8361 23.0665L40.9548 23.0023L41.0776 22.9478C41.409 22.8059 41.746 22.6354 42.1047 22.5249C42.2821 22.4635 42.4607 22.398 42.6421 22.3408C42.8262 22.2944 43.009 22.248 43.1918 22.2016C43.2832 22.1784 43.3759 22.1553 43.4673 22.1321C43.5587 22.113 43.6515 22.1007 43.7442 22.0857C43.9297 22.0571 44.1126 22.0284 44.2926 21.9997C44.3827 21.982 44.474 21.9793 44.564 21.9725C44.654 21.9671 44.744 21.9616 44.8313 21.9561C45.0087 21.9466 45.1833 21.9329 45.3538 21.9302C45.1587 21.9861 44.9406 22.0462 44.7073 22.098C44.59 22.1266 44.4686 22.1457 44.3445 22.1798C44.2217 22.2139 44.0935 22.2494 43.9626 22.2849C43.833 22.3176 43.6992 22.3517 43.5641 22.3858C43.4291 22.424 43.2942 22.4731 43.1564 22.5167C43.02 22.559 42.8808 22.6027 42.7403 22.6477C42.6011 22.6927 42.4649 22.7541 42.3257 22.8059C41.214 23.2247 40.1473 23.8371 39.4108 24.4114C39.4872 24.3691 39.569 24.3159 39.6604 24.2709C39.7518 24.2259 39.8486 24.1781 39.9509 24.1277C40.1555 24.0281 40.3737 23.9026 40.6165 23.8098C41.0926 23.5943 41.626 23.3925 42.1498 23.226C42.2807 23.1865 42.4116 23.147 42.5398 23.1088C42.6039 23.0883 42.6667 23.0691 42.7295 23.0487C42.7922 23.0296 42.8563 23.0187 42.9177 23.0023C43.166 22.945 43.4005 22.8796 43.6146 22.825C43.8302 22.7827 44.0239 22.7391 44.1862 22.6941C44.2681 22.6709 44.3404 22.6477 44.4059 22.6245C44.47 22.604 44.5272 22.5877 44.5723 22.5672C44.429 22.5768 44.2789 22.6177 44.1248 22.6518C43.9707 22.6873 43.8139 22.7227 43.6557 22.7527C43.3433 22.825 43.035 22.9014 42.7485 22.8946C43.5451 22.4854 44.5709 22.1908 45.7712 22.1594C45.9213 22.1567 46.074 22.1539 46.2295 22.1512C46.3836 22.158 46.5405 22.1744 46.7001 22.1866C46.8597 22.2016 47.0207 22.2167 47.1858 22.2317C47.3508 22.2549 47.5172 22.289 47.6864 22.319C47.8555 22.3517 48.0273 22.3844 48.2005 22.4172C48.3751 22.4472 48.5457 22.5031 48.7203 22.5481C48.8949 22.5972 49.0722 22.6463 49.2509 22.6954C49.4309 22.7418 49.6042 22.8155 49.7842 22.8768C49.3327 23.387 51.1592 24.0158 53.0184 25.2475C53.2475 25.4058 53.4862 25.5586 53.7168 25.7263C53.9432 25.8996 54.1695 26.0755 54.396 26.2488C54.6142 26.4316 54.8243 26.6211 55.0316 26.8052C55.0835 26.8516 55.1339 26.898 55.1858 26.943C55.2335 26.9922 55.2812 27.0412 55.3289 27.089C55.4231 27.1858 55.5158 27.2827 55.6072 27.3768C55.6973 27.4723 55.7846 27.5664 55.8719 27.6578C55.951 27.756 56.0301 27.8528 56.1051 27.947C56.2538 28.1379 56.3944 28.3166 56.5117 28.4953C56.7368 28.8609 56.9086 29.18 56.9795 29.4597C57.877 30.364 58.6422 31.4075 59.2833 32.5383C59.9258 33.6705 60.4496 34.8872 60.8847 36.1653C61.7523 38.7256 62.2733 41.511 62.658 44.5555C62.8394 43.9853 62.928 43.808 63.0016 43.8612C63.0699 43.913 63.1204 44.1926 63.1572 44.5322C63.1968 44.8719 63.2486 45.2662 63.3387 45.5499C63.426 45.8336 63.5664 46.0041 63.8065 45.8895C63.9006 46.6192 63.9266 47.128 63.9402 47.4677C63.9539 47.8087 63.936 47.9819 63.9047 48.0488C63.7519 49.5383 63.5187 51.0115 63.2159 52.4614C62.8598 53.4776 63.0931 51.0715 62.8475 51.197C62.8284 51.5898 62.7849 51.9049 62.7535 52.1586C62.7194 52.4123 62.688 52.6046 62.6539 52.7547C62.5788 53.0534 62.5093 53.1789 62.437 53.2717C62.3647 53.3631 62.2883 53.4217 62.2038 53.584C62.1615 53.6645 62.1165 53.7722 62.0673 53.9209C62.0141 54.0696 61.9569 54.262 61.8942 54.513C62.0947 54.3247 62.1887 54.6071 62.1887 55.1609C62.1819 55.4364 62.1492 55.7788 62.0947 56.162C62.0415 56.5453 61.9432 56.9654 61.8368 57.3992C61.98 56.9995 62.1356 56.5999 62.2706 56.1948C62.4029 55.7896 62.5489 55.3832 62.673 54.9726C62.673 55.5291 62.6293 56.0038 62.587 56.4185C62.5324 56.8318 62.4615 57.1823 62.3865 57.492C62.3129 57.8016 62.2132 58.0662 62.1205 58.3117C62.0237 58.5559 61.9324 58.781 61.826 59.0033C61.7209 59.2257 61.6172 59.4467 61.5163 59.6881C61.4181 59.9309 61.313 60.19 61.2107 60.4915C61.107 60.7915 61.0198 61.1367 60.9134 61.5363C60.8111 61.9374 60.7224 62.4039 60.6106 62.9481C60.6583 62.4748 60.6842 61.9987 60.7114 61.5254C60.6541 61.8009 60.582 62.1365 60.4797 62.5089C60.3733 62.8799 60.2613 63.2959 60.1195 63.7338C59.9749 64.1703 59.833 64.6395 59.6584 65.1115C59.5752 65.3488 59.4893 65.5902 59.4034 65.833C59.312 66.0731 59.2206 66.3159 59.1292 66.5574C58.9546 67.0457 58.7514 67.5203 58.5755 67.9937C58.3886 68.4602 58.2086 68.9144 58.0462 69.3454C57.873 69.7697 57.7324 70.1789 57.6069 70.5472C57.4787 70.9141 57.3846 71.2496 57.3328 71.5429C57.0245 71.8293 56.5226 72.1349 56.9727 71.2538C56.2648 72.3927 55.5158 73.5904 54.6974 74.7661C53.8804 75.9419 52.9937 77.0946 52.043 78.1449C50.1511 80.2496 47.9564 81.8959 46.0126 82.6366L46.25 82.2342C46.1463 82.2997 46.0481 82.3679 45.954 82.4389C45.9076 82.4743 45.8612 82.5098 45.8148 82.5452C45.8012 82.5561 45.7985 82.5602 45.7739 82.5753L45.6948 82.6257L45.5557 82.7198L45.4274 82.8071C45.3893 82.8412 45.3525 82.8808 45.3157 82.9163C45.2775 82.9545 45.246 82.9872 45.1997 83.0295C45.1601 83.0677 45.1015 83.1236 45.0947 83.1359C45.021 83.2232 44.946 83.3091 44.8682 83.3964C44.5641 83.7497 44.178 84.062 43.612 84.3239C43.6079 84.2039 43.7934 83.8997 43.4183 84.1452C43.226 84.3157 42.7567 84.7755 42.1456 85.2119C42.0692 85.2679 41.9928 85.3238 41.9151 85.3811C41.8346 85.4329 41.7527 85.4861 41.6709 85.5379C41.5058 85.6416 41.3381 85.7439 41.1703 85.8407C40.832 86.029 40.4869 86.1763 40.18 86.2854C40.476 86.0412 40.7747 85.8121 41.0557 85.5625C39.8936 86.0644 38.8583 86.4695 37.8898 86.8392C37.6457 86.9265 37.4124 87.0274 37.175 87.1093C36.939 87.1925 36.7059 87.277 36.4781 87.363C36.2462 87.4421 36.0184 87.5213 35.7919 87.599C35.6787 87.6386 35.5654 87.6781 35.4536 87.7163C35.3404 87.7518 35.2259 87.7872 35.1141 87.8227C34.2124 88.12 33.3094 88.3656 32.3519 88.5688C32.1118 88.6152 31.8676 88.6615 31.622 88.7093C31.3738 88.7475 31.1215 88.7843 30.865 88.8184C30.6086 88.8566 30.3453 88.8771 30.0766 88.9016C29.8079 88.9262 29.5337 88.9453 29.2514 88.9521C29.2541 88.7734 28.9922 88.6261 28.5707 88.5006C28.1478 88.3642 27.5655 88.2565 26.9189 88.1364C25.6244 87.91 24.0707 87.6644 23.0341 87.4735L23.1187 87.3821C20.0359 86.947 17.3706 86.5732 14.7244 86.2376C12.0782 85.9007 9.46062 85.5666 6.45838 85.1655C5.56767 84.8109 4.33183 84.4781 2.85594 84.2203C1.38142 83.9639 -0.33313 83.7729 -2.1814 83.781C-3.10622 83.7892 -4.06245 83.8397 -5.03229 83.9734C-6.00211 84.1112 -6.98426 84.3253 -7.94045 84.639C-8.89528 84.9541 -9.82825 85.3578 -10.6753 85.868C-11.5238 86.3713 -12.2889 86.9538 -12.9669 87.5513C-12.5208 87.2157 -12.4622 87.3535 -12.6136 87.6767C-12.6927 87.835 -12.8019 88.0586 -12.9478 88.2919C-13.0188 88.4092 -13.1006 88.5293 -13.1824 88.6534C-13.2615 88.7816 -13.3447 88.9111 -13.4334 89.0366C-13.7348 89.3449 -13.9463 89.6887 -14.1755 90.0624C-14.4019 90.4348 -14.616 90.8208 -14.807 91.1564C-15.1957 91.8261 -15.5149 92.2953 -15.7223 92.0198C-15.6254 91.882 -15.5271 91.7443 -15.4289 91.6079C-15.714 91.7374 -16.0154 91.9953 -16.3333 92.3376C-16.4915 92.5081 -16.6539 92.7005 -16.8176 92.9078C-16.9799 93.1179 -17.1422 93.3429 -17.3073 93.5789C-17.9702 94.5215 -18.6249 95.6495 -19.2251 96.6234L-18.6877 97.3846C-19.7148 98.5003 -20.686 99.9353 -21.5644 101.505C-22.4456 103.075 -23.2244 104.787 -23.9119 106.443C-24.2611 107.268 -24.5721 108.088 -24.8803 108.863C-25.175 109.645 -25.4683 110.381 -25.7315 111.064C-26.2758 112.426 -26.7641 113.55 -27.2838 114.248C-27.3152 114.43 -27.352 114.615 -27.3929 114.803C-27.4283 114.993 -27.4679 115.187 -27.5102 115.382C-27.5975 115.77 -27.6862 116.169 -27.7749 116.567C-27.8581 116.967 -27.9399 117.366 -28.0122 117.756C-28.0872 118.145 -28.1309 118.531 -28.1677 118.893L-28.5947 118.709C-28.6629 118.954 -28.7283 119.191 -28.791 119.422C-28.851 119.654 -28.9043 119.882 -28.9589 120.103C-29.0121 120.324 -29.0653 120.54 -29.1171 120.752C-29.143 120.858 -29.1675 120.963 -29.1934 121.067C-29.2153 121.172 -29.2371 121.276 -29.259 121.379C-29.3435 121.793 -29.4268 122.195 -29.5086 122.595C-29.5809 122.997 -29.6449 123.398 -29.7117 123.807C-29.7827 124.215 -29.8304 124.635 -29.8822 125.072C-29.9341 125.508 -29.9887 125.962 -30.0201 126.448C-30.0528 126.932 -30.1032 127.442 -30.1142 127.995C-30.1305 128.546 -30.1591 129.134 -30.1441 129.772C-30.2492 129.424 -30.3569 129.074 -30.4442 128.722C-30.4702 129.082 -30.4538 129.412 -30.4224 129.715C-30.3924 130.018 -30.3446 130.296 -30.286 130.555C-30.1646 131.074 -29.9764 131.517 -29.7991 131.948C-29.6259 132.379 -29.4185 132.798 -29.2603 133.268C-29.1785 133.504 -29.1115 133.752 -29.0474 134.023C-28.9792 134.293 -28.9247 134.583 -28.8865 134.906C-29.0829 135.19 -29.2903 135.479 -29.4758 135.771L-29.3436 136.7L-29.2712 137.234L-29.259 137.328C-29.2521 137.359 -29.2412 137.388 -29.233 137.418L-29.1825 137.583L-29.1007 137.851C-29.0502 138.016 -29.0039 138.184 -28.9479 138.349L-28.7652 138.842C-28.652 139.173 -28.4938 139.491 -28.3492 139.814C-27.7463 141.099 -26.8609 142.297 -25.7656 143.282C-25.6279 143.403 -25.4819 143.516 -25.3387 143.632L-25.1218 143.804C-25.0482 143.86 -24.9704 143.91 -24.8954 143.962L-24.4357 144.272C-24.2775 144.366 -24.1166 144.456 -23.9556 144.546L-23.7128 144.68L-23.4632 144.796C-23.2954 144.872 -23.1289 144.951 -22.9598 145.021C-22.6147 145.145 -22.2737 145.281 -21.9177 145.367C-21.2152 145.569 -20.4909 145.663 -19.7748 145.693L-19.2388 145.696C-19.0601 145.696 -18.8827 145.676 -18.7067 145.663C-18.3521 145.643 -18.0043 145.573 -17.6605 145.513C-17.7015 145.566 -17.7587 145.646 -17.9238 145.722C-18.0056 145.76 -18.1161 145.798 -18.2634 145.831C-18.4107 145.866 -18.599 145.877 -18.835 145.886C-18.6645 145.886 -18.4721 145.895 -18.2648 145.887C-18.0574 145.877 -17.8338 145.868 -17.5965 145.857C-17.3605 145.836 -17.1122 145.806 -16.853 145.778C-16.5952 145.744 -16.3306 145.691 -16.0578 145.643C-15.7877 145.587 -15.5148 145.513 -15.2366 145.444C-14.9624 145.363 -14.6896 145.269 -14.4168 145.179C-14.1495 145.073 -13.8836 144.964 -13.623 144.852C-13.3693 144.726 -13.1197 144.602 -12.8796 144.474C-11.9262 143.946 -11.1868 143.306 -10.7735 142.832C-10.5716 142.587 -10.4447 142.387 -10.4106 142.25C-10.3779 142.111 -10.4379 142.035 -10.603 142.034C-10.4843 142.134 -10.1706 141.929 -9.74913 141.514C-9.64956 141.406 -9.54315 141.285 -9.4313 141.152C-9.31945 141.02 -9.20085 140.878 -9.09309 140.715C-8.98124 140.554 -8.86523 140.383 -8.74928 140.206C-8.63879 140.031 -8.54884 139.858 -8.44518 139.675C-8.3456 139.492 -8.2446 139.305 -8.14093 139.116C-8.04817 138.924 -7.95268 138.727 -7.8572 138.529C-7.76444 138.33 -7.6662 138.134 -7.58026 137.932C-7.49569 137.73 -7.41121 137.527 -7.32664 137.326C-6.99654 136.524 -6.72637 135.739 -6.52313 135.095L-6.27897 135.662C-6.23122 135.37 -6.19035 135.114 -6.15215 134.882C-6.12351 134.649 -6.09758 134.441 -6.07303 134.248C-6.04984 134.055 -6.02661 133.877 -6.00069 133.705C-5.97614 133.532 -5.95715 133.361 -5.9285 133.188C-5.87394 132.839 -5.79066 132.472 -5.69246 131.997C-5.63789 131.761 -5.57793 131.499 -5.50837 131.202C-5.44426 130.903 -5.36925 130.567 -5.28059 130.188C-5.16055 129.839 -5.03367 129.703 -4.98047 129.772C-4.93137 129.84 -4.9395 130.117 -5.13592 130.576C-4.69261 129.411 -4.69543 128.91 -4.68315 128.355C-4.67906 128.216 -4.67488 128.074 -4.66397 127.916C-4.65578 127.758 -4.64353 127.583 -4.61761 127.381C-4.5917 127.179 -4.55352 126.95 -4.4976 126.68C-4.44849 126.41 -4.38298 126.099 -4.29432 125.736C-4.25886 126.115 -4.218 126.499 -4.18935 126.882C-4.07478 126.256 -4.00386 125.796 -3.96703 125.437C-3.9343 125.077 -3.92738 124.819 -3.93693 124.596C-3.95466 124.15 -4.05424 123.837 -4.147 123.133C-4.16336 122.735 -4.13474 122.241 -4.09518 121.716C-4.06107 121.191 -3.99558 120.636 -3.93693 120.118C-3.90556 119.858 -3.86742 119.607 -3.83196 119.376C-3.79786 119.142 -3.75966 118.928 -3.71873 118.74C-3.63553 118.362 -3.54414 118.091 -3.44593 117.995C-3.57551 117.826 -3.72694 117.399 -3.84834 116.832C-3.91245 116.548 -3.96567 116.229 -4.00114 115.888C-4.03796 115.547 -4.06796 115.185 -4.06387 114.814C-3.92474 114.603 -3.78967 115.133 -3.7242 115.402C-3.71874 113.284 -4.06107 111.734 -4.39116 110.373C-4.72398 109.008 -5.0609 107.826 -5.17002 106.368C-5.03771 106.275 -5.00775 106.075 -5.02003 105.829C-4.92728 106.239 -4.83176 106.637 -4.74856 107.021C-4.66944 107.407 -4.5931 107.78 -4.51944 108.133C-4.38985 108.842 -4.2712 109.477 -4.19482 110.003C-4.15526 110.267 -4.11976 110.501 -4.08839 110.704C-4.06383 110.908 -4.04202 111.079 -4.02564 111.213C-3.99427 111.482 -3.98473 111.603 -4.00246 111.542C-3.79922 111.515 -3.76652 110.823 -3.69423 110.395C-3.62466 109.969 -3.47859 109.796 -3.02846 110.838C-3.34764 109.765 -3.84422 108.334 -4.36119 106.869C-4.87543 105.401 -5.40328 103.898 -5.69246 102.602C-5.69246 102.467 -5.68976 102.336 -5.65703 102.224L-5.53288 102.474C-5.66655 101.874 -5.87657 101.362 -6.103 100.894C-6.19849 100.48 -6.29271 100.145 -6.38274 99.8139C-6.42912 99.6489 -6.47686 99.4852 -6.53006 99.3147C-6.58598 99.1455 -6.64735 98.9696 -6.71828 98.7772C-6.66508 98.6736 -6.69645 98.4335 -6.78102 98.1129C-6.86832 97.7924 -7.01703 97.3941 -7.18344 96.9658C-7.35258 96.5402 -7.5558 96.0928 -7.74131 95.67C-7.93501 95.2499 -8.12045 94.8597 -8.25549 94.546C-8.61832 94.8324 -9.31258 93.2052 -8.9443 94.8625C-9.00295 94.6538 -8.79017 95.0725 -8.40414 95.8841C-8.31275 96.0655 -8.21322 96.2824 -8.13547 96.3956C-8.1573 96.3765 -8.18324 96.3534 -8.2078 96.3261C-8.11913 96.5293 -8.02224 96.7475 -7.91994 96.9794C-7.82037 97.2127 -7.71946 97.4623 -7.6117 97.7228C-7.39209 98.2425 -7.17788 98.8223 -6.94327 99.4361C-7.5339 98.514 -8.09995 97.5537 -8.46143 96.0901C-8.73014 95.8323 -9.01395 95.5622 -9.27039 95.3167C-9.52 95.0698 -9.74642 94.8515 -9.90192 94.6906C-9.99604 93.729 -10.3903 92.4208 -10.7654 91.2778C-10.9632 90.7117 -11.1377 90.177 -11.2795 89.7555C-11.4173 89.3326 -11.4978 89.0094 -11.4787 88.8512C-12.6654 87.1352 -14.0826 85.1287 -15.5885 83.4387C-17.0862 81.7446 -18.6467 80.3641 -19.8716 79.7667C-20.0953 79.5771 -20.263 79.4216 -20.3858 79.277C-20.5086 79.1338 -20.5877 79.0069 -20.645 78.8882C-20.7596 78.6522 -20.7897 78.4572 -20.9097 78.2622C-20.6233 78.4531 -20.3464 78.7041 -20.0858 78.9141C-19.9562 79.0205 -19.8334 79.1188 -19.7202 79.2033C-19.6097 79.2893 -19.5102 79.3575 -19.4229 79.4011C-19.6493 79.2102 -19.9044 78.9974 -20.1759 78.7682C-20.3109 78.6523 -20.4486 78.5336 -20.5904 78.4108C-20.735 78.2908 -20.8824 78.168 -21.0311 78.0439C-21.3298 77.7956 -21.634 77.5378 -21.9505 77.2964C-22.2642 77.0522 -22.5724 76.8054 -22.8861 76.5858C-23.4999 76.1329 -24.1015 75.7564 -24.5871 75.4905C-25.0837 75.2381 -25.4642 75.1003 -25.662 75.1453C-26.8228 74.2287 -26.4095 74.3392 -26.123 74.4115C-25.9812 74.4483 -25.8734 74.477 -26.022 74.3624C-26.0957 74.3051 -26.2334 74.2123 -26.4612 74.0663C-26.6931 73.9258 -27.0205 73.7403 -27.4665 73.4866L-26.8964 73.6135C-27.0997 73.4594 -27.2988 73.3039 -27.5048 73.162C-27.7107 73.0215 -27.9167 72.8851 -28.1227 72.7528C-28.2264 72.6873 -28.3287 72.6219 -28.431 72.5564C-28.536 72.4964 -28.6397 72.435 -28.7433 72.3764C-28.952 72.2577 -29.1594 72.1431 -29.3667 72.0312C-29.5727 71.918 -29.7868 71.8225 -29.9941 71.7216C-30.1114 71.667 -30.2288 71.6125 -30.3447 71.5593L-30.578 71.4529L-30.6967 71.3984C-30.7362 71.3806 -30.7743 71.3588 -30.8193 71.3574C-30.9885 71.3342 -31.1576 71.311 -31.3254 71.2879C-31.4386 71.2742 -31.5519 71.2606 -31.6637 71.2456C-31.8806 71.2224 -32.0975 71.1978 -32.3117 71.1746C-32.7413 71.1269 -33.1696 71.1064 -33.5938 71.0846C-34.018 71.0641 -34.4382 71.0437 -34.8596 71.0464C-35.2798 71.0464 -35.6985 71.0464 -36.1159 71.0478C-36.5347 71.0614 -36.9521 71.0751 -37.3722 71.0887C-39.0513 71.161 -40.7442 71.2824 -42.5638 71.382C-44.3861 71.4843 -46.3312 71.5634 -48.5682 71.6193C-48.4141 71.6125 -48.279 71.607 -48.1603 71.6016C-48.0416 71.6016 -47.9408 71.6016 -47.8549 71.6057C-47.683 71.6125 -47.5711 71.6316 -47.5029 71.6725C-48.1318 71.7161 -48.7578 71.8048 -49.3879 71.888C-49.703 71.9317 -50.0154 71.9931 -50.3305 72.0463C-50.6456 72.1008 -50.9594 72.1581 -51.2718 72.2304C-51.5841 72.2999 -51.8978 72.3709 -52.2115 72.4404C-52.5225 72.5236 -52.8335 72.6055 -53.1445 72.6887C-53.4569 72.7678 -53.7639 72.8674 -54.0722 72.9643C-54.3791 73.0638 -54.6914 73.1511 -54.9942 73.2643C-57.4427 74.11 -59.8051 75.2572 -62.0053 76.6376C-63.1101 77.3209 -64.1714 78.0684 -65.1944 78.8541C-65.7113 79.2401 -66.2065 79.6535 -66.7057 80.0572C-66.9499 80.2659 -67.1941 80.4732 -67.4382 80.6819C-67.6838 80.8879 -67.9171 81.1075 -68.1572 81.3176C-69.1079 82.1728 -70.0327 83.0472 -70.9193 83.9488C-71.8087 84.8463 -72.683 85.7521 -73.5287 86.6728C-73.7674 86.9361 -73.9665 87.1802 -74.1397 87.4039C-74.313 87.6276 -74.4631 87.8295 -74.5926 88.0163C-74.8436 88.3942 -75.0182 88.7093 -75.1601 89.0039C-75.3033 89.2972 -75.4029 89.5782 -75.5188 89.8783C-75.6348 90.1784 -75.7602 90.503 -75.9294 90.9027L-76.6715 91.1482C-76.857 91.6119 -77.0301 92.0798 -77.2088 92.5422C-77.3766 93.0101 -77.5471 93.4752 -77.7094 93.9431C-78.5578 95.8337 -79.6451 97.2686 -80.7172 98.8973C-81.7839 100.522 -82.8355 102.339 -83.463 104.91C-83.2789 104.742 -83.0879 104.577 -82.901 104.412C-83.2911 105.265 -83.7931 106.661 -84.2145 107.795C-84.636 108.928 -84.9798 109.799 -85.1053 109.587C-85.1149 109.788 -84.9947 110.28 -85.3985 110.912L-85.659 110.88C-86.0328 112.375 -86.3861 113.873 -86.7162 115.373C-87.3477 117.038 -87.5441 116.83 -87.791 116.821C-88.0338 116.813 -88.3353 117.002 -89.1142 119.487C-89.3474 120.429 -89.5547 121.802 -89.6556 122.858C-89.7539 123.915 -89.7511 124.652 -89.5697 124.327C-89.346 123.581 -88.8714 122.46 -88.6081 122.476L-88.9655 124.206C-88.6463 124.462 -88.394 124.967 -88.0107 124.907C-87.6246 124.848 -87.1186 124.222 -86.2661 122.237L-86.0628 120.74L-85.8501 119.242L-85.2157 118.43C-85.4585 119.231 -85.6931 120.036 -85.9264 120.841C-85.1871 119.575 -85.2116 118.625 -85.108 117.597C-84.8502 117.426 -84.5951 117.069 -84.3455 116.529L-84.2336 115.027L-84.1096 113.524C-83.7167 113.285 -83.9786 114.951 -83.1902 113.15C-83.0592 111.747 -84.2446 114.179 -83.7085 111.959C-82.9092 110.726 -82.7891 111.216 -82.489 109.546C-82.2244 109.394 -82.2339 109.767 -82.3799 110.418C-82.3076 110.05 -82.1931 109.632 -82.0581 109.203C-81.9244 108.773 -81.777 108.327 -81.6351 107.904C-81.3582 107.054 -81.1168 106.289 -81.1591 105.857C-80.9231 105.552 -80.6872 105.112 -80.4621 104.625C-80.2343 104.139 -80.0106 103.61 -79.7978 103.133C-79.5796 102.657 -79.3763 102.231 -79.1867 101.953C-78.9957 101.676 -78.8239 101.543 -78.6766 101.651C-78.6466 101.159 -78.0737 99.0623 -77.468 97.8456C-77.5649 98.4921 -77.4626 98.5345 -77.2498 98.2535C-77.0357 97.9725 -76.7151 97.3641 -76.3468 96.7189C-76.2554 96.5566 -76.1627 96.3929 -76.0699 96.2279C-75.9731 96.0669 -75.8762 95.906 -75.782 95.7505C-75.5911 95.4408 -75.4083 95.1503 -75.231 94.9238C-74.8818 94.4669 -74.6036 94.2336 -74.489 94.4901C-74.3526 93.5229 -73.5642 92.0798 -72.5562 90.5848C-71.5522 89.0844 -70.3314 87.543 -69.4311 86.2117C-69.5034 86.3863 -69.6398 86.7314 -69.8539 86.9156C-69.547 86.5896 -69.2866 86.329 -69.0506 86.1122C-68.8105 85.9007 -68.6004 85.7316 -68.4027 85.5775C-68.2062 85.422 -68.0152 85.291 -67.8188 85.1533C-67.6224 85.0141 -67.4233 84.8682 -67.1982 84.6908C-67.2691 84.5394 -67.2051 84.2994 -67.055 84.002C-66.98 83.8533 -66.8832 83.6897 -66.7699 83.5164C-66.654 83.3473 -66.5216 83.1686 -66.3811 82.9845C-65.8219 82.2411 -65.0757 81.4554 -64.6024 80.8279C-63.5357 80.3969 -63.6954 80.7584 -63.9955 81.2112C-64.2915 81.675 -64.7157 82.2547 -64.2683 82.2697C-64.3706 82.1865 -64.2601 81.975 -64.0487 81.7022C-63.8386 81.4267 -63.5112 81.1171 -63.2029 80.8061C-62.5755 80.2059 -61.9807 79.6739 -62.409 79.7053C-61.6029 79.4039 -61.2851 79.2429 -61.0273 79.1679C-60.7749 79.0888 -60.5962 79.0778 -60.1011 79.0846C-60.1775 78.67 -59.8556 78.4531 -59.3987 78.1994C-59.1709 78.0726 -58.8994 77.9539 -58.6293 77.7902C-58.4929 77.7097 -58.358 77.6169 -58.2215 77.516C-58.0838 77.4178 -57.9487 77.306 -57.8191 77.1764C-57.234 77.0004 -56.882 76.9582 -56.6556 76.9513C-56.4278 76.9445 -56.3228 76.9786 -56.2177 76.9909C-56.0077 77.0168 -55.8085 76.9554 -54.6272 76.3839C-53.9998 76.2911 -54.2139 76.5053 -54.5767 76.7399C-54.7595 76.8531 -54.9738 76.9895 -55.147 77.0877C-55.3189 77.1873 -55.4457 77.2555 -55.4457 77.2555L-55.4511 77.2568ZM-8.1777 104.056C-8.1777 104.056 -8.18459 104.057 -8.18595 104.059C-8.34964 103.527 -8.50108 103.077 -8.59383 102.789C-8.50653 103.054 -8.38639 103.419 -8.1777 104.056ZM-6.91875 109.338C-6.97195 109.012 -7.03203 108.645 -7.11523 108.256C-7.19572 107.867 -7.27888 107.451 -7.38392 107.028C-7.27615 106.807 -7.06738 106.971 -6.95552 107.51C-7.03737 107.375 -7.03465 107.628 -7.006 108.016C-6.98964 108.21 -6.97195 108.437 -6.95286 108.668C-6.93922 108.9 -6.92554 109.133 -6.92009 109.338H-6.91875ZM-7.227 97.1473C-7.02921 97.5565 -6.9229 97.8401 -6.87107 98.0393C-6.82333 98.2398 -6.82873 98.3571 -6.85056 98.4308C-7.00333 98.0311 -7.21068 97.5755 -7.48076 96.9781C-7.50668 96.9604 -7.5435 96.9167 -7.57214 96.9004C-7.45892 96.9467 -7.34703 97.0081 -7.227 97.1459V97.1473Z" fill="#F6A473"/>
<path d="M167.874 115.885L167.908 115.769C167.869 115.863 167.834 115.949 167.793 116.002C167.831 115.928 167.845 115.931 167.872 115.885H167.874Z" fill="#F6A473"/>
<path d="M154.655 114.371C154.698 114.316 154.748 114.207 154.798 113.987C154.767 114.002 154.715 114.169 154.655 114.371Z" fill="#F6A473"/>
<path d="M157.354 101.809C157.627 101.278 157.919 100.764 158.234 100.288C157.806 100.899 157.549 101.405 157.354 101.809Z" fill="#F6A473"/>
<path d="M163.185 94.0109C163.208 93.8636 163.188 93.7967 163.169 93.7354C163.162 93.7408 163.159 93.7449 163.154 93.7476L163.185 94.0109Z" fill="#F6A473"/>
<path d="M92.0309 115.055C91.8918 115.072 91.7541 115.093 91.6313 115.119C90.6983 115.308 91.3353 115.205 92.0309 115.055Z" fill="#F6A473"/>
<path d="M135.286 93.9736C134.934 94.3542 134.585 94.7293 134.195 95.099C134.893 94.597 135.425 94.1919 135.286 93.9736Z" fill="#F6A473"/>
<path d="M43.2865 93.9859C43.2865 93.9859 43.2892 93.9832 43.296 93.9859C43.2237 93.8918 43.1596 93.8099 43.0859 93.7158L43.2851 93.9859H43.2865Z" fill="#F6A473"/>
<path d="M132.393 96.4386C132.765 96.219 133.094 95.9981 133.391 95.7771C133.688 95.5562 133.956 95.3338 134.197 95.1006C133.913 95.3093 133.59 95.5193 133.278 95.743C132.964 95.9667 132.659 96.2 132.394 96.44L132.393 96.4386Z" fill="#F6A473"/>
<path d="M168.385 85.9378C168.83 85.5723 169.266 85.1986 169.718 84.8426L171.07 83.7718C170.501 84.0296 169.738 84.3638 170.913 83.3135C169.079 84.5261 169.317 84.4606 169.572 84.4443C169.7 84.4361 169.832 84.4443 169.717 84.6325C169.659 84.728 169.535 84.8644 169.325 85.0758C169.115 85.2872 168.812 85.5668 168.385 85.9378Z" fill="#F6A473"/>
<path d="M160.713 93.4185C161.879 91.9644 160.504 93.2657 160.493 93.1293C159.852 94.1428 159.702 94.3842 160.713 93.4185Z" fill="#F6A473"/>
<path d="M164.588 92.0314L165.041 92.0054C164.264 90.7314 164.898 92.0696 164.588 92.0314Z" fill="#F6A473"/>
<path d="M152.533 84.8785L152.683 84.9222L152.83 84.978L153.122 85.0913L153.41 85.2018L153.69 85.3368L154.017 85.2222L154.185 85.1649C154.241 85.1472 154.296 85.1349 154.352 85.1199C154.205 85.0749 154.05 85.0586 153.898 85.0299L153.444 84.9508L152.986 84.9085C152.833 84.8949 152.683 84.8744 152.529 84.8785H152.533Z" fill="#F6A473"/>
<path d="M143.466 84.2646L144.032 83.8867L143.483 84.2319C143.303 84.3492 143.131 84.4773 142.956 84.6001L142.434 84.9712C142.259 85.0939 142.099 85.2317 141.932 85.3612L142.301 85.0749C142.427 84.9807 142.558 84.8934 142.687 84.8034C142.946 84.6247 143.203 84.4419 143.468 84.266L143.466 84.2646Z" fill="#F6A473"/>
<path d="M38.7442 79.1885L38.4795 79.7914C38.991 80.5907 39.5871 80.5007 38.7442 79.1885Z" fill="#F6A473"/>
<path d="M34.6113 28.1032C34.9005 27.9723 35.3001 27.6463 35.7148 27.2902C35.8171 27.1989 35.9167 27.1034 36.0149 27.0052C36.1145 26.9097 36.2142 26.8156 36.3069 26.716C36.4938 26.5223 36.6492 26.3095 36.7829 26.124C35.8881 26.8524 34.9524 27.5985 34.6128 28.1032H34.6113Z" fill="#F6A473"/>
<path d="M88.466 100.545C111.748 100.545 130.622 81.6717 130.622 58.3899C130.622 35.108 111.748 16.2344 88.466 16.2344C65.1842 16.2344 46.3105 35.108 46.3105 58.3899C46.3105 81.6717 65.1842 100.545 88.466 100.545Z" fill="url(#paint0_radial_2220_5426)"/>
<path d="M85.9929 78.0973C84.1542 78.0973 81.6293 77.7794 78.9681 76.4836C74.9537 74.5303 73.9416 70.711 73.8993 70.5487C73.8079 70.1913 74.0248 69.8271 74.3822 69.7357C74.7409 69.6444 75.1038 69.8612 75.1952 70.2186C75.2033 70.25 76.1132 73.6069 79.5533 75.2819C84.2401 77.5626 88.53 76.5164 88.5736 76.5054C88.931 76.4154 89.2952 76.631 89.3853 76.9897C89.4753 77.3471 89.2598 77.7112 88.901 77.8013C88.8083 77.8245 87.6938 78.0973 85.9929 78.0973Z" fill="#191919"/>
<path d="M89.3251 70.7933C88.9663 70.7933 88.6704 70.5082 88.6581 70.1481C88.6458 69.7798 88.9349 69.4702 89.3032 69.4579L93.3981 69.3215L89.8202 57.6044L89.8175 57.5185L89.2842 44.0473C89.2692 43.679 89.557 43.368 89.9253 43.353C90.299 43.3394 90.6046 43.6258 90.6196 43.9941L91.1488 57.378L95.1849 70.5969L89.3482 70.7919C89.3401 70.7919 89.3332 70.7919 89.3251 70.7919V70.7933Z" fill="#191919"/>
<path d="M76.949 59.2958C76.8822 59.2958 76.8154 59.2958 76.7472 59.2944C75.1676 59.2672 73.704 58.9193 72.4 58.2605C69.1522 56.6291 67.9614 53.6595 67.9123 53.5341L67.8154 53.2858L67.9164 53.0389C68.0037 52.8261 70.1303 47.8119 77.1564 47.9552H77.1796C77.9871 47.9702 78.7769 48.0752 79.5258 48.2675C84.1921 49.4529 85.9299 53.5327 86.0008 53.706L86.1317 54.0211L85.9531 54.3116C85.9204 54.3648 85.1292 55.6361 83.5906 56.8828C82.2797 57.9427 80.8379 58.6628 79.302 59.0243C79.2256 59.0434 79.1425 59.0612 79.0593 59.0789C78.3677 59.2235 77.6611 59.2971 76.9518 59.2971L76.949 59.2958ZM69.2723 53.2967C69.6133 53.9842 70.7345 55.928 73.0016 57.067C74.1255 57.6344 75.394 57.9345 76.7717 57.9576C77.4496 57.9686 78.1235 57.9085 78.7769 57.7708C78.8451 57.7557 78.9174 57.7408 78.9869 57.7231C80.3305 57.4066 81.5935 56.7737 82.7462 55.8421C83.6833 55.0837 84.3094 54.3089 84.6095 53.901C84.1293 52.9953 82.4938 50.3982 79.1929 49.5593C78.5395 49.3915 77.8521 49.3001 77.1455 49.2878H77.121C77.0405 49.2851 76.9599 49.2851 76.8808 49.2851C71.7629 49.2851 69.7551 52.376 69.2708 53.2953L69.2723 53.2967Z" fill="#191919"/>
<path d="M104.161 60.1085C103.898 60.1085 103.632 60.099 103.365 60.0799C102.591 60.0267 101.826 59.8862 101.09 59.6625C99.4965 59.1783 98.041 58.3067 96.7656 57.0722C95.3429 55.6932 94.6678 54.3578 94.6391 54.3019L94.4863 53.9963L94.6446 53.6935C94.7319 53.5271 96.823 49.6164 101.578 48.8485C102.338 48.723 103.13 48.6888 103.934 48.7448H103.947C110.969 49.2263 112.649 54.4082 112.717 54.6278L112.796 54.8829L112.677 55.1216C112.617 55.2417 111.167 58.0938 107.787 59.4333C107.364 59.6025 106.918 59.7416 106.464 59.848C105.729 60.0199 104.958 60.1072 104.163 60.1072L104.161 60.1085ZM96.0099 54.014C96.2718 54.4464 96.8284 55.2731 97.6946 56.1119C98.8172 57.1977 100.09 57.9616 101.478 58.3831C102.118 58.5767 102.784 58.6995 103.458 58.7459C104.402 58.8127 105.31 58.7459 106.158 58.5481C106.549 58.4567 106.93 58.3381 107.293 58.1921C109.653 57.2577 110.942 55.4217 111.343 54.7656C110.935 53.7917 109.158 50.4444 103.865 50.0788H103.846C103.144 50.0284 102.454 50.0569 101.792 50.1661C98.4285 50.709 96.5692 53.1519 96.0099 54.0113V54.014Z" fill="#191919"/>
<path d="M85.38 53.9599C85.38 53.9599 84.6339 55.1726 83.1648 56.362C82.1595 57.175 80.8174 57.9783 79.1437 58.3726C76.9981 57.2622 75.5767 54.9761 75.6899 52.4036C75.754 50.9631 76.2887 49.655 77.1399 48.6211H77.1549C77.957 48.6361 78.6881 48.7411 79.3551 48.9129C83.7527 50.0301 85.38 53.9599 85.38 53.9599Z" fill="#191919"/>
<path d="M79.0712 58.9681L78.8856 58.8726C76.4836 57.6286 75.0091 55.0792 75.1278 52.3771C75.1946 50.8562 75.7403 49.4335 76.706 48.2618L76.8846 48.0449L77.1738 48.0572C77.9745 48.0708 78.7561 48.1759 79.4968 48.3668C84.1141 49.5385 85.83 53.5733 85.901 53.7438L86.0114 54.0098L85.8599 54.2553C85.8272 54.3085 85.0457 55.5635 83.5207 56.7993C82.2221 57.8496 80.7939 58.563 79.273 58.9204L79.0699 58.9681H79.0712ZM77.4084 49.1921C76.7045 50.1306 76.3076 51.2436 76.2544 52.4262C76.1576 54.621 77.3156 56.697 79.2212 57.7719C80.4993 57.4377 81.7065 56.817 82.8127 55.9222C83.7989 55.1229 84.4468 54.3072 84.7333 53.9103C84.2859 53.0468 82.6327 50.3256 79.2199 49.458C78.6401 49.3094 78.0332 49.2194 77.4099 49.1921H77.4084Z" fill="#191919"/>
<path d="M112.076 54.826C112.076 54.826 110.72 57.5541 107.537 58.8144C107.155 58.9672 106.745 59.0968 106.308 59.1991C103.987 58.1556 102.418 55.774 102.538 53.0759C102.6 51.69 103.097 50.427 103.893 49.4121H103.9C110.545 49.8663 112.076 54.8246 112.076 54.8246V54.826Z" fill="#191919"/>
<path d="M106.253 59.7927L106.08 59.7149C103.461 58.5377 101.85 55.9229 101.978 53.0529C102.042 51.5934 102.552 50.2157 103.451 49.0672L103.628 48.8408L103.939 48.8531C110.89 49.3278 112.549 54.4442 112.616 54.6625L112.683 54.878L112.582 55.0799C112.523 55.1999 111.091 58.0167 107.746 59.3412C107.328 59.5076 106.887 59.6467 106.438 59.7517L106.253 59.7954V59.7927ZM104.16 50.0003C103.516 50.9128 103.152 51.9794 103.103 53.102C102.999 55.4441 104.276 57.5829 106.369 58.6046C106.699 58.52 107.021 58.4136 107.33 58.2908C109.788 57.3183 111.087 55.4018 111.459 54.7784C111.092 53.87 109.379 50.4777 104.16 50.0003Z" fill="#191919"/>
<path d="M151.071 191.272L124.587 115.353C122.874 110.442 118.251 107.143 113.05 107.119L63.1729 106.898C63.1539 106.898 63.1361 106.898 63.1183 106.898C57.6185 106.898 52.7871 110.558 51.2989 115.857L30.1115 191.336C29.0775 195.022 29.8208 198.978 32.122 202.036C34.4231 205.094 38.0202 206.904 41.8476 206.93L139.397 207.592C139.425 207.592 139.453 207.592 139.48 207.592C143.44 207.592 147.158 205.681 149.465 202.457C151.786 199.211 152.386 195.04 151.071 191.271V191.272Z" fill="url(#paint1_linear_2220_5426)"/>
<path fill-rule="evenodd" clip-rule="evenodd" d="M74.1043 106.832C74.3377 106.894 74.5193 107.077 74.5796 107.311L89.3671 164.693C89.4402 164.977 89.3202 165.275 89.0711 165.429C88.822 165.583 88.5017 165.557 88.2809 165.364L60.9143 141.529C60.6436 141.293 60.6075 140.886 60.8323 140.606L69.2823 130.095L56.5038 125.767C56.2863 125.693 56.1219 125.513 56.0683 125.29C56.0147 125.067 56.0794 124.832 56.2396 124.667L73.4538 107.011C73.6223 106.838 73.871 106.77 74.1043 106.832ZM57.9371 124.841L70.6167 129.136C70.8234 129.206 70.9829 129.373 71.0439 129.582C71.105 129.792 71.0599 130.018 70.9232 130.188L62.2768 140.943L87.5354 162.942L73.5816 108.795L57.9371 124.841Z" fill="#191919"/>
<path fill-rule="evenodd" clip-rule="evenodd" d="M103.335 106.832C103.568 106.77 103.817 106.838 103.985 107.011L121.199 124.667C121.36 124.832 121.424 125.067 121.371 125.29C121.317 125.513 121.153 125.693 120.935 125.767L108.158 130.095L116.608 140.606C116.833 140.886 116.797 141.293 116.526 141.529L89.1596 165.364C88.9389 165.557 88.6186 165.583 88.3695 165.429C88.1204 165.275 88.0004 164.977 88.0734 164.693L102.86 107.311C102.92 107.077 103.101 106.894 103.335 106.832ZM103.858 108.795L89.9051 162.942L115.164 140.943L106.517 130.188C106.381 130.018 106.336 129.792 106.397 129.582C106.458 129.373 106.617 129.206 106.824 129.136L119.502 124.841L103.858 108.795Z" fill="#191919"/>
</g>
<defs>
<radialGradient id="paint0_radial_2220_5426" cx="0" cy="0" r="1" gradientUnits="userSpaceOnUse" gradientTransform="translate(96.4443 37.958) scale(102.419 102.419)">
<stop stop-color="#B5EADD"/>
<stop offset="1" stop-color="#D0D4F9"/>
</radialGradient>
<linearGradient id="paint1_linear_2220_5426" x1="143.21" y1="141.546" x2="41.5789" y2="179.617" gradientUnits="userSpaceOnUse">
<stop stop-color="#2B66BD"/>
<stop offset="1" stop-color="#D0D4F9"/>
</linearGradient>
</defs>
</svg>
