<svg width="177" height="177" viewBox="0 0 177 177" fill="none" xmlns="http://www.w3.org/2000/svg">
<mask id="mask0_2220_5349" style="mask-type:luminance" maskUnits="userSpaceOnUse" x="0" y="0" width="177" height="177">
<path d="M88.5001 177C137.377 177 177 137.377 177 88.5C177 39.6228 137.377 0 88.5001 0C39.6229 0 0 39.6228 0 88.5C0 137.377 39.6229 177 88.5001 177Z" fill="white"/>
</mask>
<g mask="url(#mask0_2220_5349)">
<path d="M123.743 269.306C223.087 269.306 303.622 188.771 303.622 89.4263C303.622 -9.91834 223.087 -90.4531 123.743 -90.4531C24.3981 -90.4531 -56.1367 -9.91834 -56.1367 89.4263C-56.1367 188.771 24.3981 269.306 123.743 269.306Z" fill="white"/>
<path d="M152.281 90.1436C152.374 90.2131 152.465 90.2813 152.562 90.3427C152.489 90.28 152.393 90.2131 152.281 90.1436Z" fill="#477CCA"/>
<path d="M132.821 64.3501C132.919 64.5833 132.997 64.6665 133.038 64.6652C132.929 64.4565 132.837 64.2846 132.821 64.3501Z" fill="#477CCA"/>
<path d="M131.593 58.8379C131.611 58.9579 131.631 59.0562 131.651 59.1639C131.656 59.0316 131.645 58.9047 131.593 58.8379Z" fill="#477CCA"/>
<path d="M152.28 90.1435L151.574 89.6143C151.451 89.7097 151.919 89.9157 152.28 90.1435Z" fill="#477CCA"/>
<path d="M166.205 91.8732L166.461 91.8214C166.528 91.7573 166.587 91.685 166.64 91.6045L166.204 91.8732H166.205Z" fill="#477CCA"/>
<path d="M176.386 87.8574C176.165 87.9761 176.271 88.3335 176.267 88.5217C176.292 88.4208 176.337 88.3335 176.395 88.2516C176.454 88.1684 176.528 88.0934 176.615 88.0238C176.582 87.9611 176.511 87.9052 176.386 87.8574Z" fill="#477CCA"/>
<path d="M158.479 91.8106C158.471 91.7533 158.443 91.7001 158.407 91.666C158.399 91.711 158.429 91.7601 158.479 91.8106Z" fill="#477CCA"/>
<path d="M129.392 48.4854C129.395 48.5058 129.396 48.514 129.4 48.5331C129.526 48.7895 129.47 48.6395 129.392 48.4854Z" fill="#477CCA"/>
<path d="M54.686 31.389C55.1048 30.9811 54.9725 31.4326 54.8825 31.82C54.7952 32.2101 54.7461 32.5348 55.3108 31.895C55.2098 31.9278 55.2685 31.5268 55.248 31.2526C55.2317 30.9811 55.1225 30.8311 54.686 31.389Z" fill="#477CCA"/>
<path d="M55.311 31.8946H55.3137L55.4284 31.7637C55.3793 31.8182 55.352 31.8482 55.311 31.8946Z" fill="#477CCA"/>
<path d="M117.825 26.7119C117.807 26.7924 117.83 26.9015 117.859 27.012C117.883 26.982 117.883 26.907 117.825 26.7119Z" fill="#477CCA"/>
<path d="M126.579 42.831L126.452 42.3945C126.489 42.5732 126.537 42.711 126.579 42.831Z" fill="#477CCA"/>
<path d="M110.625 20.3281C110.449 20.1507 110.415 20.0553 110.112 19.8916C110.126 19.9257 110.142 19.9543 110.167 19.9898C110.297 20.0225 110.441 20.103 110.624 20.3281H110.625Z" fill="#477CCA"/>
<path d="M102.079 15.1839C102.115 15.2317 102.171 15.2794 102.218 15.3258C102.31 15.3599 102.42 15.3995 102.516 15.435L102.079 15.1826V15.1839Z" fill="#477CCA"/>
<path d="M10.2758 70.9941C10.0562 71.076 9.88298 71.0937 9.72885 71.091C10.0221 71.1633 9.12455 72.2586 10.2758 70.9941Z" fill="#477CCA"/>
<path d="M108.517 22.382L107.946 21.9169C107.756 21.7601 107.565 21.6059 107.367 21.46C107.527 21.5909 107.71 21.7423 107.903 21.9019C108.098 22.0601 108.307 22.2238 108.517 22.382Z" fill="#477CCA"/>
<path d="M53.3481 79.2391C53.344 79.1286 53.3331 79.0167 53.325 78.9062C53.3086 79.0331 53.3154 79.1518 53.3481 79.2391Z" fill="#477CCA"/>
<path d="M103.647 19.1875C103.478 18.9515 103.265 18.7552 103.031 18.5778C102.963 18.5751 102.891 18.5642 102.836 18.5833L103.647 19.1875Z" fill="#477CCA"/>
<path d="M9.72412 71.0895H9.72958C9.72958 71.0895 9.72821 71.0881 9.72412 71.0895Z" fill="#477CCA"/>
<path d="M3.72398 79.2403C4.66517 78.1286 3.79903 78.4095 3.78266 77.9921C4.80023 76.5667 4.57783 77.6075 5.14936 77.3156C5.75499 76.4044 5.96642 75.4837 6.51613 74.8849C6.61707 74.8917 6.7426 74.7935 6.69622 74.9981C7.16272 73.8728 8.95366 72.4419 9.51428 71.1338C9.61385 71.0901 9.678 71.0819 9.72301 71.0888C9.39701 71.0806 9.19242 70.936 9.09421 70.7832C9.53616 70.2976 9.70665 69.6811 10.109 69.7234C9.82396 70.0085 9.89353 70.1203 9.83624 70.3263L10.2113 69.7329C10.9697 69.6006 9.6766 70.52 9.92622 70.7546C10.7337 69.6784 11.5522 68.2925 12.3734 67.6582C12.8358 67.8178 10.7965 69.4724 12.0377 68.7754C11.6285 69.1123 11.2166 69.4492 10.8115 69.7929C12.1564 69.4083 10.1117 70.4531 11.4239 70.1735C11.8045 69.8188 12.0923 69.5351 12.3242 69.2773C12.5575 69.0209 12.7389 68.7917 12.9244 68.568C13.294 68.1193 13.6624 67.6664 14.4508 66.9953C14.6131 66.492 14.0838 66.8384 14.2475 66.3337C14.7045 65.7431 15.0905 65.4008 15.4247 65.188C15.7629 64.9793 16.0508 64.8988 16.3167 64.8333C16.8473 64.6983 17.2948 64.6301 17.9018 63.6916C18.015 63.3983 18.0191 63.1078 18.1678 62.794C18.2414 62.6372 18.3505 62.4735 18.5278 62.3017C18.7065 62.1325 18.9535 61.9552 19.2972 61.7656L19.2181 62.4899C19.9983 61.8679 20.1087 61.5541 20.2506 61.254C20.3911 60.9553 20.5643 60.6689 21.5014 60.1697C21.4141 60.362 21.1291 60.6348 20.9 60.8408C20.6722 61.0495 20.503 61.1981 20.6394 61.1258C21.2928 60.8612 21.4414 60.6675 21.5246 60.4465C21.6105 60.2297 21.631 59.9883 22.0525 59.6813L22.4918 59.9146C23.317 59.2544 24.1763 58.5533 25.0739 57.8508C25.9769 57.1579 26.9316 56.484 27.941 55.9057C27.8878 56.0857 27.6069 56.3967 28.1443 56.2631C29.376 55.4978 30.8055 54.8908 32.2541 54.5266C33.6973 54.1584 35.1622 54.0438 36.4553 54.1229C36.6163 54.052 36.7801 53.9919 36.9451 53.9251C37.1102 53.8623 37.2792 53.786 37.4484 53.7369C37.683 53.7546 37.8685 53.9346 37.6162 53.996C38.1127 54.0956 38.1291 54.037 38.0868 53.9347C38.0432 53.8365 37.9326 53.6878 38.1863 53.6332C38.777 53.6755 38.9215 53.9428 38.5464 54.0165C38.6582 54.011 38.7783 53.9987 38.9024 53.9987C39.0266 54.0015 39.1548 54.0042 39.2885 54.0056C39.4222 54.0111 39.5626 54.0069 39.7045 54.0247C39.8463 54.0397 39.9923 54.056 40.141 54.0724C40.216 54.0806 40.2911 54.0901 40.3675 54.0983C40.4425 54.112 40.5175 54.127 40.5939 54.142C40.7467 54.172 40.9021 54.2034 41.0589 54.2347C41.2144 54.2716 41.37 54.3193 41.5269 54.3643C41.6837 54.4093 41.8433 54.4543 41.9947 54.5157C42.1488 54.5757 42.3029 54.6344 42.4571 54.6944C42.6085 54.7585 42.7559 54.8336 42.9032 54.9045C43.2005 55.0409 43.472 55.2182 43.7366 55.3819C43.869 55.4637 43.9889 55.562 44.109 55.652C44.2276 55.7447 44.3449 55.8307 44.45 55.9275C44.6587 56.1239 44.8524 56.3081 45.0065 56.5032C44.8878 56.4486 44.761 56.409 44.6382 56.3626C44.7064 56.4267 44.7747 56.484 44.8401 56.5359C44.9029 56.5918 44.9656 56.6409 45.027 56.6859C45.1498 56.7746 45.2684 56.8455 45.3857 56.9028C45.6163 57.0215 45.8304 57.1006 46.0459 57.1783C46.2628 57.2533 46.4592 57.3529 46.6611 57.5016C46.8643 57.6476 47.0484 57.8699 47.2244 58.1973L46.9872 58.0377C48.0675 59.3308 49.1109 60.7944 49.928 62.2907C50.7382 63.7884 51.3152 65.3107 51.4734 66.6393C51.6439 66.7102 51.7939 66.9489 51.9126 67.2749C51.974 67.4372 52.0313 67.62 52.0859 67.811C52.135 68.0033 52.1854 68.2038 52.2359 68.403C52.3368 68.7999 52.4269 69.19 52.5483 69.4806C52.6642 69.7725 52.8102 69.9675 53.0134 69.9771C53.0543 70.9892 52.9834 71.3588 52.9588 71.8226C52.9193 72.2864 52.9384 72.8443 52.9697 74.2165C53.0066 74.9422 53.5673 75.2532 53.6941 76.1643L53.2889 76.2053C53.3735 76.4058 53.4472 76.6063 53.5236 76.8095C53.6014 77.0128 53.6763 77.2174 53.7445 77.422C53.5821 77.6416 53.4226 77.8571 53.2521 78.0672L53.293 78.4859L53.3217 78.9033C53.368 78.576 53.5358 78.2049 53.6504 78.2581C53.7227 78.9224 53.5944 79.7272 53.3857 80.3315C53.1811 80.9399 52.9166 81.3449 52.8143 81.3367C52.727 82.2984 52.5291 83.2382 52.1799 83.9652C52.079 83.837 52.2346 83.4674 52.2796 83.1182C52.2564 83.2914 52.2236 83.4169 52.1963 83.5179C52.1622 83.6079 52.1295 83.6666 52.0982 83.7048C52.0354 83.7811 51.9781 83.7743 51.9194 83.7579C51.8621 83.7429 51.8048 83.7238 51.7476 83.7702C51.7189 83.792 51.6917 83.8384 51.6603 83.897C51.6439 83.9243 51.6275 83.9571 51.6112 83.9993C51.5948 84.0403 51.5785 84.0948 51.558 84.1385C51.6289 84.1385 51.663 84.189 51.6794 84.2531C51.6971 84.3158 51.6972 84.3936 51.7163 84.4318C51.6849 84.4372 51.6548 84.4536 51.6221 84.4577C51.5893 84.4618 51.5579 84.4686 51.5266 84.4767C51.4952 84.4822 51.4653 84.5013 51.4325 84.5027C51.4066 84.5054 51.3793 84.5082 51.3521 84.5122C51.273 84.5218 51.1884 84.519 51.1079 84.5136C51.067 84.5095 51.0273 84.4973 50.9864 84.4891C50.9469 84.4754 50.9087 84.459 50.8705 84.4399C50.8323 84.4167 50.7982 84.4017 50.7573 84.369C50.6864 84.3103 50.61 84.2312 50.5336 84.1521C50.6428 84.1385 50.7491 84.129 50.85 84.103C50.655 83.8384 50.4176 83.421 50.2089 82.9409C49.9961 82.4607 49.7983 81.9165 49.6224 81.3422C49.2705 80.191 48.9991 78.9211 48.8422 77.6184C48.8354 78.5664 48.3252 78.4273 48.1792 77.6538L48.5681 77.2938C48.2475 76.8218 48.4984 78.1245 48.0605 77.1301C48.0073 76.1275 48.4779 76.418 48.6743 76.9664C48.583 76.5735 48.4957 76.1793 48.4153 75.781C48.5367 75.7005 48.6267 75.9775 48.7972 76.0348C48.6417 75.8015 48.7085 75.2736 48.7589 74.7239C48.8067 74.1728 48.8449 73.5986 48.5994 73.2494L48.7248 73.1771C48.6825 71.8444 48.6512 70.876 48.6225 69.9689C48.5966 69.0591 48.5776 68.2079 48.6212 67.1153C48.2529 67.054 48.3784 66.2028 48.1261 65.529C48.3539 63.9194 48.8095 62.1639 49.0223 60.2324C49.0168 58.852 48.7631 59.7959 48.6267 59.1548C48.9704 59.0989 49.2254 57.1715 49.3168 58.2055C49.4682 57.0474 49.5651 56.3081 49.6729 55.491C49.7683 54.6698 49.8734 53.7723 50.0453 52.2992C49.8421 52.5843 49.7083 52.9266 49.6346 52.7193C49.6919 52.1791 50.0329 51.5503 50.1748 51.6622L50.1789 51.8081C50.2894 50.129 50.9959 48.3175 51.7148 46.6275C52.4336 44.9334 53.1594 43.3607 53.274 42.0103L53.2563 42.1603C53.4459 41.2655 53.6531 40.3721 53.8795 39.4814C54.4074 38.3424 53.8318 40.2724 54.3747 39.4922C54.6652 38.03 55.1617 36.9742 55.6705 36.0112C56.1834 35.0455 56.7045 34.167 57.1246 33.0267C58.0112 32.4552 58.8119 31.0461 59.7326 29.6071C60.6411 28.1667 61.6846 26.699 62.7431 26.0088L62.4743 25.9583C62.5984 25.6446 62.7553 25.5245 62.9217 25.4481C63.0881 25.3704 63.2655 25.3308 63.447 25.1849C63.2683 25.1031 62.8236 25.5382 62.9995 25.163C63.8739 24.1373 64.8669 23.1879 65.954 22.3531C66.4969 21.9344 67.0616 21.5415 67.6482 21.1828C68.2347 20.8213 68.828 20.498 69.4704 20.1789C70.7349 19.5419 72.0362 18.9785 73.3498 18.482C74.6647 17.9882 75.9919 17.5653 77.3136 17.193C77.7938 17.047 78.0844 16.8983 78.2863 16.7319C78.4896 16.5669 78.6054 16.3896 78.7432 16.2246C78.8823 16.0636 79.0446 15.9135 79.3365 15.7962C79.4825 15.7389 79.6599 15.6844 79.8849 15.6516C80.11 15.6203 80.3814 15.6011 80.7088 15.5984L80.0977 16.1823C80.5778 16.0063 81.0662 15.8413 81.5655 15.7158C82.062 15.5753 82.5707 15.4784 83.0795 15.3802C84.1012 15.2097 85.1378 15.091 86.1731 15.0515L86.5604 15.031L86.9479 15.0228C87.2071 15.0187 87.4649 15.0092 87.7227 15.0064C88.2383 15.0133 88.7525 15.0024 89.2627 15.0201C90.2857 15.031 91.2978 15.0787 92.3058 15.0951C92.0562 15.1592 92.0344 15.2902 91.6484 15.2479C91.748 15.2984 91.8707 15.342 92.0098 15.3775C92.1476 15.417 92.3017 15.4538 92.464 15.4825C92.7887 15.5411 93.1488 15.5711 93.4844 15.6011C93.8199 15.6284 94.1364 15.6243 94.371 15.6148C94.6056 15.6039 94.761 15.5684 94.7788 15.5057C95.3817 15.6639 94.8715 15.7635 95.2153 15.9708C95.4103 16.0622 95.6381 16.1209 95.8809 16.155C96.1237 16.1904 96.3801 16.2027 96.6202 16.2313C97.1031 16.2818 97.5409 16.3296 97.706 16.5546C97.7619 16.6283 97.4523 16.5765 97.2968 16.5601C97.44 16.5574 97.6597 16.6174 97.9079 16.6856C98.1548 16.7579 98.429 16.8356 98.6677 16.9174C99.1465 17.0729 99.512 17.1575 99.3279 16.8984C99.6675 17.0607 100 17.2176 100.335 17.3444C100.67 17.4726 100.996 17.5967 101.314 17.7181C101.473 17.7795 101.632 17.8368 101.783 17.901C101.935 17.9678 102.083 18.0346 102.228 18.1042C102.517 18.2447 102.79 18.3933 103.029 18.5843C103.248 18.5843 103.496 18.6702 103.751 18.7916C104.005 18.9171 104.26 19.089 104.506 19.2417C104.629 19.3195 104.748 19.3918 104.862 19.4587C104.974 19.5269 105.081 19.5855 105.181 19.6292C105.382 19.7151 105.555 19.7383 105.684 19.6482C105.582 19.7614 105.658 19.9279 105.84 20.1216C106.019 20.3207 106.304 20.5471 106.631 20.7681C106.956 20.9932 107.316 21.2278 107.661 21.4174C108 21.6138 108.314 21.7816 108.549 21.8689C108.366 21.8444 108.504 22.0067 108.631 22.1704C108.757 22.3354 108.864 22.51 108.643 22.4895C109.498 23.1497 110.317 23.724 110.375 23.368C110.647 23.8249 110.973 24.2123 111.341 24.5356C111.706 24.8629 112.087 25.1549 112.455 25.4249C112.816 25.7032 113.147 25.976 113.401 26.2625C113.65 26.5544 113.811 26.8722 113.833 27.2323C116.242 29.4256 118.212 31.7841 119.88 34.2448C119.738 34.2994 119.562 34.152 119.362 33.9133C119.158 33.676 118.935 33.3432 118.714 33.0172C118.268 32.3693 117.813 31.7623 117.596 31.9914C118.038 32.5302 118.457 32.9994 118.836 33.455C119.027 33.6815 119.22 33.897 119.4 34.1152C119.577 34.3362 119.752 34.5517 119.928 34.7686C120.62 35.6402 121.24 36.5664 121.832 37.8363C121.959 38.1787 121.855 38.116 121.695 37.9468C121.533 37.779 121.307 37.5103 121.206 37.4271C121.598 38.0109 121.922 38.622 122.242 39.2221C122.398 39.525 122.541 39.8306 122.686 40.132C122.829 40.4348 122.975 40.7335 123.104 41.0377C123.374 41.6406 123.642 42.2353 123.905 42.8205C124.039 43.1124 124.176 43.4016 124.321 43.6853C124.459 43.9717 124.602 44.2555 124.753 44.5324C124.699 44.546 124.545 44.3155 124.41 44.0945C124.608 44.5487 124.747 45.1952 124.979 45.0479L124.734 44.6251C124.773 44.1859 125.144 44.5678 125.532 45.0698C125.91 45.5745 126.306 46.1979 126.419 46.2047C125.906 45.9373 126.086 46.5388 126.191 47.0967C126.303 47.6546 126.368 48.1566 125.689 47.6806C125.842 47.9725 126.096 48.3189 126.243 48.1921C126.348 48.6681 126.289 48.8482 125.946 48.4444C126.287 49.2656 126.473 49.507 126.64 49.7334C126.722 49.8466 126.801 49.9571 126.884 50.1358C126.966 50.3145 127.056 50.5628 127.168 50.9515C127.041 50.9829 126.9 50.6842 126.707 50.5696C126.943 50.9243 127.18 51.2816 127.394 51.7181C127.602 52.156 127.778 52.677 127.903 53.3508C127.805 53.2922 127.748 53.4709 127.643 53.0767C127.81 53.6373 127.981 54.1543 128.168 54.6494C128.26 54.8963 128.357 55.1391 128.453 55.3805C128.544 55.6233 128.634 55.8647 128.726 56.1075C129.087 57.0733 129.408 58.1195 129.623 59.4235C128.871 58.8138 129.675 60.3388 129.242 60.6075C129.425 61.0522 129.597 61.4982 129.789 61.9375C129.809 61.7315 129.826 61.5269 129.851 61.3209C129.934 61.621 130.05 61.902 130.165 62.1748C130.279 62.4476 130.403 62.7095 130.527 62.966C130.649 63.2224 130.763 63.4748 130.86 63.7298C130.961 63.9835 131.043 64.2386 131.094 64.5032L130.597 63.6985L131.027 64.7828C131.173 65.1429 131.325 65.5003 131.475 65.8591C131.383 65.4239 131.28 64.9942 131.196 64.5591C131.861 65.6503 131.732 64.2222 132.174 65.8072C132.091 65.6613 132.2 65.9491 132.329 66.3597C132.393 66.5656 132.462 66.803 132.512 67.0322C132.567 67.2599 132.602 67.4823 132.597 67.6582C132.597 67.6582 132.595 67.6541 132.594 67.6555C132.97 68.1615 133.372 68.669 133.632 69.5502C133.588 69.8311 133.056 69.6006 133.026 69.7847C133.344 69.9743 133.662 70.6264 134.022 71.2811C134.37 71.9413 134.759 72.6042 135.124 72.8443C134.917 72.6656 134.681 72.7706 134.673 72.8702C134.849 72.9698 135.023 73.0693 135.203 73.1662C135.379 73.7213 135.375 73.8209 135.149 73.8359C135.531 74.6148 135.609 74.4143 135.673 74.2683C135.739 74.121 135.802 74.0215 136.188 74.9777C136.086 74.8508 136.08 74.9436 135.872 74.6762C135.984 74.9095 136.1 75.1359 136.221 75.3582C136.344 75.5806 136.476 75.7947 136.607 76.0061C136.739 76.2176 136.873 76.4276 137.011 76.6322C137.151 76.8341 137.292 77.036 137.431 77.2365C137.706 77.6389 137.994 78.0249 138.264 78.4191C138.53 78.816 138.8 79.2061 139.036 79.6194C138.952 80.3669 137.989 78.325 138.011 79.0888C138.825 80.2032 139.791 81.2672 140.77 82.2902C141.753 83.3119 142.757 84.2831 143.643 85.2747C143.536 85.1465 143.438 85.0142 143.338 84.8805C143.712 84.7768 143.997 85.1779 144.341 85.7058C144.509 85.9731 144.708 86.2555 144.934 86.5215C145.162 86.7861 145.416 87.033 145.73 87.1858C145.446 87.0112 145.144 87.194 145.263 87.194C145.595 87.5131 145.944 87.8228 146.324 88.1188C146.518 88.2633 146.719 88.4066 146.926 88.5498C147.133 88.693 147.343 88.8417 147.574 88.9753C147.802 89.1117 148.036 89.2523 148.278 89.3969C148.338 89.4323 148.399 89.4692 148.46 89.5046C148.523 89.5387 148.587 89.5728 148.651 89.6069C148.78 89.6751 148.911 89.7447 149.044 89.8156C149.568 90.1089 150.156 90.3749 150.777 90.6818L150.392 90.6627C150.5 90.7472 150.614 90.8414 150.744 90.9259C150.873 91.0105 151.012 91.0965 151.158 91.1838C151.45 91.3543 151.759 91.5438 152.09 91.6966C152.419 91.8548 152.746 92.0212 153.065 92.1658C153.387 92.305 153.691 92.44 153.959 92.5696C154.153 92.5559 154.408 92.6023 154.575 92.6091C154.743 92.616 154.824 92.5819 154.675 92.3936C155.057 92.6555 155.45 92.8983 155.864 93.062C156.276 93.2338 156.692 93.3907 157.121 93.4794C157.548 93.5749 157.97 93.6676 158.4 93.6976C158.614 93.7181 158.827 93.7359 159.039 93.7509C159.145 93.7577 159.25 93.7672 159.355 93.7713L159.673 93.774C159.883 93.774 160.093 93.7754 160.302 93.7768C160.51 93.7781 160.716 93.7822 160.924 93.77C161.337 93.7509 161.745 93.7509 162.15 93.7481C162.555 93.7345 162.957 93.7372 163.361 93.77C163.765 93.7863 164.169 93.8163 164.581 93.8913C164.199 93.9241 163.675 94.1218 163.982 94.0987C164.439 94.0318 164.896 93.98 165.344 93.8777L166.018 93.7413C166.13 93.7181 166.243 93.6976 166.354 93.6717L166.685 93.5844C166.552 93.4562 166.456 93.4276 166.32 93.4166C166.182 93.403 166.001 93.3949 165.703 93.3185C165.781 93.2625 165.885 93.2039 166.006 93.148C166.067 93.1193 166.132 93.092 166.201 93.0661C166.269 93.0375 166.342 93.0047 166.415 92.9761C166.713 92.8588 167.051 92.7551 167.374 92.691C166.809 92.9065 166.831 93.0265 167.071 93.0988C167.309 93.1684 167.767 93.2053 168.041 93.2134C167.933 93.1452 168.085 92.9993 168.019 92.9188C168.767 93.0047 168.79 92.8411 168.862 92.6419C168.899 92.5423 168.948 92.4332 169.109 92.3418C169.267 92.2409 169.536 92.1522 170.016 92.0949L169.969 92.2777C170.633 91.9967 171.166 91.5506 171.9 91.3283C172.328 91.5424 171.251 91.7484 171.304 92.0376C171.558 91.9367 171.795 91.8003 172.024 91.6516L172.195 91.5384L172.358 91.4143C172.466 91.3324 172.575 91.2506 172.682 91.1687C172.897 91.0091 173.111 90.8632 173.338 90.7527C173.451 90.6968 173.568 90.6531 173.687 90.6136C173.804 90.5727 173.927 90.544 174.055 90.5304C173.962 90.6027 173.857 90.6763 173.743 90.7486C173.628 90.8195 173.504 90.8837 173.381 90.9519C173.134 91.0869 172.888 91.2205 172.695 91.3569C173.267 91.3337 173.576 91.2833 173.836 91.2069C174.092 91.1251 174.293 91.0105 174.668 90.8632L174.593 90.8891L175.467 90.5618C175.756 90.4472 176.04 90.3203 176.326 90.2002L175.858 90.3298C176.051 89.9616 176.289 89.6874 176.564 89.4582C176.7 89.3423 176.849 89.244 176.996 89.1404C177.145 89.0367 177.299 88.9385 177.458 88.8417C177.776 88.6466 178.113 88.4516 178.447 88.2143C178.775 87.9687 179.094 87.6714 179.387 87.2963C178.232 88.7517 179.325 87.7341 179.435 88.1406C179.887 87.9728 180.554 87.6768 180.447 87.8814C180.585 87.6959 180.731 87.5554 180.89 87.4422C181.05 87.3276 181.222 87.2362 181.4 87.1353C181.579 87.033 181.765 86.9211 181.949 86.7656C182.042 86.6879 182.134 86.5992 182.226 86.4956C182.317 86.3919 182.402 86.2664 182.488 86.1259C182.609 86.1941 183.227 85.5625 183.271 85.9376C184.1 85.1588 182.921 85.9281 182.898 85.7412C183.171 85.3852 183.534 85.0838 183.934 84.7796C184.33 84.4713 184.778 84.1753 185.24 83.8589C185.71 83.5492 186.165 83.1864 186.612 82.7895C186.835 82.589 187.052 82.3762 187.258 82.1484C187.466 81.9219 187.648 81.6655 187.824 81.3968C188.511 80.562 188.859 80.0109 189.165 79.4517C189.474 78.8951 189.781 78.3673 190.384 77.5816C190.686 77.4097 190.677 77.5884 190.594 77.8135C190.512 78.0399 190.344 78.299 190.344 78.299C190.57 78.1422 190.765 77.9785 190.946 77.8148C191.127 77.6511 191.294 77.4861 191.451 77.3142C191.766 76.9719 192.044 76.6063 192.335 76.1862C192.276 76.4112 192.494 76.3239 192.805 76.1862C193.322 75.5519 192.819 75.4659 193.671 74.7866C193.658 75.0199 193.671 75.3487 193.517 75.7401C193.793 75.3391 194.042 74.9217 194.295 74.5016C194.548 74.0828 194.786 73.6464 195.064 73.2303C195.405 73.173 194.936 73.9096 194.821 74.2738C195.465 73.3476 196.544 71.9249 196.473 71.4243C196.29 71.5825 196.112 71.7449 195.925 71.9004C196.169 71.5757 196.296 71.9331 196.151 72.2046C195.747 73.1171 195.166 73.1853 195.034 73.1417L195.427 72.5469C194.904 72.5837 194.472 73.143 194.051 73.8305C193.617 74.5057 193.184 75.305 192.696 75.8247L192.68 75.0158C192.47 75.4782 192.268 75.9502 192.044 76.4044C191.726 76.5354 191.358 76.4821 191.775 75.9147C190.885 76.474 191.305 76.7058 190.489 77.1369C190.389 77.1751 190.4 77.1246 190.445 77.0455C190.259 77.3238 190.077 77.6061 189.881 77.8776C189.933 77.658 189.489 77.7289 189.968 77.3456C189.237 77.8721 188.807 78.4491 188.466 78.9252C188.129 79.4053 187.857 79.7559 187.473 79.8404L187.556 79.7136C186.732 80.6302 186.757 80.7461 186.864 80.8334C186.917 80.8771 186.989 80.9139 186.986 81.0422C186.981 81.169 186.906 81.3927 186.636 81.7882C186.101 81.8251 185.57 81.8564 185.044 81.8851L185.13 82.3475C185.03 82.4266 184.883 82.5467 184.753 82.6203C184.622 82.6926 184.513 82.7213 184.496 82.6312C183.951 83.4483 184.733 82.6599 184.482 83.211C184.187 83.3392 183.886 83.5465 183.59 83.7825C183.441 83.8998 183.295 84.0253 183.149 84.1481C183.001 84.2681 182.855 84.3867 182.713 84.5013C182.147 84.9556 181.651 85.3116 181.35 85.1397C181.188 85.654 182.417 84.6063 181.511 85.5789C181.152 85.4138 180.867 85.6567 180.53 85.995C180.362 86.1641 180.182 86.3564 179.975 86.531C179.771 86.7083 179.525 86.8502 179.251 86.9416C179.293 86.6988 179.56 86.4723 179.676 86.3468C179.788 86.2145 179.764 86.2104 179.213 86.3837C179.105 86.8174 178.633 87.0916 178.106 87.3317C177.57 87.5595 176.973 87.7354 176.606 88.0287C176.658 88.1365 176.581 88.2701 176.416 88.4175C176.249 88.5593 175.991 88.7189 175.687 88.8922C175.534 88.9767 175.37 89.0681 175.201 89.1622C175.116 89.2086 175.029 89.2564 174.942 89.3055C174.852 89.3505 174.762 89.3955 174.67 89.4419C174.306 89.626 173.937 89.8224 173.601 90.0311C173.605 89.9807 173.439 90.0339 173.154 90.1157C172.87 90.2017 172.474 90.3367 172.036 90.4908C171.82 90.5727 171.582 90.6367 171.346 90.709C171.11 90.7786 170.87 90.8495 170.637 90.9191C170.521 90.9532 170.405 90.9859 170.293 91.0187C170.179 91.0446 170.067 91.0692 169.959 91.0937C169.743 91.1415 169.543 91.1838 169.366 91.2179L169.382 91.1292C169.322 91.3992 168.93 91.642 168.413 91.8166C168.156 91.9094 167.871 91.9967 167.586 92.084C167.298 92.1645 167.007 92.2286 166.745 92.3091C166.732 92.0158 166.901 91.8685 167.44 91.6244C167.112 91.6953 166.784 91.758 166.455 91.8262C166.353 91.9258 166.228 92.0117 166.048 92.0949C165.867 92.1672 165.632 92.2354 165.309 92.3077L165.509 91.9149C165.344 91.9408 165.181 91.9721 165.017 92.0076C164.852 92.0417 164.688 92.0895 164.519 92.1167C164.182 92.1836 163.837 92.2504 163.483 92.32C163.125 92.38 162.751 92.4046 162.36 92.4209C162.262 92.4237 162.164 92.4264 162.063 92.4264C161.963 92.4209 161.862 92.4128 161.76 92.4032C161.555 92.3827 161.346 92.3554 161.134 92.3172C161.075 92.4836 161.409 92.7319 161.533 92.957C161.656 93.1794 161.565 93.3921 160.599 93.4549C160.57 93.3608 160.544 93.2339 160.588 93.1275C160.632 93.0225 160.744 92.9379 160.99 92.9065C160.829 92.9324 160.408 93.017 160.093 92.9065C160.352 92.826 160.606 92.7579 160.858 92.6678C160.077 92.4673 160.423 92.886 159.785 92.7974C159.826 92.5409 159.336 92.5655 159.455 92.3677C159.617 92.365 159.992 92.53 160.243 92.4536C159.534 92.3581 158.712 92.0471 158.474 91.8139C158.508 91.9653 158.41 92.1713 157.894 92.0867C157.234 91.9517 157.14 91.8508 157.119 91.7471C157.1 91.6421 157.151 91.5343 156.797 91.3665C156.62 91.4102 156.339 91.3297 156.087 91.2847C155.834 91.2369 155.616 91.2056 155.543 91.3897C155.17 91.2601 155.162 91.0651 155.056 90.9178C154.877 90.9082 154.603 90.8195 154.296 90.7172C153.99 90.6122 153.649 90.499 153.36 90.3776C152.778 90.1525 152.34 90.0284 152.607 90.3817L152.759 90.4826C152.724 90.4758 152.688 90.4594 152.647 90.4499C151.525 90.1116 150.482 89.4719 149.537 88.7258L149.178 88.4516L148.831 88.1624C148.601 87.9714 148.37 87.7818 148.141 87.5936C147.694 87.2021 147.231 86.8448 146.773 86.4956L146.86 86.3987C145.716 85.6267 144.553 84.4072 143.686 83.8657C143.547 83.7156 143.422 83.5028 143.37 83.3228C143.317 83.1441 143.328 83.0077 143.442 83.0213C142.676 82.3011 142.476 82.3066 141.689 80.9876C142.103 81.3341 142.089 81.2263 142.075 81.184C142.062 81.1404 142.055 81.1554 142.501 81.7214C142.307 81.4405 142.155 81.2126 142.028 81.0012C141.901 80.7911 141.792 80.6098 141.667 80.4338C141.416 80.086 141.129 79.7531 140.55 79.2689C140.835 79.3698 140.762 79.1065 140.575 78.7505C140.391 78.3932 140.074 77.9567 139.855 77.7153C139.964 78.0235 140.085 78.3263 140.201 78.6332C139.739 78.0672 139.416 77.5161 139.083 76.9596L139.642 77.0114C139.11 75.7087 138.275 74.7689 137.545 73.8318C137.173 73.3694 136.842 72.9043 136.578 72.4187C136.322 71.929 136.145 71.4134 136.109 70.8405C135.813 70.5759 135.924 70.9428 136.048 71.3152C136.171 71.6876 136.293 72.0749 135.982 71.8622C135.711 71.277 135.583 70.6059 135.493 70.0453C135.409 69.4819 135.374 69.0222 135.291 68.8408C135.162 68.4193 135.031 68.1275 134.881 67.9051C134.734 67.6814 134.573 67.5259 134.416 67.3636C134.101 67.0417 133.76 66.7129 133.502 65.8222C133.472 65.96 133.382 66.1196 133.217 66.0909C133.056 66.0609 132.807 65.8454 132.498 65.2166C132.399 64.907 132.351 64.6437 132.346 64.4364C132.342 64.2277 132.377 64.0735 132.436 63.9821C132.554 63.798 132.767 63.8608 132.961 64.2222C133.081 64.5073 133.086 64.6628 133.032 64.6696C133.231 65.0406 133.483 65.5262 133.464 64.9902L133.26 64.8893C133.175 64.24 132.587 62.5786 132.965 62.8868C132.522 62.0179 132.587 62.5758 132.745 63.2824C132.586 62.4667 132.388 61.8583 132.19 61.2418C132.088 60.9349 131.991 60.6239 131.898 60.287C131.852 60.1178 131.804 59.9432 131.762 59.7591C131.721 59.5736 131.681 59.3785 131.645 59.1698C131.631 59.4508 131.519 59.7386 131.451 59.4795C131.332 58.8684 131.248 58.5001 131.17 58.2668C131.091 58.0336 131.02 57.9368 130.948 57.8645C130.804 57.7199 130.653 57.683 130.431 56.8632C130.446 55.8552 131.065 57.0842 130.482 55.4283C130.403 54.352 130.836 55.1118 131.054 55.4992C130.405 54.0138 130.537 52.5529 130.346 51.6512L130.688 52.4342C130.484 51.965 130.377 51.5653 130.268 51.1575L130.094 51.7058C130.055 51.4603 130.009 51.2352 129.987 51.0702C129.963 50.9052 129.965 50.7974 130.03 50.7837C129.69 50.3513 129.638 51.2994 129.087 50.4114C129.068 50.0758 128.896 49.6052 128.747 49.1851C128.603 48.7636 128.505 48.3831 128.668 48.2112C129.155 50.2272 129.001 47.8647 129.585 49.5233C129.444 49.211 129.315 48.8181 129.219 48.3271C129.241 48.2425 129.323 48.368 129.386 48.4908C129.324 47.9875 129.247 47.6901 129.158 47.4964C129.065 47.3041 128.96 47.2154 128.846 47.1281C128.614 46.9549 128.342 46.7871 128.009 45.8145C128.319 45.9823 128.263 45.2171 128.101 44.9157C128.382 45.7 127.87 45.4203 127.442 44.7711C127.406 44.6087 127.371 44.4669 127.334 44.3414C127.295 44.2173 127.255 44.1081 127.216 44.0126C127.137 43.8217 127.059 43.6812 126.982 43.5611C126.831 43.3211 126.689 43.1615 126.573 42.8368L126.779 43.5994C126.622 43.5175 126.491 43.3224 126.349 43.0442C126.208 42.7659 126.041 42.4099 125.834 42.0034C125.972 41.8602 126.269 42.7209 126.217 42.3895C125.828 42.0007 125.718 41.4278 125.571 40.8099C125.5 40.5003 125.427 40.1756 125.321 39.8551C125.214 39.5345 125.06 39.2222 124.846 38.9303C124.706 38.266 125.216 38.6834 125.062 38.1105C124.569 37.4571 124.441 37.0383 124.318 36.5991C124.187 36.1653 124.052 35.7179 123.54 35.0332C123.52 35.3224 123.534 35.4779 123.452 35.4465C123.411 35.4315 123.346 35.3701 123.238 35.2569C123.129 35.1451 122.973 34.9841 122.761 34.7631L123.151 35.336L123.526 35.9171C123.775 36.3058 124.031 36.6933 124.267 37.0888C123.87 36.6278 123.445 36.1844 123.036 35.7384C123.23 36.1053 123.481 36.4668 123.707 36.7955C123.925 37.1283 124.118 37.4298 124.206 37.6631C123.598 37.0275 123.709 37.0725 123.654 37.5431C123.615 36.9293 123.282 36.4655 122.93 35.9949C122.583 35.5202 122.18 35.0564 121.997 34.4071L122.688 34.0497C122.332 33.1031 121.785 32.3938 121.161 31.6559C120.54 30.9138 119.846 30.1445 119.162 29.0451L119.539 29.7967C119.311 29.7462 119.072 29.4311 118.813 29.0546C118.544 28.6836 118.257 28.2499 117.954 27.958C118.209 27.8571 117.952 27.3932 117.851 27.0113C117.821 27.0508 117.731 26.9772 117.606 26.8476C117.48 26.7181 117.321 26.5312 117.138 26.3511C116.778 25.9883 116.366 25.6254 116.093 25.7127L115.568 24.6297C114.897 23.8208 114.345 23.5208 113.788 23.2561C113.238 22.982 112.686 22.7419 111.975 22.0462C112.614 22.2345 112.056 21.4843 113.191 22.244C112.942 22.0162 112.715 21.7912 112.532 21.6384C112.345 21.4911 112.206 21.416 112.143 21.4802C112.045 21.2933 111.64 21.0478 111.207 20.7968C110.772 20.5485 110.333 20.2689 110.158 19.9879C109.862 19.9088 109.626 20.0684 109.04 19.6046C109.004 19.5146 109.118 19.5023 109.118 19.5023C109.038 19.6032 108.06 18.9717 108.426 19.5814C107.835 18.6539 106.608 17.8805 105.373 17.2189C104.136 16.5519 102.895 15.9967 102.207 15.3243C102.035 15.2602 101.858 15.1947 101.68 15.1279C101.498 15.0665 101.314 15.0037 101.128 14.9396C100.943 14.8755 100.755 14.8114 100.568 14.7473C100.38 14.6832 100.189 14.6286 100 14.5686C99.6238 14.4499 99.2515 14.3299 98.89 14.2316C98.5299 14.1293 98.1876 14.0216 97.8657 13.9398C97.9694 13.888 97.9065 13.817 98.1412 13.9112C97.2914 13.5429 96.9695 13.6438 96.6217 13.7502C96.2725 13.8552 95.9083 13.9329 94.9276 13.5947C93.9741 12.9631 96.0514 13.6001 95.4376 13.3082C95.3885 12.8608 94.757 12.7476 93.9809 12.6944C93.5935 12.6575 93.1679 12.6521 92.7587 12.6003C92.3495 12.543 91.9511 12.4775 91.6115 12.3138L91.958 12.3002C91.6961 12.2006 91.3974 12.1461 91.07 12.1365C90.7427 12.1283 90.3867 12.1501 90.0116 12.1774C89.6351 12.217 89.2395 12.2634 88.8289 12.292C88.4184 12.3343 87.9914 12.3562 87.5522 12.3425C87.5522 12.3425 87.6367 12.2647 87.5603 12.2129C87.2602 12.3302 86.896 12.4311 86.4922 12.5198C86.0885 12.618 85.6465 12.708 85.1909 12.7912C84.2811 12.9767 83.3182 13.15 82.5066 13.3423C82.9676 12.9249 83.2337 13.0613 82.8681 12.7626C82.1315 12.9263 83.1586 13.2673 81.7087 13.5974C81.4563 13.5524 81.0579 13.5415 80.6951 13.5019C80.3309 13.461 80.0064 13.4091 79.8945 13.2455C80.3556 13.1281 80.8207 13.0354 81.2872 12.9399C80.8862 12.7817 80.425 12.8622 79.9844 13.0231C79.5411 13.1759 79.1088 13.3764 78.7364 13.4364L78.7786 13.2128C78.2508 13.3655 77.862 13.5129 77.5456 13.6697C77.2277 13.8239 76.9755 13.9657 76.7231 14.1158C76.4708 14.2685 76.2142 14.4186 75.8814 14.5741C75.5486 14.7296 75.1476 14.9096 74.5965 15.0965L74.8776 15.1606C74.6225 15.3856 74.4342 15.5153 74.2692 15.5821C74.1042 15.6503 73.9677 15.6612 73.8272 15.6693C73.6881 15.6775 73.5449 15.6789 73.3758 15.7362C73.2066 15.7935 73.0089 15.9026 72.7565 16.1141L72.1945 15.7894C72.0131 15.9026 71.7716 16.0704 71.4865 16.2614C71.3447 16.3569 71.1919 16.4605 71.0323 16.5683C70.8754 16.6801 70.7104 16.7961 70.5413 16.9161C70.3721 17.0334 70.1989 17.1548 70.0243 17.2762C69.8511 17.399 69.6778 17.5231 69.5045 17.6459C69.1594 17.8887 68.8171 18.1178 68.5088 18.3292C68.7762 17.9446 69.2836 17.5149 69.8278 17.0784C70.3816 16.6596 70.9737 16.2382 71.4279 15.9095C71.2383 15.9995 70.9778 16.1141 70.7009 16.2614C70.424 16.4087 70.1212 16.5738 69.8348 16.7415C69.266 17.0853 68.7667 17.444 68.6371 17.6595C68.9072 17.4549 69.2223 17.1425 69.5524 17.0566C69.1963 17.4808 68.7462 17.8873 68.2224 18.3128C67.6932 18.7234 67.0753 19.1585 66.3906 19.6196C66.2337 19.119 65.2775 19.6728 64.2503 20.4571C63.2178 21.236 62.1443 22.244 61.4363 22.4091C60.5061 23.6053 59.5076 24.6897 58.4982 25.8601C57.4915 27.029 56.4794 28.2867 55.5968 29.7803C56.2557 29.4652 56.1248 29.6835 55.9338 30.0081C55.7456 30.3355 55.4973 30.772 55.8983 30.8865C55.5409 31.5972 55.3868 31.855 55.305 31.8918C54.7744 32.5125 54.2547 33.1481 53.7486 33.7974C53.2807 34.2066 53.9341 33.039 53.7431 33.0212C53.3135 33.7906 53.1607 33.9201 53.0161 33.9733C52.8742 34.0265 52.7447 34.0034 52.3955 34.4862C52.7597 34.3949 52.4978 35.2146 51.9904 36.0863C52.2946 35.7057 52.6042 35.3306 52.9166 34.9582C52.5879 36.1572 52.2331 36.5705 51.8621 36.9933C51.5006 37.4162 51.1256 37.8472 50.8719 39.0762L50.925 38.2551C50.7559 38.873 50.3289 39.9656 49.9975 41.0868C49.6619 42.2067 49.4219 43.3497 49.5474 44.0358C49.3919 44.22 49.0932 44.4368 49.2037 43.8885C48.7031 45.3153 48.4111 46.9822 48.1519 48.5535C47.8927 50.1276 47.6636 51.6103 47.2353 52.7138L47.088 52.4506C47.0307 53.0125 47.2559 53.479 46.9312 54.1297C46.8576 54.0792 46.7798 53.8705 46.7211 54.1242C46.7307 54.4298 46.792 55.6492 46.5601 56.3626L46.4469 55.6997C46.0731 57.1251 46.0459 58.2641 46.0868 59.3417C46.1291 60.422 46.2437 61.4423 46.1932 62.6645C45.9054 62.6331 45.6572 63.1856 45.4662 63.8921C45.2739 64.5987 45.1429 65.4594 45.0638 66.035L44.9847 65.99C44.8469 67.7019 44.9233 69.1682 45.0747 70.595C45.2261 72.0231 45.4499 73.4103 45.6586 74.9885C45.4076 75.9924 45.4648 77.6812 45.7349 79.5281C45.8686 80.4529 46.0595 81.4159 46.2914 82.3639C46.5288 83.3133 46.8083 84.2449 47.1684 85.1356C47.0825 84.8505 47.1971 84.826 47.3731 84.9351C47.5463 85.0442 47.7918 85.2843 47.9978 85.553C48.0987 85.7576 48.2625 85.9786 48.478 86.1873C48.5803 86.2923 48.6962 86.3878 48.8381 86.5051C48.9772 86.6087 49.1109 86.707 49.2459 86.7861C49.7711 87.1162 50.2117 87.2171 50.048 87.4517C49.9143 87.4013 49.782 87.3467 49.6552 87.2785C49.8025 87.4995 50.0971 87.7123 50.5009 87.8391C50.6018 87.8733 50.7095 87.8964 50.8227 87.9141C50.9359 87.936 51.0533 87.9428 51.1761 87.9455C51.2989 87.9551 51.423 87.9373 51.5525 87.9223C51.6808 87.906 51.813 87.8896 51.9467 87.8718C52.079 87.8446 52.2113 87.8037 52.345 87.7628C52.4773 87.7177 52.6151 87.6822 52.742 87.614L52.9356 87.5172L53.1103 87.4245L53.1975 87.3767L53.2766 87.3235L53.4336 87.2144C53.5359 87.1408 53.645 87.0671 53.7363 86.988C53.825 86.9075 53.9137 86.827 54.0023 86.7465L54.132 86.6251C54.1715 86.5842 54.207 86.5433 54.2452 86.5024C54.3188 86.4205 54.3911 86.3387 54.4621 86.2596C54.3488 86.04 54.2164 85.8285 54.0787 85.6239C54.1742 85.5475 54.2683 85.4657 54.3637 85.3798C54.4538 85.2925 54.5357 85.2011 54.6203 85.1042C54.7976 84.9119 54.9299 84.7032 55.0772 84.4836C55.3391 84.0444 55.5628 83.5601 55.7155 83.0636C56.0361 82.0692 56.1656 81.023 56.2106 80.045C56.2584 79.0657 56.2311 78.1476 56.2393 77.3661C56.2502 76.9732 56.2544 76.6172 56.2994 76.2994C56.3335 75.9829 56.3976 75.7074 56.4985 75.4796C56.2734 74.7184 56.1779 73.7691 55.9037 73.0394L56.2789 73.0298C56.1779 71.9617 56.0647 71.1652 55.9024 70.314C55.7319 69.4642 55.5082 68.5585 55.0881 67.3008L55.4987 67.7455C55.3991 67.3827 55.2477 67.1071 55.0759 66.878C54.8972 66.6515 54.6952 66.4729 54.4947 66.2996C54.2969 66.1264 54.087 65.9627 53.9042 65.7636C53.8128 65.664 53.7267 65.5549 53.6476 65.4307C53.5658 65.308 53.4935 65.1716 53.4294 65.0161L53.8004 64.4309C53.3148 63.2278 52.8661 61.9879 52.2741 60.8012C51.6849 59.6186 50.9442 58.4892 49.9389 57.608C50.0289 57.5916 50.2034 57.5548 50.4872 57.8862C50.2948 57.6353 50.0453 57.2452 49.7288 56.84C49.5747 56.6341 49.411 56.4213 49.2337 56.218C49.0577 56.0148 48.8871 55.8075 48.703 55.6288C48.5216 55.4474 48.3484 55.2796 48.1833 55.1391C48.0128 55.0041 47.8574 54.8936 47.7223 54.8186C47.4536 54.6672 47.2654 54.6699 47.2285 54.8881C47.3049 54.7899 47.2108 54.6263 47.0062 54.423C46.9025 54.3234 46.777 54.2074 46.6202 54.0983C46.4647 53.9878 46.2888 53.8733 46.1005 53.756C45.338 53.2977 44.3423 52.8925 43.6411 52.6743L44.0095 52.452C43.843 52.4329 43.6998 52.4138 43.5661 52.4056C43.4338 52.3988 43.3151 52.3933 43.2046 52.3878C42.985 52.3783 42.8035 52.3619 42.6099 52.3415C42.4148 52.3237 42.2116 52.2924 41.9551 52.2364C41.8283 52.2051 41.6851 52.1805 41.5228 52.1478C41.3604 52.115 41.1804 52.0755 40.9758 52.0291C40.7903 51.9554 40.7235 51.8654 40.7657 51.8177C40.8067 51.7727 40.9622 51.7617 41.2036 51.89C41.1272 51.8545 41.0563 51.8204 40.9881 51.7945C40.9199 51.7713 40.8571 51.7508 40.797 51.7344C40.6784 51.7003 40.5748 51.6799 40.482 51.6676C40.2951 51.6458 40.1519 51.6472 39.9978 51.6676C39.8437 51.684 39.6827 51.699 39.4644 51.6799C39.2462 51.654 38.9679 51.6226 38.575 51.5271L39.2026 51.3648C38.8602 51.317 38.6092 51.2912 38.4128 51.2803C38.2164 51.2707 38.0758 51.2912 37.9544 51.3144C37.833 51.3389 37.7307 51.3744 37.6134 51.4167C37.4947 51.4603 37.3597 51.5081 37.1742 51.5817C36.9628 51.6199 36.6996 51.6335 36.4172 51.6281C36.1376 51.639 35.8389 51.6321 35.5579 51.609C34.9986 51.5803 34.5048 51.5067 34.378 51.3525C34.3029 51.4685 34.0929 51.6267 33.8078 51.7604C33.666 51.83 33.5009 51.8832 33.3276 51.9404C33.153 51.9977 32.9662 52.0414 32.7684 52.0632C32.6347 51.9663 32.8966 51.8232 33.0316 51.7522C32.7506 51.789 32.486 51.8299 32.2432 51.8872C32.0031 51.9513 31.7795 52.0223 31.5694 52.096C31.4644 52.1328 31.3634 52.1709 31.2638 52.2091C31.167 52.25 31.0728 52.2951 30.9814 52.3374C30.7987 52.4233 30.6254 52.5092 30.459 52.5924C30.3758 52.6347 30.2927 52.6757 30.2122 52.7152C30.1317 52.7575 30.0526 52.7998 29.9735 52.842C29.8152 52.9239 29.6584 53.0016 29.4974 53.0698C29.1728 53.2021 28.8468 53.3318 28.4608 53.404C28.3817 53.3058 28.2643 53.2922 28.1334 53.3113C28.3366 53.2212 28.5344 53.134 28.7253 53.0494C28.9163 52.9648 29.0992 52.883 29.2792 52.8161C29.6366 52.6784 29.9543 52.5515 30.2203 52.456C30.7591 52.2773 31.0716 52.1819 31.0116 52.216C30.9584 52.055 30.5833 52.0809 30.335 52.0455C30.0881 52.0086 29.9653 51.9131 30.4496 51.4957C30.1877 51.6553 29.8794 51.8436 29.5629 52.07C29.2437 52.291 28.8973 52.5161 28.5576 52.7589C28.2139 52.9962 27.8592 53.2186 27.5195 53.4314C27.1772 53.6401 26.8321 53.8092 26.5102 53.9442C26.4352 53.9469 26.3615 53.9496 26.2919 53.9278L26.401 53.8255C26.1009 53.9496 25.8595 54.1133 25.6508 54.2947C25.2388 54.4693 24.9743 54.5771 24.6019 54.7872C24.4587 54.7081 24.0918 54.8949 23.6812 55.1432C23.5789 55.2059 23.4738 55.2714 23.3702 55.3396C23.2679 55.4105 23.1656 55.4801 23.0674 55.5483C22.8696 55.6861 22.6854 55.8143 22.534 55.9098C22.7864 56.1853 21.9871 56.6463 22.8778 56.4226C22.7701 56.4622 22.9637 56.3122 23.3456 56.0421C23.4275 55.9739 23.5284 55.9016 23.5748 55.8443C23.5693 55.8607 23.5611 55.8797 23.5529 55.8975C23.7425 55.7652 23.969 55.6233 24.2159 55.4638C24.4641 55.3055 24.7328 55.1282 25.0315 54.955C24.8365 55.1732 24.6401 55.3983 24.396 55.5947C24.1532 55.7938 23.8544 55.9535 23.4766 56.0858C23.3061 56.4841 23.1137 56.9042 22.995 57.121C21.9216 57.2261 20.256 58.0922 19.8646 58.0063C19.469 58.3746 19.0257 58.7565 18.5851 59.1576C18.1391 59.5518 17.6958 59.965 17.2812 60.3729C16.8651 60.778 16.4927 61.1941 16.1803 61.5842C15.8721 61.9784 15.6375 62.3617 15.5038 62.7109C15.1137 63.176 14.8586 63.0287 14.6172 63.0996C14.8259 62.8104 15.1396 62.5404 15.2146 62.3412C14.4316 63.2769 12.6352 64.8224 12.7757 65.3789C11.5372 66.2792 13.0731 64.4609 11.6381 65.9764L11.7336 65.6722C9.99715 66.8398 9.05733 68.2679 8.09023 69.7138C7.12177 71.1651 6.12741 72.6383 4.26414 74.0187C4.51648 73.8223 4.64061 73.7227 4.74428 73.7268C2.87964 75.5273 1.24277 77.632 -0.364061 79.7395C-1.97499 81.8455 -3.56269 83.9489 -5.37549 85.7712C-6.35896 86.8434 -6.20347 87.1557 -6.54038 88.0055L-7.04644 88.0205L-7.57027 89.5087C-8.06405 90.4717 -8.8033 91.0773 -9.55079 91.7703C-10.2996 92.4605 -11.0553 93.2393 -11.5709 94.5324L-11.1509 94.3988C-11.751 95.1667 -12.7713 97.0218 -12.9322 96.7149C-12.9486 96.824 -12.8818 97.135 -13.2105 97.371L-13.3988 97.2782C-13.748 98.0039 -14.0944 98.731 -14.4368 99.4594C-15.5853 100.922 -14.9688 98.7555 -16.4897 101.001C-16.9766 101.887 -17.5304 103.748 -17.2085 103.502C-16.9821 103.161 -16.5428 102.695 -16.3505 102.781L-16.7515 103.614C-16.5374 103.849 -16.3874 104.195 -16.0996 104.276C-15.8131 104.359 -15.3902 104.176 -14.6059 103.355L-14.0712 101.845L-13.5475 101.589L-14.2499 102.696C-13.6102 102.227 -13.5584 101.698 -13.4083 101.163C-13.2078 101.145 -12.995 101.024 -12.7741 100.8L-12.4085 99.2015C-12.1057 99.1824 -12.3975 100.036 -11.7128 99.2588C-11.5368 98.5113 -12.5449 99.5289 -12.0266 98.4431C-11.3759 97.9807 -11.3118 98.2903 -11.0131 97.4324C-10.8139 97.4201 -10.8357 97.6302 -10.9735 97.9562C-10.6911 97.2046 -9.87002 96.2116 -9.90685 95.6946C-9.18255 95.2513 -8.46503 93.4862 -8.03536 93.8859C-8.00672 93.6062 -7.60978 92.5028 -7.20875 91.9067C-7.30832 92.6419 -6.91003 92.1017 -6.43262 91.4716C-5.95521 90.8414 -5.39731 90.1211 -5.19953 90.4812C-5.13269 89.33 -3.34444 87.5077 -2.57649 85.939C-2.59559 86.0454 -2.62969 86.2555 -2.74699 86.3564C-2.11817 85.6226 -1.8004 85.5135 -1.32708 85.0974C-1.66127 84.6828 -0.830534 83.4251 -0.57546 82.5903C0.551233 81.9724 -0.546793 83.5288 0.0602016 83.5342C-0.306723 83.3215 1.00956 81.6682 0.487131 81.7651C1.29464 81.2536 1.09277 81.2509 1.71749 81.1581C1.31374 80.6275 2.1635 80.4379 2.32991 79.6058C3.40886 78.801 3.00921 79.7299 3.7758 78.5023C4.07043 78.3045 4.05678 78.4873 3.96948 78.7178C3.88218 78.9484 3.72398 79.2307 3.72398 79.2307V79.2403ZM27.8892 55.7979C27.8892 55.7979 27.892 55.8034 27.892 55.8048C27.6424 55.9494 27.431 56.0721 27.2946 56.1512C27.4187 56.0776 27.5891 55.9766 27.8879 55.7979H27.8892ZM30.4264 54.6317C30.2668 54.6876 30.0881 54.7544 29.8985 54.8281C29.7116 54.9113 29.5124 55 29.3078 55.0914C29.166 55.015 29.2082 54.8513 29.4701 54.7422C29.4169 54.8131 29.5492 54.7967 29.747 54.7544C29.9448 54.7121 30.2135 54.6603 30.4249 54.6317H30.4264ZM23.8012 55.1882C24.1763 54.8936 24.3496 54.8704 24.4437 54.9018C24.2568 55.0259 24.0427 55.1746 23.7645 55.3764C23.7604 55.3955 23.7439 55.4242 23.7411 55.4446C23.7411 55.3614 23.7494 55.2782 23.8012 55.1882Z" fill="#477CCA"/>
<path d="M23.3496 56.0538C23.2978 56.0974 23.2745 56.1315 23.2036 56.182C23.3018 56.1561 23.3919 56.1301 23.4819 56.0974C23.5078 56.0333 23.5351 55.9692 23.5569 55.9092C23.4873 55.9583 23.4151 56.0074 23.3496 56.0524V56.0538Z" fill="#477CCA"/>
<path d="M152.612 90.3774L152.562 90.3447C152.6 90.3788 152.635 90.4116 152.652 90.4443C152.623 90.4116 152.628 90.4006 152.612 90.3774Z" fill="#477CCA"/>
<path d="M53.1997 76.2174L53.2924 76.2093L53.1982 75.9746L53.1997 76.2174Z" fill="#477CCA"/>
<path d="M168.046 93.208C168.084 93.2326 168.151 93.249 168.276 93.2462C168.261 93.2244 168.163 93.2162 168.046 93.208Z" fill="#477CCA"/>
<path d="M174.67 90.8588C174.987 90.751 175.306 90.646 175.621 90.5342C175.202 90.6624 174.904 90.766 174.67 90.8588Z" fill="#477CCA"/>
<path d="M124.413 44.0906C124.386 44.0265 124.356 43.9637 124.324 43.9105C124.086 43.5013 124.23 43.7865 124.413 44.0906Z" fill="#477CCA"/>
<path d="M132.6 67.6525C132.436 67.4302 132.27 67.2133 132.129 66.9678C132.269 67.3974 132.402 67.7207 132.6 67.6525Z" fill="#477CCA"/>
<path d="M108.639 22.4869C108.639 22.4869 108.641 22.4841 108.645 22.4841C108.6 22.45 108.562 22.4159 108.515 22.3818C108.557 22.4146 108.597 22.4514 108.638 22.4869H108.639Z" fill="#477CCA"/>
<path d="M131.706 65.8701C131.797 66.3175 131.954 66.6613 132.128 66.9668C132.017 66.6135 131.89 66.1975 131.706 65.8701Z" fill="#477CCA"/>
<path d="M143.285 82.631L143.6 82.4783C143.089 81.9722 143.498 82.5587 143.285 82.631Z" fill="#477CCA"/>
<path d="M137.336 77.5576C137.404 77.8018 137.479 78.0446 137.557 78.2861L138.007 78.4061C137.783 78.1251 137.553 77.8454 137.337 77.5576H137.336Z" fill="#477CCA"/>
<path d="M137.151 72.4713L137.342 72.7264C137.117 72.3922 136.888 72.0607 136.672 71.7197C136.826 71.9734 136.987 72.223 137.15 72.4713H137.151Z" fill="#477CCA"/>
<path d="M103.841 15.6377L103.864 16.1096C104.108 16.1929 104.307 16.1464 104.344 16.04C104.362 15.9868 104.34 15.92 104.261 15.8491C104.183 15.7768 104.048 15.7004 103.839 15.6377H103.841Z" fill="#477CCA"/>
<path d="M74.7732 14.7925C74.6791 14.7721 74.5563 14.7652 74.4185 14.7747C74.2821 14.787 74.1308 14.8143 73.978 14.8566C73.6738 14.9412 73.3628 15.079 73.165 15.2727C73.4788 15.1581 73.8088 15.083 74.0939 15.0094C74.2371 14.9726 74.368 14.9385 74.4826 14.9016C74.5985 14.8689 74.6982 14.8334 74.7732 14.7911V14.7925Z" fill="#477CCA"/>
<path d="M55.4155 84.3426C55.3733 84.5759 55.301 84.8145 55.2314 85.0546C55.316 84.8405 55.4115 84.6236 55.4743 84.4122C55.5438 84.1994 55.6134 83.988 55.6625 83.7793C55.5929 83.9662 55.5056 84.1544 55.4155 84.3412V84.3426Z" fill="#477CCA"/>
<path d="M124.614 127.276L146.069 119.309L148.934 134.088L150.268 140.97L162.215 123.877L185.001 146.102L142.985 203.079L135.994 198.57L124.614 127.276Z" fill="url(#paint0_linear_2220_5349)"/>
<path d="M35.1815 203.695L81.8425 109.529C84.2105 104.749 89.3938 102.046 94.6686 102.839L136.011 109.058C142.076 109.972 146.536 115.217 146.46 121.348L145.196 224.337C145.153 227.932 143.534 231.329 140.768 233.627C138.001 235.926 134.367 236.896 130.824 236.282L44.0819 221.24C43.5922 221.156 43.1108 221.041 42.6402 220.899C39.447 219.939 36.7584 217.709 35.2307 214.699C33.4779 211.243 33.4588 207.165 35.1789 203.694L35.1815 203.695Z" fill="url(#paint1_linear_2220_5349)"/>
<path d="M108.152 100.413C131.434 100.413 150.308 81.539 150.308 58.2571C150.308 34.9753 131.434 16.1016 108.152 16.1016C84.8702 16.1016 65.9966 34.9753 65.9966 58.2571C65.9966 81.539 84.8702 100.413 108.152 100.413Z" fill="url(#paint2_radial_2220_5349)"/>
<path d="M123.119 55.8248C121.676 55.8248 120.227 55.5139 118.808 54.8987C116.991 54.1076 115.891 53.0941 115.844 53.0518L115.595 52.8199L115.636 52.4816C115.659 52.2961 116.243 47.8999 120.426 45.5101C121.097 45.124 121.834 44.8117 122.611 44.5811C129.357 42.5706 132.743 46.8277 132.884 47.0105L133.048 47.2219L133.02 47.4879C133.007 47.6216 132.651 50.8011 129.955 53.2414C128.875 54.2235 127.559 54.9492 126.042 55.3979C125.298 55.6189 124.532 55.7567 123.765 55.8058C123.675 55.8113 123.591 55.8153 123.507 55.8181C123.378 55.8235 123.247 55.8262 123.117 55.8262L123.119 55.8248ZM117.027 52.3002C117.424 52.6126 118.235 53.1923 119.34 53.6724C120.7 54.2631 122.088 54.5345 123.46 54.4813C123.536 54.4786 123.61 54.4745 123.685 54.4704C124.348 54.4281 125.015 54.3094 125.663 54.1157C126.986 53.7243 128.127 53.0968 129.059 52.2511C130.94 50.5474 131.504 48.3759 131.648 47.6216C130.928 46.8564 128.089 44.3424 123.006 45.8579H123.003C122.313 46.0625 121.673 46.3339 121.09 46.6695C118.132 48.3595 117.248 51.299 117.027 52.3002Z" fill="#191919"/>
<path d="M114.036 75.0109L98.4766 73.5596C98.4766 73.5596 103.705 83.1897 109.074 81.9812C114.863 80.6785 114.036 75.0109 114.036 75.0109Z" fill="#191919"/>
<path d="M108.129 82.7549C102.775 82.7549 98.0996 74.2638 97.8909 73.8791L97.2935 72.7783L114.622 74.3947L114.698 74.9144C114.708 74.9772 115.542 81.2108 109.222 82.6335C108.856 82.7153 108.491 82.7549 108.129 82.7549ZM99.7269 74.3484C101.246 76.7545 105.145 82.182 108.929 81.3309C113.108 80.3897 113.444 76.9496 113.414 75.6251L99.7282 74.3484H99.7269Z" fill="#191919"/>
<path d="M97.172 63.8731C96.8337 63.8731 96.4981 63.8554 96.1694 63.8186C92.5561 63.4312 90.3982 61.07 90.3082 60.9691L90.1294 60.7699L90.1377 60.5026C90.1445 60.2721 90.379 54.8295 97.0178 52.493L97.0328 52.4875C97.7844 52.2201 98.5606 52.0415 99.3313 51.9583C104.116 51.429 107.176 54.64 107.304 54.7764L107.537 55.026L107.472 55.3602C107.46 55.4215 107.165 56.8879 106.162 58.597C105.262 60.1275 104.093 61.3565 102.687 62.2485C102.038 62.6605 101.338 63.0001 100.605 63.2593C99.5891 63.6208 98.5633 63.824 97.5594 63.8636C97.4312 63.8691 97.3029 63.8717 97.1747 63.8717L97.172 63.8731ZM91.4962 60.2694C92.0582 60.7945 93.7905 62.2185 96.3126 62.49C96.7027 62.5323 97.1025 62.5473 97.5021 62.5295C98.3724 62.4941 99.2658 62.3168 100.157 62.0003C100.795 61.7752 101.405 61.4793 101.968 61.1219C103.194 60.3444 104.216 59.2682 105.008 57.9219C105.623 56.8756 105.937 55.9358 106.072 55.4515C105.307 54.7736 102.86 52.9145 99.4745 53.2882C98.8061 53.3591 98.1323 53.516 97.4693 53.7506L97.453 53.7561C92.4497 55.5171 91.6299 59.2218 91.4976 60.2694H91.4962Z" fill="#191919"/>
<path d="M116.301 52.5617C116.301 52.5617 117.343 53.5302 119.077 54.2859C120.262 54.8015 121.771 55.2162 123.489 55.1493C125.261 53.5057 126.021 50.9235 125.224 48.4751C124.778 47.1042 123.914 45.9871 122.818 45.2178L122.804 45.2218C122.035 45.4496 121.359 45.747 120.761 46.0907C116.822 48.34 116.304 52.5631 116.304 52.5631L116.301 52.5617Z" fill="#191919"/>
<path d="M123.122 55.7188C121.69 55.7188 120.255 55.4105 118.851 54.8008C117.051 54.0165 115.962 53.0153 115.917 52.973L115.707 52.7766L115.742 52.4915C115.766 52.3074 116.343 47.9615 120.481 45.599C121.147 45.2171 121.874 44.9075 122.643 44.6797H122.646L122.912 44.5938L123.14 44.7533C124.382 45.625 125.288 46.8512 125.759 48.2984C126.595 50.871 125.854 53.7205 123.872 55.5606L123.719 55.7024L123.511 55.7106C123.381 55.7161 123.252 55.7188 123.123 55.7188H123.122ZM116.913 52.3401C117.295 52.6457 118.136 53.2608 119.301 53.7669C120.563 54.3139 121.847 54.5908 123.123 54.5908C123.167 54.5908 123.211 54.5908 123.254 54.5908C124.804 53.0467 125.366 50.7373 124.686 48.6476C124.32 47.5209 123.64 46.5552 122.711 45.8391C122.114 46.0342 121.555 46.2811 121.039 46.5771C117.981 48.3244 117.113 51.388 116.913 52.3401Z" fill="#191919"/>
<path d="M90.8046 60.5233C90.8046 60.5233 92.8397 62.7903 96.2416 63.1545C96.6509 63.1995 97.0805 63.2159 97.5292 63.1982C99.488 61.5722 100.364 58.8592 99.5276 56.2907C99.0979 54.9717 98.2808 53.8873 97.2442 53.1221L97.2374 53.1248C90.9546 55.3373 90.8032 60.5233 90.8032 60.5233H90.8046Z" fill="#191919"/>
<path d="M97.1719 63.7685C96.8377 63.7685 96.5062 63.7508 96.1802 63.7153C92.605 63.332 90.4744 60.9995 90.3844 60.9L90.2344 60.7322L90.2412 60.5071C90.248 60.2793 90.4798 54.9063 97.0518 52.5929L97.0709 52.5861L97.3464 52.4961L97.5797 52.6693C98.7527 53.5355 99.6121 54.7291 100.064 56.1176C100.952 58.8498 100.098 61.7988 97.888 63.6334L97.7407 63.7548L97.5497 63.763C97.4228 63.7685 97.296 63.7712 97.1691 63.7712L97.1719 63.7685ZM91.3883 60.3107C91.919 60.8154 93.6921 62.3131 96.3015 62.5941C96.633 62.6309 96.9728 62.6459 97.3138 62.6404C99.0584 61.0964 99.7172 58.6943 98.9915 56.4655C98.6437 55.396 98.008 54.4658 97.1446 53.7578C92.2818 55.5965 91.507 59.3504 91.3883 60.3107Z" fill="#191919"/>
<path d="M117.973 69.825C117.709 69.825 117.459 69.6667 117.354 69.4076C117.216 69.0652 117.381 68.6765 117.724 68.5373L123.574 66.1734L115.405 61.0065L109.579 43.7474C109.46 43.3982 109.649 43.0189 109.998 42.9003C110.347 42.7829 110.726 42.9699 110.845 43.3191L116.519 60.1294L126.489 66.4353L118.224 69.7759C118.143 69.8086 118.058 69.825 117.975 69.825H117.973Z" fill="#191919"/>
<path d="M162.214 123.877L185.001 146.102C185.001 146.102 197.528 134.744 198.087 129.293C198.648 123.843 199.698 115.768 192.28 108.531C184.861 101.295 176.175 101.508 172.244 105.326C168.313 109.144 162.214 123.877 162.214 123.877Z" fill="url(#paint3_linear_2220_5349)"/>
<path fill-rule="evenodd" clip-rule="evenodd" d="M73.3806 90.5893C80.6244 88.9 87.8667 93.4038 89.556 100.648C91.2453 107.891 86.7414 115.134 79.4977 116.823L79.3459 116.172L79.4977 116.823C73.5793 118.204 67.6627 115.45 64.7742 110.446L36.5785 117.022C36.2019 122.788 32.1137 127.875 26.1953 129.255C18.9515 130.944 11.7092 126.44 10.0199 119.197C8.33062 111.953 12.8345 104.71 20.0782 103.021L20.0782 103.021C26.1087 101.615 32.1349 104.5 34.9618 109.683L62.9805 103.148C63.2217 97.2652 67.3296 92.0249 73.3338 90.602C73.3492 90.5972 73.3648 90.593 73.3806 90.5893ZM73.7299 91.8805C73.7153 91.885 73.7005 91.889 73.6855 91.8925C68.0924 93.1967 64.3125 98.1763 64.306 103.682C64.3057 103.993 64.0917 104.262 63.7894 104.332L34.7601 111.102C34.4579 111.173 34.1469 111.026 34.0093 110.748C31.5671 105.813 25.9749 103.019 20.3818 104.323C13.857 105.845 9.80014 112.368 11.3218 118.893C12.8434 125.418 19.367 129.475 25.8918 127.953L26.0436 128.604L25.8918 127.953C31.3801 126.673 35.1238 121.853 35.266 116.468C35.274 116.164 35.4862 115.904 35.7823 115.835L64.9631 109.03C65.2592 108.961 65.5646 109.1 65.7063 109.369C68.2157 114.135 73.7058 116.802 79.194 115.521L79.1941 115.521C85.719 114 89.7758 107.476 88.2542 100.951C86.7361 94.4415 80.2393 90.3884 73.7299 91.8805Z" fill="#191919"/>
<path d="M98.2985 134.806L75.3254 121.523L68.9171 134.626L63.1036 121.139L35.0591 136.195L55.9561 195.776L67.6418 200.172L98.2985 134.806Z" fill="url(#paint4_linear_2220_5349)"/>
<path d="M63.1044 121.139L35.0599 136.195C35.0599 136.195 26.1636 121.815 27.1335 116.422C28.1033 111.028 29.3256 102.978 38.4564 98.0768C47.5873 93.1745 55.8764 95.7825 58.5977 100.539C61.3189 105.295 63.1044 121.14 63.1044 121.14V121.139Z" fill="url(#paint5_linear_2220_5349)"/>
<path fill-rule="evenodd" clip-rule="evenodd" d="M68.6455 134.016C68.9825 133.866 69.3778 134.017 69.5286 134.354L76.683 150.34C76.8338 150.677 76.6829 151.072 76.346 151.223C76.009 151.374 75.6137 151.223 75.4629 150.886L68.3085 134.9C68.1577 134.563 68.3086 134.167 68.6455 134.016Z" fill="#191919"/>
<path fill-rule="evenodd" clip-rule="evenodd" d="M73.0519 120.346C73.2321 120.024 73.6393 119.909 73.9615 120.089L92.7021 130.569C93.0243 130.749 93.1394 131.156 92.9592 131.479C92.7791 131.801 92.3718 131.916 92.0496 131.736L73.3091 121.256C72.9869 121.076 72.8718 120.668 73.0519 120.346Z" fill="#191919"/>
<path d="M148.934 134.087L124.198 147.182L116.757 122.126L142.532 115.363L146.461 121.349L148.934 134.087Z" fill="url(#paint6_linear_2220_5349)"/>
<path fill-rule="evenodd" clip-rule="evenodd" d="M146.178 138.607C146.547 138.612 146.842 138.915 146.837 139.284L145.845 209.971C145.84 210.34 145.536 210.635 145.167 210.63C144.798 210.625 144.503 210.322 144.508 209.953L145.5 139.265C145.505 138.896 145.809 138.601 146.178 138.607Z" fill="#191919"/>
<path fill-rule="evenodd" clip-rule="evenodd" d="M101.814 101.197C102.181 101.159 102.51 101.426 102.548 101.793L101.883 101.862L101.218 101.931C101.18 101.564 101.447 101.235 101.814 101.197ZM133.081 105.028C133.748 105.073 133.748 105.074 133.748 105.074L133.747 105.081L133.746 105.1C133.745 105.117 133.743 105.142 133.741 105.176C133.736 105.242 133.728 105.339 133.718 105.465C133.697 105.718 133.666 106.088 133.621 106.557C133.531 107.494 133.389 108.829 133.178 110.423C132.757 113.607 132.061 117.837 130.962 121.998C129.866 126.145 128.354 130.283 126.273 133.243C124.187 136.212 121.42 138.127 117.866 137.443C114.408 136.778 111.676 134.098 109.531 130.648C107.377 127.184 105.741 122.828 104.516 118.59C103.29 114.345 102.466 110.182 101.948 107.084C101.69 105.534 101.507 104.248 101.39 103.349C101.331 102.899 101.288 102.546 101.26 102.304C101.246 102.184 101.235 102.091 101.228 102.028C101.225 101.997 101.222 101.973 101.221 101.956L101.219 101.938L101.218 101.931C101.218 101.931 101.218 101.931 101.883 101.862C102.548 101.793 102.548 101.793 102.548 101.793L102.548 101.798L102.55 101.814C102.551 101.829 102.554 101.852 102.557 101.882C102.564 101.942 102.574 102.032 102.588 102.15C102.615 102.385 102.657 102.732 102.715 103.175C102.831 104.061 103.011 105.331 103.267 106.864C103.779 109.931 104.593 114.039 105.8 118.219C107.01 122.405 108.605 126.628 110.666 129.942C112.736 133.27 115.204 135.569 118.118 136.13C120.937 136.673 123.242 135.231 125.179 132.475C127.123 129.71 128.586 125.755 129.669 121.656C130.749 117.57 131.436 113.401 131.853 110.247C132.061 108.672 132.202 107.353 132.29 106.429C132.334 105.967 132.365 105.604 132.385 105.357C132.395 105.234 132.403 105.139 132.407 105.076C132.41 105.044 132.412 105.021 132.413 105.005L132.414 104.987L132.414 104.983L132.414 104.982C132.414 104.982 132.414 104.982 133.081 105.028ZM133.081 105.028L133.748 105.073C133.773 104.705 133.495 104.386 133.127 104.361C132.759 104.336 132.44 104.614 132.414 104.982L133.081 105.028Z" fill="#191919"/>
</g>
<defs>
<linearGradient id="paint0_linear_2220_5349" x1="166.901" y1="192.396" x2="139.55" y2="106.118" gradientUnits="userSpaceOnUse">
<stop stop-color="#FFC895"/>
<stop offset="1" stop-color="#B5EADD"/>
</linearGradient>
<linearGradient id="paint1_linear_2220_5349" x1="51.2179" y1="162.362" x2="149.166" y2="173.864" gradientUnits="userSpaceOnUse">
<stop stop-color="#EE783C"/>
<stop offset="1" stop-color="#FFC895"/>
</linearGradient>
<radialGradient id="paint2_radial_2220_5349" cx="0" cy="0" r="1" gradientUnits="userSpaceOnUse" gradientTransform="translate(104.978 38.5537) rotate(-177.94) scale(66.3127 66.3126)">
<stop stop-color="#FFC895"/>
<stop offset="1" stop-color="#B5EADD"/>
</radialGradient>
<linearGradient id="paint3_linear_2220_5349" x1="198.443" y1="178.812" x2="172.723" y2="97.6806" gradientUnits="userSpaceOnUse">
<stop stop-color="#FFC895"/>
<stop offset="1" stop-color="#B5EADD"/>
</linearGradient>
<linearGradient id="paint4_linear_2220_5349" x1="41.4904" y1="182.857" x2="88.6514" y2="112.008" gradientUnits="userSpaceOnUse">
<stop stop-color="#FFC895"/>
<stop offset="1" stop-color="#B5EADD"/>
</linearGradient>
<linearGradient id="paint5_linear_2220_5349" x1="13.0439" y1="163.921" x2="60.2049" y2="93.0716" gradientUnits="userSpaceOnUse">
<stop stop-color="#FFC895"/>
<stop offset="1" stop-color="#B5EADD"/>
</linearGradient>
<linearGradient id="paint6_linear_2220_5349" x1="55.933" y1="122.2" x2="153.881" y2="133.702" gradientUnits="userSpaceOnUse">
<stop stop-color="#EE783C"/>
<stop offset="1" stop-color="#FFC895"/>
</linearGradient>
</defs>
</svg>
