<svg width="178" height="177" viewBox="0 0 178 177" fill="none" xmlns="http://www.w3.org/2000/svg">
<mask id="mask0_2284_859" style="mask-type:luminance" maskUnits="userSpaceOnUse" x="0" y="0" width="178" height="177">
<path d="M89.0001 177C137.877 177 177.5 137.377 177.5 88.5C177.5 39.6228 137.877 0 89.0001 0C40.1229 0 0.5 39.6228 0.5 88.5C0.5 137.377 40.1229 177 89.0001 177Z" fill="white"/>
</mask>
<g mask="url(#mask0_2284_859)">
<path d="M216.361 -21.3144H-31.2622V230.281H216.361V-21.3144Z" fill="white"/>
<path d="M144.764 69.1387L144.735 69.6666C144.757 69.522 144.765 69.3406 144.764 69.1387Z" fill="#477CCA"/>
<path d="M177.409 39.2813C177.123 39.0999 176.991 39.0495 176.952 39.0822C177.222 39.2281 177.445 39.3564 177.409 39.2813Z" fill="#477CCA"/>
<path d="M144.764 69.1386L144.917 67.7896C144.776 67.69 144.804 68.4784 144.764 69.1386Z" fill="#477CCA"/>
<path d="M153.209 89.3748L153.465 89.6967C153.577 89.7608 153.7 89.8086 153.821 89.8468C153.61 89.6954 153.412 89.533 153.209 89.3734V89.3748Z" fill="#477CCA"/>
<path d="M165.966 100.874C165.652 100.641 165.327 100.871 165.113 100.915C165.381 100.92 165.664 101.019 165.964 101.189C166.009 101.135 166.014 101.036 165.966 100.874Z" fill="#477CCA"/>
<path d="M147.119 78.8277C147.16 78.7813 147.185 78.7076 147.19 78.6367C147.146 78.653 147.126 78.7254 147.119 78.8277Z" fill="#477CCA"/>
<path d="M27.2505 62.7365C27.2219 62.742 27.2192 62.7665 27.1987 62.7774C27.2888 62.832 27.3283 62.8402 27.2505 62.7365Z" fill="#477CCA"/>
<path d="M41.3932 76.6367L41.1328 76.5263C41.0755 76.5754 41.0168 76.6231 40.9868 76.6845L41.3932 76.6367Z" fill="#477CCA"/>
<path d="M78.5326 95.6042C78.654 96.0025 78.6117 96.0693 78.493 95.9779C78.3757 95.8865 78.1752 95.6437 78.0047 95.4105C77.6568 94.9522 77.3472 94.5811 77.7332 95.7883C77.7414 95.6533 78.1383 96.0884 78.4329 96.3121C78.7276 96.5372 78.92 96.5522 78.5312 95.6042H78.5326Z" fill="#477CCA"/>
<path d="M77.7333 95.7881H77.7305C77.7564 95.8727 77.7905 95.9518 77.8205 96.0337C77.7837 95.9314 77.7619 95.8754 77.7333 95.7881Z" fill="#477CCA"/>
<path d="M167.35 94.2125C167.448 94.1961 167.581 94.1129 167.716 94.0242C167.679 94.0092 167.587 94.0461 167.35 94.2125Z" fill="#477CCA"/>
<path d="M158.191 105.231C157.911 105.477 157.786 105.529 157.464 105.923C157.51 105.902 157.552 105.879 157.604 105.845C157.697 105.679 157.854 105.492 158.191 105.23V105.231Z" fill="#477CCA"/>
<path d="M147.048 115.003C147.129 114.982 147.224 114.937 147.313 114.904C147.428 114.812 147.561 114.706 147.68 114.612L147.05 115.005L147.048 115.003Z" fill="#477CCA"/>
<path d="M34.1758 49.9092C34.199 49.5818 34.2399 49.3663 34.3026 49.1862C34.2112 49.3295 33.9807 48.9134 33.8757 48.7634C33.8225 48.687 33.8007 48.6774 33.8416 48.8329C33.862 48.9107 33.8989 49.0307 33.9548 49.2053C34.008 49.3799 34.0952 49.6064 34.1743 49.9078L34.1758 49.9092Z" fill="#477CCA"/>
<path d="M159.839 107.718C159.258 108.278 158.671 108.834 158.078 109.383C158.59 108.937 159.232 108.333 159.839 107.718Z" fill="#477CCA"/>
<path d="M49.9374 43.5921L49.876 44.09C49.9251 43.9045 49.951 43.7285 49.9374 43.5921Z" fill="#477CCA"/>
<path d="M152.758 114.262C152.338 114.439 151.936 114.675 151.532 114.933C151.472 115.019 151.396 115.109 151.37 115.184C151.836 114.882 152.297 114.571 152.757 114.26L152.758 114.262Z" fill="#477CCA"/>
<path d="M34.3059 49.1803L34.3032 49.1857C34.3032 49.1857 34.3059 49.1857 34.3059 49.1803Z" fill="#477CCA"/>
<path d="M25.6688 41.0387C26.0494 40.9459 26.2744 40.8996 26.4136 40.8396C26.5513 40.7823 26.6031 40.71 26.6154 40.6336C26.6454 40.4781 26.5022 40.2871 26.6836 40.148C27.206 40.1112 27.5184 40.1944 27.6998 40.2667C27.8812 40.3431 27.9331 40.4222 27.9426 40.4999C27.9508 40.5763 27.9181 40.65 27.9153 40.7332C27.9126 40.8164 27.9399 40.9023 28.0504 41.0196C28.5756 41.1683 29.1088 41.3674 29.6053 41.658C30.1018 41.9458 30.5533 42.3127 30.8889 42.7751C30.8766 42.8924 30.9816 43.0875 30.7484 42.9374C30.9066 43.0697 31.069 43.2334 31.2327 43.4271C31.3991 43.6181 31.556 43.8473 31.7224 44.0819C31.8042 44.2019 31.8874 44.3233 31.9733 44.4474C32.0525 44.5756 32.1303 44.7093 32.2094 44.843C32.2885 44.978 32.3675 45.1144 32.4466 45.2508C32.4862 45.3204 32.5271 45.3886 32.5653 45.4582L32.6759 45.6723C32.8205 45.9601 32.9773 46.2439 33.1192 46.5317C33.2556 46.8222 33.3946 47.1073 33.5378 47.3815C33.6729 47.6597 33.7998 47.9312 33.9376 48.1835C34.0795 48.4345 34.2035 48.6759 34.3386 48.8942C34.344 49.0483 34.3276 49.1315 34.3045 49.1779C34.4368 48.7973 34.655 48.6678 34.8433 48.6773C34.9224 48.9133 35.0165 49.1356 35.1106 49.3429C35.1938 49.5544 35.277 49.7522 35.3452 49.9336C35.4134 50.115 35.468 50.2814 35.4912 50.4287C35.5103 50.5774 35.4953 50.7083 35.4394 50.8188C35.408 50.6702 35.378 50.5556 35.3425 50.4669C35.3057 50.3782 35.2688 50.3128 35.2306 50.2582C35.1556 50.1491 35.0792 50.0836 34.9933 49.9595L35.1979 50.441C35.2661 50.6019 35.3207 50.767 35.3821 50.9307C35.2607 51.4367 35.1447 51.0985 35.0192 50.6497C34.8787 50.2037 34.7095 49.6471 34.55 49.6949C34.7164 50.1641 34.9129 50.6483 35.0697 51.1503C35.2484 51.6468 35.3847 52.1583 35.5225 52.6589C35.5934 52.9085 35.6358 53.1595 35.6877 53.4037C35.7109 53.5264 35.7353 53.6479 35.7585 53.7665C35.7694 53.8211 35.779 53.8756 35.7885 53.9288C35.794 53.9684 35.8008 54.0093 35.8062 54.0475C35.8458 54.3653 35.8827 54.6736 35.8486 54.9137C35.7326 54.8932 35.6644 54.7323 35.6125 54.5522C35.5566 54.3694 35.5239 54.1553 35.4939 53.9752C35.4816 53.9057 35.4693 53.8388 35.4584 53.7761C35.4448 53.701 35.4311 53.6328 35.4189 53.5728C35.3943 53.4514 35.3712 53.3641 35.348 53.3314C35.3043 53.2618 35.2661 53.4119 35.2293 53.9193C35.2061 53.5333 35.1951 53.1377 35.1638 52.7476C35.1215 52.3588 35.0928 51.9646 35.0383 51.5745C34.9578 52.0506 34.8855 52.1965 34.8446 52.1801C34.801 52.1638 34.7751 51.9851 34.7464 51.8009C34.67 51.4354 34.5896 51.063 34.3918 51.9278C34.4396 52.3016 34.4886 52.633 34.5377 52.9317C34.5745 53.2332 34.6087 53.5033 34.6483 53.7515C34.6578 53.8143 34.6674 53.8743 34.6769 53.9343L34.6892 54.0066C34.6919 54.023 34.6933 54.0189 34.6946 54.0257C34.7014 54.0434 34.7082 54.0611 34.715 54.0789C34.7327 54.1198 34.7491 54.1594 34.7655 54.1975C34.7969 54.2848 34.831 54.3926 34.8446 54.5154C34.8569 54.6354 34.8514 54.7759 34.805 54.8632C34.9264 55.1933 35.0138 55.4034 35.1106 55.578C35.2047 55.7635 35.303 55.9122 35.4053 56.3623C35.4189 56.6174 35.423 56.8438 35.4107 57.0279C35.3957 57.2121 35.3725 57.3553 35.3452 57.4535C35.3356 57.4876 35.3261 57.5162 35.3166 57.5408L35.3084 57.5585C35.3084 57.5585 35.2947 57.5422 35.2879 57.534C35.2729 57.5122 35.2579 57.4903 35.2429 57.4685C35.1842 57.3798 35.1284 57.2871 35.0752 57.1902C34.9674 56.9993 34.8787 56.7947 34.805 56.5901C34.73 56.3868 34.666 56.1849 34.6142 55.9953C34.5637 55.803 34.5227 55.623 34.49 55.4634C34.4218 55.1428 34.389 54.9028 34.3549 54.7882C34.3358 54.7309 34.3195 54.7009 34.2895 54.6968C34.2582 54.6913 34.2199 54.7091 34.1517 54.7254C34.0316 54.8455 33.8516 55.001 33.6565 54.9109C33.5651 54.8646 33.4561 54.7582 33.3811 54.5699C33.362 54.5249 33.3456 54.4785 33.3292 54.4267C33.3156 54.383 33.3019 54.3394 33.2882 54.293C33.2732 54.2412 33.2569 54.188 33.246 54.1321C33.1983 53.9084 33.1505 53.6574 33.1137 53.375C33.3429 53.5837 33.5761 53.7815 33.8039 53.9752C33.4342 52.5921 33.2282 52.2047 32.9964 51.7996C32.8941 51.5936 32.7986 51.3794 32.7236 51.0207C32.6935 50.8393 32.6691 50.6224 32.6527 50.3523C32.635 50.0823 32.6471 49.7563 32.6621 49.3634C32.7808 49.6362 32.8518 50.2173 32.9323 50.6674C32.95 50.7807 32.9663 50.8857 32.98 50.9757C32.9963 51.0657 33.0128 51.1407 33.0237 51.1953C33.0482 51.3044 33.0604 51.329 33.0604 51.2171C33.0713 50.9648 33.0877 50.752 33.0877 50.5733C33.0891 50.3946 33.0782 50.2487 33.0646 50.1245C33.04 49.8749 32.9814 49.7167 32.9104 49.5721C32.8382 49.4275 32.759 49.2966 32.6962 49.1029C32.6649 49.006 32.6363 48.8942 32.6131 48.7564C32.6022 48.6882 32.5927 48.6132 32.5845 48.5313C32.5804 48.4495 32.5776 48.3595 32.5776 48.2613L33.0263 47.9394C33.0168 47.1496 33.021 46.3339 33.0619 45.4977C33.0742 45.079 33.1095 44.6561 33.1341 44.2292C33.1723 43.8022 33.2038 43.3712 33.2556 42.9374C33.2979 42.5023 33.3619 42.0672 33.4192 41.628C33.4887 41.1901 33.5529 40.7481 33.6375 40.3076C33.7984 39.425 33.9948 38.5398 34.2321 37.6627C34.3031 37.8946 34.2649 38.5248 34.6332 37.7527C34.8978 36.6492 35.247 35.5103 35.6494 34.3986C36.0559 33.2924 36.5442 32.2066 37.1103 31.1876C37.675 30.1701 38.3202 29.2193 39.0322 28.4118C39.7415 27.6016 40.5163 26.9332 41.2979 26.4708C41.6035 26.1025 41.9431 25.7615 42.3236 25.4573C42.4737 25.3891 42.6333 25.385 42.7125 25.4096C42.7916 25.4355 42.7928 25.501 42.6482 25.5951C42.9811 25.5037 43.1516 25.4723 43.2225 25.426C43.2948 25.385 43.273 25.3523 43.2253 25.3127C43.1339 25.2418 42.9265 25.1518 43.2457 24.9895C43.3453 24.9622 43.438 24.9417 43.5226 24.9267C43.6072 24.9158 43.6849 24.9117 43.7517 24.9103C43.8868 24.9076 43.9837 24.9253 44.0396 24.9594C44.0955 24.9908 44.1092 25.0304 44.0792 25.0727C44.0491 25.1149 43.9741 25.1572 43.8568 25.2104C44.0028 25.1586 44.1637 25.1327 44.3314 25.0904C44.4992 25.0618 44.678 25.0345 44.8621 25.0099C44.9549 25.0045 45.0476 24.9976 45.1431 24.9908C45.1908 24.9881 45.24 24.984 45.2877 24.9813C45.3355 24.9813 45.3845 24.9826 45.4336 24.984C45.5318 24.9854 45.6328 24.9867 45.7337 24.9895C45.8347 24.999 45.937 25.0099 46.0393 25.0195C46.0911 25.0249 46.1429 25.0304 46.1961 25.0345C46.2479 25.044 46.2998 25.0536 46.3517 25.0645C46.4553 25.0849 46.5631 25.1013 46.6695 25.1259C46.8795 25.1845 47.0964 25.2364 47.3091 25.3209C47.4169 25.3591 47.5247 25.3959 47.6298 25.4478C47.7348 25.4969 47.8426 25.5405 47.9476 25.5937C48.1549 25.7056 48.3664 25.8161 48.5669 25.9525L48.7195 26.0493C48.77 26.0834 48.8178 26.1216 48.8669 26.1571C48.9637 26.2307 49.0647 26.3003 49.1602 26.3767C49.3484 26.5349 49.538 26.6904 49.7113 26.8664C49.8927 27.0314 50.0523 27.2197 50.2173 27.397C50.2951 27.4911 50.3715 27.5852 50.4479 27.6793C50.5256 27.7707 50.5979 27.8676 50.6661 27.9644C51.2294 28.7351 51.6413 29.5426 51.8841 30.2628L51.5118 29.799C51.9879 30.8562 52.408 31.3909 52.8009 31.9447C53.1841 32.4958 53.5387 33.0755 53.6165 34.2103C53.5606 34.0767 53.5115 33.9416 53.4501 33.8093C53.5879 34.4477 53.7038 35.0983 53.7898 35.7544C53.8089 35.9181 53.832 36.0831 53.8484 36.2468L53.8947 36.742C53.9166 37.083 53.9398 37.4254 53.9616 37.7677C54.0339 39.1359 54.0353 40.5067 53.9548 41.8339C53.8784 43.1612 53.6998 44.4433 53.4488 45.6287C53.3819 45.9247 53.3273 46.2166 53.2468 46.4989C53.1704 46.7813 53.0927 47.0582 53.0136 47.3283C52.9331 47.5983 52.8376 47.8575 52.7489 48.1099C52.6575 48.3622 52.5676 48.6091 52.4612 48.8423C52.629 49.2843 52.2238 50.5501 51.7519 51.7246C51.7218 51.7955 51.7014 51.85 51.6755 51.9032C51.651 51.9578 51.6291 52.011 51.6087 52.0642C51.5664 52.1706 51.5377 52.277 51.5118 52.3888C51.4641 52.6112 51.4532 52.8867 51.5227 53.2318C51.3822 53.3859 51.2813 53.4582 51.2281 53.4473C51.2144 53.4555 51.2008 53.4623 51.1885 53.4691L51.1789 53.4732C51.1789 53.4732 51.1735 53.4801 51.168 53.4664C51.1585 53.4487 51.1504 53.4323 51.1422 53.416C51.1094 53.3505 51.078 53.2891 51.0493 53.2304C50.992 53.1159 50.9512 53.0109 50.9144 52.9167C50.8394 52.7299 50.7929 52.5702 50.7465 52.4147C50.7029 52.2592 50.6606 52.1065 50.6292 51.9428C50.621 51.9019 50.6129 51.861 50.6075 51.82C50.6007 51.7764 50.5979 51.745 50.5843 51.6809C50.5788 51.6523 50.5734 51.6236 50.5679 51.5936L50.5638 51.5718C50.5638 51.5718 50.5637 51.5663 50.561 51.5581L50.5515 51.5268C50.5393 51.4858 50.5269 51.4436 50.5146 51.4013C50.4901 51.3167 50.4643 51.2281 50.437 51.138C50.4111 51.0466 50.3892 50.9511 50.3646 50.8529C50.2896 50.6088 50.2132 50.3973 50.1095 50.205C50.0182 50.0072 49.9035 49.8272 49.7985 49.6321C49.5816 49.2434 49.3593 48.8028 49.2625 48.1317L49.6649 48.0676C49.478 47.4865 49.3252 46.8809 49.2188 46.2589C49.3988 45.9397 49.5858 45.6314 49.7849 45.334C49.7958 44.9194 49.83 44.5034 49.875 44.086C49.7549 44.5688 49.523 45.1062 49.4179 45.0162C49.4357 44.517 49.5353 43.9687 49.6813 43.4367C49.8272 42.9047 50.0359 42.3946 50.246 41.9553C50.6797 41.0796 51.1421 40.5108 51.2471 40.5367C51.3153 40.3594 51.3849 40.1807 51.4627 40.0075L51.5759 39.7442L51.7042 39.481C51.876 39.1304 52.0397 38.7717 52.2389 38.432L52.5266 37.9137C52.6275 37.7432 52.7354 37.5768 52.8404 37.4076C52.9468 37.2398 53.0477 37.068 53.1596 36.9016L53.5019 36.4078C53.5319 36.5006 53.4323 36.712 53.2877 36.9684C53.1459 37.2262 52.9767 37.5413 52.8335 37.8209C52.9767 37.5372 53.094 37.3203 53.1909 37.1567C53.2877 36.993 53.3778 36.8879 53.4433 36.8143C53.5797 36.6683 53.6533 36.6629 53.7242 36.6642C53.8729 36.667 53.9739 36.6833 54.6027 35.6917C54.3286 35.8649 54.5332 35.4025 54.5114 35.307C54.761 35.1365 55.0583 34.8855 55.3939 34.5909C55.7417 34.3058 56.1072 33.958 56.5164 33.6115C56.9133 33.2555 57.3431 32.894 57.7577 32.5285C57.9692 32.3484 58.1792 32.1711 58.3838 31.9965C58.5857 31.8192 58.7875 31.6514 58.9826 31.4891L58.8448 31.9433C60.2975 30.8671 61.8661 29.7527 63.5412 28.6519C63.7512 28.5155 63.9627 28.3777 64.1742 28.2399C64.387 28.1008 64.5956 27.9672 64.7948 27.8444C65.1944 27.5961 65.5654 27.3942 65.9064 27.2538C66.246 27.116 66.5407 27.0532 66.7985 27.0491C67.0822 27.0532 67.321 27.1037 67.5502 27.2237C67.4015 27.1105 67.2951 27.026 67.2255 26.9427C67.1573 26.8636 67.134 26.7791 67.1613 26.7136C67.2091 26.584 67.5024 26.479 67.8966 26.6563C67.9116 26.7491 67.9224 26.8391 67.9293 26.925C67.9347 27.0151 67.9361 27.1051 67.9347 27.1883C68.0698 27.2101 68.1108 27.1883 68.1012 27.1378C68.0971 27.1133 68.0807 27.0819 68.0602 27.0491C68.0384 27.0191 68.0125 26.9864 67.9907 26.9578C67.947 26.895 67.9116 26.85 67.9607 26.8296C67.9853 26.8186 68.0289 26.82 68.1026 26.8377C68.1776 26.8514 68.2813 26.8882 68.4245 26.9578C68.6387 27.1637 68.7423 27.356 68.7805 27.4829C68.8173 27.6152 68.7901 27.6848 68.726 27.7107C68.5964 27.7639 68.3277 27.6275 68.0781 27.4925C68.3959 27.7284 68.715 28.0872 68.9837 28.525C68.9469 28.5932 68.8718 28.5551 68.7859 28.5019C68.6973 28.4514 68.5964 28.3873 68.505 28.3914C68.6318 28.4828 68.7504 28.6778 68.8445 28.9506C68.94 29.2207 69.0123 29.5603 69.071 29.915C69.1924 30.6284 69.2429 31.3936 69.5103 31.8587L69.3901 31.961C69.397 32.0729 69.4052 32.182 69.4093 32.2898C69.4134 32.3975 69.4189 32.4985 69.4202 32.6267C69.4257 32.8681 69.4311 33.1027 69.4352 33.3292C69.4406 33.5556 69.4474 33.7766 69.4529 33.9907C69.4556 34.2049 69.4597 34.4136 69.4625 34.6168C69.4693 35.0233 69.4762 35.4093 69.4817 35.7817C69.4857 36.1555 69.4884 36.5142 69.4911 36.8688C69.4966 38.2861 69.4939 39.6092 69.4093 41.3142C69.7776 41.4002 69.618 42.7301 69.8472 43.7695C69.5594 46.278 69.0355 49.0456 68.82 52.0983C68.8323 54.2562 69.0833 52.749 69.2266 53.7311C68.8746 53.8606 68.6836 56.9202 68.5581 55.3174C68.4531 57.1575 68.3972 58.336 68.374 59.6414C68.3699 59.9674 68.3672 60.3016 68.3631 60.6549C68.3658 61.0096 68.3685 61.3846 68.3712 61.7911C68.374 62.1976 68.3876 62.6382 68.4012 63.1224C68.4094 63.3652 68.4177 63.6176 68.4259 63.8849C68.4381 64.1509 68.4518 64.4305 68.4654 64.7238C68.6086 64.2164 68.6754 63.6462 68.7872 63.9436C68.8104 64.3678 68.7696 64.8507 68.7041 65.2121C68.6373 65.5736 68.5541 65.815 68.4709 65.7537L68.434 65.5286C68.6877 68.1626 68.5499 71.2057 68.6781 74.1561C68.6986 74.8927 68.7573 75.6211 68.8119 76.3331C68.8419 76.6891 68.8869 77.0397 68.9278 77.3848C68.9714 77.7299 69.0111 78.0709 69.0724 78.401C69.1897 79.0639 69.3097 79.6996 69.4843 80.2888C69.5675 80.5848 69.6548 80.8699 69.7475 81.1441C69.843 81.4169 69.9536 81.676 70.0627 81.9243L69.9672 81.7019L70.341 82.7482L70.7406 83.7685L71.1402 84.786L71.3408 85.2935L71.5549 85.7968C72.1291 87.7201 70.9356 84.7301 71.2029 86.2074C71.4553 86.7462 71.6804 87.2604 71.8823 87.7542C72.0978 88.2452 72.2956 88.7158 72.4743 89.1728C72.5643 89.4006 72.6503 89.6257 72.7335 89.848C72.7744 89.9585 72.8153 90.069 72.8562 90.1781C72.8998 90.2858 72.9422 90.3936 72.9845 90.5013C73.1522 90.9296 73.3119 91.347 73.466 91.7603C74.0894 93.4095 74.7276 94.9577 75.767 96.6204C75.7916 96.8196 75.8434 97.0269 75.9089 97.2452C75.973 97.4648 76.0522 97.6953 76.1449 97.9367C76.2363 98.1781 76.34 98.4291 76.4559 98.6883C76.5132 98.8179 76.5732 98.9502 76.6359 99.0839C76.7055 99.2148 76.7751 99.3471 76.8474 99.4822C77.1393 100.021 77.4625 100.588 77.8172 101.167C78.1909 101.734 78.5879 102.317 78.9903 102.905C79.4118 103.48 79.8551 104.052 80.2807 104.623C80.3857 104.768 80.4975 104.906 80.6121 105.042C80.724 105.18 80.8359 105.316 80.9463 105.453C81.166 105.727 81.3828 105.997 81.5956 106.263C81.8016 106.534 82.0239 106.785 82.2326 107.038C82.4413 107.289 82.6432 107.537 82.8341 107.78C83.2079 108.275 83.5803 108.717 83.8845 109.148V108.812C84.797 109.419 84.6824 109.846 85.2348 110.423C85.2757 110.214 84.5309 109.475 85.1052 109.839C85.528 110.214 85.9537 110.592 86.3806 110.971C86.588 111.167 86.8144 111.342 87.0354 111.524C87.2563 111.705 87.4773 111.888 87.6983 112.069C87.9207 112.251 88.1376 112.439 88.3626 112.618C88.5918 112.791 88.8209 112.966 89.0514 113.139C89.2806 113.313 89.5097 113.489 89.7402 113.664L90.0854 113.927L90.4413 114.176C90.916 114.508 91.3921 114.841 91.8696 115.175C92.3606 115.489 92.8516 115.803 93.344 116.117C93.8296 116.444 94.3452 116.718 94.8499 117.017L95.6111 117.459C95.7366 117.535 95.8661 117.603 95.9971 117.67L96.3873 117.873C96.9083 118.144 97.4253 118.423 97.9504 118.686L99.5463 119.435L99.946 119.622C100.08 119.682 100.216 119.737 100.351 119.794L101.164 120.134C101.707 120.359 102.246 120.595 102.798 120.786C103.349 120.988 103.899 121.188 104.449 121.39C105.002 121.577 105.559 121.747 106.114 121.925C106.392 122.012 106.671 122.099 106.948 122.187C107.227 122.263 107.507 122.339 107.786 122.416C108.347 122.566 108.906 122.714 109.463 122.863C111.109 123.23 111.636 123.027 112.251 122.903C112.561 122.832 112.892 122.78 113.398 122.824C113.652 122.845 113.949 122.89 114.309 122.97C114.489 123.009 114.686 123.057 114.901 123.114C115.117 123.167 115.35 123.225 115.606 123.294L114.984 123.432C114.777 123.477 114.57 123.512 114.361 123.552C117.74 123.808 121.151 124.129 124.557 124.316C124.983 124.336 125.408 124.357 125.833 124.379C126.257 124.399 126.682 124.424 127.105 124.428C127.952 124.445 128.797 124.459 129.637 124.464C129.84 124.469 130.075 124.459 130.298 124.454C130.524 124.448 130.749 124.44 130.971 124.421C131.195 124.402 131.418 124.391 131.639 124.365C131.86 124.338 132.08 124.31 132.301 124.283C133.177 124.153 134.032 123.965 134.86 123.727C134.67 123.818 134.579 123.896 134.451 123.968C134.322 124.038 134.163 124.114 133.826 124.167C134.016 124.178 134.239 124.162 134.487 124.132C134.612 124.117 134.743 124.099 134.878 124.077C135.013 124.054 135.15 124.024 135.292 123.994C135.434 123.962 135.579 123.928 135.723 123.893C135.868 123.856 136.014 123.811 136.158 123.767C136.303 123.722 136.449 123.677 136.592 123.632C136.734 123.581 136.873 123.53 137.011 123.48C138.109 123.069 138.964 122.573 138.929 122.451C139.918 122.081 139.242 122.577 139.899 122.451C140.6 122.249 141.389 121.787 142.076 121.338C142.767 120.898 143.367 120.486 143.774 120.438C143.912 120.42 143.474 120.722 143.255 120.87C143.628 120.578 144.58 120.06 145.295 119.595C146.014 119.135 146.51 118.757 146.041 118.843C147.142 118.242 148.102 117.526 148.99 116.834C149.879 116.14 150.7 115.47 151.537 114.934C151.913 114.373 152.759 113.739 153.494 113.14C154.232 112.546 154.859 111.99 154.817 111.64C154.949 111.921 155.839 111.291 156.791 110.407C157.746 109.527 158.754 108.395 159.202 107.745C158.964 108.242 160.287 106.919 160.034 107.526C161.277 106.255 162.306 104.992 161.872 105.008C163.249 104.065 164.249 102.753 165.129 101.587C166.01 100.419 166.773 99.3935 167.714 98.9952C169.298 96.8987 170.795 94.8704 172.248 92.8952C172.972 91.909 173.687 90.9365 174.395 89.9735C174.572 89.7334 174.748 89.4933 174.924 89.2546L175.187 88.8972L175.452 88.5276C175.804 88.0352 176.16 87.5496 176.486 87.0463C176.579 87.1663 176.445 87.5059 176.175 87.9342C176.039 88.147 175.874 88.3857 175.694 88.6353C175.602 88.7595 175.509 88.8863 175.415 89.0159C175.321 89.1387 175.226 89.2642 175.13 89.3883C174.369 90.3786 173.634 91.3321 173.941 91.448C174.265 90.9938 174.566 90.56 174.851 90.1426C174.992 89.9326 175.13 89.7279 175.267 89.5274C175.402 89.3256 175.534 89.1305 175.665 88.9232C175.925 88.514 176.181 88.1211 176.423 87.731C176.658 87.3368 176.89 86.948 177.12 86.5607C178.021 84.9975 178.884 83.4411 179.999 81.4796C180.618 80.4825 179.918 82.1862 179.817 82.5872C180.816 80.5234 181.746 78.5224 182.521 76.52C183.293 74.5203 183.905 72.5179 184.227 70.5087C184.253 70.521 184.256 70.6369 184.245 70.802C184.23 70.9656 184.201 71.1784 184.17 71.3844C184.216 71.1893 184.276 70.9806 184.331 70.7774C184.381 70.5728 184.43 70.3737 184.466 70.2004C184.537 69.8526 184.552 69.6071 184.41 69.6221L184.305 70.3968C183.97 70.9711 183.951 70.1486 183.99 69.176C183.999 68.6904 184.01 68.1598 184.018 67.7411C184.022 67.325 183.998 67.0167 183.954 66.9745C184.092 67.3346 184.211 67.2759 184.324 67.0168C184.433 66.7562 184.552 66.2993 184.644 65.8614C184.833 64.9898 185.034 64.2014 185.382 65.3308C185.389 65.0648 185.388 64.7661 185.35 64.5438C185.31 64.3214 185.246 64.1796 185.15 64.2314C185.277 63.4635 185.406 63.222 185.535 64.0323C185.551 63.6722 185.56 63.3734 185.561 63.1211C185.557 62.8673 185.545 62.66 185.532 62.4854C185.506 62.1349 185.471 61.9098 185.44 61.6943C185.411 61.4788 185.371 61.2714 185.354 60.9577C185.344 60.8009 185.337 60.6167 185.336 60.3916C185.336 60.1666 185.34 59.8992 185.336 59.5773C185.401 59.5814 185.448 59.7151 185.497 59.8815C185.546 60.0479 185.587 60.2457 185.662 60.3821C185.423 59.0576 185.18 57.759 185.101 55.5793C185.19 55.7034 185.273 55.4415 185.321 56.0935C185.3 55.8589 185.279 55.6298 185.254 55.4034C185.228 55.1783 185.19 54.9573 185.156 54.7391C185.119 54.5222 185.084 54.308 185.048 54.0952C185.029 53.9902 185.01 53.8852 184.991 53.7801C184.968 53.6765 184.944 53.5728 184.921 53.4705C184.829 53.0586 184.734 52.6562 184.638 52.2579C184.528 51.8623 184.419 51.4681 184.309 51.0712C183.848 49.4916 183.35 47.8971 182.808 45.922C183.278 46.4021 183.207 46.0597 183.066 45.5455C182.995 45.289 182.909 44.9903 182.862 44.7325C182.806 44.4774 182.795 44.2619 182.889 44.1651C182.726 43.8268 182.571 43.4885 182.405 43.1543L181.885 42.1627L182.028 43.0752C181.832 42.6305 181.627 42.2063 181.405 41.7998C181.18 41.3947 180.94 41.0005 180.685 40.6199C180.175 39.8574 179.623 39.1495 179.016 38.4552C179.445 38.7744 179.839 39.14 180.195 39.5287C179.997 39.2641 179.786 39.0063 179.557 38.758C179.325 38.5111 179.075 38.2765 178.808 38.0583L178.603 37.8987C178.533 37.8469 178.46 37.8018 178.389 37.7527C178.244 37.6586 178.104 37.559 177.955 37.4717L177.5 37.2317L177.385 37.173L177.266 37.1239L177.03 37.0271C177.712 37.3845 178.343 37.8509 178.853 38.4102C178.412 38.0924 178.15 38.0242 178.017 38.0092C177.88 37.9969 177.85 38.0569 177.811 38.0937C177.768 38.1347 177.725 38.1401 177.549 38.0596C177.459 38.0214 177.339 37.9587 177.169 37.8619C177.088 37.81 176.985 37.7664 176.869 37.7104C176.753 37.6572 176.625 37.5877 176.474 37.5236C176.603 37.5577 176.554 37.529 176.388 37.4677C176.223 37.4077 175.946 37.2958 175.612 37.2126C175.529 37.1894 175.443 37.1648 175.354 37.1389C175.265 37.1198 175.174 37.0994 175.083 37.0803C174.898 37.0393 174.711 36.993 174.527 36.9643C174.345 36.9343 174.164 36.8866 173.999 36.8606C173.834 36.8306 173.682 36.7979 173.552 36.7597H173.559C173.312 36.7993 173.069 36.8552 172.818 36.9002C172.57 36.9616 172.312 37.0066 172.046 37.068C171.509 37.1798 170.924 37.3012 170.214 37.4049C169.813 37.3435 170.379 36.8034 170.119 36.7597C169.907 36.9193 169.524 37.0721 169.062 37.2494C168.83 37.3353 168.579 37.4281 168.315 37.5249C168.056 37.6232 167.788 37.7268 167.516 37.8305C167.381 37.8823 167.243 37.9314 167.11 37.9873C166.976 38.0446 166.844 38.1006 166.713 38.1565C166.452 38.2697 166.199 38.3802 165.965 38.4948C165.504 38.7335 165.118 38.964 164.89 39.1822C165.211 38.9313 165.131 38.6885 164.987 38.6898C164.787 38.8917 164.596 39.1099 164.403 39.3186C163.55 39.5901 163.413 39.6146 163.453 39.3623C162.232 39.9393 162.496 39.9816 162.69 40.0293C162.885 40.0811 163.004 40.1166 161.547 40.7577C161.753 40.6158 161.624 40.6281 162.057 40.3362C160.616 41.0346 159.325 41.9008 158.118 42.8092C156.908 43.7163 155.783 44.6711 154.634 45.5877C154.142 45.69 154.607 45.2426 155.068 44.8116C155.537 44.3915 156.01 43.9959 155.489 44.1501C154.668 44.8403 153.894 45.615 153.141 46.413C152.775 46.8249 152.399 47.2246 152.052 47.6529L151.526 48.2885L151.02 48.9392L150.767 49.2638L150.526 49.5953C150.365 49.8149 150.204 50.0359 150.043 50.2541C149.889 50.4778 149.735 50.7002 149.581 50.9225L149.349 51.254L149.128 51.5909C148.979 51.8146 148.832 52.0356 148.684 52.2579C148.542 52.483 148.401 52.7053 148.26 52.929C147.968 53.3668 147.71 53.8211 147.431 54.2535L147.87 53.6233C147.946 53.8361 147.87 54.0939 147.698 54.3912C147.529 54.69 147.283 55.0419 146.996 55.4265C146.852 55.6202 146.715 55.8303 146.57 56.0458C146.43 56.2641 146.274 56.4837 146.151 56.7224C145.895 57.1943 145.662 57.6936 145.552 58.2105C145.693 57.7181 145.445 57.4371 145.464 57.5967C144.861 58.8898 144.42 60.2948 144.104 61.9057C143.944 62.7105 143.826 63.5698 143.738 64.4947C143.71 64.7252 143.703 64.9611 143.687 65.2012C143.672 65.4399 143.658 65.6841 143.643 65.9324C143.636 66.4275 143.629 66.9417 143.621 67.4778L143.478 66.939C143.445 67.1463 143.41 67.37 143.385 67.6074C143.369 67.8447 143.355 68.0957 143.343 68.3562C143.333 68.6168 143.324 68.8855 143.313 69.1596C143.321 69.4338 143.328 69.7121 143.336 69.9931C143.347 70.2727 143.351 70.5551 143.369 70.832C143.393 71.1089 143.416 71.3844 143.441 71.6517C143.466 71.9191 143.481 72.1823 143.509 72.432C143.541 72.6816 143.571 72.9203 143.595 73.1467C143.727 73.3977 143.815 73.781 143.913 74.0129C144.01 74.2461 144.088 74.3321 144.152 74.0033C144.172 74.7004 144.205 75.396 144.337 76.0644C144.397 76.4 144.457 76.7342 144.539 77.0615C144.626 77.3862 144.72 77.7081 144.819 78.0272C144.868 78.1868 144.917 78.3451 144.97 78.5019C145.03 78.6561 145.089 78.8116 145.149 78.9644C145.269 79.2713 145.393 79.5754 145.518 79.8769C145.651 80.1756 145.797 80.4661 145.937 80.758C146.082 81.0472 146.214 81.3405 146.375 81.6188C146.689 82.178 146.982 82.74 147.315 83.2747C147.476 83.5448 147.634 83.8149 147.79 84.0849C147.952 84.3509 148.117 84.6142 148.274 84.8815C148.435 85.1461 148.578 85.4203 148.74 85.6822C148.898 85.9468 149.051 86.2128 149.199 86.4829C149.272 86.6179 149.345 86.7543 149.415 86.8907C149.49 87.0244 149.564 87.1595 149.636 87.2959C149.78 87.5687 149.917 87.8456 150.047 88.1279C149.714 87.6478 149.126 87.064 149.389 87.45L150.016 88.2889C150.227 88.5658 150.451 88.8345 150.666 89.1059C151.095 89.6543 151.557 90.174 152.008 90.7019C152.041 90.2531 151.811 90.1604 151.46 89.3324C151.929 89.6325 152.745 90.4604 153.415 91.2257C152.741 90.5886 152.648 90.6678 152.775 90.9992C152.905 91.3293 153.244 91.9213 153.453 92.276C153.433 92.1136 153.694 92.25 153.719 92.1368C154.241 93.1176 154.417 93.0848 154.672 93.1039C154.802 93.1121 154.952 93.1339 155.18 93.3003C155.293 93.3835 155.427 93.5036 155.586 93.6768C155.749 93.8487 155.929 94.0792 156.161 94.3657L155.937 94.3698C156.36 94.7244 156.784 95.0449 157.211 95.375C157.646 95.6983 158.07 96.0434 158.493 96.4554C158.561 96.7459 158.309 96.5904 158.022 96.3653C157.733 96.143 157.398 95.8661 157.271 95.9452C157.582 96.2249 157.912 96.4785 158.257 96.7077C158.604 96.9355 158.957 97.1497 159.296 97.3679C159.633 97.5902 159.974 97.7976 160.279 98.039C160.586 98.2777 160.858 98.5464 161.101 98.8452C160.79 98.6678 160.448 98.4073 160.1 98.1522C159.754 97.8958 159.403 97.6407 159.108 97.4416C159.347 97.7935 159.55 98.0499 159.725 98.26C159.899 98.4701 160.049 98.6296 160.195 98.7729C160.485 99.0634 160.772 99.2707 161.233 99.6772L161.145 99.5954L161.673 100.071C161.85 100.23 162.031 100.381 162.21 100.537L162.75 101L163.02 101.232L163.296 101.457C163.12 101.288 162.948 101.116 162.778 100.939C163.893 101.193 164.777 101.768 165.736 102.407C165.855 102.487 165.975 102.569 166.096 102.651C166.22 102.73 166.345 102.81 166.471 102.891C166.724 103.052 166.986 103.214 167.257 103.372C167.803 103.687 168.404 103.97 169.078 104.206C166.459 103.273 168.521 104.252 168.138 104.485C168.279 104.603 168.437 104.734 168.592 104.863C168.749 104.99 168.903 105.112 169.029 105.219C169.281 105.433 169.422 105.583 169.258 105.553C169.916 105.755 170.372 106.077 170.902 106.42C171.427 106.769 172.038 107.1 172.978 107.329C172.986 107.406 173.301 107.574 173.562 107.74C173.822 107.908 174.036 108.062 173.828 108.142C175.433 108.814 173.558 107.763 173.764 107.683C174.411 107.879 175.072 108.175 175.756 108.533C176.099 108.713 176.451 108.898 176.812 109.089C177.172 109.283 177.542 109.482 177.92 109.686C178.109 109.787 178.3 109.89 178.494 109.993C178.69 110.09 178.89 110.187 179.09 110.285C179.492 110.479 179.904 110.669 180.327 110.849C180.749 111.033 181.188 111.192 181.638 111.336C182.088 111.48 182.549 111.608 183.021 111.715C183.415 111.843 183.778 111.932 184.107 112.018C184.437 112.101 184.738 112.172 185.018 112.233C185.299 112.295 185.558 112.346 185.808 112.394C186.058 112.44 186.298 112.475 186.535 112.513C187.486 112.657 188.395 112.814 189.884 113.154C190.343 113.405 190.109 113.454 189.757 113.44C189.406 113.427 188.938 113.349 188.938 113.349C189.704 113.684 190.387 113.948 191.077 114.147C191.769 114.341 192.459 114.491 193.232 114.635C192.898 114.653 193.185 114.844 193.613 115.099C194.845 115.38 194.544 114.863 196.109 115.451C195.797 115.53 195.389 115.654 194.763 115.642C195.131 115.706 195.499 115.766 195.869 115.814C196.24 115.856 196.612 115.897 196.986 115.939C197.359 115.982 197.732 116.024 198.11 116.066C198.485 116.115 198.867 116.147 199.249 116.198C199.604 116.496 198.267 116.354 197.708 116.362C197.922 116.398 198.151 116.441 198.391 116.478C198.631 116.513 198.881 116.55 199.135 116.589C199.641 116.662 200.16 116.736 200.644 116.793C201.614 116.897 202.445 116.92 202.737 116.796L201.67 116.475C202.291 116.569 201.935 116.833 201.464 116.814C201.087 116.818 200.767 116.786 200.503 116.728C200.237 116.673 200.022 116.599 199.855 116.524C199.519 116.372 199.365 116.205 199.338 116.134L200.425 116.273C200.186 116.032 199.799 115.864 199.317 115.74C199.076 115.677 198.813 115.627 198.532 115.583C198.252 115.534 197.956 115.489 197.651 115.45C197.039 115.368 196.387 115.305 195.757 115.218C195.13 115.122 194.52 115.012 193.991 114.864L195.015 114.563C194.254 114.519 193.485 114.491 192.724 114.422C192.301 114.154 192.072 113.77 193.133 113.987C192.415 113.642 192.069 113.594 191.75 113.549C191.43 113.503 191.134 113.47 190.537 113.121C190.409 113.032 190.481 113.027 190.619 113.047L189.109 112.746C189.431 112.726 188.985 112.301 189.856 112.657C188.592 112.11 187.524 111.832 186.648 111.636C186.21 111.539 185.828 111.437 185.502 111.323C185.176 111.209 184.906 111.075 184.7 110.888L184.927 110.936C184.473 110.793 184.125 110.69 183.857 110.618C183.591 110.54 183.407 110.494 183.278 110.472C183.018 110.427 182.982 110.476 182.969 110.544C182.943 110.681 183.02 110.896 181.596 110.585L181.241 110.178L180.892 109.76L180.202 108.927L179.698 109.149C179.52 109.066 179.255 108.94 179.06 108.824C178.865 108.707 178.742 108.595 178.839 108.552C177.396 108.196 178.994 108.815 178.115 108.699C177.72 108.418 177.224 108.152 176.696 107.9C176.172 107.638 175.623 107.38 175.117 107.139C174.863 107.017 174.621 106.9 174.4 106.784C174.18 106.669 173.983 106.548 173.815 106.436C173.48 106.21 173.264 106.001 173.244 105.81C172.499 105.768 174.743 106.855 172.85 106.11C172.755 105.668 172.218 105.438 171.548 105.148C171.213 105.005 170.836 104.859 170.464 104.67C170.093 104.477 169.722 104.252 169.389 103.967C170.029 103.928 171.34 104.907 170.012 103.769C169.409 103.775 168.711 103.301 168.002 102.76C167.653 102.48 167.302 102.18 166.96 101.907C166.615 101.639 166.29 101.377 165.973 101.201C165.892 101.291 165.682 101.235 165.377 101.081C165.073 100.928 164.686 100.662 164.241 100.352C163.792 100.047 163.309 99.6622 162.798 99.2885C162.289 98.9106 161.779 98.5096 161.273 98.1645C161.328 98.1591 161.143 97.9599 160.815 97.6393C160.65 97.4798 160.449 97.2902 160.221 97.0787C159.992 96.8701 159.752 96.6259 159.49 96.3762C158.964 95.8811 158.407 95.3096 157.876 94.768C157.612 94.4966 157.368 94.2211 157.135 93.9674C156.904 93.7109 156.684 93.4777 156.508 93.2567L156.612 93.2485C156.451 93.2553 156.233 93.1503 155.976 92.973C155.848 92.8843 155.71 92.7766 155.566 92.6552C155.494 92.5938 155.42 92.5297 155.344 92.4628C155.271 92.3933 155.196 92.321 155.12 92.2473C154.817 91.9486 154.494 91.6144 154.175 91.2761C153.864 90.931 153.554 90.5859 153.259 90.2777C153.525 90.144 153.81 90.3036 154.499 90.9119C154.158 90.5095 153.813 90.1112 153.476 89.7061C153.3 89.6093 153.119 89.4769 152.896 89.271C152.677 89.0636 152.401 88.7949 152.078 88.3925L152.602 88.4935C152.287 88.0747 151.948 87.671 151.601 87.259C151.269 86.8362 150.914 86.4147 150.572 85.9619C149.9 85.048 149.219 84.0358 148.703 82.7796C148.518 82.7905 148.563 83.377 148.465 83.6648C148.365 83.9499 148.121 83.9294 147.334 82.6786C147.446 82.4999 147.676 82.268 148.096 82.9037C148.028 82.8 147.89 82.6213 147.75 82.4072C147.618 82.1903 147.485 81.9366 147.412 81.6938C147.672 81.998 147.92 82.3049 148.197 82.594C148.14 82.4494 148.088 82.3335 148.042 82.2408C148 82.1453 147.96 82.073 147.923 82.0157C147.85 81.9025 147.787 81.8506 147.724 81.8083C147.599 81.7238 147.473 81.672 147.273 81.215C147.397 81.1686 147.356 80.9858 147.326 80.8153C147.297 80.6448 147.267 80.4907 147.39 80.5152C147.5 80.7403 147.65 81.3432 147.904 81.6419C147.795 81.3855 147.686 81.1127 147.583 80.8426C147.488 80.5685 147.409 80.2915 147.337 80.0365C147.266 79.78 147.207 79.5413 147.167 79.3367C147.135 79.1308 147.123 78.9575 147.131 78.8375C147.026 78.9793 146.803 78.963 146.49 78.21C146.391 77.9659 146.34 77.764 146.296 77.6044C146.254 77.4435 146.228 77.3234 146.214 77.2307C146.188 77.0452 146.211 76.9729 146.247 76.9251C146.282 76.8774 146.331 76.8542 146.356 76.7696C146.368 76.7273 146.375 76.6687 146.371 76.5841C146.365 76.4995 146.353 76.3877 146.333 76.2363C146.183 76.018 146.068 75.5761 145.944 75.1969C145.877 75.0086 145.829 74.83 145.76 74.7045C145.693 74.579 145.615 74.5039 145.518 74.5162C145.397 73.9147 145.547 73.7714 145.608 73.5232C145.525 73.2654 145.434 72.8275 145.337 72.3338C145.282 72.0882 145.261 71.8236 145.222 71.5645C145.187 71.3039 145.151 71.0461 145.119 70.8047C145.098 70.6846 145.087 70.5687 145.076 70.4582C145.064 70.3477 145.052 70.2454 145.041 70.1499C145.016 69.959 144.991 69.8021 144.961 69.6944C144.902 69.4789 144.831 69.4597 144.741 69.7707L144.726 70.0504C144.715 69.9985 144.712 69.9371 144.701 69.873C144.667 69.6507 144.637 69.427 144.61 69.2019C144.589 68.9769 144.584 68.7491 144.574 68.5213C144.562 68.0657 144.544 67.6046 144.587 67.145C144.64 66.2229 144.76 65.2981 144.958 64.391C145.338 62.5714 145.926 60.8227 146.48 59.1422L146.6 59.194C146.908 58.1846 147.367 57.1002 147.836 56.1031C148.316 55.1101 148.787 54.1948 149.087 53.4814C149.261 53.2182 149.506 52.9331 149.722 52.768C149.937 52.6003 150.1 52.5375 150.087 52.6916C150.503 51.9987 150.737 51.6113 151.044 51.1653C151.365 50.7315 151.767 50.2405 152.622 49.4384C152.174 50.1259 152.304 50.0509 152.36 50.0141C152.388 49.995 152.397 49.9854 152.307 50.0836C152.262 50.1327 152.193 50.2078 152.088 50.3223C151.987 50.441 151.853 50.5992 151.674 50.8106C151.852 50.6183 152.008 50.4424 152.161 50.2882C152.317 50.1355 152.459 49.9963 152.592 49.8654C152.726 49.7344 152.85 49.613 152.97 49.4944C153.094 49.3784 153.212 49.2666 153.327 49.1493C153.561 48.9174 153.78 48.6678 154.041 48.3745C154.297 48.0771 154.573 47.7184 154.928 47.2737C154.763 47.657 155.121 47.462 155.601 47.0855C155.848 46.9041 156.125 46.6762 156.384 46.4485C156.643 46.222 156.896 46.0079 157.069 45.8305L156.429 46.2016L155.8 46.5917C156.603 45.8101 157.398 45.2331 158.203 44.6548L158.043 45.33C158.499 45.0544 158.942 44.7912 159.357 44.5074C159.563 44.3628 159.774 44.2333 159.974 44.0914C160.178 43.9536 160.371 43.8063 160.569 43.6686C161.356 43.1161 162.093 42.55 162.837 42.0481C164.316 41.036 165.811 40.2094 167.478 40.0539C167.947 39.7088 167.392 39.8656 166.815 40.0225C166.244 40.1876 165.656 40.3717 166.051 40.0061C166.972 39.6433 167.981 39.4646 168.818 39.3527C169.65 39.2463 170.303 39.2436 170.587 39.1727C171.221 39.0827 171.668 38.9899 172.032 38.8931C172.397 38.7894 172.678 38.6871 172.968 38.5766C173.113 38.5289 173.26 38.4798 173.42 38.4334C173.579 38.3884 173.75 38.3625 173.946 38.3352C174.044 38.3202 174.145 38.3202 174.255 38.3188C174.364 38.3188 174.48 38.3188 174.602 38.327C174.844 38.3584 175.121 38.3938 175.417 38.4948C175.282 38.3829 175.151 38.2042 175.301 38.0937C175.445 37.9969 175.919 37.8823 176.89 38.2615C176.994 38.3229 177.092 38.3843 177.183 38.4429C177.274 38.5016 177.36 38.5589 177.431 38.6271C177.576 38.758 177.701 38.8712 177.793 38.9858C177.884 39.1018 177.951 39.2068 177.992 39.3009C178.036 39.3937 178.057 39.4728 178.06 39.5383C178.067 39.6665 178.003 39.7265 177.887 39.717C177.83 39.7115 177.757 39.6883 177.673 39.6515C177.59 39.6119 177.49 39.5587 177.38 39.4891C177.048 39.2709 176.919 39.1181 176.957 39.0868C176.83 39.0336 176.693 38.9763 176.571 38.9244C176.445 38.8794 176.324 38.8562 176.241 38.8426C176.074 38.818 176.047 38.8726 176.306 39.0772C176.392 39.0567 176.481 39.0363 176.565 39.0281C176.905 39.275 177.49 39.7333 177.851 40.2244C178.22 40.71 178.408 41.141 178.15 40.9801C178.364 41.2188 178.497 41.3797 178.577 41.4479C178.658 41.5175 178.682 41.5025 178.667 41.4234C178.639 41.2651 178.448 40.8573 178.179 40.4563C178.478 40.9228 178.716 41.377 178.943 41.8189C179.166 42.2609 179.381 42.6946 179.582 43.1461C179.993 44.0409 180.405 44.9535 180.76 46.1934C180.705 45.7787 180.751 45.3559 180.886 45.7433C181.021 46.2002 181.135 46.5644 181.233 46.859C181.324 47.155 181.394 47.3842 181.461 47.5602C181.59 47.9121 181.684 48.0635 181.774 48.1753C181.953 48.4004 182.114 48.4713 182.48 49.7221C182.527 50.471 182.358 50.3714 182.275 50.4014C182.234 50.4164 182.214 50.4615 182.25 50.6592C182.27 50.7575 182.304 50.8952 182.356 51.0848C182.406 51.2758 182.47 51.5199 182.552 51.835C182.686 53.42 182.204 52.232 181.965 51.6509C182.147 52.2102 182.282 52.7612 182.347 53.2973C182.384 53.5646 182.414 53.8279 182.436 54.083C182.452 54.3394 182.458 54.5904 182.462 54.8332C182.466 55.076 182.466 55.3106 182.465 55.5357C182.459 55.7621 182.446 55.9804 182.437 56.1877C182.416 56.6037 182.416 56.9788 182.409 57.3117C182.383 57.1084 182.346 56.9065 182.309 56.7046L182.2 56.1004C182.264 56.4605 182.311 56.7906 182.339 57.107C182.361 57.4235 182.372 57.725 182.384 58.0305L182.668 57.3171C182.643 58.0428 182.668 58.6525 182.531 58.6416C182.636 59.0112 182.765 58.868 182.904 58.8148C183.043 58.7616 183.192 58.7984 183.336 59.5487C183.317 59.6714 183.306 59.8092 183.299 59.9579C183.289 60.1065 183.282 60.2661 183.278 60.4312C183.275 60.7613 183.272 61.1146 183.269 61.446C183.238 62.1103 183.181 62.6941 182.964 62.8455C183.129 61.3205 183.02 61.3997 182.881 61.5361C182.811 61.6043 182.735 61.6861 182.68 61.5906C182.63 61.4951 182.592 61.2223 182.592 60.5812C182.609 60.8295 182.615 61.1037 182.604 61.4065C182.583 61.7093 182.549 62.0407 182.499 62.3995C182.446 62.5045 182.42 62.2917 182.407 62.0939C182.336 62.4513 182.298 62.7405 182.261 62.9779C182.226 63.2152 182.211 63.4021 182.208 63.5562C182.206 63.8631 182.259 64.0391 182.323 64.2205C182.386 64.4019 182.451 64.5874 182.482 64.9162C182.51 65.2449 182.512 65.7195 182.38 66.4657C182.296 66.257 182.158 66.4139 182.038 66.6812C181.978 66.8149 181.922 66.9772 181.88 67.1354C181.834 67.2937 181.798 67.4492 181.787 67.5719C181.848 67.2759 181.907 67.0959 181.959 67.0099C182.013 66.924 182.066 66.9335 182.113 67.0154C182.212 67.1804 182.261 67.636 182.241 68.2062C182.107 68.6768 182.006 69.0396 181.939 69.3383C181.874 69.6371 181.843 69.8717 181.822 70.0804C181.774 70.495 181.765 70.8006 181.624 71.2944L182.006 70.184C182.128 70.6233 181.869 71.574 181.529 72.908C181.322 72.9653 181.768 71.679 181.551 72.1251C181.537 72.5165 181.451 72.9162 181.302 73.3172C181.151 73.7169 180.953 74.1247 180.746 74.5462C180.525 74.9623 180.294 75.3933 180.09 75.8489C179.872 76.299 179.675 76.7737 179.539 77.2893C178.995 78.1173 179.097 77.2006 178.651 77.9331C178.487 78.5019 178.293 78.9098 178.116 79.2535C178.026 79.424 177.936 79.5768 177.847 79.7214C177.755 79.8646 177.659 79.9956 177.565 80.1292C177.374 80.3952 177.183 80.6639 176.978 81.0063C176.763 81.3432 176.538 81.7565 176.286 82.3199C176.598 82.0948 176.752 81.9407 176.755 82.0552C176.755 82.1125 176.719 82.2353 176.644 82.4495C176.565 82.6609 176.441 82.9583 176.277 83.3702C176.44 83.0701 176.605 82.7727 176.763 82.4726L177.221 81.5601C177.378 81.2587 177.519 80.949 177.66 80.6408C177.801 80.3311 177.95 80.0269 178.082 79.7146C177.82 80.5562 177.547 81.4019 177.235 82.2353C177.389 81.9666 177.538 81.6856 177.678 81.4032C177.812 81.1181 177.936 80.8317 178.055 80.5603C178.299 80.0215 178.49 79.5291 178.677 79.2085C178.517 79.8264 178.435 80.1033 178.449 80.166C178.467 80.2315 178.591 80.0938 178.836 79.8823C178.763 79.9655 178.694 80.0501 178.629 80.136C178.562 80.222 178.497 80.3079 178.437 80.3952C178.315 80.5712 178.206 80.754 178.105 80.9422C178.004 81.1304 177.916 81.3255 177.824 81.5206C177.73 81.7142 177.641 81.9134 177.551 82.1153C177.461 82.3171 177.37 82.519 177.277 82.725C177.183 82.9296 177.074 83.1288 176.962 83.3306C176.733 83.7317 176.481 84.134 176.136 84.4969L175.518 84.0208C175.28 84.3004 175.063 84.5801 174.86 84.8611C174.647 85.1352 174.45 85.4135 174.26 85.6945L173.979 86.1187C173.884 86.2592 173.789 86.3997 173.694 86.5416C173.507 86.8294 173.319 87.1185 173.127 87.4145C172.322 88.619 171.462 89.9216 170.165 91.3716L171.054 90.4836C170.97 91.0852 169.583 92.3796 168.88 93.4313C168.753 93.1762 168.182 93.7232 167.715 94.0328C167.908 94.1092 165.885 96.1989 166.047 96.8005L164.66 97.8903C163.584 99.0266 163.128 99.8122 162.686 100.595C162.241 101.375 161.808 102.152 160.746 103.222C161.158 102.367 160.096 103.243 161.311 101.628C160.632 102.364 159.98 102.988 160.1 103.123C159.839 103.28 159.427 103.846 158.971 104.428C158.515 105.012 158.016 105.615 157.602 105.854C157.385 106.234 157.481 106.526 156.661 107.301C156.536 107.349 156.575 107.205 156.575 107.205C156.619 107.253 156.334 107.591 156.15 107.859C155.964 108.123 155.881 108.318 156.338 108.081C154.941 108.865 153.372 110.34 151.787 111.728C150.995 112.421 150.2 113.093 149.44 113.655C148.68 114.215 147.953 114.661 147.312 114.911C146.46 115.583 145.498 116.295 144.528 116.949C143.558 117.603 142.582 118.198 141.72 118.667C141.793 118.539 141.665 118.553 142.003 118.399C141.38 118.666 140.998 118.881 140.725 119.075C140.455 119.273 140.297 119.449 140.126 119.63C139.956 119.812 139.773 120 139.444 120.196C139.281 120.295 139.082 120.404 138.828 120.506C138.574 120.61 138.271 120.723 137.896 120.824C137.085 120.906 137.451 120.707 137.892 120.514C138.334 120.325 138.847 120.112 138.367 120.226C138.011 119.913 137.18 120.273 136.143 120.677C136.014 120.727 135.882 120.778 135.746 120.829C135.61 120.877 135.472 120.925 135.333 120.973C135.055 121.072 134.767 121.153 134.481 121.226C134.194 121.303 133.905 121.346 133.625 121.384C133.346 121.416 133.072 121.417 132.816 121.398L133.284 121.267C132.51 121.26 131.615 121.461 130.573 121.605C130.311 121.634 130.049 121.672 129.762 121.698C129.471 121.72 129.172 121.742 128.868 121.758C128.258 121.791 127.621 121.806 126.966 121.777C126.966 121.777 127.096 121.704 126.985 121.649C126.535 121.75 125.984 121.807 125.372 121.861C125.065 121.885 124.744 121.906 124.411 121.923C124.078 121.938 123.736 121.959 123.388 121.956C122.693 121.959 121.972 121.951 121.269 121.937C121.093 121.933 120.918 121.93 120.745 121.926C120.572 121.916 120.401 121.908 120.232 121.9C119.894 121.882 119.564 121.865 119.248 121.848C120.064 121.595 120.407 121.787 119.963 121.401C118.835 121.335 120.243 121.978 117.978 121.846C117.268 121.57 115.675 121.196 115.515 120.809L117.618 121.067C117.108 120.762 116.432 120.677 115.743 120.638C115.398 120.623 115.051 120.604 114.724 120.576C114.395 120.548 114.084 120.512 113.813 120.446L113.987 120.267C113.588 120.21 113.236 120.166 112.918 120.135C112.6 120.106 112.323 120.065 112.065 120.046C111.551 120.001 111.128 119.986 110.696 119.969C110.48 119.958 110.261 119.952 110.032 119.928C109.801 119.903 109.558 119.872 109.287 119.83C109.017 119.787 108.719 119.734 108.385 119.664C108.051 119.594 107.675 119.516 107.259 119.386L107.567 119.634C106.581 119.622 106.21 119.443 105.849 119.25C105.669 119.152 105.489 119.055 105.236 118.965C104.983 118.868 104.657 118.783 104.175 118.726L103.791 118.054C103.637 118.021 103.454 117.981 103.247 117.936C103.04 117.891 102.815 117.827 102.569 117.767C102.077 117.639 101.512 117.492 100.916 117.337C100.331 117.155 99.7141 116.955 99.1112 116.754C98.9612 116.702 98.8083 116.657 98.6638 116.598C98.5192 116.539 98.3746 116.482 98.2327 116.426C97.949 116.312 97.6748 116.197 97.4143 116.085C97.7457 116.138 98.1467 116.238 98.586 116.366C98.8028 116.434 99.0389 116.492 99.2776 116.557C99.5149 116.624 99.7605 116.692 100.009 116.762C100.987 117.065 102.026 117.316 102.82 117.496C101.655 117.085 98.9107 115.998 98.2368 115.909C98.4728 115.994 98.7429 116.08 99.0089 116.173C99.279 116.257 99.5408 116.355 99.7509 116.489C98.1931 116.273 96.2726 115.57 94.1351 114.286C94.3588 114.128 94.1338 113.824 93.6577 113.436C93.5391 113.339 93.4041 113.237 93.2568 113.131C93.1135 113.019 92.9593 112.897 92.7943 112.775C92.4655 112.528 92.0974 112.265 91.7154 111.993C91.5204 111.862 91.3389 111.707 91.148 111.561C90.9597 111.412 90.7701 111.262 90.5818 111.113C90.395 110.963 90.2109 110.813 90.0294 110.667C89.8467 110.523 89.687 110.358 89.5247 110.208C88.8864 109.595 88.3639 109.041 88.1839 108.584C87.7624 108.25 87.3422 107.913 86.9398 107.555C86.5511 107.183 86.1692 106.803 85.79 106.416C85.6959 106.317 85.5991 106.223 85.5091 106.122L85.2431 105.814C85.0671 105.607 84.8912 105.398 84.7138 105.189C84.5379 104.979 84.3605 104.769 84.1873 104.555C84.0222 104.333 83.8572 104.11 83.6908 103.887C83.5258 103.663 83.3593 103.437 83.1929 103.21C83.1097 103.097 83.0251 102.984 82.9432 102.868C82.8655 102.749 82.7864 102.63 82.7073 102.512C82.3922 102.037 82.0717 101.557 81.747 101.07C81.4415 100.569 81.1278 100.063 80.8031 99.5531C80.6354 99.3007 80.4893 99.032 80.3311 98.7674C80.1728 98.5028 80.012 98.2354 79.8497 97.9667C79.9683 98.9338 79.7774 98.6228 79.4855 98.1481C79.184 97.6803 78.8335 97.0242 78.5525 97.3583C77.9428 96.3326 77.7354 95.9275 77.7354 95.8075L77.1583 94.0806L77.0152 93.6509L76.8869 93.2144L76.6319 92.3442C76.5023 91.4739 77.2512 93.3003 77.3712 93.1244C76.8761 91.9322 76.8446 91.6512 76.8746 91.463C76.8896 91.3689 76.9197 91.2979 76.917 91.1479C76.917 90.9965 76.8869 90.7646 76.7778 90.3513C76.7096 90.5668 76.5309 90.4004 76.3126 90.0007C76.0944 89.6025 75.8299 88.9764 75.6375 88.2616C75.7016 88.6067 75.7507 88.9573 75.8271 89.2983L76.0426 90.3295C75.8244 89.9298 75.6511 89.5806 75.5134 89.2683C75.3797 88.9546 75.2896 88.6749 75.2159 88.4253C75.0713 87.9233 75.0169 87.525 74.961 87.1281C74.901 86.7325 74.8668 86.3274 74.7345 85.82C74.6704 85.5663 74.5844 85.2839 74.4657 84.9634C74.4071 84.8024 74.339 84.6319 74.2626 84.4491C74.1862 84.2664 74.1098 84.0672 74.0171 83.8571L74.3048 84.3727L74.6062 84.8815C74.4166 84.4532 74.2121 83.819 73.9775 83.0919C73.8602 82.7277 73.7346 82.3417 73.6064 81.942C73.4877 81.5478 73.3664 81.1427 73.245 80.7362L73.1508 80.4334C73.1222 80.3311 73.0936 80.2302 73.0649 80.1292C73.0063 79.9274 72.9476 79.7268 72.8903 79.529C72.8303 79.3313 72.7703 79.1376 72.7116 78.948C72.6571 78.757 72.6026 78.5702 72.5453 78.3915C72.4348 78.0314 72.3133 77.6972 72.2015 77.3984C72.0923 77.0984 71.9778 76.8364 71.8605 76.625C71.8973 76.284 72.0419 75.8243 72.2356 76.6182C71.915 74.4317 71.4813 71.9941 71.2398 69.633C70.9889 67.2759 70.9015 65.0103 71.1443 63.2643L71.3326 63.6108C71.3148 63.1906 71.2317 62.8224 71.1812 62.4282C71.1335 62.0339 71.1225 61.6124 71.2412 61.0887C71.3203 61.1473 71.424 61.4351 71.4512 61.0464C71.3994 60.6003 71.2152 58.7916 71.4008 57.6786L71.5645 58.647C71.8236 56.4523 71.8209 54.7486 71.7636 53.124C71.7091 51.4995 71.6026 49.9568 71.6858 48.0867C72.2642 48.144 72.7294 44.652 72.9258 42.8924L73.0035 42.9593C73.2026 40.3485 73.174 38.106 73.0431 35.9167C73.0131 35.3698 72.9654 34.8241 72.9258 34.2785C72.8836 33.7316 72.8262 33.1832 72.777 32.6281L72.758 32.4194L72.7348 32.1902C72.7198 32.0374 72.698 31.8847 72.6775 31.7319C72.6339 31.4263 72.582 31.1208 72.5206 30.8125C72.3938 30.1974 72.2342 29.5754 72.0132 28.9424C71.9696 28.5223 71.866 28.0312 71.6709 27.487C71.6245 27.3506 71.5645 27.2129 71.5059 27.0696C71.439 26.9291 71.3776 26.7832 71.2958 26.6372C71.1444 26.3439 70.9534 26.0425 70.7242 25.7424C70.2713 25.1436 69.6057 24.5366 68.7328 24.1465C68.299 23.9514 67.8201 23.8205 67.3386 23.7659C66.8653 23.71 66.3566 23.7195 65.8819 23.7986C64.9284 23.9582 64.1196 24.3347 63.4253 24.7098C62.7269 25.0945 62.15 25.4614 61.5361 25.8242C60.3262 26.5567 59.1572 27.2892 58.1001 27.9399C58.7766 27.5866 58.2583 28.375 57.594 28.9424C57.3471 29.0939 57.0757 29.308 56.8138 29.5426C56.5533 29.7813 56.2968 30.0337 56.0663 30.2505C55.6121 30.6938 55.2574 30.9953 55.1524 30.7334L55.4756 30.4715C54.9696 30.5534 54.2794 31.024 53.5633 31.6637C53.3846 31.8246 53.2045 31.9951 53.0217 32.1697C52.8389 32.3443 52.6658 32.5353 52.4885 32.7208C52.1297 33.0877 51.7969 33.4833 51.4764 33.8434C51.5828 34.0739 51.6892 34.3017 51.801 34.5309C50.8189 35.3139 49.8667 36.4296 49.0824 37.735C48.9855 37.8987 48.8874 38.0637 48.7892 38.2288C48.6965 38.4006 48.6064 38.5753 48.5164 38.7498C48.3432 39.1031 48.1808 39.4619 48.0335 39.8274C47.7403 40.5585 47.5042 41.3074 47.3201 42.0494C47.1359 42.7915 47.0036 43.5253 46.9095 44.2278C46.8154 44.9303 46.765 45.6028 46.7268 46.2248C46.6845 46.8468 46.6777 47.421 46.6463 47.9298C46.6258 48.44 46.5931 48.886 46.5276 49.257C46.6954 49.8736 46.8754 50.561 47.1032 51.2321C47.2137 51.5691 47.346 51.8991 47.4824 52.2142C47.5547 52.3711 47.6283 52.5239 47.702 52.6726L47.7321 52.7312L47.773 52.8076C47.8003 52.8581 47.8275 52.9072 47.8548 52.9563C47.9093 53.0531 47.9626 53.15 48.0158 53.2441C47.8958 53.2796 47.7757 53.3123 47.653 53.3423C47.7812 53.6724 47.9571 53.997 48.1166 54.3121C48.1576 54.3913 48.1972 54.469 48.2368 54.5468C48.2777 54.6231 48.324 54.6913 48.3663 54.7636C48.4536 54.9068 48.5396 55.0473 48.6242 55.1865C48.9706 55.7307 49.3293 56.2068 49.6881 56.6228C50.0482 57.0511 50.4014 57.4371 50.7752 57.8545C50.9661 58.0632 51.1571 58.2733 51.3508 58.4847C51.4503 58.5925 51.5499 58.7002 51.6509 58.8094L51.6878 58.8489L51.7204 58.8776L51.7873 58.9348L51.921 59.0494C52.1352 58.5952 52.3561 58.1246 52.5893 57.6281C52.8158 57.1357 53.0545 56.6187 53.3082 56.069C53.371 55.9312 53.435 55.7921 53.4991 55.6502C53.5319 55.5793 53.5632 55.507 53.596 55.4347C53.626 55.3584 53.6574 55.2819 53.6888 55.2056C53.8129 54.8973 53.9398 54.5808 54.0707 54.2521C54.2003 53.9234 54.3395 53.5892 54.4731 53.2345C54.5072 53.1445 54.5385 53.0559 54.5672 52.9686C54.5931 52.8894 54.6205 52.8103 54.6478 52.7298C54.6832 52.6221 54.7186 52.513 54.7554 52.4011L54.7501 52.6194L54.7473 52.7285V52.783L54.7446 52.8103L54.7377 52.854C54.7186 52.9754 54.7009 53.0968 54.6777 53.2223C54.6518 53.3491 54.6273 53.4787 54.5986 53.6055C54.6504 53.4855 54.6955 53.3628 54.7405 53.2455C54.7828 53.1281 54.8182 53.0149 54.8537 52.9031L54.8741 52.8349L54.8878 52.7871C54.896 52.7558 54.9041 52.7244 54.9123 52.6944C54.9273 52.633 54.9424 52.5716 54.956 52.513C55.0092 52.2742 55.0473 52.0533 55.0623 51.8405C55.0909 51.4135 55.0679 51.0316 55.0406 50.6592C54.9683 49.9077 54.8823 49.1943 55.106 48.1808C55.3379 48.0198 55.5602 47.8548 55.7839 47.6856C56.1917 45.7364 56.5778 43.7586 56.7483 41.7521C56.7824 41.2501 56.8151 40.7482 56.8274 40.2476V39.4946L56.8248 39.1181L56.8056 38.743C56.7769 38.2438 56.7429 37.7446 56.6678 37.2508C56.6337 37.0039 56.5969 36.7584 56.5559 36.5115C56.5041 36.2578 56.4577 36.0041 56.3922 35.7558C56.4823 35.8104 56.661 35.9167 56.7442 36.5851C56.706 36.0995 56.6569 35.3711 56.5382 34.5868C56.4223 33.8011 56.2409 32.95 56.0131 32.1997C55.7853 31.4495 55.522 30.7962 55.2778 30.3979C55.0419 29.9968 54.8345 29.8522 54.7322 30.0882C54.9491 29.9736 54.5535 28.9643 53.7883 27.8307C53.4037 27.266 52.9262 26.6768 52.4188 26.1502C51.9155 25.621 51.3726 25.1654 50.9075 24.8217C51.0766 24.8108 51.2553 24.7999 51.4244 24.7985C51.2048 24.6675 51.0003 24.5653 50.8243 24.4698C50.6443 24.3784 50.4752 24.3061 50.3237 24.2352C50.1737 24.1629 50.0264 24.1069 49.8872 24.0483C49.7454 23.9923 49.6172 23.9269 49.4712 23.8737C49.328 23.8177 49.1833 23.7564 49.0264 23.6868C48.8655 23.6241 48.691 23.5572 48.4987 23.4767C48.3023 23.4031 48.0812 23.3267 47.8316 23.2394C47.5751 23.1671 47.2942 23.073 46.9613 23.0075C46.6613 22.8943 46.533 22.8056 46.5917 22.7579C46.6203 22.7374 46.6967 22.7211 46.8153 22.7442C46.934 22.7661 47.0964 22.8125 47.2997 22.8929C47.1715 22.8452 47.0528 22.8016 46.941 22.7647C46.8291 22.7265 46.7254 22.6938 46.6258 22.6747C46.428 22.6324 46.2589 22.601 46.1075 22.586C45.9547 22.5778 45.821 22.5778 45.6941 22.5819C45.5687 22.5847 45.45 22.5942 45.33 22.6133C45.0885 22.6474 44.8363 22.672 44.4857 22.7129C44.3984 22.7211 44.3043 22.7279 44.202 22.7334C44.101 22.7443 43.9919 22.7565 43.8732 22.7661C43.7545 22.7756 43.6262 22.7838 43.4898 22.8029C43.3521 22.8207 43.202 22.8302 43.0411 22.8547C43.3398 22.7156 43.6508 22.5833 43.9714 22.4769C43.8309 22.4905 43.7 22.5001 43.5786 22.5178C43.4572 22.5383 43.3439 22.5574 43.2389 22.5751C43.0275 22.6078 42.8515 22.6624 42.6974 22.702C42.5419 22.7415 42.415 22.7934 42.3018 22.837C42.1886 22.8834 42.0904 22.923 42.0045 22.9707C41.6607 23.163 41.4452 23.3417 40.976 23.7318C40.905 23.7782 40.8287 23.8259 40.7482 23.875C40.6704 23.9269 40.5872 23.9815 40.5012 24.0346C40.3266 24.1383 40.1493 24.2638 39.9611 24.3811C39.5928 24.6293 39.2014 24.8926 38.8495 25.1572C38.1361 25.6729 37.5467 26.1543 37.3121 26.1639C37.2971 26.3412 37.1512 26.6918 36.9302 27.1187C36.7092 27.547 36.4105 28.0503 36.0491 28.54C35.8554 28.6137 36.0259 28.1963 36.1173 27.9863C35.5867 28.6833 35.2102 29.3448 34.9169 29.9586C34.6237 30.5738 34.4108 31.1426 34.2253 31.6828C33.8557 32.7617 33.5788 33.7206 33.0373 34.7587C32.9077 34.7655 32.7973 34.8883 32.7045 35.0601C33.1274 33.7916 33.5774 32.6362 33.9293 31.8492C34.2799 31.058 34.5159 30.6148 34.4804 30.713C34.329 30.6393 33.9989 31.1003 33.7602 31.3622C33.5201 31.6214 33.3455 31.6814 33.5037 30.762C33.2364 31.6446 32.9596 32.8518 32.6936 34.0767C32.4262 35.2907 32.1411 36.536 31.7755 37.5386C31.7169 37.63 31.6596 37.7173 31.5886 37.7786L31.6105 37.555C31.4482 38.0215 31.3609 38.4552 31.3173 38.8726C31.2041 39.1959 31.1167 39.4619 31.0376 39.7265C30.9571 39.9911 30.8834 40.2544 30.8152 40.5763C30.7334 40.624 30.6502 40.8 30.5684 41.0564C30.4907 41.3129 30.417 41.6498 30.3461 42.0126C30.2151 42.7437 30.1156 43.5881 30.0446 44.1392C30.4225 44.0969 30.1959 45.5155 30.657 44.2142C30.612 44.3833 30.6311 44.0027 30.7239 43.2812C30.7348 43.1161 30.7594 42.9252 30.7566 42.8147C30.7634 42.8365 30.7703 42.8638 30.7771 42.8938C30.8794 42.1845 31.0376 41.2624 31.2613 40.2271C31.2613 41.111 31.2382 42.0085 30.8521 43.1652C30.9299 43.4599 31.0076 43.7654 31.0758 44.0423C31.1494 44.3192 31.2108 44.5647 31.2476 44.7407C30.9134 45.4418 30.6175 46.5126 30.4279 47.4728C30.3733 47.7116 30.3379 47.9462 30.2943 48.1631C30.252 48.3813 30.2123 48.5832 30.1782 48.7619C30.11 49.1206 30.0405 49.3852 29.9655 49.4916C30.0637 50.3482 30.1823 51.2785 30.3665 52.2211C30.5574 53.1636 30.8126 54.1143 31.1359 55.0023C31.1932 55.1537 31.249 55.3038 31.3049 55.4525C31.3649 55.6216 31.4332 55.7716 31.4959 55.9258C31.631 56.2272 31.7756 56.5096 31.9106 56.7865C31.9802 56.9229 32.0429 57.0634 32.1152 57.1875C32.1889 57.3075 32.2611 57.4262 32.3334 57.5435C32.4043 57.6581 32.4753 57.77 32.5435 57.8818C32.613 57.9896 32.6772 58.1042 32.7509 58.1914C32.8927 58.3756 33.0291 58.5488 33.1573 58.7071C33.2228 58.7848 33.2829 58.8666 33.347 58.9307C33.4097 58.9935 33.4724 59.0535 33.5324 59.1135C33.6524 59.2281 33.7643 59.3304 33.8679 59.4177C33.9702 59.5077 34.0739 59.5596 34.1626 59.61C34.3222 59.7819 34.4423 59.947 34.5473 60.1038C34.655 60.258 34.7396 60.4066 34.8146 60.5512C34.9647 60.8404 35.0696 61.1118 35.2156 61.3574C35.0137 61.1773 34.7873 60.9372 34.5827 60.7313C34.3822 60.5212 34.209 60.3371 34.0931 60.2784C34.4559 60.6604 34.906 61.1337 35.3821 61.6343C35.5062 61.7625 35.633 61.8921 35.7599 62.023L35.9522 62.2194L36.1568 62.4213C36.4187 62.6559 36.7434 63.0829 36.8539 62.9028C36.9125 62.4813 36.9671 62.0735 37.0135 61.6888C37.053 61.3137 37.0775 60.9686 37.0953 60.6508C37.1116 60.3344 37.1199 60.0493 37.109 59.8065C37.0953 59.5637 37.0693 59.3618 37.0271 59.2049C37.143 58.6238 37.2208 58.4479 37.2699 58.4738C37.319 58.4984 37.3408 58.7234 37.3545 58.9089C37.3695 59.0931 37.379 59.2363 37.4144 59.0753C37.4226 59.0358 37.4336 58.9758 37.4459 58.8939C37.4513 58.853 37.4581 58.8052 37.4649 58.7534C37.4704 58.6989 37.4745 58.6361 37.48 58.5666C37.4991 58.2883 37.5237 57.8982 37.5523 57.3662C37.585 57.6035 37.6177 57.8477 37.6463 58.0987C37.69 57.86 37.7309 57.6172 37.7718 57.3717C37.795 57.1084 37.8155 56.8397 37.8332 56.571C37.8496 56.2968 37.866 56.0253 37.8824 55.758L37.8878 55.6557L37.885 55.5493L37.8783 55.3365C37.8728 55.1933 37.8673 55.0514 37.8619 54.9096C37.8482 54.6245 37.8346 54.3421 37.8223 54.0611L37.81 53.8511C37.8073 53.8156 37.806 53.7815 37.8033 53.746L37.7937 53.6642C37.7814 53.5715 37.7691 53.4801 37.7582 53.3887C37.7323 53.2073 37.705 53.0259 37.6791 52.8472C37.6518 52.6685 37.6246 52.4898 37.5823 52.3165C37.5059 51.9673 37.424 51.6236 37.3381 51.284C37.2372 50.947 37.1334 50.6156 37.0284 50.2869C36.9793 50.1218 36.9153 49.9609 36.8539 49.7999L36.6683 49.3184C36.6042 49.1588 36.5482 48.9978 36.4773 48.841C36.4078 48.6841 36.3383 48.5273 36.2674 48.3704C35.7054 47.1155 35.067 45.8892 34.344 44.5975C34.1626 44.2756 33.9703 43.9509 33.7861 43.6126C33.6975 43.4421 33.591 43.2784 33.4928 43.1079C33.3933 42.9374 33.2937 42.7656 33.1955 42.5882C32.7958 41.8858 32.3607 41.1465 31.8096 40.3676C32.1193 40.7932 32.2515 41.0128 32.2543 41.1451C31.6459 40.2967 30.8821 39.4892 29.9122 38.889C29.428 38.5944 28.8906 38.3556 28.3272 38.2029C27.7652 38.0501 27.1801 37.9819 26.6031 37.9928C25.4437 38.0133 24.3252 38.3434 23.3336 38.8603C22.3392 39.3787 21.4593 40.0784 20.7227 40.9037C19.9875 41.7289 19.3928 42.6837 19.0054 43.7299C18.6344 44.7612 18.423 45.8265 18.3452 46.8931C18.2689 47.9598 18.3193 49.0183 18.4421 50.055C18.5662 51.0916 18.764 52.1078 18.9945 53.105C19.2891 54.2303 19.5811 54.8045 19.8607 55.2533C20.0067 55.4756 20.1444 55.6707 20.3067 55.8753C20.469 56.0799 20.6423 56.3023 20.8429 56.5901L20.6927 57.2066C20.9233 57.5354 21.1839 57.8477 21.4335 58.1614C21.6858 58.4752 21.9313 58.7889 22.1864 59.0958C22.4333 59.4354 22.6501 59.7751 22.8466 60.1161C22.9448 60.2866 23.0376 60.4571 23.1276 60.629C23.2217 60.7967 23.3159 60.9645 23.4059 61.1337C23.5846 61.472 23.7537 61.8143 23.9187 62.1621C23.9992 62.3381 24.0906 62.5059 24.1806 62.6777C24.2706 62.8496 24.362 63.0229 24.4534 63.1975C25.1777 64.5956 26.1135 66.0415 27.7776 67.4082L27.6043 66.8272C27.8525 67.1136 28.1895 67.471 28.5482 67.8447C28.8988 68.2267 29.308 68.5895 29.6558 68.9346C29.8318 69.1051 29.9955 69.2674 30.1415 69.4161C30.2847 69.5661 30.421 69.6876 30.5206 69.798C30.7238 70.0149 30.8111 70.154 30.7129 70.1691C30.8616 70.2386 31.2681 70.2959 31.6159 70.7979L31.515 70.9847L33.0687 72.0405L34.6605 73.024C35.7995 73.9079 35.5949 74.0129 35.5294 74.2038C35.4967 74.2993 35.5007 74.4139 35.7326 74.6608C35.9644 74.9063 36.4446 75.2555 37.3462 75.8366C37.6981 76.0248 38.1469 76.2158 38.6025 76.4054C38.8317 76.4982 39.0608 76.5923 39.2886 76.6728C39.5192 76.7492 39.7429 76.8187 39.9516 76.8801C40.7864 77.127 41.3716 77.2375 41.1397 77.0424C40.5791 76.7451 39.7579 76.1926 39.8152 75.988L41.1314 76.5364C41.3797 76.3208 41.8135 76.1885 41.823 75.8721C41.8258 75.7152 41.7289 75.5092 41.4547 75.2255C41.3183 75.0836 41.1369 74.9214 40.9036 74.7372C40.7877 74.6445 40.6582 74.5462 40.5136 74.4412C40.3718 74.3334 40.2176 74.2148 40.0485 74.0866L38.938 73.6733C38.5684 73.5314 38.2097 73.3677 37.8428 73.2149L37.3639 72.5629L38.2029 73.0772L38.6217 73.335C38.7608 73.4209 38.8999 73.5082 39.0445 73.5846C38.9394 73.4877 38.8399 73.395 38.743 73.3091C38.6448 73.2245 38.5494 73.1495 38.4525 73.0812C38.2602 72.9448 38.072 72.8385 37.8837 72.7484C37.6955 72.6584 37.5073 72.5861 37.3191 72.5179C37.1335 72.4429 36.9508 72.3692 36.7625 72.2942C36.697 72.0569 36.4897 71.7786 36.1446 71.469C35.9577 71.4035 35.7776 71.3271 35.5962 71.2507L35.0505 71.0216L34.5023 70.7897C34.3181 70.7133 34.134 70.6356 33.9567 70.5469C33.8939 70.1841 35.0438 70.8306 33.9457 69.7476C33.4465 69.5116 33.557 69.7776 33.6102 69.9808C33.6634 70.184 33.6579 70.3245 32.9063 69.8171C32.7317 69.5866 32.6336 69.4079 32.5626 69.2647C32.4903 69.1228 32.4426 69.0164 32.3812 68.9182C32.2571 68.7218 32.0729 68.5595 31.5014 68.2048C31.4741 67.9634 31.7482 68.0807 32.1806 68.3767C31.6745 68.0657 31.1195 67.5255 30.5903 67.0604C30.3215 66.8313 30.0814 66.5994 29.8604 66.4166C29.6394 66.2352 29.4389 66.1001 29.2752 66.0442C29.207 65.9078 29.1129 65.7605 29.0011 65.6091C28.8906 65.4549 28.7719 65.2872 28.6396 65.1208C28.3777 64.7866 28.079 64.4428 27.8144 64.125C27.311 63.4662 26.9292 62.9165 27.1965 62.7869C27.1147 62.7337 26.9646 62.63 26.7941 62.4731C26.6236 62.3176 26.419 62.1212 26.2035 61.9043C25.9893 61.6861 25.7588 61.4501 25.5514 61.2087C25.3509 60.9618 25.1627 60.7163 25.0113 60.4926C25.4246 60.8117 25.4942 60.7558 25.3851 60.498C25.3305 60.3684 25.2309 60.1884 25.104 59.9783C25.0399 59.8733 24.9717 59.7614 24.8994 59.6428C24.8257 59.5255 24.759 59.3972 24.6853 59.269C24.5407 59.0126 24.3894 58.7452 24.2529 58.4902C24.1165 58.2351 23.9883 57.995 23.9119 57.7781C23.7483 57.3498 23.7086 57.062 23.9337 57.0879C23.7809 56.9665 23.6254 56.8042 23.4658 56.6105C23.3021 56.4182 23.1521 56.1863 22.9993 55.9299C22.6952 55.4156 22.3665 54.8059 22.0814 54.1539C21.795 53.5005 21.5316 52.8076 21.2902 52.1324C21.0487 51.4572 20.8455 50.8011 20.6368 50.2159C20.7104 50.3414 20.8714 50.5829 20.8851 50.7997C20.8223 50.4601 20.7801 50.1791 20.7692 49.9363C20.761 49.8149 20.7555 49.7031 20.7528 49.5967C20.7528 49.4916 20.7582 49.3934 20.7623 49.2979C20.7759 48.9187 20.8292 48.6064 20.8619 48.1876C20.7323 48.1521 20.6245 47.9994 20.529 47.7648C20.4772 47.6475 20.4472 47.5124 20.4131 47.3624C20.3968 47.2873 20.3805 47.2096 20.3654 47.1277C20.3586 47.0868 20.3505 47.0459 20.3423 47.0036C20.3382 46.9613 20.334 46.9204 20.3285 46.8768C20.2303 46.1866 20.2903 45.3804 20.3067 44.7871C20.4295 44.607 20.5208 44.4897 20.5972 44.4283C20.675 44.3697 20.731 44.3574 20.7705 44.3765C20.8101 44.3956 20.8346 44.4461 20.8497 44.5156C20.8647 44.5852 20.8769 44.682 20.8851 44.7816C20.9015 45.1826 20.9478 45.6942 21.2316 45.5182C21.1784 45.5155 21.1416 45.4718 21.117 45.3982C21.1047 45.3613 21.0952 45.3163 21.0884 45.2658C21.0843 45.2154 21.0856 45.1608 21.0884 45.0994C21.0925 44.978 21.1074 44.8375 21.1251 44.6875C21.1333 44.6111 21.1497 44.547 21.1634 44.4747C21.1756 44.4038 21.1906 44.3315 21.211 44.2619C21.3474 43.6945 21.5971 43.1816 21.3052 43.3112C21.4171 43.2048 21.5111 43.1148 21.5971 43.0397C21.6803 42.9633 21.7513 42.9006 21.8154 42.8488C21.9382 42.7424 22.0255 42.6728 22.1046 42.621C22.1823 42.5678 22.2504 42.5323 22.3473 42.5023C22.4428 42.4723 22.5601 42.4436 22.7401 42.4177C22.661 42.2704 22.6611 42.1395 22.7239 42.0208C22.7539 41.9608 22.7988 41.9021 22.852 41.8435C22.9079 41.7875 22.9734 41.7316 23.0444 41.6716C23.3349 41.4397 23.7196 41.2037 24.0538 40.7973C24.4685 40.6622 24.7167 40.6554 24.8736 40.6636C25.0304 40.6731 25.1041 40.7168 25.175 40.7359C25.2459 40.755 25.3141 40.7618 25.4627 40.725C25.6114 40.6868 25.8393 40.6049 26.2376 40.5067C26.4354 40.534 26.4872 40.5899 26.4654 40.6377C26.4422 40.6895 26.344 40.7372 26.2253 40.7973C25.9907 40.9009 25.6701 41.0428 25.6701 41.0428L25.6688 41.0387ZM34.119 37.6245C34.119 37.6245 34.1245 37.6259 34.1258 37.6272C34.0058 38.0596 33.913 38.4307 33.8543 38.668C33.9089 38.4511 33.9799 38.1497 34.119 37.6259V37.6245ZM35.5144 33.4819C35.3057 33.9689 35.0751 34.58 34.8514 35.2511C34.6809 35.3561 34.6101 35.1556 34.7615 34.7382C34.7615 34.9906 35.1734 34.0412 35.5144 33.4819ZM30.4565 41.9021C30.5397 41.1724 30.6598 40.9446 30.7566 40.8627C30.6898 41.201 30.6311 41.6007 30.5588 42.1258C30.5684 42.149 30.5779 42.1954 30.5888 42.2186C30.5315 42.1381 30.477 42.0467 30.4552 41.9008L30.4565 41.9021Z" fill="#477CCA"/>
<path d="M30.7239 43.277C30.7171 43.382 30.724 43.442 30.709 43.5771C30.7622 43.4352 30.8099 43.2988 30.8522 43.1611C30.8263 43.0683 30.8004 42.9728 30.7772 42.8896C30.7567 43.0192 30.7403 43.1556 30.7239 43.277Z" fill="#477CCA"/>
<path d="M144.731 69.7596L144.735 69.6669C144.725 69.7446 144.714 69.8156 144.692 69.8619C144.707 69.7992 144.719 69.7992 144.731 69.7583V69.7596Z" fill="#477CCA"/>
<path d="M49.7608 48.0589L49.668 48.0712C49.7021 48.1858 49.7389 48.2976 49.7799 48.4095C49.769 48.2936 49.7635 48.1762 49.7608 48.0589Z" fill="#477CCA"/>
<path d="M153.445 92.269C153.452 92.3263 153.49 92.4177 153.594 92.5746C153.602 92.5473 153.533 92.4205 153.445 92.269Z" fill="#477CCA"/>
<path d="M161.228 99.6714L161.785 100.194L162.353 100.703C162.112 100.475 161.902 100.282 161.715 100.115C161.532 99.9428 161.371 99.7982 161.228 99.6714Z" fill="#477CCA"/>
<path d="M167.912 104.534C168.034 104.534 168.086 104.507 168.133 104.484C168.127 104.48 168.124 104.477 168.12 104.473L167.913 104.534H167.912Z" fill="#477CCA"/>
<path d="M173.552 36.7538C173.768 36.7265 173.985 36.6883 174.206 36.6733C174.428 36.6637 174.653 36.6446 174.886 36.6583C174.147 36.5382 173.57 36.5478 173.552 36.7538Z" fill="#477CCA"/>
<path d="M160.032 107.534C160.032 107.534 160.029 107.531 160.03 107.526C159.965 107.593 159.906 107.651 159.839 107.718L160.032 107.534Z" fill="#477CCA"/>
<path d="M176.799 37.1498C176.756 37.1266 176.714 37.1034 176.672 37.083C176.628 37.0652 176.586 37.0475 176.544 37.0298C176.459 36.9943 176.374 36.9616 176.291 36.9302C176.208 36.9002 176.126 36.8675 176.044 36.8429C175.962 36.8224 175.881 36.8034 175.801 36.7829C175.642 36.7488 175.486 36.7079 175.334 36.6942C175.181 36.6778 175.032 36.6656 174.888 36.6574C175.496 36.7515 176.19 36.9711 176.799 37.1484V37.1498Z" fill="#477CCA"/>
<path d="M175.366 106.744L176.572 107.392C176.974 107.608 177.385 107.807 177.791 108.014C177.415 107.685 176.928 107.25 178.07 107.735C176.595 106.83 176.729 106.964 176.817 107.152C176.908 107.336 176.963 107.556 175.366 106.744Z" fill="#477CCA"/>
<path d="M168.067 102.48C169.347 103.188 168.161 102.296 168.272 102.268C167.426 101.878 167.217 101.784 168.067 102.48Z" fill="#477CCA"/>
<path d="M150.533 52.2604L150.724 52.5755C150.87 52.3423 150.945 52.2249 150.964 52.1704C150.983 52.1158 150.948 52.1268 150.892 52.1581C150.776 52.2195 150.58 52.375 150.535 52.2591L150.533 52.2604Z" fill="#477CCA"/>
<path d="M157.681 42.7943C157.333 42.958 156.982 43.1217 156.641 43.3018L156.401 43.8761L157.034 43.3277C157.246 43.1436 157.465 42.973 157.682 42.7957L157.681 42.7943Z" fill="#477CCA"/>
<path d="M164.838 41.354C164.699 41.4331 164.564 41.519 164.429 41.6049C164.69 41.4467 164.961 41.3076 165.229 41.1602C165.496 41.0129 165.765 40.8656 166.039 40.7319C165.631 40.9229 165.238 41.1466 164.838 41.354Z" fill="#477CCA"/>
<path d="M148.948 113.167L149.472 113.284C150.019 112.75 149.851 112.293 148.948 113.167Z" fill="#477CCA"/>
<path d="M107.696 119.262C107.286 118.929 106.138 118.472 105.35 118.455C106.288 118.756 107.196 119.175 107.696 119.262Z" fill="#477CCA"/>
<path d="M49.9435 36.0827L50.3991 35.2206L49.9094 35.9913C49.7539 36.2532 49.6066 36.522 49.4565 36.7852L49.9435 36.0827Z" fill="#477CCA"/>
<path d="M88.6394 151.266L67.6524 135.026L59.5459 147.152L53.2837 120.938L25.7847 144.17L38.5111 206.013L49.5025 211.936L88.6394 151.266Z" fill="url(#paint0_linear_2284_859)"/>
<path d="M149.014 219.624L131.469 116.007C130.578 110.749 126.393 106.666 121.114 105.905L79.7336 99.9467C73.6637 99.0737 67.8816 102.811 66.1861 108.704L37.7159 207.686C36.7215 211.143 37.293 214.861 39.279 217.859C41.2651 220.858 44.4665 222.834 48.0362 223.266L135.433 233.86C135.927 233.92 136.42 233.95 136.911 233.95C140.245 233.95 143.463 232.59 145.793 230.147C148.466 227.344 149.661 223.442 149.014 219.623V219.624Z" fill="url(#paint1_linear_2284_859)"/>
<path d="M98.8113 97.9939C122.093 97.9939 140.967 79.1203 140.967 55.8384C140.967 32.5566 122.093 13.6829 98.8113 13.6829C75.5294 13.6829 56.6558 32.5566 56.6558 55.8384C56.6558 79.1203 75.5294 97.9939 98.8113 97.9939Z" fill="url(#paint2_radial_2284_859)"/>
<path d="M106.497 55.6053C105.174 55.6053 103.837 55.3448 102.518 54.8278C100.674 54.1022 99.5376 53.1296 99.4898 53.0887L99.2319 52.865L99.2606 52.5253C99.2769 52.3385 99.7025 47.9244 103.797 45.3873C104.451 44.9795 105.172 44.6412 105.938 44.3834L105.959 44.3752C112.617 42.1287 116.154 46.2617 116.302 46.439L116.472 46.645L116.454 46.911C116.445 47.046 116.205 50.2351 113.598 52.7709C112.553 53.7912 111.263 54.5632 109.764 55.0666C109.03 55.3148 108.269 55.4785 107.504 55.5549C107.414 55.563 107.329 55.5712 107.244 55.5767C106.995 55.5958 106.744 55.6053 106.494 55.6053H106.497ZM100.645 52.2948C101.053 52.5935 101.885 53.1419 103.008 53.5838C104.387 54.1254 105.782 54.3477 107.153 54.244C107.231 54.2386 107.303 54.2317 107.378 54.2249C108.038 54.1594 108.701 54.0149 109.341 53.7994C110.649 53.3601 111.767 52.6931 112.668 51.8133C114.486 50.0442 114.972 47.8535 115.089 47.0937C114.341 46.3544 111.418 43.9469 106.397 45.6383L106.373 45.6465C105.703 45.8702 105.074 46.1648 104.504 46.5208C101.607 48.3159 100.831 51.2854 100.645 52.2948Z" fill="#191919"/>
<path d="M106.799 70.4306L118.592 60.1785C118.592 60.1785 119.96 71.0512 114.896 73.1996C109.434 75.5171 106.8 70.4306 106.8 70.4306H106.799Z" fill="#191919"/>
<path d="M112.149 74.475C108.197 74.475 106.23 70.7839 106.206 70.7389L105.964 70.2724L119.099 58.854L119.255 60.0967C119.314 60.5605 120.625 71.4973 115.157 73.8162C114.05 74.2854 113.048 74.4763 112.149 74.4763V74.475ZM107.664 70.5643C108.411 71.6582 110.691 74.2581 114.634 72.5844C118.204 71.0704 118.205 64.3879 118.036 61.5466L107.664 70.5643Z" fill="#191919"/>
<path d="M80.8827 64.5794C80.659 64.5794 80.4353 64.5712 80.2144 64.5548C76.5888 64.297 74.3476 62.015 74.2535 61.9181L74.0679 61.7258V61.4584C74.0652 61.2279 74.1034 55.7813 80.6549 53.2074L80.6713 53.2019C81.4106 52.9087 82.1799 52.7013 82.9479 52.5908C87.7097 51.8911 90.8838 54.9888 91.0161 55.1211L91.2576 55.3612L91.2044 55.6981C91.1949 55.7595 90.9534 57.2368 90.0122 58.98C89.1679 60.5418 88.0426 61.8117 86.669 62.7529C86.0347 63.188 85.3472 63.5522 84.6243 63.8373C83.6217 64.2342 82.6041 64.4743 81.6016 64.5507C81.3615 64.5684 81.1214 64.578 80.8813 64.578L80.8827 64.5794ZM75.4197 61.1774C76.0022 61.6835 77.7836 63.0421 80.3112 63.2221C80.7027 63.2508 81.1023 63.2494 81.5006 63.2194C82.3695 63.1526 83.2548 62.9425 84.1346 62.5947C84.7648 62.3464 85.3623 62.0286 85.9133 61.6508C87.111 60.8296 88.093 59.7179 88.8364 58.3443C89.4093 57.2831 89.6903 56.3283 89.8103 55.8359C89.0192 55.1852 86.5094 53.4147 83.1402 53.9112C82.4746 54.0067 81.8062 54.1868 81.1528 54.4459L81.1351 54.4528C76.2314 56.3802 75.5234 60.1367 75.4211 61.1761L75.4197 61.1774Z" fill="#191919"/>
<path d="M99.9277 52.582C99.9277 52.582 101.004 53.5137 102.764 54.2053C103.967 54.6772 105.489 55.0387 107.203 54.9105C108.915 53.204 109.581 50.596 108.697 48.1776C108.202 46.8231 107.299 45.7373 106.175 45.0089L106.161 45.0144C105.4 45.2694 104.736 45.5914 104.151 45.9556C100.295 48.3454 99.9277 52.5834 99.9277 52.5834V52.582Z" fill="#191919"/>
<path d="M106.5 55.4999C105.186 55.4999 103.864 55.2421 102.558 54.7292C100.73 54.0104 99.606 53.0487 99.5596 53.0078L99.3413 52.8196L99.366 52.5331C99.3823 52.349 99.8037 47.9841 103.854 45.4743C104.501 45.0705 105.215 44.7349 105.973 44.4799L106.245 44.3803L106.482 44.5344C107.755 45.361 108.704 46.5532 109.227 47.9827C110.155 50.5225 109.517 53.3979 107.601 55.3076L107.453 55.4549L107.245 55.4699C106.996 55.489 106.747 55.4972 106.498 55.4972L106.5 55.4999ZM100.532 52.3394C100.925 52.6313 101.788 53.2151 102.971 53.6803C104.294 54.2 105.632 54.4291 106.951 54.3609C108.444 52.7623 108.924 50.4339 108.169 48.3701C107.763 47.257 107.048 46.3159 106.095 45.6338C105.51 45.848 104.957 46.1167 104.451 46.4318C101.442 48.2964 100.696 51.3819 100.532 52.3381V52.3394Z" fill="#191919"/>
<path d="M74.7344 61.4535C74.7344 61.4535 76.8499 63.6455 80.2627 63.8883C80.6733 63.9183 81.103 63.9197 81.5518 63.8856C83.4505 62.1915 84.228 59.4484 83.3018 56.9113C82.8258 55.6086 81.9706 54.5542 80.9066 53.8258L80.8998 53.8286C74.7003 56.2647 74.7344 61.4535 74.7344 61.4535Z" fill="#191919"/>
<path d="M80.8811 64.4735C80.6587 64.4735 80.4392 64.4653 80.2209 64.4489C76.6349 64.1938 74.421 61.9391 74.3282 61.8436L74.1715 61.6813V61.4562C74.1687 61.2284 74.2069 55.8514 80.6929 53.302L80.7079 53.2966L80.982 53.1943L81.2236 53.3593C82.428 54.1832 83.3282 55.344 83.8301 56.7162C84.8163 59.4143 84.0688 62.392 81.9259 64.3043L81.7841 64.4312L81.5945 64.4462C81.3572 64.4639 81.1185 64.4735 80.8825 64.4735H80.8811ZM75.3104 61.2202C75.8587 61.7058 77.6852 63.1394 80.3028 63.3249C80.637 63.3495 80.9766 63.3522 81.3163 63.3345C83.0036 61.729 83.5765 59.3038 82.7717 57.1036C82.3857 56.0478 81.7173 55.1407 80.8279 54.4642C76.0333 56.4775 75.3949 60.2545 75.3104 61.2202Z" fill="#191919"/>
<path d="M53.2843 120.938L25.7853 144.172C25.7853 144.172 19.5831 136.081 18.3541 130.74C17.1251 125.4 15.0858 117.517 21.5554 109.421C28.025 101.324 36.6717 100.463 41.0434 103.767C45.4151 107.07 53.2856 120.938 53.2856 120.938H53.2843Z" fill="url(#paint3_linear_2284_859)"/>
<path d="M100.188 68.6383C100.113 68.6383 100.035 68.6247 99.9602 68.5987L91.3928 65.4915L97.1954 61.683L90.918 42.8416C90.8007 42.4911 90.9904 42.1133 91.3409 41.9973C91.6901 41.88 92.0693 42.0696 92.1852 42.4201L98.7885 62.2369L94.3567 65.145L100.417 67.3438C100.764 67.4693 100.944 67.8526 100.817 68.199C100.719 68.4705 100.462 68.6396 100.189 68.6396L100.188 68.6383Z" fill="#191919"/>
<path d="M133.709 128.245L107.281 130.636L109.598 145.036L97.0739 137.366L82.8389 165.837L134.262 202.473L146.344 199.328L133.709 128.245Z" fill="url(#paint4_linear_2284_859)"/>
<path d="M68.3881 102.128C70.6728 90.8366 60.7645 81.92 52.2761 80.695L38.352 68.5906L30.7134 77.5823L40.1798 91.3386C40.3326 95.2793 42.2027 98.7644 45.0058 101.576L33.6202 113.585C32.2725 115.006 32.1525 117.195 33.3378 118.754C34.755 120.62 37.4654 120.873 39.2032 119.301L52.9731 106.848C55.0819 107.745 57.2903 108.38 59.4632 108.714L68.3881 102.129V102.128Z" fill="url(#paint5_linear_2284_859)"/>
<path d="M40.6851 123.242C40.6851 123.242 36.4919 112.428 38.6989 109.339C40.906 106.249 45.7619 109.56 46.8654 113.753C47.9689 117.946 48.6306 120.595 48.6306 120.595L40.6851 123.244V123.242Z" fill="url(#paint6_linear_2284_859)"/>
<path d="M111.671 116.402C117.379 108.259 118.009 98.8559 113.078 95.3992C108.146 91.9424 99.5216 95.7411 93.8136 103.884C88.1057 112.026 87.4761 121.43 92.4073 124.886C97.3386 128.343 105.963 124.545 111.671 116.402Z" fill="url(#paint7_linear_2284_859)"/>
<path fill-rule="evenodd" clip-rule="evenodd" d="M114.002 99.4635C114.368 99.4194 114.701 99.6809 114.745 100.047C115.265 104.375 113.678 109.872 110.202 114.83L110.202 114.83C106.982 119.425 102.78 122.648 98.8091 123.884C98.4567 123.994 98.082 123.797 97.9723 123.445C97.8626 123.092 98.0593 122.718 98.4118 122.608C102.039 121.479 106.016 118.474 109.108 114.063C112.45 109.296 113.888 104.123 113.418 100.207C113.374 99.8403 113.635 99.5075 114.002 99.4635Z" fill="#191919"/>
<path d="M82.8927 144.065L76.1748 139.356L92.9865 120.599L95.7706 122.552L82.8927 144.065Z" fill="url(#paint8_linear_2284_859)"/>
<path fill-rule="evenodd" clip-rule="evenodd" d="M87.9524 114.108C88.0783 113.761 88.4617 113.582 88.8087 113.708L93.872 115.546C94.219 115.671 94.3982 116.055 94.2723 116.402C94.1464 116.749 93.763 116.928 93.416 116.802L88.3527 114.965C88.0057 114.839 87.8265 114.455 87.9524 114.108Z" fill="white"/>
<path fill-rule="evenodd" clip-rule="evenodd" d="M89.8546 107.867C90.0784 107.573 90.4978 107.516 90.7914 107.74L94.7729 110.775C95.0665 110.999 95.1231 111.418 94.8993 111.712C94.6755 112.005 94.2561 112.062 93.9625 111.838L89.981 108.803C89.6874 108.58 89.6309 108.16 89.8546 107.867Z" fill="white"/>
<path fill-rule="evenodd" clip-rule="evenodd" d="M93.3067 102.286C93.5906 102.05 94.012 102.089 94.2479 102.373L97.1629 105.881C97.3988 106.165 97.3598 106.587 97.0759 106.823C96.792 107.059 96.3706 107.02 96.1347 106.736L93.2197 103.227C92.9838 102.944 93.0228 102.522 93.3067 102.286Z" fill="white"/>
<path fill-rule="evenodd" clip-rule="evenodd" d="M97.794 96.9951C98.1135 96.8101 98.5224 96.9192 98.7074 97.2386L101.802 102.584C101.987 102.904 101.878 103.313 101.559 103.498C101.239 103.683 100.831 103.574 100.646 103.254L97.5505 97.9084C97.3656 97.5889 97.4746 97.18 97.794 96.9951Z" fill="white"/>
<path fill-rule="evenodd" clip-rule="evenodd" d="M102.216 93.1825C102.553 93.0304 102.949 93.1798 103.101 93.5162L105.687 99.2369C105.839 99.5733 105.69 99.9692 105.353 100.121C105.017 100.273 104.621 100.124 104.469 99.7876L101.883 94.0668C101.731 93.7305 101.88 93.3345 102.216 93.1825Z" fill="white"/>
<path fill-rule="evenodd" clip-rule="evenodd" d="M109.387 91.9014C109.754 91.8618 110.084 92.1273 110.123 92.4943L110.807 98.8371C110.847 99.2041 110.581 99.5337 110.214 99.5732C109.847 99.6128 109.517 99.3473 109.478 98.9803L108.794 92.6375C108.755 92.2705 109.02 91.9409 109.387 91.9014Z" fill="white"/>
<path fill-rule="evenodd" clip-rule="evenodd" d="M97.3608 102.432C97.6475 102.199 98.0684 102.243 98.3009 102.53L101.969 107.055C102.201 107.341 102.157 107.762 101.87 107.995C101.584 108.227 101.163 108.183 100.93 107.896L97.2625 103.372C97.03 103.085 97.074 102.664 97.3608 102.432Z" fill="white"/>
<path fill-rule="evenodd" clip-rule="evenodd" d="M103.179 99.4763C103.515 99.3239 103.911 99.4729 104.064 99.809L106.175 104.466C106.328 104.802 106.179 105.198 105.843 105.351C105.507 105.503 105.11 105.354 104.958 105.018L102.846 100.361C102.694 100.025 102.843 99.6288 103.179 99.4763Z" fill="white"/>
<path fill-rule="evenodd" clip-rule="evenodd" d="M106.601 95.8365C106.966 95.7807 107.307 96.0313 107.363 96.3961L108.326 102.691C108.382 103.056 108.131 103.397 107.766 103.453C107.401 103.509 107.06 103.258 107.005 102.893L106.041 96.5983C105.986 96.2334 106.236 95.8924 106.601 95.8365Z" fill="white"/>
<path fill-rule="evenodd" clip-rule="evenodd" d="M94.8857 108.707C95.1091 108.413 95.5284 108.355 95.8223 108.579L99.9675 111.728C100.261 111.952 100.319 112.371 100.095 112.665C99.8721 112.959 99.4527 113.016 99.1588 112.793L95.0136 109.643C94.7197 109.42 94.6624 109 94.8857 108.707Z" fill="white"/>
<path fill-rule="evenodd" clip-rule="evenodd" d="M92.6592 112.949C92.8109 112.612 93.2066 112.462 93.5432 112.614L97.4429 114.371C97.7795 114.522 97.9294 114.918 97.7778 115.255C97.6262 115.591 97.2304 115.741 96.8939 115.59L92.9941 113.833C92.6575 113.681 92.5076 113.285 92.6592 112.949Z" fill="white"/>
<path fill-rule="evenodd" clip-rule="evenodd" d="M90.6007 118.114C90.6327 117.746 90.9567 117.474 91.3245 117.506L95.7002 117.886C96.0679 117.918 96.3401 118.242 96.3081 118.61C96.2761 118.978 95.9521 119.25 95.5844 119.218L91.2086 118.837C90.8409 118.805 90.5687 118.481 90.6007 118.114Z" fill="white"/>
<path fill-rule="evenodd" clip-rule="evenodd" d="M98.1649 113.44C98.3909 113.148 98.8107 113.095 99.1026 113.321L102.428 115.896C102.72 116.122 102.773 116.542 102.547 116.834C102.321 117.126 101.901 117.179 101.61 116.953L98.2841 114.378C97.9922 114.152 97.9389 113.732 98.1649 113.44Z" fill="white"/>
<path fill-rule="evenodd" clip-rule="evenodd" d="M101.493 110.156C101.796 109.945 102.213 110.021 102.423 110.324L104.732 113.652C104.943 113.955 104.868 114.372 104.564 114.582C104.261 114.793 103.845 114.718 103.634 114.414L101.325 111.086C101.114 110.783 101.19 110.366 101.493 110.156Z" fill="white"/>
<path fill-rule="evenodd" clip-rule="evenodd" d="M103.072 105.764C103.339 105.509 103.762 105.518 104.017 105.785L107.539 109.475C107.793 109.742 107.784 110.165 107.517 110.42C107.25 110.675 106.827 110.665 106.572 110.398L103.05 106.708C102.795 106.441 102.805 106.018 103.072 105.764Z" fill="white"/>
<path fill-rule="evenodd" clip-rule="evenodd" d="M107.013 103.404C107.345 103.243 107.745 103.381 107.906 103.713L109.706 107.418C109.868 107.75 109.729 108.15 109.397 108.311C109.065 108.472 108.666 108.334 108.504 108.002L106.704 104.297C106.542 103.965 106.681 103.565 107.013 103.404Z" fill="white"/>
<path fill-rule="evenodd" clip-rule="evenodd" d="M111.24 100.208C111.608 100.226 111.893 100.539 111.875 100.908L111.66 105.4C111.642 105.769 111.329 106.053 110.96 106.035C110.591 106.018 110.307 105.704 110.325 105.336L110.54 100.844C110.558 100.475 110.871 100.191 111.24 100.208Z" fill="white"/>
<path fill-rule="evenodd" clip-rule="evenodd" d="M96.4073 116.645C96.6192 116.343 97.036 116.27 97.3382 116.482L100.778 118.893C101.081 119.105 101.154 119.522 100.942 119.824C100.73 120.126 100.313 120.2 100.011 119.988L96.5709 117.576C96.2686 117.364 96.1954 116.947 96.4073 116.645Z" fill="white"/>
<path fill-rule="evenodd" clip-rule="evenodd" d="M93.0911 120.825C93.1294 120.458 93.4582 120.191 93.8253 120.23L97.9229 120.658C98.29 120.696 98.5565 121.025 98.5182 121.392C98.4798 121.759 98.1511 122.026 97.7839 121.987L93.6864 121.559C93.3192 121.521 93.0527 121.192 93.0911 120.825Z" fill="white"/>
<path d="M97.0741 137.367L82.8391 165.837C82.8391 165.837 67.2795 159.216 64.962 154.251C62.6445 149.286 59.0026 142.002 63.6375 132.733C68.2725 123.463 76.5482 120.815 81.5147 123.133C86.4798 125.45 97.0741 137.368 97.0741 137.368V137.367Z" fill="url(#paint9_linear_2284_859)"/>
<path fill-rule="evenodd" clip-rule="evenodd" d="M38.1197 67.9621C38.4661 67.8344 38.8504 68.0116 38.9781 68.3579L38.351 68.5892C38.9781 68.3579 38.9782 68.3583 38.9783 68.3586L38.9786 68.3593L38.9792 68.3611L38.9808 68.3654C38.982 68.3687 38.9835 68.3729 38.9852 68.3778C38.9887 68.3878 38.9932 68.4009 38.9986 68.4172C39.0094 68.4498 39.0237 68.4949 39.0402 68.5517C39.0733 68.6652 39.1153 68.8257 39.1556 69.0259C39.2359 69.4254 39.3103 69.9879 39.2899 70.6523C39.249 71.9888 38.823 73.7333 37.3137 75.3628C35.83 76.9654 34.1789 77.6897 32.8956 78.0104C32.2553 78.1704 31.7061 78.2303 31.3125 78.2498C31.1155 78.2596 30.9567 78.2594 30.8441 78.2564C30.7878 78.2549 30.7429 78.2527 30.7105 78.2508C30.6943 78.2498 30.6812 78.2489 30.6713 78.2481C30.6663 78.2477 30.6622 78.2474 30.6589 78.2471L30.6545 78.2468L30.6528 78.2466L30.6521 78.2465C30.6518 78.2465 30.6514 78.2465 30.7124 77.5809L30.6514 78.2465C30.2838 78.2128 30.0131 77.8875 30.0468 77.5199C30.0804 77.1531 30.4044 76.8828 30.771 76.9151C30.7708 76.9151 30.7707 76.9151 30.7707 76.9151L30.7714 76.9151L30.7727 76.9152C30.773 76.9153 30.7733 76.9153 30.7133 77.5707L30.7733 76.9153C30.7725 76.9152 30.7718 76.9151 30.771 76.9151C30.7714 76.9151 30.772 76.9152 30.7729 76.9152C30.7758 76.9155 30.7819 76.9159 30.7909 76.9164C30.8089 76.9175 30.8388 76.919 30.8795 76.9201C30.961 76.9223 31.0857 76.9227 31.2461 76.9147C31.5674 76.8988 32.0287 76.8492 32.5715 76.7135C33.6541 76.443 35.0584 75.8312 36.3328 74.4547L36.3329 74.4546C37.5829 73.1051 37.9208 71.6898 37.9538 70.6113C37.9705 70.0682 37.9094 69.6094 37.845 69.2895C37.813 69.1299 37.7803 69.0062 37.7568 68.9254C37.745 68.885 37.7356 68.8555 37.7297 68.8376C37.7267 68.8287 37.7247 68.8228 37.7236 68.8198C37.7233 68.819 37.7231 68.8184 37.723 68.818M38.1197 67.9621C37.7742 68.0895 37.597 68.4723 37.723 68.818Z" fill="#191919"/>
<path fill-rule="evenodd" clip-rule="evenodd" d="M48.2699 103.457C48.5319 103.197 48.9549 103.198 49.2149 103.46C49.215 103.46 49.2151 103.46 49.2152 103.461L48.7406 103.931L48.2661 104.402C48.0062 104.14 48.0079 103.717 48.2699 103.457ZM52.7016 107.456C53.9586 108.013 55.2708 108.345 56.2587 108.537C56.755 108.634 57.1747 108.697 57.4718 108.736C57.6205 108.755 57.7388 108.769 57.8209 108.777C57.862 108.782 57.8941 108.785 57.9165 108.787C57.9276 108.788 57.9364 108.789 57.9426 108.789L57.9501 108.79L57.9524 108.79L57.9535 108.79C57.9536 108.79 57.9537 108.79 58.0084 108.135L57.9537 108.79C58.3216 108.821 58.6447 108.548 58.6754 108.18C58.706 107.812 58.4328 107.489 58.0651 107.458L58.0649 107.458M58.0649 107.458L58.0606 107.458C58.0593 107.458 58.0577 107.458 58.0558 107.457C58.0521 107.457 58.0473 107.457 58.0415 107.456C58.0239 107.454 57.9968 107.452 57.9608 107.448C57.8888 107.44 57.7816 107.428 57.6447 107.41C57.3708 107.375 56.9792 107.316 56.5149 107.225C55.5816 107.043 54.3753 106.735 53.2426 106.234L53.2423 106.234C52.1162 105.735 51.107 105.043 50.373 104.466C50.0078 104.179 49.7151 103.925 49.5149 103.743C49.4149 103.652 49.3382 103.58 49.2873 103.531C49.2619 103.507 49.243 103.488 49.2309 103.476C49.2248 103.47 49.2204 103.466 49.2178 103.463L49.2152 103.461M52.7013 107.456C51.4377 106.897 50.3314 106.133 49.5473 105.517C49.1533 105.208 48.8363 104.932 48.6165 104.733C48.5066 104.633 48.4207 104.552 48.3615 104.495C48.3319 104.467 48.309 104.444 48.293 104.429C48.285 104.421 48.2787 104.414 48.2742 104.41L48.2688 104.405L48.2671 104.403L48.2663 104.402C48.2662 104.402 48.2661 104.402 48.7406 103.931" fill="#191919"/>
<path fill-rule="evenodd" clip-rule="evenodd" d="M134.925 127.411C134.97 127.777 134.708 128.11 134.342 128.154L106.865 131.465C106.498 131.509 106.165 131.248 106.121 130.881C106.077 130.515 106.338 130.182 106.705 130.138L134.182 126.827C134.548 126.783 134.881 127.044 134.925 127.411Z" fill="#191919"/>
<path fill-rule="evenodd" clip-rule="evenodd" d="M109.024 144.696C109.213 144.378 109.623 144.274 109.94 144.462L125.002 153.401C125.319 153.589 125.424 153.999 125.236 154.316C125.047 154.634 124.637 154.739 124.32 154.55L109.258 145.612C108.941 145.423 108.836 145.013 109.024 144.696Z" fill="#191919"/>
<path fill-rule="evenodd" clip-rule="evenodd" d="M58.5359 133.197C58.8891 133.304 59.0883 133.677 58.9809 134.031L47.5053 171.769C47.3979 172.123 47.0245 172.322 46.6714 172.214C46.3182 172.107 46.119 171.734 46.2264 171.381L57.702 133.642C57.8094 133.289 58.1827 133.089 58.5359 133.197Z" fill="#191919"/>
</g>
<defs>
<linearGradient id="paint0_linear_2284_859" x1="58.6825" y1="201.701" x2="56.365" y2="116.622" gradientUnits="userSpaceOnUse">
<stop stop-color="#FFC895"/>
<stop offset="1" stop-color="#B5EADD"/>
</linearGradient>
<linearGradient id="paint1_linear_2284_859" x1="125.696" y1="227.29" x2="44.2578" y2="103.478" gradientUnits="userSpaceOnUse">
<stop stop-color="#2B66BD"/>
<stop offset="1" stop-color="#D0D4F9"/>
</linearGradient>
<radialGradient id="paint2_radial_2284_859" cx="0" cy="0" r="1" gradientUnits="userSpaceOnUse" gradientTransform="translate(94.977 36.2877) rotate(180) scale(66.3125 66.3126)">
<stop stop-color="#FFC895"/>
<stop offset="1" stop-color="#B5EADD"/>
</radialGradient>
<linearGradient id="paint3_linear_2284_859" x1="37.3646" y1="202.283" x2="35.0471" y2="117.204" gradientUnits="userSpaceOnUse">
<stop stop-color="#FFC895"/>
<stop offset="1" stop-color="#B5EADD"/>
</linearGradient>
<linearGradient id="paint4_linear_2284_859" x1="115.071" y1="200.165" x2="112.754" y2="115.086" gradientUnits="userSpaceOnUse">
<stop stop-color="#FFC895"/>
<stop offset="1" stop-color="#B5EADD"/>
</linearGradient>
<linearGradient id="paint5_linear_2284_859" x1="42.5044" y1="117.143" x2="55.1965" y2="68.1865" gradientUnits="userSpaceOnUse">
<stop stop-color="#FFC895"/>
<stop offset="1" stop-color="#B5EADD"/>
</linearGradient>
<linearGradient id="paint6_linear_2284_859" x1="45.676" y1="202.056" x2="43.3586" y2="116.977" gradientUnits="userSpaceOnUse">
<stop stop-color="#FFC895"/>
<stop offset="1" stop-color="#B5EADD"/>
</linearGradient>
<linearGradient id="paint7_linear_2284_859" x1="102.899" y1="110.189" x2="112.499" y2="121.444" gradientUnits="userSpaceOnUse">
<stop stop-color="#FFC895"/>
<stop offset="1" stop-color="#B5EADD"/>
</linearGradient>
<linearGradient id="paint8_linear_2284_859" x1="82.8122" y1="127.249" x2="92.4123" y2="138.503" gradientUnits="userSpaceOnUse">
<stop stop-color="#FFC895"/>
<stop offset="1" stop-color="#B5EADD"/>
</linearGradient>
<linearGradient id="paint9_linear_2284_859" x1="80.9103" y1="201.096" x2="78.5928" y2="116.017" gradientUnits="userSpaceOnUse">
<stop stop-color="#FFC895"/>
<stop offset="1" stop-color="#B5EADD"/>
</linearGradient>
</defs>
</svg>
