<svg width="31" height="32" viewBox="0 0 31 32" fill="none" xmlns="http://www.w3.org/2000/svg">
<path d="M28.625 5.25L16.625 0.25C16.3125 0.125 15.8125 0 15.5 0C15.125 0 14.625 0.125 14.3125 0.25L2.3125 5.25C1.1875 5.75 0.5 6.8125 0.5 8C0.5 24.125 12.3125 32 15.4375 32C18.6875 32 30.5 24 30.5 8C30.5 6.8125 29.75 5.75 28.625 5.25ZM15.4375 29C9.6875 26.625 3.5 19 3.5 8.0625L15.375 3.0625C15.4375 3.0625 15.4375 3.0625 15.5 3.0625L27.5 8C27.5 20.6875 19.625 27.3125 15.4375 29ZM10.5 14.5C9.625 14.5 9 15.1875 9 16C9 16.8125 9.6875 17.4375 10.5 17.4375H20.5C21.3125 17.4375 21.9375 16.75 21.9375 16C21.9375 15.1875 21.3125 14.5 20.5 14.5H10.5Z" fill="#5956FE"/>
</svg>
