<svg width="38" height="38" viewBox="0 0 38 38" fill="none" xmlns="http://www.w3.org/2000/svg">
<path d="M19.25 0.34375C29.3438 0.34375 37.6562 8.65625 37.6562 18.75C37.6562 28.918 29.3438 37.1562 19.25 37.1562C9.08203 37.1562 0.84375 28.918 0.84375 18.75C0.84375 8.65625 9.08203 0.34375 19.25 0.34375ZM19.25 3.90625C11.0117 3.90625 4.40625 10.5859 4.40625 18.75C4.40625 26.9883 11.0117 33.5938 19.25 33.5938C27.4141 33.5938 34.0938 26.9883 34.0938 18.75C34.0938 10.5859 27.4141 3.90625 19.25 3.90625ZM29.6406 13.6289C29.9375 13.9258 29.9375 14.5195 29.6406 14.8906L16.8008 27.582C16.4297 27.9531 15.9102 27.9531 15.5391 27.582L8.78516 20.7539C8.48828 20.457 8.48828 19.8633 8.78516 19.4922L10.4922 17.8594C10.8633 17.4883 11.3828 17.4883 11.7539 17.8594L16.207 22.3125L26.6719 11.9219C27.043 11.5508 27.6367 11.5508 27.9336 11.9219L29.6406 13.6289Z" fill="#5956FE"/>
</svg>
