<svg width="21" height="29" viewBox="0 0 21 29" fill="none" xmlns="http://www.w3.org/2000/svg">
<path d="M9.1875 27.8438C6.34375 24.2891 0 15.8125 0 11C0 5.20312 4.64844 0.5 10.5 0.5C16.2969 0.5 21 5.20312 21 11C21 15.8125 14.6016 24.2891 11.7578 27.8438C11.1016 28.6641 9.84375 28.6641 9.1875 27.8438ZM17.5 14.1719C18.1016 12.75 18.375 11.7109 18.375 11C18.375 6.67969 14.8203 3.125 10.5 3.125C6.125 3.125 2.625 6.67969 2.625 11C2.625 11.7109 2.84375 12.75 3.44531 14.1719C3.99219 15.4844 4.8125 17.0156 5.74219 18.5469C7.32812 21.0625 9.13281 23.4688 10.5 25.2188C11.8125 23.4688 13.6172 21.0625 15.2031 18.5469C16.1328 17.0156 16.9531 15.4844 17.5 14.1719Z" fill="#5956FE"/>
</svg>
