<svg width="29" height="32" viewBox="0 0 29 32" fill="none" xmlns="http://www.w3.org/2000/svg">
<path d="M22 22.5H13C12.6875 22.5 12.5 22.75 12.5 23V25C12.5 25.3125 12.6875 25.5 13 25.5H22C22.25 25.5 22.5 25.3125 22.5 25V23C22.5 22.75 22.25 22.5 22 22.5ZM7.5 26H9.5C10 26 10.5 25.5625 10.5 25V23C10.5 22.5 10 22 9.5 22H7.5C6.9375 22 6.5 22.5 6.5 23V25C6.5 25.5625 6.9375 26 7.5 26ZM7.5 10H9.5C10 10 10.5 9.5625 10.5 9V7C10.5 6.5 10 6 9.5 6H7.5C6.9375 6 6.5 6.5 6.5 7V9C6.5 9.5625 6.9375 10 7.5 10ZM13 9.5H22C22.25 9.5 22.5 9.3125 22.5 9V7C22.5 6.75 22.25 6.5 22 6.5H13C12.6875 6.5 12.5 6.75 12.5 7V9C12.5 9.3125 12.6875 9.5 13 9.5ZM26.5 0H2.5C1.375 0 0.5 0.9375 0.5 2V30C0.5 31.125 1.375 32 2.5 32H26.5C27.5625 32 28.5 31.125 28.5 30V2C28.5 0.9375 27.5625 0 26.5 0ZM25.5 29H3.5V3H25.5V29ZM8.875 17.9375C9 18.0625 9.25 18.0625 9.375 17.9375L13.375 13.9375C13.5 13.8125 13.5 13.625 13.375 13.5L12.5625 12.6875C12.4375 12.5625 12.25 12.5625 12.125 12.6875L9.125 15.625L7.875 14.3125C7.6875 14.1875 7.5 14.1875 7.375 14.3125L6.5625 15.125C6.4375 15.25 6.4375 15.4375 6.5625 15.5625L8.875 17.9375ZM22 14.5H15.3125C15.1875 14.8125 15 15.125 14.75 15.375L12.625 17.5H22C22.25 17.5 22.5 17.3125 22.5 17V15C22.5 14.75 22.25 14.5 22 14.5Z" fill="#5956FE"/>
</svg>
