<svg width="21" height="22" viewBox="0 0 21 22" fill="none" xmlns="http://www.w3.org/2000/svg">
<path d="M18.75 0.5H2.25C0.984375 0.5 0 1.53125 0 2.75V19.25C0 20.5156 0.984375 21.5 2.25 21.5H18.75C19.9688 21.5 21 20.5156 21 19.25V2.75C21 1.53125 19.9688 0.5 18.75 0.5ZM18.75 19.25H2.25V2.75H18.75V19.25ZM17.0625 7.95312C17.25 7.71875 17.25 7.39062 17.0625 7.15625L15.9844 6.07812C15.7969 5.84375 15.4219 5.84375 15.1875 6.07812L8.57812 12.6406L5.76562 9.82812C5.53125 9.59375 5.20312 9.59375 4.96875 9.82812L3.89062 10.8594C3.70312 11.0938 3.70312 11.4688 3.89062 11.6562L8.15625 15.9688C8.39062 16.2031 8.71875 16.2031 8.95312 15.9688L17.0625 7.95312Z" fill="#5956FE"/>
</svg>
