<svg width="36" height="29" viewBox="0 0 36 29" fill="none" xmlns="http://www.w3.org/2000/svg">
<path d="M33.9219 7.00781L30.3672 1.32031C30.0391 0.828125 29.4922 0.5 28.8906 0.5H6.79688C6.19531 0.5 5.59375 0.828125 5.26562 1.32031L1.76562 7.00781C0.125 9.57812 1.21875 13.0781 3.84375 14.1719V26.5859C3.84375 27.6797 4.60938 28.5 5.59375 28.5H30.0938C31.0234 28.5 31.8438 27.6797 31.8438 26.5859V14.1719C34.4688 13.0781 35.5078 9.57812 33.9219 7.00781ZM29.2188 25.875H6.46875V20.625H29.2188V25.875ZM29.1641 18H6.46875V14.5C7.78125 14.2812 8.92969 13.625 9.75 12.6953C10.7344 13.7891 12.1562 14.5 13.7969 14.5C15.3828 14.5 16.8047 13.7891 17.7891 12.6953C18.7734 13.7891 20.25 14.5 21.8359 14.5C23.4766 14.5 24.8984 13.7891 25.8828 12.6953C26.7031 13.625 27.8516 14.2812 29.1641 14.5V18ZM31.7891 10.7266C31.625 11.1094 31.1875 11.7656 30.3125 11.875C30.2031 11.875 30.0391 11.9297 29.9297 11.9297C29.1094 11.9297 28.3984 11.5469 27.8516 10.9453L25.8828 8.75781L23.9688 10.9453C23.4219 11.5469 22.6562 11.875 21.8359 11.875C21.0703 11.875 20.3047 11.5469 19.7578 10.9453L17.8438 8.75781L15.875 10.9453C15.3281 11.5469 14.5625 11.875 13.7969 11.875C12.9766 11.875 12.2656 11.5469 11.7188 10.9453L9.75 8.75781L7.78125 10.9453C7.23438 11.5469 6.52344 11.875 5.70312 11.875C5.59375 11.875 5.42969 11.875 5.32031 11.875C4.44531 11.7656 4.00781 11.1094 3.84375 10.7266C3.57031 10.125 3.46094 9.25 3.95312 8.42969L7.23438 3.125H28.3984L31.6797 8.42969C32.1719 9.25 32.0625 10.125 31.7891 10.7266Z" fill="#5956FE"/>
</svg>
