<svg width="25" height="25" viewBox="0 0 25 25" fill="none" xmlns="http://www.w3.org/2000/svg">
<path d="M23.3125 2.07812L18.9062 1.09375C17.875 0.859375 16.8438 1.375 16.4688 2.3125L14.4062 7.09375C14.0312 7.9375 14.2656 8.96875 15.0156 9.57812L16.8906 11.125C15.5781 13.5625 13.5156 15.5781 11.0781 16.9375L9.53125 15.0625C8.92188 14.3125 7.89062 14.0781 7.04688 14.4531L2.26562 16.4688C1.32812 16.8906 0.8125 17.9219 1.04688 18.9531L2.03125 23.3594C2.26562 24.3438 3.15625 25 4.14062 25C15.625 25 25 15.7188 25 4.1875C25 3.20312 24.2969 2.3125 23.3125 2.07812ZM4.23438 22.75L3.25 18.5312L7.84375 16.5625L10.4688 19.75C15.1094 17.5469 17.5 15.1562 19.7031 10.5156L16.5156 7.89062L18.4844 3.29688L22.75 4.28125C22.7031 14.4531 14.4062 22.7031 4.23438 22.75Z" fill="#5956FE"/>
</svg>
