<svg width="33" height="28" viewBox="0 0 33 28" fill="none" xmlns="http://www.w3.org/2000/svg">
<path d="M3.5 23.5C3.5 24.375 4.125 25 5 25H31C31.8125 25 32.5 25.6875 32.5 26.5C32.5 27.375 31.8125 28 31 28H5C2.5 28 0.5 26 0.5 23.5V1.5C0.5 0.6875 1.125 0 2 0C2.8125 0 3.5 0.6875 3.5 1.5V23.5ZM22 6H29C29.8125 6 30.5 6.6875 30.5 7.5V14.5C30.5 15.375 29.8125 16 29 16C28.125 16 27.5 15.375 27.5 14.5V11.125L20.5 18.0625C19.9375 18.6875 19 18.6875 18.4375 18.0625L13.4375 13.125L9.5 17.0625C8.9375 17.6875 8 17.6875 7.4375 17.0625C6.8125 16.5 6.8125 15.5625 7.4375 14.9375L12.4375 9.9375C13 9.375 13.9375 9.375 14.5 9.9375L19.5 14.9375L25.375 9H22C21.125 9 20.5 8.375 20.5 7.5C20.5 6.6875 21.125 6 22 6Z" fill="#5956FE"/>
</svg>
