<svg width="25" height="32" viewBox="0 0 25 32" fill="none" xmlns="http://www.w3.org/2000/svg">
<path d="M15.6526 0C16.1526 0 16.5901 0.3125 16.8401 0.6875L18.8401 3.6875C19.1526 4.1875 19.2151 4.75 18.9026 5.25L16.9651 8.8125C21.4651 10.5625 24.6526 14.9375 24.6526 20C24.6526 26.625 19.2776 32 12.6526 32C5.9651 32 0.652597 26.625 0.652597 20C0.652597 14.9375 3.7776 10.5625 8.2776 8.8125L6.3401 5.25C6.0276 4.75 6.0901 4.1875 6.4026 3.6875L8.4026 0.6875C8.6526 0.3125 9.0901 0 9.6526 0H15.6526ZM13.9026 8.125L15.8401 4.625L14.8401 3H10.4026L9.4026 4.625L11.3401 8.125C11.7776 8.0625 12.1526 8 12.6526 8C13.0901 8 13.4651 8.0625 13.9026 8.125ZM12.6526 11C7.6526 11 3.6526 15.0625 3.6526 20C3.6526 25 7.6526 29 12.6526 29C17.5901 29 21.6526 25 21.6526 20C21.6526 15.0625 17.5901 11 12.6526 11Z" fill="#5956FE"/>
</svg>
