<svg width="25" height="25" viewBox="0 0 25 25" fill="none" xmlns="http://www.w3.org/2000/svg">
<path d="M12.6875 8.5625H6.5625C5.79688 8.5625 5.25 8.01562 5.25 7.25C5.25 6.53906 5.79688 5.9375 6.5625 5.9375H12.6875C13.3984 5.9375 14 6.53906 14 7.25C14 8.01562 13.3984 8.5625 12.6875 8.5625ZM17.9375 11.1875C18.6484 11.1875 19.25 11.7891 19.25 12.5C19.25 13.2656 18.6484 13.8125 17.9375 13.8125H6.5625C5.79688 13.8125 5.25 13.2656 5.25 12.5C5.25 11.7891 5.79688 11.1875 6.5625 11.1875H17.9375ZM9.1875 19.0625H6.5625C5.79688 19.0625 5.25 18.5156 5.25 17.75C5.25 17.0391 5.79688 16.4375 6.5625 16.4375H9.1875C9.89844 16.4375 10.5 17.0391 10.5 17.75C10.5 18.5156 9.89844 19.0625 9.1875 19.0625ZM21 0.25C22.9141 0.25 24.5 1.83594 24.5 3.75V21.25C24.5 23.2188 22.9141 24.75 21 24.75H3.5C1.53125 24.75 0 23.2188 0 21.25V3.75C0 1.83594 1.53125 0.25 3.5 0.25H21ZM21 2.875H3.5C3.00781 2.875 2.625 3.3125 2.625 3.75V21.25C2.625 21.7422 3.00781 22.125 3.5 22.125H21C21.4375 22.125 21.875 21.7422 21.875 21.25V3.75C21.875 3.3125 21.4375 2.875 21 2.875Z" fill="#5956FE"/>
</svg>
