<svg width="28" height="25" viewBox="0 0 28 25" fill="none" xmlns="http://www.w3.org/2000/svg">
<path d="M25.375 0.25H2.625C1.14844 0.25 0 1.45312 0 2.875V22.125C0 23.6016 1.14844 24.75 2.625 24.75H25.375C26.7969 24.75 28 23.6016 28 22.125V2.875C28 1.45312 26.7969 0.25 25.375 0.25ZM12.6875 22.125H2.95312C2.73438 22.125 2.625 22.0156 2.625 21.7969V14.6875H12.6875V22.125ZM12.6875 12.0625H2.625V4.625H12.6875V12.0625ZM25.0469 22.125H15.3125V14.6875H25.375V21.7969C25.375 22.0156 25.2109 22.125 25.0469 22.125ZM25.375 12.0625H15.3125V4.625H25.375V12.0625Z" fill="#5956FE"/>
</svg>
