<svg width="37" height="24" viewBox="0 0 37 24" fill="none" xmlns="http://www.w3.org/2000/svg">
<path d="M35 0H7.5C6.1875 0 5.0625 0.875 4.625 2H2C1.125 2 0.5 2.6875 0.5 3.5V20.5C0.5 22.4375 2.0625 24 4 24H35C35.8125 24 36.5 23.375 36.5 22.5V1.5C36.5 0.6875 35.8125 0 35 0ZM3.5 20.5V5H4.5V20.5C4.5 20.8125 4.25 21 4 21C3.6875 21 3.5 20.8125 3.5 20.5ZM33.5 21H7.4375C7.4375 20.875 7.5 20.6875 7.5 20.5V3H33.5V21ZM11.25 13.5H19.75C20.125 13.5 20.5 13.1875 20.5 12.75V6.75C20.5 6.375 20.125 6 19.75 6H11.25C10.8125 6 10.5 6.375 10.5 6.75V12.75C10.5 13.1875 10.8125 13.5 11.25 13.5ZM13 8.5H18V11H13V8.5ZM10.5 17.25C10.5 17.6875 10.8125 18 11.25 18H19.75C20.125 18 20.5 17.6875 20.5 17.25V15.75C20.5 15.375 20.125 15 19.75 15H11.25C10.8125 15 10.5 15.375 10.5 15.75V17.25ZM22.5 17.25C22.5 17.6875 22.8125 18 23.25 18H29.75C30.125 18 30.5 17.6875 30.5 17.25V15.75C30.5 15.375 30.125 15 29.75 15H23.25C22.8125 15 22.5 15.375 22.5 15.75V17.25ZM22.5 8.25C22.5 8.6875 22.8125 9 23.25 9H29.75C30.125 9 30.5 8.6875 30.5 8.25V6.75C30.5 6.375 30.125 6 29.75 6H23.25C22.8125 6 22.5 6.375 22.5 6.75V8.25ZM22.5 12.75C22.5 13.1875 22.8125 13.5 23.25 13.5H29.75C30.125 13.5 30.5 13.1875 30.5 12.75V11.25C30.5 10.875 30.125 10.5 29.75 10.5H23.25C22.8125 10.5 22.5 10.875 22.5 11.25V12.75Z" fill="#5956FE"/>
</svg>
