<svg width="25" height="32" viewBox="0 0 25 32" fill="none" xmlns="http://www.w3.org/2000/svg">
<path d="M12.9026 22.75L12.0276 20.125C11.8401 19.5 11.2776 19.125 10.6526 19.125C9.9651 19.125 9.4026 19.5 9.2151 20.125L8.0901 23.5625C7.9651 23.8125 7.7151 24 7.4026 24H6.6526C6.0901 24 5.6526 24.5 5.6526 25C5.6526 25.5625 6.0901 26 6.6526 26H7.4026C8.5901 26 9.5901 25.3125 9.9651 24.1875L10.6526 22.1875L11.6526 25.375C11.7776 25.75 12.1526 26 12.5276 26C12.5901 26 12.5901 26 12.5901 26C13.0276 26 13.3401 25.8125 13.5276 25.5L13.9651 24.5C14.1526 24.1875 14.4651 24.125 14.5901 24.125C14.7776 24.125 15.0901 24.1875 15.2776 24.5625C15.7151 25.4375 16.6526 26 17.6526 26H18.6526C19.1526 26 19.6526 25.5625 19.6526 25C19.6526 24.5 19.1526 24 18.6526 24H17.6526C17.4026 24 17.1526 23.875 17.0276 23.625C16.2776 22.125 14.1526 21.75 12.9026 22.75ZM23.7151 6.125L18.4651 0.9375C17.9026 0.375 17.1526 0 16.4026 0H3.5901C1.9651 0.0625 0.652597 1.375 0.652597 3.0625V29.0625C0.652597 30.6875 1.9651 32 3.5901 32H21.5901C23.2776 32 24.6526 30.6875 24.6526 29.0625V8.25C24.6526 7.5 24.2776 6.6875 23.7151 6.125ZM16.5901 3.25L21.4026 8.0625H16.5901V3.25ZM21.6526 29.0625H3.5901V3.0625H13.5901V9.5625C13.5901 10.375 14.2776 11.0625 15.0901 11.0625H21.6526V29.0625ZM6.1526 7H11.1526C11.4026 7 11.6526 6.8125 11.6526 6.5V5.5C11.6526 5.25 11.4026 5 11.1526 5H6.1526C5.8401 5 5.6526 5.25 5.6526 5.5V6.5C5.6526 6.8125 5.8401 7 6.1526 7ZM6.1526 11H11.1526C11.4026 11 11.6526 10.8125 11.6526 10.5V9.5C11.6526 9.25 11.4026 9 11.1526 9H6.1526C5.8401 9 5.6526 9.25 5.6526 9.5V10.5C5.6526 10.8125 5.8401 11 6.1526 11Z" fill="#5956FE"/>
</svg>
