<svg width="53" height="53" viewBox="0 0 53 53" fill="none" xmlns="http://www.w3.org/2000/svg">
<path d="M52.5 26.5C52.5 40.9219 40.8203 52.5 26.5 52.5C12.0781 52.5 0.5 40.9219 0.5 26.5C0.5 12.1797 12.0781 0.5 26.5 0.5C40.8203 0.5 52.5 12.1797 52.5 26.5ZM19.5938 15.5312C18.7812 15.9375 18.375 16.75 18.375 17.5625V35.4375C18.375 36.3516 18.7812 37.1641 19.5938 37.5703C20.3047 38.0781 21.3203 37.9766 22.0312 37.5703L36.6562 28.6328C37.3672 28.125 37.875 27.4141 37.875 26.5C37.875 25.6875 37.3672 24.875 36.6562 24.4688L22.0312 15.5312C21.3203 15.0234 20.3047 15.0234 19.5938 15.4297V15.5312Z" fill="white"/>
</svg>
