<svg width="153" height="42" viewBox="0 0 153 42" fill="none" xmlns="http://www.w3.org/2000/svg">
<g clip-path="url(#clip0_2064_859)">
<path d="M37.887 21.0381C37.887 26.1025 35.9429 30.7134 32.7713 34.1354C29.3195 37.8604 24.4154 40.188 18.9738 40.188C13.5322 40.188 8.53656 37.8179 5.08099 34.0312C2.33635 31.0222 0.533281 27.1197 0.142552 22.8022C0.0891839 22.2193 0.0625 21.6325 0.0625 21.0381C0.0625 20.9821 0.0625 20.9262 0.064406 20.8682C0.10062 16.3404 1.69022 12.185 4.32431 8.92511C7.79131 4.62883 13.0671 1.88623 18.9738 1.88623C24.8805 1.88623 30.0591 4.57865 33.528 8.80545C36.2497 12.1213 37.887 16.3867 37.887 21.0381Z" fill="#F4E9D4"/>
<path d="M21.1372 31.0859C25.7325 31.3677 29.8152 32.491 32.7714 34.1373C29.3196 37.8623 24.4136 40.188 18.972 40.188C13.5303 40.188 8.53281 37.8179 5.08105 34.0293C8.02201 32.4408 12.0246 31.36 16.5208 31.0859C17.2775 31.0396 18.0475 31.0145 18.8271 31.0145C19.6066 31.0145 20.3805 31.0396 21.1372 31.0859Z" fill="#EE783C"/>
<path d="M37.6568 21.6422C37.6568 26.8031 29.2265 30.9875 18.8293 30.9875C8.43213 30.9875 0 26.8031 0 21.6422C0 16.4813 8.0414 12.4957 18.107 12.3066C17.5676 12.2969 17.032 12.2757 16.504 12.2429C11.619 11.9437 7.31331 10.7162 4.3247 8.92705C7.79171 4.63076 13.0675 1.88623 18.9742 1.88623C24.8809 1.88623 30.0595 4.57672 33.5284 8.80545C30.536 10.6602 26.1465 11.936 21.1566 12.2429C20.6286 12.2737 20.0911 12.2969 19.5517 12.3066C29.6154 12.4957 37.6587 16.6028 37.6587 21.6422H37.6568Z" fill="#EE783C"/>
<path d="M53.2018 41.4946L46.4756 41.5371V9.20302L53.2018 9.16056V10.7123C53.2018 12.0055 52.3937 13.4723 51.9668 14.721L53.0741 15.0665C53.4992 13.8602 53.5849 12.0479 54.4789 11.1003C56.0113 9.46165 58.1822 8.4696 61.0355 8.4696C67.3786 8.4696 71.9778 13.5128 71.7224 19.8936C71.5089 25.9288 67.0394 31.3619 61.0793 31.3619C58.226 31.3619 56.099 30.1556 54.5227 28.5595C53.6288 27.6543 53.4592 25.8439 53.0322 24.6357L51.9248 25.0236C52.3499 26.2743 53.2018 27.7392 53.2018 29.0323V41.4927V41.4946ZM54.7762 19.7662C54.7762 22.6555 56.6917 25.0699 59.8423 25.0699C62.9929 25.0699 64.9942 22.6555 64.9942 19.7662C64.9942 16.8769 62.9929 14.7654 59.8423 14.7654C56.6917 14.7654 54.7762 16.8788 54.7762 19.7662Z" fill="#191919"/>
<path d="M73.4698 9.15863H79.6433V30.7153C79.6433 35.1564 76.5346 37.3972 71.5962 37.3972H68.6152V31.1457H70.7023C73.1725 31.1457 73.4698 29.9395 73.4698 27.3088V9.15863ZM73.2563 0.537109H79.8549V6.14197H73.2563V0.537109Z" fill="#191919"/>
<path d="M90.9676 16.6608C91.8196 15.9274 93.2243 15.7556 94.246 15.3677L93.8628 14.2463C92.8412 14.6342 91.6481 15.4526 90.5426 15.4526H81.3462V9.15869H102.676V15.4526L92.7555 23.2558C91.9473 23.9448 90.4988 24.0741 89.5191 24.462L89.9022 25.5834C90.9238 25.1955 92.117 24.4196 93.1805 24.4196H103.143V30.7135H81.0889V25.0218L90.9657 16.6589L90.9676 16.6608Z" fill="#191919"/>
<path d="M103.356 19.8087C103.356 13.3855 108.891 8.51404 116.725 8.51404C124.559 8.51404 129.753 13.8603 129.711 19.8955V21.7928L111.745 21.7503C111.745 23.6475 113.533 25.8034 117.194 25.8034C119.536 25.8034 120.983 25.1568 121.408 24.5527H129.242C128.603 26.7954 125.155 31.4083 117.832 31.4083C108.466 31.4083 103.356 26.2357 103.356 19.8106V19.8087ZM121.705 17.7821C121.705 15.2808 119.876 13.5573 116.895 13.5573C113.914 13.5573 111.743 15.4969 111.743 17.7821H121.705Z" fill="#191919"/>
<path d="M145.421 8.51206C149.721 8.51206 153 11.0134 153 15.9273V30.7153H146.273V20.8431C146.273 17.0931 145.038 15.4544 142.398 15.4544C139.503 15.4544 137.119 17.1355 137.119 20.8431V30.7153H130.393V9.15863H137.119V9.3304C137.119 11.3994 136.055 13.8139 135.331 15.7536L136.438 16.184C137.163 14.2443 137.757 11.4419 139.376 10.1912C140.95 8.98492 142.909 8.51013 145.421 8.51013V8.51206Z" fill="#191919"/>
</g>
<defs>
<clipPath id="clip0_2064_859">
<rect width="153" height="41" fill="white" transform="translate(0 0.537109)"/>
</clipPath>
</defs>
</svg>
