<svg width="176" height="49" viewBox="0 0 176 49" fill="none" xmlns="http://www.w3.org/2000/svg">
<g clip-path="url(#clip0_2147_9915)">
<path d="M43.5815 24.3582C43.5815 30.4101 41.3461 35.9227 37.6986 40.0128C33.7268 44.4671 28.0865 47.2463 21.8275 47.2463C15.5685 47.2463 9.8192 44.4126 5.84733 39.8866C2.68782 36.2927 0.613287 31.6262 0.163487 26.4692C0.103514 25.7722 0.0708008 25.0724 0.0708008 24.3611C0.0708008 24.2951 0.0708008 24.2263 0.0735268 24.1603C0.114418 18.7481 1.94361 13.7833 4.97499 9.8854C8.96321 4.74562 15.0314 1.46729 21.8248 1.46729C28.6181 1.46729 34.5746 4.68538 38.5655 9.73912C41.695 13.7029 43.5815 18.7997 43.5815 24.3582Z" fill="#F4E9D4"/>
<path d="M24.3138 36.3674C29.2071 36.6801 33.596 37.8531 36.9191 39.5855C37.3144 39.792 37.3962 40.3513 37.0799 40.6783C33.1517 44.7425 27.765 47.2464 21.8222 47.2464C15.8794 47.2464 10.3918 44.6909 6.45808 40.5607C6.14458 40.2309 6.23182 39.6687 6.63255 39.4679C9.92563 37.7986 14.2219 36.6743 19.0034 36.3703C19.873 36.3158 20.759 36.2871 21.6559 36.2871C22.5527 36.2871 23.4442 36.3158 24.3138 36.3703V36.3674Z" fill="#EE783C"/>
<path d="M43.3171 25.081C43.3171 31.2476 33.6205 36.2497 21.6586 36.2497C9.6966 36.2497 0 31.2476 0 25.081C0 18.9144 9.24953 14.1475 20.8298 13.9238C20.211 13.9123 19.5922 13.8865 18.987 13.8464C13.7339 13.5108 9.06415 12.2058 5.67021 10.2927C5.30492 10.0862 5.22041 9.57276 5.49301 9.24292C9.47579 4.47601 15.3177 1.46729 21.8248 1.46729C28.332 1.46729 34.0676 4.41864 38.0504 9.10812C38.3257 9.43222 38.2466 9.94563 37.8868 10.155C34.4765 12.1455 29.7086 13.5022 24.3383 13.8464C23.7304 13.8836 23.1116 13.9123 22.4927 13.9238C34.0703 14.1504 43.3226 19.0578 43.3226 25.081H43.3171Z" fill="#EE783C"/>
<path d="M70.6829 25.5824C80.9674 25.5824 86.0571 21.3636 86.0571 14.2582C86.0571 7.15289 80.9674 2.93408 70.6829 2.93408H53.5771V3.21163C55.7285 4.15532 56.9353 5.15451 56.9353 8.98474V35.5188C56.9353 39.4045 55.6235 40.6258 53.5771 41.514V41.7915H72.8867V41.514C69.3187 40.8478 67.9544 39.127 67.9544 35.5188V25.5824H70.6829ZM68.7415 4.54389C71.7848 4.54389 74.251 8.70719 74.251 14.2582C74.251 19.8093 71.7848 23.9726 68.7415 23.9726H67.9544V4.54389H68.7415Z" fill="#363636"/>
<path d="M86.8721 46.0658C94.3755 46.0658 99.3603 42.2911 99.3603 33.8535V8.98474C99.3603 6.26472 100.567 4.15532 102.719 3.21163V2.93408H84.9831V3.21163C87.1344 4.15532 88.3413 5.15451 88.3413 8.98474V36.4625C88.3413 42.1246 85.7702 44.8446 82.412 44.8446H81.9922V45.2887C83.199 45.7883 84.6158 46.0658 86.8721 46.0658Z" fill="#363636"/>
<path d="M101.13 41.7915H124.689L125.476 27.9139H125.214C123.01 35.5188 118.288 40.2927 112.988 40.2927H112.726L126.316 12.8705V12.6484H104.068L102.494 25.6379H102.756C104.645 18.7546 109.263 14.1472 114.195 14.1472H114.72L101.13 41.5695V41.7915Z" fill="#363636"/>
<path d="M142.439 34.3531C137.769 34.3531 134.621 31.1335 133.834 24.8608H148.946C148.946 14.3138 142.597 11.8158 138.136 11.8158C131 11.8158 125.806 18.4771 125.806 27.8028C125.806 37.5172 131.735 42.6242 137.769 42.6242C141.967 42.6242 147.424 40.0707 148.841 31.522L148.421 31.411C147.004 33.5204 145.063 34.3531 142.439 34.3531ZM136.982 13.6476C139.081 13.6476 140.183 15.8125 140.183 23.1399H133.676C133.624 22.6403 133.624 22.1408 133.624 21.5856C133.624 16.5897 134.831 13.6476 136.982 13.6476Z" fill="#363636"/>
<path d="M175.927 37.3507V19.8648C175.927 14.7023 173.094 11.8158 168.319 11.8158C164.803 11.8158 162.127 13.5921 160.973 16.8672V11.8158L148.432 15.5905V15.8681C150.321 16.4787 151.003 17.6444 151.003 20.3089V37.3507C151.003 39.6266 149.901 40.8478 148.432 41.514V41.7915H162.494V41.514C161.393 40.9588 160.973 39.9041 160.973 37.9058V17.8664C161.55 17.0338 162.337 16.4787 163.544 16.4787C165.066 16.4787 165.958 17.5889 165.958 19.8648V37.9058C165.958 39.9041 165.538 40.9588 164.436 41.514V41.7915H178.498V41.514C177.029 40.8478 175.927 39.6266 175.927 37.3507Z" fill="#363636"/>
</g>
<defs>
<clipPath id="clip0_2147_9915">
<rect width="176" height="49" fill="white"/>
</clipPath>
</defs>
</svg>
